<svg xmlns="http://www.w3.org/2000/svg" width="300" height="160" fill="none" viewBox="0 0 300 160">
  <path fill="#E3F1EC" stroke="#0A5A5A" stroke-linecap="square" stroke-width="1.2" d="M105 29h52.2l12.6 12.6 11.7 11.25v67.95H105V29Z"></path>
  <path fill="#fff" stroke="#0A5A5A" stroke-linecap="square" stroke-width="1.2" d="M118.5 38h51.3l12.6 13.05 12.6 12.6v66.15h-76.5V38Z"></path>
  <path stroke="#0A5A5A" stroke-linecap="square" stroke-linejoin="bevel" stroke-width="1.2" d="M169.8 63.65V38L195 63.65h-25.2Z"></path>
  <path fill="#0069CB" d="M128.4 48.8h28.8v5.4h-28.8z"></path>
  <path fill="#00E194" d="M128.4 60.5h19.8v5.4h-19.8z"></path>
  <path fill="#E3F1EC" stroke="#636363" stroke-linecap="square" stroke-width=".63" d="M146.4 81.2h27v29.7h-27z"></path>
  <path fill="#00E194" stroke="#636363" stroke-linecap="square" stroke-width=".63" d="M140.1 86.6h27v29.7h-27z"></path>
  <circle cx="153.6" cy="98.3" r="4.185" fill="#fff" stroke="#636363" stroke-width=".63"></circle>
  <path stroke="#636363" stroke-linecap="square" stroke-linejoin="bevel" stroke-width=".63" d="M145.5 108.2h16.2"></path>
  <path stroke="#00A870" stroke-width="2.125" d="M84 49c0-19.33 16.118-35 36-35"></path>
  <path fill="#00A870" d="m120 6 10 7-10 7V6Z"></path>
  <path stroke="#00A870" stroke-width="2.125" d="M217 111c0 20.435-16.565 37-37 37"></path>
  <path fill="#00A870" d="m181 140-11 7 11 7v-14Z"></path>
</svg>