<svg xmlns="http://www.w3.org/2000/svg" width="300" height="160" fill="none" viewBox="0 0 300 160">
  <path fill="#E8E8E8" d="m105.196 126.594 5.516-2.887 80.812 14.018 2.816-1.922v-4.363l10.635 1.827-13.451 9.761-86.328-16.434Z" opacity=".8"></path>
  <path stroke="#0A5A5A" stroke-width=".6" d="M174.156 28.581v-3.417"></path>
  <path fill="#E3F1EC" d="m191.422 33.274-81-8.44.202 98.173 80.798 14.802V33.274Z"></path>
  <path stroke="#999" stroke-width=".6" d="m191.422 33.274-81-8.44.202 98.173 80.798 14.802V33.274Zm0 0 2.5-2.5"></path>
  <path stroke="#0A5A5A" stroke-linecap="square" stroke-width="1.2" d="M110.43 24.854v98.398l81.233 14.557 2.259-1.536V30.766l-79.5-7.592-3.992 1.68Z"></path>
  <path fill="#C9DED7" stroke="#999" stroke-width=".6" d="m164.375 123.719 15.768 2.637a127.332 127.332 0 0 0 5.922-38.381V71.133l-21.69 52.586Z"></path>
  <path fill="#fff" stroke="#999" stroke-linecap="square" stroke-width=".6" d="m184.387 42.314-69.896-8.724a106.629 106.629 0 0 1-11.861 76.873l-3.13 5.387 69.896 12.113 1.595-3.014a130.637 130.637 0 0 0 13.396-82.635Z"></path>
  <path fill="#D6E4E6" d="M145.058 64.234v.726a43.176 43.176 0 0 1-4.372 18.933l-21.446-3.266.493-1.049a42.578 42.578 0 0 0 4.046-18.117l21.279 2.773Zm-18.431 7.804 9.11 1.15v-1.535l-9.11-1.15v1.535Zm0-4.394 13.761 1.827v-1.536l-13.761-1.827v1.536Z"></path>
  <path stroke="#D9D9D9" stroke-width="3.458" d="M162.254 69.565c5.414.375 9.283 4.68 8.96 9.35-.323 4.67-4.749 8.402-10.163 8.027-5.414-.374-9.283-4.68-8.96-9.35.324-4.67 4.749-8.401 10.163-8.027Z"></path>
  <path stroke="#D6E4E6" stroke-width="3.458" d="M162.254 69.565c5.414.375 9.283 4.68 8.96 9.35-.323 4.67-4.749 8.402-10.163 8.027-5.414-.374-9.283-4.68-8.96-9.35.324-4.67 4.749-8.401 10.163-8.027Z"></path>
  <path stroke="#05C178" stroke-width="3.458" d="M171.116 78.909c-.333 4.82-4.839 8.434-10.063 8.072-5.224-.361-9.188-4.561-8.855-9.381.334-4.82 4.839-8.434 10.063-8.073"></path>
  <path fill="#fff" d="m135.415 21.431 39.104 3.73-3.038 2.564v6.055l-40.317-4.33v-6.135l4.251-1.884Z"></path>
  <path stroke="#0A5A5A" stroke-linecap="square" stroke-width="1.2" d="m174.519 25.161-39.104-3.73-4.251 1.884v6.134l40.317 4.33v-6.054l3.038-2.564Zm0 0v3.252"></path>
  <path stroke="#0A5A5A" stroke-width=".6" d="m131.553 23.962 39.424 3.808"></path>
  <path fill="#05C178" d="m124.863 42.95 53.393 6.716-.002 2.702-53.391-6.717v-2.702Z"></path>
  <path fill="#B8EF00" d="m152.738 53.18 25.464 3.248.003 2.595-25.464-3.249-.003-2.595Z"></path>
</svg>