<svg xmlns="http://www.w3.org/2000/svg" width="244" height="160" fill="none" viewBox="0 0 244 160">
  <path fill="#fff" stroke="#0A5A5A" stroke-linecap="square" stroke-width="1.2" d="M143.829 37.822H207v31.586h-63.171V37.822Z"></path>
  <path fill="#fff" stroke="#636363" stroke-linecap="square" stroke-width=".637" d="M145.85 39.803h59.297v27.48H145.85v-27.48Z"></path>
  <path fill="#DDE9E5" d="M155.2 44.139h40.43v2.527H155.2zm0 7.581h24.005v2.527H155.2zm0 7.581h24.005v2.527H155.2z"></path>
  <circle cx="119.123" cy="80.779" r="41.693" fill="#fff" stroke="#0A5A5A" stroke-linecap="square" stroke-width="1.2"></circle>
  <circle cx="119.123" cy="80.779" r="38.346" fill="#E3F1EC" stroke="#999" stroke-width=".637"></circle>
  <path stroke="#00A870" stroke-width="2.125" d="M68.585 71.935c0-23.027 18.667-41.693 41.694-41.693m59.381 59.381c0 23.026-18.666 41.693-41.693 41.693"></path>
  <path fill="#fff" stroke="#0A5A5A" stroke-linecap="square" stroke-width="1.2" d="M37 93.413h63.171V125H37V93.413Z"></path>
  <path fill="#fff" stroke="#636363" stroke-linecap="square" stroke-width=".637" d="M39.022 95.597h59.297v27.276H39.022V95.597Z"></path>
  <path fill="#DDE9E5" d="M48.371 99.73h40.43v2.527h-40.43zm0 7.581h24.005v2.527H48.371zm0 7.581h24.005v2.527H48.371z"></path>
  <mask id="a" width="44" height="35" x="97.171" y="61.354" fill="#000" maskUnits="userSpaceOnUse">
    <path fill="#fff" d="M97.171 61.354h44v35h-44z"></path>
    <path fill-rule="evenodd" d="M108.571 73.382c.794-5.114 5.216-9.028 10.552-9.028 5.337 0 9.759 3.914 10.553 9.028 4.766.795 8.398 4.939 8.398 9.93 0 5.56-4.507 10.068-10.068 10.068h-17.767c-5.56 0-10.067-4.507-10.067-10.068 0-4.992 3.633-9.135 8.399-9.93Z" clip-rule="evenodd"></path>
  </mask>
  <path fill="#0069CB" fill-rule="evenodd" d="M108.571 73.382c.794-5.114 5.216-9.028 10.552-9.028 5.337 0 9.759 3.914 10.553 9.028 4.766.795 8.398 4.939 8.398 9.93 0 5.56-4.507 10.068-10.068 10.068h-17.767c-5.56 0-10.067-4.507-10.067-10.068 0-4.992 3.633-9.135 8.399-9.93Z" clip-rule="evenodd"></path>
  <path fill="#fff" d="m108.571 73.382.365 2.19 1.582-.265.246-1.585-2.193-.34Zm21.105 0-2.193.34.246 1.585 1.581.264.366-2.189Zm-21.105 0 2.193.34a8.463 8.463 0 0 1 8.359-7.148v-4.44c-6.447 0-11.786 4.729-12.746 10.907l2.194.341Zm10.552-9.028v2.22c4.226 0 7.731 3.1 8.36 7.149l2.193-.34 2.193-.341c-.959-6.18-6.298-10.907-12.746-10.907v2.219Zm10.553 9.028-.366 2.19a7.851 7.851 0 0 1 6.545 7.74h4.439c0-6.094-4.435-11.148-10.253-12.12l-.365 2.19Zm8.398 9.93h-2.219a7.849 7.849 0 0 1-7.849 7.849V95.6c6.787 0 12.288-5.501 12.288-12.288h-2.22ZM128.006 93.38v-2.22h-17.767v4.44h17.767v-2.22Zm-17.767 0v-2.22a7.848 7.848 0 0 1-7.848-7.848h-4.439c0 6.787 5.501 12.288 12.287 12.288v-2.22Zm-10.067-10.068h2.219a7.851 7.851 0 0 1 6.545-7.74l-.365-2.19-.365-2.19c-5.819.971-10.254 6.026-10.254 12.12h2.22Z" mask="url(#a)"></path>
  <path fill="#00A870" d="m110.279 21.398 12.002 8.212-12.002 8.212V21.397Zm18.32 101.074-12.003 8.212 12.003 8.213v-16.425Z"></path>
  <path fill="#fff" d="M118.4 78.713h2.708v8.844H118.4v-8.844Z"></path>
  <path fill="#fff" d="m114.069 80.245 5.686-8.31 5.685 8.31h-11.371Z"></path>
</svg>