<svg xmlns="http://www.w3.org/2000/svg" width="300" height="160" fill="none" viewBox="0 0 300 160">
  <path fill="#fff" stroke="#0A5A5A" stroke-linecap="square" stroke-width="1.2" d="M173.421 37.969h63.172v31.586h-63.172V37.969Z"></path>
  <path fill="#fff" stroke="#636363" stroke-linecap="square" stroke-width=".637" d="M175.443 39.95h59.297v27.479h-59.297v-27.48Z"></path>
  <path fill="#DDE9E5" d="M184.792 44.286h40.43v2.527h-40.43zm0 7.581h24.005v2.527h-24.005zm0 7.58h24.005v2.527h-24.005z"></path>
  <circle cx="148.716" cy="80.925" r="41.693" fill="#fff" stroke="#0A5A5A" stroke-linecap="square" stroke-width="1.2"></circle>
  <circle cx="148.716" cy="80.925" r="38.346" fill="#E3F1EC" stroke="#999" stroke-width=".637"></circle>
  <path stroke="#00A870" stroke-width="2.125" d="M98.178 72.082c0-23.027 18.667-41.693 41.693-41.693m59.382 59.381c0 23.026-18.667 41.693-41.693 41.693"></path>
  <path fill="#fff" stroke="#0A5A5A" stroke-linecap="square" stroke-width="1.2" d="M66.593 93.56h63.171v31.586H66.593V93.56Z"></path>
  <path fill="#fff" stroke="#636363" stroke-linecap="square" stroke-width=".637" d="M68.615 95.743h59.297v27.277H68.615V95.744Z"></path>
  <path fill="#DDE9E5" d="M77.964 99.877h40.43v2.527h-40.43zm0 7.581h24.005v2.527H77.964zm0 7.58h24.005v2.527H77.964z"></path>
  <mask id="a" width="44" height="35" x="126.764" y="61.501" fill="#000" maskUnits="userSpaceOnUse">
    <path fill="#fff" d="M126.764 61.501h44v35h-44z"></path>
    <path fill-rule="evenodd" d="M138.164 73.529c.793-5.114 5.216-9.028 10.552-9.028 5.336 0 9.759 3.914 10.553 9.028 4.765.795 8.398 4.939 8.398 9.93 0 5.56-4.507 10.068-10.068 10.068h-17.767c-5.56 0-10.068-4.507-10.068-10.068 0-4.992 3.633-9.135 8.4-9.93Z" clip-rule="evenodd"></path>
  </mask>
  <path fill="#0069CB" fill-rule="evenodd" d="M138.164 73.529c.793-5.114 5.216-9.028 10.552-9.028 5.336 0 9.759 3.914 10.553 9.028 4.765.795 8.398 4.939 8.398 9.93 0 5.56-4.507 10.068-10.068 10.068h-17.767c-5.56 0-10.068-4.507-10.068-10.068 0-4.992 3.633-9.135 8.4-9.93Z" clip-rule="evenodd"></path>
  <path fill="#fff" d="m138.164 73.529.365 2.19 1.582-.265.246-1.584-2.193-.341Zm21.105 0-2.194.34.246 1.585 1.582.264.366-2.189Zm-21.105 0 2.193.34a8.462 8.462 0 0 1 8.359-7.148v-4.44c-6.447 0-11.787 4.729-12.746 10.908l2.194.34Zm10.552-9.028v2.22c4.225 0 7.731 3.1 8.359 7.149l2.194-.34 2.193-.341c-.959-6.179-6.298-10.907-12.746-10.907v2.22Zm10.553 9.028-.366 2.19a7.851 7.851 0 0 1 6.545 7.74h4.439c0-6.094-4.435-11.148-10.253-12.12l-.365 2.19Zm8.398 9.93h-2.219a7.849 7.849 0 0 1-7.849 7.849v4.439c6.786 0 12.288-5.501 12.288-12.288h-2.22Zm-10.068 10.068v-2.22h-17.767v4.44h17.767v-2.22Zm-17.767 0v-2.22a7.848 7.848 0 0 1-7.848-7.848h-4.439c0 6.787 5.501 12.288 12.287 12.288v-2.22ZM129.764 83.46h2.22a7.851 7.851 0 0 1 6.545-7.74l-.365-2.19-.366-2.19c-5.818.971-10.253 6.026-10.253 12.12h2.219Z" mask="url(#a)"></path>
  <path fill="#00A870" d="m139.871 21.545 12.003 8.212-12.003 8.212V21.545Zm18.321 101.074-12.003 8.212 12.003 8.212v-16.424Z"></path>
  <path fill="#fff" d="M147.993 78.86h2.708v8.844h-2.708V78.86Z"></path>
  <path fill="#fff" d="m143.662 80.391 5.686-8.31 5.685 8.31h-11.371Z"></path>
</svg>