<svg xmlns="http://www.w3.org/2000/svg" width="300" height="160" fill="none" viewBox="0 0 300 160">
  <path fill="#E3F1EC" stroke="#0A5A5A" stroke-linecap="square" stroke-width="1.2" d="m105.889 26.566 102.082 19.88-13.571 69.69-102.083-19.88z"></path>
  <path fill="#fff" stroke="#636363" stroke-linecap="square" stroke-width=".7" d="m109.771 32.788 92.267 17.968-11.467 58.883-92.267-17.968z"></path>
  <path fill="#E3F1EC" d="m113.744 41.754 36.818 7.17-1.011 5.195-36.819-7.17z"></path>
  <circle cx="174.496" cy="92.706" r="5.534" fill="#E3F1EC" stroke="#999" stroke-width=".6" transform="rotate(11.02 174.496 92.706)"></circle>
  <path fill="#E3F1EC" stroke="#0A5A5A" stroke-linecap="square" stroke-width="1.2" d="M80.893 55.299h104v71h-104z"></path>
  <path fill="#fff" stroke="#636363" stroke-linecap="square" stroke-width=".7" d="M85.893 60.664h94v59.989h-94z"></path>
  <path fill="#E3F1EC" d="M91.507 68.705h37.51v5.293h-37.51zm71.578 0h11.069v11.234h-11.069z"></path>
  <circle cx="160.878" cy="107.104" r="5.534" fill="#E3F1EC" stroke="#999" stroke-width=".6"></circle>
  <circle cx="168.619" cy="107.104" r="5.534" fill="#E3F1EC" stroke="#999" stroke-width=".6"></circle>
  <path fill="#636363" d="M107.764 94.903c-.366 0-.69-.08-.971-.24a1.773 1.773 0 0 1-.665-.665 1.93 1.93 0 0 1-.239-.97v-1.854c0-.366.079-.69.239-.971.162-.282.383-.502.665-.661a1.91 1.91 0 0 1 .971-.243c.366 0 .69.08.971.243.282.159.502.38.662.66.161.282.242.606.242.972v1.853c0 .366-.081.69-.242.971a1.75 1.75 0 0 1-.662.665c-.281.16-.605.24-.971.24Zm0-.748c.199 0 .38-.047.542-.142a1.06 1.06 0 0 0 .538-.938v-1.957a1.068 1.068 0 0 0-.538-.93 1.035 1.035 0 0 0-.542-.146 1.075 1.075 0 0 0-1.08 1.076v1.958c0 .201.049.384.146.549a1.068 1.068 0 0 0 .934.53Zm-4.794.748c-.366 0-.69-.08-.971-.24a1.773 1.773 0 0 1-.665-.665 1.93 1.93 0 0 1-.239-.97v-1.854c0-.366.079-.69.239-.971.162-.282.383-.502.665-.661a1.91 1.91 0 0 1 .971-.243c.366 0 .69.08.971.243.282.159.502.38.662.66.162.282.242.606.242.972v1.853c0 .366-.08.69-.242.971a1.75 1.75 0 0 1-.662.665c-.281.16-.605.24-.971.24Zm0-.748c.199 0 .38-.047.542-.142a1.06 1.06 0 0 0 .538-.938v-1.957a1.068 1.068 0 0 0-.538-.93 1.035 1.035 0 0 0-.542-.146 1.075 1.075 0 0 0-1.08 1.076v1.958c0 .201.049.384.146.549a1.068 1.068 0 0 0 .934.53Zm-4.793.748c-.367 0-.69-.08-.972-.24a1.775 1.775 0 0 1-.665-.665 1.936 1.936 0 0 1-.239-.97v-1.854c0-.366.08-.69.24-.971.161-.282.383-.502.664-.661.282-.162.606-.243.972-.243s.69.08.97.243c.282.159.503.38.662.66.162.282.243.606.243.972v1.853c0 .366-.08.69-.243.971-.16.282-.38.503-.661.665-.281.16-.605.24-.971.24Zm0-.748c.199 0 .38-.047.541-.142a1.06 1.06 0 0 0 .538-.938v-1.957a1.066 1.066 0 0 0-.538-.93 1.033 1.033 0 0 0-.541-.146 1.075 1.075 0 0 0-1.08 1.076v1.958c0 .201.049.384.146.549.097.162.226.291.388.388.165.095.346.142.546.142Zm-4.794.748c-.366 0-.69-.08-.972-.24a1.776 1.776 0 0 1-.665-.664 1.937 1.937 0 0 1-.239-.972v-1.853c0-.366.08-.69.24-.971.161-.282.383-.502.664-.661.282-.162.606-.243.972-.243s.69.08.971.243c.281.159.502.38.661.66.162.282.243.606.243.972v1.853c0 .366-.08.69-.243.972-.16.28-.38.502-.661.664-.281.16-.605.24-.971.24Zm0-.748c.199 0 .38-.047.541-.142a1.059 1.059 0 0 0 .538-.938v-1.957a1.067 1.067 0 0 0-.538-.93 1.033 1.033 0 0 0-.541-.146 1.077 1.077 0 0 0-1.08 1.076v1.958c0 .202.049.385.146.549.097.162.226.291.388.388.165.095.346.142.546.142Zm35.513.748c-.366 0-.69-.08-.971-.24a1.78 1.78 0 0 1-.665-.665 1.94 1.94 0 0 1-.239-.97v-1.854c0-.366.08-.69.239-.971.162-.282.384-.502.665-.661a1.91 1.91 0 0 1 .971-.243c.366 0 .69.08.972.243.281.159.502.38.661.66.162.282.243.606.243.972v1.853c0 .366-.081.69-.243.971-.159.282-.38.503-.661.665a1.94 1.94 0 0 1-.972.24Zm0-.748c.2 0 .38-.047.542-.142a1.06 1.06 0 0 0 .538-.938v-1.957a1.068 1.068 0 0 0-.538-.93 1.032 1.032 0 0 0-.542-.146 1.083 1.083 0 0 0-.934.534 1.033 1.033 0 0 0-.145.542v1.958a1.063 1.063 0 0 0 .534.937c.164.095.346.142.545.142Zm-4.794.748c-.366 0-.689-.08-.971-.24a1.78 1.78 0 0 1-.665-.665 1.94 1.94 0 0 1-.239-.97v-1.854c0-.366.08-.69.239-.971.162-.282.384-.502.665-.661.282-.162.605-.243.971-.243.367 0 .69.08.972.243.281.159.502.38.661.66.162.282.243.606.243.972v1.853c0 .366-.081.69-.243.971-.159.282-.38.503-.661.665-.282.16-.605.24-.972.24Zm0-.748c.2 0 .38-.047.542-.142.164-.097.295-.226.392-.388.098-.165.146-.348.146-.55v-1.957a1.068 1.068 0 0 0-.538-.93 1.032 1.032 0 0 0-.542-.146 1.083 1.083 0 0 0-.934.534 1.033 1.033 0 0 0-.145.542v1.958a1.063 1.063 0 0 0 .534.937c.164.095.346.142.545.142Zm-4.793.748c-.366 0-.69-.08-.971-.24a1.773 1.773 0 0 1-.665-.665 1.93 1.93 0 0 1-.239-.97v-1.854c0-.366.079-.69.239-.971.162-.282.383-.502.665-.661a1.91 1.91 0 0 1 .971-.243c.366 0 .69.08.971.243.282.159.502.38.662.66.161.282.242.606.242.972v1.853c0 .366-.081.69-.242.971a1.75 1.75 0 0 1-.662.665c-.281.16-.605.24-.971.24Zm0-.748c.199 0 .38-.047.542-.142a1.06 1.06 0 0 0 .538-.938v-1.957a1.068 1.068 0 0 0-.538-.93 1.035 1.035 0 0 0-.542-.146 1.075 1.075 0 0 0-1.08 1.076v1.958c0 .201.049.384.146.549a1.068 1.068 0 0 0 .934.53Zm-4.794.748c-.366 0-.69-.08-.971-.24a1.772 1.772 0 0 1-.665-.664 1.93 1.93 0 0 1-.239-.972v-1.853c0-.366.079-.69.239-.971.162-.282.383-.502.665-.661a1.91 1.91 0 0 1 .971-.243c.366 0 .69.08.971.243.282.159.502.38.662.66.161.282.242.606.242.972v1.853c0 .366-.081.69-.242.972a1.75 1.75 0 0 1-.662.664c-.281.16-.605.24-.971.24Zm0-.748c.199 0 .38-.047.542-.142a1.06 1.06 0 0 0 .538-.938v-1.957a1.069 1.069 0 0 0-.538-.93 1.035 1.035 0 0 0-.542-.146 1.076 1.076 0 0 0-1.08 1.076v1.958c0 .202.049.385.146.549a1.068 1.068 0 0 0 .934.53Zm35.513.748c-.366 0-.69-.08-.971-.24a1.773 1.773 0 0 1-.665-.665 1.94 1.94 0 0 1-.239-.97v-1.854c0-.366.08-.69.239-.971.162-.282.383-.502.665-.661a1.91 1.91 0 0 1 .971-.243c.366 0 .69.08.972.243.281.159.501.38.661.66.162.282.243.606.243.972v1.853c0 .366-.081.69-.243.971-.16.282-.38.503-.661.665a1.94 1.94 0 0 1-.972.24Zm0-.748c.199 0 .38-.047.542-.142a1.06 1.06 0 0 0 .538-.938v-1.957a1.068 1.068 0 0 0-.538-.93 1.035 1.035 0 0 0-.542-.146 1.075 1.075 0 0 0-1.079 1.076v1.958a1.063 1.063 0 0 0 .534.937c.164.095.346.142.545.142Zm-4.794.748c-.366 0-.69-.08-.971-.24a1.78 1.78 0 0 1-.665-.665 1.94 1.94 0 0 1-.239-.97v-1.854c0-.366.08-.69.239-.971.162-.282.384-.502.665-.661a1.91 1.91 0 0 1 .971-.243c.366 0 .69.08.972.243.281.159.501.38.661.66.162.282.243.606.243.972v1.853c0 .366-.081.69-.243.971-.16.282-.38.503-.661.665a1.94 1.94 0 0 1-.972.24Zm0-.748c.199 0 .38-.047.542-.142a1.06 1.06 0 0 0 .538-.938v-1.957a1.068 1.068 0 0 0-.538-.93 1.035 1.035 0 0 0-.542-.146 1.075 1.075 0 0 0-1.079 1.076v1.958a1.063 1.063 0 0 0 .534.937c.164.095.346.142.545.142Zm-4.793.748c-.366 0-.69-.08-.972-.24a1.77 1.77 0 0 1-.664-.665 1.93 1.93 0 0 1-.24-.97v-1.854c0-.366.08-.69.24-.971.161-.282.383-.502.664-.661.282-.162.606-.243.972-.243s.69.08.971.243c.282.159.502.38.661.66.162.282.243.606.243.972v1.853c0 .366-.081.69-.243.971a1.741 1.741 0 0 1-.661.665c-.281.16-.605.24-.971.24Zm0-.748c.199 0 .38-.047.541-.142a1.06 1.06 0 0 0 .538-.938v-1.957a1.063 1.063 0 0 0-.538-.93 1.029 1.029 0 0 0-.541-.146 1.072 1.072 0 0 0-1.08 1.076v1.958c0 .201.049.384.146.549.097.162.226.291.388.388.165.095.347.142.546.142Zm-4.794.748c-.366 0-.69-.08-.971-.24a1.765 1.765 0 0 1-.665-.664 1.93 1.93 0 0 1-.24-.972v-1.853c0-.366.08-.69.24-.971a1.73 1.73 0 0 1 .665-.661 1.91 1.91 0 0 1 .971-.243c.366 0 .69.08.971.243.282.159.502.38.661.66.162.282.243.606.243.972v1.853c0 .366-.081.69-.243.972a1.74 1.74 0 0 1-.661.664c-.281.16-.605.24-.971.24Zm0-.748c.199 0 .38-.047.542-.142a1.06 1.06 0 0 0 .538-.938v-1.957a1.069 1.069 0 0 0-.538-.93 1.035 1.035 0 0 0-.542-.146 1.081 1.081 0 0 0-1.08 1.076v1.958c0 .202.049.385.146.549.097.162.227.291.388.388.165.095.347.142.546.142Zm35.514.748c-.367 0-.69-.08-.972-.24a1.78 1.78 0 0 1-.665-.665 1.94 1.94 0 0 1-.239-.97v-1.854c0-.366.08-.69.239-.971.162-.282.384-.502.665-.661.282-.162.605-.243.972-.243.366 0 .689.08.971.243.281.159.502.38.661.66.162.282.243.606.243.972v1.853c0 .366-.081.69-.243.971-.159.282-.38.503-.661.665-.282.16-.605.24-.971.24Zm0-.748c.199 0 .379-.047.541-.142.165-.097.295-.226.392-.388.098-.165.146-.348.146-.55v-1.957c0-.2-.048-.38-.146-.542a1.06 1.06 0 0 0-.392-.388 1.031 1.031 0 0 0-.541-.146 1.072 1.072 0 0 0-1.08 1.076v1.958c0 .201.048.384.146.549.097.162.226.291.388.388.164.095.346.142.546.142Zm-4.794.748c-.367 0-.69-.08-.972-.24a1.78 1.78 0 0 1-.665-.665 1.94 1.94 0 0 1-.239-.97v-1.854c0-.366.08-.69.239-.971.162-.282.384-.502.665-.661.282-.162.605-.243.972-.243.366 0 .689.08.971.243.281.159.502.38.661.66.162.282.243.606.243.972v1.853c0 .366-.081.69-.243.971-.159.282-.38.503-.661.665-.282.16-.605.24-.971.24Zm0-.748c.199 0 .379-.047.541-.142a1.06 1.06 0 0 0 .538-.938v-1.957a1.07 1.07 0 0 0-.538-.93 1.031 1.031 0 0 0-.541-.146 1.072 1.072 0 0 0-1.08 1.076v1.958c0 .201.049.384.146.549.097.162.226.291.388.388.165.095.346.142.546.142Zm-4.794.748c-.366 0-.69-.08-.971-.24a1.773 1.773 0 0 1-.665-.665 1.93 1.93 0 0 1-.239-.97v-1.854c0-.366.079-.69.239-.971.162-.282.383-.502.665-.661a1.91 1.91 0 0 1 .971-.243c.366 0 .69.08.971.243.282.159.502.38.662.66.162.282.242.606.242.972v1.853c0 .366-.08.69-.242.971a1.75 1.75 0 0 1-.662.665c-.281.16-.605.24-.971.24Zm0-.748c.199 0 .38-.047.542-.142a1.06 1.06 0 0 0 .538-.938v-1.957a1.068 1.068 0 0 0-.538-.93 1.035 1.035 0 0 0-.542-.146 1.075 1.075 0 0 0-1.08 1.076v1.958c0 .201.049.384.146.549a1.068 1.068 0 0 0 .934.53Zm-4.794.748c-.366 0-.69-.08-.971-.24a1.772 1.772 0 0 1-.665-.664 1.94 1.94 0 0 1-.239-.972v-1.853c0-.366.08-.69.239-.971.162-.282.383-.502.665-.661a1.91 1.91 0 0 1 .971-.243c.366 0 .69.08.971.243.282.159.502.38.662.66.162.282.243.606.243.972v1.853c0 .366-.081.69-.243.972a1.75 1.75 0 0 1-.662.664c-.281.16-.605.24-.971.24Zm0-.748c.199 0 .38-.047.542-.142a1.06 1.06 0 0 0 .538-.938v-1.957a1.069 1.069 0 0 0-.538-.93 1.035 1.035 0 0 0-.542-.146 1.076 1.076 0 0 0-1.079 1.076v1.958c0 .202.048.385.145.549a1.068 1.068 0 0 0 .934.53Z"></path>
  <path fill="#EE385C" fill-rule="evenodd" d="M180.589 110.998c5.207-5.207 13.649-5.207 18.856 0 5.207 5.207 5.207 13.649 0 18.856-5.207 5.207-13.649 5.207-18.856 0-5.207-5.207-5.207-13.649 0-18.856Z" clip-rule="evenodd"></path>
  <path stroke="#fff" stroke-width="1.529" d="m184.949 125.729 10.607-10.607m0 10.607-10.607-10.607"></path>
</svg>