<svg xmlns="http://www.w3.org/2000/svg" width="300" height="160" fill="none" viewBox="0 0 300 160">
  <path fill="#E3F1EC" stroke="#0A5A5A" stroke-linecap="square" stroke-width="1.2" d="M67.431 48.438h116.648v79.636H67.431z"></path>
  <path fill="#fff" stroke="#636363" stroke-linecap="square" stroke-width=".785" d="M73.036 55.164h105.431v72.906H73.036z"></path>
  <path stroke="#0A5A5A" stroke-linecap="square" stroke-width="1.2" d="M57.333 128.07h135.715v5.608H57.333z"></path>
  <circle cx="79.764" cy="61.9" r="2.243" fill="#EE385C"></circle>
  <circle cx="86.494" cy="61.9" r="2.243" fill="#FFCB00"></circle>
  <circle cx="93.225" cy="61.9" r="2.243" fill="#00A870"></circle>
  <ellipse cx="127.552" cy="93.421" stroke="#999" stroke-dasharray="1.57 1.57" stroke-linecap="square" stroke-width=".785" rx="38.813" ry="11.5" transform="rotate(28.948 127.552 93.421)"></ellipse>
  <ellipse cx="38.813" cy="11.5" stroke="#999" stroke-dasharray="1.57 1.57" stroke-linecap="square" stroke-width=".785" rx="38.813" ry="11.5" transform="scale(-1 1) rotate(28.948 -203.05 -269.784)"></ellipse>
  <circle cx="106.158" cy="93.424" r="3.5" fill="#05C178" stroke="#0A5A5A"></circle>
  <circle cx="149.193" cy="93.424" r="3.5" fill="#05C178" stroke="#0A5A5A"></circle>
  <circle cx="126.959" cy="80.228" r="3.5" fill="#05C178" stroke="#0A5A5A"></circle>
  <circle cx="126.959" cy="105.822" r="3.5" fill="#05C178" stroke="#0A5A5A"></circle>
  <path fill="#fff" stroke="#0A5A5A" stroke-width="1.2" d="M61.494 78.932c3.937 0 7.778.748 11.426 2.218l.727.304 12.247 5.303v16.03a34.665 34.665 0 0 1-2.02 11.757l-.035.098v.015a38.27 38.27 0 0 1-5.68 10.426l-.005.006-.047.063a37.297 37.297 0 0 1-8.685 8.27 31.391 31.391 0 0 1-7.936 3.904 31.08 31.08 0 0 1-7.965-3.926v-.001a37.044 37.044 0 0 1-8.677-8.273l-.007-.009-.016-.024-.01-.016-.012-.016a38.183 38.183 0 0 1-5.677-10.491l-.012-.035-.015-.031a34.619 34.619 0 0 1-2.001-11.702V86.757l12.24-5.303a30.458 30.458 0 0 1 12.16-2.522Z"></path>
  <path fill="#E3F1EC" stroke="#636363" stroke-width=".6" d="M61.494 81.623c3.741 0 7.386.757 10.827 2.246l10.96 4.746v14.312l-.006.67a30.837 30.837 0 0 1-1.792 9.797l-.017.049v.013a34.042 34.042 0 0 1-5.067 9.312l-.002.003-.02.027-.02.026a33.18 33.18 0 0 1-7.73 7.361 27.95 27.95 0 0 1-7.14 3.5 27.653 27.653 0 0 1-7.168-3.52 33.002 33.002 0 0 1-7.318-6.84l-.411-.534-.004-.006-.014-.022-.012-.015a33.983 33.983 0 0 1-5.048-9.332l-.007-.018-.008-.017-.007-.013a30.824 30.824 0 0 1-1.784-10.427V88.615l10.953-4.746a27.14 27.14 0 0 1 10.835-2.246Z"></path>
  <path stroke="#00A870" stroke-linecap="square" stroke-width="3.098" d="m52.944 105.118 7.816 7.214 10.82-13.827"></path>
  <path fill="#E3F1EC" stroke="#0A5A5A" stroke-linecap="square" stroke-width="1.2" d="M184.078 79.677h56v16h-56z"></path>
  <path fill="#fff" stroke="#636363" stroke-linecap="square" stroke-width=".432" d="M187.078 82.677h50v10h-50z"></path>
  <circle cx="192.312" cy="87.911" r="1.234" fill="#00A870"></circle>
  <path fill="#E3F1EC" stroke="#0A5A5A" stroke-linecap="square" stroke-width="1.2" d="M184.078 98.677h56v16h-56z"></path>
  <path fill="#fff" stroke="#636363" stroke-linecap="square" stroke-width=".432" d="M187.078 101.677h50v10h-50z"></path>
  <circle cx="192.312" cy="106.911" r="1.234" fill="#00A870"></circle>
  <path fill="#E3F1EC" stroke="#0A5A5A" stroke-linecap="square" stroke-width="1.2" d="M184.078 117.677h56v16h-56z"></path>
  <path fill="#fff" stroke="#636363" stroke-linecap="square" stroke-width=".432" d="M187.078 120.677h50v10h-50z"></path>
  <circle cx="192.312" cy="125.911" r="1.234" fill="#00A870"></circle>
  <path fill="#fff" d="M239.559 107.677c5.72 0 10.655 3.358 12.944 8.209.259-.019.52-.032.784-.032 5.643 0 10.219 4.575 10.219 10.218s-4.575 10.218-10.219 10.219c-.112 0-.224-.006-.335-.009v.007h-27.661l-.038.001a8.176 8.176 0 0 1 0-16.35c.049 0 .097.002.145.003.991-6.934 6.952-12.266 14.161-12.266Z"></path>
  <path fill="#0A5A5A" d="M239.559 107.677v-.6.6Zm12.944 8.209-.543.256.177.374.411-.031-.045-.599Zm.784-.032v-.6.6Zm10.219 10.218h.6-.6Zm-10.219 10.219v.6-.6Zm-.335-.009.019-.6-.619-.02v.62h.6Zm0 .007v.6h.6v-.6h-.6Zm-27.661 0v-.6h-.003l.003.6Zm-.038.001v.6-.6Zm-8.175-8.175h-.6.6Zm8.175-8.175v-.6.6Zm.145.003-.01.6.53.009.074-.524-.594-.085Zm14.161-12.266v.6c5.479 0 10.208 3.216 12.401 7.865l.543-.256.543-.256c-2.385-5.053-7.526-8.553-13.487-8.553v.6Zm12.944 8.209.045.599c.248-.019.494-.031.739-.031v-1.2c-.283 0-.56.013-.829.034l.045.598Zm.784-.032v.6c5.312 0 9.619 4.306 9.619 9.618h1.2c0-5.975-4.844-10.818-10.819-10.818v.6Zm10.219 10.218h-.6c0 5.312-4.307 9.618-9.619 9.619v1.2c5.975-.001 10.819-4.844 10.819-10.819h-.6Zm-10.219 10.219v-.6c-.099 0-.193-.005-.316-.009l-.019.6-.019.599c.1.004.229.01.354.01v-.6Zm-.335-.009h-.6v.007h1.2v-.007h-.6Zm0 .007v-.6h-27.661v1.2h27.661v-.6Zm-27.661 0-.003-.6h-.024l-.014.001h-.004.007v1.2l.026-.001h.019l.001-.001-.001.001h-.004l-.003-.6Zm-.038.001v-.6a7.576 7.576 0 0 1-7.575-7.575h-1.2a8.775 8.775 0 0 0 8.775 8.775v-.6Zm-8.175-8.175h.6a7.574 7.574 0 0 1 7.575-7.575v-1.2a8.775 8.775 0 0 0-8.775 8.775h.6Zm8.175-8.175v.6l.135.003.01-.6.011-.6-.156-.003v.6Zm.145.003.594.085c.949-6.643 6.661-11.751 13.567-11.751v-1.2c-7.511 0-13.723 5.555-14.755 12.781l.594.085Z"></path>
  <path fill="#E3F1EC" d="M239.944 110.332c5.35 0 9.502 3.341 11.008 7.998.312-.026.628-.039.948-.039 4.945 0 8.954 3.081 8.954 7.648 0 4.531-3.946 8.209-8.837 8.267v.002h-24.928v-.001l-.061.001c-3.663 0-6.632-2.804-6.632-6.263 0-2.87 2.969-5.675 6.632-5.675.224 0 .445.008.662.024v-.024c.001-6.593 5.487-11.938 12.254-11.938Z"></path>
  <path fill="#636363" d="M239.944 110.332v-.3.3Zm11.008 7.998-.285.092.073.226.237-.019-.025-.299Zm.948-.039v-.3.3Zm8.954 7.648h.3-.3Zm-8.837 8.267-.004-.3-.296.003v.297h.3Zm0 .002v.3h.3v-.3h-.3Zm-24.928 0h-.3v.3h.3v-.3Zm0-.001h.3v-.303l-.303.003.003.3Zm-.061.001v.3-.3Zm-6.632-6.263h-.3.3Zm6.632-5.675v-.3.3Zm.662.024-.022.3.323.024-.001-.324h-.3Zm0-.024h-.3.3Zm12.254-11.938v.3c5.214 0 9.255 3.251 10.723 7.79l.285-.092.286-.093c-1.544-4.774-5.807-8.205-11.294-8.205v.3Zm11.008 7.998.025.299c.303-.025.612-.038.923-.038v-.6c-.328 0-.653.014-.972.04l.024.299Zm.948-.039v.3c4.835 0 8.654 2.997 8.654 7.348h.6c0-4.783-4.199-7.948-9.254-7.948v.3Zm8.954 7.648h-.3c0 4.345-3.791 7.911-8.541 7.967l.004.3.003.3c5.033-.06 9.134-3.85 9.134-8.567h-.3Zm-8.837 8.267h-.3v.002h.6v-.002h-.3Zm0 .002v-.3h-24.928v.6h24.928v-.3Zm-24.928 0h.3v-.001h-.6v.001h.3Zm0-.001-.003-.3-.041.001h-.017v.6l.044-.001h.019l-.002-.3Zm-.061.001v-.3c-3.513 0-6.332-2.686-6.332-5.963h-.6c0 3.641 3.12 6.563 6.932 6.563v-.3Zm-6.632-6.263h.3c0-2.671 2.799-5.375 6.332-5.375v-.6c-3.792 0-6.932 2.905-6.932 5.975h.3Zm6.632-5.675v.3c.217 0 .43.008.64.024l.022-.3.023-.299a9.124 9.124 0 0 0-.685-.025v.3Zm.662.024h.3v-.024h-.6v.025l.3-.001Zm0-.024h.3c.001-6.42 5.345-11.638 11.954-11.638v-.6c-6.925 0-12.553 5.472-12.554 12.238h.3Z"></path>
  <path fill="#00A870" d="m240.323 117.677 5 6.146h-3.51v7.512h-2.979v-7.512h-3.511l5-6.146Z"></path>
  <circle cx="184.078" cy="42.116" r="24.392" fill="#fff" stroke="#0A5A5A" stroke-width="1.2"></circle>
  <circle cx="184.082" cy="41.795" r="13.5" fill="#A6EF00"></circle>
  <path fill="#2B2B2B" d="M183.758 27.757c7.732 0 14 6.268 14 14-.001 7.716-6.243 13.974-13.953 14l-.046.001-.046-.002c-7.711-.024-13.955-6.282-13.955-13.999 0-7.732 6.268-14 14-14Zm-4.375 14.553c.052 3.438.586 6.516 1.409 8.75.434 1.178.937 2.093 1.468 2.702.525.603 1.028.853 1.482.859h.032c.455-.006.958-.256 1.483-.859.53-.609 1.033-1.523 1.468-2.702.823-2.234 1.357-5.312 1.409-8.75h-8.751Zm-8.478 0c.255 6.018 4.644 10.965 10.401 12.076-.611-.74-1.142-1.747-1.579-2.933-.879-2.385-1.427-5.602-1.479-9.143h-7.343Zm18.364 0c-.052 3.541-.6 6.758-1.479 9.143-.437 1.187-.969 2.192-1.58 2.933 5.756-1.111 10.145-6.058 10.399-12.076h-7.34Zm-3.06-13.184c.612.742 1.143 1.75 1.581 2.938.876 2.378 1.424 5.582 1.479 9.111h7.339c-.267-6.005-4.651-10.94-10.399-12.048Zm-4.901 0c-5.749 1.108-10.134 6.043-10.402 12.05h7.342c.055-3.53.603-6.734 1.479-9.112.437-1.189.969-2.197 1.581-2.939Zm2.451-.233c-.459 0-.968.251-1.499.861-.531.61-1.034 1.524-1.468 2.702-.821 2.228-1.354 5.294-1.409 8.72h8.751c-.055-3.426-.589-6.492-1.409-8.72-.435-1.178-.938-2.093-1.468-2.702-.532-.61-1.04-.86-1.498-.86Z"></path>
</svg>