<svg xmlns="http://www.w3.org/2000/svg" width="300" height="160" fill="none" viewBox="0 0 300 160">
  <path stroke="#0A5A5A" stroke-width="1.2" d="M86.5 83.102h128v27.057h-128z"></path>
  <path fill="#B7EE00" d="M100.028 91.115h20.813v2.081h-20.813z"></path>
  <path stroke="#999" stroke-width=".6" d="M87.126 69.573H214.5M87.126 71.655H214.5M87.126 101.834H214.5m-127.374 2.081H214.5"></path>
  <path fill="#00E195" d="M100.028 59.167h20.813v2.081h-20.813z"></path>
  <path stroke="#0A5A5A" stroke-width="1.2" d="M86.5 50.842h128v27.057h-128z"></path>
  <path fill="#00E195" stroke="#636363" stroke-linecap="square" stroke-width=".464" d="M181.199 62.289h4.163v4.163h-4.163zm6.244 0h4.163v4.163h-4.163zm6.244 0h4.163v4.163h-4.163zm6.244 0h4.163v4.163h-4.163z"></path>
  <path fill="#B7EE00" stroke="#636363" stroke-linecap="square" stroke-width=".464" d="M181.199 94.549h4.163v4.163h-4.163zm6.244 0h4.163v4.163h-4.163zm6.244 0h4.163v4.163h-4.163zm6.244 0h4.163v4.163h-4.163z"></path>
  <path fill="#00A870" fill-rule="evenodd" d="M214.856 97c7.364 0 13.334 5.97 13.334 13.333 0 7.364-5.97 13.334-13.334 13.334s-13.333-5.97-13.333-13.334c0-7.363 5.969-13.333 13.333-13.333Z" clip-rule="evenodd"></path>
  <path stroke="#fff" stroke-width="1.529" d="M207.523 110.5h15m-7.5 7.5v-15"></path>
  <path fill="#fff" d="M96.897 75c8.622 0 16.061 5.06 19.513 12.371.39-.03.785-.044 1.183-.044 8.509 0 15.407 6.898 15.407 15.406 0 8.509-6.898 15.407-15.407 15.407-.17 0-.338-.005-.506-.01v.008H75.389l-.064.001c-6.807 0-12.325-5.519-12.325-12.326 0-6.806 5.518-12.325 12.325-12.325.074 0 .148 0 .22.002C77.04 83.037 86.03 75 96.898 75Z"></path>
  <path fill="#0A5A5A" d="M96.897 75v-.6.6Zm19.513 12.371-.542.256.176.374.412-.032-.046-.598Zm1.183-.044v-.6.6ZM133 102.733h.6-.6Zm-15.407 15.407v.6-.6Zm-.506-.01.019-.6-.619-.02v.62h.6Zm0 .008v.6h.6v-.6h-.6Zm-41.698 0v-.6h-.003l.003.6Zm-.064.001v.6-.6ZM63 105.813h-.6.6Zm12.325-12.325v-.6.6Zm.22.002-.01.6.53.01.075-.525-.594-.085ZM96.898 75v.6c8.381 0 15.614 4.918 18.971 12.027l.542-.256.543-.256C113.405 79.602 105.759 74.4 96.897 74.4v.6Zm19.513 12.371.046.598c.374-.028.753-.042 1.137-.042v-1.2c-.412 0-.822.015-1.228.046l.045.598Zm1.183-.044v.6c8.177 0 14.807 6.63 14.807 14.806h1.2c0-8.84-7.167-16.006-16.007-16.006v.6ZM133 102.733h-.6c0 8.178-6.63 14.807-14.807 14.807v1.2c8.84 0 16.007-7.167 16.007-16.007h-.6Zm-15.407 15.407v-.6c-.16 0-.321-.004-.487-.01l-.019.6-.019.6c.17.005.346.01.525.01v-.6Zm-.506-.01h-.6v.008h1.2v-.008h-.6Zm0 .008v-.6H75.389v1.2h41.698v-.6Zm-41.698 0-.003-.6h-.042l-.019.001v1.2l.045-.001h.022l-.003-.6Zm-.064.001v-.6c-6.475 0-11.725-5.25-11.725-11.726h-1.2c0 7.139 5.787 12.926 12.925 12.926v-.6ZM63 105.813h.6c0-6.475 5.25-11.725 11.725-11.725v-1.2c-7.138 0-12.925 5.787-12.925 12.925h.6Zm12.325-12.325v.6c.07 0 .14 0 .21.002l.01-.6.011-.6a13.662 13.662 0 0 0-.23-.002v.6Zm.22.002.595.085C77.592 83.413 86.332 75.6 96.897 75.6v-1.2c-11.17 0-20.41 8.26-21.945 19.005l.594.085Z"></path>
  <path fill="#E3F1EC" d="M97.046 77.29c7.928 0 14.721 4.983 17.569 12.064.597-.07 1.205-.105 1.822-.105 8.008 0 14.5 6.053 14.5 13.521 0 7.467-6.782 13.615-14.79 13.615-.58 0-1.15-.033-1.709-.096H80.585c-.93.138-1.954.211-3.084.211-6.628 0-12.447-5.065-12.447-10.864 0-5.8 5.373-10.5 12-10.5.356 0 .708.016 1.056.043.798-10.017 8.971-17.89 18.936-17.89Z"></path>
  <path fill="#999" d="M97.046 77.29v-.3.3Zm17.569 12.064-.279.112.086.213.228-.026-.035-.299Zm1.822-.105v-.3.3Zm14.5 13.521h.3-.3Zm-14.79 13.615v.3-.3Zm-1.709-.096.033-.298-.016-.002h-.017v.3Zm-33.853 0v-.3h-.023l-.022.003.044.297Zm-3.084.211v.3-.3Zm.609-21.321-.023.299.298.023.024-.298-.3-.024Zm18.936-17.89v.3c7.798 0 14.485 4.902 17.29 11.877l.279-.111.278-.112c-2.891-7.188-9.788-12.254-17.847-12.254v.3Zm17.569 12.066.035.297a15.38 15.38 0 0 1 1.787-.103v-.6c-.629 0-1.249.036-1.857.108l.035.297Zm1.822-.106v.3c7.863 0 14.2 5.938 14.2 13.221h.6c0-7.653-6.646-13.82-14.8-13.82v.3Zm14.5 13.521h-.3c0 7.277-6.622 13.315-14.49 13.315v.6c8.149 0 15.09-6.258 15.09-13.915h-.3Zm-14.79 13.615v-.3c-.568 0-1.127-.033-1.676-.094l-.033.298-.033.298c.57.064 1.151.098 1.742.098v-.3Zm-1.709-.096v-.3H80.585v.6h33.853v-.3Zm-33.853 0-.044-.297c-.913.136-1.923.208-3.04.208v.6c1.142 0 2.182-.074 3.127-.214l-.043-.297Zm-3.084.211v-.3c-6.502 0-12.147-4.968-12.147-10.564h-.6c0 6.002 5.993 11.164 12.746 11.164v-.3Zm-12.447-10.864h.3c0-5.597 5.2-10.2 11.7-10.2v-.6c-6.754 0-12.3 4.799-12.3 10.8h.3Zm12-10.5v.3c.347 0 .691.016 1.033.042l.023-.3.023-.298a14.162 14.162 0 0 0-1.079-.044v.3Zm1.056.043.299.024c.786-9.868 8.837-17.614 18.637-17.614v-.6c-10.129 0-18.426 8.002-19.235 18.166l.299.024Z"></path>
</svg>