<svg xmlns="http://www.w3.org/2000/svg" width="300" height="160" fill="none" viewBox="0 0 300 160">
  <path fill="#fff" stroke="#0A5A5A" stroke-linecap="square" stroke-width="1.2" d="M74 66h80v64H74z"></path>
  <path fill="#E3F1EC" stroke="#636363" stroke-linecap="square" stroke-width=".598" d="M77.049 69.049h73.905v57.905H77.049z"></path>
  <circle cx="81.803" cy="73.806" r="1.709" fill="#EE385C"></circle>
  <circle cx="86.931" cy="73.806" r="1.709" fill="#FFCB00"></circle>
  <circle cx="92.06" cy="73.806" r="1.709" fill="#00A870"></circle>
  <path fill="#fff" stroke="#0A5A5A" stroke-linecap="square" stroke-width="1.2" d="M109.5 38.6h96v76.8h-96z"></path>
  <path fill="#fff" stroke="#636363" stroke-linecap="square" stroke-width=".6" d="M113.157 42.258h88.686v69.486h-88.686z"></path>
  <circle cx="118.865" cy="47.966" r="2.051" fill="#EE385C"></circle>
  <circle cx="125.019" cy="47.966" r="2.051" fill="#FFCB00"></circle>
  <circle cx="131.173" cy="47.966" r="2.051" fill="#00A870"></circle>
  <path fill="#FF8C27" fill-rule="evenodd" d="M206.333 26c7.364 0 13.334 5.97 13.334 13.333 0 7.364-5.97 13.334-13.334 13.334-7.363 0-13.333-5.97-13.333-13.334C193 31.97 198.97 26 206.333 26Z" clip-rule="evenodd"></path>
  <path stroke="#fff" stroke-width="1.733" d="M206.333 32.667v8"></path>
  <path fill="#fff" stroke="#fff" stroke-width="1.333" d="M205.667 44H207v1.333h-1.333z"></path>
  <circle cx="205.5" cy="114.5" r="19.5" fill="#E3F1EC" stroke="#0A5A5A" stroke-width="1.2"></circle>
  <circle cx="205.5" cy="114.5" r="15.245" fill="#fff" stroke="#636363" stroke-linecap="square" stroke-width=".6"></circle>
  <path stroke="#0A5A5A" stroke-linecap="square" stroke-width="1.2" d="M205.288 106.901v8.711h10.318"></path>
  <path fill="#636363" d="M156.184 84.088c-.205-1.203-.147-2.259.176-3.168a7.616 7.616 0 0 1 1.54-2.508 16.283 16.283 0 0 1 2.2-2.068c.821-.645 1.584-1.261 2.288-1.848.733-.616 1.335-1.247 1.804-1.892.499-.675.748-1.393.748-2.156 0-.968-.235-1.804-.704-2.508s-1.173-1.247-2.112-1.628c-.909-.41-2.039-.616-3.388-.616a9.385 9.385 0 0 0-4.092.924c-1.261.616-2.479 1.555-3.652 2.816l-2.904-2.684a16.467 16.467 0 0 1 4.884-3.784c1.848-.968 3.96-1.452 6.336-1.452 2.083 0 3.916.337 5.5 1.012 1.584.645 2.816 1.599 3.696 2.86.909 1.261 1.364 2.801 1.364 4.62 0 1.085-.249 2.053-.748 2.904a8.856 8.856 0 0 1-1.848 2.244 32.503 32.503 0 0 1-2.376 1.98 24.891 24.891 0 0 0-2.288 1.936 7.238 7.238 0 0 0-1.584 2.2c-.381.792-.499 1.73-.352 2.816h-4.488Zm2.288 11.22c-.939 0-1.716-.308-2.332-.924-.616-.616-.924-1.423-.924-2.42 0-.997.308-1.804.924-2.42.645-.616 1.423-.924 2.332-.924.909 0 1.687.308 2.332.924.645.616.968 1.423.968 2.42 0 .997-.323 1.804-.968 2.42-.645.616-1.423.924-2.332.924Z"></path>
</svg>