<svg xmlns="http://www.w3.org/2000/svg" width="20" height="20" fill="none" viewBox="0 0 20 20">
  <path fill="#00A870" d="m10.338 1.06 7.439 2.174.431.126v4.906a11.48 11.48 0 0 1-7.851 10.892l-.19.063-.189-.063A11.482 11.482 0 0 1 2.125 8.264V3.36l.431-.126 7.445-2.173.168-.049.17.049Zm-7.014 3.2v4.004a10.28 10.28 0 0 0 6.842 9.688 10.278 10.278 0 0 0 6.842-9.686V4.259l-6.84-1.997L3.324 4.26Z"></path>
  <path fill="#00A870" d="M11.328 9.842c.418 0 .769 0 1.054.023.292.024.568.075.83.209.4.204.726.53.93.93.134.263.187.54.21.831.024.285.023.636.023 1.054v.83H6.293v-.83c0-.418 0-.768.022-1.054.024-.292.076-.568.21-.83a2.13 2.13 0 0 1 .93-.931c.262-.134.54-.185.831-.21.285-.023.636-.022 1.054-.022h1.988Zm-1.988 1.2c-.438 0-.731 0-.956.019-.218.018-.32.049-.384.082a.93.93 0 0 0-.406.406c-.033.065-.064.166-.082.384a8.104 8.104 0 0 0-.018.585h5.68a8.01 8.01 0 0 0-.018-.585c-.018-.217-.049-.319-.082-.384a.931.931 0 0 0-.406-.406c-.065-.033-.167-.064-.385-.082-.225-.018-.517-.02-.955-.02H9.34Zm.993-6.283a2.32 2.32 0 1 1 0 4.64 2.32 2.32 0 0 1 0-4.64Zm0 1.2a1.122 1.122 0 0 0 0 2.24 1.12 1.12 0 0 0 0-2.24Z"></path>
</svg>