<svg xmlns="http://www.w3.org/2000/svg" width="20" height="20" fill="none" viewBox="0 0 20 20">
  <path fill="#00A870" d="m5.438 7.433-.426 1.12-2.066-.784a7.4 7.4 0 0 0 11.957 7.775l.793.9a8.596 8.596 0 0 1-8.428 1.71A8.598 8.598 0 0 1 1.823 7.342h-.001l.007-.022.017-.052.003.001.398-1.048 3.19 1.212ZM10.7 5.044l3.402 8.768h-1.415l-.9-2.388H8.253l-.9 2.388H5.986L9.4 5.044h1.3ZM4.19 3.66a8.598 8.598 0 0 1 14.104 8.607l.009.003-.082.243c-.022.073-.043.147-.067.22l-.006-.002-.226.677-3.235-1.085.382-1.137 2.085.7A7.4 7.4 0 0 0 5 4.542l-.81-.884Zm4.474 6.605h2.711l-1.365-3.59-1.345 3.59Z"></path>
</svg>