<svg width="16" height="16" viewBox="0 0 16 16" fill="none" xmlns="http://www.w3.org/2000/svg">
<path fill-rule="evenodd" clip-rule="evenodd" d="M4.55923 5.00184e-05L11.393 0C12.7387 0 13.3638 0.117691 13.8766 0.340992L13.913 0.357122C13.9372 0.367994 13.9611 0.379106 13.9849 0.390454L14.0205 0.407656C14.0264 0.410552 14.0324 0.413464 14.0383 0.41639L14.0736 0.434124C14.0795 0.437109 14.0853 0.440109 14.0912 0.443123L14.1264 0.461387C14.1381 0.467534 14.1498 0.47374 14.1615 0.480004C14.7472 0.793212 15.2068 1.25283 15.52 1.83848L15.5293 1.85605L15.5478 1.8912C15.5539 1.90293 15.5599 1.91467 15.5659 1.92642L15.5836 1.96175C15.5865 1.96765 15.5894 1.97356 15.5923 1.97947L15.6095 2.01506C15.6209 2.03886 15.632 2.06281 15.6429 2.08699L15.659 2.12343C15.8823 2.63616 16 3.26135 16 4.60698V11.393C16 12.7387 15.8823 13.3638 15.659 13.8766L15.6429 13.913C15.632 13.9372 15.6209 13.9611 15.6095 13.9849L15.5923 14.0205C15.5894 14.0264 15.5865 14.0324 15.5836 14.0383L15.5659 14.0736C15.5629 14.0795 15.5599 14.0853 15.5569 14.0912L15.5386 14.1264C15.5325 14.1381 15.5263 14.1498 15.52 14.1615C15.2068 14.7472 14.7472 15.2068 14.1615 15.52L14.144 15.5293L14.1088 15.5478C14.0971 15.5539 14.0853 15.5599 14.0736 15.5659L14.0383 15.5836C14.0324 15.5865 14.0264 15.5894 14.0205 15.5923L13.9849 15.6095C13.9611 15.6209 13.9372 15.632 13.913 15.6429L13.8766 15.659C13.3638 15.8823 12.7387 16 11.393 16H4.60698C3.26135 16 2.63616 15.8823 2.12343 15.659L2.08699 15.6429C2.06281 15.632 2.03886 15.6209 2.01506 15.6095L1.97947 15.5923C1.97356 15.5894 1.96765 15.5865 1.96175 15.5836L1.92642 15.5659C1.92054 15.5629 1.91467 15.5599 1.9088 15.5569L1.87362 15.5386C1.8619 15.5325 1.85019 15.5263 1.83848 15.52C1.25283 15.2068 0.793212 14.7472 0.480004 14.1615L0.470652 14.144L0.452211 14.1088C0.446123 14.0971 0.440094 14.0853 0.434124 14.0736L0.41639 14.0383C0.413464 14.0324 0.410552 14.0264 0.407656 14.0205L0.390454 13.9849C0.379106 13.9611 0.367994 13.9372 0.357122 13.913L0.340992 13.8766C0.12035 13.3699 0.00281714 12.7535 5.00184e-05 11.4408L0 4.60698C0 3.26135 0.117691 2.63616 0.340992 2.12343L0.357122 2.08699C0.367994 2.06281 0.379106 2.03886 0.390454 2.01506L0.407656 1.97947C0.410552 1.97356 0.413464 1.96765 0.41639 1.96175L0.434124 1.92642C0.437109 1.92054 0.440109 1.91467 0.443123 1.9088L0.461387 1.87362C0.467534 1.8619 0.47374 1.85019 0.480004 1.83848C0.793212 1.25283 1.25283 0.793212 1.83848 0.480004L1.85605 0.470652L1.8912 0.452211C1.90293 0.446123 1.91467 0.440094 1.92642 0.434124L1.96175 0.41639C1.96765 0.413464 1.97356 0.410552 1.97947 0.407656L2.01506 0.390454C2.03886 0.379106 2.06281 0.367994 2.08699 0.357122L2.12343 0.340992C2.63005 0.12035 3.24648 0.00281714 4.55923 5.00184e-05Z" fill="#0A7171"></path>
<path d="M2.83762 7.08272L2.76862 7.65495L4.73096 7.89121C4.73746 7.69577 4.76058 7.5043 4.79959 7.31898L2.83725 7.08272H2.83762Z" fill="white"></path>
<path d="M3.15183 6.00937L2.98999 6.4613L4.8472 7.12709C4.89019 6.97139 4.94438 6.82039 5.00905 6.6748L3.15219 6.00937H3.15183Z" fill="white"></path>
<path d="M3.68759 5.02787L3.48059 5.35156L5.13984 6.41148C5.20233 6.29913 5.27133 6.19112 5.34611 6.08743L3.68759 5.02751V5.02787Z" fill="white"></path>
<path d="M4.72872 7.99231L2.75952 8.19931L2.82961 8.86799L4.79556 8.66135C4.75184 8.44785 4.72872 8.2264 4.72872 7.9999C4.72872 7.99737 4.72872 7.99484 4.72872 7.99231Z" fill="white"></path>
<path d="M11.7139 4.3227C9.68944 2.26752 6.38142 2.24295 4.32697 4.26815L4.33022 4.27212L4.21461 4.38592L5.5928 5.78506C6.19068 5.13588 7.04758 4.72875 7.99985 4.72875C9.80649 4.72875 11.2714 6.19328 11.2714 8.00028C11.2714 9.80728 9.80649 11.2718 7.99985 11.2718C6.42152 11.2718 5.10475 10.1541 4.7966 8.66716L2.92096 9.30766L3.16914 10.0349L4.66077 9.5255L3.31545 10.3567L3.76991 11.0923L4.74783 10.4879L3.92489 11.2982L4.27278 11.6511L4.27205 11.6518C9.32999 16.3959 16.3795 9.44855 11.7143 4.32234L11.7139 4.3227Z" fill="white"></path>
</svg>