<svg width="128" height="128" viewBox="0 0 128 128" fill="none" xmlns="http://www.w3.org/2000/svg">
<path fill-rule="evenodd" clip-rule="evenodd" d="M36.4738 0.000400147L91.1441 0C101.909 0 106.911 0.94153 111.013 2.72794L111.304 2.85697C111.498 2.94395 111.689 3.03284 111.88 3.12364L112.164 3.26125C112.212 3.28442 112.259 3.30771 112.306 3.33112L112.589 3.47299C112.636 3.49687 112.683 3.52087 112.73 3.54499L113.011 3.6911C113.105 3.74027 113.198 3.78992 113.292 3.84003C117.977 6.3457 121.654 10.0227 124.16 14.7078L124.235 14.8484L124.382 15.1296C124.431 15.2234 124.479 15.3173 124.527 15.4114L124.669 15.694C124.692 15.7412 124.716 15.7884 124.739 15.8358L124.876 16.1205C124.967 16.3109 125.056 16.5025 125.143 16.6959L125.272 16.9874C127.058 21.0893 128 26.0908 128 36.8559V91.1441C128 101.909 127.058 106.911 125.272 111.013L125.143 111.304C125.056 111.498 124.967 111.689 124.876 111.88L124.739 112.164C124.716 112.212 124.692 112.259 124.669 112.306L124.527 112.589C124.503 112.636 124.479 112.683 124.455 112.73L124.309 113.011C124.26 113.105 124.21 113.198 124.16 113.292C121.654 117.977 117.977 121.654 113.292 124.16L113.152 124.235L112.87 124.382C112.777 124.431 112.683 124.479 112.589 124.527L112.306 124.669C112.259 124.692 112.212 124.716 112.164 124.739L111.88 124.876C111.689 124.967 111.498 125.056 111.304 125.143L111.013 125.272C106.911 127.058 101.909 128 91.1441 128H36.8559C26.0908 128 21.0893 127.058 16.9874 125.272L16.6959 125.143C16.5025 125.056 16.3109 124.967 16.1205 124.876L15.8358 124.739C15.7884 124.716 15.7412 124.692 15.694 124.669L15.4114 124.527C15.3643 124.503 15.3174 124.479 15.2704 124.455L14.989 124.309C14.8952 124.26 14.8015 124.21 14.7078 124.16C10.0227 121.654 6.3457 117.977 3.84003 113.292L3.76521 113.152L3.61769 112.87C3.56899 112.777 3.52075 112.683 3.47299 112.589L3.33112 112.306C3.30771 112.259 3.28442 112.212 3.26125 112.164L3.12364 111.88C3.03284 111.689 2.94395 111.498 2.85697 111.304L2.72794 111.013C0.962797 106.96 0.0225371 102.028 0.000400147 91.5262L0 36.8559C0 26.0908 0.94153 21.0893 2.72794 16.9874L2.85697 16.6959C2.94395 16.5025 3.03284 16.3109 3.12364 16.1205L3.26125 15.8358C3.28442 15.7884 3.30771 15.7412 3.33112 15.694L3.47299 15.4114C3.49687 15.3643 3.52087 15.3174 3.54499 15.2704L3.6911 14.989C3.74027 14.8952 3.78992 14.8015 3.84003 14.7078C6.3457 10.0227 10.0227 6.3457 14.7078 3.84003L14.8484 3.76521L15.1296 3.61769C15.2234 3.56899 15.3173 3.52075 15.4114 3.47299L15.694 3.33112C15.7412 3.30771 15.7884 3.28442 15.8358 3.26125L16.1205 3.12364C16.3109 3.03284 16.5025 2.94395 16.6959 2.85697L16.9874 2.72794C21.0404 0.962797 25.9718 0.0225371 36.4738 0.000400147Z" fill="#0A7171"></path>
<path d="M22.7012 56.6617L22.1492 61.2396L37.8479 63.1296C37.9 61.5661 38.0849 60.0344 38.3971 58.5518L22.6983 56.6617H22.7012Z" fill="white"></path>
<path d="M25.2148 48.075L23.92 51.6904L38.7778 57.0168C39.1217 55.7711 39.5552 54.5631 40.0725 53.3984L25.2177 48.075H25.2148Z" fill="white"></path>
<path d="M29.5008 40.223L27.8448 42.8124L41.1188 51.2918C41.6188 50.393 42.1708 49.5289 42.769 48.6994L29.5008 40.2201V40.223Z" fill="white"></path>
<path d="M37.8299 63.9384L22.0763 65.5944L22.637 70.9439L38.3646 69.2908C38.0149 67.5828 37.8299 65.8112 37.8299 63.9991C37.8299 63.9789 37.8299 63.9586 37.8299 63.9384Z" fill="white"></path>
<path d="M93.7117 34.5816C77.5159 18.1401 51.0518 17.9436 34.6161 34.1452L34.6421 34.177L33.7173 35.0873L44.7428 46.2805C49.5258 41.0871 56.381 37.83 63.9992 37.83C78.4523 37.83 90.1714 49.5462 90.1714 64.0022C90.1714 78.4582 78.4523 90.1745 63.9992 90.1745C51.3726 90.1745 40.8384 81.2327 38.3731 69.3372L23.368 74.4613L25.3535 80.2789L37.2865 76.204L26.524 82.854L30.1596 88.7381L37.983 83.9031L31.3995 90.3854L34.1826 93.209L34.1768 93.2148C74.6403 131.167 131.037 75.5884 93.7146 34.5787L93.7117 34.5816Z" fill="white"></path>
</svg>