<svg xmlns="http://www.w3.org/2000/svg" width="16" height="16" fill="none" viewBox="0 0 16 16">
  <rect width="14" height="14" x="1" y="1" fill="#00A870" fill-opacity=".24" rx="7"></rect>
  <path fill="#00A870" d="M8 6.817A1.633 1.633 0 1 0 8 3.55a1.633 1.633 0 0 0 0 3.267ZM4.5 10.97c0 .155.125.28.28.28h6.44a.28.28 0 0 0 .28-.28c0-1.045 0-1.568-.203-1.967a1.867 1.867 0 0 0-.816-.816c-.4-.204-.922-.204-1.968-.204H7.487c-1.046 0-1.568 0-1.968.204a1.867 1.867 0 0 0-.816.816c-.203.399-.203.922-.203 1.967Z"></path>
</svg>