<svg xmlns="http://www.w3.org/2000/svg" width="20" height="20" fill="none" viewBox="0 0 20 20">
  <path fill="#fff" fill-opacity=".8" d="M17.868 11.19a.6.6 0 0 1 .803.679c-.828 4.078-4.432 7.147-8.754 7.147-4.323 0-7.927-3.07-8.755-7.147l1.176-.239a7.734 7.734 0 0 0 14.84 1.11l-1.046.403-.215-.56-.216-.56 2.167-.833Zm-7.784-5.04a.6.6 0 0 1 .55.36l2.004 4.582.912 2.083-.55.242-.55.24-.754-1.724H8.47l-.753 1.724-.55-.24-.55-.242.911-2.083L9.534 6.51l.04-.078a.6.6 0 0 1 .51-.281Zm-1.088 4.583h2.175l-1.088-2.487-1.087 2.487Zm.92-9.583c4.323 0 7.927 3.07 8.755 7.147l-.588.12-.588.119a7.737 7.737 0 0 0-7.578-6.187 7.738 7.738 0 0 0-7.288 5.14l1.431-.476.38 1.139-2.5.834a.6.6 0 0 1-.778-.69A8.937 8.937 0 0 1 9.917 1.15Z"></path>
</svg>