<svg xmlns="http://www.w3.org/2000/svg" width="20" height="20" fill="none" viewBox="0 0 20 20">
  <path fill="#fff" fill-opacity=".8" d="M16.85 10.605A4.769 4.769 0 0 1 15 19.767a4.747 4.747 0 0 1-3.084-1.134H3.15V1.362h13.7v9.243Zm-1.85.828a3.568 3.568 0 0 0 0 7.134 3.567 3.567 0 0 0 0-7.134Zm.6 1.068V14.7l1.498 1.55.417.431-.863.834-.417-.43-1.667-1.725-.168-.175v-3.284h1.2v.6ZM4.35 17.433h6.55a4.767 4.767 0 0 1 4.749-7.154V2.56H4.35v14.872Zm8.75-7.667H6.9v-1.2h6.2v1.2Zm0-3.333H6.9v-1.2h6.2v1.2Z"></path>
</svg>