<svg xmlns="http://www.w3.org/2000/svg" width="20" height="20" fill="none" viewBox="0 0 20 20">
  <path fill="#fff" fill-opacity=".8" d="M10.6 19.81H9.4v-2.58h1.2v2.58Zm-5.287-4.274-1.826 1.825-.848-.848.424-.424.977-.977.424-.425.848.85Zm10.647-.424.977.977.424.424-.848.848-.424-.424-.977-.977-.425-.424.85-.848.423.424ZM10.001 4.138a5.863 5.863 0 1 1-.002 11.726A5.863 5.863 0 0 1 10 4.138Zm0 1.199a4.665 4.665 0 0 0 0 9.327 4.665 4.665 0 0 0 0-9.327ZM2.771 10.6H.189V9.4h2.582v1.2Zm17.04 0H17.23V9.4h2.58v1.2ZM3.91 3.063l.978.977.423.424-.848.848-.424-.423-.977-.978-.424-.424.848-.848.424.424Zm13.45.424-1.825 1.825-.848-.848.424-.424.977-.977.424-.424.848.848Zm-6.76-.716H9.4V.189h1.2v2.582Z"></path>
</svg>