<svg xmlns="http://www.w3.org/2000/svg" width="20" height="20" fill="none" viewBox="0 0 20 20">
  <path fill="#fff" fill-opacity=".5" d="M7.23 12.615a1.232 1.232 0 1 1 0 2.463 1.232 1.232 0 0 1 0-2.463Zm5.54 0a1.23 1.23 0 1 1-.001 2.462 1.23 1.23 0 0 1 0-2.462ZM7.23 8.308a1.231 1.231 0 1 1 0 2.462 1.231 1.231 0 0 1 0-2.462Zm5.54 0a1.23 1.23 0 1 1-.001 2.461 1.23 1.23 0 0 1 0-2.461ZM7.23 4a1.231 1.231 0 1 1 0 2.463A1.231 1.231 0 0 1 7.23 4Zm5.54 0a1.23 1.23 0 1 1-.001 2.462 1.23 1.23 0 0 1 0-2.462Z"></path>
</svg>