<svg xmlns="http://www.w3.org/2000/svg" width="20" height="20" fill="none" viewBox="0 0 20 20">
  <path fill="#fff" fill-opacity=".64" d="M17.466 5.856H13.37V4.313h-2.093v5.19h2.092v-1.55h4.096v4.095H13.37v-1.546h-2.092v5.192h2.092v-1.551h4.096v4.095H13.37v-1.543h-3.092v-6.193H8.18v3.49H2.537V6.025h5.644v3.476h2.096v-6.19h3.093V1.76h4.096v4.096ZM14.37 16.164l.003.03-.003.03v1.014h2.096v-2.095H14.37v1.021ZM3.537 12.991h3.644V7.026H3.537v5.965Zm10.832-3.01.002.021-.002.02v1.026h2.096V8.952H14.37v1.03Zm.001-6.189.002.02-.002.02v1.024h2.096V2.76H14.37v1.032Z"></path>
</svg>