<svg xmlns="http://www.w3.org/2000/svg" width="20" height="20" fill="none" viewBox="0 0 20 20">
  <path fill="#fff" fill-opacity=".64" d="M17.635 10.456c0 2.808-2.127 5.145-4.82 5.145H4.343l1.595 1.718.408.44-.88.817-.407-.44-2.533-2.727L2.147 15l.38-.409 2.532-2.727.408-.44.879.817-.409.44L4.34 14.4h8.474c1.952 0 3.62-1.717 3.62-3.945v-.6h1.2v.6ZM14.94 1.865l2.533 2.727.38.409-.38.408-2.533 2.726-.408.44-.879-.817.409-.439 1.595-1.72h-8.47c-1.952 0-3.621 1.717-3.622 3.946v.6H2.366v-.6c0-2.81 2.127-5.145 4.82-5.145h8.472l-1.595-1.719-.409-.44.88-.816.407.44Z"></path>
</svg>