<svg xmlns="http://www.w3.org/2000/svg" width="20" height="20" fill="none" viewBox="0 0 20 20">
  <path fill="#fff" fill-opacity=".5" d="M17.167 18.528H2.945v-1h14.222v1ZM10.055 2.861a5.834 5.834 0 0 1 5.834 5.833v6.723H4.222V8.694a5.833 5.833 0 0 1 5.833-5.833Zm0 1a4.833 4.833 0 0 0-4.833 4.833v5.723h9.667V8.694a4.834 4.834 0 0 0-4.834-4.833Zm2.65 3.965-1.943 1.942 1.944 1.945-.708.707-1.943-1.944-1.942 1.944-.707-.707 1.942-1.944-1.942-1.943.707-.707 1.942 1.942 1.943-1.942.707.707ZM2.657 5.108l-.316.95-1.333-.445.316-.95 1.333.445Zm1.53-1.656-.707.707-1.333-1.333.707-.707 1.333 1.333Zm1.898-1.139-.949.317-.444-1.333L5.64.98l.444 1.333Z"></path>
</svg>