<svg xmlns="http://www.w3.org/2000/svg" width="20" height="20" fill="none" viewBox="0 0 20 20">
  <path fill="#fff" fill-opacity=".64" d="M14.144 17.464v-4.096h1.544v-2.094h-5.19v2.094h1.55v4.096H7.952v-4.096h1.546v-2.094H4.306v2.093h1.552v4.096H1.762v-4.096h1.544v-3.093h6.192V8.18h-3.49V2.535h7.965v5.644h-3.475v2.095h6.19v3.094h1.552v4.096h-4.096ZM3.837 14.367l-.03.003-.03-.003H2.761v2.096h2.096v-2.096h-1.02ZM7.009 3.535v3.644h5.964V3.535H7.01Zm3.007 10.833-.018.002-.018-.002H8.952v2.096h2.096v-2.096h-1.032Zm6.193 0-.02.002-.02-.002h-1.025v2.096h2.096v-2.096h-1.031Z"></path>
</svg>