<svg xmlns="http://www.w3.org/2000/svg" width="20" height="20" fill="none" viewBox="0 0 20 20">
  <path fill="#fff" fill-opacity=".64" d="M15.995 3.678a.6.6 0 0 1 .583.503v.002l.001.002.002.015.009.054.034.21.124.767c.104.646.245 1.536.396 2.508.3 1.94.642 4.223.796 5.559a.601.601 0 0 1-.593.669c-1.733.006-3.468 0-5.198 0v2.197a2.697 2.697 0 0 1-2.697 2.697.6.6 0 0 1-.507-.278l-.042-.077L6.4 12.869H2.056v-9.2h5.199v.006c2.9-.006 5.827-.043 8.74.003Zm-.521 1.196c-2.736-.034-5.469-.003-8.22.002v6.967l2.566 5.771a1.496 1.496 0 0 0 1.13-1.45v-2.797a.6.6 0 0 1 .6-.6c1.708 0 3.41.004 5.113 0a217.45 217.45 0 0 0-.706-4.844c-.15-.97-.291-1.857-.395-2.502l-.088-.547Zm-12.22-.005v6.8h2.802v-6.8H3.255Z"></path>
</svg>