<svg xmlns="http://www.w3.org/2000/svg" width="16" height="16" fill="none" viewBox="0 0 16 16">
  <path fill="#999" d="M8 .5a7.5 7.5 0 1 1 0 15 7.5 7.5 0 0 1 0-15Zm0 1a6.5 6.5 0 1 0 0 13 6.5 6.5 0 0 0 0-13Zm-.161 9.026h-.951L6.506 9.33H4.329l-.377 1.197H3L4.742 5h1.355l1.742 5.526Zm2.73-5.522c.137.002.27.011.398.026.437.057.807.213 1.11.469.303.253.534.577.69.97.156.395.234.826.234 1.294 0 .468-.078.9-.234 1.294a2.405 2.405 0 0 1-.69.974 2.101 2.101 0 0 1-1.11.464 3.848 3.848 0 0 1-.395.028l-.276.003H8.534V5h1.762c.046 0 .137.001.272.004ZM9.474 9.655h.82c.078 0 .175-.002.292-.008.12-.005.226-.016.318-.034a1.09 1.09 0 0 0 .638-.35c.164-.184.284-.408.36-.671.08-.264.12-.54.12-.83 0-.298-.04-.58-.12-.843a1.664 1.664 0 0 0-.368-.664 1.109 1.109 0 0 0-.63-.342 1.645 1.645 0 0 0-.318-.034 6.998 6.998 0 0 0-.291-.008h-.821v3.784Zm-4.873-1.19H6.23l-.82-2.57-.808 2.57Z"></path>
</svg>