<svg xmlns="http://www.w3.org/2000/svg" width="16" height="16" fill="none" viewBox="0 0 16 16">
  <path fill="#999" d="M8 .5a7.5 7.5 0 0 1 3.731 14.005H15v1H8v-.006A7.5 7.5 0 1 1 8 .5Zm0 1a6.5 6.5 0 1 0 0 13 6.5 6.5 0 0 0 0-13Zm-.001 7.901a1.75 1.75 0 1 1 0 3.5 1.75 1.75 0 0 1 0-3.5Zm0 1a.75.75 0 1 0 0 1.501.75.75 0 0 0 0-1.5ZM4.851 6.253a1.75 1.75 0 1 1 0 3.5 1.75 1.75 0 0 1 0-3.5Zm6.297 0a1.75 1.75 0 1 1 0 3.5 1.75 1.75 0 0 1 0-3.5Zm-6.297 1a.75.75 0 1 0 0 1.5.75.75 0 0 0 0-1.5Zm6.297 0a.75.75 0 1 0 0 1.5.75.75 0 0 0 0-1.5ZM7.999 3.104a1.75 1.75 0 1 1 0 3.5 1.75 1.75 0 0 1 0-3.5Zm0 1a.75.75 0 1 0 0 1.501.75.75 0 0 0 0-1.5Z"></path>
</svg>