<svg xmlns="http://www.w3.org/2000/svg" width="16" height="16" fill="none" viewBox="0 0 16 16">
  <path fill="#999" d="M7.999.503a7.498 7.498 0 0 1 6.697 4.126c.006.01.013.02.018.032a7.5 7.5 0 0 1-9.357 10.361l-.02-.007A7.501 7.501 0 0 1 8 .503Zm2.509 4.85a3.64 3.64 0 0 1 1.141 2.65 3.642 3.642 0 0 1-1.368 2.847L6.53 14.333a6.5 6.5 0 0 0 7.405-8.98h-3.426Zm-8.676.595a6.501 6.501 0 0 0 3.61 8.031l2.506-2.328a3.642 3.642 0 0 1-2.759-1.319.502.502 0 0 1-.082-.083l-3.275-4.3Zm6.167-.595a2.65 2.65 0 1 0 0 5.3 2.65 2.65 0 0 0 0-5.3Zm0-3.85a6.5 6.5 0 0 0-5.712 3.393l2.081 2.732A3.65 3.65 0 0 1 8 4.353h5.378A6.493 6.493 0 0 0 8 1.503Z"></path>
</svg>