<svg xmlns="http://www.w3.org/2000/svg" width="20" height="20" fill="none" viewBox="0 0 20 20">
  <path fill="#636363" d="m10.217 2.605 4.353 3.351-.292.38-.293.38-.53-.41v1.753h2.952v8.605h1.173v.957H2.42v-.957h1.122V8.06h2.952V6.262l-.578.451-.294-.377-.294-.378 4.303-3.352.292-.228.294.227Zm-5.718 14.06h1.995v-7.65H4.5v7.648Zm2.8-11.03h.152v11.03h.761v-4.448h3.364v4.447h.922V5.57L9.927 3.59 7.3 5.634Zm6.156 11.03h1.995v-7.65h-1.995v7.648Zm-4.286 0h1.45v-3.49h-1.45v3.49Zm.738-9.826a1.592 1.592 0 1 1-.001 3.184 1.592 1.592 0 0 1 .001-3.184Zm0 .957a.635.635 0 1 0 .002 1.27.635.635 0 0 0-.002-1.27Z"></path>
</svg>