<svg xmlns="http://www.w3.org/2000/svg" width="16" height="16" fill="none" viewBox="0 0 16 16">
  <path fill="#999" d="M9.281 8.839c.12-.092.246-.176.376-.253V6.343h3.753v2.243a3.711 3.711 0 1 1-4.629 5.692v.054H5.528v-7.99h3.753V8.84Zm2.253.238a2.712 2.712 0 1 0 0 5.424 2.712 2.712 0 0 0 0-5.424Zm-6.383 5.255H1.398v-7.99h3.753v7.99Zm8.112-3.165-1.89 1.89-.35.35-.354-.347-1.066-1.046.35-.357.35-.357.713.699 1.54-1.539.707.707ZM2.398 13.332h1.753v-5.99H2.398v5.99Zm4.13 0h1.63a3.695 3.695 0 0 1-.336-1.543c0-.662.173-1.282.477-1.82H8.28V7.343H6.528v5.989Zm4.13-5.15a3.724 3.724 0 0 1 1.752 0v-.84h-1.753v.84ZM7.73.622l4.768 4.14 1.01.878H1.299l1.01-.877L7.077.623l.328-.285.327.284ZM3.975 4.64h6.858l-3.43-2.978L3.975 4.64Z"></path>
</svg>