<svg xmlns="http://www.w3.org/2000/svg" width="16" height="16" fill="none" viewBox="0 0 16 16">
  <path fill="#999" d="M5.932 8.309c1.483 0 2.826.623 3.806 1.632a4.121 4.121 0 0 1 6.263 3.519v.5h-4.64l.001.038H.501c0-3.142 2.431-5.69 5.43-5.69Zm0 1c-2.09 0-3.893 1.553-4.33 3.689H8.26v-.038h1.993c-.45-2.117-2.244-3.651-4.321-3.651Zm5.948 1.03a3.1 3.1 0 0 0-1.506.39 5.8 5.8 0 0 1 .896 2.231h3.69a3.121 3.121 0 0 0-3.08-2.62Zm.182-5.05a1.81 1.81 0 0 1 1.626 1.8l-.01.184a1.81 1.81 0 0 1-1.8 1.625l-.186-.008a1.811 1.811 0 0 1-1.615-1.617l-.01-.184c0-1 .811-1.81 1.81-1.81l.185.01Zm-.184.99a.811.811 0 0 0 0 1.62.81.81 0 0 0 0-1.62ZM6.223 2.12a2.845 2.845 0 0 1 2.553 2.83l-.014.291a2.845 2.845 0 0 1-2.83 2.554L5.64 7.78A2.846 2.846 0 0 1 3.1 5.242l-.014-.29a2.845 2.845 0 0 1 2.845-2.846l.29.015Zm-.291.985a1.845 1.845 0 1 0 0 3.69 1.845 1.845 0 0 0 0-3.69Z"></path>
</svg>