<svg xmlns="http://www.w3.org/2000/svg" width="16" height="16" fill="none" viewBox="0 0 16 16">
  <path fill="#999" d="M9.873 1c.865 0 1.682.214 2.398.594l.597.317-3.06 3.06 1.221 1.22 3.06-3.06.317.598a5.127 5.127 0 0 1-6.593 7.092l-4.385 4.386-2.635-2.635.353-.353 4.032-4.033A5.127 5.127 0 0 1 9.873 1Zm0 1a4.127 4.127 0 0 0-3.65 6.057l.173.326-.261.26-3.929 3.928 1.222 1.222 3.928-3.928.261-.261.326.172a4.127 4.127 0 0 0 5.85-4.937l-2.41 2.413-.354.353-2.634-2.634.353-.354 2.411-2.412A4.122 4.122 0 0 0 9.873 2Z"></path>
</svg>