<svg xmlns="http://www.w3.org/2000/svg" width="16" height="16" fill="none" viewBox="0 0 16 16">
  <path fill="#999" d="M7.915.922c2.233 0 4.01 1.83 4.238 4.106h2.848l-.094.58-1.436 8.895-.068.42H2.425l-.068-.42L.921 5.608l-.094-.58h2.85C3.908 2.752 5.683.922 7.916.922Zm-4.639 13h9.276l1.275-7.894H2.001l1.275 7.895Zm7.384-3.063-.278.417v.001l-.002.002-.003.005-.01.016c-.01.011-.021.026-.035.045a3.117 3.117 0 0 1-.578.566 3.035 3.035 0 0 1-1.84.613 3.034 3.034 0 0 1-1.84-.613 3.12 3.12 0 0 1-.578-.566l-.034-.045-.01-.016-.004-.005-.002-.002v-.002l-.278-.416.832-.554.277.416.014.018a2.142 2.142 0 0 0 .384.372c.277.208.688.413 1.24.413.55 0 .96-.205 1.238-.413a2.132 2.132 0 0 0 .384-.372l.014-.02.277-.414.832.554ZM5.52 7.922a.685.685 0 1 1-.001 1.37.685.685 0 0 1 0-1.37Zm4.791 0a.684.684 0 1 1 0 1.368.684.684 0 0 1 0-1.368Zm-2.395-6c-1.615 0-3.009 1.321-3.23 3.106h6.463c-.223-1.785-1.618-3.106-3.233-3.106Z"></path>
</svg>