<svg xmlns="http://www.w3.org/2000/svg" width="17" height="16" fill="none" viewBox="0 0 17 16">
  <path fill="#999" d="M8.342 1.553 16.236 5.5l-.633.316v3.752h-1V6.316l-1.985.993v4.949l-.123.141-.003.003-.005.006-.018.02a6.006 6.006 0 0 1-.308.309 7.459 7.459 0 0 1-.892.712c-.755.513-1.852 1.051-3.15 1.051-1.3 0-2.397-.538-3.152-1.05a7.465 7.465 0 0 1-1.134-.951 3.516 3.516 0 0 1-.065-.07l-.019-.02-.005-.007-.003-.003-.123-.141v-4.95L0 5.5l7.895-3.947.223-.112.224.112Zm0 7.894-.224.112-.223-.112L4.618 7.81v4.06c.039.039.084.086.14.138.179.167.441.391.77.615.665.451 1.567.878 2.59.878 1.024 0 1.926-.427 2.59-.878.33-.224.592-.448.77-.615.056-.052.102-.1.14-.138V7.81L8.342 9.447ZM2.236 5.5l5.882 2.94L14 5.5 8.118 2.559 2.236 5.5Z"></path>
</svg>