<svg xmlns="http://www.w3.org/2000/svg" width="20" height="20" fill="none" viewBox="0 0 20 20">
  <path fill="#636363" d="M7.32 4.22a.5.5 0 0 1 .417.026l5 2.693a.5.5 0 0 1 .263.44v5.115h-1V7.678L7.5 5.254 3 7.678v5.555l4.737 2.552.44.238-.474.88-.44-.238-5-2.692a.5.5 0 0 1-.263-.44V7.38a.5.5 0 0 1 .263-.44l5-2.693.057-.026Zm5.417-.743 5 2.692a.5.5 0 0 1 .263.44v6.155a.5.5 0 0 1-.263.44l-5 2.692a.502.502 0 0 1-.474 0l-5-2.693a.5.5 0 0 1-.263-.44V7.649h1v4.816l4.5 2.424 4.5-2.424V6.908l-4.737-2.55-.44-.238.474-.88.44.237Z"></path>
</svg>