<svg xmlns="http://www.w3.org/2000/svg" width="16" height="16" fill="none" viewBox="0 0 16 16">
  <path fill="#999" d="M4.5.803c1.027 0 1.982.207 2.698.565.687.343 1.302.91 1.302 1.685v3.385a3.58 3.58 0 0 1 .302-.171c.716-.359 1.67-.566 2.698-.566 1.027 0 1.982.207 2.698.566.687.343 1.302.91 1.302 1.684v4.904c0 .774-.615 1.34-1.302 1.684-.716.358-1.67.566-2.698.566-1.027 0-1.982-.208-2.698-.566A3.033 3.033 0 0 1 8 13.974a3.033 3.033 0 0 1-.802.565c-.716.358-1.67.566-2.698.566-1.027 0-1.982-.208-2.698-.566C1.115 14.196.5 13.63.5 12.855V3.053c0-.775.615-1.342 1.302-1.685C2.518 1.01 3.472.803 4.5.803Zm3 11.111a3.59 3.59 0 0 1-.302.172c-.716.358-1.67.565-2.698.565-1.027 0-1.982-.207-2.698-.565a3.59 3.59 0 0 1-.302-.172v.94c0 .192.17.5.749.79.55.276 1.345.46 2.251.46.906 0 1.7-.184 2.251-.46.58-.29.749-.598.749-.79v-.94Zm1 .94c0 .192.17.5.749.79.55.276 1.345.46 2.251.46.906 0 1.7-.184 2.251-.46.58-.29.749-.598.749-.79v-.94c-.098.062-.198.12-.302.172-.716.358-1.67.565-2.698.565-1.027 0-1.982-.207-2.698-.565a3.59 3.59 0 0 1-.302-.172v.94Zm-1-3.385a3.57 3.57 0 0 1-.302.172c-.716.358-1.67.565-2.698.565-1.027 0-1.982-.207-2.698-.565a3.57 3.57 0 0 1-.302-.172v.932c0 .192.17.5.749.79.55.275 1.345.46 2.251.46.906 0 1.7-.184 2.251-.46.58-.29.749-.598.749-.79V9.47Zm7-.005c-.098.062-.198.12-.302.172-.716.358-1.67.565-2.698.565-1.027 0-1.982-.207-2.698-.565a3.576 3.576 0 0 1-.302-.172v.937c0 .192.17.5.749.79.55.275 1.345.46 2.251.46.906 0 1.7-.184 2.251-.46.58-.29.749-.598.749-.79v-.937Zm-7-2.448c-.098.061-.199.12-.302.171-.716.359-1.67.566-2.698.566-1.027 0-1.982-.207-2.698-.566a3.574 3.574 0 0 1-.302-.171v.94c0 .192.17.5.749.79.55.275 1.345.46 2.251.46.906 0 1.7-.185 2.251-.46.58-.29.749-.598.749-.79v-.94Zm4-.315c-.905 0-1.7.185-2.251.46-.58.29-.749.598-.749.79 0 .192.169.5.749.79.55.275 1.345.46 2.251.46.906 0 1.7-.185 2.251-.46.58-.29.749-.598.749-.79 0-.192-.17-.5-.749-.79-.55-.275-1.345-.46-2.251-.46Zm-4-2.136c-.098.062-.199.12-.302.172-.716.358-1.67.566-2.698.566-1.027 0-1.982-.208-2.698-.566a3.576 3.576 0 0 1-.302-.172v.938c0 .192.17.5.749.79.55.275 1.345.46 2.251.46.906 0 1.7-.185 2.251-.46.58-.29.749-.598.749-.79v-.938Zm-3-2.762c-.906 0-1.7.185-2.251.46-.58.29-.749.598-.749.79 0 .192.169.5.749.79.55.275 1.345.46 2.251.46.906 0 1.7-.185 2.251-.46.58-.29.749-.598.749-.79 0-.192-.17-.5-.749-.79-.55-.275-1.345-.46-2.251-.46Z"></path>
</svg>