<svg xmlns="http://www.w3.org/2000/svg" width="16" height="16" fill="none" viewBox="0 0 16 16">
  <path fill="#999" d="M7.435 5.894a2.174 2.174 0 1 1-4.348 0V1.002H2v4.892a3.261 3.261 0 0 0 2.718 3.213v6.067h1.087V9.107a3.261 3.261 0 0 0 2.718-3.213V1.002H7.435v4.892Zm3.301-4.892h-.543v14.172h1.087v-4.388h1.63A1.087 1.087 0 0 0 13.998 9.7V4.264a3.141 3.141 0 0 0-3.262-3.262ZM12.911 9.7H11.28V2.14c1.565.304 1.63 1.924 1.63 2.125V9.7Z"></path>
  <path fill="#999" d="M4.718 1.002h1.087v5.436H4.718V1.002Z"></path>
</svg>