<svg xmlns="http://www.w3.org/2000/svg" width="16" height="16" fill="none" viewBox="0 0 16 16">
  <path fill="#999" d="M10.958 1.006a4.779 4.779 0 0 1 3.135 1.398c.439.441.787.956 1.03 1.532l.087.225a4.8 4.8 0 0 1 .29 1.658l-.006.234a5.505 5.505 0 0 1-.354 1.655l-.001-.001a8.142 8.142 0 0 1-.83 1.608h-.001c-.489.745-1.13 1.508-1.905 2.275l-.34.329a25.697 25.697 0 0 1-2.822 2.291l-.303.206-.384.252h-.001c-.337.22-.77.22-1.106 0l-.385-.252v-.001a24.775 24.775 0 0 1-3.125-2.496c-.928-.877-1.686-1.752-2.245-2.604A8.231 8.231 0 0 1 .86 7.708 5.395 5.395 0 0 1 .5 5.819c0-.651.129-1.286.38-1.882v-.001a4.79 4.79 0 0 1 2.549-2.56v.001a4.712 4.712 0 0 1 1.853-.376h.001c.89 0 1.762.249 2.52.722.068.041.132.086.197.131A4.712 4.712 0 0 1 10.719 1l.239.006Zm-.24.994a3.754 3.754 0 0 0-2.398.865l-.319.265-.32-.265a3.76 3.76 0 0 0-2.136-.856L5.284 2a3.77 3.77 0 0 0-2.667 1.11A3.838 3.838 0 0 0 1.5 5.82c0 .486.097 1.002.298 1.538l.14.342c.154.346.352.704.59 1.069l.199.29c.485.684 1.12 1.401 1.896 2.134a24.165 24.165 0 0 0 2.96 2.37l.02.013.007.005.383.251.007.002c.002 0 .004 0 .007-.002l.382-.25c.047-.031 1.17-.772 2.438-1.889l.55-.5c.887-.838 1.59-1.654 2.095-2.424l.225-.363c.212-.36.38-.71.505-1.047.2-.537.298-1.053.298-1.539a3.812 3.812 0 0 0-.23-1.316l-.07-.179a3.82 3.82 0 0 0-1.851-1.952l-.166-.075A3.716 3.716 0 0 0 10.719 2h-.001Zm-.8 2.777 1.356 2.721H13v1h-2.345l-.138-.277L9.48 6.145 8.035 9.213l-.418.886-.471-.858L6.009 7.18l-.732 1.096-.148.223H3v-1h1.594l1.04-1.558.457-.684.397.72 1.06 1.925 1.47-3.114.44-.933.46.923Z"></path>
</svg>