<svg xmlns="http://www.w3.org/2000/svg" width="20" height="20" fill="none" viewBox="0 0 20 20">
  <path fill="#636363" d="M17.734 10.967v5.8h-.967V15.8H3.233v.967h-.967v-5.8h.967v.853l1.933-3.867v-4.72h.967V4.2h7.734v-.967h.967v2.9a.937.937 0 0 1 .68.28c.085.085.155.188.21.31.056.12.081.246.076.377v1.933a.92.92 0 0 1-.158.529l1.125 2.258v-.853h.967ZM10.967 7.1v1.933h3.867V7.1h-3.867ZM6.133 5.166v2.9H10V7.1a.938.938 0 0 1 .28-.68c.085-.085.188-.156.31-.211a.819.819 0 0 1 .377-.076h2.9v-.967H6.133ZM4.26 11.934h11.48L14.773 10h-3.806a.937.937 0 0 1-.68-.28 1.054 1.054 0 0 1-.212-.31.819.819 0 0 1-.075-.377H5.703l-1.443 2.9Zm12.507 2.9V12.9H3.233v1.934h13.534Z"></path>
</svg>