<svg xmlns="http://www.w3.org/2000/svg" width="16" height="16" fill="none" viewBox="0 0 16 16">
  <path stroke="#999" d="m5.2 3.859-1.4 10.5"></path>
  <path fill="#999" d="M11.85 4.36h-.479l1.267 9.5H15v1H1v-1h2.361l1.268-9.5H4.15v-1h7.7v1Zm-7.479 9.5h7.258l-.334-2.5h-6.59l-.334 2.5Zm.467-3.5h6.324l-.334-2.5H5.171l-.333 2.5Zm.467-3.5h5.39l-.334-2.5H5.638l-.333 2.5Zm5.848-5.6-.29.29a1.9 1.9 0 0 1-1.342.556h-.24a.9.9 0 0 0-.637.264l-.29.29-.708-.707.29-.29a1.9 1.9 0 0 1 1.344-.557h.24a.9.9 0 0 0 .636-.263l.29-.29.707.707Z"></path>
</svg>