<svg xmlns="http://www.w3.org/2000/svg" width="20" height="20" fill="none" viewBox="0 0 20 20">
  <path fill="#636363" d="M17 10.42c0 2.57-1.945 4.7-4.4 4.701H4.647l1.56 1.68.34.366-.733.68-.34-.367-2.34-2.52-.316-.34.316-.34 2.34-2.52.34-.367.733.681-.34.366-1.561 1.681H12.6c1.837 0 3.4-1.615 3.4-3.7v-.5h1v.5Zm-2.473-7.9 2.34 2.52.316.34-.317.34-2.34 2.52-.34.367-.733-.68.341-.367 1.56-1.68H7.4C5.564 5.88 4 7.495 4 9.58v.5H3v-.5c0-2.57 1.944-4.7 4.4-4.7h7.953l-1.56-1.68-.34-.366.733-.68.34.366Z"></path>
</svg>