<svg xmlns="http://www.w3.org/2000/svg" width="20" height="20" fill="none" viewBox="0 0 20 20">
  <path fill="#999" d="m2.107 2 16.5 14.437.408.356-.714.816-.407-.358-6.307-5.518a3.05 3.05 0 0 1-1.587.44c-1.494 0-2.833-1.076-2.834-2.548 0-.51.167-.98.445-1.37L1.394 2.813l-.408-.357.714-.815.407.357Zm2.168 5.34-.439.318A17.53 17.53 0 0 0 1.57 9.625a17.531 17.531 0 0 0 2.267 1.968c1.618 1.174 3.798 2.303 6.163 2.303a8.03 8.03 0 0 0 1.717-.19l.53-.117.23 1.059-.527.115a9.117 9.117 0 0 1-1.95.217c-2.696 0-5.1-1.278-6.8-2.51a18.617 18.617 0 0 1-2.024-1.704 15.562 15.562 0 0 1-.7-.727l-.04-.044a.042.042 0 0 0-.01-.012l-.003-.004-.002-.002-.3-.352.3-.351.002-.002.003-.004.01-.012.04-.045.146-.16c.128-.138.315-.334.554-.566A18.618 18.618 0 0 1 3.201 6.78l.438-.319.636.877ZM10 4.27c2.697.001 5.101 1.279 6.8 2.51.855.62 1.546 1.24 2.024 1.705a15.554 15.554 0 0 1 .7.726l.04.045.01.012.003.004h.001v.002l.3.351-.3.352v.002l-.003.004-.011.012a3.886 3.886 0 0 1-.187.206 15.85 15.85 0 0 1-.553.565A18.606 18.606 0 0 1 16.8 12.47l-.438.319-.637-.877.438-.319a17.527 17.527 0 0 0 2.266-1.968 17.523 17.523 0 0 0-2.266-1.968C14.545 6.485 12.366 5.356 10 5.356c-.58 0-1.15.067-1.704.187l-.529.116-.23-1.059.53-.115A9.105 9.105 0 0 1 10 4.27ZM8.434 8.975c-.12.2-.184.422-.184.651 0 .743.714 1.463 1.75 1.463.254 0 .492-.046.706-.126L8.434 8.974Z"></path>
</svg>