<svg xmlns="http://www.w3.org/2000/svg" width="16" height="16" fill="none" viewBox="0 0 16 16">
  <path fill="#999" d="M12.528 1.025c.683-.01 1.324.169 1.788.633.464.464.643 1.104.633 1.788-.01.681-.207 1.45-.541 2.249a13.18 13.18 0 0 1-1.253 2.267c.551.805.992 1.598 1.304 2.342.334.8.53 1.568.54 2.25.011.683-.168 1.323-.632 1.787-.465.465-1.105.644-1.788.633-.682-.01-1.45-.207-2.25-.54-.74-.31-1.528-.75-2.33-1.297-.8.548-1.588.986-2.33 1.296-.799.334-1.567.53-2.249.541-.683.01-1.323-.168-1.788-.633-.464-.464-.643-1.104-.632-1.788.01-.681.207-1.45.542-2.249.31-.744.751-1.537 1.302-2.342a13.238 13.238 0 0 1-1.252-2.267c-.334-.8-.531-1.568-.542-2.25-.01-.683.169-1.323.633-1.787.464-.465 1.105-.643 1.788-.633.682.01 1.45.208 2.25.542A13.21 13.21 0 0 1 8 2.827a13.205 13.205 0 0 1 2.279-1.26c.8-.334 1.567-.531 2.249-.542ZM3.469 8.828c-.421.648-.76 1.276-1.006 1.862-.304.728-.456 1.367-.463 1.879-.008.51.126.851.34 1.065.213.214.555.348 1.065.34.512-.008 1.15-.16 1.879-.464a11.74 11.74 0 0 0 1.854-1 20.483 20.483 0 0 1-1.924-1.7A20.396 20.396 0 0 1 3.47 8.828Zm9.06 0a20.417 20.417 0 0 1-1.744 1.982 20.479 20.479 0 0 1-1.924 1.7c.645.42 1.27.756 1.854 1 .729.305 1.367.456 1.88.464.51.008.85-.126 1.065-.34.214-.214.347-.555.34-1.065-.008-.512-.16-1.15-.464-1.879a11.843 11.843 0 0 0-1.006-1.862ZM8 4.052a19.206 19.206 0 0 0-2.128 1.844 19.259 19.259 0 0 0-1.8 2.07 19.198 19.198 0 0 0 1.85 2.137A19.261 19.261 0 0 0 8 11.91a19.25 19.25 0 0 0 2.078-1.806 19.207 19.207 0 0 0 1.85-2.138 19.262 19.262 0 0 0-1.8-2.069c-.7-.7-1.42-1.318-2.128-1.844ZM3.457 2.025c-.51-.008-.852.126-1.066.34-.214.214-.347.555-.34 1.065.008.512.16 1.15.464 1.88.236.563.56 1.168.96 1.79a20.46 20.46 0 0 1 1.69-1.911 20.414 20.414 0 0 1 1.97-1.735 11.755 11.755 0 0 0-1.8-.965c-.728-.305-1.366-.456-1.878-.464Zm9.087 0c-.512.008-1.15.16-1.878.464-.567.237-1.174.562-1.8.965.664.51 1.327 1.092 1.97 1.735a20.291 20.291 0 0 1 1.69 1.911c.401-.623.724-1.226.96-1.79.305-.73.456-1.368.464-1.88.008-.51-.126-.851-.34-1.065-.214-.214-.556-.348-1.066-.34Z"></path>
</svg>