<svg xmlns="http://www.w3.org/2000/svg" width="64" height="64" fill="none" viewBox="0 0 64 64">
  <path fill="#00A870" d="M32 46.726c12.15 0 22-9.788 22-21.863S44.15 3 32 3s-22 9.788-22 21.863 9.85 21.863 22 21.863Z"></path>
  <path fill="#fff" d="M32 36.575c6.51 0 11.786-5.243 11.786-11.712 0-6.468-5.277-11.712-11.786-11.712-6.51 0-11.786 5.244-11.786 11.712 0 6.469 5.277 11.712 11.786 11.712Z"></path>
  <path stroke="#00A870" stroke-linecap="round" stroke-width="3.936" d="M32 46.726V60"></path>
  <circle cx="54" cy="54" r="10" fill="#999"></circle>
  <path fill="#fff" fill-rule="evenodd" d="m54.08 52.91 3.541-3.54a.714.714 0 0 1 1.01 1.009l-3.541 3.54 3.7 3.702a.714.714 0 1 1-1.008 1.01l-3.702-3.702-3.861 3.862a.714.714 0 1 1-1.01-1.01l3.862-3.861-3.702-3.702a.714.714 0 0 1 1.01-1.009l3.701 3.701Z" clip-rule="evenodd"></path>
</svg>