<svg xmlns="http://www.w3.org/2000/svg" width="16" height="16" fill="none" viewBox="0 0 16 16">
  <path fill="#999" d="M9.402 5.19a5 5 0 0 1 3.972 8.911h1.509v1H1.234V.892h8.168v4.3Zm-7.168 8.912h5.159a4.993 4.993 0 0 1-1.854-5.25H3.531v-1h2.16v.51a5.016 5.016 0 0 1 2.711-2.861v-3.61H2.234V14.1Zm8.149-8.008a4 4 0 1 0 0 8 4 4 0 0 0 0-8Zm0 4.771a1.254 1.254 0 1 1-.001 2.51 1.254 1.254 0 0 1 0-2.51Zm0 .9a.353.353 0 1 0 0 .708.353.353 0 0 0 0-.707ZM8.36 8.845a1.254 1.254 0 1 1 0 2.509 1.254 1.254 0 0 1 0-2.51Zm4.047 0a1.254 1.254 0 1 1 0 2.508 1.254 1.254 0 0 1 0-2.508Zm-4.047.9a.353.353 0 1 0 0 .707.353.353 0 0 0 0-.707Zm4.047 0a.354.354 0 1 0 0 .708.354.354 0 0 0 0-.708Zm-2.025-2.93a1.254 1.254 0 1 1-.001 2.508 1.254 1.254 0 0 1 0-2.509Zm0 .9a.353.353 0 1 0 0 .707.353.353 0 0 0 0-.707ZM7.195 5.836H3.531v-1h3.664v1Z"></path>
</svg>