<svg xmlns="http://www.w3.org/2000/svg" width="16" height="16" fill="none" viewBox="0 0 16 16">
  <path fill="#999" d="M14.118 2.549c-.28.947-1.226 3.823-2.098 6.449L10.852 12.5l-.373 1.111-.103.309-.027.08-.008.02-.001.006-.001.001-.942.017-1.96-5.248-5.431-1.799-.016-.943v-.001h.002l.006-.002.02-.009.086-.03.32-.118A1387.33 1387.33 0 0 1 7.198 4.15c2.68-.973 5.571-2.01 6.301-2.223l.62.62Zm-1.246.636A390.99 390.99 0 0 0 7.539 5.09c-1.345.488-2.646.964-3.61 1.317-.086.032-.17.06-.25.09l4.299 1.426.31.3 1.552 4.15.063-.19c.31-.928.73-2.185 1.166-3.5.675-2.03 1.386-4.19 1.803-5.498Z"></path>
</svg>