<svg xmlns="http://www.w3.org/2000/svg" width="16" height="16" fill="none" viewBox="0 0 16 16">
  <path fill="#999" d="M8.7 13.15H7.3v-1.4h1.4v1.4Zm-3.852-3.04a4.46 4.46 0 0 1 6.306 0l.354.353-.707.707-.354-.354a3.46 3.46 0 0 0-4.892 0l-.354.354-.707-.707.354-.354ZM2.745 7.826a7.43 7.43 0 0 1 10.507 0l.353.354-.707.707-.353-.354a6.43 6.43 0 0 0-9.093 0l-.353.354-.707-.707.353-.354ZM1.323 4.843c4.12-3.307 10.122-3.113 14.02.582l.364.344-.688.726-.363-.345C11.123 2.802 5.683 2.627 1.95 5.623c-.207.166-.41.342-.605.527l-.363.345-.688-.726.363-.344c.216-.205.439-.399.667-.582Z"></path>
</svg>