<svg xmlns="http://www.w3.org/2000/svg" width="16" height="16" fill="none" viewBox="0 0 16 16">
  <path fill="#999" d="M8.83 1.273 9.107 3.5H14.5v11.667H7.332a.5.5 0 0 1-.495-.438l-.278-2.226H1.5V.836h7.274l.055.437Zm.611 4.899h1.555v1h-1.43l.208 1.664H11v1H9.9l.264 2.104v.015l.027.205-.13.148c-.007.008-.011.018-.018.026-.007.008-.015.013-.022.02l-1.586 1.813H13.5V4.5H9.233l.208 1.672Zm-1.75 7.325.87-.994h-.995l.124.994ZM2.5 11.503h6.599l-.263-2.107-.333-2.667-.334-2.667-.07-.562H8.1l-.21-1.664H2.5v9.667ZM7 9.836H4v-1h3v1Zm-.333-2.664H4v-1h2.667v1ZM6.333 4.5H4v-1h2.333v1Z"></path>
</svg>