<svg xmlns="http://www.w3.org/2000/svg" width="64" height="64" fill="none" viewBox="0 0 64 64">
  <g clip-path="url(#a)">
    <path fill="#48555C" fill-opacity=".16" d="M32 64c17.673 0 32-14.327 32-32C64 14.327 49.673 0 32 0 14.327 0 0 14.327 0 32c0 17.673 14.327 32 32 32Z"></path>
    <path fill="#48555C" d="M32 56c13.255 0 24-10.745 24-24S45.255 8 32 8 8 18.745 8 32s10.745 24 24 24Z"></path>
    <path fill="#EE385C" d="M52.8 22.4c-6.186 0-11.2-5.014-11.2-11.2C41.6 5.014 46.614 0 52.8 0 58.986 0 64 5.014 64 11.2c0 6.186-5.014 11.2-11.2 11.2Z"></path>
    <path fill="#fff" d="M53.733 4.217h-1.866v9.333h1.866V4.217ZM53.73 15.49h-1.866a.467.467 0 0 0-.466.467v1.867c0 .258.208.467.466.467h1.867a.467.467 0 0 0 .467-.467v-1.867a.467.467 0 0 0-.467-.466Z"></path>
  </g>
  <defs>
    <clipPath id="a">
      <path fill="#fff" d="M0 0h64v64H0z"></path>
    </clipPath>
  </defs>
</svg>