<svg xmlns="http://www.w3.org/2000/svg" width="64" height="64" fill="none" viewBox="0 0 64 64">
  <g clip-path="url(#a)">
    
    <path fill="#00778C" fill-opacity=".12" d="M32 64c17.673 0 32-14.327 32-32C64 14.327 49.673 0 32 0 14.327 0 0 14.327 0 32c0 17.673 14.327 32 32 32Z" data-figma-bg-blur-radius="14.588"></path>
    <path fill="#00A870" d="M32 56c13.255 0 24-10.745 24-24S45.255 8 32 8 8 18.745 8 32s10.745 24 24 24Z"></path>
  </g>
  <defs>
    <clipPath id="b">
      <path d="M32 64c17.673 0 32-14.327 32-32C64 14.327 49.673 0 32 0 14.327 0 0 14.327 0 32c0 17.673 14.327 32 32 32Z"></path>
    </clipPath>
    <clipPath id="a">
      <path fill="#fff" d="M0 0h64v64H0z"></path>
    </clipPath>
  </defs>
</svg>