<svg xmlns="http://www.w3.org/2000/svg" width="16" height="16" fill="none" viewBox="0 0 16 16">
  <path fill="#999" d="M9.728 1.772c1.012.28 1.924.8 2.67 1.494l.274.254-.165.333a1.289 1.289 0 0 0 1.156 1.857h.019l.372-.005.112.355a6.46 6.46 0 0 1 .164 3.24l-.09.44-.448-.043a1.289 1.289 0 0 0-1.114 2.111l.29.345-.312.325a6.462 6.462 0 0 1-2.81 1.713l-.469.14-.15-.467a1.29 1.29 0 0 0-2.454 0l-.15.466-.47-.14a6.462 6.462 0 0 1-2.81-1.712l-.312-.325.29-.345a1.29 1.29 0 0 0-1.113-2.111l-.448.044-.09-.442a6.488 6.488 0 0 1 .164-3.239l.111-.355.373.005h.018a1.29 1.29 0 0 0 1.157-1.857l-.165-.333.273-.254a6.453 6.453 0 0 1 2.672-1.494l.393-.11.186.364a1.288 1.288 0 0 0 2.297 0l.185-.363.394.109Zm.078 1.072a2.283 2.283 0 0 1-3.612 0 5.453 5.453 0 0 0-1.665.938c.06.204.096.418.096.64 0 1.14-.835 2.082-1.926 2.256a5.474 5.474 0 0 0-.115 2.027 2.288 2.288 0 0 1 2.041 2.273c0 .39-.101.759-.274 1.081.488.44 1.056.79 1.68 1.031a2.288 2.288 0 0 1 3.938 0 5.457 5.457 0 0 0 1.679-1.031 2.288 2.288 0 0 1 1.767-3.354 5.472 5.472 0 0 0-.114-2.026 2.286 2.286 0 0 1-1.926-2.257c0-.222.035-.437.095-.64a5.452 5.452 0 0 0-1.664-.938ZM8 5.412a2.586 2.586 0 1 1 0 5.172 2.586 2.586 0 0 1 0-5.172Zm0 1a1.587 1.587 0 1 0 0 3.174 1.587 1.587 0 0 0 0-3.174Z"></path>
</svg>