<svg xmlns="http://www.w3.org/2000/svg" width="16" height="16" fill="none" viewBox="0 0 16 16">
  <path fill="#999" d="M8 .5a7.5 7.5 0 1 1 0 15 7.5 7.5 0 0 1 0-15Zm0 1a6.5 6.5 0 1 0 0 13 6.5 6.5 0 0 0 0-13ZM7.472 5c.356 0 .67.068.943.204.275.134.49.322.644.566.157.243.235.529.235.856 0 .26-.05.492-.152.7a1.901 1.901 0 0 1-.283.404c.16.137.29.303.388.499.136.267.204.55.204.848 0 .35-.085.664-.255.939a1.8 1.8 0 0 1-.703.644 2.19 2.19 0 0 1-1.021.232c-.383 0-.723-.077-1.022-.232a1.807 1.807 0 0 1-.699-.644 1.768 1.768 0 0 1-.251-.939c0-.298.067-.58.2-.845.1-.192.23-.358.392-.5a2.248 2.248 0 0 1-.281-.407 1.495 1.495 0 0 1-.162-.699c0-.327.077-.613.232-.856.157-.244.372-.432.644-.566.275-.136.59-.204.947-.204Zm-2.82 5.781H3.561V6.288L2.5 6.94V5.762l1.06-.637h1.092v5.656Zm2.82-2.521c-.252 0-.454.071-.609.213-.154.138-.232.34-.232.604 0 .267.078.47.232.606.155.136.358.204.609.204s.456-.068.613-.204c.157-.137.235-.339.235-.606 0-.264-.078-.466-.235-.604-.157-.142-.362-.213-.613-.213Zm4.91-.737h1.352v.825h-1.351v1.359h-.824v-1.36h-1.36v-.824h1.36V6.172h.824v1.351Zm-4.91-1.525a.765.765 0 0 0-.5.157c-.127.102-.192.26-.192.471 0 .212.064.37.193.472.128.1.295.149.499.15a.79.79 0 0 0 .499-.15c.128-.102.192-.26.192-.472 0-.212-.064-.369-.192-.47a.764.764 0 0 0-.5-.158Z"></path>
</svg>