<svg xmlns="http://www.w3.org/2000/svg" width="20" height="20" fill="none" viewBox="0 0 20 20">
  <path fill="#636363" d="M6.368 2.737h1.037v5.189H6.368v-5.19Z"></path>
  <path fill="#636363" d="M8.962 7.407a2.076 2.076 0 1 1-4.15 0v-4.67h-1.04v4.67a3.113 3.113 0 0 0 2.595 3.066v6.792h1.037v-6.792A3.113 3.113 0 0 0 10 7.407v-4.67H8.962v4.67Zm4.151-4.67h-.519v14.529h1.038v-5.19h1.557a1.038 1.038 0 0 0 1.037-1.037V5.85a3 3 0 0 0-3.113-3.113Zm2.076 8.302h-1.557V3.82c1.494.29 1.557 1.837 1.557 2.03v5.188Z"></path>
</svg>