<svg xmlns="http://www.w3.org/2000/svg" width="16" height="16" fill="none" viewBox="0 0 16 16">
  <path fill="#999" d="M8.127.5C12.195.5 15.5 3.773 15.5 7.82c0 4.045-3.305 7.32-7.373 7.32a7.384 7.384 0 0 1-3.366-.81l-3.61 1.147-.942.3.317-.937 1.167-3.444a7.25 7.25 0 0 1-.94-3.577C.755 3.773 4.06.5 8.128.5Zm0 1c-3.523 0-6.373 2.833-6.373 6.32 0 1.193.334 2.309.914 3.261l.121.2-.075.221-.923 2.722 2.862-.91.204-.064.189.102a6.383 6.383 0 0 0 3.081.788c3.523 0 6.373-2.834 6.373-6.32 0-3.487-2.85-6.32-6.373-6.32Zm-3.19 2.782a.968.968 0 0 1 1.292-.066l.074.066 1.453 1.453a.968.968 0 0 1 .066 1.294l-.066.074-.246.245a.682.682 0 0 0 .026.09c.06.163.197.387.418.608.221.221.445.356.609.417a.693.693 0 0 0 .088.026l.246-.245.074-.066a.967.967 0 0 1 1.22 0l.074.066 1.453 1.453a.968.968 0 0 1 0 1.367h-.001l-.33.33c-.333.332-.761.523-1.244.585h-.001c-.117.014-.235.02-.353.02V12a3.75 3.75 0 0 1-1.053-.163c-.974-.287-1.966-.921-2.81-1.764-.842-.843-1.476-1.835-1.763-2.81-.143-.486-.198-.962-.142-1.406.062-.483.253-.91.585-1.244l.33-.33Zm.376 1.038c-.154.155-.262.369-.3.663-.034.278-.005.612.11.998.228.781.759 1.633 1.51 2.385.753.752 1.605 1.282 2.386 1.511.285.085.543.123.77.123h.001c.076 0 .151-.004.227-.014l.107-.017c.24-.048.42-.147.556-.282l.306-.307-1.405-1.405-.307.306a.789.789 0 0 1-.561.217c-.17.001-.34-.038-.498-.097a2.79 2.79 0 0 1-.968-.648 2.792 2.792 0 0 1-.648-.968 1.428 1.428 0 0 1-.098-.498.79.79 0 0 1 .218-.561l.306-.307L5.62 5.014l-.307.306Z"></path>
</svg>