<svg xmlns="http://www.w3.org/2000/svg" width="20" height="20" fill="none" viewBox="0 0 20 20">
  <path fill="#636363" d="M10.9 16.703H9.15v-1.75h1.75v1.75ZM6.22 13.3a5.38 5.38 0 0 1 7.609 0l.372.371-.743.743-.371-.372a4.331 4.331 0 0 0-6.124 0l-.371.372-.743-.743.372-.37Zm-2.575-2.796a9.022 9.022 0 0 1 12.76 0l.37.371-.742.743-.371-.37a7.973 7.973 0 0 0-11.275 0l-.37.37-.743-.743.371-.37ZM1.893 6.853c5.018-4.027 12.328-3.791 17.076.709l.381.361-.721.762-.382-.36C13.882 4.188 7.163 3.97 2.55 7.672a12.08 12.08 0 0 0-.747.653l-.381.36L.7 7.923l.38-.361c.264-.25.535-.486.813-.71Z"></path>
</svg>