<svg xmlns="http://www.w3.org/2000/svg" width="16" height="16" fill="none" viewBox="0 0 16 16">
  <path fill="#999" d="M7.999.503a7.5 7.5 0 0 1 0 15l-.002-.001a7.5 7.5 0 0 1 0-15H8Zm1.98 10.686a17.554 17.554 0 0 1-3.963 0 9.78 9.78 0 0 0 .466 1.578c.24.598.512 1.05.79 1.342.275.292.521.393.726.393.205 0 .45-.101.727-.393.277-.293.55-.744.789-1.342.183-.46.34-.991.465-1.579ZM1.78 9.898a6.513 6.513 0 0 0 4.32 4.32 6.412 6.412 0 0 1-.546-1.08 11.222 11.222 0 0 1-.588-2.105 11.22 11.22 0 0 1-2.103-.588 6.446 6.446 0 0 1-1.083-.548Zm12.436 0a6.408 6.408 0 0 1-1.081.547c-.612.245-1.324.444-2.105.588a11.157 11.157 0 0 1-.588 2.105 6.372 6.372 0 0 1-.546 1.08 6.511 6.511 0 0 0 4.32-4.32ZM7.999 5.702c-.758 0-1.484.052-2.158.143a16.305 16.305 0 0 0 0 4.314 16.311 16.311 0 0 0 4.314 0 16.317 16.317 0 0 0 0-4.314A16.3 16.3 0 0 0 8 5.702Zm-3.187.318a9.774 9.774 0 0 0-1.577.466c-.598.24-1.05.512-1.342.79-.292.275-.394.521-.394.726 0 .205.102.45.394.727.293.277.744.55 1.342.789.459.183.99.34 1.577.465a17.52 17.52 0 0 1 0-3.963Zm6.373 0a17.535 17.535 0 0 1 0 3.963 9.787 9.787 0 0 0 1.578-.465c.598-.24 1.05-.512 1.342-.79.292-.275.394-.521.394-.726 0-.205-.102-.45-.394-.727-.293-.277-.744-.55-1.342-.789a9.782 9.782 0 0 0-1.578-.466ZM6.102 1.784A6.514 6.514 0 0 0 1.78 6.105a6.412 6.412 0 0 1 1.083-.547 11.217 11.217 0 0 1 2.103-.588c.144-.78.343-1.491.588-2.103.16-.399.343-.764.548-1.083Zm3.793 0c.204.319.388.684.547 1.083.245.612.444 1.322.588 2.103.781.144 1.493.343 2.105.588.398.159.763.342 1.08.546a6.513 6.513 0 0 0-4.32-4.32Zm-1.898-.281c-.204 0-.45.102-.726.393-.276.293-.55.745-.789 1.343a9.82 9.82 0 0 0-.466 1.576 17.526 17.526 0 0 1 3.963 0 9.776 9.776 0 0 0-.465-1.576c-.24-.598-.512-1.05-.79-1.343-.275-.291-.521-.393-.726-.393Z"></path>
</svg>