<svg xmlns="http://www.w3.org/2000/svg" width="16" height="16" fill="none" viewBox="0 0 16 16">
  <path stroke="#999" stroke-linecap="round" d="M10.4 8c0 3.314-1.074 6-2.4 6-1.325 0-2.4-2.686-2.4-6S6.675 2 8 2c1.326 0 2.4 2.686 2.4 6Z"></path>
  <path stroke="#999" d="M14 8a6 6 0 1 0-6 6"></path>
  <path stroke="#999" stroke-linecap="square" d="M2.5 8H14"></path>
  <path fill="#999" d="M11.856 12.607c.038.328.155.566.351.716.201.15.498.224.891.224a1.6 1.6 0 0 0 .484-.063.876.876 0 0 0 .316-.168.58.58 0 0 0 .169-.246.972.972 0 0 0 .049-.309.772.772 0 0 0-.035-.231.543.543 0 0 0-.127-.218.757.757 0 0 0-.245-.168 1.447 1.447 0 0 0-.393-.12l-.639-.119a4.387 4.387 0 0 1-.673-.175 1.636 1.636 0 0 1-.499-.274 1.18 1.18 0 0 1-.302-.42 1.687 1.687 0 0 1-.098-.611c0-.239.047-.447.14-.625.099-.178.232-.325.4-.442.169-.122.368-.21.597-.267.234-.06.487-.091.758-.091.346 0 .636.04.87.12.234.079.424.184.569.315.145.126.255.274.33.442.074.169.126.344.154.526l-.8.127c-.066-.28-.18-.49-.344-.625-.16-.135-.414-.203-.765-.203-.201 0-.37.018-.505.056a.859.859 0 0 0-.323.147.557.557 0 0 0-.225.47c0 .22.059.384.176.492.121.107.332.191.631.252l.695.134c.529.098.917.266 1.165.505.248.234.372.573.372 1.017 0 .211-.04.407-.12.59a1.255 1.255 0 0 1-.35.47 1.752 1.752 0 0 1-.597.309c-.234.08-.507.12-.82.12-.642 0-1.145-.134-1.51-.4-.364-.272-.566-.69-.603-1.257h.856Z"></path>
</svg>