<svg xmlns="http://www.w3.org/2000/svg" width="64" height="64" fill="none" viewBox="0 0 64 64">
  <g clip-path="url(#a)">
    <path fill="#00A870" d="M32 64c17.673 0 32-14.327 32-32C64 14.327 49.673 0 32 0 14.327 0 0 14.327 0 32c0 17.673 14.327 32 32 32Z"></path>
    <path fill="#fff" d="M46.733 46h-6.8c-1.25 0-2.266-1.005-2.266-2.244V39.32a2.256 2.256 0 0 1 2.266-2.244H42.2v-4.46H21.8v4.46h2.267c1.25 0 2.266 1.005 2.266 2.244v4.436A2.256 2.256 0 0 1 24.067 46h-6.8A2.256 2.256 0 0 1 15 43.756V39.32a2.256 2.256 0 0 1 2.267-2.244h2.266V31.5a1.12 1.12 0 0 1 1.127-1.115h10.207v-4.463H28.6a2.255 2.255 0 0 1-2.267-2.244v-4.434A2.255 2.255 0 0 1 28.6 17h6.8a2.255 2.255 0 0 1 2.267 2.244v4.434a2.255 2.255 0 0 1-2.267 2.244h-2.267v4.463H43.34a1.12 1.12 0 0 1 1.127 1.115v5.577h2.266c1.252 0 2.267 1.004 2.267 2.243v4.436C49 44.995 47.984 46 46.733 46Z"></path>
  </g>
  <defs>
    <clipPath id="a">
      <path fill="#fff" d="M0 0h64v64H0z"></path>
    </clipPath>
  </defs>
</svg>