<svg xmlns="http://www.w3.org/2000/svg" width="24" height="20" fill="none" viewBox="0 0 24 20">
  <rect width="20" height="20" fill="#E5F0FA" rx="10"></rect>
  <path fill="#0069CB" d="M9.96 2.918a1.363 1.363 0 0 1 .457 2.644v4.989h1.799V7.898a1.363 1.363 0 0 1 .499-2.631 1.364 1.364 0 0 1 .5 2.631v2.653h.864v5.668H5.918V10.55h.864V7.898a1.363 1.363 0 1 1 1 0v2.653h1.635V5.529a1.362 1.362 0 0 1 .544-2.611Zm-3.042 12.3h6.161v-3.667H6.918v3.668Zm.364-8.951a.365.365 0 1 0 .001.729.365.365 0 0 0 0-.73Zm5.433 0a.365.365 0 1 0 0 .73.365.365 0 0 0 0-.73ZM9.96 3.918a.364.364 0 0 0 0 .726.363.363 0 0 0 0-.726Z"></path>
</svg>