<svg xmlns="http://www.w3.org/2000/svg" width="16" height="16" fill="none" viewBox="0 0 16 16">
  <path fill="#999" d="M15.5 13.752H9.893l-.147-.147L8 11.858l-1.746 1.747-.147.147H.5v-9.4h15v9.4Zm-14-1h4.193l1.953-1.954.354-.354.354.354 1.953 1.954H14.5v-7.4h-13v7.4Zm3.002-5.604a1.9 1.9 0 1 1-.002 3.8 1.9 1.9 0 0 1 .002-3.8Zm7 0a1.9 1.9 0 1 1-.002 3.8 1.9 1.9 0 0 1 .002-3.8Zm-7 1a.9.9 0 1 0 0 1.802.9.9 0 0 0 0-1.802Zm7 0a.9.9 0 1 0 0 1.802.9.9 0 0 0 0-1.802Zm2.797-4.898h-12.6v-1h12.6v1Z"></path>
</svg>