<svg xmlns="http://www.w3.org/2000/svg" width="16" height="16" fill="none" viewBox="0 0 16 16">
  <path fill="#999" d="M3 1.88a1.302 1.302 0 0 1 1.838 0l2.49 2.49v.001c.476.476.506 1.229.09 1.74l-.09.098-.536.536a.186.186 0 0 0-.004.041c0 .078.02.204.083.373.124.336.386.763.797 1.173.41.41.837.672 1.172.797.169.062.295.083.373.083.018 0 .032-.004.04-.005l.538-.536.098-.089a1.301 1.301 0 0 1 1.74.089l2.49 2.49a1.3 1.3 0 0 1 0 1.838l-.566.566c-.507.508-1.165.805-1.925.9h-.001a4.454 4.454 0 0 1-.56.034v.001c-.54 0-1.113-.092-1.704-.266-1.6-.47-3.253-1.52-4.665-2.931C3.285 9.89 2.235 8.238 1.764 6.637c-.235-.799-.319-1.563-.23-2.265.096-.76.393-1.419.9-1.926l.567-.566Zm1.131.708a.301.301 0 0 0-.377-.038l-.047.038-.566.565c-.329.33-.543.772-.615 1.344-.06.468-.02 1.004.128 1.599l.07.258.084.265c.45 1.33 1.357 2.737 2.596 3.976 1.322 1.321 2.834 2.267 4.241 2.68.517.152.993.225 1.422.225.145 0 .291-.008.436-.026l.208-.034c.472-.094.847-.294 1.135-.582l.566-.565.038-.047a.301.301 0 0 0 0-.331l-.038-.047-2.49-2.49a.302.302 0 0 0-.425 0l-.566.566c-.207.208-.482.266-.71.268a2.099 2.099 0 0 1-.728-.146c-.49-.181-1.036-.53-1.532-1.027-.497-.496-.846-1.042-1.028-1.531a2.099 2.099 0 0 1-.145-.729c.001-.228.06-.503.267-.71l.567-.567a.301.301 0 0 0-.001-.425l-2.49-2.49Z"></path>
</svg>