<svg xmlns="http://www.w3.org/2000/svg" width="20" height="20" fill="none" viewBox="0 0 20 20">
  <path fill="#636363" d="M17.324 11.861a7.645 7.645 0 0 1-14.98 0l-.1-.49.98-.2.1.491a6.645 6.645 0 0 0 12.759.924l-.927.356-.467.18-.358-.934.467-.178 1.856-.715.85-.327-.18.893Zm-5.17-.656.78 1.785.2.458-.915.402-.2-.458-.651-1.487H8.585l-.65 1.487-.2.458-.917-.402.2-.458.782-1.785 1.718-3.929h.916l1.72 3.93Zm-3.132-.3h1.908l-.954-2.181-.954 2.181Zm.812-8.215a7.646 7.646 0 0 1 7.49 6.116l.1.489-.98.2-.1-.491a6.645 6.645 0 0 0-12.78-.87l1.729-.576.316.949-.474.158-2.143.714-.82.273.172-.846a7.646 7.646 0 0 1 7.49-6.116Z"></path>
</svg>