<svg xmlns="http://www.w3.org/2000/svg" width="24" height="24" fill="none" viewBox="0 0 24 24">
  <g clip-path="url(#a)" data-figma-skip-parse="true">
    
  </g>
  <path d="M20.75 12v.75h1.5V12h-1.5Zm1.027 3.087.225-.715-1.43-.451-.226.715.715.225.716.226ZM21.5 12h.75c0-5.66-4.59-10.25-10.25-10.25v1.5A8.75 8.75 0 0 1 20.75 12h.75ZM12 2.5v-.75C6.34 1.75 1.75 6.34 1.75 12h1.5A8.75 8.75 0 0 1 12 3.25V2.5ZM2.5 12h-.75c0 5.66 4.59 10.25 10.25 10.25v-1.5A8.75 8.75 0 0 1 3.25 12H2.5Zm9.5 9.5v.75c4.586 0 8.467-3.011 9.777-7.163l-.716-.226-.715-.225A8.754 8.754 0 0 1 12 20.75v.75Z" data-figma-gradient-fill="{&#34;type&#34;:&#34;GRADIENT_ANGULAR&#34;,&#34;stops&#34;:[{&#34;color&#34;:{&#34;r&#34;:0.0,&#34;g&#34;:0.65882354974746704,&#34;b&#34;:0.43921568989753723,&#34;a&#34;:0.60000002384185791},&#34;position&#34;:0.017963772639632225},{&#34;color&#34;:{&#34;r&#34;:0.0,&#34;g&#34;:0.65882354974746704,&#34;b&#34;:0.43921568989753723,&#34;a&#34;:0.039999999105930328},&#34;position&#34;:0.031290899962186813}],&#34;stopsVar&#34;:[{&#34;color&#34;:{&#34;r&#34;:0.0,&#34;g&#34;:0.65882354974746704,&#34;b&#34;:0.43921568989753723,&#34;a&#34;:0.60000002384185791},&#34;position&#34;:0.017963772639632225},{&#34;color&#34;:{&#34;r&#34;:0.0,&#34;g&#34;:0.65882354974746704,&#34;b&#34;:0.43921568989753723,&#34;a&#34;:0.039999999105930328},&#34;position&#34;:0.031290899962186813}],&#34;transform&#34;:{&#34;m00&#34;:19.0,&#34;m01&#34;:0.0,&#34;m02&#34;:2.50,&#34;m10&#34;:0.0,&#34;m11&#34;:19.0,&#34;m12&#34;:2.50},&#34;opacity&#34;:1.0,&#34;blendMode&#34;:&#34;NORMAL&#34;,&#34;visible&#34;:true}"></path>
  <defs>
    <clipPath id="a">
      <path d="M20.75 12v.75h1.5V12h-1.5Zm1.027 3.087.225-.715-1.43-.451-.226.715.715.225.716.226ZM21.5 12h.75c0-5.66-4.59-10.25-10.25-10.25v1.5A8.75 8.75 0 0 1 20.75 12h.75ZM12 2.5v-.75C6.34 1.75 1.75 6.34 1.75 12h1.5A8.75 8.75 0 0 1 12 3.25V2.5ZM2.5 12h-.75c0 5.66 4.59 10.25 10.25 10.25v-1.5A8.75 8.75 0 0 1 3.25 12H2.5Zm9.5 9.5v.75c4.586 0 8.467-3.011 9.777-7.163l-.716-.226-.715-.225A8.754 8.754 0 0 1 12 20.75v.75Z"></path>
    </clipPath>
  </defs>
</svg>