<svg xmlns="http://www.w3.org/2000/svg" width="20" height="20" fill="none" viewBox="0 0 20 20">
  <path fill="#636363" d="M17.001 6.165h-3.889v-1.44h-1.887v4.777h1.886V8.057h3.89v3.888h-3.89v-1.443h-1.886v4.78h1.886v-1.449h3.89v3.889h-3.89v-1.44h-2.886v-5.78h-1.89v3.257H3.001v-7.5h5.334v3.243h1.89V3.725h2.888V2.276H17v3.889Zm-2.89 9.596.002.02-.002.02v.92h1.89v-1.888h-1.89v.928Zm-10.11-3.002h3.334v-5.5H4.001v5.5Zm10.11-2.778.002.021-.002.02v.923h1.89V9.057h-1.89v.924Zm.002-5.767v.951H16V3.276h-1.889v.938Z"></path>
</svg>