<svg xmlns="http://www.w3.org/2000/svg" width="20" height="20" fill="none" viewBox="0 0 20 20">
  <rect width="19" height="19" x=".5" y=".5" fill="#FFEBEE" stroke="#EE385C" stroke-dasharray="2 1" rx="9.5"></rect>
  <path fill="#EE385C" fill-rule="evenodd" d="M14.624 5.784a2.324 2.324 0 0 0-3.286 0L9.29 7.83a.41.41 0 0 0 0 .582.41.41 0 0 0 .583 0l2.047-2.047a1.501 1.501 0 0 1 2.56 1.06c0 .4-.156.776-.44 1.059l-2.046 2.047a.41.41 0 0 0 .292.702c.106 0 .21-.04.291-.12l2.048-2.047a2.322 2.322 0 0 0-.001-3.283Zm-5.965 1.79a.41.41 0 0 0 .412-.412l-.002-1.65a.41.41 0 1 0-.822 0v1.651a.412.412 0 0 0 .412.41Zm4.928 5.42a.406.406 0 0 0-.29-.118.411.411 0 0 0-.292.702l1.167 1.166a.41.41 0 0 0 .583 0 .41.41 0 0 0 0-.582l-1.168-1.168Zm1.304-1.662H13.24a.404.404 0 0 0-.29.122.41.41 0 0 0 .29.702l1.651-.001a.41.41 0 1 0 .001-.823Zm-3.143 1.503a.41.41 0 0 0-.411.411v1.651a.41.41 0 1 0 .823 0v-1.652a.412.412 0 0 0-.412-.41Zm-1.218-.839-2.046 2.048a1.495 1.495 0 0 1-2.12 0 1.494 1.494 0 0 1 0-2.12L8.41 9.877a.41.41 0 0 0 0-.582.41.41 0 0 0-.582 0L5.78 11.34a2.308 2.308 0 0 0-.681 1.643 2.32 2.32 0 0 0 2.323 2.322 2.31 2.31 0 0 0 1.642-.68l2.048-2.046a.41.41 0 0 0 0-.583.413.413 0 0 0-.583 0ZM6.82 7.414c.082.08.185.12.29.118a.411.411 0 0 0 .293-.701L6.235 5.665a.41.41 0 0 0-.582 0 .41.41 0 0 0 0 .582L6.82 7.414ZM5.516 9.077h1.652a.404.404 0 0 0 .29-.122.41.41 0 0 0-.29-.701H5.517a.41.41 0 0 0-.411.412.407.407 0 0 0 .41.411Z" clip-rule="evenodd"></path>
</svg>