<svg xmlns="http://www.w3.org/2000/svg" width="64" height="64" fill="none" viewBox="0 0 64 64">
  <g clip-path="url(#a)">
    <path fill="#00A870" d="M32 64c17.673 0 32-14.327 32-32C64 14.327 49.673 0 32 0 14.327 0 0 14.327 0 32c0 17.673 14.327 32 32 32Z"></path>
    <path fill="#fff" fill-rule="evenodd" d="M22.219 38.946a1.6 1.6 0 0 1-1.073 1.992c-1.364.41-2.352.865-2.963 1.299-.42.298-.54.492-.574.563.033.07.154.265.574.563.61.434 1.599.89 2.963 1.299C23.855 45.474 27.693 46 32 46c4.307 0 8.145-.526 10.854-1.338 1.364-.41 2.352-.865 2.963-1.299.42-.298.54-.492.574-.563-.033-.07-.154-.265-.574-.563-.61-.434-1.599-.89-2.963-1.299a1.6 1.6 0 1 1 .92-3.065c1.53.46 2.886 1.038 3.894 1.754.967.685 1.932 1.734 1.932 3.173 0 1.438-.965 2.488-1.932 3.173-1.008.716-2.364 1.294-3.895 1.754C40.691 48.65 36.53 49.2 32 49.2c-4.53 0-8.691-.549-11.773-1.473-1.531-.46-2.887-1.038-3.895-1.754-.967-.685-1.932-1.735-1.932-3.173s.965-2.488 1.932-3.173c1.008-.716 2.364-1.294 3.895-1.754a1.6 1.6 0 0 1 1.992 1.073Z" clip-rule="evenodd"></path>
    <path fill="#fff" d="M32 41.2s10.4-6.797 10.4-14.655C42.4 20.942 37.744 16.4 32 16.4c-5.744 0-10.4 4.542-10.4 10.145C21.6 34.403 32 41.2 32 41.2Z"></path>
    <path fill="#fff" fill-rule="evenodd" d="M20 26.545C20 20.021 25.41 14.8 32 14.8s12 5.221 12 11.745c0 4.588-2.993 8.647-5.651 11.388A36.73 36.73 0 0 1 33.37 42.2a21.702 21.702 0 0 1-.455.313l-.027.019-.009.005-.003.002c-.001.001-.002.001-.877-1.338-.875 1.34-.876 1.34-.876 1.339h-.001l-.003-.003-.009-.005-.027-.019a14.663 14.663 0 0 1-.455-.313 36.73 36.73 0 0 1-4.978-4.266C22.993 35.192 20 31.133 20 26.545ZM32 41.2l-.875 1.34a1.6 1.6 0 0 0 1.75 0L32 41.2Zm0-1.96a33.524 33.524 0 0 0 4.051-3.535c2.542-2.62 4.749-5.89 4.749-9.16C40.8 21.863 36.898 18 32 18c-4.898 0-8.8 3.863-8.8 8.545 0 3.27 2.207 6.54 4.749 9.16A33.524 33.524 0 0 0 32 39.242Z" clip-rule="evenodd"></path>
    <path fill="#00A870" d="M32 32a5 5 0 1 0 0-10 5 5 0 0 0 0 10Z"></path>
  </g>
  <defs>
    <clipPath id="a">
      <path fill="#fff" d="M0 0h64v64H0z"></path>
    </clipPath>
  </defs>
</svg>