<svg xmlns="http://www.w3.org/2000/svg" width="64" height="64" fill="none" viewBox="0 0 64 64">
  <path fill="#00A870" d="M32 46.945s19-7.504 19-24.19C51 12.12 42.493 3.5 32 3.5s-19 8.62-19 19.254c0 16.687 19 24.191 19 24.191Z"></path>
  <path fill="#00A870" fill-rule="evenodd" d="M10.467 22.754c0-12 9.609-21.787 21.533-21.787 11.924 0 21.533 9.786 21.533 21.787 0 9.4-5.368 16.093-10.41 20.299a42.714 42.714 0 0 1-9.252 5.84 26.6 26.6 0 0 1-.857.375l-.056.022-.017.007-.006.003h-.002c-.001.001-.002.002-.933-2.355-.93 2.356-.931 2.356-.933 2.356l-.002-.001-.006-.003-.018-.007-.055-.022-.189-.079c-.16-.068-.385-.166-.668-.295a42.714 42.714 0 0 1-9.252-5.841c-5.042-4.206-10.41-10.899-10.41-20.299ZM32 46.945l-.93 2.356a2.533 2.533 0 0 0 1.86 0L32 46.945Zm0-2.769a37.642 37.642 0 0 0 7.877-5.015c4.458-3.717 8.59-9.12 8.59-16.407 0-9.266-7.404-16.72-16.467-16.72-9.063 0-16.467 7.454-16.467 16.72 0 7.287 4.132 12.69 8.59 16.408A37.642 37.642 0 0 0 32 44.176Z" clip-rule="evenodd"></path>
  <path fill="#fff" fill-opacity=".42" d="M32 38.519c8.212 0 14.87-6.716 14.87-15 0-8.284-6.658-15-14.87-15s-14.87 6.716-14.87 15c0 8.284 6.658 15 14.87 15Z"></path>
  <path fill="#fff" d="M32 35.519c6.627 0 12-5.373 12-12s-5.373-12-12-12-12 5.373-12 12 5.373 12 12 12Z"></path>
  <path fill="#00A870" d="M32 60.5c2.058 0 3.725-1.683 3.725-3.758 0-2.076-1.667-3.758-3.725-3.758s-3.726 1.682-3.726 3.758c0 2.075 1.668 3.758 3.726 3.758Z"></path>
</svg>