<svg xmlns="http://www.w3.org/2000/svg" width="20" height="20" fill="none" viewBox="0 0 20 20">
  <rect width="20" height="20" fill="#0069CB" fill-opacity=".1" rx="10"></rect>
  <path fill="#0069CB" d="M15.478 10.322c0 2.024-1.534 3.715-3.486 3.716H6.169l1.011 1.09.34.366-.732.68-.34-.367-1.792-1.93-.317-.34.317-.339 1.792-1.93.34-.367.732.68-.34.367-1.011 1.09h5.823c1.334 0 2.486-1.176 2.486-2.716v-.5h1v.5Zm-1.926-6.13 1.792 1.93.317.34-.317.34-1.792 1.93-.34.366-.733-.68.34-.366 1.013-1.09H8.008c-1.333 0-2.486 1.176-2.486 2.715v.5h-1v-.5c0-2.023 1.534-3.715 3.486-3.715h5.824l-1.012-1.09-.34-.366.732-.681.34.367Z"></path>
</svg>