<svg width="88" height="60" viewBox="0 0 88 60" fill="none" xmlns="http://www.w3.org/2000/svg">
<path d="M61.1087 50.1739L46.5 10V50.1739H61.1087Z" fill="url(#paint0_linear_28254_113060)"></path>
<path d="M59.8913 50.1739L74.5 10V50.1739H59.8913Z" fill="url(#paint1_linear_28254_113060)"></path>
<path d="M46.5 10H74.5L60.5 50.1739L46.5 10Z" fill="url(#paint2_linear_28254_113060)"></path>
<path d="M60.6213 22.4707C61.7258 22.4707 62.6217 21.5267 62.6217 20.4703C62.6217 19.4138 61.7258 18.4698 60.6213 18.4698C60.0681 18.4698 59.5675 18.7065 59.2048 19.0756L59.6999 19.6242C59.9284 19.3758 60.2567 19.2198 60.6213 19.2198C61.3123 19.2198 61.8718 19.7793 61.8718 20.4703C61.8718 21.1613 61.3113 21.7208 60.6213 21.7208C60.0182 21.7208 59.5149 21.2937 59.397 20.7251L58.6816 20.9436C58.7069 21.0407 58.7387 21.135 58.7777 21.2266L59.3435 21.0534L58.8339 21.3472C58.8847 21.4469 58.9427 21.5421 59.0089 21.6328L59.3762 21.4206L59.067 21.709C59.4342 22.166 59.9937 22.4707 60.6213 22.4707Z" fill="#C1C1C7"></path>
<path d="M59.3707 20.4676V20.4703C59.3707 20.5573 59.3798 20.6417 59.3961 20.7233L58.6453 20.7759C58.6317 20.6915 58.6244 20.6063 58.6217 20.5202L59.3707 20.4676Z" fill="#C1C1C7"></path>
<path d="M58.6589 20.093L59.3979 20.21C59.3825 20.2808 59.3744 20.3542 59.3716 20.4286L58.6281 20.3107C58.6344 20.2372 58.6444 20.1647 58.6589 20.093Z" fill="#C1C1C7"></path>
<path d="M58.7895 19.6868L59.4777 19.9643C59.4533 20.0205 59.4324 20.0776 59.4161 20.1375L58.7233 19.8573C58.7423 19.7992 58.765 19.743 58.7895 19.6868Z" fill="#C1C1C7"></path>
<path d="M59.6065 19.7403L59.6061 19.74C59.5772 19.7797 59.5511 19.8212 59.5276 19.8636L58.92 19.4383C58.9454 19.3975 58.9726 19.3567 59.0017 19.3168L59.6061 19.74C59.6062 19.7398 59.6064 19.7396 59.6065 19.7394V19.7403Z" fill="#C1C1C7"></path>
<rect x="18.9199" y="6.03999" width="16.08" height="43.44" fill="url(#paint3_linear_28254_113060)"></rect>
<path d="M24 49.5L24.0922 51L27.9067 50.9987L28 49.5L24 49.5Z" fill="url(#paint4_linear_28254_113060)"></path>
<path d="M21.2 4.00003L17 5.44003V49.84L21.2 51.52V4.00003Z" fill="url(#paint5_linear_28254_113060)"></path>
<path d="M30.8 4.00002L35 5.44002V49.84L30.8 51.52V4.00002Z" fill="url(#paint6_linear_28254_113060)"></path>
<path fill-rule="evenodd" clip-rule="evenodd" d="M27.044 15.4829C27.044 15.4995 27.0585 15.5141 27.0751 15.5141H27.1728V14.6664L27.044 14.7309V15.4829ZM27.8293 14.9137C27.7254 14.9137 27.6174 14.9677 27.5634 15.0466V15.4829C27.5634 15.4995 27.5779 15.5141 27.5945 15.5141H27.6921V15.0986C27.7233 15.0591 27.7732 15.0342 27.8293 15.0342C27.9186 15.0342 27.983 15.1048 27.983 15.1983V15.5141H28.1097V15.1941C28.1097 15.0342 27.9892 14.9137 27.8293 14.9137ZM25.7226 15.3188V15.0446H25.8889V14.9303H25.7226V14.7537L25.5938 14.8181V15.3458C25.5938 15.4539 25.6582 15.5141 25.7725 15.5141H25.9387V15.404H25.8058C25.7434 15.404 25.7226 15.3811 25.7226 15.3188ZM26.3002 14.9199C26.1901 14.9199 26.0737 14.9781 26.0156 15.0633V15.7032C26.0156 15.7198 26.0301 15.7343 26.0467 15.7343H26.1444V15.1152C26.1756 15.0695 26.2337 15.0404 26.2981 15.0404C26.3979 15.0404 26.4706 15.1152 26.4706 15.2212C26.4706 15.325 26.3979 15.404 26.2981 15.404H26.2067V15.5141H26.3002C26.4726 15.5141 26.5994 15.3915 26.5994 15.2212C26.5994 15.0487 26.4706 14.9199 26.3002 14.9199ZM27.4325 15.5141V14.9303H27.3036V15.4829C27.3036 15.4995 27.3182 15.5141 27.3348 15.5141H27.4325ZM28.76 15.5141L28.4879 15.2066L28.7309 14.9303H28.5793L28.3611 15.1879V14.6664L28.2323 14.7309V15.4809C28.2323 15.4995 28.2468 15.5141 28.2635 15.5141H28.3611V15.2232L28.6021 15.5141H28.76ZM26.7552 15.2856H26.9297V15.1568H26.6928L26.7552 15.2856ZM27.3681 14.654C27.3203 14.654 27.2808 14.6914 27.2808 14.7392C27.2808 14.762 27.2891 14.7807 27.3036 14.7952H27.4325C27.447 14.7807 27.4553 14.762 27.4553 14.7392C27.4553 14.6914 27.4158 14.654 27.3681 14.654ZM24.2268 15.0508V16.0377H23.8716C23.8092 16.0377 23.7635 15.9836 23.7635 15.9296V15.5141H23.3481C23.2857 15.5141 23.24 15.4601 23.24 15.4061V15.0508H24.2268ZM24.5571 13.96C24.9955 13.96 25.3175 14.2821 25.3175 14.7267C25.3175 15.1547 24.9727 15.5016 24.5468 15.5016H24.3826V15.0653H24.5468C24.7379 15.0653 24.8813 14.922 24.8813 14.7267C24.8813 14.5293 24.7483 14.3963 24.5571 14.3963C24.3639 14.3963 24.2123 14.5459 24.2123 14.7309V14.895H23.776V14.7309C23.776 14.3049 24.1229 13.96 24.5571 13.96Z" fill="#D4D4D4"></path>
<g filter="url(#filter0_i_28254_113060)">
<circle cx="43.5" cy="36.087" r="17.5" fill="#F3F3F3"></circle>
</g>
<g filter="url(#filter1_i_28254_113060)">
<circle cx="43.4994" cy="36.0892" r="7" fill="#F3F3F3"></circle>
</g>
<path d="M43.4989 38.4242C44.7875 38.4242 45.8328 37.3229 45.8328 36.0904C45.8328 34.8578 44.7875 33.7565 43.4989 33.7565C42.8536 33.7565 42.2696 34.0326 41.8464 34.4632L42.4241 35.1033C42.6907 34.8134 43.0736 34.6314 43.4989 34.6314C44.3051 34.6314 44.9579 35.2842 44.9579 36.0904C44.9579 36.8965 44.3041 37.5493 43.4989 37.5493C42.7954 37.5493 42.2082 37.051 42.0707 36.3876L41.236 36.6426C41.2656 36.7558 41.3026 36.8658 41.3481 36.9727L42.0083 36.7706L41.4137 37.1134C41.4729 37.2298 41.5407 37.3409 41.6179 37.4467L42.0464 37.1991L41.6856 37.5355C42.1141 38.0687 42.7668 38.4242 43.4989 38.4242Z" fill="#C1C1C7"></path>
<path d="M42.04 36.0872V36.0904C42.04 36.1919 42.0506 36.2903 42.0696 36.3855L41.1936 36.4469C41.1778 36.3485 41.1693 36.2491 41.1661 36.1485L42.04 36.0872Z" fill="#C1C1C7"></path>
<path d="M41.2095 35.6503L42.0718 35.7867C42.0538 35.8692 42.0442 35.9549 42.0411 36.0417L41.1735 35.9042C41.1809 35.8185 41.1926 35.7338 41.2095 35.6503Z" fill="#C1C1C7"></path>
<path d="M41.3619 35.1763L42.1649 35.5C42.1363 35.5656 42.112 35.6323 42.0929 35.7021L41.2846 35.3752C41.3068 35.3075 41.3333 35.2419 41.3619 35.1763Z" fill="#C1C1C7"></path>
<path d="M42.3151 35.2387L42.3146 35.2383C42.2809 35.2847 42.2504 35.3331 42.223 35.3826L41.5142 34.8864C41.5438 34.8388 41.5756 34.7912 41.6094 34.7446L42.3146 35.2383C42.3147 35.2381 42.3149 35.2379 42.3151 35.2376V35.2387Z" fill="#C1C1C7"></path>
<defs>
<filter id="filter0_i_28254_113060" x="26" y="18.0036" width="35" height="35.5833" filterUnits="userSpaceOnUse" color-interpolation-filters="sRGB">
<feFlood flood-opacity="0" result="BackgroundImageFix"></feFlood>
<feBlend mode="normal" in="SourceGraphic" in2="BackgroundImageFix" result="shape"></feBlend>
<feColorMatrix in="SourceAlpha" type="matrix" values="0 0 0 0 0 0 0 0 0 0 0 0 0 0 0 0 0 0 127 0" result="hardAlpha"></feColorMatrix>
<feOffset dy="-0.583333"></feOffset>
<feGaussianBlur stdDeviation="0.583333"></feGaussianBlur>
<feComposite in2="hardAlpha" operator="arithmetic" k2="-1" k3="1"></feComposite>
<feColorMatrix type="matrix" values="0 0 0 0 0 0 0 0 0 0 0 0 0 0 0 0 0 0 0.25 0"></feColorMatrix>
<feBlend mode="normal" in2="shape" result="effect1_innerShadow_28254_113060"></feBlend>
</filter>
<filter id="filter1_i_28254_113060" x="36.4994" y="29.0892" width="14" height="14.35" filterUnits="userSpaceOnUse" color-interpolation-filters="sRGB">
<feFlood flood-opacity="0" result="BackgroundImageFix"></feFlood>
<feBlend mode="normal" in="SourceGraphic" in2="BackgroundImageFix" result="shape"></feBlend>
<feColorMatrix in="SourceAlpha" type="matrix" values="0 0 0 0 0 0 0 0 0 0 0 0 0 0 0 0 0 0 127 0" result="hardAlpha"></feColorMatrix>
<feOffset dy="0.35"></feOffset>
<feGaussianBlur stdDeviation="0.583333"></feGaussianBlur>
<feComposite in2="hardAlpha" operator="arithmetic" k2="-1" k3="1"></feComposite>
<feColorMatrix type="matrix" values="0 0 0 0 0 0 0 0 0 0 0 0 0 0 0 0 0 0 0.25 0"></feColorMatrix>
<feBlend mode="normal" in2="shape" result="effect1_innerShadow_28254_113060"></feBlend>
</filter>
<linearGradient id="paint0_linear_28254_113060" x1="53.8043" y1="10" x2="53.8043" y2="50.1739" gradientUnits="userSpaceOnUse">
<stop stop-color="#F0F0F0"></stop>
<stop offset="1" stop-color="#DCDCDC"></stop>
</linearGradient>
<linearGradient id="paint1_linear_28254_113060" x1="67.1957" y1="10" x2="67.1957" y2="50.1739" gradientUnits="userSpaceOnUse">
<stop stop-color="#ECECEC"></stop>
<stop offset="1" stop-color="#DCDCDC"></stop>
</linearGradient>
<linearGradient id="paint2_linear_28254_113060" x1="60.5" y1="10" x2="60.5" y2="50.1739" gradientUnits="userSpaceOnUse">
<stop stop-color="#F9F9F9"></stop>
<stop offset="1" stop-color="#E8E8E8"></stop>
</linearGradient>
<linearGradient id="paint3_linear_28254_113060" x1="26.9599" y1="6.03999" x2="26.9599" y2="49.48" gradientUnits="userSpaceOnUse">
<stop stop-color="#F9F9F9"></stop>
<stop offset="1" stop-color="#F1F1F1"></stop>
</linearGradient>
<linearGradient id="paint4_linear_28254_113060" x1="25.954" y1="51" x2="25.954" y2="49.25" gradientUnits="userSpaceOnUse">
<stop stop-color="#FCFCFC"></stop>
<stop offset="1" stop-color="#E9E9E9"></stop>
</linearGradient>
<linearGradient id="paint5_linear_28254_113060" x1="19.1" y1="4.00003" x2="19.1" y2="51.52" gradientUnits="userSpaceOnUse">
<stop stop-color="#F5F5F5"></stop>
<stop offset="1" stop-color="#DFDFDF"></stop>
</linearGradient>
<linearGradient id="paint6_linear_28254_113060" x1="32.9" y1="4.00002" x2="32.9" y2="51.52" gradientUnits="userSpaceOnUse">
<stop stop-color="#F5F5F5"></stop>
<stop offset="1" stop-color="#DFDFDF"></stop>
</linearGradient>
</defs>
</svg>