<svg width="88" height="60" viewBox="0 0 88 60" fill="none" xmlns="http://www.w3.org/2000/svg">
<g clip-path="url(#clip0_28254_113079)">
<g filter="url(#filter0_i_28254_113079)">
<path fill-rule="evenodd" clip-rule="evenodd" d="M33.3035 8.74823C32.7598 8.74823 32.2259 8.91033 31.7925 9.23854C26.9281 12.9221 23.7866 18.7536 23.7866 25.3173C23.7866 36.4575 32.836 45.4884 43.9989 45.4884C55.1618 45.4884 64.2112 36.4575 64.2112 25.3173C64.2112 18.7536 61.0697 12.922 56.2053 9.23854C55.7719 8.91033 55.238 8.74823 54.6943 8.74823H33.3035Z" fill="#EAEAEA"></path>
</g>
<path fill-rule="evenodd" clip-rule="evenodd" d="M30.9324 12.3581V23.0665C30.9324 30.283 36.7825 36.1332 43.999 36.1332C51.2155 36.1332 57.0656 30.283 57.0656 23.0665V12.3581C57.0656 11.3998 56.8198 10.4497 56.17 9.74544C55.9037 9.4568 55.5733 9.13153 55.1726 8.79101C55.0156 8.76246 54.8554 8.74823 54.6944 8.74823H33.3036C33.1425 8.74823 32.9823 8.76245 32.8253 8.79101C32.4247 9.13153 32.0943 9.4568 31.8279 9.74544C31.1781 10.4497 30.9324 11.3998 30.9324 12.3581Z" fill="#E0E0E0"></path>
<path d="M32.449 22.4122V10.9094C32.449 10.9094 35.3364 5.86667 43.9988 5.86667C52.6612 5.86667 55.5487 10.9094 55.5487 10.9094V22.4122C55.5487 28.791 50.3777 33.9621 43.9988 33.9621C37.62 33.9621 32.449 28.791 32.449 22.4122Z" fill="url(#paint0_linear_28254_113079)"></path>
<ellipse cx="44.1333" cy="21.2569" rx="10.6968" ry="10.6749" fill="url(#paint1_linear_28254_113079)"></ellipse>
<ellipse cx="44.1334" cy="21.2569" rx="9.58114" ry="9.5616" fill="url(#paint2_linear_28254_113079)"></ellipse>
<ellipse cx="0.656243" cy="0.654904" rx="0.656243" ry="0.654904" transform="matrix(1 0 0 -1 43.5396 15.9521)" fill="#959595"></ellipse>
<ellipse cx="38.9459" cy="20.9949" rx="3.14996" ry="3.14354" fill="url(#paint3_linear_28254_113079)"></ellipse>
<ellipse cx="38.9458" cy="20.9949" rx="2.23123" ry="2.22667" fill="url(#paint4_radial_28254_113079)"></ellipse>
<ellipse cx="0.656243" cy="0.654904" rx="0.656243" ry="0.654904" transform="matrix(1 0 0 -1 37.6362 21.0604)" fill="white"></ellipse>
<ellipse cx="49.1832" cy="20.9949" rx="3.14996" ry="3.14354" fill="url(#paint5_linear_28254_113079)"></ellipse>
<ellipse cx="49.1831" cy="20.9949" rx="2.23123" ry="2.22667" fill="url(#paint6_radial_28254_113079)"></ellipse>
<ellipse cx="0.656243" cy="0.654904" rx="0.656243" ry="0.654904" transform="matrix(1 0 0 -1 47.8735 21.0604)" fill="white"></ellipse>
<path d="M30.0892 47.2869C30.216 45.6419 30.81 44.0673 31.8012 42.7484L32.449 41.8864H55.5487L56.1965 42.7484C57.1877 44.0673 57.7817 45.6419 57.9085 47.2869L58.3763 53.3558C58.4086 53.7751 58.0771 54.1331 57.6565 54.1331H30.3412C29.9206 54.1331 29.5891 53.7751 29.6214 53.3558L30.0892 47.2869Z" fill="url(#paint7_linear_28254_113079)"></path>
<path fill-rule="evenodd" clip-rule="evenodd" d="M24.3506 27.6071L27.9327 27.9654C29.4503 28.1172 30.8809 28.7458 32.0192 29.761L35.3502 32.7319C40.2783 37.1273 47.7195 37.1273 52.6477 32.7319L55.9787 29.761C57.117 28.7458 58.5475 28.1172 60.0652 27.9654L63.6472 27.6071C64.3096 27.5409 64.8649 28.1014 64.7925 28.7631C64.1403 34.7237 60.3809 39.8663 54.9789 41.8864H33.019C27.6169 39.8663 23.8575 34.7237 23.2053 28.7631C23.1329 28.1014 23.6882 27.5409 24.3506 27.6071Z" fill="#BAD2D3"></path>
<path fill-rule="evenodd" clip-rule="evenodd" d="M24.3506 28.4072L27.9327 28.7654C29.4503 28.9172 30.8809 29.5458 32.0192 30.561L35.3502 33.5319C40.2783 37.9273 47.7195 37.9273 52.6477 33.5319L55.9787 30.561C57.117 29.5458 58.5475 28.9172 60.0652 28.7654L63.6472 28.4072C64.3096 28.3409 64.8649 28.9014 64.7925 29.5631C64.1403 35.5237 60.3809 40.6664 54.9789 42.6865H33.019C27.6169 40.6664 23.8575 35.5237 23.2053 29.5631C23.1329 28.9014 23.6882 28.3409 24.3506 28.4072Z" fill="url(#paint8_linear_28254_113079)"></path>
</g>
<defs>
<filter id="filter0_i_28254_113079" x="23.7866" y="8.74823" width="40.4246" height="38.0526" filterUnits="userSpaceOnUse" color-interpolation-filters="sRGB">
<feFlood flood-opacity="0" result="BackgroundImageFix"></feFlood>
<feBlend mode="normal" in="SourceGraphic" in2="BackgroundImageFix" result="shape"></feBlend>
<feColorMatrix in="SourceAlpha" type="matrix" values="0 0 0 0 0 0 0 0 0 0 0 0 0 0 0 0 0 0 127 0" result="hardAlpha"></feColorMatrix>
<feOffset dy="1.31249"></feOffset>
<feGaussianBlur stdDeviation="0.918739"></feGaussianBlur>
<feComposite in2="hardAlpha" operator="arithmetic" k2="-1" k3="1"></feComposite>
<feColorMatrix type="matrix" values="0 0 0 0 0.821208 0 0 0 0 0.821208 0 0 0 0 0.821208 0 0 0 1 0"></feColorMatrix>
<feBlend mode="normal" in2="shape" result="effect1_innerShadow_28254_113079"></feBlend>
</filter>
<linearGradient id="paint0_linear_28254_113079" x1="43.9988" y1="5.86667" x2="43.9988" y2="33.9621" gradientUnits="userSpaceOnUse">
<stop stop-color="#2E2E2E"></stop>
<stop offset="0.450577" stop-color="#424242"></stop>
<stop offset="1" stop-color="#505050"></stop>
</linearGradient>
<linearGradient id="paint1_linear_28254_113079" x1="44.1333" y1="10.582" x2="44.1333" y2="31.9319" gradientUnits="userSpaceOnUse">
<stop stop-color="#696969"></stop>
<stop offset="0.450577" stop-color="#575757"></stop>
<stop offset="1" stop-color="#282828"></stop>
</linearGradient>
<linearGradient id="paint2_linear_28254_113079" x1="44.1334" y1="11.6953" x2="44.1334" y2="30.8185" gradientUnits="userSpaceOnUse">
<stop stop-color="#4B4B4B"></stop>
<stop offset="0.450577" stop-color="#4A4A4A"></stop>
<stop offset="1" stop-color="#292929"></stop>
</linearGradient>
<linearGradient id="paint3_linear_28254_113079" x1="38.9459" y1="17.8514" x2="38.9459" y2="24.1385" gradientUnits="userSpaceOnUse">
<stop stop-color="#2F2F2F"></stop>
<stop offset="0.450577" stop-color="#515151"></stop>
<stop offset="1" stop-color="#505050"></stop>
</linearGradient>
<radialGradient id="paint4_radial_28254_113079" cx="0" cy="0" r="1" gradientUnits="userSpaceOnUse" gradientTransform="translate(38.9458 18.5331) rotate(90) scale(4.93105 4.94113)">
<stop></stop>
<stop offset="1" stop-color="#404040"></stop>
</radialGradient>
<linearGradient id="paint5_linear_28254_113079" x1="49.1832" y1="17.8514" x2="49.1832" y2="24.1385" gradientUnits="userSpaceOnUse">
<stop stop-color="#2F2F2F"></stop>
<stop offset="0.450577" stop-color="#515151"></stop>
<stop offset="1" stop-color="#505050"></stop>
</linearGradient>
<radialGradient id="paint6_radial_28254_113079" cx="0" cy="0" r="1" gradientUnits="userSpaceOnUse" gradientTransform="translate(49.1831 18.5331) rotate(90) scale(4.93105 4.94113)">
<stop></stop>
<stop offset="1" stop-color="#404040"></stop>
</radialGradient>
<linearGradient id="paint7_linear_28254_113079" x1="43.9989" y1="41.8864" x2="43.9989" y2="54.1331" gradientUnits="userSpaceOnUse">
<stop stop-color="#B6B6B6"></stop>
<stop offset="0.327765" stop-color="#EBEBEB"></stop>
<stop offset="1" stop-color="#E8E8E8"></stop>
</linearGradient>
<linearGradient id="paint8_linear_28254_113079" x1="43.9989" y1="28.4018" x2="43.9989" y2="42.6865" gradientUnits="userSpaceOnUse">
<stop stop-color="#EBEBEB"></stop>
<stop offset="0.52" stop-color="#EEEEEE"></stop>
<stop offset="1" stop-color="#D2D2D2"></stop>
</linearGradient>
<clipPath id="clip0_28254_113079">
<rect width="88" height="60" fill="white"></rect>
</clipPath>
</defs>
</svg>