<svg width="88" height="72" viewBox="0 0 88 72" fill="none" xmlns="http://www.w3.org/2000/svg" xmlns:xlink="http://www.w3.org/1999/xlink">
<rect x="18.7999" y="16.2" width="50.4" height="30.5999" rx="1" fill="url(#paint0_linear_28254_113001)"></rect>
<mask id="mask0_28254_113001" style="mask-type:alpha" maskUnits="userSpaceOnUse" x="19" y="17" width="50" height="29">
<path d="M19.7007 18.0002C19.7007 17.5032 20.1036 17.1003 20.6007 17.1003L67.4007 17.1003C67.8978 17.1003 68.3007 17.5032 68.3007 18.0002V45.0002C68.3007 45.4972 67.8978 45.9002 67.4007 45.9002H20.6007C20.1036 45.9002 19.7007 45.4972 19.7007 45.0002V18.0002Z" fill="#323232"></path>
</mask>
<g mask="url(#mask0_28254_113001)">
<path d="M18.7999 17.1C18.7999 16.6029 19.2029 16.2 19.6999 16.2L68.2998 16.2C68.7969 16.2 69.1998 16.6029 69.1998 17.1V45.8999C69.1998 46.3969 68.7969 46.7999 68.2998 46.7999H19.6999C19.2029 46.7999 18.7999 46.3969 18.7999 45.8999V17.1Z" fill="url(#pattern0_28254_113001)"></path>
</g>
<rect x="40.3999" y="46.7999" width="7.19998" height="8.99998" fill="url(#paint1_linear_28254_113001)"></rect>
<rect width="14.4" height="1.8" transform="matrix(1 0 0 -1 36.7999 55.7999)" fill="#848484"></rect>
<defs>
<pattern id="pattern0_28254_113001" patternContentUnits="objectBoundingBox" width="1" height="1">
<use xlink:href="#image0_28254_113001" transform="matrix(0.00125 0 0 0.00205882 0 -0.0147059)"></use>
</pattern>
<linearGradient id="paint0_linear_28254_113001" x1="43.9999" y1="16.2" x2="43.9999" y2="46.7999" gradientUnits="userSpaceOnUse">
<stop stop-color="#BABABA"></stop>
<stop offset="1" stop-color="#8F8F8F"></stop>
</linearGradient>
<linearGradient id="paint1_linear_28254_113001" x1="43.9999" y1="46.7999" x2="43.9999" y2="54.2998" gradientUnits="userSpaceOnUse">
<stop stop-color="#5B5B5B"></stop>
<stop offset="1" stop-color="#656565"></stop>
</linearGradient>
<image id="image0_28254_113001" width="800" height="500" preserveAspectRatio="none"></image>
</defs>
</svg>