<svg width="88" height="64" viewBox="0 0 88 64" fill="none" xmlns="http://www.w3.org/2000/svg">
<rect x="21.6" y="14.4" width="44.8" height="27.1999" rx="0.799999" fill="url(#paint0_linear_28254_113005)"></rect>
<mask id="mask0_28254_113005" style="mask-type:alpha" maskUnits="userSpaceOnUse" x="22" y="15" width="44" height="26">
<path d="M22.4006 16.0002C22.4006 15.5584 22.7588 15.2002 23.2006 15.2002L64.8007 15.2002C65.2425 15.2002 65.6006 15.5584 65.6006 16.0002V40.0002C65.6006 40.442 65.2425 40.8002 64.8006 40.8002H23.2006C22.7588 40.8002 22.4006 40.442 22.4006 40.0002V16.0002Z" fill="#323232"></path>
</mask>
<g mask="url(#mask0_28254_113005)">
<path d="M22.4006 16.0002C22.4006 15.5584 22.7588 15.2002 23.2006 15.2002L64.8007 15.2002C65.2425 15.2002 65.6006 15.5584 65.6006 16.0002V40.0002C65.6006 40.442 65.2425 40.8002 64.8006 40.8002H23.2006C22.7588 40.8002 22.4006 40.442 22.4006 40.0002V16.0002Z" fill="url(#paint1_linear_28254_113005)"></path>
<path d="M43.0097 29.1284H38.9169C38.633 29.1284 38.3999 29.3615 38.3999 29.6454V33.74C38.3999 34.0239 38.633 34.257 38.9169 34.257H43.0115C43.2954 34.257 43.5285 34.0239 43.5285 33.74V29.6454C43.5267 29.3615 43.2954 29.1284 43.0097 29.1284ZM43.0097 22.4525H38.9169C38.633 22.4525 38.3999 22.6856 38.3999 22.9695V27.0642C38.3999 27.348 38.633 27.5812 38.9169 27.5812H43.0115C43.2954 27.5812 43.5285 27.348 43.5285 27.0642V22.9676C43.5267 22.6838 43.2954 22.4525 43.0097 22.4525ZM47.4145 21.755L44.5212 24.6465C44.3144 24.8533 44.3144 25.1766 44.5212 25.3834L47.4145 28.2768C47.6213 28.4836 47.9447 28.4836 48.1515 28.2768L51.0448 25.3834C51.2516 25.1766 51.2516 24.8533 51.0448 24.6465L48.1383 21.755C47.9447 21.5482 47.6081 21.5482 47.4145 21.755ZM49.8171 29.1284H45.7225C45.4386 29.1284 45.2055 29.3615 45.2055 29.6454V33.74C45.2055 34.0239 45.4386 34.257 45.7225 34.257H49.8171C50.101 34.257 50.3341 34.0239 50.3341 33.74V29.6454C50.3341 29.3615 50.101 29.1284 49.8171 29.1284Z" fill="white" fill-opacity="0.7"></path>
</g>
<rect x="40.7999" y="41.5999" width="6.39998" height="7.99998" fill="url(#paint2_linear_28254_113005)"></rect>
<rect width="12.8" height="1.6" transform="matrix(1 0 0 -1 37.6 49.5999)" fill="#848484"></rect>
<defs>
<linearGradient id="paint0_linear_28254_113005" x1="44" y1="14.4" x2="44" y2="41.5999" gradientUnits="userSpaceOnUse">
<stop stop-color="#BABABA"></stop>
<stop offset="1" stop-color="#8F8F8F"></stop>
</linearGradient>
<linearGradient id="paint1_linear_28254_113005" x1="44.0006" y1="15.2002" x2="44.0006" y2="40.8002" gradientUnits="userSpaceOnUse">
<stop stop-color="#323232"></stop>
<stop offset="1" stop-color="#242424"></stop>
</linearGradient>
<linearGradient id="paint2_linear_28254_113005" x1="43.9999" y1="41.5999" x2="43.9999" y2="48.2666" gradientUnits="userSpaceOnUse">
<stop stop-color="#5B5B5B"></stop>
<stop offset="1" stop-color="#656565"></stop>
</linearGradient>
</defs>
</svg>