<svg width="88" height="72" viewBox="0 0 88 72" fill="none" xmlns="http://www.w3.org/2000/svg">
<path fill-rule="evenodd" clip-rule="evenodd" d="M24.5603 12.6H27.3203V40.1999H24.5603V12.6Z" fill="#727272"></path>
<path fill-rule="evenodd" clip-rule="evenodd" d="M24.6798 12.6H26.4798V40.1999H24.6798V12.6Z" fill="#383838"></path>
<path fill-rule="evenodd" clip-rule="evenodd" d="M43.0999 12.6H45.8598V40.1999H43.0999V12.6Z" fill="#727272"></path>
<path fill-rule="evenodd" clip-rule="evenodd" d="M43.2195 12.6H45.0195V40.1999H43.2195V12.6Z" fill="#383838"></path>
<path fill-rule="evenodd" clip-rule="evenodd" d="M61.1002 12.6H63.8602V40.1999H61.1002V12.6Z" fill="#727272"></path>
<path fill-rule="evenodd" clip-rule="evenodd" d="M62.0002 12.6H63.8002V40.1999H62.0002V12.6Z" fill="#383838"></path>
<rect x="15.2" y="49.0727" width="57.5999" height="6.06345" fill="url(#paint0_linear_28254_112993)"></rect>
<path d="M15.579 49.3118H72.421V54.8966H15.579V49.3118Z" fill="url(#paint1_linear_28254_112993)"></path>
<path d="M20.1263 39.5999L15.2 49.074H72.7998L67.8735 39.5999H20.1263Z" fill="url(#paint2_linear_28254_112993)"></path>
<mask id="mask0_28254_112993" style="mask-type:alpha" maskUnits="userSpaceOnUse" x="15" y="39" width="58" height="11">
<path d="M20.1263 39.5999L15.2 49.074H72.7998L67.8735 39.5999H20.1263Z" fill="url(#paint3_linear_28254_112993)"></path>
</mask>
<g mask="url(#mask0_28254_112993)">
<g filter="url(#filter0_f_28254_112993)">
<ellipse cx="11.0562" cy="3.9766" rx="11.0562" ry="3.9766" transform="matrix(0.869177 -0.494501 0.494463 0.869198 43.4022 47.1058)" fill="#D6D6D6"></ellipse>
</g>
</g>
<rect x="43.1" y="49.3197" width="1.8" height="1.8" fill="url(#paint4_linear_28254_112993)"></rect>
<rect x="47.5999" y="49.3197" width="1.8" height="1.8" fill="url(#paint5_linear_28254_112993)"></rect>
<rect x="38.6" y="49.3197" width="1.8" height="1.8" fill="url(#paint6_linear_28254_112993)"></rect>
<defs>
<filter id="filter0_f_28254_112993" x="35.6178" y="29.0761" width="38.7211" height="32.0376" filterUnits="userSpaceOnUse" color-interpolation-filters="sRGB">
<feFlood flood-opacity="0" result="BackgroundImageFix"></feFlood>
<feBlend mode="normal" in="SourceGraphic" in2="BackgroundImageFix" result="shape"></feBlend>
<feGaussianBlur stdDeviation="4.77485" result="effect1_foregroundBlur_28254_112993"></feGaussianBlur>
</filter>
<linearGradient id="paint0_linear_28254_112993" x1="44.7578" y1="49.0727" x2="44.7578" y2="55.1362" gradientUnits="userSpaceOnUse">
<stop stop-color="#5C5C5C"></stop>
<stop offset="1" stop-color="#747578"></stop>
</linearGradient>
<linearGradient id="paint1_linear_28254_112993" x1="44" y1="49.3118" x2="44" y2="54.8966" gradientUnits="userSpaceOnUse">
<stop stop-color="#383838"></stop>
<stop offset="1" stop-color="#494A4D"></stop>
</linearGradient>
<linearGradient id="paint2_linear_28254_112993" x1="15.2" y1="44.337" x2="72.7998" y2="44.337" gradientUnits="userSpaceOnUse">
<stop stop-color="#1D1E21"></stop>
<stop offset="1" stop-color="#8C8C90"></stop>
</linearGradient>
<linearGradient id="paint3_linear_28254_112993" x1="15.2" y1="44.337" x2="72.7998" y2="44.337" gradientUnits="userSpaceOnUse">
<stop stop-color="#1D1E21"></stop>
<stop offset="1" stop-color="#8C8C90"></stop>
</linearGradient>
<linearGradient id="paint4_linear_28254_112993" x1="44" y1="49.3197" x2="44" y2="51.1197" gradientUnits="userSpaceOnUse">
<stop stop-color="#282828"></stop>
<stop offset="1" stop-color="#6F6F6F"></stop>
</linearGradient>
<linearGradient id="paint5_linear_28254_112993" x1="48.4999" y1="49.3197" x2="48.4999" y2="51.1197" gradientUnits="userSpaceOnUse">
<stop stop-color="#282828"></stop>
<stop offset="1" stop-color="#6F6F6F"></stop>
</linearGradient>
<linearGradient id="paint6_linear_28254_112993" x1="39.5" y1="49.3197" x2="39.5" y2="51.1197" gradientUnits="userSpaceOnUse">
<stop stop-color="#282828"></stop>
<stop offset="1" stop-color="#6F6F6F"></stop>
</linearGradient>
</defs>
</svg>