<svg width="88" height="64" viewBox="0 0 88 64" fill="none" xmlns="http://www.w3.org/2000/svg">
<path d="M59.5227 38.0584C59.5227 45.8679 52.2234 52.1987 43.2192 52.1987C34.2151 52.1987 26.8307 48.6791 26.9158 38.0584C27.0009 27.4378 34.2151 23.9182 43.2192 23.9182C52.2234 23.9182 59.5227 30.249 59.5227 38.0584Z" fill="url(#paint0_linear_28254_112997)"></path>
<g filter="url(#filter0_f_28254_112997)">
<path d="M26.6232 37.2431C25.7625 34.6096 30.4033 26.7099 34.7896 25.8625C37.2761 24.815 41.3854 25.6159 41.9156 25.6574C41.9407 25.6584 41.9537 25.659 41.9537 25.659C41.9444 25.6592 41.9316 25.6587 41.9156 25.6574C41.3888 25.6368 35.5354 25.4621 32.5797 27.7355C30.74 28.9157 26.6232 34.1302 26.6232 37.2431Z" fill="url(#paint1_linear_28254_112997)"></path>
</g>
<g filter="url(#filter1_f_28254_112997)">
<path d="M57.5442 42.9994C62.3633 42.7171 48.4739 26.5435 44.413 25.7591C42.7895 25.4629 40.3772 25.4265 38.8338 25.434C37.914 25.3924 37.3674 25.4509 37.3674 25.4509C37.4756 25.4533 38.0397 25.4378 38.8338 25.434C40.8854 25.5267 44.7935 26.1173 48.6358 28.9651C50.9929 30.9837 53.7096 37.809 55.3352 41.3561C55.7483 42.2573 56.5545 43.0574 57.5442 42.9994Z" fill="url(#paint2_linear_28254_112997)"></path>
</g>
<path d="M34.9491 22.0184C28.4927 23.3708 27.5574 31.1091 27.394 34.8113C28.1624 31.8325 29.597 29.5018 32.2278 27.4579C38.5363 23.1061 47.5025 26.4299 50.9804 30.8403C46.1409 22.6594 39.7495 21.192 34.9491 22.0184Z" fill="url(#paint3_linear_28254_112997)"></path>
<path d="M21.7865 16.4739L26.8985 39.3075C26.9117 39.3666 26.9958 39.3632 27.002 39.303C27.4368 35.1247 27.0156 28.5247 30.4799 24.4051C33.2707 21.0862 39.1755 21.6125 39.1755 21.6125C40.6115 21.8463 48.5258 23.315 53.2318 35.3211C55.7349 42.6596 59.1517 43.493 60.5759 42.9885C60.5933 42.9824 60.6054 42.9677 60.6092 42.9497L66.2892 16.1623C66.357 15.8427 66.2433 15.509 65.96 15.346C61.5354 12.8004 44.528 12.8 44.0445 12.8H44.0442L35.1536 13.0778L31.0132 13.3963L25.6816 14.2479C25.4148 14.2905 25.1525 14.3582 24.8984 14.4499L22.4032 15.3507C21.9441 15.5164 21.6799 15.9977 21.7865 16.4739Z" fill="url(#paint4_linear_28254_112997)"></path>
<path d="M27.4052 34.7653C27.2773 35.3988 27.0506 36.7938 27.1676 37.3056C27.1676 37.6272 27.0008 38.8939 26.9398 39.1071L26.5413 36.6546C26.2608 32.4247 27.7853 24.3492 31.0188 21.8974C34.2522 19.4456 37.0074 19.7967 40.1185 20.646C43.2296 21.4953 50.4572 27.1023 53.2918 33.6023C55.1639 37.5427 54.7377 38.0993 57.062 41.2408C57.2467 41.4904 57.4644 41.7159 57.704 41.9133C58.1876 42.3117 58.9886 42.97 59.042 43.0029C59.0446 43.0037 59.0455 43.0041 59.0447 43.0042C59.0444 43.0043 59.0435 43.0038 59.042 43.0029C58.9753 42.9835 57.785 42.7354 56.4915 41.3314C55.8376 40.7791 54.5201 38.8447 53.5972 36.3213C51.2646 31.0315 49.8509 29.7559 48.5318 28.4695C47.2127 27.1832 38.1988 18.4485 31.4264 23.8414C29.796 25.3777 27.9549 28.2724 27.4052 34.7653Z" fill="url(#paint5_linear_28254_112997)"></path>
<path d="M52.6015 41.3855C52.6015 47.2187 49.9555 52.8689 40.349 52.8689C33.2513 52.3911 26.9154 46.0241 26.9154 39.9385C26.9154 33.8529 30.881 29.0907 38.9067 29.3312C45.3427 29.3312 52.6015 35.2999 52.6015 41.3855Z" fill="url(#paint6_linear_28254_112997)"></path>
<path d="M30.8724 35.2445H45.7318C48.6059 35.2445 50.9655 37.5179 51.0717 40.39V40.4027L51.0736 40.4154L51.1849 41.3822C51.2909 42.3043 51.2785 43.2367 51.1478 44.1556L51.0345 44.9476C50.7988 46.6056 49.3712 47.8325 47.6967 47.8158L32.9808 47.6693C31.5412 47.6548 30.2621 46.7463 29.7738 45.3919L29.4135 44.391C28.7797 42.633 28.4154 40.7891 28.3334 38.9222L28.2904 37.9417C28.226 36.4715 29.4007 35.2445 30.8724 35.2445Z" fill="white" fill-opacity="0.12" stroke="url(#paint7_linear_28254_112997)" stroke-width="0.646075"></path>
<g clip-path="url(#clip0_28254_112997)">
<path d="M46.7169 41.4954C46.7169 45.8149 44.4489 48.4497 39.1124 48.216C34.5431 47.6493 31.6414 45.2476 31.3079 41.4954C31.3079 36.7426 33.6092 34.7748 37.809 34.7748C43.0481 34.608 46.4834 38.2104 46.7169 41.4954Z" fill="#2F2F2F"></path>
<path d="M45.2512 42.0165C45.141 45.3207 42.895 47.1445 39.5624 47.1445C36.2298 47.1445 32.7711 44.1672 32.7711 41.0939C32.7711 38.0206 34.8704 35.9541 38.203 35.9541C41.5355 35.9541 45.3615 38.7123 45.2512 42.0165Z" fill="url(#paint8_linear_28254_112997)"></path>
<g filter="url(#filter2_f_28254_112997)">
<path d="M38.2144 36.0186L39.7408 36.2541C42.6221 36.6986 44.8545 39.0079 45.2013 41.9026" stroke="url(#paint9_linear_28254_112997)" stroke-width="0.0529422"></path>
</g>
<path d="M44.2625 41.8741C44.1702 44.7185 42.2888 46.2885 39.4972 46.2885C36.7056 46.2885 33.8083 43.7255 33.8083 41.0799C33.8083 38.4343 35.5668 36.6553 38.3584 36.6553C41.15 36.6553 44.3549 39.0297 44.2625 41.8741Z" fill="url(#paint10_linear_28254_112997)"></path>
<path d="M38.8928 39.4523C40.1317 39.4523 41.1096 40.4054 41.1096 41.549C41.1096 42.6924 40.1316 43.6456 38.8928 43.6456C37.6541 43.6455 36.6771 42.6924 36.677 41.549C36.677 40.4055 37.6541 39.4524 38.8928 39.4523Z" fill="#212121" stroke="url(#paint11_linear_28254_112997)" stroke-width="0.646075"></path>
<g filter="url(#filter3_f_28254_112997)">
<path d="M34.611 43.4973C35.5348 44.9838 39.1311 48.0976 43.0754 45.0944" stroke="url(#paint12_linear_28254_112997)" stroke-width="0.0529422"></path>
</g>
<circle cx="38.8431" cy="41.5486" r="0.72364" fill="url(#paint13_radial_28254_112997)"></circle>
<g filter="url(#filter4_f_28254_112997)">
<path d="M36.9735 39.9766L37.498 39.5932C39.0935 38.4271 41.3451 39.5076 41.4335 41.4818L41.4502 41.8538" stroke="url(#paint14_linear_28254_112997)" stroke-width="0.0430716"></path>
</g>
<g filter="url(#filter5_f_28254_112997)">
<path d="M40.7969 43.0847L40.2658 43.4589C38.6502 44.5969 36.4179 43.4773 36.3638 41.5019L36.3537 41.1297" stroke="url(#paint15_linear_28254_112997)" stroke-width="0.0430716"></path>
</g>
<path opacity="0.44" d="M38.874 41.5644L36.1799 44.9278C35.4269 44.6099 33.8204 43.1368 33.8204 40.9118C33.8204 38.6868 35.7083 35.8627 39.5934 36.834V37.4347C39.5934 38.6361 39.4122 39.8307 39.056 40.9782L38.874 41.5644Z" fill="url(#paint16_linear_28254_112997)"></path>
</g>
<g filter="url(#filter6_f_28254_112997)">
<path d="M29.0409 35.7482C29.2196 35.5004 29.8812 35.0012 31.0984 34.9874C32.2164 34.9747 40.3024 34.9805 45.1662 34.986C45.9729 34.9869 46.7826 35.0529 47.5396 35.3315C48.3313 35.6229 49.2436 36.0817 49.7746 36.7342" stroke="url(#paint17_linear_28254_112997)" stroke-width="0.0529422"></path>
</g>
<path d="M35.7142 17.4139C36.0426 17.4139 36.3157 17.7003 36.3158 18.0614C36.3158 18.4225 36.0427 18.7088 35.7142 18.7088C35.386 18.7086 35.1136 18.4224 35.1136 18.0614C35.1137 17.7004 35.386 17.4142 35.7142 17.4139Z" fill="white" stroke="url(#paint18_linear_28254_112997)" stroke-width="0.107679"></path>
<ellipse cx="35.8182" cy="18.084" rx="0.447239" ry="0.479088" fill="url(#paint19_linear_28254_112997)"></ellipse>
<path d="M51.8383 37.8816C48.4683 30.578 39.9756 27.5264 32.9517 30.2863C34.2033 29.8457 45.9008 27.2136 51.5434 37.8211C51.9781 38.6631 52.2034 39.5952 52.5594 40.6097C52.4845 40.1268 52.4204 39.143 51.8383 37.8816Z" fill="#8A8A8A"></path>
<g filter="url(#filter7_f_28254_112997)">
<path d="M32.952 30.2872C34.2037 29.8466 45.9011 27.2145 51.5438 37.8221C51.9784 38.6641 52.2037 39.5961 52.5597 40.6106" stroke="url(#paint20_linear_28254_112997)" stroke-width="0.0529422"></path>
</g>
<circle cx="37.7215" cy="32.8592" r="0.300672" fill="url(#paint21_radial_28254_112997)" stroke="url(#paint22_linear_28254_112997)" stroke-width="0.107679"></circle>
<defs>
<filter id="filter0_f_28254_112997" x="26.0886" y="24.8949" width="16.2959" height="12.7789" filterUnits="userSpaceOnUse" color-interpolation-filters="sRGB">
<feFlood flood-opacity="0" result="BackgroundImageFix"></feFlood>
<feBlend mode="normal" in="SourceGraphic" in2="BackgroundImageFix" result="shape"></feBlend>
<feGaussianBlur stdDeviation="0.215358" result="effect1_foregroundBlur_28254_112997"></feGaussianBlur>
</filter>
<filter id="filter1_f_28254_112997" x="36.9367" y="24.9884" width="22.0415" height="18.4448" filterUnits="userSpaceOnUse" color-interpolation-filters="sRGB">
<feFlood flood-opacity="0" result="BackgroundImageFix"></feFlood>
<feBlend mode="normal" in="SourceGraphic" in2="BackgroundImageFix" result="shape"></feBlend>
<feGaussianBlur stdDeviation="0.215358" result="effect1_foregroundBlur_28254_112997"></feGaussianBlur>
</filter>
<filter id="filter2_f_28254_112997" x="38.1026" y="35.8847" width="7.23269" height="6.12875" filterUnits="userSpaceOnUse" color-interpolation-filters="sRGB">
<feFlood flood-opacity="0" result="BackgroundImageFix"></feFlood>
<feBlend mode="normal" in="SourceGraphic" in2="BackgroundImageFix" result="shape"></feBlend>
<feGaussianBlur stdDeviation="0.0538395" result="effect1_foregroundBlur_28254_112997"></feGaussianBlur>
</filter>
<filter id="filter3_f_28254_112997" x="34.4808" y="43.3757" width="8.71829" height="3.1134" filterUnits="userSpaceOnUse" color-interpolation-filters="sRGB">
<feFlood flood-opacity="0" result="BackgroundImageFix"></feFlood>
<feBlend mode="normal" in="SourceGraphic" in2="BackgroundImageFix" result="shape"></feBlend>
<feGaussianBlur stdDeviation="0.0538395" result="effect1_foregroundBlur_28254_112997"></feGaussianBlur>
</filter>
<filter id="filter4_f_28254_112997" x="36.8531" y="38.9831" width="4.72622" height="2.97934" filterUnits="userSpaceOnUse" color-interpolation-filters="sRGB">
<feFlood flood-opacity="0" result="BackgroundImageFix"></feFlood>
<feBlend mode="normal" in="SourceGraphic" in2="BackgroundImageFix" result="shape"></feBlend>
<feGaussianBlur stdDeviation="0.0538395" result="effect1_foregroundBlur_28254_112997"></feGaussianBlur>
</filter>
<filter id="filter5_f_28254_112997" x="36.2245" y="41.0214" width="4.69253" height="3.02252" filterUnits="userSpaceOnUse" color-interpolation-filters="sRGB">
<feFlood flood-opacity="0" result="BackgroundImageFix"></feFlood>
<feBlend mode="normal" in="SourceGraphic" in2="BackgroundImageFix" result="shape"></feBlend>
<feGaussianBlur stdDeviation="0.0538395" result="effect1_foregroundBlur_28254_112997"></feGaussianBlur>
</filter>
<filter id="filter6_f_28254_112997" x="28.9117" y="34.8456" width="20.9911" height="2.0129" filterUnits="userSpaceOnUse" color-interpolation-filters="sRGB">
<feFlood flood-opacity="0" result="BackgroundImageFix"></feFlood>
<feBlend mode="normal" in="SourceGraphic" in2="BackgroundImageFix" result="shape"></feBlend>
<feGaussianBlur stdDeviation="0.0538395" result="effect1_foregroundBlur_28254_112997"></feGaussianBlur>
</filter>
<filter id="filter7_f_28254_112997" x="32.8356" y="29.5451" width="19.8568" height="11.182" filterUnits="userSpaceOnUse" color-interpolation-filters="sRGB">
<feFlood flood-opacity="0" result="BackgroundImageFix"></feFlood>
<feBlend mode="normal" in="SourceGraphic" in2="BackgroundImageFix" result="shape"></feBlend>
<feGaussianBlur stdDeviation="0.0538395" result="effect1_foregroundBlur_28254_112997"></feGaussianBlur>
</filter>
<linearGradient id="paint0_linear_28254_112997" x1="34.3608" y1="23.1674" x2="56.4404" y2="44.2956" gradientUnits="userSpaceOnUse">
<stop offset="0.00425969" stop-color="#E1E1E1"></stop>
<stop offset="0.230534" stop-color="#F0F1F5"></stop>
<stop offset="1" stop-color="#B2B2B2"></stop>
</linearGradient>
<linearGradient id="paint1_linear_28254_112997" x1="32.6746" y1="46.1095" x2="35.6333" y2="15.9843" gradientUnits="userSpaceOnUse">
<stop stop-color="#D9D9D9"></stop>
<stop offset="1" stop-color="#9A9A9A"></stop>
</linearGradient>
<linearGradient id="paint2_linear_28254_112997" x1="54.1665" y1="43.7036" x2="44.5718" y2="16.3051" gradientUnits="userSpaceOnUse">
<stop stop-color="#ACACAC"></stop>
<stop offset="1" stop-color="#9A9A9A"></stop>
</linearGradient>
<linearGradient id="paint3_linear_28254_112997" x1="29.8506" y1="28.9163" x2="43.1418" y2="24.3524" gradientUnits="userSpaceOnUse">
<stop stop-color="#C1C2C4"></stop>
<stop offset="1" stop-color="#D8D8D8"></stop>
</linearGradient>
<linearGradient id="paint4_linear_28254_112997" x1="24.0655" y1="24.1381" x2="65.5046" y2="24.6975" gradientUnits="userSpaceOnUse">
<stop stop-color="#E3E3E3"></stop>
<stop offset="0.145303" stop-color="#F4F4F4"></stop>
<stop offset="0.272751" stop-color="#F5F5F5"></stop>
<stop offset="0.463116" stop-color="#EFEFEF"></stop>
<stop offset="0.730766" stop-color="#C3C3C5"></stop>
<stop offset="0.861118" stop-color="#BCBDBF"></stop>
<stop offset="1" stop-color="#E1E1E1"></stop>
</linearGradient>
<linearGradient id="paint5_linear_28254_112997" x1="60.0577" y1="42.9737" x2="27.7954" y2="27.3228" gradientUnits="userSpaceOnUse">
<stop stop-color="#A6A6A6"></stop>
<stop offset="0.389413" stop-color="#E7E9EB"></stop>
<stop offset="1" stop-color="#E0E0E0"></stop>
</linearGradient>
<linearGradient id="paint6_linear_28254_112997" x1="35.0436" y1="30.4354" x2="39.7584" y2="52.8689" gradientUnits="userSpaceOnUse">
<stop stop-color="#656565"></stop>
<stop offset="1" stop-color="#272727"></stop>
</linearGradient>
<linearGradient id="paint7_linear_28254_112997" x1="37.6918" y1="34.6588" x2="39.4802" y2="48.4372" gradientUnits="userSpaceOnUse">
<stop stop-color="#444446"></stop>
<stop offset="1" stop-color="#111111"></stop>
</linearGradient>
<linearGradient id="paint8_linear_28254_112997" x1="33.6917" y1="39.8926" x2="45.2535" y2="43.2359" gradientUnits="userSpaceOnUse">
<stop></stop>
<stop offset="0.52814" stop-color="#5A5A5A"></stop>
<stop offset="1"></stop>
</linearGradient>
<linearGradient id="paint9_linear_28254_112997" x1="38.2144" y1="36.0186" x2="45.5333" y2="37.8295" gradientUnits="userSpaceOnUse">
<stop stop-color="#303030"></stop>
<stop offset="0.487191" stop-color="#C0C0C0"></stop>
<stop offset="1" stop-color="#0A0A0A"></stop>
</linearGradient>
<linearGradient id="paint10_linear_28254_112997" x1="35.5743" y1="38.1646" x2="41.8423" y2="46.2885" gradientUnits="userSpaceOnUse">
<stop stop-color="#282828"></stop>
<stop offset="1" stop-color="#131313"></stop>
</linearGradient>
<linearGradient id="paint11_linear_28254_112997" x1="36.3538" y1="39.129" x2="41.4082" y2="43.4413" gradientUnits="userSpaceOnUse">
<stop stop-color="#202020"></stop>
<stop offset="0.516554" stop-color="#494949" stop-opacity="0.72"></stop>
<stop offset="1" stop-color="#1F1F1F"></stop>
</linearGradient>
<linearGradient id="paint12_linear_28254_112997" x1="34.611" y1="43.4973" x2="41.4247" y2="47.7029" gradientUnits="userSpaceOnUse">
<stop stop-color="#303030"></stop>
<stop offset="0.487191" stop-color="#C0C0C0"></stop>
<stop offset="1" stop-color="#0A0A0A"></stop>
</linearGradient>
<radialGradient id="paint13_radial_28254_112997" cx="0" cy="0" r="1" gradientUnits="userSpaceOnUse" gradientTransform="translate(38.8431 41.5486) rotate(90) scale(0.72364)">
<stop stop-color="#565656"></stop>
<stop offset="1"></stop>
</radialGradient>
<linearGradient id="paint14_linear_28254_112997" x1="37.0457" y1="39.8177" x2="40.468" y2="38.6471" gradientUnits="userSpaceOnUse">
<stop stop-color="#303030"></stop>
<stop offset="0.487191" stop-color="#C0C0C0"></stop>
<stop offset="1" stop-color="#1A1A1A"></stop>
</linearGradient>
<linearGradient id="paint15_linear_28254_112997" x1="40.7219" y1="43.2424" x2="37.2798" y2="44.353" gradientUnits="userSpaceOnUse">
<stop stop-color="#303030"></stop>
<stop offset="0.487191" stop-color="#C0C0C0"></stop>
<stop offset="1" stop-color="#1A1A1A"></stop>
</linearGradient>
<linearGradient id="paint16_linear_28254_112997" x1="39.4981" y1="38.9837" x2="36.612" y2="42.359" gradientUnits="userSpaceOnUse">
<stop stop-color="white" stop-opacity="0.55"></stop>
<stop offset="1" stop-color="#999999" stop-opacity="0"></stop>
</linearGradient>
<linearGradient id="paint17_linear_28254_112997" x1="29.0409" y1="36.0397" x2="31.1286" y2="42.519" gradientUnits="userSpaceOnUse">
<stop stop-color="#666666"></stop>
<stop offset="0.586066" stop-color="white"></stop>
<stop offset="1" stop-color="#353536"></stop>
</linearGradient>
<linearGradient id="paint18_linear_28254_112997" x1="35.097" y1="18.003" x2="36.3694" y2="18.202" gradientUnits="userSpaceOnUse">
<stop stop-color="#6B6B6B"></stop>
<stop offset="1" stop-color="#F4F5F9" stop-opacity="0"></stop>
</linearGradient>
<linearGradient id="paint19_linear_28254_112997" x1="36.2654" y1="18.2535" x2="35.371" y2="18.084" gradientUnits="userSpaceOnUse">
<stop stop-color="#D9D9D9"></stop>
<stop offset="1" stop-color="#191919"></stop>
</linearGradient>
<linearGradient id="paint20_linear_28254_112997" x1="45.5448" y1="31.6814" x2="50.0465" y2="38.4907" gradientUnits="userSpaceOnUse">
<stop stop-color="white"></stop>
<stop offset="1" stop-color="#666666"></stop>
</linearGradient>
<radialGradient id="paint21_radial_28254_112997" cx="0" cy="0" r="1" gradientUnits="userSpaceOnUse" gradientTransform="translate(37.7215 32.8592) rotate(90) scale(0.354512)">
<stop stop-color="#4A4A4A"></stop>
<stop offset="1" stop-color="#1E1E1E"></stop>
</radialGradient>
<linearGradient id="paint22_linear_28254_112997" x1="37.4552" y1="32.7163" x2="37.9754" y2="33.1483" gradientUnits="userSpaceOnUse">
<stop></stop>
<stop offset="1" stop-color="#666666"></stop>
</linearGradient>
<clipPath id="clip0_28254_112997">
<rect width="21.2128" height="11.737" fill="white" transform="translate(28.8734 35.6798)"></rect>
</clipPath>
</defs>
</svg>