<svg width="88" height="60" viewBox="0 0 88 60" fill="none" xmlns="http://www.w3.org/2000/svg" xmlns:xlink="http://www.w3.org/1999/xlink">
<path d="M32.3429 12.0897C32.3429 9.67977 34.2966 7.7261 36.7065 7.7261H49.7974C52.2074 7.7261 54.1611 9.67977 54.1611 12.0897V47.9087C54.1611 50.3187 52.2074 52.2724 49.7974 52.2724H36.7065C34.2966 52.2724 32.3429 50.3187 32.3429 47.9087V12.0897Z" fill="#CCCCCC"></path>
<mask id="mask0_28254_112965" style="mask-type:alpha" maskUnits="userSpaceOnUse" x="33" y="8" width="21" height="43">
<path d="M33.5027 11.9994C33.5027 10.3426 34.8458 8.99945 36.5027 8.99945L50.0027 8.99945C51.6595 8.99945 53.0027 10.3426 53.0027 11.9994V47.9994C53.0027 49.6562 51.6595 50.9994 50.0027 50.9994H36.5027C34.8458 50.9994 33.5027 49.6562 33.5027 47.9994V11.9994Z" fill="#323232"></path>
</mask>
<g mask="url(#mask0_28254_112965)">
<path d="M32.752 10.1759C32.752 9.52617 33.2787 8.99945 33.9284 8.99945L52.5755 8.99945C53.2252 8.99945 53.752 9.52617 53.752 10.1759V49.8229C53.752 50.4726 53.2252 50.9994 52.5755 50.9994H33.9284C33.2787 50.9994 32.752 50.4726 32.752 49.8229V10.1759Z" fill="#959595"></path>
<rect x="32.752" y="8.99945" width="21" height="44.9999" fill="url(#pattern0_28254_112965)" fill-opacity="0.76"></rect>
</g>
<defs>
<pattern id="pattern0_28254_112965" patternContentUnits="objectBoundingBox" width="1" height="1">
<use xlink:href="#image0_28254_112965" transform="matrix(0.00203252 0 0 0.000948512 0 -0.0121963)"></use>
</pattern>
<image id="image0_28254_112965" width="492" height="1080" preserveAspectRatio="none"></image>
</defs>
</svg>