<svg xmlns="http://www.w3.org/2000/svg" width="32" height="32" fill="none" viewBox="0 0 32 32">
  <path fill="#fff" d="M23.868 17.19a.6.6 0 0 1 .803.679c-.828 4.078-4.432 7.147-8.754 7.147-4.323 0-7.927-3.07-8.755-7.147l1.176-.238a7.734 7.734 0 0 0 14.84 1.11l-1.046.402-.215-.56-.216-.56 2.167-.833Zm-7.784-5.04a.6.6 0 0 1 .55.36l2.004 4.582.912 2.083-.55.242-.55.24-.754-1.724H14.47l-.753 1.724-.55-.24-.55-.242.911-2.083 2.006-4.583.041-.078a.6.6 0 0 1 .509-.281Zm-1.088 4.583h2.175l-1.088-2.487-1.087 2.487Zm.92-9.583c4.323 0 7.927 3.07 8.755 7.146l-.588.12-.588.12a7.737 7.737 0 0 0-7.578-6.187 7.738 7.738 0 0 0-7.288 5.14l1.431-.476.38 1.139-2.5.834a.6.6 0 0 1-.778-.69 8.937 8.937 0 0 1 8.755-7.146Z"></path>
</svg>