<svg xmlns="http://www.w3.org/2000/svg" width="32" height="32" fill="none" viewBox="0 0 32 32">
  <path stroke="#fff" stroke-linejoin="round" d="M16 24.5a8.5 8.5 0 1 0 0-17 8.5 8.5 0 0 0 0 17Z" clip-rule="evenodd"></path>
  <path stroke="#fff" stroke-linejoin="round" d="M7.5 16h17"></path>
  <path stroke="#fff" stroke-linejoin="round" d="M16 24.5c1.878 0 3.4-3.806 3.4-8.5S17.878 7.5 16 7.5s-3.4 3.806-3.4 8.5 1.522 8.5 3.4 8.5Z" clip-rule="evenodd"></path>
  <path stroke="#fff" stroke-linejoin="round" d="M9.99 10.11A8.474 8.474 0 0 0 16 12.6a8.473 8.473 0 0 0 6.01-2.49m0 11.78A8.473 8.473 0 0 0 16 19.4a8.474 8.474 0 0 0-6.01 2.49"></path>
</svg>