<svg xmlns="http://www.w3.org/2000/svg" width="24" height="24" fill="none" viewBox="0 0 24 24">
  <g clip-path="url(#a)">
    <path stroke="#00A870" stroke-linecap="round" stroke-linejoin="round" stroke-width="1.2" d="M1 3.5h22l-1 7H2l-1-7Z"></path>
    <mask id="b" fill="#fff">
      <path d="M22 11.7c0 5.523-4.477 10-10 10s-10-4.477-10-10h20Zm-10 3.8a1.5 1.5 0 1 0 0 3 1.5 1.5 0 0 0 0-3Z"></path>
    </mask>
    <path fill="#00A870" d="M22 11.7h1v-1h-1v1Zm-20 0v-1H1v1h1Zm8.5 5.3h-1 1Zm3 0h1-1Zm8.5-5.3h-1a9 9 0 0 1-9 9v2c6.075 0 11-4.925 11-11h-1Zm-10 10v-1a9 9 0 0 1-9-9H1c0 6.075 4.925 11 11 11v-1Zm-10-10v1h20v-2H2v1Zm10 3.8v-1A2.5 2.5 0 0 0 9.5 17h2a.5.5 0 0 1 .5-.5v-1ZM10.5 17h-1a2.5 2.5 0 0 0 2.5 2.5v-2a.5.5 0 0 1-.5-.5h-1Zm1.5 1.5v1a2.5 2.5 0 0 0 2.5-2.5h-2a.5.5 0 0 1-.5.5v1Zm1.5-1.5h1a2.5 2.5 0 0 0-2.5-2.5v2a.5.5 0 0 1 .5.5h1Z" mask="url(#b)"></path>
  </g>
  <defs>
    <clipPath id="a">
      <path fill="#fff" d="M0 0h24v24H0z"></path>
    </clipPath>
  </defs>
</svg>