<svg xmlns="http://www.w3.org/2000/svg" width="32" height="32" fill="none" viewBox="0 0 32 32">
  <g clip-path="url(#a)">
    <path fill="#fff" d="M32 0H0v32h32V0Z"></path>
    <path fill="#00A870" d="M24.727 0H7.273A7.273 7.273 0 0 0 0 7.273v17.454A7.273 7.273 0 0 0 7.273 32h17.454A7.273 7.273 0 0 0 32 24.727V7.273A7.273 7.273 0 0 0 24.727 0Z" opacity=".1"></path>
    <path fill="#00A870" d="M13.778 9.778a2.223 2.223 0 1 1-.002 4.446 2.223 2.223 0 0 1 .002-4.446Zm9.772 12.444H8.45a.441.441 0 0 1-.389-.662l1.794-4.192c.693-1.176 2.426-1.176 3.12 0l.83 1.412c.362.613 1.278.58 1.59-.06l2.706-5.524c.49-1.002 1.947-1.002 2.435.002l3.419 8.393a.441.441 0 0 1-.405.631Z" opacity=".8"></path>
  </g>
  <defs>
    <clipPath id="a">
      <path fill="#fff" d="M0 0h32v32H0z"></path>
    </clipPath>
  </defs>
</svg>