<svg xmlns="http://www.w3.org/2000/svg" width="32" height="32" fill="none" viewBox="0 0 32 32">
  <path fill="#fff" d="M16.6 26.928h-1.2v-2.75h1.2v2.75Zm-5.958-4.721-.425.424-1.096 1.096-.424.424-.848-.848 1.944-1.945.849.849Zm11.989-.424 1.096 1.095.424.425-.848.848-.425-.424-1.095-1.096-.425-.424.849-.849.424.425ZM16 9.5a6.5 6.5 0 1 1 0 13.002A6.5 6.5 0 0 1 16 9.5Zm0 1.2a5.302 5.302 0 1 0 .001 10.604A5.302 5.302 0 0 0 16 10.698Zm-8.178 5.9H5.073v-1.2h2.75v1.2Zm19.106 0h-2.75v-1.2h2.75v1.2ZM9.12 8.274l1.096 1.095.425.425-.849.849-.425-.425L8.273 9.12l-.424-.424.848-.848.424.424Zm15.03.424-.424.424-1.096 1.096-.424.425-.849-.849 1.945-1.944.848.848Zm-7.55-.876h-1.2V5.073h1.2v2.75Z"></path>
</svg>