<svg xmlns="http://www.w3.org/2000/svg" width="32" height="32" fill="none" viewBox="0 0 32 32">
  <path fill="#fff" d="m17.418 8.127.458.388a.6.6 0 0 0-.352-.979l-.106.591Zm6.395 9.594.586.128a.6.6 0 0 0-.768-.7l.181.572ZM16 8v.6c.447 0 .885.041 1.312.118l.106-.591.106-.59A8.644 8.644 0 0 0 16 7.4V8Zm1.418.127-.458-.388A6.576 6.576 0 0 0 15.4 12h1.2c0-1.33.48-2.544 1.276-3.485l-.458-.388ZM16 12h-.6a6.6 6.6 0 0 0 6.6 6.6v-1.2a5.4 5.4 0 0 1-5.4-5.4H16Zm6 6v.6a6.61 6.61 0 0 0 1.994-.307l-.181-.572-.182-.572A5.397 5.397 0 0 1 22 17.4v.6Zm1.813-.28-.587-.128A7.401 7.401 0 0 1 16 23.4v1.2c4.115 0 7.552-2.89 8.399-6.75l-.587-.13ZM16 24v-.6A7.4 7.4 0 0 1 8.6 16H7.4a8.6 8.6 0 0 0 8.6 8.6V24Zm-8-8h.6A7.4 7.4 0 0 1 16 8.6V7.4A8.6 8.6 0 0 0 7.4 16H8Z"></path>
</svg>