<svg xmlns="http://www.w3.org/2000/svg" width="300" height="160" fill="none" viewBox="0 0 300 160">
  <ellipse cx="157.672" cy="122.972" fill="#333" rx="38" ry="15" transform="rotate(7.725 157.672 122.972)"></ellipse>
  <path fill="#2D3633" stroke="#999" stroke-width="1.2" d="M120.31 90.454c3.587-4.186 12.955-4.236 17.19-3.737-.564 3.286-.627 9.93 3.637 10.215 5.33.355 16.62.534 22.523-10.215 7.474 2.242 11.627 5.595 14.949 8.221 8.366 6.613 9.716 16.443 9.716 24.665 0 8.222-4.484 15.696-20.928 16.443-16.443.748-41.108-7.474-51.572-17.19-10.464-9.717 0-23.17 4.485-28.402Z"></path>
  <path fill="#242424" stroke="#999" stroke-width="1.2" d="M137.5 91.202V85.97c5.543-1.008 17.203-4.748 19.501-11.644.953.441 3.319.846 5.164-1.062-1.196 3.587.498 10.962 1.495 14.2-3.737 6.728-14.949 11.212-20.928 9.717-5.979-1.495-5.232-4.484-5.232-5.979Z"></path>
  <path stroke="#999" stroke-width="1.2" d="M173.377 41.873c-5.232-6.727-14.948-2.243-17.19-.748-2.243 1.495-13.454 5.98-23.171 3.737-7.773-1.794-6.228-11.211-4.484-15.696 2.491.25 8.521.15 12.706-2.242 5.232-2.99 17.938-5.232 24.665 1.495s9.717 14.948 7.474 25.412c-2.242 10.464-11.211 11.212-11.211 19.433-1.246.748-3.887 1.944-4.484.748"></path>
  <path fill="#242424" stroke="#999" stroke-width="1.2" d="M134.511 85.222c-11.959-6.577-8.969-32.139-5.98-44.098 3.162 2.84 12.82 6.963 26.161.748 3.737 2.242 2.989 5.98.747 10.464s1.499 9.364 1.495 9.716c0-5.98 3.97-7.357 6.727-5.98 2.989 1.496 2.242 7.475-.748 9.717-.956.718-.747 2.99-4.484 3.737-.748 3.737 0 5.98-6.727 11.212-9.567 5.381-15.447 5.232-17.191 4.484Z"></path>
  <path fill="#05C178" stroke="#CCC" stroke-width="1.237" d="m136 101.5 3.5-5 6 1 1.82 5.657-4.138 4.344L138.5 107l-2.5-5.5Z"></path>
  <path fill="#05C178" stroke="#CCC" stroke-width="1.237" d="m135.32 119.501 3.31-12.414 4.87.413.509 5.794.828 6.207-4.965 4.552-4.552-4.552Z"></path>
  <path stroke="#73797D" stroke-linecap="square" stroke-width=".6" d="M163.069 89.57c3 2 8.5 6 13.5 10.5 5.931 5.338 10.5 13 3 32.5"></path>
  <path stroke="#73797D" stroke-linecap="square" stroke-width=".6" d="M163.881 88.802c2.619 1.698 10.759 7.34 14.689 11.269 3.929 3.929 10.219 12.362 2.719 31.862"></path>
</svg>