<svg xmlns="http://www.w3.org/2000/svg" width="300" height="160" fill="none" viewBox="0 0 300 160">
  <path fill="#2D3633" d="M93 44h111v18H93z"></path>
  <path stroke="#999" stroke-linecap="square" stroke-width="1.2" d="M94 44h110v72H94z"></path>
  <path fill="#242424" stroke="#fff" stroke-linecap="square" stroke-opacity=".64" stroke-width=".7" d="M98 65h102v47H98V65Z"></path>
  <path fill="#B7EE00" stroke="#CCC" stroke-linecap="square" stroke-width=".7" d="M144.375 104.111a8.851 8.851 0 0 0-12.582-8.028l-5.12 8.028h17.702Z"></path>
  <circle cx="120.983" cy="81.954" r="6.954" fill="#32DE9B" stroke="#CCC" stroke-linecap="square" stroke-width=".7"></circle>
  <path fill="#32DE9B" stroke="#CCC" stroke-linecap="square" stroke-width=".7" d="M120.984 90.172c-7.332 0-13.276 6.227-13.276 13.908h26.552c0-7.681-5.944-13.908-13.276-13.908Z"></path>
  <circle cx="135.523" cy="87.172" r="4.425" fill="#B7EE00" stroke="#CCC" stroke-linecap="square" stroke-width=".7"></circle>
  <path fill="#00A870" fill-rule="evenodd" stroke="#008055" stroke-width="1.733" d="M208 102.667c7.364 0 13.333 5.969 13.333 13.333s-5.969 13.333-13.333 13.333-13.333-5.969-13.333-13.333 5.969-13.333 13.333-13.333Z" clip-rule="evenodd"></path>
  <path stroke="#fff" stroke-width="1.733" d="m202 116 4 4 8-8.667"></path>
  <path fill="#2D62FA" d="M160.625 71h31.417v5.5h-31.417V71Zm-8 0h5.417v5.5h-5.417V71Z"></path>
  <path fill="#E57DFA" d="M160.625 80h31.417v5.5h-31.417V80Zm-8 0h5.417v5.5h-5.417V80Z"></path>
  <path fill="#32DE9B" d="M152.625 92h26.583v2h-26.583zm0 7.417h26.583v2h-26.583z"></path>
  <path stroke="#999" stroke-linecap="square" stroke-width="1.2" d="M94 44h110v17H94z"></path>
  <path fill="#242424" stroke="#999" stroke-linecap="square" stroke-width="1.2" d="M135.208 42h28.417v11h-28.417z"></path>
</svg>