<svg xmlns="http://www.w3.org/2000/svg" width="300" height="160" fill="none" viewBox="0 0 300 160">
  <path fill="#242424" stroke="#999" stroke-linecap="square" stroke-width="1.2" d="M40 36.629h49.852v87.241H40z"></path>
  <path fill="#2D3633" fill-rule="evenodd" stroke="#fff" stroke-opacity=".5" stroke-width=".6" d="M44.45 40.579H85.4v79.229H44.45c-.004-26.41.003-52.82 0-79.23Z" clip-rule="evenodd"></path>
  <path fill="#008055" d="M58.424 44.216h11.921v1.3H58.424z"></path>
  <path fill="#242424" stroke="#999" stroke-linecap="square" stroke-width="1.2" d="M227.488 120.925S260 94.258 260 69.694c0-17.517-14.556-31.717-32.512-31.717-17.956 0-32.512 14.2-32.512 31.717 0 24.564 32.512 51.231 32.512 51.231Z"></path>
  <path fill="#2D3633" stroke="#fff" stroke-opacity=".5" stroke-width=".6" d="M227.488 117s29.803-24.445 29.803-46.962c0-16.057-13.343-29.074-29.803-29.074s-29.803 13.017-29.803 29.074c0 22.517 29.803 46.962 29.803 46.962Z"></path>
  <path fill="#242424" stroke="#fff" stroke-opacity=".5" stroke-width=".614" d="M227.489 90.27c10.922 0 19.777-8.854 19.777-19.776s-8.855-19.776-19.777-19.776c-10.921 0-19.776 8.854-19.776 19.776s8.855 19.776 19.776 19.776Z"></path>
  <path fill="#008055" d="M225.44 76.652V64.167h4.934c.121 0 .266.006.433.018.168.005.33.023.486.052.676.104 1.242.335 1.699.693.462.358.809.812 1.04 1.361.232.544.347 1.148.347 1.812a4.52 4.52 0 0 1-.355 1.812 3.403 3.403 0 0 1-1.041 1.362c-.456.358-1.02.59-1.69.693a6.52 6.52 0 0 1-.486.052 6.385 6.385 0 0 1-.433.018h-3.39v4.612h-1.544Zm1.544-6.078h3.338a4.5 4.5 0 0 0 .372-.017c.145-.012.281-.032.408-.06.399-.093.722-.26.971-.504a2.24 2.24 0 0 0 .555-.867c.115-.335.173-.676.173-1.023a3.06 3.06 0 0 0-.173-1.014 2.23 2.23 0 0 0-.555-.876c-.249-.248-.572-.416-.971-.502a1.82 1.82 0 0 0-.408-.061 4.5 4.5 0 0 0-.372-.018h-3.338v4.942Zm-5.688 6.078V64.167h1.543v12.485h-1.543Z"></path>
  <path stroke="#008055" stroke-dasharray="2 2" d="M101.773 79.979h84.532"></path>
  <circle cx="144.039" cy="79.979" r="14.089" fill="#1C1C1C"></circle>
  <circle cx="144.039" cy="80.25" r="11.921" fill="#008055"></circle>
  <path stroke="#fff" stroke-linecap="square" stroke-linejoin="round" stroke-width="1.084" d="M146.315 78.95h-3.793a3.034 3.034 0 0 0 0 6.069h6.069a3.035 3.035 0 0 0 2.276-5.042"></path>
  <path stroke="#fff" stroke-linecap="square" stroke-linejoin="round" stroke-width="1.084" d="M137.212 80.957a3.035 3.035 0 0 1 2.276-5.042h6.069a3.035 3.035 0 0 1 0 6.069h-3.794"></path>
</svg>