<svg xmlns="http://www.w3.org/2000/svg" width="300" height="200" fill="none" viewBox="0 0 300 200">
  <path fill="#00A870" d="M75.026 187.026c-.506 0-.933-.125-1.28-.375a2.37 2.37 0 0 1-.79-1.025 3.82 3.82 0 0 1-.264-1.455c0-.543.088-1.03.265-1.46.18-.43.443-.768.79-1.015.35-.246.778-.37 1.284-.37.5 0 .93.125 1.29.375.364.247.642.585.835 1.015.194.43.29.915.29 1.455s-.096 1.025-.29 1.455a2.43 2.43 0 0 1-.835 1.025c-.36.25-.791.375-1.294.375Zm-2.484 2.25v-7.8h.794v3.975h.1v3.825h-.895Zm2.374-3.065c.357 0 .652-.09.886-.27.233-.18.408-.423.524-.73a2.93 2.93 0 0 0 .175-1.04c0-.38-.058-.723-.175-1.03a1.569 1.569 0 0 0-.53-.73c-.236-.18-.538-.27-.905-.27-.35 0-.64.087-.87.26-.23.17-.401.409-.514.715a3.01 3.01 0 0 0-.17 1.055c0 .394.054.745.164 1.055.114.307.287.549.52.725.234.174.532.26.895.26Zm-6.076.815c-.536 0-1-.121-1.39-.365a2.417 2.417 0 0 1-.894-1.01c-.21-.43-.315-.923-.315-1.48 0-.566.106-1.063.32-1.49.213-.426.515-.758.905-.995.39-.24.848-.36 1.375-.36.54 0 1.005.122 1.395.365.39.24.688.575.895 1.005.21.427.315.919.315 1.475 0 .564-.105 1.06-.315 1.49a2.41 2.41 0 0 1-.9 1.005c-.39.24-.854.36-1.39.36Zm0-.845c.56 0 .977-.186 1.25-.56.274-.373.41-.856.41-1.45 0-.61-.138-1.095-.414-1.455-.277-.363-.692-.545-1.245-.545-.377 0-.687.085-.93.255-.244.17-.425.405-.545.705-.12.3-.18.647-.18 1.04 0 .607.14 1.094.42 1.46.28.367.691.55 1.235.55Zm-3.171.696c-.32.063-.637.088-.95.075a2.114 2.114 0 0 1-.83-.185 1.197 1.197 0 0 1-.555-.54 1.603 1.603 0 0 1-.175-.645 23.8 23.8 0 0 1-.01-.745v-4.86h.89v4.82c0 .22.001.408.005.565a.903.903 0 0 0 .105.405c.12.213.31.338.57.375.263.036.58.026.95-.03v.765Zm-3.615-4.665v-.735h3.615v.735h-3.615Zm-2.916 4.814c-.507 0-.933-.125-1.28-.375a2.37 2.37 0 0 1-.79-1.025 3.821 3.821 0 0 1-.265-1.455c0-.543.088-1.03.265-1.46.18-.43.443-.768.79-1.015.35-.246.778-.37 1.285-.37.5 0 .93.125 1.29.375.363.247.642.585.835 1.015.193.43.29.915.29 1.455a3.51 3.51 0 0 1-.29 1.455c-.194.43-.472.772-.835 1.025-.36.25-.792.375-1.295.375Zm-2.485 2.25v-7.8h.795v3.975h.1v3.825h-.895Zm2.375-3.065c.357 0 .651-.09.885-.27.233-.18.408-.423.525-.73a2.93 2.93 0 0 0 .175-1.04c0-.38-.059-.723-.175-1.03a1.569 1.569 0 0 0-.53-.73c-.237-.18-.538-.27-.905-.27-.35 0-.64.087-.87.26-.23.17-.402.409-.515.715a3.01 3.01 0 0 0-.17 1.055c0 .394.055.745.165 1.055.113.307.287.549.52.725.233.174.531.26.895.26Zm-6.46.815c-.403 0-.742-.073-1.015-.22a1.563 1.563 0 0 1-.615-.59 1.605 1.605 0 0 1-.205-.8c0-.283.053-.528.16-.735.11-.21.263-.383.46-.52.197-.14.432-.25.705-.33.257-.07.543-.13.86-.18.32-.053.643-.101.97-.145.327-.043.632-.085.915-.125l-.32.185c.01-.48-.087-.835-.29-1.065-.2-.23-.547-.345-1.04-.345-.327 0-.613.075-.86.225-.243.147-.415.387-.515.72l-.845-.255c.13-.473.382-.845.755-1.115s.865-.405 1.475-.405c.49 0 .91.089 1.26.265.353.174.607.437.76.79.077.167.125.349.145.545.02.194.03.397.03.61v3.34h-.79v-1.295l.185.12c-.203.437-.488.767-.855.99-.363.224-.807.335-1.33.335Zm.135-.745c.32 0 .597-.056.83-.17.237-.116.427-.268.57-.455.143-.19.237-.396.28-.62.05-.166.077-.351.08-.555.007-.206.01-.365.01-.475l.31.135c-.29.04-.575.079-.855.115-.28.037-.545.077-.795.12-.25.04-.475.089-.675.145a2.242 2.242 0 0 0-.415.18.957.957 0 0 0-.31.285.743.743 0 0 0-.115.425c0 .147.037.287.11.42a.844.844 0 0 0 .35.325c.16.084.368.125.625.125Zm-6.746.596v-7.2h.89v6.355h3.34v.845h-4.23Zm116.82 7.999v-5.4h.795v1.305l-.13-.17c.064-.166.145-.32.245-.46.104-.14.219-.255.345-.345.14-.113.299-.2.475-.26.177-.06.357-.095.54-.105.184-.013.355-.001.515.035v.835a1.693 1.693 0 0 0-.615-.04c-.223.024-.43.105-.62.245a1.355 1.355 0 0 0-.405.45 1.982 1.982 0 0 0-.195.575 3.587 3.587 0 0 0-.055.625v2.71h-.895Zm-3.568.15c-.53 0-.993-.116-1.39-.35a2.45 2.45 0 0 1-.92-.985c-.22-.423-.33-.916-.33-1.48 0-.59.108-1.1.325-1.53.217-.433.518-.766.905-1 .39-.236.847-.355 1.37-.355.543 0 1.005.125 1.385.375.383.25.67.607.86 1.07.193.464.277 1.015.25 1.655h-.9v-.32c-.01-.663-.145-1.158-.405-1.485-.26-.33-.647-.495-1.16-.495-.55 0-.968.177-1.255.53-.287.354-.43.86-.43 1.52 0 .637.143 1.13.43 1.48.287.35.695.525 1.225.525.357 0 .667-.081.93-.245.263-.163.47-.398.62-.705l.855.295a2.42 2.42 0 0 1-.95 1.11c-.42.26-.892.39-1.415.39Zm-1.995-2.6v-.715h3.99v.715h-3.99Zm-3.924 2.451-1.96-5.4h.9l1.515 4.265 1.51-4.265h.905l-1.96 5.4h-.91Zm-5.19-.001v-5.4h.795v1.305l-.13-.17c.063-.166.145-.32.245-.46.103-.14.218-.255.345-.345.14-.113.298-.2.475-.26.176-.06.356-.095.54-.105.183-.013.355-.001.515.035v.835a1.696 1.696 0 0 0-.615-.04c-.224.024-.43.105-.62.245a1.334 1.334 0 0 0-.405.45 1.925 1.925 0 0 0-.195.575 3.492 3.492 0 0 0-.055.625v2.71h-.895Zm-3.569.15c-.53 0-.993-.116-1.39-.35a2.45 2.45 0 0 1-.92-.985c-.22-.423-.33-.916-.33-1.48 0-.59.108-1.1.325-1.53.217-.433.518-.766.905-1 .39-.236.847-.355 1.37-.355.543 0 1.005.125 1.385.375.383.25.67.607.86 1.07.193.464.277 1.015.25 1.655h-.9v-.32c-.01-.663-.145-1.158-.405-1.485-.26-.33-.647-.495-1.16-.495-.55 0-.968.177-1.255.53-.287.354-.43.86-.43 1.52 0 .637.143 1.13.43 1.48.287.35.695.525 1.225.525.357 0 .667-.081.93-.245.263-.163.47-.398.62-.705l.855.295a2.42 2.42 0 0 1-.95 1.11c-.42.26-.892.39-1.415.39Zm-1.995-2.6v-.715h3.99v.715h-3.99Zm-4.089 2.6a3.5 3.5 0 0 1-1.38-.26 2.64 2.64 0 0 1-1.01-.74 2.485 2.485 0 0 1-.515-1.145l.92-.145c.117.454.359.809.725 1.065.37.254.805.38 1.305.38.324 0 .615-.05.875-.15.264-.103.472-.25.625-.44.154-.19.23-.415.23-.675a.906.906 0 0 0-.085-.41.818.818 0 0 0-.225-.295 1.343 1.343 0 0 0-.32-.21 2.512 2.512 0 0 0-.375-.14l-1.835-.545c-.2-.06-.393-.135-.58-.225a2.118 2.118 0 0 1-.5-.345 1.58 1.58 0 0 1-.35-.5 1.72 1.72 0 0 1-.13-.695c0-.426.11-.79.33-1.09a2.12 2.12 0 0 1 .905-.695c.38-.16.809-.238 1.285-.235.484.004.915.09 1.295.26.384.167.7.407.95.72.254.314.424.689.51 1.125l-.945.165a1.574 1.574 0 0 0-.335-.755 1.672 1.672 0 0 0-.64-.49 2.092 2.092 0 0 0-.845-.18 2.044 2.044 0 0 0-.795.14 1.389 1.389 0 0 0-.565.405.902.902 0 0 0-.21.59c0 .22.064.399.19.535.127.134.282.24.465.32.187.077.369.14.545.19l1.37.395a6.8 6.8 0 0 1 .54.18c.207.077.407.185.6.325a1.6 1.6 0 0 1 .48.55c.127.227.19.514.19.86 0 .347-.07.655-.21.925-.136.27-.328.497-.575.68-.246.18-.533.317-.86.41a3.665 3.665 0 0 1-1.05.145ZM160.889 65.15c-.51 0-.97-.087-1.38-.26a2.636 2.636 0 0 1-1.01-.74 2.486 2.486 0 0 1-.515-1.145l.92-.145c.117.453.358.808.725 1.065.37.253.805.38 1.305.38.323 0 .615-.05.875-.15.263-.103.472-.25.625-.44.153-.19.23-.415.23-.675a.904.904 0 0 0-.31-.705 1.325 1.325 0 0 0-.32-.21 2.406 2.406 0 0 0-.375-.14l-1.835-.545c-.2-.06-.393-.135-.58-.225a2.116 2.116 0 0 1-.5-.345 1.572 1.572 0 0 1-.35-.5 1.707 1.707 0 0 1-.13-.695c0-.427.11-.79.33-1.09.223-.303.525-.535.905-.695.38-.16.808-.238 1.285-.235.483.003.915.09 1.295.26.383.167.7.407.95.72.253.313.423.688.51 1.125l-.945.165a1.582 1.582 0 0 0-.335-.755 1.662 1.662 0 0 0-.64-.49 2.072 2.072 0 0 0-.845-.18 2.025 2.025 0 0 0-.795.14 1.377 1.377 0 0 0-.565.405.901.901 0 0 0-.21.59c0 .22.063.398.19.535.127.133.282.24.465.32.187.077.368.14.545.19l1.37.395c.157.043.337.103.54.18.207.077.407.185.6.325.193.137.353.32.48.55.127.227.19.513.19.86s-.07.655-.21.925c-.137.27-.328.497-.575.68-.247.18-.533.317-.86.41a3.686 3.686 0 0 1-1.05.145Zm-9.508-.15v-7.2h.9l3.755 5.625V57.8h.9V65h-.9l-3.755-5.63V65h-.9Zm-6.807 0v-7.2h2.22l.385.005c.184.003.359.017.525.04.557.073 1.022.277 1.395.61.377.33.66.75.85 1.26.19.51.285 1.072.285 1.685s-.095 1.175-.285 1.685c-.19.51-.473.932-.85 1.265-.373.33-.838.532-1.395.605a6.3 6.3 0 0 1-.53.04l-.38.005h-2.22Zm.915-.85h1.305c.127 0 .269-.003.425-.01.157-.01.294-.025.41-.045.394-.073.712-.238.955-.495.244-.257.422-.577.535-.96.114-.383.17-.797.17-1.24 0-.453-.058-.872-.175-1.255a2.278 2.278 0 0 0-.535-.955c-.243-.253-.56-.415-.95-.485a2.722 2.722 0 0 0-.415-.045c-.16-.007-.3-.01-.42-.01h-1.305v5.5Zm-7.721.85v-7.2h2.22l.385.005c.183.003.358.017.525.04.556.073 1.021.277 1.395.61.376.33.66.75.85 1.26.19.51.285 1.072.285 1.685s-.095 1.175-.285 1.685c-.19.51-.474.932-.85 1.265-.374.33-.839.532-1.395.605-.167.02-.344.033-.53.04l-.38.005h-2.22Zm.915-.85h1.305c.126 0 .268-.003.425-.01.156-.01.293-.025.41-.045.393-.073.711-.238.955-.495.243-.257.421-.577.535-.96.113-.383.17-.797.17-1.24 0-.453-.059-.872-.175-1.255a2.3 2.3 0 0 0-.535-.955 1.693 1.693 0 0 0-.95-.485 2.737 2.737 0 0 0-.415-.045c-.16-.007-.3-.01-.42-.01h-1.305v5.5Z"></path>
  <circle cx="149.992" cy="26.992" r="24.992" fill="#242424" stroke="#999" stroke-linecap="square" stroke-width="1.2"></circle>
  <circle cx="149.996" cy="26.672" r="13.5" fill="#85BF00"></circle>
  <path fill="#fff" fill-opacity=".8" d="M149.672 12.634c7.732 0 14 6.268 14 14-.001 7.716-6.243 13.973-13.953 13.999l-.046.002-.046-.002c-7.711-.024-13.955-6.283-13.955-14 0-7.731 6.268-14 14-14Zm-4.375 14.552c.052 3.438.586 6.517 1.409 8.75.434 1.179.937 2.094 1.468 2.703.525.602 1.028.852 1.482.858l.016.001h.016c.455-.007.958-.256 1.483-.86.53-.608 1.033-1.523 1.468-2.701.823-2.234 1.357-5.313 1.409-8.75h-8.751Zm-8.478 0c.255 6.019 4.644 10.965 10.401 12.077-.611-.741-1.142-1.747-1.579-2.934-.879-2.385-1.427-5.602-1.479-9.143h-7.343Zm18.364 0c-.052 3.541-.6 6.758-1.479 9.143-.437 1.187-.969 2.193-1.58 2.934 5.756-1.112 10.145-6.058 10.399-12.076h-7.34Zm-3.06-13.183c.612.741 1.143 1.75 1.581 2.937.876 2.379 1.424 5.583 1.479 9.112h7.339c-.267-6.006-4.651-10.94-10.399-12.05Zm-4.901-.001c-5.749 1.109-10.134 6.044-10.402 12.05h7.342c.055-3.53.603-6.733 1.479-9.112.438-1.188.969-2.197 1.581-2.938Zm2.451-.232c-.459 0-.968.25-1.499.86-.53.61-1.034 1.525-1.468 2.703-.82 2.228-1.354 5.293-1.409 8.719h8.751c-.055-3.426-.589-6.491-1.409-8.719-.434-1.178-.938-2.093-1.468-2.702-.532-.61-1.04-.861-1.498-.861Z"></path>
  <path fill="#00A870" d="M251.686 187.026c-.53 0-.993-.116-1.39-.35a2.45 2.45 0 0 1-.92-.985c-.22-.423-.33-.916-.33-1.48 0-.59.108-1.1.325-1.53.217-.433.518-.766.905-1 .39-.236.847-.355 1.37-.355.543 0 1.005.125 1.385.375.383.25.67.607.86 1.07.193.464.277 1.015.25 1.655h-.9v-.32c-.01-.663-.145-1.158-.405-1.485-.26-.33-.647-.495-1.16-.495-.55 0-.968.177-1.255.53-.287.354-.43.86-.43 1.52 0 .637.143 1.13.43 1.48.287.35.695.525 1.225.525.357 0 .667-.081.93-.245.263-.163.47-.398.62-.705l.855.295a2.42 2.42 0 0 1-.95 1.11c-.42.26-.892.39-1.415.39Zm-1.995-2.6v-.715h3.99v.715h-3.99Zm-2.496 2.45v-2.705c0-.256-.024-.503-.07-.74a1.884 1.884 0 0 0-.235-.635c-.11-.19-.26-.34-.45-.45-.187-.11-.424-.165-.71-.165-.224 0-.427.039-.61.115-.18.074-.335.187-.465.34-.13.154-.232.347-.305.58-.07.23-.105.502-.105.815l-.585-.18c0-.523.093-.971.28-1.345.19-.376.455-.665.795-.865.343-.203.746-.305 1.21-.305.35 0 .648.055.895.165a1.8 1.8 0 0 1 .615.44c.163.18.291.384.385.61.093.224.158.452.195.685.04.23.06.449.06.655v2.985h-.9Zm-3.85 0v-5.4h.8v1.445h.1v3.955h-.9Zm-3.701.15c-.537 0-1-.121-1.39-.365a2.414 2.414 0 0 1-.895-1.01c-.21-.43-.315-.923-.315-1.48 0-.566.107-1.063.32-1.49.213-.426.515-.758.905-.995.39-.24.848-.36 1.375-.36.54 0 1.005.122 1.395.365.39.24.688.575.895 1.005.21.427.315.919.315 1.475 0 .564-.105 1.06-.315 1.49a2.41 2.41 0 0 1-.9 1.005c-.39.24-.853.36-1.39.36Zm0-.845c.56 0 .977-.186 1.25-.56.273-.373.41-.856.41-1.45 0-.61-.138-1.095-.415-1.455-.277-.363-.692-.545-1.245-.545-.377 0-.687.085-.93.255a1.53 1.53 0 0 0-.545.705c-.12.3-.18.647-.18 1.04 0 .607.14 1.094.42 1.46.28.367.692.55 1.235.55Zm-4.5.696v-2.705c0-.257-.023-.504-.07-.74a1.848 1.848 0 0 0-.235-.635c-.11-.19-.26-.34-.45-.45-.187-.11-.423-.165-.71-.165a1.56 1.56 0 0 0-.61.115c-.18.073-.335.186-.465.34-.13.153-.232.346-.305.58a2.81 2.81 0 0 0-.105.815l-.585-.18c0-.524.093-.972.28-1.345.19-.377.455-.665.795-.865.343-.204.747-.305 1.21-.305.35 0 .648.055.895.165.247.11.452.256.615.44.163.18.292.383.385.61.093.223.158.451.195.685.04.23.06.448.06.655v2.985h-.9Zm-3.85 0v-7.2h.8v3.975h.1v3.225h-.9Zm-6.148 0v-7.2h2.845c.07 0 .154.003.25.01.097.003.19.013.28.03.39.06.717.193.98.4.267.206.467.468.6.785.134.313.2.661.2 1.045 0 .38-.068.728-.205 1.045a1.957 1.957 0 0 1-.6.785c-.263.206-.588.34-.975.4a3.939 3.939 0 0 1-.53.04h-1.955v2.66h-.89Zm.89-3.505h1.925c.064 0 .135-.004.215-.01.084-.007.162-.019.235-.035.23-.054.417-.15.56-.29a1.28 1.28 0 0 0 .32-.5 1.792 1.792 0 0 0 0-1.175 1.263 1.263 0 0 0-.32-.505 1.095 1.095 0 0 0-.56-.29 1.023 1.023 0 0 0-.235-.035 2.464 2.464 0 0 0-.215-.01h-1.925v2.85Z"></path>
  <path fill="#242424" stroke="#999" stroke-linecap="square" stroke-width="1.2" d="M226 126h26v45.5h-26V126Z"></path>
  <path fill="#2D3633" fill-rule="evenodd" stroke="#fff" stroke-opacity=".5" stroke-width=".6" d="M228.321 128.06h21.357v41.321h-21.357c-.002-13.774.001-27.547 0-41.321Z" clip-rule="evenodd"></path>
  <path fill="#999" d="M235.609 129.956h6.217v.678h-6.217z"></path>
  <path fill="#242424" stroke="#999" stroke-linecap="square" stroke-width="1.2" d="M35.464 131h51.57v35.207h-51.57V131Z"></path>
  <path fill="#2D3633" stroke="#fff" stroke-opacity=".5" stroke-width=".6" d="M37.942 133.974h46.611v32.232H37.942v-32.232Z"></path>
  <path fill="#586963" d="M41.5 143h10.292v11.752H41.5zm13.048 0H80.5v4.583H54.548zm0 7.169H80.5v4.583H54.548z"></path>
  <path fill="#242424" stroke="#999" stroke-linecap="square" stroke-width="1.2" d="M31 165.5h60v3.75H31v-3.75Z"></path>
  <circle cx="40.916" cy="136.952" r=".992" fill="#FF4D62"></circle>
  <circle cx="43.892" cy="136.952" r=".992" fill="#CCA200"></circle>
  <circle cx="46.868" cy="136.952" r=".992" fill="#00A870"></circle>
  <path fill="#242424" stroke="#999" stroke-linecap="square" stroke-width="1.2" d="M128 136h44v12.571h-44V136Z"></path>
  <path fill="#2D3633" stroke="#fff" stroke-opacity=".5" stroke-width=".6" d="M130.357 138.357h39.286v7.857h-39.286v-7.857Z"></path>
  <circle cx="134.469" cy="142.469" r=".969" fill="#00A870"></circle>
  <path fill="#242424" stroke="#999" stroke-linecap="square" stroke-width="1.2" d="M128 150.929h44V163.5h-44v-12.571Z"></path>
  <path fill="#2D3633" stroke="#fff" stroke-opacity=".5" stroke-width=".6" d="M130.357 153.286h39.286v7.857h-39.286v-7.857Z"></path>
  <circle cx="134.469" cy="157.398" r=".969" fill="#00A870"></circle>
  <path fill="#242424" stroke="#999" stroke-linecap="square" stroke-width="1.2" d="M128 165.857h44v12.572h-44v-12.572Z"></path>
  <path fill="#2D3633" stroke="#fff" stroke-opacity=".5" stroke-width=".6" d="M130.357 168.214h39.286v7.857h-39.286v-7.857Z"></path>
  <circle cx="134.469" cy="172.327" r=".969" fill="#00A870"></circle>
  <path fill="#242424" stroke="#999" stroke-linecap="square" stroke-width="1.2" d="M38 71V45h45.5v26H38Z"></path>
  <path fill="#2D3633" fill-rule="evenodd" stroke="#fff" stroke-linecap="square" stroke-opacity=".64" stroke-width=".6" d="M40.06 68.679V47.322h41.322v21.357c-13.774.002-27.548-.002-41.322 0Z" clip-rule="evenodd"></path>
  <path fill="#00A870" d="M72.272 62v-6.215l-1.355.82v-.995l1.355-.81h.905V62h-.905Zm-8.208 0v-7.2h.9l3.755 5.625V54.8h.9V62h-.9l-3.755-5.63V62h-.9Zm-6.955 0 2.41-7.2h1.24l2.41 7.2h-.925l-2.255-6.68h.28L58.034 62h-.925Zm1.16-1.685v-.835h3.74v.835h-3.74ZM50.355 62l-2.085-7.2h.93l1.6 5.695 1.595-5.69.935-.005 1.6 5.695 1.595-5.695h.935L55.375 62h-.89l-1.62-5.645L51.245 62h-.89Z"></path>
  <path fill="#242424" stroke="#999" stroke-linecap="square" stroke-width="1.2" d="M216 71V45h45.5v26H216Z"></path>
  <path fill="#2D3633" fill-rule="evenodd" stroke="#fff" stroke-linecap="square" stroke-opacity=".64" stroke-width=".6" d="M218.06 68.679V47.322h41.321v21.357c-13.773.002-27.547-.002-41.321 0Z" clip-rule="evenodd"></path>
  <path fill="#00A870" d="m247.458 61.995.005-.8 3.195-2.875c.267-.24.445-.467.535-.68.093-.217.14-.438.14-.665a1.49 1.49 0 0 0-.19-.75 1.42 1.42 0 0 0-1.26-.725 1.485 1.485 0 0 0-1.295.74 1.417 1.417 0 0 0-.185.73h-.91c0-.453.105-.853.315-1.2.21-.35.495-.623.855-.82.363-.2.775-.3 1.235-.3.447 0 .847.103 1.2.31.353.203.632.482.835.835.207.35.31.747.31 1.19 0 .313-.04.585-.12.815-.077.23-.197.443-.36.64-.163.193-.368.4-.615.62l-2.655 2.385-.115-.3h3.865v.85h-4.785Zm-6.753.005v-7.2h.9l3.755 5.625V54.8h.9V62h-.9l-3.755-5.63V62h-.9Zm-6.955 0 2.41-7.2h1.24l2.41 7.2h-.925l-2.255-6.68h.28L234.675 62h-.925Zm1.16-1.685v-.835h3.74v.835h-3.74ZM226.996 62l-2.085-7.2h.93l1.6 5.695 1.595-5.69.935-.005 1.6 5.695 1.595-5.695h.935l-2.085 7.2h-.89l-1.62-5.645-1.62 5.645h-.89ZM125.5 30.5l-5.668-1.097 1.884 5.457 3.784-4.36ZM83.5 45l.163.473.955-.33-.163-.473-.164-.472-.954.33.163.472Zm2.864-.989.163.473 1.909-.66-.163-.472-.163-.472-1.91.659.164.472Zm3.818-1.318.163.473 1.91-.66-.164-.472-.163-.472-1.91.659.164.472ZM94 41.375l.163.473 1.91-.66-.164-.472-.163-.473-1.91.66.164.472Zm3.818-1.318.163.472 1.91-.659-.164-.472-.163-.473-1.909.66.163.472Zm3.818-1.318.164.472 1.909-.659-.164-.472-.163-.473-1.909.659.163.473Zm3.819-1.319.163.473 1.909-.659-.163-.473-.164-.472-1.909.659.164.472Zm3.818-1.318.163.473 1.909-.66-.163-.472-.163-.472-1.909.659.163.472Zm3.818-1.318.163.473 1.909-.66-.163-.472-.163-.473-1.909.66.163.472Zm3.818-1.318.163.472 1.909-.659-.163-.472-.163-.473-1.909.66.163.472Zm3.818-1.318.163.472 1.91-.659-.164-.472-.163-.473-1.909.66.163.472ZM174 30.5l5.668-1.097-1.884 5.457L174 30.5ZM216 45l-.163.473-.955-.33.163-.473.164-.472.954.33L216 45Zm-2.864-.989-.163.473-1.909-.66.163-.472.163-.472 1.91.659-.164.472Zm-3.818-1.318-.163.473-1.909-.66.163-.472.163-.472 1.909.659-.163.472Zm-3.818-1.318-.163.473-1.909-.66.163-.472.163-.473 1.909.66-.163.472Zm-3.818-1.318-.163.472-1.909-.659.163-.472.163-.473 1.909.66-.163.472Zm-3.818-1.318-.164.472-1.909-.659.164-.472.163-.473 1.909.659-.163.473Zm-3.819-1.319-.163.473-1.909-.659.163-.473.164-.472 1.909.659-.164.472Zm-3.818-1.318-.163.473-1.909-.66.163-.472.163-.472 1.909.659-.163.472Zm-3.818-1.318-.163.473-1.909-.66.163-.472.163-.473 1.909.66-.163.472Zm-3.818-1.318-.163.472-1.909-.659.163-.472.163-.473 1.909.66-.163.472Zm-3.818-1.318-.163.472-1.91-.659.164-.472.163-.473 1.909.66-.163.472ZM62.5 129l.853-5.71 4.519 3.594L62.5 129Zm68-85.5.391.311-.629.792-.392-.311-.391-.312.63-.791.391.311Zm-1.889 2.375.391.311-1.259 1.584-.391-.312-.391-.31 1.259-1.584.391.311Zm-2.518 3.167.391.31-1.259 1.584-.392-.311-.391-.311 1.259-1.584.392.312Zm-2.519 3.166.391.312-1.259 1.583-.391-.311-.392-.312 1.26-1.583.391.311Zm-2.518 3.167.391.311-1.259 1.584-.392-.312-.391-.31 1.259-1.584.392.311Zm-2.519 3.167.391.31-1.259 1.584-.391-.311-.392-.311 1.26-1.584.391.312Zm-2.518 3.166.391.312-1.259 1.583-.392-.311-.391-.312 1.259-1.583.392.311Zm-2.519 3.167.391.311-1.259 1.584-.391-.312-.392-.31 1.26-1.584.391.311Zm-2.519 3.167.392.31-1.259 1.584-.392-.311-.391-.311 1.259-1.584.391.312Zm-2.518 3.166.391.312-1.259 1.583-.391-.311-.392-.312 1.26-1.583.391.311Zm-2.519 3.167.392.311-1.259 1.584-.392-.312-.391-.31 1.259-1.584.391.311Zm-2.518 3.167.391.31-1.259 1.584-.391-.311-.392-.311 1.26-1.584.391.312Zm-2.519 3.166.392.312-1.26 1.583-.39-.311-.392-.312 1.259-1.583.391.311Zm-2.518 3.167.391.311-1.259 1.584-.391-.312-.392-.31 1.26-1.584.39.311Zm-2.519 3.167.392.31-1.26 1.584-.39-.311-.392-.311 1.259-1.584.391.312Zm-2.518 3.166.391.312-1.26 1.583-.39-.311-.392-.312 1.26-1.583.39.311Zm-2.519 3.167.392.311-1.26 1.584-.39-.312-.392-.31 1.259-1.584.391.311Zm-2.518 3.167.391.31-1.26 1.584-.39-.311-.392-.311 1.26-1.584.39.312Zm-2.519 3.166.392.312-1.26 1.583-.391-.311-.391-.312 1.259-1.583.391.311Zm-2.518 3.167.391.311-1.26 1.584-.39-.312-.392-.311 1.26-1.583.39.311Zm-2.519 3.167.392.311-1.26 1.583-.391-.311-.391-.311 1.259-1.584.391.312Zm-2.518 3.166.391.312-1.26 1.583-.39-.311-.392-.312 1.26-1.583.39.311Zm-2.519 3.167.392.311-1.26 1.584-.391-.312-.391-.311 1.259-1.583.391.311Zm-2.518 3.167.391.311-1.26 1.583-.39-.311-.392-.311 1.26-1.584.39.312Zm-2.519 3.166.391.312-1.259 1.583-.391-.311-.391-.312 1.259-1.583.391.311Zm-2.518 3.167.39.311-1.258 1.584-.392-.312-.391-.311 1.26-1.583.39.311Zm-2.519 3.167.391.311-1.259 1.583-.391-.311-.391-.311 1.259-1.584.391.312ZM225.5 125l-.428-5.758-4.772 3.25 5.2 2.508ZM170 43.5l-.413.281.555.815.413-.281.413-.281-.555-.815-.413.281Zm1.665 2.445-.413.281 1.11 1.63.413-.281.413-.281-1.11-1.63-.413.281Zm2.22 3.26-.413.281 1.11 1.63.413-.281.413-.281-1.11-1.63-.413.281Zm2.22 3.26-.413.281 1.11 1.63.413-.281.413-.281-1.11-1.63-.413.281Zm2.22 3.26-.413.281 1.11 1.63.413-.281.413-.281-1.11-1.63-.413.281Zm2.22 3.26-.413.281 1.11 1.63.413-.281.413-.281-1.11-1.63-.413.281Zm2.22 3.26-.413.281 1.11 1.63.413-.281.413-.281-1.11-1.63-.413.281Zm2.22 3.26-.413.281 1.11 1.63.413-.281.413-.281-1.11-1.63-.413.281Zm2.22 3.26-.413.281 1.11 1.63.413-.281.413-.281-1.11-1.63-.413.281Zm2.22 3.26-.413.281 1.11 1.63.413-.281.413-.281-1.11-1.63-.413.281Zm2.22 3.26-.413.281 1.11 1.63.413-.281.413-.281-1.11-1.63-.413.281Zm2.22 3.26-.413.281 1.11 1.63.413-.281.413-.281-1.11-1.63-.413.281Zm2.22 3.26-.413.281 1.11 1.63.413-.281.413-.281-1.11-1.63-.413.281Zm2.22 3.26-.413.281 1.11 1.63.413-.281.413-.281-1.11-1.63-.413.281Zm2.22 3.26-.413.281 1.11 1.63.413-.281.413-.281-1.11-1.63-.413.281Zm2.22 3.26-.413.281 1.11 1.63.413-.281.413-.281-1.11-1.63-.413.281Zm2.22 3.26-.413.281 1.11 1.63.413-.281.413-.281-1.11-1.63-.413.281Zm2.22 3.26-.413.281 1.11 1.63.413-.281.413-.281-1.11-1.63-.413.281Zm2.22 3.26-.413.281 1.11 1.63.413-.281.413-.281-1.11-1.63-.413.281Zm2.22 3.26-.413.281 1.11 1.63.413-.281.413-.281-1.11-1.63-.413.281Zm2.22 3.26-.413.281 1.11 1.63.413-.281.413-.281-1.11-1.63-.413.281Zm2.22 3.26-.413.281 1.11 1.63.413-.281.413-.281-1.11-1.63-.413.281Zm2.22 3.26-.413.281 1.11 1.63.413-.281.413-.281-1.11-1.63-.413.281Zm2.22 3.26-.413.281 1.11 1.63.413-.281.413-.281-1.11-1.63-.413.281Zm2.22 3.26-.413.281 1.11 1.63.413-.281.413-.281-1.11-1.63-.413.281Z"></path>
  <path fill="#00A870" d="m84 71.5 5.739-.633-2.321 5.286L84 71.5Zm41 18-.201.458-.932-.41.201-.457.201-.458.932.41-.201.457Zm-2.795-1.227-.201.458-1.864-.819.201-.458.201-.457 1.864.818-.201.458Zm-3.728-1.637-.201.458-1.863-.818.201-.458.201-.458 1.863.819-.201.457ZM114.75 85l-.201.458-1.864-.818.201-.458.201-.458 1.864.818-.201.458Zm-3.727-1.636-.201.457-1.864-.818.201-.457.201-.458 1.864.818-.201.458Zm-3.728-1.637-.201.458-1.863-.818.201-.458.201-.458 1.863.819-.201.457Zm-3.727-1.636-.201.458-1.863-.818.201-.458.201-.458 1.863.818-.201.458Zm-3.727-1.636-.201.457-1.864-.818.201-.458.201-.457 1.864.818-.201.457Zm-3.727-1.637-.201.458-1.864-.818.201-.458.201-.458 1.864.818-.201.458Zm-3.728-1.636-.2.458-1.864-.819.2-.457.202-.458 1.863.818-.2.458Zm-3.727-1.636-.2.457-1.865-.818.202-.458.2-.458 1.864.819-.2.458ZM216 71.5l-5.739-.633 2.321 5.286L216 71.5Zm-41 18 .201.458.932-.41-.201-.457-.201-.458-.932.41.201.457Zm2.795-1.227.201.458 1.864-.819-.201-.458-.201-.457-1.864.818.201.458Zm3.728-1.637.201.458 1.863-.818-.201-.458-.201-.458-1.863.819.201.457ZM185.25 85l.201.458 1.864-.818-.201-.458-.201-.458-1.864.818.201.458Zm3.727-1.636.201.457 1.864-.818-.201-.457-.201-.458-1.864.818.201.458Zm3.728-1.637.201.458 1.863-.818-.201-.458-.201-.458-1.863.819.201.457Zm3.727-1.636.201.458 1.863-.818-.201-.458-.201-.458-1.863.818.201.458Zm3.727-1.636.201.457 1.864-.818-.201-.458-.201-.457-1.864.818.201.457Zm3.727-1.637.201.458 1.864-.818-.201-.458-.201-.458-1.864.818.201.458Zm3.728-1.636.201.458 1.863-.819-.201-.457-.201-.458-1.863.818.201.458Zm3.727-1.636.201.457 1.864-.818-.201-.458-.201-.458-1.864.819.201.458ZM128 166l-5.739.633 2.321-5.286L128 166Zm-41-18 .201-.458.932.409-.201.458-.201.458-.932-.409L87 148Zm2.796 1.227.2-.458 1.864.819-.2.457-.202.458-1.864-.818.202-.458Zm3.727 1.637.2-.458 1.864.818-.2.458-.202.458-1.863-.819.2-.457Zm3.727 1.636.201-.458 1.864.818-.201.458-.201.458-1.864-.818.201-.458Zm3.727 1.636.201-.457 1.864.818-.201.458-.201.457-1.864-.818.201-.458Zm3.728 1.637.201-.458 1.863.818-.201.458-.201.458-1.863-.818.201-.458Zm3.727 1.636.201-.458 1.863.818-.201.458-.201.458-1.863-.818.201-.458Zm3.727 1.636.201-.457 1.864.818-.201.458-.201.457-1.864-.818.201-.458Zm3.727 1.637.201-.458 1.864.818-.201.458-.201.458-1.864-.818.201-.458Zm3.728 1.636.201-.458 1.863.819-.201.457-.201.458-1.863-.818.201-.458Zm3.727 1.637.201-.458 1.864.818-.201.458-.201.458-1.864-.819.201-.457ZM172 166l5.73.703-2.256-5.314L172 166Zm53-22.5-.195-.46-.947.402.196.46.195.46.946-.402-.195-.46Zm-2.839 1.205-.196-.46-1.893.804.196.46.195.46 1.893-.803-.195-.461Zm-3.786 1.607-.195-.46-1.893.804.195.46.196.46 1.892-.803-.195-.461Zm-3.786 1.608-.195-.461-1.893.804.195.46.196.46 1.893-.803-.196-.46Zm-3.785 1.607-.196-.46-1.893.803.196.46.195.461 1.893-.804-.195-.46Zm-3.786 1.607-.196-.46-1.892.803.195.46.195.461 1.893-.804-.195-.46Zm-3.786 1.607-.195-.46-1.893.803.195.461.196.46 1.893-.804-.196-.46Zm-3.786 1.607-.195-.46-1.893.804.196.46.195.46 1.893-.804-.196-.46Zm-3.785 1.607-.196-.46-1.893.804.196.46.195.46 1.893-.803-.195-.461Zm-3.786 1.607-.195-.46-1.893.804.195.46.196.46 1.892-.803-.195-.461Zm-3.786 1.608-.195-.461-1.893.804.195.46.196.46 1.893-.803-.196-.46Zm-3.785 1.607-.196-.46-1.893.803.196.46.195.461 1.893-.804-.195-.46Zm-3.786 1.607-.196-.46-1.892.803.195.461.195.46 1.893-.804-.195-.46Zm-3.786 1.607-.195-.46-1.893.803.195.461.196.46 1.893-.804-.196-.46Z"></path>
  <path fill="#2D3633" stroke="#fff" stroke-opacity=".5" stroke-width=".6" d="M125 99.787h50v10.569h-50V99.787Zm0-12.601h50v10.569h-50v-10.57Z"></path>
  <path fill="#B7EE00" d="M130.285 102.917h8.13v.813h-8.13z"></path>
  <path stroke="#fff" stroke-opacity=".5" stroke-width=".234" d="M126.244 94.41h48m-48 1h48M126 107.503h48m-48 1h48"></path>
  <path fill="#00E195" d="M130.285 90.438h8.13v.813h-8.13z"></path>
  <path fill="#00E195" stroke="#fff" stroke-linecap="square" stroke-opacity=".64" stroke-width=".181" d="M161.992 91.657h1.626v1.626h-1.626zm2.439 0h1.626v1.626h-1.626zm2.439 0h1.626v1.626h-1.626zm2.439 0h1.626v1.626h-1.626z"></path>
  <path fill="#B7EE00" stroke="#fff" stroke-linecap="square" stroke-opacity=".64" stroke-width=".181" d="M161.992 104.259h1.626v1.626h-1.626zm2.439 0h1.626v1.626h-1.626zm2.439 0h1.626v1.626h-1.626zm2.439 0h1.626v1.626h-1.626z"></path>
  <path fill="#00A870" d="m166.561 125.689 1.045-2.84.015.84-2.36-5.8h.935l1.85 4.665h-.32l1.735-4.665h.905l-2.94 7.8h-.865Zm-4.537-2.25c-.403 0-.742-.073-1.015-.22a1.57 1.57 0 0 1-.615-.59 1.602 1.602 0 0 1-.205-.8c0-.283.053-.528.16-.735.11-.21.263-.383.46-.52.197-.14.432-.25.705-.33.257-.07.543-.13.86-.18.32-.053.643-.102.97-.145.327-.043.632-.085.915-.125l-.32.185c.01-.48-.087-.835-.29-1.065-.2-.23-.547-.345-1.04-.345-.327 0-.613.075-.86.225-.243.147-.415.387-.515.72l-.845-.255c.13-.473.382-.845.755-1.115s.865-.405 1.475-.405c.49 0 .91.088 1.26.265.353.173.607.437.76.79a1.7 1.7 0 0 1 .145.545c.02.193.03.397.03.61v3.34h-.79v-1.295l.185.12c-.203.437-.488.767-.855.99-.363.223-.807.335-1.33.335Zm.135-.745c.32 0 .597-.057.83-.17.237-.117.427-.268.57-.455.143-.19.237-.397.28-.62.05-.167.077-.352.08-.555.007-.207.01-.365.01-.475l.31.135-.855.115c-.28.037-.545.077-.795.12-.25.04-.475.088-.675.145a2.233 2.233 0 0 0-.415.18.933.933 0 0 0-.31.285.739.739 0 0 0-.115.425c0 .147.037.287.11.42a.85.85 0 0 0 .35.325c.16.083.368.125.625.125Zm-8.01.595-1.65-5.405.885.005 1.205 3.95 1.215-3.95h.785l1.21 3.95 1.21-3.95h.88l-1.65 5.4h-.74l-1.305-4.105-1.305 4.105h-.74Zm-4.523.15c-.53 0-.993-.117-1.39-.35a2.456 2.456 0 0 1-.92-.985c-.22-.423-.33-.917-.33-1.48 0-.59.108-1.1.325-1.53.217-.433.518-.767.905-1 .39-.237.847-.355 1.37-.355.543 0 1.005.125 1.385.375.383.25.67.607.86 1.07.193.463.277 1.015.25 1.655h-.9v-.32c-.01-.663-.145-1.158-.405-1.485-.26-.33-.647-.495-1.16-.495-.55 0-.968.177-1.255.53-.287.353-.43.86-.43 1.52 0 .637.143 1.13.43 1.48.287.35.695.525 1.225.525.357 0 .667-.082.93-.245.263-.163.47-.398.62-.705l.855.295a2.42 2.42 0 0 1-.95 1.11c-.42.26-.892.39-1.415.39Zm-1.995-2.6v-.715h3.99v.715h-3.99Zm-1.217 2.45c-.32.063-.637.088-.95.075a2.113 2.113 0 0 1-.83-.185 1.19 1.19 0 0 1-.555-.54 1.59 1.59 0 0 1-.175-.645c-.007-.22-.01-.468-.01-.745v-4.86h.89v4.82c0 .22.001.408.005.565a.879.879 0 0 0 .105.405c.12.213.31.338.57.375.263.037.58.027.95-.03v.765Zm-3.615-4.665v-.735h3.615v.735h-3.615Zm-3.49 4.815c-.403 0-.742-.073-1.015-.22a1.57 1.57 0 0 1-.615-.59 1.602 1.602 0 0 1-.205-.8c0-.283.053-.528.16-.735.11-.21.263-.383.46-.52.197-.14.432-.25.705-.33.257-.07.543-.13.86-.18.32-.053.643-.102.97-.145.327-.043.632-.085.915-.125l-.32.185c.01-.48-.087-.835-.29-1.065-.2-.23-.547-.345-1.04-.345-.327 0-.613.075-.86.225-.243.147-.415.387-.515.72l-.845-.255c.13-.473.382-.845.755-1.115s.865-.405 1.475-.405c.49 0 .91.088 1.26.265.353.173.607.437.76.79a1.7 1.7 0 0 1 .145.545c.02.193.03.397.03.61v3.34h-.79v-1.295l.185.12c-.203.437-.488.767-.855.99-.363.223-.807.335-1.33.335Zm.135-.745c.32 0 .597-.057.83-.17.237-.117.427-.268.57-.455.143-.19.237-.397.28-.62.05-.167.077-.352.08-.555.007-.207.01-.365.01-.475l.31.135-.855.115c-.28.037-.545.077-.795.12-.25.04-.475.088-.675.145a2.233 2.233 0 0 0-.415.18.933.933 0 0 0-.31.285.739.739 0 0 0-.115.425c0 .147.037.287.11.42a.85.85 0 0 0 .35.325c.16.083.368.125.625.125Zm-5.894.745c-.493 0-.943-.087-1.35-.26a2.987 2.987 0 0 1-1.05-.745 3.435 3.435 0 0 1-.68-1.18 4.887 4.887 0 0 1-.235-1.565c0-.767.137-1.43.41-1.99.274-.56.659-.992 1.155-1.295.497-.307 1.08-.46 1.75-.46.807 0 1.457.188 1.95.565.494.373.834.885 1.02 1.535l-.9.185a2.145 2.145 0 0 0-.74-1.045c-.343-.26-.771-.39-1.285-.39-.536-.003-.983.117-1.34.36-.353.24-.62.578-.8 1.015-.18.437-.271.943-.275 1.52-.003.573.085 1.077.265 1.51.18.433.449.773.805 1.02.36.243.809.367 1.345.37.464.003.854-.085 1.17-.265.317-.18.562-.44.735-.78.174-.34.279-.748.315-1.225h-1.53v-.735h2.47c.01.067.015.147.015.24.004.09.005.152.005.185 0 .657-.123 1.245-.37 1.765a2.809 2.809 0 0 1-1.085 1.22c-.476.297-1.066.445-1.77.445Z"></path>
</svg>