<svg xmlns="http://www.w3.org/2000/svg" width="300" height="160" fill="none" viewBox="0 0 300 160">
  <path fill="#2D3633" stroke="#999" stroke-linecap="square" stroke-width="1.2" d="M86.096 34h116.648v79.636H86.096z"></path>
  <path fill="#242424" stroke="#fff" stroke-linecap="square" stroke-opacity=".64" stroke-width=".785" d="M91.703 40.73h105.431v72.906H91.703z"></path>
  <path fill="#00A870" d="M123.891 82.605c1.128 0 2.091-.153 2.887-.46.797-.306 1.45-.75 1.961-1.329.51-.58.881-1.27 1.114-2.07.233-.801.349-1.704.349-2.71 0-2.01-.447-3.582-1.342-4.715-.896-1.133-2.364-1.7-4.405-1.7h-3.706v12.984h3.142Zm.538-15.617c1.414 0 2.685.184 3.813.55 1.128.366 2.086.924 2.873 1.674.788.75 1.392 1.691 1.813 2.824.421 1.133.631 2.458.631 3.975 0 1.516-.224 2.85-.671 4-.448 1.15-1.092 2.113-1.934 2.888-.841.775-1.866 1.36-3.075 1.751-1.208.392-2.573.588-4.095.588H117.5v-18.25h6.929Zm12.567 0h3.008l8.809 13.19v-13.19h3.168v18.25h-3.007L140.138 72.1v13.138h-3.142v-18.25Zm21.189 12.678c.143 1.193.595 2.062 1.356 2.607.761.545 1.893.818 3.397.818.734 0 1.352-.077 1.853-.23.501-.154.904-.358 1.209-.614.304-.255.519-.558.644-.907.125-.35.188-.72.188-1.112 0-.29-.045-.575-.134-.856a1.975 1.975 0 0 0-.484-.78c-.232-.238-.546-.447-.94-.626-.393-.179-.895-.32-1.503-.421l-2.444-.435a17.469 17.469 0 0 1-2.578-.639c-.752-.256-1.383-.592-1.893-1.01a3.971 3.971 0 0 1-1.155-1.533c-.26-.605-.39-1.342-.39-2.211 0-.87.184-1.627.551-2.275a4.795 4.795 0 0 1 1.517-1.623c.645-.434 1.41-.758 2.296-.971a12.34 12.34 0 0 1 2.887-.32c1.325 0 2.435.145 3.33.435.895.29 1.62.669 2.175 1.137.555.469.976 1.01 1.263 1.623a7.24 7.24 0 0 1 .59 1.917l-3.061.46c-.251-1.022-.685-1.78-1.303-2.274-.617-.495-1.597-.742-2.94-.742-.77 0-1.41.064-1.92.192s-.922.307-1.236.537c-.313.23-.537.494-.671.792-.134.298-.201.61-.201.933 0 .8.228 1.397.684 1.79.457.391 1.258.698 2.404.92l2.659.485c2.023.358 3.509.967 4.457 1.827.949.861 1.424 2.1 1.424 3.72 0 .766-.148 1.478-.443 2.134a4.597 4.597 0 0 1-1.357 1.712c-.608.486-1.365.87-2.269 1.15-.904.281-1.956.422-3.155.422-2.453 0-4.377-.49-5.774-1.47-1.396-.98-2.166-2.5-2.309-4.562h3.276Z"></path>
  <path stroke="#999" stroke-linecap="square" stroke-width="1.2" d="M76 113.635h135.715v5.608H76z"></path>
  <path fill="#242424" d="M201.504 76.62c9.671 0 18.015 5.676 21.887 13.878.438-.034.881-.05 1.328-.05 9.544 0 17.281 7.737 17.281 17.28 0 9.543-7.737 17.28-17.281 17.28-.19 0-.379-.004-.568-.01v.007h-46.77l-.071.001c-7.635 0-13.824-6.189-13.824-13.824s6.189-13.824 13.824-13.824c.083 0 .165.001.247.003 1.675-11.726 11.758-20.74 23.947-20.74Z"></path>
  <path fill="#999" d="M201.504 76.62v-.6.6Zm21.887 13.878-.542.256.176.373.412-.031-.046-.598Zm1.328-.05v-.6.6ZM242 107.728h.6-.6Zm-17.281 17.28v.6-.6Zm-.568-.01.019-.6-.619-.02v.62h.6Zm0 .007v.6h.6v-.6h-.6Zm-46.77 0v-.6h-.003l.003.6Zm-.071.001v.6-.6Zm-13.824-13.824h-.6.6Zm13.824-13.824v-.6.6Zm.247.003-.01.6.529.009.075-.524-.594-.085Zm23.947-20.74v.6c9.431 0 17.568 5.533 21.345 13.533l.542-.256.543-.257c-3.968-8.403-12.518-14.22-22.43-14.22v.6Zm21.887 13.877.046.598c.422-.032.85-.048 1.282-.048v-1.2c-.461 0-.919.017-1.373.051l.045.599Zm1.328-.05v.6c9.213 0 16.681 7.468 16.681 16.68h1.2c0-9.875-8.006-17.88-17.881-17.88v.6ZM242 107.728h-.6c0 9.212-7.468 16.68-16.681 16.68v1.2c9.875 0 17.881-8.005 17.881-17.88h-.6Zm-17.281 17.28v-.6c-.181 0-.363-.004-.549-.01l-.019.6-.02.599c.192.006.389.011.588.011v-.6Zm-.568-.01h-.6v.007h1.2v-.007h-.6Zm0 .007v-.6h-46.77v1.2h46.77v-.6Zm-46.77 0-.003-.6-.068.001v1.2h.047l.027-.001-.003-.6Zm-.071.001v-.6c-7.303 0-13.224-5.92-13.224-13.224h-1.2c0 7.966 6.458 14.424 14.424 14.424v-.6Zm-13.824-13.824h.6c0-7.303 5.92-13.224 13.224-13.224v-1.2c-7.966 0-14.424 6.458-14.424 14.424h.6Zm13.824-13.824v.6l.237.003.01-.6.011-.6c-.081-.001-.169-.003-.258-.003v.6Zm.247.003.594.085c1.634-11.435 11.467-20.225 23.353-20.225v-1.2c-12.492 0-22.824 9.238-24.541 21.255l.594.085Z"></path>
  <path fill="#2D3633" d="M202.155 81.11c9.047 0 16.072 5.648 18.618 13.523a19.757 19.757 0 0 1 1.599-.064c8.363 0 15.142 5.212 15.142 12.935-.001 7.662-6.672 13.883-14.943 13.981v.001h-.043l-.156.002-.156-.002h-19.908l-.153.002-.152-.002h-21.588v-.002l-.103.003c-6.195 0-11.216-4.742-11.216-10.591 0-4.854 5.021-9.598 11.216-9.598.378 0 .752.013 1.121.041v-.04c0-11.15 9.278-20.19 20.722-20.19Z"></path>
  <path fill="#fff" fill-opacity=".64" d="M202.155 81.11v-.3.3Zm18.618 13.523-.285.092.073.226.237-.02-.025-.298Zm1.599-.064v-.3.3Zm15.142 12.935h.3-.3Zm-14.943 13.981-.003-.3-.297.004v.296h.3Zm0 .001v.3h.3v-.3h-.3Zm-.043 0v-.3h-.002l.002.3Zm-.156.002v.3-.3Zm-.156-.002.003-.3h-.003v.3Zm-19.908 0v-.3h-.002l.002.3Zm-.153.002v.3-.3Zm-.152-.002.002-.3h-.002v.3Zm-21.588 0h-.3v.3h.3v-.3Zm0-.002h.3v-.302l-.303.002.003.3Zm-.103.003v.3-.3Zm-11.216-10.591h-.3.3Zm11.216-9.598v-.3.3Zm1.121.041-.023.299.323.024v-.324l-.3.001Zm0-.04h-.3.3Zm20.722-20.19v.3c8.911 0 15.824 5.56 18.333 13.316l.285-.092.286-.093c-2.585-7.992-9.72-13.73-18.904-13.73v.3Zm18.618 13.524.025.299a19.422 19.422 0 0 1 1.574-.063v-.6c-.547 0-1.089.021-1.623.065l.024.299Zm1.599-.064v.3c8.252 0 14.842 5.128 14.842 12.635h.6c0-7.94-6.969-13.235-15.442-13.235v.3Zm15.142 12.935h-.3c-.001 7.476-6.517 13.584-14.646 13.681l.003.3.004.3c8.412-.1 15.238-6.433 15.239-14.281h-.3Zm-14.943 13.981h-.3v.001h.6v-.001h-.3Zm0 .001v-.3h-.043v.6h.043v-.3Zm-.043 0-.002-.3-.154.002v.6l.159-.002-.003-.3Zm-.156.002v-.3l-.153-.002-.003.3-.003.3.159.002v-.3Zm-.156-.002v-.3h-19.908v.6h19.908v-.3Zm-19.908 0-.002-.3-.151.002v.6l.155-.002-.002-.3Zm-.153.002v-.3l-.15-.002-.002.3-.002.3a6.9 6.9 0 0 0 .154.002v-.3Zm-.152-.002v-.3h-21.588v.6h21.588v-.3Zm-21.588 0h.3v-.002h-.6v.002h.3Zm0-.002-.003-.3a1.538 1.538 0 0 1-.061.002l-.039.001v.6l.063-.001.043-.002-.003-.3Zm-.103.003v-.3c-6.046 0-10.916-4.624-10.916-10.291h-.6c0 6.031 5.172 10.891 11.516 10.891v-.3Zm-11.216-10.591h.3c0-4.655 4.851-9.298 10.916-9.298v-.6c-6.324 0-11.516 4.844-11.516 9.898h.3Zm11.216-9.598v.3c.371 0 .737.013 1.098.04l.023-.299.022-.299a15.407 15.407 0 0 0-1.143-.042v.3Zm1.121.041.3-.001v-.039h-.6v.04h.3Zm0-.04h.3c0-10.977 9.136-19.89 20.422-19.89v-.6c-11.603 0-21.022 9.167-21.022 20.49h.3Z"></path>
  <circle cx="98.432" cy="47.46" r="2.243" fill="#FF4D62"></circle>
  <circle cx="105.161" cy="47.46" r="2.243" fill="#CCA200"></circle>
  <circle cx="111.891" cy="47.46" r="2.243" fill="#00A870"></circle>
</svg>