<svg xmlns="http://www.w3.org/2000/svg" width="600" height="121" fill="none" viewBox="0 0 600 121">
  <path fill="#fff" d="M0 0h600v121H0z"></path>
  <g clip-path="url(#a)">
    <rect width="568" height="90.746" x="16" y="15.361" fill="#1A1A1A" rx="6.722"></rect>
    <mask id="b" fill="#fff">
      <path d="M16 15.36h40.331v33.61H16V15.36Z"></path>
    </mask>
    <path fill="#212121" d="M16 15.36h40.331v33.61H16V15.36Z"></path>
    <path fill="#fff" fill-opacity=".1" d="M56.331 48.97v-.84H16v1.68h40.331v-.84Z" mask="url(#b)"></path>
    <rect width="12.43" height="12.43" x="29.951" y="25.951" stroke="#fff" stroke-opacity=".24" stroke-width="1.014" rx="2.014"></rect>
    <mask id="c" fill="#fff">
      <path d="M16 48.97h40.331v57.136H16V48.97Z"></path>
    </mask>
    <path fill="#fff" fill-opacity=".1" d="M56.331 106.106v-.84H16v1.681h40.331v-.841Z" mask="url(#c)"></path>
    <rect width="12.43" height="12.43" x="29.951" y="71.323" stroke="#fff" stroke-opacity=".24" stroke-width="1.014" rx="2.014"></rect>
    <mask id="d" fill="#fff">
      <path d="M56.331 15.36h190.734v33.61H56.332V15.36Z"></path>
    </mask>
    <path fill="#212121" d="M56.331 15.36h190.734v33.61H56.332V15.36Z"></path>
    <path fill="#fff" fill-opacity=".1" d="M247.065 48.97v-.84H56.332v1.68h190.733v-.84Z" mask="url(#d)"></path>
    <path fill="#fff" fill-opacity=".8" d="M114.291 37.166v-8.47h2.653c.078 0 .223.002.435.006.216.004.422.02.618.047.662.082 1.219.32 1.67.712.455.392.798.89 1.029 1.494.232.6.347 1.258.347 1.976 0 .721-.115 1.384-.347 1.988a3.663 3.663 0 0 1-1.029 1.488c-.451.388-1.008.623-1.67.706a5.134 5.134 0 0 1-.618.047c-.212.004-.357.006-.435.006h-2.653Zm1.259-1.17h1.394c.133 0 .292-.005.476-.013.185-.008.347-.023.488-.047.432-.082.781-.268 1.047-.559.271-.294.469-.654.594-1.082.126-.427.189-.882.189-1.364a4.72 4.72 0 0 0-.194-1.382 2.659 2.659 0 0 0-.6-1.07 1.81 1.81 0 0 0-1.036-.554 2.93 2.93 0 0 0-.494-.047 11.22 11.22 0 0 0-.47-.012h-1.394v6.13Zm6.863 1.17v-8.47h5.411v1.159h-4.182v2.376h3.476v1.158h-3.476v2.618h4.182v1.159h-5.411Zm8.812 0-2.753-8.47h1.276l2.347 7.229 2.376-7.23h1.277l-2.753 8.47h-1.77Zm5.527 0v-8.47h1.23v8.47h-1.23Zm6.531.176c-.847 0-1.569-.184-2.165-.553a3.637 3.637 0 0 1-1.37-1.553c-.314-.662-.471-1.43-.471-2.305 0-.875.157-1.643.471-2.306a3.6 3.6 0 0 1 1.37-1.547c.596-.372 1.318-.558 2.165-.558.976 0 1.784.247 2.423.74.643.495 1.09 1.16 1.341 1.994l-1.247.336c-.165-.592-.459-1.057-.882-1.394-.42-.338-.965-.506-1.635-.506-.6 0-1.1.135-1.5.406-.4.27-.702.649-.906 1.135-.2.486-.3 1.053-.3 1.7-.004.647.094 1.213.294 1.7a2.5 2.5 0 0 0 .906 1.135c.404.27.906.406 1.506.406.67 0 1.215-.17 1.635-.506.423-.341.717-.806.882-1.394l1.247.335c-.251.835-.698 1.5-1.341 1.994-.639.494-1.447.741-2.423.741Zm5.057-.176v-8.47h5.412v1.159h-4.182v2.376h3.476v1.158h-3.476v2.618h4.182v1.159h-5.412Zm9.179 0v-8.47h1.247l4.17 6.293v-6.293h1.247v8.47h-1.247l-4.17-6.3v6.3h-1.247Zm7.717 0 2.753-8.47h1.77l2.753 8.47h-1.276l-2.535-7.729h.317l-2.505 7.729h-1.277Zm1.43-1.912v-1.153h4.423v1.153h-4.423Zm6.901 1.912v-8.47h1.112l3.07 6.37 3.053-6.37h1.123v8.464h-1.164v-5.794l-2.735 5.8h-.559l-2.741-5.8v5.8h-1.159Zm10.006 0v-8.47h5.411v1.159h-4.182v2.376h3.476v1.158h-3.476v2.618h4.182v1.159h-5.411Z"></path>
    <g opacity=".01">
      <path fill="#008055" fill-rule="evenodd" d="M209.373 30.905h-7.562l3.781-5.041 3.781 5.041Z" clip-rule="evenodd"></path>
      <path fill="#fff" fill-opacity=".24" fill-rule="evenodd" d="M209.373 33.426h-7.562l3.781 5.041 3.781-5.041Z" clip-rule="evenodd"></path>
    </g>
    <mask id="e" fill="#fff">
      <path d="M56.331 48.97h190.734v57.136H56.332V48.97Z"></path>
    </mask>
    <path fill="#fff" fill-opacity=".1" d="M247.065 106.106v-.84H56.332v1.681h190.733v-.841Z" mask="url(#e)"></path>
    <path fill="url(#f)" d="M70.532 63.17h28.736v28.736H70.532z"></path>
    <path fill="#fff" fill-opacity=".8" d="M117.72 82.715c-.843 0-1.555-.187-2.135-.559a3.543 3.543 0 0 1-1.317-1.559c-.298-.662-.447-1.427-.447-2.293 0-.867.149-1.632.447-2.294a3.506 3.506 0 0 1 1.317-1.553c.58-.376 1.292-.565 2.135-.565.847 0 1.559.189 2.135.565.581.372 1.02.89 1.318 1.553.302.662.453 1.427.453 2.293 0 .867-.151 1.632-.453 2.294a3.539 3.539 0 0 1-1.318 1.559c-.576.372-1.288.559-2.135.559Zm0-.83c.663 0 1.216-.15 1.659-.452.443-.302.774-.722.994-1.26.223-.54.335-1.164.335-1.87 0-.705-.112-1.327-.335-1.864a2.731 2.731 0 0 0-.994-1.259c-.443-.302-.996-.455-1.659-.458-.662 0-1.213.15-1.653.453-.439.301-.77.723-.994 1.264-.219.537-.331 1.159-.335 1.865-.004.705.104 1.327.324 1.864a2.8 2.8 0 0 0 1 1.259c.443.302.996.454 1.658.458Zm8.024.83a4.148 4.148 0 0 1-1.599-.294 3.098 3.098 0 0 1-1.171-.847 2.778 2.778 0 0 1-.6-1.3l.882-.147c.142.549.44.98.894 1.294.455.31.998.464 1.63.464.415 0 .788-.064 1.117-.194a1.82 1.82 0 0 0 .777-.564c.188-.243.282-.532.282-.865 0-.22-.039-.406-.118-.559a1.116 1.116 0 0 0-.312-.388 1.904 1.904 0 0 0-.423-.253 3.343 3.343 0 0 0-.447-.17l-2.147-.641a3.879 3.879 0 0 1-.717-.283 2.53 2.53 0 0 1-.577-.417 1.781 1.781 0 0 1-.376-.577c-.09-.22-.135-.47-.135-.753 0-.478.125-.892.376-1.24a2.415 2.415 0 0 1 1.029-.806c.435-.189.932-.28 1.488-.277.565 0 1.069.1 1.512.3.447.2.815.486 1.106.859.29.368.482.806.576 1.311l-.906.165a2.05 2.05 0 0 0-.406-.959 2.067 2.067 0 0 0-.811-.623 2.62 2.62 0 0 0-1.077-.23c-.38 0-.719.065-1.017.195a1.737 1.737 0 0 0-.7.517c-.173.22-.259.47-.259.753 0 .286.079.516.235.688.161.173.357.308.589.406.235.098.462.178.682.241l1.659.489c.172.046.374.115.605.205.236.087.463.212.683.377a1.9 1.9 0 0 1 .552.635c.146.263.218.596.218 1 0 .392-.078.743-.235 1.053-.153.31-.371.57-.653.782a2.983 2.983 0 0 1-.982.482c-.373.114-.781.17-1.224.17Zm5.896-.177-2.447-8.47h.9l1.982 6.994 1.97-6.987.906-.006 1.982 6.993 1.971-6.993h.906l-2.441 8.47h-.871l-2-6.947-1.988 6.946h-.87Zm8.542-3.335v-.74h3.529v.74h-3.529Zm7.639 3.512c-.529 0-.998-.106-1.406-.318a2.396 2.396 0 0 1-.953-.888c-.227-.384-.341-.833-.341-1.347 0-.525.128-.992.383-1.4.254-.411.643-.723 1.164-.935l-.012.341a1.913 1.913 0 0 1-.994-.788 2.247 2.247 0 0 1-.341-1.212c0-.47.108-.874.324-1.211a2.14 2.14 0 0 1 .882-.788 2.906 2.906 0 0 1 1.294-.277 2.9 2.9 0 0 1 1.294.277c.376.184.672.447.888.788.216.337.323.741.323 1.212 0 .443-.109.844-.329 1.205-.216.361-.547.626-.994.794l-.029-.34c.521.207.911.517 1.17.928.263.412.394.88.394 1.406 0 .514-.115.963-.347 1.347a2.38 2.38 0 0 1-.959.888c-.407.212-.878.318-1.411.318Zm0-.83c.533 0 .966-.147 1.3-.44.333-.299.5-.726.5-1.283 0-.565-.165-.992-.494-1.282-.33-.294-.765-.441-1.306-.441s-.975.147-1.3.44c-.325.291-.488.718-.488 1.283 0 .557.165.984.494 1.282.329.294.761.441 1.294.441Zm0-4.281c.47 0 .853-.12 1.147-.36.294-.242.441-.601.441-1.076 0-.474-.147-.829-.441-1.064-.294-.24-.677-.359-1.147-.359-.471 0-.853.12-1.147.359-.29.235-.435.59-.435 1.064 0 .475.145.834.435 1.077.294.239.676.359 1.147.359Zm7.635 5.11a4.001 4.001 0 0 1-1.611-.31 3.413 3.413 0 0 1-1.224-.89 3.961 3.961 0 0 1-.764-1.387 5.885 5.885 0 0 1-.265-1.823c0-.887.153-1.66.459-2.318.309-.663.753-1.176 1.329-1.54.576-.365 1.268-.548 2.076-.548.902 0 1.635.212 2.2.635.568.42.965.985 1.188 1.694l-.87.212a2.57 2.57 0 0 0-.912-1.241c-.42-.31-.943-.465-1.571-.465-.662-.004-1.213.145-1.652.447-.439.298-.771.718-.994 1.26-.22.536-.332 1.158-.336 1.864-.003.705.104 1.327.324 1.864.223.533.557.953 1 1.259.443.302.996.454 1.658.458.608 0 1.11-.117 1.506-.352.396-.236.696-.573.9-1.012.208-.44.326-.959.353-1.559h-1.953v-.74h2.859c.012.09.017.185.017.287.004.098.006.169.006.212 0 .765-.137 1.449-.411 2.053a3.25 3.25 0 0 1-1.241 1.423c-.549.345-1.24.518-2.071.518Zm4.783-3.51v-.742h3.529v.741h-3.529Zm7.922 3.51a2.81 2.81 0 0 1-1.447-.382 2.93 2.93 0 0 1-1.035-1.046 2.94 2.94 0 0 1-.383-1.494v-2.935c0-.569.128-1.075.383-1.518a2.783 2.783 0 0 1 1.041-1.053 2.929 2.929 0 0 1 1.505-.388c.483 0 .93.106 1.341.318a2.72 2.72 0 0 1 1.018.888l-.665.547a2.01 2.01 0 0 0-1.694-.93c-.396 0-.749.097-1.058.289a2.086 2.086 0 0 0-.994 1.77v1.847l-.218-.247c.247-.388.57-.702.97-.941a2.54 2.54 0 0 1 1.318-.359c.525 0 .998.126 1.417.377a2.773 2.773 0 0 1 1.371 2.43c0 .52-.132.995-.394 1.422a2.93 2.93 0 0 1-1.041 1.023 2.77 2.77 0 0 1-1.435.383Zm0-.84a1.95 1.95 0 0 0 1.005-.265c.306-.176.547-.416.724-.718.18-.302.27-.637.27-1.005 0-.369-.09-.704-.27-1.006a1.959 1.959 0 0 0-.718-.724 1.924 1.924 0 0 0-1.006-.27 2.005 2.005 0 0 0-1.729.994 1.96 1.96 0 0 0-.264 1.006c0 .364.088.698.264 1a1.956 1.956 0 0 0 1.724.988Zm7.194.84c-.521 0-.992-.12-1.411-.364a2.72 2.72 0 0 1-.989-.988 2.765 2.765 0 0 1-.364-1.412v-3.293a2.733 2.733 0 0 1 1.353-2.4 2.76 2.76 0 0 1 1.411-.365c.522 0 .99.122 1.406.365.419.243.751.574.994.994.243.416.365.884.365 1.406v3.293c0 .522-.122.992-.365 1.412a2.733 2.733 0 0 1-2.4 1.353Zm0-.834c.349 0 .667-.085.953-.253a1.94 1.94 0 0 0 .682-.688 1.83 1.83 0 0 0 .253-.947v-3.377c0-.349-.084-.666-.253-.952a1.893 1.893 0 0 0-.682-.683 1.81 1.81 0 0 0-.953-.258 1.9 1.9 0 0 0-1.635.941 1.848 1.848 0 0 0-.253.952v3.377c0 .345.085.66.253.947.169.286.396.515.682.688.287.168.604.253.953.253Zm6.233.658-2.447-8.47h.9l1.982 6.994 1.971-6.987.905-.006 1.983 6.993 1.97-6.993h.906l-2.441 8.47h-.871l-1.999-6.947-1.988 6.946h-.871Z"></path>
    <mask id="g" fill="#fff">
      <path d="M247.065 15.36H584v33.61H247.065V15.36Z"></path>
    </mask>
    <path fill="#212121" d="M247.065 15.36H584v33.61H247.065V15.36Z"></path>
    <path fill="#fff" fill-opacity=".1" d="M584 48.97v-.84H247.065v1.68H584v-.84Z" mask="url(#g)"></path>
    <path fill="#fff" fill-opacity=".8" d="M261.332 37.166v-8.47h3.423c.083 0 .185.004.306.012.122.004.237.015.347.035.471.075.863.235 1.177.482.317.247.554.559.711.935.157.377.235.793.235 1.247 0 .46-.078.877-.235 1.253a2.276 2.276 0 0 1-.711.935c-.314.247-.706.408-1.177.483-.11.015-.227.027-.353.035a4.76 4.76 0 0 1-.3.012h-2.194v3.04h-1.229Zm1.229-4.206h2.147c.079 0 .165-.004.259-.012.098-.008.19-.021.277-.04.25-.06.452-.167.605-.324a1.43 1.43 0 0 0 .33-.553 1.996 1.996 0 0 0 0-1.241 1.38 1.38 0 0 0-.33-.547 1.189 1.189 0 0 0-.605-.33 1.522 1.522 0 0 0-.277-.047 3.103 3.103 0 0 0-.259-.011h-2.147v3.105Zm9.681 4.382c-.847 0-1.568-.184-2.164-.553a3.646 3.646 0 0 1-1.371-1.553c-.313-.662-.47-1.43-.47-2.305 0-.875.157-1.643.47-2.306a3.609 3.609 0 0 1 1.371-1.547c.596-.372 1.317-.558 2.164-.558.843 0 1.563.186 2.159.558.6.369 1.056.884 1.37 1.547.314.663.471 1.431.471 2.306 0 .874-.157 1.643-.471 2.305a3.593 3.593 0 0 1-1.37 1.553c-.596.369-1.316.553-2.159.553Zm0-1.17c.6.007 1.098-.124 1.494-.394.4-.275.7-.655.9-1.142.2-.49.3-1.058.3-1.705s-.1-1.212-.3-1.694a2.46 2.46 0 0 0-.9-1.135c-.396-.27-.894-.408-1.494-.412-.6-.008-1.1.123-1.5.394-.396.27-.694.65-.894 1.141-.2.49-.302 1.059-.306 1.706-.003.647.095 1.213.295 1.7.2.482.499.858.899 1.129.404.27.906.408 1.506.412Zm5.173.994v-8.47h3.423c.082 0 .184.004.306.012.121.004.237.015.347.035.47.075.863.235 1.176.482.318.247.555.559.712.935.157.377.235.793.235 1.247 0 .675-.172 1.257-.517 1.747-.345.486-.863.79-1.553.912l-.5.059h-2.4v3.04h-1.229Zm4.952 0-1.67-3.447 1.241-.318 1.835 3.764h-1.406Zm-3.723-4.206h2.147c.078 0 .165-.004.259-.012.098-.008.19-.021.276-.04.251-.06.453-.167.606-.324.153-.161.263-.345.329-.553a1.967 1.967 0 0 0 0-1.241 1.366 1.366 0 0 0-.329-.547 1.188 1.188 0 0 0-.606-.33 1.496 1.496 0 0 0-.276-.047 3.122 3.122 0 0 0-.259-.011h-2.147v3.105Zm8.533 4.206v-7.311h-2.817v-1.16h6.864v1.16h-2.818v7.31h-1.229Zm8.058.176a4.178 4.178 0 0 1-1.647-.312 3.154 3.154 0 0 1-1.205-.9 3.022 3.022 0 0 1-.612-1.394l1.282-.194c.129.518.4.922.812 1.212.411.286.892.43 1.441.43.341 0 .655-.054.941-.16a1.69 1.69 0 0 0 .688-.464 1.08 1.08 0 0 0 .265-.73.948.948 0 0 0-.3-.711 1.17 1.17 0 0 0-.336-.23 2.49 2.49 0 0 0-.429-.17l-2.17-.641a5.192 5.192 0 0 1-.647-.241 2.54 2.54 0 0 1-.606-.394 1.943 1.943 0 0 1-.441-.606c-.114-.243-.171-.537-.171-.883 0-.521.134-.962.4-1.323a2.48 2.48 0 0 1 1.094-.823 4.03 4.03 0 0 1 1.541-.283c.573.008 1.084.11 1.535.306.455.196.832.479 1.13.847.302.365.509.808.623 1.33l-1.317.223a1.733 1.733 0 0 0-.377-.818 1.88 1.88 0 0 0-.706-.529 2.245 2.245 0 0 0-.905-.194 2.218 2.218 0 0 0-.865.141 1.533 1.533 0 0 0-.623.43.966.966 0 0 0-.23.635c0 .235.069.425.206.57.137.145.306.261.506.347.204.083.406.151.606.206l1.564.441c.196.055.418.13.665.224.251.09.492.217.723.382.235.165.43.384.582.659.153.27.23.611.23 1.023 0 .428-.086.804-.259 1.13-.172.321-.41.591-.712.811a3.236 3.236 0 0 1-1.035.488c-.392.11-.806.165-1.241.165Z"></path>
    <g opacity=".01">
      <path fill="#008055" fill-rule="evenodd" d="M318.414 30.905h-7.562l3.781-5.041 3.781 5.041Z" clip-rule="evenodd"></path>
      <path fill="#fff" fill-opacity=".24" fill-rule="evenodd" d="M318.414 33.426h-7.562l3.781 5.041 3.781-5.041Z" clip-rule="evenodd"></path>
    </g>
    <mask id="h" fill="#fff">
      <path d="M247.065 48.97H584v57.136H247.065V48.97Z"></path>
    </mask>
    <path fill="#fff" fill-opacity=".1" d="M584 106.106v-.84H247.065v1.681H584v-.841Z" mask="url(#h)"></path>
    <path fill="#fff" fill-opacity=".5" d="M271.438 68.435v-5.361l-1.139.685v-.694l1.139-.68h.626v6.05h-.626Z"></path>
    <rect width="21.846" height="21.846" x="260.509" y="73.795" fill="#008055" rx="3.361"></rect>
    <path stroke="#fff" stroke-width=".84" d="m266.391 85.042 3.361 3.878 6.721-8.403"></path>
    <path fill="#fff" fill-opacity=".5" d="m299.705 68.43.004-.563 2.735-2.47c.235-.213.39-.414.466-.605.078-.193.118-.395.118-.605a1.314 1.314 0 0 0-.652-1.155 1.261 1.261 0 0 0-.668-.18c-.257 0-.487.06-.688.184a1.369 1.369 0 0 0-.479.487 1.275 1.275 0 0 0-.168.66h-.631c0-.367.087-.696.261-.987a1.85 1.85 0 0 1 .706-.685 2.009 2.009 0 0 1 1.008-.252c.367 0 .696.087.987.26.294.171.525.404.693.698.171.291.257.616.257.974 0 .252-.031.475-.093.668-.059.19-.152.369-.281.534a3.79 3.79 0 0 1-.483.504l-2.429 2.193-.096-.252h3.382v.592h-3.949Z"></path>
    <rect width="21.846" height="21.846" x="290.757" y="73.795" fill="#fff" fill-opacity=".24" rx="3.361"></rect>
    <path fill="#fff" fill-opacity=".5" d="M331.821 68.556c-.3 0-.576-.053-.828-.16a1.87 1.87 0 0 1-.651-.453 1.827 1.827 0 0 1-.399-.71l.588-.176c.101.3.266.526.496.68.232.154.494.228.785.223.269-.006.5-.066.694-.18.196-.116.346-.275.449-.48a1.54 1.54 0 0 0 .156-.71c0-.412-.121-.742-.362-.991-.238-.252-.553-.378-.945-.378-.109 0-.224.015-.344.046a1.457 1.457 0 0 0-.337.122l-.31-.492 2.352-2.172.101.252h-3.084v-.592h3.496v.6l-2.05 1.958-.009-.243c.42-.053.79-.006 1.109.143.32.148.569.375.748.68.182.303.273.658.273 1.067 0 .387-.084.728-.252 1.025a1.802 1.802 0 0 1-.685.694 1.97 1.97 0 0 1-.991.247Z"></path>
    <rect width="21.846" height="21.846" x="321.006" y="73.795" fill="#fff" fill-opacity=".24" rx="3.361"></rect>
    <path fill="#fff" fill-opacity=".5" d="M362.126 68.56c-.313 0-.603-.064-.869-.193a2.016 2.016 0 0 1-.681-.533 2.084 2.084 0 0 1-.403-.782l.592-.16c.053.22.15.408.29.568.14.157.304.279.492.365.19.087.389.13.596.13.269 0 .51-.064.723-.193.216-.131.386-.305.512-.52.126-.216.189-.453.189-.71 0-.267-.065-.506-.197-.719a1.473 1.473 0 0 0-.521-.513 1.376 1.376 0 0 0-.706-.189c-.285 0-.532.063-.739.19a1.498 1.498 0 0 0-.496.466l-.563-.235.185-3.147h3.231v.592h-2.958l.307-.29-.164 2.685-.156-.206a1.83 1.83 0 0 1 .631-.466c.246-.112.505-.168.777-.168a1.968 1.968 0 0 1 1.722.987c.177.302.265.64.265 1.012 0 .37-.094.709-.281 1.017-.188.305-.437.55-.748.735a1.977 1.977 0 0 1-1.03.278Z"></path>
    <rect width="21.846" height="21.846" x="351.254" y="73.795" fill="#008055" rx="3.361"></rect>
    <path stroke="#fff" stroke-width=".84" d="m357.136 85.042 3.361 3.878 6.722-8.403"></path>
    <path fill="#fff" fill-opacity=".5" d="M393.2 68.435v-1.173h-2.832v-.588l2.025-4.29h.693l-2.025 4.29h2.139V64.91h.621v1.764h.66v.588h-.66v1.173h-.621Z"></path>
    <rect width="21.846" height="21.846" x="381.503" y="73.795" fill="#fff" fill-opacity=".24" rx="3.361"></rect>
    <path fill="#fff" fill-opacity=".5" d="M422.703 68.56a2.006 2.006 0 0 1-1.772-1.02 2.102 2.102 0 0 1-.274-1.067v-2.097c0-.406.092-.767.274-1.084.182-.319.429-.57.743-.752a2.095 2.095 0 0 1 1.076-.277c.344 0 .663.076.958.227.296.151.539.363.726.634l-.474.391a1.44 1.44 0 0 0-1.21-.664c-.283 0-.535.069-.757.206a1.485 1.485 0 0 0-.52.542c-.127.221-.19.462-.19.723v1.319l-.155-.177a2.07 2.07 0 0 1 .693-.672c.289-.17.602-.256.941-.256a1.976 1.976 0 0 1 1.992 2.004 1.9 1.9 0 0 1-.282 1.016 2.096 2.096 0 0 1-.743.731 1.98 1.98 0 0 1-1.026.274Zm0-.6c.264 0 .503-.063.719-.19a1.4 1.4 0 0 0 .517-.512 1.38 1.38 0 0 0 .193-.718c0-.263-.065-.503-.193-.719a1.394 1.394 0 0 0-.513-.516 1.375 1.375 0 0 0-.718-.194 1.425 1.425 0 0 0-1.235 2.143 1.398 1.398 0 0 0 1.23.706Z"></path>
    <rect width="21.846" height="21.846" x="411.751" y="73.795" fill="#fff" fill-opacity=".24" rx="3.361"></rect>
    <path fill="#fff" fill-opacity=".5" d="m451.726 68.435 2.227-5.45h-2.803v-.6h3.462v.6l-2.222 5.45h-.664Z"></path>
    <rect width="21.846" height="21.846" x="442" y="73.795" fill="#fff" fill-opacity=".24" rx="3.361"></rect>
    <path fill="#fff" fill-opacity=".5" d="M483.167 68.56a2.15 2.15 0 0 1-1.004-.226 1.718 1.718 0 0 1-.681-.635 1.858 1.858 0 0 1-.243-.962c0-.375.091-.708.273-1 .182-.294.459-.516.832-.668l-.009.244a1.366 1.366 0 0 1-.71-.563 1.606 1.606 0 0 1-.243-.865c0-.336.077-.625.231-.866.154-.243.364-.431.63-.563.269-.131.577-.197.924-.197.347 0 .655.066.924.197.269.132.481.32.635.563.154.241.231.53.231.866 0 .316-.079.603-.235.86a1.35 1.35 0 0 1-.71.568l-.021-.244c.372.149.651.37.836.664.187.294.281.629.281 1.004 0 .367-.083.688-.248.962a1.696 1.696 0 0 1-.685.635 2.154 2.154 0 0 1-1.008.227Zm0-.592c.381 0 .69-.105.929-.315.238-.213.357-.518.357-.916 0-.403-.118-.708-.353-.916-.236-.21-.546-.315-.933-.315-.386 0-.696.105-.928.315-.233.208-.349.513-.349.916 0 .398.118.703.353.916.235.21.543.315.924.315Zm0-3.058c.336 0 .609-.086.819-.257.21-.173.315-.43.315-.768 0-.34-.105-.593-.315-.76-.21-.172-.483-.257-.819-.257-.336 0-.609.085-.819.256-.207.168-.311.422-.311.76 0 .34.104.596.311.77.21.17.483.256.819.256Z"></path>
    <rect width="21.846" height="21.846" x="472.249" y="73.795" fill="#fff" fill-opacity=".24" rx="3.361"></rect>
    <path fill="#fff" fill-opacity=".5" d="M513.394 62.263c.381 0 .726.093 1.034.277.311.182.557.432.739.748.182.314.273.667.273 1.059v2.1c0 .404-.091.765-.273 1.084a2.02 2.02 0 0 1-.747.756 2.097 2.097 0 0 1-1.072.274c-.344 0-.664-.076-.958-.227a2.042 2.042 0 0 1-.722-.635l.47-.39a1.454 1.454 0 0 0 1.21.66c.286 0 .538-.068.756-.202a1.49 1.49 0 0 0 .715-1.265v-1.32l.151.177a2.024 2.024 0 0 1-.693.672c-.286.171-.6.257-.941.257-.373 0-.71-.09-1.013-.27a2 2 0 0 1-.714-.722 1.994 1.994 0 0 1-.261-1.012c0-.373.093-.712.278-1.017.185-.308.432-.552.743-.73a1.994 1.994 0 0 1 1.025-.274Zm0 .597a1.437 1.437 0 0 0-1.235.706 1.398 1.398 0 0 0-.189.718c0 .263.063.502.189.718a1.397 1.397 0 0 0 1.231.706c.264 0 .503-.063.719-.19a1.429 1.429 0 0 0 .004-2.465 1.375 1.375 0 0 0-.719-.193Z"></path>
    <rect width="21.846" height="21.846" x="502.497" y="73.795" fill="#fff" fill-opacity=".24" rx="3.361"></rect>
    <path fill="#fff" fill-opacity=".5" d="M541.11 68.435v-5.361l-1.138.685v-.694l1.138-.68h.626v6.05h-.626Zm4.194.126c-.372 0-.708-.087-1.008-.26a1.94 1.94 0 0 1-.706-.707 1.97 1.97 0 0 1-.26-1.008v-2.353a1.948 1.948 0 0 1 .966-1.714c.3-.173.636-.26 1.008-.26a1.95 1.95 0 0 1 1.714.97c.174.297.261.632.261 1.004v2.353c0 .373-.087.709-.261 1.008a1.95 1.95 0 0 1-1.714.966Zm0-.597a1.323 1.323 0 0 0 1.168-.672c.121-.205.181-.43.181-.677v-2.411c0-.25-.06-.476-.181-.68a1.354 1.354 0 0 0-1.168-.673 1.29 1.29 0 0 0-.68.185c-.205.12-.367.283-.488.487a1.32 1.32 0 0 0-.18.681v2.412c0 .246.06.471.18.676.121.204.283.368.488.491.204.12.431.181.68.181Z"></path>
    <rect width="21.846" height="21.846" x="532.746" y="73.795" fill="#fff" fill-opacity=".24" rx="3.361"></rect>
  </g>
  <rect width="567.16" height="89.905" x="16.42" y="15.781" stroke="#fff" stroke-opacity=".1" stroke-width=".84" rx="6.302"></rect>
  <defs>
    <clipPath id="a">
      <rect width="568" height="90.746" x="16" y="15.361" fill="#fff" rx="6.722"></rect>
    </clipPath>
    <pattern id="f" width="1" height="1" patternContentUnits="objectBoundingBox">
      <use href="#i" transform="scale(.00294)"></use>
    </pattern>
    <image id="i" width="340" height="340" preserveAspectRatio="none"></image>
  </defs>
</svg>