<svg xmlns="http://www.w3.org/2000/svg" width="300" height="160" fill="none" viewBox="0 0 300 160">
  <path fill="#242424" stroke="#999" stroke-linecap="square" stroke-width="1.2" d="M173.421 37.969h63.172v31.586h-63.172V37.969Z"></path>
  <path fill="#242424" stroke="#fff" stroke-linecap="square" stroke-opacity=".64" stroke-width=".637" d="M175.443 39.95h59.297v27.479h-59.297v-27.48Z"></path>
  <path fill="#45514D" d="M184.792 44.286h40.43v2.527h-40.43v-2.527Zm0 7.581h24.006v2.526h-24.006v-2.526Zm0 7.58h24.006v2.527h-24.006v-2.527Z"></path>
  <circle cx="148.716" cy="80.925" r="41.693" fill="#242424" stroke="#999" stroke-linecap="square" stroke-width="1.2"></circle>
  <circle cx="148.716" cy="80.925" r="38.346" fill="#2D3633" stroke="#fff" stroke-opacity=".5" stroke-width=".637"></circle>
  <path stroke="#00A870" stroke-width="2.125" d="M98.178 72.082c0-23.027 18.667-41.693 41.693-41.693m59.382 59.381c0 23.026-18.667 41.693-41.693 41.693"></path>
  <path fill="#242424" stroke="#999" stroke-linecap="square" stroke-width="1.2" d="M66.593 93.56h63.171v31.586H66.593V93.56Z"></path>
  <path fill="#242424" stroke="#fff" stroke-linecap="square" stroke-opacity=".64" stroke-width=".637" d="M68.615 95.743h59.297v27.277H68.615V95.744Z"></path>
  <path fill="#45514D" d="M77.964 99.877h40.43v2.527h-40.43v-2.527Zm0 7.581h24.005v2.526H77.964v-2.526Zm0 7.58h24.005v2.527H77.964v-2.527Z"></path>
  <path fill="#33A0E9" fill-rule="evenodd" d="M138.164 73.529c.793-5.114 5.216-9.028 10.552-9.028 5.336 0 9.759 3.914 10.553 9.028 4.765.795 8.398 4.939 8.398 9.93 0 5.56-4.507 10.068-10.068 10.068h-17.767c-5.56 0-10.068-4.507-10.068-10.068 0-4.992 3.633-9.135 8.4-9.93Z" clip-rule="evenodd"></path>
  <path fill="#00A870" d="m139.871 21.545 12.003 8.212-12.003 8.212V21.545Zm18.321 101.074-12.003 8.212 12.003 8.212v-16.424Z"></path>
  <path fill="#fff" d="M147.993 78.86h2.708v8.844h-2.708V78.86Z"></path>
  <path fill="#fff" d="m143.662 80.391 5.686-8.31 5.685 8.31h-11.371Z"></path>
</svg>