<svg xmlns="http://www.w3.org/2000/svg" width="300" height="160" fill="none" viewBox="0 0 300 160">
  <path fill="#2D3633" stroke="#999" stroke-linecap="square" stroke-width="1.2" d="M105 31h52.2l12.6 12.6 11.7 11.25v67.95H105V31Z"></path>
  <path fill="#242424" stroke="#999" stroke-linecap="square" stroke-width="1.2" d="M118.5 40h51.3l12.6 13.05 12.6 12.6v66.15h-76.5V40Z"></path>
  <path stroke="#999" stroke-linecap="square" stroke-linejoin="bevel" stroke-width="1.2" d="M169.8 65.65V40L195 65.65h-25.2Z"></path>
  <path fill="#FF8C27" fill-rule="evenodd" d="M195 112.667c7.364 0 13.333 5.969 13.333 13.333s-5.969 13.333-13.333 13.333-13.333-5.969-13.333-13.333 5.969-13.333 13.333-13.333Z" clip-rule="evenodd"></path>
  <path stroke="#fff" stroke-width="1.733" d="M195 119.333v8"></path>
  <path fill="#fff" stroke="#fff" stroke-width="1.333" d="M194.333 130.667h1.333V132h-1.333z"></path>
  <path fill="#33A0E9" d="M128.4 50.8h28.8v5.4h-28.8z"></path>
  <path fill="#00B476" d="M128.4 62.5h19.8v5.4h-19.8z"></path>
  <path fill="#2D3633" stroke="#fff" stroke-linecap="square" stroke-opacity=".64" stroke-width=".63" d="M146.4 83.2h27v29.7h-27z"></path>
  <path fill="#00B476" stroke="#fff" stroke-linecap="square" stroke-opacity=".64" stroke-width=".63" d="M140.1 88.6h27v29.7h-27z"></path>
  <circle cx="153.6" cy="100.3" r="4.5" fill="#fff"></circle>
  <circle cx="153.6" cy="100.3" r="4.185" stroke="#fff" stroke-opacity=".64" stroke-width=".63"></circle>
  <path stroke="#fff" stroke-linecap="square" stroke-linejoin="bevel" stroke-opacity=".64" stroke-width=".63" d="M145.5 110.2h16.2"></path>
</svg>