<svg xmlns="http://www.w3.org/2000/svg" width="300" height="160" fill="none" viewBox="0 0 300 160">
  <path fill="#333" d="M191 121.5c-9.5 9.5-46 6.5-46 6.5s10.591.658 19.5-4.5l9.197-6.569c1.884-1.679 2.774-2.662 3.803-2.716 8.715-.455 16.551 4.234 13.5 7.285Z"></path>
  <path stroke="#999" stroke-width="1.2" d="M140.276 126.91c13.724 2.09 26.294-1.752 36.971-12.879 17.479-18.215 16.188-52.465.813-69.375C167.075 32.574 154 30 138.5 33.5"></path>
  <path stroke="#999" stroke-width="1.2" d="M169.366 113.459c-15.168 18.215-39.271 18.015-53.838-.448-14.566-18.462-14.079-48.196 1.089-66.411 15.167-18.216 39.271-18.016 53.837.447 14.566 18.463 14.079 48.196-1.088 66.412Z"></path>
  <path fill="#2D3633" stroke="#fff" stroke-opacity=".5" stroke-width=".6" d="M160.629 106.835c-11.054 14.351-28.621 14.194-39.237-.353-10.615-14.546-10.26-37.973.794-52.325 11.054-14.351 28.62-14.193 39.236.353 10.616 14.547 10.261 37.973-.793 52.325Z"></path>
  <path fill="#999" d="M136.255 95.951c5.997-.037 10.814-7.798 10.76-16.45-.055-8.65-4.968-16.35-10.966-16.312-3.004.019-5.71 1.974-7.66 5.008l2.717 4.476c1.228-2.042 3.002-3.33 4.982-3.343 3.752-.024 6.819 4.539 6.854 10.197.036 5.659-2.979 10.26-6.726 10.283-3.274.02-6.029-3.46-6.699-8.112l-3.874 1.814c.143.794.32 1.565.537 2.314l3.064-1.438-2.753 2.423c.281.816.601 1.593.965 2.334l1.984-1.75-1.665 2.371c2.018 3.73 5.072 6.206 8.48 6.185Z"></path>
  <path fill="#999" d="M129.361 79.59v.022c.005.713.059 1.404.151 2.071l-4.074.457a24.51 24.51 0 0 1-.141-2.094l4.064-.456Zm-3.884-3.042 4.019.932c-.08.58-.121 1.182-.132 1.79l-4.044-.94c.031-.6.082-1.195.157-1.782Zm.688-3.332 3.752 2.25c-.131.46-.241.93-.326 1.42l-3.777-2.271c.101-.476.221-.937.351-1.398Zm4.439.411-.002-.003c-.155.327-.295.667-.42 1.015l-3.321-3.462c.136-.335.282-.67.437-.998l3.304 3.445.002-.005v.008Z"></path>
</svg>