<svg xmlns="http://www.w3.org/2000/svg" width="300" height="160" fill="none" viewBox="0 0 300 160">
  <path fill="#333" d="m80.6 106.216 5.203-3.581 107.89 19.972L237.5 93l8.757 1.276-49.077 33.902-116.42-21.22a.41.41 0 0 1-.16-.742Z"></path>
  <path stroke="#F5F7FA" stroke-width=".921" d="m114.691 69.654 6.591 1.117"></path>
  <path fill="#2D3633" d="M238.013 77.18 228 75.5l-33.296 20L128 84.5l-1 7 67.704 10.972 43.364-24.988a.164.164 0 0 0-.055-.304Z"></path>
  <path stroke="#999" stroke-width=".553" d="M193.737 109.815v12.434L78.101 101.312V90.57l115.636 19.245Zm-.165.094 1.382-.921"></path>
  <path stroke="#999" stroke-linecap="square" stroke-width=".553" d="m78.375 90.368.866-.657 115.533 19.233v12.693l-.631.38"></path>
  <path fill="#00E195" d="M82.81 86.661c0-.101.091-.179.192-.162l32.614 5.52a.164.164 0 0 1 .137.162v1.648a.164.164 0 0 1-.192.162l-32.615-5.593a.164.164 0 0 1-.136-.162V86.66Z"></path>
  <path fill="#85BF00" stroke="#999" stroke-width=".6" d="M156.417 100.561v1.943l-2.903-.479v-1.944l2.903.48Zm6.497 1.111v1.944l-2.903-.48v-1.943l2.903.479Zm6.493 1.043v1.943l-2.904-.479v-1.944l2.904.48Z"></path>
  <path fill="#999" d="M185.994 103.147v2.942l-5.862-.982v-2.898l5.862.938Zm-4.872 1.565 4.319.723v-.569l-.242-.039-3.309-.545-.768.43Zm-.437-.389 1.021-.57.084-.047.095.015 3.404.56.152.024v-.687l-4.756-.762v1.467Z"></path>
  <ellipse cx="198.018" cy="104.327" fill="#999" rx=".566" ry=".901" transform="rotate(3 198.018 104.327)"></ellipse>
  <ellipse cx="198.018" cy="115.374" fill="#999" rx=".566" ry=".901" transform="rotate(3 198.018 115.374)"></ellipse>
  <ellipse cx="200.714" cy="102.805" fill="#999" rx=".566" ry=".901" transform="rotate(3 200.714 102.805)"></ellipse>
  <ellipse cx="200.714" cy="113.855" fill="#999" rx=".566" ry=".901" transform="rotate(3 200.714 113.855)"></ellipse>
  <mask id="a" width="17" height="17" x="203" y="90" maskUnits="userSpaceOnUse" style="mask-type:alpha">
    <path fill="#D9D9D9" d="m219.053 90.956-15.913 10.507v4.802l15.913-10.835v-4.475Z"></path>
  </mask>
  <g mask="url(#a)">
    <path stroke="#999" stroke-linecap="square" stroke-width=".411" d="m204.184 99.249-2.371 4.487m3.46-4.633-3.294 6.302m4.641-6.953-4.01 7.718m5.991-9.267-4.893 9.254m6.233-9.87-4.893 9.254m6.484-10.268-4.892 9.255m6.196-9.744-4.893 9.254m6.298-9.828-4.892 9.254m6.18-10.068-4.892 9.254m6.126-9.802-4.892 9.255m6.185-9.743-4.892 9.255m6.87-10.897-5.531 10.477m6.071-9.506-4.892 9.254m5.931-9.41-4.892 9.255"></path>
  </g>
  <mask id="b" width="17" height="17" x="203" y="96" maskUnits="userSpaceOnUse" style="mask-type:alpha">
    <path fill="#D9D9D9" d="m219.233 96.962-16.093 10.743v4.75l16.037-11.379.056-4.114Z"></path>
  </mask>
  <g mask="url(#b)">
    <path stroke="#999" stroke-linecap="square" stroke-width=".411" d="m204.184 104.875-2.371 4.487m3.46-4.635-3.294 6.302m4.641-6.953-4.01 7.718m5.991-9.265-4.893 9.255m6.233-9.871-4.893 9.254m6.484-10.266-4.892 9.255m6.196-9.748-4.893 9.254m6.298-9.826-4.892 9.254m6.18-10.068-4.892 9.254m6.126-9.8-4.892 9.255m6.185-9.744-4.892 9.254m6.87-10.897-5.531 10.477m6.071-9.508-4.892 9.254m5.931-9.407-4.892 9.254"></path>
  </g>
  <path fill="#999" d="M225.791 95.841c-.446 1.574-1.29 2.637-2.205 2.59l-.117-.013c-.641-.101-1.182-.746-1.527-1.706l.723-.84c.067.275.147.525.24.744.328.769.654.878.73.883.076.003.411-.072.817-.802.221-.397.409-.91.541-1.506l.798.65Zm-2.152-5.58a2.422 2.422 0 0 0-.432.588c-.373.672-.662 1.678-.724 2.854a8.16 8.16 0 0 0 .053 1.454l-.785.912a8.294 8.294 0 0 1-.213-1.939l.014-.476c.119-2.27 1.013-4.12 2.087-4.477v1.083Zm.564-1.132c1.191.2 2.035 2.28 1.905 4.763l-.036.476c-.03.299-.076.588-.132.866l-.834-.68c.032-.228.057-.466.07-.71.061-1.176-.12-2.206-.421-2.914-.205-.481-.409-.704-.552-.805v-.996Z"></path>
  <path fill="#2D3633" stroke="#999" stroke-linejoin="bevel" stroke-width="1.2" d="M131.461 41.45 78.472 58.246l116.48 17.13 43.283-23.023L131.461 41.45Z"></path>
  <path stroke="#999" stroke-linecap="square" stroke-width=".6" d="M79.343 57.873v6.932l115.704 16.638v-5.931L79.343 57.872Z"></path>
  <path stroke="#999" stroke-width=".6" d="m193.571 82.875 1.381-.92m-1.238.588v12.743L76.835 77.152V65.777l116.879 16.766Z"></path>
  <path fill="#00E195" d="M82.762 59.8c0-.1.09-.178.19-.161l12.53 2.074c.08.013.138.081.138.162V63.4a.164.164 0 0 1-.191.162l-12.53-2.117a.164.164 0 0 1-.137-.162V59.8Z"></path>
  <path fill="#00A870" stroke="#999" stroke-width=".6" d="M156.714 73.446v2.212l-2.903-.48v-2.212l2.903.48Zm6.598 1.069v2.22l-2.903-.479v-2.22l2.903.479Zm6.597 1.188v2.2l-2.904-.479v-2.2l2.904.48Z"></path>
  <path fill="#999" d="M186.261 76.352v2.941l-5.501-.8-.026.019-.017-.025-.318-.046v-2.898l5.862.809Zm-4.907 1.721 4.407.64v-.71l-3.583-.51-.824.58Zm-.455-.29 1.072-.755.081-.057.098.013 3.611.515v-.712l-4.862-.67v1.666Z"></path>
  <ellipse cx="198.282" cy="77.531" fill="#999" rx=".566" ry=".901" transform="rotate(3 198.282 77.53)"></ellipse>
  <ellipse cx="198.282" cy="88.579" fill="#999" rx=".566" ry=".901" transform="rotate(3 198.282 88.579)"></ellipse>
  <ellipse cx="200.981" cy="76.01" fill="#999" rx=".566" ry=".901" transform="rotate(3 200.981 76.01)"></ellipse>
  <ellipse cx="200.981" cy="87.057" fill="#999" rx=".566" ry=".901" transform="rotate(3 200.981 87.057)"></ellipse>
  <mask id="c" width="16" height="15" x="203" y="65" maskUnits="userSpaceOnUse" style="mask-type:alpha">
    <path fill="#A1A1A2" stroke="#1D2529" stroke-linecap="square" stroke-width=".328" d="m218.473 66.112-15.07 8.553v4.608l15.07-8.541v-4.62Z"></path>
  </mask>
  <g mask="url(#c)">
    <path stroke="#999" stroke-linecap="square" stroke-width=".4" d="m204.387 72.453-2.237 4.487m3.264-4.634-3.109 6.302m4.383-6.954-3.784 7.718m5.654-9.267-4.617 9.254m5.882-9.871-4.617 9.255m6.119-10.266-4.617 9.254m5.845-9.746-4.617 9.255m5.94-9.827-4.617 9.254m5.838-10.07-4.618 9.255m5.781-9.8-4.617 9.254m5.836-9.742-4.617 9.255m6.488-10.902-5.219 10.478m5.725-9.505-4.617 9.255m5.598-9.408-4.617 9.254"></path>
  </g>
  <mask id="d" width="16" height="14" x="203" y="73" maskUnits="userSpaceOnUse" style="mask-type:alpha">
    <path fill="#777C7F" d="m218.422 73.168-15.019 8.496V86.7l15.019-8.92v-4.612Z"></path>
  </mask>
  <g mask="url(#d)">
    <path stroke="#999" stroke-linecap="square" stroke-width=".4" d="m204.448 79.118-2.371 4.487m3.459-4.631-3.294 6.302m4.641-6.953-4.009 7.718m5.99-9.267-4.892 9.254m6.232-9.87-4.892 9.254m6.483-10.266-4.892 9.254m6.196-9.747-4.892 9.254m6.297-9.827-4.892 9.255m6.178-10.069-4.892 9.255m6.128-9.801-4.892 9.254m6.185-9.744-4.892 9.254m6.87-10.897-5.53 10.477m6.07-9.504-4.892 9.254m5.931-9.411-4.892 9.254"></path>
  </g>
  <path fill="#999" d="M224.892 70.908c-.446 1.573-1.29 2.637-2.205 2.59l-.118-.014c-.641-.1-1.181-.745-1.526-1.705l.723-.84c.066.275.147.525.24.744.328.769.653.878.729.882.077.004.412-.07.818-.801.22-.397.409-.91.541-1.506l.798.65Zm-2.153-5.58a2.45 2.45 0 0 0-.431.588c-.374.672-.662 1.678-.724 2.853a8.16 8.16 0 0 0 .053 1.455l-.785.912a8.294 8.294 0 0 1-.213-1.939l.013-.476c.119-2.27 1.014-4.12 2.087-4.477v1.083Zm.565-1.132c1.191.2 2.035 2.28 1.905 4.763l-.036.476a9.188 9.188 0 0 1-.132.866l-.834-.68a8.31 8.31 0 0 0 .069-.71c.062-1.176-.119-2.207-.421-2.914-.204-.481-.409-.704-.551-.805v-.996Z"></path>
  <path stroke="#999" stroke-linejoin="bevel" stroke-width="1.2" d="M194.952 95.09 238.235 70V52.353L131.461 41.45 79.377 58.246v4.698l-.92.92v11.972l115.574 19.8.921-.547ZM79.377 58.245l115.575 17.13m43.283-23.023-43.283 23.023m0 0v19.713"></path>
  <path stroke="#999" stroke-width="1.2" d="m228 76 10.235 1.217v15.656l-43.283 28.855-.921.614-116.035-20.721v-11.05l.921-.921v-5.986l15.195-5.065m-15.195 5.065 116.035 18.878m43.283-25.325-43.283 25.325m0 0v19.186"></path>
  <path fill="#333" d="m114.501 110.781 16.929 3.543S123.98 117.631 118 120c-24.5 9.706-33.868-2.099-33.868-2.099l30.369-7.12Z"></path>
  <path fill="#333" fill-opacity=".4" d="M135.5 111.281c1.2-28-7.833-43.666-12.5-48l-5.5 45 18 3Z"></path>
  <path fill="#242424" fill-rule="evenodd" d="M90.9 119.163c9.686 1.851 20.059-1.294 27.849-9.413 12.755-13.292 11.813-38.286.594-50.625-8.017-8.818-19.078-10.955-29.34-7.652 6.844.938 13.426 4.248 18.586 9.923 12.249 13.472 11.839 35.17-.916 48.462-4.802 5.005-10.67 8.104-16.773 9.305Z" clip-rule="evenodd"></path>
  <path fill="#999" d="m118.749 109.75.433.415-.433-.415ZM90.9 119.163l-.115-.589.003 1.178.112-.589Zm28.443-60.038-.444.404.444-.404Zm-29.34-7.652-.184-.572.102 1.166.082-.594Zm18.586 9.923-.444.403.444-.403Zm-.916 48.462.433.416-.433-.416Zm11.076-.108-.433-.415c-7.655 7.978-17.825 11.05-27.303 9.239l-.113.589-.112.589c9.893 1.891 20.469-1.327 28.394-9.587l-.433-.415Zm.594-50.625-.444.404c5.487 6.035 8.494 15.212 8.537 24.554.044 9.338-2.876 18.745-9.12 25.252l.433.415.433.415c6.512-6.785 9.499-16.521 9.454-26.088-.044-9.563-3.117-19.051-8.849-25.356l-.444.404Zm-29.34-7.652.184.57c10.059-3.236 20.868-1.142 28.712 7.486l.444-.404.444-.404c-8.19-9.007-19.503-11.187-29.968-7.82l.184.572Zm0 0-.082.594c6.706.919 13.159 4.162 18.224 9.732l.444-.403.444-.404c-5.255-5.779-11.965-9.157-18.949-10.114l-.081.595Zm18.586 9.923-.444.403c12.033 13.235 11.636 34.575-.905 47.644l.433.415.433.416c12.97-13.516 13.392-35.572.927-49.282l-.444.404Zm-.916 48.462-.433-.415c-4.717 4.916-10.474 7.954-16.455 9.131l.115.589.116.589c6.226-1.225 12.203-4.386 17.09-9.478l-.433-.416Z"></path>
  <path fill="#242424" stroke="#999" stroke-width=".6" d="M112.997 109.333c-11.068 13.292-28.657 13.146-39.287-.327-10.63-13.473-10.274-35.17.794-48.463 11.068-13.292 28.658-13.146 39.287.327 10.63 13.473 10.274 35.17-.794 48.463Z"></path>
  <path stroke="#999" stroke-width="1.2" d="M93 50.697c-6.673.33-13.302 3.609-18.496 9.846-11.068 13.293-11.423 34.99-.794 48.463 4.643 5.885 10.614 9.228 16.79 10.018"></path>
  <path fill="#2D3633" stroke="#999" stroke-width=".6" d="M106.621 104.5c-8.066 10.473-20.885 10.358-28.632-.257-7.746-10.615-7.487-27.71.58-38.183 8.066-10.473 20.884-10.358 28.631.257s7.488 27.71-.579 38.183Z"></path>
  <path fill="#999" d="M88.836 96.556c4.377-.027 7.891-5.69 7.852-12.003-.04-6.313-3.625-11.932-8.002-11.904-2.192.013-4.167 1.44-5.59 3.654l1.982 3.267c.897-1.49 2.191-2.431 3.636-2.44 2.738-.017 4.976 3.312 5.002 7.441.026 4.13-2.174 7.487-4.908 7.504-2.39.015-4.4-2.525-4.889-5.92l-2.826 1.324c.104.58.233 1.142.391 1.688l2.236-1.049-2.009 1.769a14.7 14.7 0 0 0 .705 1.702l1.447-1.277-1.215 1.731c1.473 2.722 3.701 4.529 6.188 4.513Z"></path>
  <path fill="#999" d="M83.806 84.617v.016c.003.52.042 1.024.11 1.512l-2.974.333a17.907 17.907 0 0 1-.102-1.528l2.966-.333Zm-2.836-2.22 2.934.68a10.95 10.95 0 0 0-.096 1.307l-2.951-.686c.022-.439.059-.873.114-1.301Zm.503-2.431 2.738 1.641c-.095.337-.176.679-.238 1.037l-2.756-1.658a15.6 15.6 0 0 1 .256-1.02Zm3.24.3-.002-.002a8.276 8.276 0 0 0-.306.74l-2.424-2.526c.1-.244.206-.489.319-.728l2.41 2.514.003-.004v.005Z"></path>
  <path stroke="#999" d="M92.85 50.806c.775-.149 3.492-.625 5.49-.698"></path>
  <path stroke="#999" stroke-width="1.2" d="M89.171 118.812c2.323.488 9.068 1.211 13.374.207"></path>
</svg>