<svg xmlns="http://www.w3.org/2000/svg" width="300" height="160" fill="none" viewBox="0 0 300 160">
  <path fill="#333" d="m99.481 125.788 5.516-2.888 81.575 12.806 2.393-1.245v-4.414l11.8 1.967-14.193 10.134-87.09-16.36Z"></path>
  <path fill="#2D3633" d="m186.047 31.35-81-6.942.201 97.854 80.799 14.229V31.351Z"></path>
  <path stroke="#999" stroke-width=".6" d="m186.047 31.35-81-6.942.201 97.854 80.799 14.229V31.351Zm0 0 2.356-.97"></path>
  <path fill="#242424" stroke="#999" stroke-width=".6" d="M179.701 39.211 111.797 32.4l.169 82.748 67.735 11.844v-87.78Z"></path>
  <path stroke="#999" stroke-linecap="square" stroke-width="1.2" d="M105.055 24.218v98.29l81.097 13.984 2.395-1.797V29.761l-78.097-6.684-5.395 1.14Z"></path>
  <path fill="#008055" d="m119.501 47 51.5 5.754-.001 2.702-51.5-5.754.001-2.702Z"></path>
  <path fill="#45514D" d="m119.501 58 22.636 2.702-.002 2.701-22.635-2.701.001-2.702Zm0 11 22.473 2.702-.001 2.701-22.473-2.701.001-2.702ZM150.5 87.266l20 2.622v23.834l-20-3.334V87.266Zm-31 7.234 10 1.782V106.5l-10-1.782V94.5Zm12 2.169 10 1.782v10.218l-10-1.782V96.669Z"></path>
</svg>