<svg xmlns="http://www.w3.org/2000/svg" width="300" height="160" fill="none" viewBox="0 0 300 160">
  <path fill="#333" d="m66 106.504 6.938-3.907 115.268 20.01 45.025-30.578 7.788 1.268-51.366 35.254L66 106.504Z"></path>
  <path fill="#2D3633" d="m232.526 77.18-10.013-1.68-33.296 20-101.204-16-14 4 115.204 18.972 43.364-24.988a.164.164 0 0 0-.055-.304Z"></path>
  <path stroke="#fff" stroke-opacity=".5" stroke-width=".553" d="M188.25 109.816v12.436L72.613 102.505v-11.49l115.637 18.801Zm-.165.093 1.381-.921"></path>
  <path stroke="#fff" stroke-linecap="square" stroke-opacity=".5" stroke-width=".553" d="m72.888 90.368.694-.463 115.705 19.039v12.693l-.632.38"></path>
  <path fill="#00E195" d="M77.342 87.158c0-.1.09-.178.19-.162l32.594 5.025c.08.012.139.081.139.162v1.648c0 .101-.09.178-.189.163l-32.595-5.099a.164.164 0 0 1-.139-.162v-1.575Z"></path>
  <path fill="#85BF00" d="m147.727 99.729 3.503.578v2.55l-3.503-.578v-2.55Z"></path>
  <path stroke="#fff" stroke-opacity=".5" stroke-width=".6" d="M150.93 100.561v1.943l-2.903-.479v-1.944l2.903.48Z"></path>
  <path fill="#85BF00" d="m154.224 100.84 3.502.578v2.551l-3.502-.578v-2.551Z"></path>
  <path stroke="#fff" stroke-opacity=".5" stroke-width=".6" d="M157.427 101.672v1.944l-2.904-.48v-1.943l2.904.479Z"></path>
  <path fill="#85BF00" d="m160.716 101.883 3.503.578v2.55l-3.503-.578v-2.55Z"></path>
  <path stroke="#fff" stroke-opacity=".5" stroke-width=".6" d="M163.919 102.715v1.943l-2.903-.479v-1.944l2.903.48Z"></path>
  <path fill="#fff" fill-opacity=".5" d="M180.506 103.148v2.941l-5.861-1.047v-2.898l5.861 1.004Zm-5.023 1.455-.048.018 4.519.808v-.559l-.248-.045-3.282-.606-.941.384Zm-.285-.482.076-.03 1.018-.414.074-.03.08.014 3.36.621.148.027v-.697l-4.756-.813v1.322Z"></path>
  <ellipse cx="192.531" cy="104.327" fill="#999" rx=".566" ry=".901" transform="rotate(3 192.531 104.327)"></ellipse>
  <ellipse cx="192.531" cy="115.374" fill="#999" rx=".566" ry=".901" transform="rotate(3 192.531 115.374)"></ellipse>
  <ellipse cx="195.226" cy="102.805" fill="#999" rx=".566" ry=".901" transform="rotate(3 195.226 102.805)"></ellipse>
  <ellipse cx="195.226" cy="113.855" fill="#999" rx=".566" ry=".901" transform="rotate(3 195.226 113.855)"></ellipse>
  <mask id="a" width="17" height="17" x="197" y="90" maskUnits="userSpaceOnUse" style="mask-type:alpha">
    <path fill="#D9D9D9" d="m213.566 90.956-15.913 10.507v4.802l15.913-10.835v-4.475Z"></path>
  </mask>
  <g mask="url(#a)">
    <path stroke="#fff" stroke-linecap="square" stroke-opacity=".5" stroke-width=".411" d="m198.697 99.249-2.371 4.487m3.46-4.633-3.295 6.302m4.642-6.953-4.01 7.718m5.99-9.267-4.892 9.254m6.232-9.87-4.892 9.254m6.484-10.268-4.892 9.254m6.195-9.743-4.892 9.254m6.297-9.828-4.892 9.254m6.181-10.068-4.893 9.254m6.127-9.802-4.892 9.255m6.184-9.743-4.892 9.255m6.87-10.897-5.53 10.477m6.071-9.506-4.892 9.254m5.931-9.41-4.893 9.255"></path>
  </g>
  <mask id="b" width="17" height="17" x="197" y="96" maskUnits="userSpaceOnUse" style="mask-type:alpha">
    <path fill="#D9D9D9" d="m213.745 96.962-16.092 10.743v4.75l16.037-11.379.055-4.114Z"></path>
  </mask>
  <g mask="url(#b)">
    <path stroke="#fff" stroke-linecap="square" stroke-opacity=".5" stroke-width=".411" d="m198.697 104.875-2.371 4.488m3.46-4.635-3.295 6.301m4.642-6.953-4.01 7.718m5.99-9.265-4.892 9.255m6.232-9.871-4.892 9.254m6.484-10.266-4.892 9.255m6.195-9.748-4.892 9.254m6.297-9.826-4.892 9.254m6.181-10.068-4.893 9.254m6.127-9.8-4.892 9.255m6.184-9.744-4.892 9.255m6.87-10.898-5.53 10.477m6.071-9.507-4.892 9.254m5.931-9.408-4.893 9.254"></path>
  </g>
  <path fill="#999" d="M220.304 95.841c-.446 1.574-1.29 2.637-2.205 2.59l-.118-.013c-.641-.101-1.181-.746-1.526-1.706l.723-.84c.066.275.147.525.24.744.328.769.653.878.729.883.077.003.412-.072.818-.802.22-.397.409-.91.541-1.506l.798.65Zm-2.154-5.58a2.47 2.47 0 0 0-.43.588c-.374.672-.662 1.678-.724 2.854a8.16 8.16 0 0 0 .053 1.454l-.785.912a8.294 8.294 0 0 1-.213-1.939l.013-.476c.119-2.27 1.013-4.119 2.086-4.477v1.083Zm.565-1.132c1.191.2 2.036 2.28 1.906 4.763l-.036.476a9.188 9.188 0 0 1-.132.866l-.834-.68a8.31 8.31 0 0 0 .069-.71c.062-1.176-.119-2.206-.42-2.914-.206-.482-.41-.706-.553-.806v-.995Z"></path>
  <path stroke="#999" stroke-width="1.2" d="m222.513 76 10.234.667v15.221l-43.282 29.84-.921.614-116.035-19.784V90.57l.92-.92v-5.986l12.131-4.64m-12.13 4.64 116.035 18.878m43.282-25.875-43.282 25.875m0 0v19.186"></path>
  <path fill="#1A1A1A" d="m131.094 39.328-57.13 17.597 115.519 14.948 42.724-21.111c.147-.073.108-.293-.055-.31L131.094 39.327Z"></path>
  <path fill="#2D3633" stroke="#999" stroke-linejoin="bevel" stroke-width="1.2" d="M128.553 39.906 73.89 56.958l115.674 14.67 43.183-21.171-104.194-10.551Z"></path>
  <path stroke="#fff" stroke-linecap="square" stroke-opacity=".5" stroke-width=".6" d="M73.797 57.002v7.869L189.56 80.95v-9.437L73.797 57.002Z"></path>
  <path stroke="#fff" stroke-opacity=".5" stroke-width=".6" d="m188.083 81.87 1.459-.706m-1.298.729v13.849L72.902 76.745V65.896l115.342 15.997Z"></path>
  <path fill="#00E195" d="M77.276 60.404c0-.098.086-.174.183-.163l12.529 1.477c.083.01.145.08.145.163v1.529a.164.164 0 0 1-.184.163l-12.529-1.52a.164.164 0 0 1-.144-.163v-1.486Z"></path>
  <path fill="#00A870" d="m148.023 72.102 3.503.578v2.82l-3.503-.578v-2.82Z"></path>
  <path stroke="#fff" stroke-opacity=".5" stroke-width=".6" d="M151.227 72.934v2.212l-2.904-.48v-2.212l2.904.48Z"></path>
  <path fill="#00A870" d="m154.622 73.083 3.502.578v2.828l-3.502-.578v-2.828Z"></path>
  <path stroke="#fff" stroke-opacity=".5" stroke-width=".6" d="M157.825 73.915v2.22l-2.904-.479v-2.22l2.904.479Z"></path>
  <path fill="#00A870" d="m161.218 74.038 3.503.578v2.808l-3.503-.578v-2.808Z"></path>
  <path stroke="#fff" stroke-opacity=".5" stroke-width=".6" d="M164.421 74.87v2.2l-2.903-.48v-2.2l2.903.48Z"></path>
  <path fill="#fff" fill-opacity=".5" d="M180.773 75.519v2.94l-5.785-.712V74.85l5.785.67Zm-4.745 1.852 4.245.523v-.302l-3.654-.435-.591.214Zm-.54-.336 1.016-.368.057-.02.058.007 3.654.435v-1.126l-4.785-.554v1.626Z"></path>
  <ellipse cx="192.795" cy="77.531" fill="#999" rx=".566" ry=".901" transform="rotate(3 192.795 77.53)"></ellipse>
  <ellipse cx="192.795" cy="88.579" fill="#999" rx=".566" ry=".901" transform="rotate(3 192.795 88.579)"></ellipse>
  <ellipse cx="195.494" cy="76.01" fill="#999" rx=".566" ry=".901" transform="rotate(3 195.494 76.01)"></ellipse>
  <ellipse cx="195.494" cy="87.057" fill="#999" rx=".566" ry=".901" transform="rotate(3 195.494 87.057)"></ellipse>
  <mask id="c" width="17" height="14" x="197" y="66" maskUnits="userSpaceOnUse" style="mask-type:alpha">
    <path fill="#A1A1A2" stroke="#1D2529" stroke-linecap="square" stroke-width=".328" d="m212.92 66.628-15.004 8.037v4.801l15.004-8.085v-4.753Z"></path>
  </mask>
  <g mask="url(#c)">
    <path stroke="#fff" stroke-linecap="square" stroke-opacity=".5" stroke-width=".4" d="m198.9 72.453-2.237 4.487m3.264-4.634-3.109 6.302m4.383-6.954-3.784 7.718m5.654-9.268-4.617 9.255m5.882-9.871-4.617 9.255m6.118-10.267-4.617 9.255m5.846-9.746-4.617 9.255m5.94-9.827-4.618 9.254m5.838-10.07-4.617 9.254m5.781-9.799-4.617 9.254m5.836-9.742-4.617 9.255m6.488-10.902-5.219 10.478m5.725-9.505-4.618 9.255m5.598-9.408-4.617 9.254"></path>
  </g>
  <mask id="d" width="16" height="14" x="197" y="73" maskUnits="userSpaceOnUse" style="mask-type:alpha">
    <path fill="#777C7F" d="m212.706 73.795-14.79 7.87v5.034l14.79-8.33v-4.574Z"></path>
  </mask>
  <g mask="url(#d)">
    <path stroke="#fff" stroke-linecap="square" stroke-opacity=".5" stroke-width=".4" d="m198.96 79.118-2.371 4.487m3.46-4.631-3.295 6.302m4.642-6.953-4.01 7.718m5.991-9.267-4.893 9.254m6.232-9.87-4.892 9.254m6.484-10.266-4.892 9.254m6.195-9.748-4.892 9.255m6.298-9.827-4.892 9.255m6.178-10.069-4.892 9.255m6.128-9.801-4.892 9.254m6.185-9.744-4.893 9.254m6.87-10.898-5.53 10.478m6.071-9.504-4.892 9.254m5.931-9.412-4.892 9.255"></path>
  </g>
  <path fill="#999" d="M219.405 70.908c-.445 1.573-1.29 2.637-2.206 2.589l-.117-.013c-.641-.1-1.181-.745-1.526-1.705l.722-.84c.067.275.147.525.241.744.327.769.653.878.729.882.076.004.411-.071.817-.802.221-.396.409-.91.541-1.506l.799.651Zm-2.153-5.581c-.126.12-.274.305-.432.589-.373.672-.662 1.678-.723 2.853a8.26 8.26 0 0 0 .052 1.454l-.785.913a8.348 8.348 0 0 1-.213-1.939l.014-.476c.119-2.27 1.013-4.12 2.087-4.477v1.083Zm.564-1.13c1.191.2 2.036 2.279 1.906 4.762l-.036.475a9.168 9.168 0 0 1-.132.866l-.834-.68c.031-.228.056-.465.069-.71.062-1.175-.12-2.206-.421-2.913-.205-.481-.409-.704-.552-.805v-.996Z"></path>
  <path stroke="#999" stroke-linejoin="bevel" stroke-width="1.2" d="M189.465 95.09 232.747 70V50.457L128.553 39.906 73.89 56.958v7.615l-.92.92V77l115.574 18.636.921-.547ZM73.89 56.957l115.575 14.555m43.282-21.056-43.282 21.056m0 0v23.576"></path>
</svg>