<svg xmlns="http://www.w3.org/2000/svg" width="300" height="160" fill="none" viewBox="0 0 300 160">
  <path fill="#333" d="m105.044 125.374 5.515-2.887 81.252 14.025 2.528-1.599v-3.925l9.741 1.82-12.133 8.426-86.903-15.86Z"></path>
  <path stroke="#fff" stroke-opacity=".5" stroke-width=".6" d="m110.623 122.066 80.799 13.875v-93.69l-7.922-10.5-73.078-8.833.201 99.148Z"></path>
  <path stroke="#fff" stroke-opacity=".5" stroke-width=".6" d="m123.559 113.616 54.863 9.306V62.631l-6.058-9.791-48.805-5.58v66.356Z"></path>
  <path fill="#2D3633" stroke="#fff" stroke-opacity=".5" stroke-width=".6" d="m130.524 108.2 40.898 6.448v-50.26l-41-5.063.102 48.875Z"></path>
  <path stroke="#fff" stroke-opacity=".5" stroke-width=".6" d="m130.681 76.945 9.118 1.17m31.564 4.19-10.338-1.4m-21.226-2.79V60.453m21.226 20.452-10.273-1.35-10.953-1.44m10.953 1.44V61.91m10.273 18.996v-17.74m10.331 34.294-10.187-1.278m-9.942-1.428-10.155-1.57-10.591-1.613m30.688 4.61v17.008m0-17.007-9.942-1.428m0 0v16.88m-10.155-18.45v16.692"></path>
  <path stroke="#999" stroke-linecap="square" stroke-width="1.2" d="M110.43 22.62v99.446l81.233 14.193 2.259-1.535V41.428l-8.422-11.5-70.775-8.531-4.295 1.224Z"></path>
</svg>