<svg xmlns="http://www.w3.org/2000/svg" width="300" height="160" fill="none" viewBox="0 0 300 160">
  <path fill="#333" d="m68.932 106.053 4.37-2.415 53.849 9.157 29.152-15.157 19.221 2.957 49.978-29v-1.5l11.848 1.411-57.483 34.568-21.359-3.553-27.29 14.769-62.286-11.237Z"></path>
  <path fill="#2D3633" d="M155.313 42.83 97.67 62.91l77.601 9.173 50.081-22.065-70.039-7.19Z"></path>
  <path stroke="#999" stroke-width=".938" d="M97.303 76.862V62.91l57.762-20.082 70.411 7.19V71.96l-50.205 28.527-18.968-2.91m-59-34.666 77.968 9.05m50.205-21.942L175.271 71.96m0 0v28.527"></path>
  <path stroke="#999" stroke-width=".938" d="m127.303 112.77 30.5-15.649V80.994l-53.19-7.107-30.81 12.544v17.207l53.5 9.132Zm-53.5-26.34 53.5 8.96m30.5-14.396-30.5 14.395m0 0v17.381"></path>
  <path fill="#32DE9B" d="m105.449 77.638-10.646 4.109 14.5 2.391 10.5-4.5-14.354-2Zm19.449 2.722-10.619 4.74 14.817 2.205 10.16-4.726-14.358-2.22Z"></path>
  <path fill="#2D3633" stroke="#999" stroke-width=".6" d="M124.885 96.856v13.389l-48.709-8.315V89.035l48.709 7.821Z"></path>
  <path fill="#666" d="m164.12 54.908-4.428 2.499 1.305.243-2.213 1.25-3.916-.73 8.856-4.998 2.61.486.513-3.228-8.344 1.769 2.611.486-8.856 4.998-3.915-.73 2.291-1.293c1.323-.06 2.762-.383 3.703-.914 1.345-.759 1.149-1.614-.436-1.91-1.593-.296-3.956.078-5.307.84-.941.53-1.074 1.096-.57 1.497l-2.292 1.294c-1.222.69-1.045 1.467.397 1.736l3.915.73-3.376 1.905c-1.325.052-2.784.395-3.725.926-1.345.76-1.15 1.614.436 1.91.762.142 1.749.133 2.744-.024.995-.157 1.917-.45 2.563-.815.941-.531 1.12-1.113.592-1.51l3.376-1.906 3.916.73c1.441.269 3.601-.073 4.824-.763l2.214-1.25 1.305.244 4.428-2.499-5.221-.973Z"></path>
</svg>