<svg xmlns="http://www.w3.org/2000/svg" width="200" height="160" fill="none" viewBox="0 0 200 160">
  <path fill="#242424" stroke="#999" stroke-linecap="square" stroke-width="1.2" d="M158 16.964h30v8.572h-30v-8.572Z"></path>
  <path fill="#2D3633" stroke="#999" stroke-linecap="square" stroke-width=".6" d="M159.875 18.625h26.25v5.25h-26.25v-5.25Z"></path>
  <circle cx="162.41" cy="21.375" r=".661" fill="#00A870"></circle>
  <path fill="#242424" stroke="#999" stroke-linecap="square" stroke-width="1.2" d="M158 28.143h30v8.572h-30v-8.572Z"></path>
  <path fill="#2D3633" stroke="#999" stroke-linecap="square" stroke-width=".6" d="M159.875 29.804h26.25v5.25h-26.25v-5.25Z"></path>
  <circle cx="162.41" cy="32.554" r=".661" fill="#00A870"></circle>
  <path fill="#242424" stroke="#999" stroke-linecap="square" stroke-width="1.2" d="M158 39.322h30v8.571h-30v-8.571Z"></path>
  <path fill="#2D3633" stroke="#999" stroke-linecap="square" stroke-width=".6" d="M159.875 40.982h26.25v5.25h-26.25v-5.25Z"></path>
  <circle cx="162.41" cy="43.733" r=".661" fill="#00A870"></circle>
  <path stroke="#fff" stroke-dasharray="3.4 3.4" stroke-linecap="square" stroke-opacity=".5" stroke-width="1.021" d="M130 80v48h24m-24-48V32h24m-41 49h40M41 81h34"></path>
  <path fill="#242424" stroke="#999" stroke-linecap="square" stroke-width="1.021" d="M11.976 67h34.38v23.47h-34.38V67Z"></path>
  <path fill="#2D3633" stroke="#999" stroke-linecap="square" stroke-width=".6" d="M13.628 68.982h31.074V90.47H13.628V68.982Z"></path>
  <path fill="#fff" fill-opacity=".16" d="M16 75h6.861v7.835H16zm8.699 0H42v3.056H24.699zm0 4.779H42v3.056H24.699z"></path>
  <path fill="#242424" stroke="#999" stroke-linecap="square" stroke-width="1.021" d="M9 90h40v2.5H9V90Z"></path>
  <circle cx="15.611" cy="70.968" r=".661" fill="#FF4D62"></circle>
  <circle cx="17.595" cy="70.968" r=".661" fill="#CCA200"></circle>
  <circle cx="19.579" cy="70.968" r=".661" fill="#00A870"></circle>
  <path fill="#fff" fill-opacity=".29" fill-rule="evenodd" d="M160.417 132.917c0-.445.36-.806.805-.806h22.556a.805.805 0 0 1 0 1.611h-22.556a.805.805 0 0 1-.805-.805Z" clip-rule="evenodd"></path>
  <path fill="#242424" stroke="#999" stroke-linecap="square" stroke-width="1.2" d="M162.833 116h19.334v6.444h-19.334V116Z"></path>
  <path fill="#2D3633" stroke="#999" stroke-linecap="square" stroke-width="1.2" d="M158 122.444h29v13.694h-29z"></path>
  <path fill="#242424" fill-rule="evenodd" stroke="#999" stroke-linecap="square" stroke-width="1.2" d="M162.833 132.917h19.334l1.611 7.25h-22.556l1.611-7.25Z" clip-rule="evenodd"></path>
  <path fill="#999" d="M166.7 134.75h11.6v.806h-11.6v-.806Zm-.805 2.195h13.211v.805h-13.211v-.805Z"></path>
  <circle cx="94" cy="81" r="18" fill="#242424" stroke="#999" stroke-linecap="square" stroke-width="1.2"></circle>
  <circle cx="93.995" cy="80.736" r="10.803" fill="#85BF00"></circle>
  <path fill="#777" d="M93.738 69.502c6.186.002 11.201 5.017 11.201 11.203 0 6.185-5.012 11.199-11.196 11.203l-.007.001c-6.188 0-11.204-5.017-11.204-11.204s5.016-11.203 11.203-11.203h.003Zm-3.504 11.645c.042 2.752.47 5.215 1.128 7.002.348.944.752 1.675 1.176 2.162.425.488.83.688 1.197.688h.001c.367 0 .774-.2 1.2-.688.424-.487.827-1.219 1.174-2.162.659-1.787 1.086-4.25 1.127-7.002h-7.003Zm-6.782 0c.204 4.816 3.714 8.774 8.32 9.663-.488-.592-.913-1.398-1.262-2.347-.703-1.909-1.142-4.482-1.184-7.316h-5.874Zm14.695 0c-.042 2.834-.481 5.407-1.184 7.316-.35.95-.774 1.755-1.263 2.348 4.605-.89 8.115-4.848 8.319-9.664h-5.873ZM95.7 70.6c.489.593.913 1.398 1.263 2.348.701 1.903 1.14 4.468 1.184 7.292h5.872c-.215-4.805-3.721-8.752-8.319-9.64Zm-3.928 0c-4.598.888-8.106 4.835-8.32 9.64h5.874c.044-2.824.483-5.389 1.184-7.292.35-.95.774-1.755 1.262-2.348Zm1.963-.189c-.366 0-.772.202-1.197.69-.424.487-.828 1.219-1.176 2.162-.656 1.782-1.084 4.236-1.128 6.977h7.003c-.043-2.741-.47-5.195-1.127-6.977-.347-.943-.75-1.675-1.174-2.162-.426-.489-.834-.69-1.2-.69Z"></path>
  <path fill="#2D3633" stroke="#999" stroke-linecap="square" stroke-width="1.2" d="M186.351 78.69a.641.641 0 0 0-.642-.641h-26.096l-.037.004a.616.616 0 0 0-.537.686l.008.058c.971 6.84 6.711 12.094 13.648 12.094 6.918 0 12.646-5.226 13.64-12.04l.011-.082a.699.699 0 0 0 .005-.079Z"></path>
  <circle cx="172.379" cy="83.738" r="1.552" fill="#00A870"></circle>
  <path fill="#242424" stroke="#999" stroke-linecap="square" stroke-width="1.2" d="M158 68.738h30l-1.034 7.242h-27.932L158 68.738Z"></path>
</svg>