<svg xmlns="http://www.w3.org/2000/svg" width="244" height="160" fill="none" viewBox="0 0 244 160">
  <path fill="#242424" stroke="#999" stroke-linecap="square" stroke-width="1.2" d="M37 71h80v64H37z"></path>
  <path fill="#2D3633" stroke="#fff" stroke-opacity=".5" stroke-width=".6" d="M40.049 74.049h73.905v57.905H40.049z"></path>
  <circle cx="44.803" cy="78.807" r="1.709" fill="#FF4D62"></circle>
  <circle cx="49.932" cy="78.807" r="1.709" fill="#CCA200"></circle>
  <circle cx="55.06" cy="78.807" r="1.709" fill="#008055"></circle>
  <path fill="#242424" stroke="#999" stroke-linecap="square" stroke-width="1.2" d="M126 27h80v64h-80z"></path>
  <path fill="#2D3633" stroke="#fff" stroke-opacity=".5" stroke-width=".6" d="M129.049 30.049h73.905v57.905h-73.905z"></path>
  <circle cx="133.803" cy="34.807" r="1.709" fill="#FF4D62"></circle>
  <circle cx="138.932" cy="34.807" r="1.709" fill="#CCA200"></circle>
  <circle cx="144.06" cy="34.807" r="1.709" fill="#008055"></circle>
  <path fill="#242424" stroke="#999" stroke-linecap="square" stroke-width="1.2" d="M68 40h105v84H68z"></path>
  <path fill="#2D3633" stroke="#fff" stroke-opacity=".5" stroke-width=".6" d="M72 44h97v76H72z"></path>
  <circle cx="78.243" cy="50.243" r="2.243" fill="#FF4D62"></circle>
  <circle cx="84.974" cy="50.243" r="2.243" fill="#CCA200"></circle>
  <circle cx="91.704" cy="50.243" r="2.243" fill="#008055"></circle>
  <path fill="#fff" fill-opacity=".8" d="m76.05 64 1.248-1.822-1.216-1.778h.446l.987 1.47.987-1.47h.448l-1.215 1.778L78.98 64h-.445l-1.02-1.513L76.498 64h-.448Zm3.032 0 1.248-1.822-1.215-1.778h.445l.987 1.47.988-1.47h.447l-1.215 1.778L82.012 64h-.445l-1.02-1.513L79.53 64h-.448Zm3.033 0 1.247-1.822-1.215-1.778h.445l.987 1.47.988-1.47h.448l-1.216 1.778L85.044 64H84.6l-1.02-1.513L82.561 64h-.447Zm3.032 0 1.247-1.822L85.18 60.4h.445l.988 1.47.987-1.47h.448l-1.215 1.778L88.077 64h-.445l-1.02-1.513L85.594 64h-.447Zm3.032 0 1.247-1.822-1.215-1.778h.445l.988 1.47.987-1.47h.448l-1.215 1.778L91.109 64h-.445l-1.02-1.513L88.626 64h-.447Zm3.032 0 1.248-1.822-1.215-1.778h.445l.987 1.47.988-1.47h.447l-1.215 1.778L94.141 64h-.445l-1.02-1.513L91.66 64h-.448Zm3.032 0 1.248-1.822-1.215-1.778h.445l.987 1.47.988-1.47h.447l-1.215 1.778L97.173 64h-.445l-1.02-1.513L94.691 64h-.448Zm3.033 0 1.247-1.822-1.215-1.778h.445l.988 1.47.987-1.47h.448l-1.215 1.778L100.206 64h-.445l-1.02-1.513L97.723 64h-.447Zm3.032 0 1.247-1.822-1.215-1.778h.445l.988 1.47.987-1.47h.448l-1.215 1.778L103.238 64h-.445l-1.02-1.513L100.755 64h-.447Zm3.032 0 1.248-1.822-1.215-1.778h.445l.987 1.47.988-1.47h.447l-1.215 1.778L106.27 64h-.445l-1.02-1.513L103.788 64h-.448Zm3.032 0 1.248-1.822-1.215-1.778h.445l.987 1.47.988-1.47h.447l-1.215 1.778L109.302 64h-.445l-1.02-1.513L106.82 64h-.448Zm3.032 0 1.248-1.822-1.215-1.778h.445l.987 1.47.988-1.47h.447l-1.215 1.778L112.334 64h-.445l-1.02-1.513L109.852 64h-.448Zm3.033 0 1.247-1.822-1.215-1.778h.445l.988 1.47.987-1.47h.448l-1.215 1.778L115.367 64h-.445l-1.02-1.513L112.884 64h-.447Zm3.032 0 1.247-1.822-1.215-1.778h.445l.988 1.47.987-1.47h.448l-1.215 1.778L118.399 64h-.445l-1.02-1.513L115.916 64h-.447Zm3.032 0 1.248-1.822-1.215-1.778h.445l.987 1.47.988-1.47h.447l-1.215 1.778L121.431 64h-.445l-1.02-1.513L118.949 64h-.448Zm3.032 0 1.248-1.822-1.215-1.778h.445l.987 1.47.988-1.47h.447l-1.215 1.778L124.463 64h-.445l-1.02-1.513L121.981 64h-.448Zm3.033 0 1.247-1.822-1.215-1.778h.445l.988 1.47.987-1.47h.448l-1.215 1.778L127.496 64h-.445l-1.02-1.513L125.013 64h-.447Zm3.032 0 1.247-1.822-1.215-1.778h.445l.988 1.47.987-1.47h.448l-1.215 1.778L130.528 64h-.445l-1.02-1.513L128.045 64h-.447ZM76.05 108l1.248-1.823-1.216-1.777h.446l.987 1.47.987-1.47h.448l-1.215 1.777L78.98 108h-.445l-1.02-1.513L76.498 108h-.448Zm3.032 0 1.248-1.823-1.215-1.777h.445l.987 1.47.988-1.47h.447l-1.215 1.777L82.012 108h-.445l-1.02-1.513L79.53 108h-.448Zm3.033 0 1.247-1.823-1.215-1.777h.445l.987 1.47.988-1.47h.448l-1.216 1.777L85.044 108H84.6l-1.02-1.513L82.561 108h-.447Zm3.032 0 1.247-1.823-1.215-1.777h.445l.988 1.47.987-1.47h.448l-1.215 1.777L88.077 108h-.445l-1.02-1.513L85.594 108h-.447Zm3.032 0 1.247-1.823-1.215-1.777h.445l.988 1.47.987-1.47h.448l-1.215 1.777L91.109 108h-.445l-1.02-1.513L88.626 108h-.447Zm3.032 0 1.248-1.823-1.215-1.777h.445l.987 1.47.988-1.47h.447l-1.215 1.777L94.141 108h-.445l-1.02-1.513L91.66 108h-.448Zm3.032 0 1.248-1.823-1.215-1.777h.445l.987 1.47.988-1.47h.447l-1.215 1.777L97.173 108h-.445l-1.02-1.513L94.691 108h-.448Zm3.033 0 1.247-1.823-1.215-1.777h.445l.988 1.47.987-1.47h.448l-1.215 1.777 1.245 1.823h-.445l-1.02-1.513L97.723 108h-.447Zm3.032 0 1.247-1.823-1.215-1.777h.445l.988 1.47.987-1.47h.448l-1.215 1.777 1.245 1.823h-.445l-1.02-1.513-1.018 1.513h-.447Zm3.032 0 1.248-1.823-1.215-1.777h.445l.987 1.47.988-1.47h.447l-1.215 1.777L106.27 108h-.445l-1.02-1.513-1.017 1.513h-.448Zm3.032 0 1.248-1.823-1.215-1.777h.445l.987 1.47.988-1.47h.447l-1.215 1.777 1.245 1.823h-.445l-1.02-1.513L106.82 108h-.448Zm3.032 0 1.248-1.823-1.215-1.777h.445l.987 1.47.988-1.47h.447l-1.215 1.777 1.245 1.823h-.445l-1.02-1.513-1.017 1.513h-.448Zm3.033 0 1.247-1.823-1.215-1.777h.445l.988 1.47.987-1.47h.448l-1.215 1.777 1.245 1.823h-.445l-1.02-1.513-1.018 1.513h-.447Zm3.032 0 1.247-1.823-1.215-1.777h.445l.988 1.47.987-1.47h.448l-1.215 1.777 1.245 1.823h-.445l-1.02-1.513-1.018 1.513h-.447Zm3.032 0 1.248-1.823-1.215-1.777h.445l.987 1.47.988-1.47h.447l-1.215 1.777 1.245 1.823h-.445l-1.02-1.513-1.017 1.513h-.448Zm3.032 0 1.248-1.823-1.215-1.777h.445l.987 1.47.988-1.47h.447l-1.215 1.777 1.245 1.823h-.445l-1.02-1.513-1.017 1.513h-.448Zm3.033 0 1.247-1.823-1.215-1.777h.445l.988 1.47.987-1.47h.448l-1.215 1.777 1.245 1.823h-.445l-1.02-1.513-1.018 1.513h-.447Zm3.032 0 1.247-1.823-1.215-1.777h.445l.988 1.47.987-1.47h.448l-1.215 1.777 1.245 1.823h-.445l-1.02-1.513-1.018 1.513h-.447Zm3.032 0 1.248-1.823-1.215-1.777h.445l.987 1.47.988-1.47h.447l-1.215 1.777L133.56 108h-.445l-1.02-1.513-1.017 1.513h-.448Zm3.032 0 1.248-1.823-1.215-1.777h.445l.987 1.47.988-1.47h.447l-1.215 1.777 1.245 1.823h-.445l-1.02-1.513L134.11 108h-.448Zm3.033 0 1.247-1.823-1.215-1.777h.445l.988 1.47.987-1.47h.448l-1.215 1.777 1.245 1.823h-.445l-1.02-1.513-1.018 1.513h-.447Zm3.032 0 1.247-1.823-1.215-1.777h.445l.988 1.47.987-1.47h.448l-1.215 1.777 1.245 1.823h-.445l-1.02-1.513-1.018 1.513h-.447Zm3.032 0 1.247-1.823-1.215-1.777h.445l.988 1.47.987-1.47h.448l-1.215 1.777 1.245 1.823h-.445l-1.02-1.513-1.018 1.513h-.447Zm3.032 0 1.248-1.823-1.215-1.777h.445l.987 1.47.988-1.47h.447l-1.215 1.777 1.245 1.823h-.445l-1.02-1.513-1.017 1.513h-.448Zm3.032 0 1.248-1.823-1.215-1.777h.445l.987 1.47.988-1.47h.447l-1.215 1.777 1.245 1.823h-.445l-1.02-1.513-1.017 1.513h-.448Zm3.033 0 1.247-1.823-1.215-1.777h.445l.988 1.47.987-1.47h.448l-1.215 1.777 1.245 1.823h-.445l-1.02-1.513-1.018 1.513h-.447Zm3.032 0 1.247-1.823-1.215-1.777h.445l.988 1.47.987-1.47h.448l-1.215 1.777 1.245 1.823h-.445l-1.02-1.513-1.018 1.513h-.447Zm3.032 0 1.248-1.823-1.215-1.777h.445l.987 1.47.988-1.47h.447l-1.215 1.777L160.85 108h-.445l-1.02-1.513-1.017 1.513h-.448ZM76.05 75l1.248-1.823-1.216-1.777h.446l.987 1.47.987-1.47h.448l-1.215 1.777L78.98 75h-.445l-1.02-1.513L76.498 75h-.448Zm3.032 0 1.248-1.823-1.215-1.777h.445l.987 1.47.988-1.47h.447l-1.215 1.777L82.012 75h-.445l-1.02-1.513L79.53 75h-.448Zm3.033 0 1.247-1.823-1.215-1.777h.445l.987 1.47.988-1.47h.448l-1.216 1.777L85.044 75H84.6l-1.02-1.513L82.561 75h-.447Zm18.193 0 1.247-1.823-1.215-1.777h.445l.988 1.47.987-1.47h.448l-1.215 1.777L103.238 75h-.445l-1.02-1.513L100.755 75h-.447Zm3.032 0 1.248-1.823-1.215-1.777h.445l.987 1.47.988-1.47h.447l-1.215 1.777L106.27 75h-.445l-1.02-1.513L103.788 75h-.448Zm3.032 0 1.248-1.823-1.215-1.777h.445l.987 1.47.988-1.47h.447l-1.215 1.777L109.302 75h-.445l-1.02-1.513L106.82 75h-.448Zm3.032 0 1.248-1.823-1.215-1.777h.445l.987 1.47.988-1.47h.447l-1.215 1.777L112.334 75h-.445l-1.02-1.513L109.852 75h-.448Zm3.033 0 1.247-1.823-1.215-1.777h.445l.988 1.47.987-1.47h.448l-1.215 1.777L115.367 75h-.445l-1.02-1.513L112.884 75h-.447Zm3.032 0 1.247-1.823-1.215-1.777h.445l.988 1.47.987-1.47h.448l-1.215 1.777L118.399 75h-.445l-1.02-1.513L115.916 75h-.447Zm3.032 0 1.248-1.823-1.215-1.777h.445l.987 1.47.988-1.47h.447l-1.215 1.777L121.431 75h-.445l-1.02-1.513L118.949 75h-.448Z"></path>
  <path fill="#FF4D62" d="m85.147 75 1.247-1.823L85.18 71.4h.445l.988 1.47.987-1.47h.448l-1.215 1.777L88.077 75h-.445l-1.02-1.513L85.594 75h-.447Zm3.032 0 1.247-1.823-1.215-1.777h.445l.988 1.47.987-1.47h.448l-1.215 1.777L91.109 75h-.445l-1.02-1.513L88.626 75h-.447Zm3.032 0 1.248-1.823-1.215-1.777h.445l.987 1.47.988-1.47h.447l-1.215 1.777L94.141 75h-.445l-1.02-1.513L91.66 75h-.448Zm3.032 0 1.248-1.823-1.215-1.777h.445l.987 1.47.988-1.47h.447l-1.215 1.777L97.173 75h-.445l-1.02-1.513L94.691 75h-.448Zm3.033 0 1.247-1.823-1.215-1.777h.445l.988 1.47.987-1.47h.448l-1.215 1.777L100.206 75h-.445l-1.02-1.513L97.723 75h-.447Z"></path>
  <path fill="#fff" fill-opacity=".8" d="m76.05 86 1.248-1.823-1.216-1.777h.446l.987 1.47.987-1.47h.448l-1.215 1.777L78.98 86h-.445l-1.02-1.513L76.498 86h-.448Zm3.032 0 1.248-1.823-1.215-1.777h.445l.987 1.47.988-1.47h.447l-1.215 1.777L82.012 86h-.445l-1.02-1.513L79.53 86h-.448Zm3.033 0 1.247-1.823-1.215-1.777h.445l.987 1.47.988-1.47h.448l-1.216 1.777L85.044 86H84.6l-1.02-1.513L82.561 86h-.447Zm3.032 0 1.247-1.823L85.18 82.4h.445l.988 1.47.987-1.47h.448l-1.215 1.777L88.077 86h-.445l-1.02-1.513L85.594 86h-.447Zm3.032 0 1.247-1.823-1.215-1.777h.445l.988 1.47.987-1.47h.448l-1.215 1.777L91.109 86h-.445l-1.02-1.513L88.626 86h-.447Zm3.032 0 1.248-1.823-1.215-1.777h.445l.987 1.47.988-1.47h.447l-1.215 1.777L94.141 86h-.445l-1.02-1.513L91.66 86h-.448Zm3.032 0 1.248-1.823-1.215-1.777h.445l.987 1.47.988-1.47h.447l-1.215 1.777L97.173 86h-.445l-1.02-1.513L94.691 86h-.448Zm3.033 0 1.247-1.823-1.215-1.777h.445l.988 1.47.987-1.47h.448l-1.215 1.777L100.206 86h-.445l-1.02-1.513L97.723 86h-.447Zm3.032 0 1.247-1.823-1.215-1.777h.445l.988 1.47.987-1.47h.448l-1.215 1.777L103.238 86h-.445l-1.02-1.513L100.755 86h-.447Zm21.225 0 1.248-1.823-1.215-1.777h.445l.987 1.47.988-1.47h.447l-1.215 1.777L124.463 86h-.445l-1.02-1.513L121.981 86h-.448Zm3.033 0 1.247-1.823-1.215-1.777h.445l.988 1.47.987-1.47h.448l-1.215 1.777L127.496 86h-.445l-1.02-1.513L125.013 86h-.447Zm3.032 0 1.247-1.823-1.215-1.777h.445l.988 1.47.987-1.47h.448l-1.215 1.777L130.528 86h-.445l-1.02-1.513L128.045 86h-.447Z"></path>
  <path fill="#00865A" d="m103.34 86 1.248-1.823-1.215-1.777h.445l.987 1.47.988-1.47h.447l-1.215 1.777L106.27 86h-.445l-1.02-1.513L103.788 86h-.448Zm3.032 0 1.248-1.823-1.215-1.777h.445l.987 1.47.988-1.47h.447l-1.215 1.777L109.302 86h-.445l-1.02-1.513L106.82 86h-.448Zm3.032 0 1.248-1.823-1.215-1.777h.445l.987 1.47.988-1.47h.447l-1.215 1.777L112.334 86h-.445l-1.02-1.513L109.852 86h-.448Zm3.033 0 1.247-1.823-1.215-1.777h.445l.988 1.47.987-1.47h.448l-1.215 1.777L115.367 86h-.445l-1.02-1.513L112.884 86h-.447Zm3.032 0 1.247-1.823-1.215-1.777h.445l.988 1.47.987-1.47h.448l-1.215 1.777L118.399 86h-.445l-1.02-1.513L115.916 86h-.447Zm3.032 0 1.248-1.823-1.215-1.777h.445l.987 1.47.988-1.47h.447l-1.215 1.777L121.431 86h-.445l-1.02-1.513L118.949 86h-.448Z"></path>
  <path fill="#fff" fill-opacity=".8" d="m76.05 97 1.248-1.823-1.216-1.777h.446l.987 1.47.987-1.47h.448l-1.215 1.777L78.98 97h-.445l-1.02-1.513L76.498 97h-.448Zm3.032 0 1.248-1.823-1.215-1.777h.445l.987 1.47.988-1.47h.447l-1.215 1.777L82.012 97h-.445l-1.02-1.513L79.53 97h-.448Zm3.033 0 1.247-1.823-1.215-1.777h.445l.987 1.47.988-1.47h.448l-1.216 1.777L85.044 97H84.6l-1.02-1.513L82.561 97h-.447Zm3.032 0 1.247-1.823L85.18 93.4h.445l.988 1.47.987-1.47h.448l-1.215 1.777L88.077 97h-.445l-1.02-1.513L85.594 97h-.447Zm3.032 0 1.247-1.823-1.215-1.777h.445l.988 1.47.987-1.47h.448l-1.215 1.777L91.109 97h-.445l-1.02-1.513L88.626 97h-.447Zm3.032 0 1.248-1.823-1.215-1.777h.445l.987 1.47.988-1.47h.447l-1.215 1.777L94.141 97h-.445l-1.02-1.513L91.66 97h-.448Zm3.032 0 1.248-1.823-1.215-1.777h.445l.987 1.47.988-1.47h.447l-1.215 1.777L97.173 97h-.445l-1.02-1.513L94.691 97h-.448Zm3.033 0 1.247-1.823-1.215-1.777h.445l.988 1.47.987-1.47h.448l-1.215 1.777L100.206 97h-.445l-1.02-1.513L97.723 97h-.447Z"></path>
</svg>