<svg xmlns="http://www.w3.org/2000/svg" width="200" height="160" fill="none" viewBox="0 0 200 160">
  <path stroke="#999" stroke-linecap="square" stroke-width="1.34" d="M152.497 65.275H47.5v42.255h104.997V65.275Z"></path>
  <path fill="#242424" stroke="#999" stroke-linecap="square" stroke-width="1.2" d="M146.095 28.14H79.512v79.39h66.583V28.14Z"></path>
  <path fill="#242424" stroke="#999" stroke-linecap="square" stroke-width=".6" d="M142.255 31.982H83.354v72.495h58.901V31.982Z"></path>
  <path fill="#00B476" stroke="#999" stroke-linecap="square" stroke-width="1.2" d="M79.513 40.944h-25.61v66.585h25.61V40.944Z"></path>
  <path fill="#2D3633" d="m48.143 66.556 52.178 42.255L152.5 66.556v65.303l-52.179-46.737-52.178 46.737V66.556Z"></path>
  <path stroke="#999" stroke-linecap="square" stroke-width="1.2" d="m47.5 66.556 52.499 41.615 52.498-41.615v65.303H47.5V66.556Z"></path>
  <path fill="#242424" stroke="#999" stroke-linecap="square" stroke-linejoin="bevel" stroke-width="1.2" d="M152.497 131.858H47.5l51.859-46.097 53.138 46.097Z"></path>
  <path stroke="#00B476" stroke-width="3.532" d="M100.315 67.12h25.276"></path>
  <circle cx="100.315" cy="58.569" r="8.551" stroke="#00B476" stroke-width="3.532"></circle>
  <circle cx="126.213" cy="58.569" r="8.551" stroke="#00B476" stroke-width="3.532"></circle>
</svg>