<svg xmlns="http://www.w3.org/2000/svg" width="300" height="160" fill="none" viewBox="0 0 300 160">
  <path fill="#2D3633" stroke="#999" stroke-linecap="square" stroke-width="1.2" d="M67.431 48.438h116.648v79.636H67.431z"></path>
  <path fill="#242424" stroke="#999" stroke-linecap="square" stroke-width=".785" d="M73.036 55.164h105.431v72.906H73.036z"></path>
  <path stroke="#999" stroke-linecap="square" stroke-width="1.2" d="M57.333 128.07h135.715v5.608H57.333z"></path>
  <circle cx="79.764" cy="61.9" r="2.243" fill="#FF4D62"></circle>
  <circle cx="86.494" cy="61.9" r="2.243" fill="#CCA200"></circle>
  <circle cx="93.225" cy="61.9" r="2.243" fill="#00A870"></circle>
  <ellipse cx="127.552" cy="93.421" stroke="#999" stroke-dasharray="1.57 1.57" stroke-linecap="square" stroke-width=".785" rx="38.813" ry="11.5" transform="rotate(28.948 127.552 93.421)"></ellipse>
  <ellipse cx="38.813" cy="11.5" stroke="#999" stroke-dasharray="1.57 1.57" stroke-linecap="square" stroke-width=".785" rx="38.813" ry="11.5" transform="scale(-1 1) rotate(28.948 -203.05 -269.784)"></ellipse>
  <circle cx="106.158" cy="93.424" r="3.5" fill="#00A870" stroke="#999"></circle>
  <circle cx="149.193" cy="93.424" r="3.5" fill="#00A870" stroke="#999"></circle>
  <circle cx="126.959" cy="80.228" r="3.5" fill="#00A870" stroke="#999"></circle>
  <circle cx="126.959" cy="105.822" r="3.5" fill="#00A870" stroke="#999"></circle>
  <path fill="#242424" stroke="#999" stroke-width="1.2" d="M61.494 78.932c3.937 0 7.778.748 11.426 2.218l.727.304 12.247 5.303v16.03a34.665 34.665 0 0 1-2.02 11.757l-.035.098v.015a38.27 38.27 0 0 1-5.68 10.426l-.005.006-.047.063a37.297 37.297 0 0 1-8.685 8.27 31.391 31.391 0 0 1-7.936 3.904 31.08 31.08 0 0 1-7.965-3.926v-.001a37.044 37.044 0 0 1-8.677-8.273l-.007-.009-.016-.024-.01-.016-.012-.016a38.183 38.183 0 0 1-5.677-10.491l-.012-.035-.015-.031a34.619 34.619 0 0 1-2.001-11.702V86.757l12.24-5.303a30.458 30.458 0 0 1 12.16-2.522Z"></path>
  <path fill="#2D3633" stroke="#999" stroke-width=".6" d="M61.494 81.623c3.741 0 7.386.757 10.827 2.246l10.96 4.746v14.312l-.006.67a30.837 30.837 0 0 1-1.792 9.797l-.017.049v.013a34.042 34.042 0 0 1-5.067 9.312l-.002.003-.02.027-.02.026a33.18 33.18 0 0 1-7.73 7.361 27.95 27.95 0 0 1-7.14 3.5 27.653 27.653 0 0 1-7.168-3.52 33.002 33.002 0 0 1-7.318-6.84l-.411-.534-.004-.006-.014-.022-.012-.015a33.983 33.983 0 0 1-5.048-9.332l-.007-.018-.008-.017-.007-.013a30.824 30.824 0 0 1-1.784-10.427V88.615l10.953-4.746a27.14 27.14 0 0 1 10.835-2.246Z"></path>
  <path stroke="#00A870" stroke-linecap="square" stroke-width="3.098" d="m52.944 105.118 7.816 7.214 10.82-13.827"></path>
  <path fill="#2D3633" stroke="#999" stroke-linecap="square" stroke-width="1.2" d="M184.078 79.677h56v16h-56z"></path>
  <path fill="#242424" stroke="#999" stroke-linecap="square" stroke-width=".432" d="M187.078 82.677h50v10h-50z"></path>
  <circle cx="192.312" cy="87.911" r="1.234" fill="#00A870"></circle>
  <path fill="#2D3633" stroke="#999" stroke-linecap="square" stroke-width="1.2" d="M184.078 98.677h56v16h-56z"></path>
  <path fill="#242424" stroke="#999" stroke-linecap="square" stroke-width=".432" d="M187.078 101.677h50v10h-50z"></path>
  <circle cx="192.312" cy="106.911" r="1.234" fill="#00A870"></circle>
  <path fill="#2D3633" stroke="#999" stroke-linecap="square" stroke-width="1.2" d="M184.078 117.677h56v16h-56z"></path>
  <path fill="#242424" stroke="#999" stroke-linecap="square" stroke-width=".432" d="M187.078 120.677h50v10h-50z"></path>
  <circle cx="192.312" cy="125.911" r="1.234" fill="#00A870"></circle>
  <path fill="#242424" d="M239.559 107.677c5.72 0 10.655 3.358 12.944 8.209.259-.019.52-.032.784-.032 5.643 0 10.219 4.575 10.219 10.218s-4.575 10.218-10.219 10.219c-.112 0-.224-.006-.335-.009v.007h-27.661l-.038.001a8.176 8.176 0 0 1 0-16.35c.049 0 .097.002.145.003.991-6.934 6.952-12.266 14.161-12.266Z"></path>
  <path fill="#999" d="M239.559 107.677v-.35.35Zm12.944 8.209-.317.15.103.217.24-.018-.026-.349Zm.784-.032v-.35.35Zm10.219 10.218h.35-.35Zm-10.219 10.219v.35-.35Zm-.335-.009.011-.35-.361-.012v.362h.35Zm0 .007v.35h.35v-.35h-.35Zm-27.661 0v-.35h-.002l.002.35Zm-.038.001v.35-.35Zm-8.175-8.175h-.35.35Zm8.175-8.175v-.35.35Zm.145.003-.006.35.309.005.044-.306-.347-.049Zm14.161-12.266v.35c5.579 0 10.394 3.275 12.627 8.009l.317-.15.316-.149c-2.344-4.969-7.4-8.41-13.26-8.41v.35Zm12.944 8.209.026.349c.253-.019.505-.031.758-.031v-.7c-.275 0-.545.013-.811.033l.027.349Zm.784-.032v.35c5.45 0 9.869 4.418 9.869 9.868h.7c0-5.837-4.732-10.568-10.569-10.568v.35Zm10.219 10.218h-.35c0 5.45-4.419 9.868-9.869 9.869v.7c5.837-.001 10.569-4.733 10.569-10.569h-.35Zm-10.219 10.219v-.35c-.104 0-.206-.005-.324-.009l-.011.35-.011.35c.104.003.227.009.346.009v-.35Zm-.335-.009h-.35v.007h.7v-.007h-.35Zm0 .007v-.35h-27.661v.7h27.661v-.35Zm-27.661 0-.002-.35h-.03l-.006.001v.7l.032-.001h.008l-.002-.35Zm-.038.001v-.35a7.825 7.825 0 0 1-7.825-7.825h-.7a8.525 8.525 0 0 0 8.525 8.525v-.35Zm-8.175-8.175h.35a7.825 7.825 0 0 1 7.825-7.825v-.7a8.525 8.525 0 0 0-8.525 8.525h.35Zm8.175-8.175v.35l.139.003.006-.35.007-.35c-.035-.001-.101-.003-.152-.003v.35Zm.145.003.347.049c.966-6.764 6.782-11.965 13.814-11.965v-.7c-7.385 0-13.493 5.462-14.507 12.566l.346.05Z"></path>
  <path fill="#2D3633" d="M239.944 110.332c5.35 0 9.502 3.341 11.008 7.998.312-.026.628-.039.948-.039 4.945 0 8.954 3.081 8.954 7.648 0 4.531-3.946 8.209-8.837 8.267v.002h-24.928v-.001l-.061.001c-3.663 0-6.632-2.804-6.632-6.263 0-2.87 2.969-5.675 6.632-5.675.224 0 .445.008.662.024v-.024c.001-6.593 5.487-11.938 12.254-11.938Z"></path>
  <path fill="#999" d="M239.944 110.332v-.2.2Zm11.008 7.998-.19.061.049.151.157-.013-.016-.199Zm.948-.039v-.2.2Zm8.954 7.648h.2-.2Zm-8.837 8.267-.003-.2-.197.002v.198h.2Zm0 .002v.2h.2v-.2h-.2Zm-24.928 0h-.2v.2h.2v-.2Zm0-.001h.2v-.202l-.202.002.002.2Zm-.061.001v.2-.2Zm-6.632-6.263h-.2.2Zm6.632-5.675v-.2.2Zm.662.024-.014.2.215.016-.001-.216h-.2Zm0-.024h-.2.2Zm12.254-11.938v.2c5.259 0 9.337 3.281 10.818 7.859l.19-.061.19-.062c-1.531-4.735-5.757-8.136-11.198-8.136v.2Zm11.008 7.998.016.199c.307-.025.618-.038.932-.038v-.4c-.326 0-.647.013-.964.039l.016.2Zm.948-.039v.2c4.872 0 8.754 3.025 8.754 7.448h.4c0-4.711-4.135-7.848-9.154-7.848v.2Zm8.954 7.648h-.2c0 4.407-3.843 8.01-8.64 8.067l.003.2.002.2c4.986-.059 9.035-3.812 9.035-8.467h-.2Zm-8.837 8.267h-.2v.002h.4v-.002h-.2Zm0 .002v-.2h-24.928v.4h24.928v-.2Zm-24.928 0h.2v-.001h-.4v.001h.2Zm0-.001-.002-.2-.038.001h-.021v.4l.04-.001h.023l-.002-.2Zm-.061.001v-.2c-3.563 0-6.432-2.725-6.432-6.063h-.4c0 3.58 3.07 6.463 6.832 6.463v-.2Zm-6.632-6.263h.2c0-2.737 2.856-5.475 6.432-5.475v-.4c-3.749 0-6.832 2.872-6.832 5.875h.2Zm6.632-5.675v.2c.219 0 .435.008.648.024l.014-.2.015-.199a8.892 8.892 0 0 0-.677-.025v.2Zm.662.024h.2v-.024h-.4v.025l.2-.001Zm0-.024h.2c.001-6.478 5.392-11.738 12.054-11.738v-.4c-6.873 0-12.453 5.429-12.454 12.138h.2Z"></path>
  <path fill="#00A870" d="m240.323 117.677 5 6.146h-3.51v7.512h-2.979v-7.512h-3.511l5-6.146Z"></path>
  <circle cx="184.078" cy="42.116" r="24.392" fill="#242424" stroke="#999" stroke-width="1.2"></circle>
  <circle cx="184.082" cy="41.795" r="13.5" fill="#85BF00"></circle>
  <path fill="#777" d="M183.758 27.725c7.749 0 14.032 6.283 14.032 14.032 0 7.75-6.283 14.032-14.032 14.033-7.75 0-14.032-6.283-14.032-14.033 0-7.75 6.282-14.032 14.032-14.032Zm-4.375 14.585c.052 3.438.586 6.516 1.409 8.75.434 1.178.937 2.093 1.468 2.702.42.483.827.737 1.206.823a12.843 12.843 0 0 0 .585 0c.378-.086.785-.34 1.206-.823.53-.609 1.033-1.523 1.468-2.702.823-2.234 1.357-5.312 1.409-8.75h-8.751Zm-8.445 0c.254 5.99 4.613 10.916 10.336 12.038-.597-.737-1.118-1.729-1.547-2.895-.879-2.385-1.427-5.602-1.479-9.143h-7.31Zm18.331 0c-.052 3.541-.6 6.758-1.479 9.143-.43 1.166-.951 2.158-1.549 2.895 5.723-1.122 10.082-6.049 10.336-12.038h-7.308Zm-3.029-13.145c.599.737 1.12 1.73 1.55 2.899.876 2.378 1.424 5.582 1.479 9.111h7.307c-.267-5.976-4.621-10.89-10.336-12.01Zm-4.965 0c-5.714 1.12-10.07 6.033-10.337 12.01h7.31c.055-3.529.603-6.733 1.479-9.111.43-1.168.95-2.162 1.548-2.9Zm2.196-.238c-.38.086-.789.342-1.211.827-.531.61-1.034 1.524-1.468 2.702-.821 2.228-1.354 5.294-1.409 8.72h8.751c-.055-3.426-.589-6.492-1.409-8.72-.435-1.178-.938-2.093-1.468-2.702-.424-.486-.834-.742-1.215-.827a13.377 13.377 0 0 0-.571 0Z"></path>
</svg>