<svg xmlns="http://www.w3.org/2000/svg" width="300" height="160" fill="none" viewBox="0 0 300 160">
  <g clip-path="url(#a)">
    <g clip-path="url(#b)">
      <path stroke="#999" stroke-width=".89" d="M150.315 32.554c29.738 0 53.845 24.108 53.845 53.846 0 29.738-24.107 53.845-53.845 53.845-29.737 0-53.845-24.107-53.845-53.845s24.108-53.846 53.845-53.846Z"></path>
      <mask id="c" fill="#fff">
        <path d="M93.718 164.978c-1.067-.398-1.366-.789-1.112-1.454.117-.308.343-.561.501-.561.158 0 .851.364 1.54.808.688.444 1.53.908 1.871 1.032l.62.224-.763.017c-.418.009-1.033.056-1.365.104-.333.048-.914-.028-1.292-.17Zm-2.423-2.046a1.086 1.086 0 0 0-.744-.084c-.263.083-.466-.041-.66-.403-.154-.288-.431-.575-.615-.638-.421-.145-1.305-1.573-1.797-2.906-.248-.672-.582-1.138-.979-1.363-.704-.399-.754-.58-.21-.753.624-.197.74-1.294.215-2.029-.25-.351-.382-.763-.307-.959.09-.231-.156-.638-.751-1.242-.75-.764-.89-1.042-.923-1.846-.022-.521-.15-1.078-.283-1.239-.168-.202-.202-.928-.112-2.364.099-1.556.042-2.516-.23-3.855-.403-1.987-.608-5.69-.504-9.069.023-.721-.07-1.711-.208-2.199-.333-1.19-1.865-2.693-3.759-3.686-1.354-.71-1.545-.892-2.074-1.983a14.696 14.696 0 0 0-1.362-2.195c-.428-.546-.894-1.348-1.035-1.782-.447-1.378-1.235-2.763-1.772-3.114-.286-.187-.612-.673-.725-1.08-.182-.659-.134-.843.437-1.671.618-.897.625-.934.207-1.043-1.027-.268-.595-1.638 1.25-3.961 1.225-1.543 1.584-2.719 1.245-4.078-.13-.517-.246-1.059-.258-1.203-.012-.144-.104-.262-.205-.262-.1 0-.08-.189.043-.42.191-.357.143-.458-.316-.667-.67-.304-1.68-.003-1.683.501-.005.605-.272.65-1.15.192-.472-.245-.96-.445-1.087-.445s-.62-.335-1.097-.744c-.476-.41-.984-.838-1.129-.952-.144-.114-.262-.425-.262-.691 0-.266-.186-.651-.413-.856-.227-.205-.52-.7-.653-1.1-.174-.527-.304-.665-.47-.499-.346.345-.859.28-2.103-.27-.65-.287-1.328-.777-1.598-1.156-.259-.362-.752-.804-1.097-.982-.57-.294-.712-.291-1.54.025l-.915.348-2.802-1.356c-1.724-.834-3.063-1.629-3.477-2.066-.643-.678-.663-.752-.45-1.593.196-.77.163-1.008-.263-1.886-.268-.553-.854-1.403-1.302-1.888-.448-.485-.764-.964-.702-1.064.063-.1-.253-.777-.701-1.504-.509-.826-.868-1.71-.957-2.358-.114-.83-.248-1.083-.67-1.275-.447-.203-.572-.178-.828.172-.36.491-.258 1.01.54 2.73.323.698.658 1.734.744 2.301.085.568.337 1.388.56 1.823.526 1.03.186 1.013-.645-.035-.49-.617-.623-.956-.525-1.343.104-.414.001-.613-.508-.989-.773-.57-.936-.938-.652-1.467.165-.308.09-.647-.331-1.474-.427-.841-.516-1.248-.41-1.872.172-1.02-.287-1.944-1.142-2.298-.494-.204-.664-.432-.764-1.025a21.826 21.826 0 0 0-.303-1.443c-.1-.39-.092-.73.017-.798.104-.064.036-.352-.153-.64-.277-.422-.296-.622-.1-1.052.134-.293.184-.627.112-.743-.072-.116.107-.463.398-.77.291-.308.678-.922.86-1.365.183-.442.745-1.262 1.25-1.822.504-.56 1.144-1.541 1.421-2.18.385-.888.61-1.163.954-1.166.247-.002.436.114.42.259-.067.6.409.415.944-.367.315-.462.485-.87.378-.909-.108-.038-.196-.212-.196-.386 0-.173-.435-.737-.966-1.253-.882-.855-.939-.969-.645-1.292.237-.262.265-.454.107-.737-.279-.496.16-1.608.637-1.613.197-.002.253-.068.132-.157-.271-.199-.394-.65-.356-1.307.061-1.05-.17-1.49-.952-1.816a7.813 7.813 0 0 1-1.43-.825c-.365-.278-.828-.505-1.03-.505-.2 0-1.114-.19-2.03-.424-1.471-.375-1.73-.39-2.24-.128-1.057.543-2.177.764-2.633.52-.343-.183-.716-.07-2.02.61-.878.46-1.929.906-2.333.993-.405.087-1.179.381-1.72.654-1.537.772-3.738 1.551-4.347 1.538-.392-.01-.127-.181.919-.595 1.776-.703 3.602-1.619 3.77-1.891.208-.336-.243-.456-.785-.21-.4.182-.646.165-1.106-.076l-.593-.31.645-.333c.728-.376.957-.801.79-1.467-.162-.644.732-1.118 2.658-1.408 1.035-.156 1.821-.415 2.35-.775.935-.634.774-1.114-.233-.697-.476.197-.824.199-1.53.009-.857-.23-.888-.264-.504-.544.642-.468 1.97-.75 2.842-.603.552.093 1.005.028 1.469-.211l.67-.346-.441-.47c-.243-.257-.442-.524-.442-.592 0-.194 1.265-.583 1.898-.583.316 0 1.181-.228 1.923-.507s2.455-.66 3.805-.846c2.19-.302 2.654-.306 4.297-.034a72.73 72.73 0 0 0 3.102.444c.693.077 1.92.32 2.727.541 1.874.513 3.094.507 5.187-.026.924-.236 1.858-.372 2.076-.303.217.068.587.022.822-.103.323-.172.573-.152 1.034.086.416.215.93.276 1.63.195.739-.086 1.385.003 2.33.321.718.243 1.516.441 1.773.441.455 0 .457.008.06.3-.39.286-.392.306-.026.448.211.081.942.09 1.625.018 1.234-.129 1.245-.125 1.589.539l.346.668.45-.562c.258-.324.872-.69 1.443-.861.863-.26 1.125-.259 1.992.006.612.187 1.344.255 1.892.176.699-.1 1.023-.038 1.479.286.575.409.591.41 1.102.014.284-.22.87-.498 1.302-.618 1.032-.287 1.383-.9.762-1.333-.438-.306-.419-.33.734-.894.86-.421 1.247-.517 1.415-.35.167.168.166.352-.006.673-.294.547.071 1.374.529 1.199a.983.983 0 0 1 .606.003c.266.101.261.188-.03.633-.809 1.23 1.002.882 2.229-.43.498-.532 1.27-.694 1.995-.416.467.179.423.325-.35 1.172-.924 1.01-1.396 1.217-2.782 1.217-.67 0-1.46.144-1.829.335-.51.263-.759.285-1.16.102-.75-.341-1.012-.057-.474.514l.46.488-.917.26a9.358 9.358 0 0 1-1.862.29c-.754.024-.946.106-.947.403 0 .255-.368.523-1.155.844-2.553 1.042-4.718 2.919-3.934 3.411.146.092.38.425.518.739.159.361.465.613.836.688.322.064 1.152.395 1.846.736.693.34 1.544.681 1.89.757.955.207.964.23.519 1.355-.38.963-.388 1.1-.093 1.669.176.34.437.616.578.612.689-.02 1.334-.654 1.735-1.704.383-1.001.557-1.188 1.654-1.773 1.62-.863 2.294-1.714 2.114-2.668-.117-.622-.056-.768.477-1.147.336-.239.781-.81.99-1.27.464-1.028 1.21-1.385 2.469-1.18 1.116.183 2.436.89 2.595 1.391.066.206.011.575-.12.821-.2.373-.163.53.225.942l.466.495.76-.393a12.983 12.983 0 0 0 1.49-.938l.73-.545.171.462c.094.254.121.593.059.753-.061.16-.013.475.107.698.135.252.145.537.027.748-.133.237-.044.597.294 1.191.485.852.485.852.059 1.15-.559.39-.2.806.414.478.611-.326 1.309-.284 1.74.105.637.575.107 1.264-1.583 2.057-1.839.864-2.658 1.035-5.058 1.056-1.773.015-2.007.072-3.73.896-1.011.484-1.839.963-1.839 1.064 0 .433.319.395 1.541-.182.72-.34 1.65-.612 2.091-.612.756 0 .783.023.547.463a3.1 3.1 0 0 1-.654.792c-.352.284-.373.404-.153.886.33.722 1.192 1.07 2.223.896l.814-.137-.626.431c-.345.237-.912.493-1.26.568-.35.076-1.067.354-1.595.62-.535.269-1.073.411-1.218.322-.332-.205.019-.513 1.099-.963.96-.401.807-.827-.228-.633-.404.076-1.712.567-2.907 1.093-1.865.82-2.191 1.036-2.3 1.53-.133.607-.589.893-2.19 1.38-.51.155-1.173.53-1.47.833a8.48 8.48 0 0 1-1.27 1.008c-.4.251-.782.692-.85.979-.112.473-.138.484-.278.12-.263-.683-.66-.015-.682 1.149-.023 1.193-.63 2.007-1.958 2.63-1.363.638-3.302 2.148-3.694 2.876-.347.643-.362.893-.148 2.545.2 1.54.188 1.927-.075 2.434-.196.378-.424.558-.615.486-.45-.173-1.002-2.025-.847-2.847.107-.571.036-.787-.39-1.187-.344-.322-.661-.445-.931-.36-.225.072-.862-.063-1.415-.3-.848-.363-1.119-.393-1.724-.194-.41.135-.819.456-.952.748-.199.435-.33.491-.88.374a5.981 5.981 0 0 1-1.212-.428c-.769-.392-1.199-.365-2.062.13-.403.232-1.225.674-1.826.984-.692.355-1.167.76-1.291 1.1a134.67 134.67 0 0 0-.861 2.56l-.664 2.024.339 1.306c.623 2.4 1.49 3.118 3.296 2.731 1.362-.291 2.18-.882 2.48-1.79.191-.578.397-.769 1.013-.94.928-.257 1.316-.266 1.672-.04.294.186.19.492-1.126 3.337-.903 1.952-.838 2.126.71 1.903 1.41-.203 2.698-.047 2.849.345.058.153-.037 1.183-.212 2.289-.314 1.979-.312 2.023.14 2.752.252.408.726.879 1.052 1.047.52.269.684.268 1.339-.005 1.04-.434 1.605-.388 2.328.189.578.462.66.475 1.114.178.27-.176.638-.613.817-.971.406-.807 1.09-1.373 1.664-1.38.24-.002.658-.24.93-.529.55-.585 1.522-.776 1.047-.205-.398.478-.626 2.018-.369 2.497.214.398.23.396.62-.083.276-.342.332-.56.181-.711-.36-.36-.252-.66.42-1.155.697-.515 1.236-.462 1.838.18.44.47 2.796 1.106 3.471.937 1.028-.258 3.806 1.428 4.85 2.942.497.722 2.084 1.447 2.782 1.272 1.436-.359 3.405 1.077 3.865 2.819.138.519.344 1.003.46 1.075.306.19-.153.943-1.157 1.896-.641.609-.794.871-.614 1.051.18.181.477.023 1.19-.632 1.035-.953 1.381-1.05 1.9-.532.316.315.306.379-.127.839-.257.273-.617.503-.8.511-.191.007-.114.099.185.218.411.164.625.118 1.051-.226 1.109-.894 1.37-.937 2.356-.388.64.357.897.629.865.917-.09.8.099.977.654.614.442-.289.745-.303 2.222-.101 1.571.215 1.777.3 2.531 1.053.56.558 1.189.926 1.98 1.155 1.062.308 1.178.402 1.37 1.116.279 1.035-.048 2.183-.933 3.274-.378.466-.841 1.15-1.029 1.52-.188.37-.589.919-.89 1.219-.509.509-.538.636-.411 1.844.248 2.359-.908 6.761-2.023 7.702-.363.306-.674.378-1.25.289-.473-.073-.824-.026-.916.124-.083.133-.542.413-1.02.623a7.694 7.694 0 0 0-1.583.99c-.679.578-.701.642-.473 1.333.263.796.086 1.739-.478 2.543-.183.26-.332.703-.332.983 0 .281-.219.803-.487 1.159-.268.357-.785 1.174-1.149 1.816-.895 1.578-1.433 1.852-2.731 1.388-1.126-.403-1.727-.451-1.727-.139 0 .118.225.317.5.441.273.125.701.633.95 1.129.369.739.408.995.215 1.417-.298.654-1.44 1.203-2.5 1.203-.94 0-1.173.229-.848.834.2.374.065.975-.322 1.436-.031.037-.36-.089-.731-.28-.885-.457-1.198-.166-.751.697.182.351.528.701.768.777.414.131.419.16.082.531-.196.217-.297.545-.226.73.077.2-.094.631-.42 1.056-.527.691-.535.739-.196 1.255.193.294.495.591.67.658.634.242.739 1.07.256 2.014-.484.946-.558 1.894-.183 2.344.34.409-.805 1.206-1.32.918ZM75.81 72.109c.562-1.17 1.606-2.043 2.448-2.043.605 0 .612.098.058.802l-.436.553.447.361c.36.292.547.317.958.13.28-.128.567-.414.638-.637.097-.303.254-.374.624-.282.342.086.557.013.697-.239.428-.761-.66-1.735-1.459-1.308-.572.306-1.32-.302-1.16-.943.059-.238-.063-.652-.274-.93-.434-.571-1.095-.632-2.54-.231-.521.144-1.114.255-1.319.248-.204-.008-.317.074-.25.182.067.109.046.2-.048.202-.093.002-.405.185-.693.405l-.523.401.587.223c.46.174.73.15 1.24-.114.6-.309.71-.309 1.364.002.394.188.932.284 1.204.216.271-.068.55-.03.621.085.073.117-.223.267-.676.344-1.23.207-1.868.718-2.76 2.208-.745 1.244-.788 1.394-.491 1.723.291.323.372.328.772.049.245-.171.682-.804.971-1.407Zm3.818 1.294c.748-.38.82-.476.556-.74-.264-.262-.43-.245-1.288.133-1.007.445-1.326 1.045-.556 1.045.236 0 .815-.197 1.288-.438Zm3.726-1.584c.437-.306.454-.366.145-.538-.455-.254-1.805.183-1.805.584 0 .413 1.044.384 1.66-.046Zm15.78 90.557c0-.092.114-.281.253-.419.138-.139.172-.252.075-.252-.097 0-.29.155-.428.344-.2.272-.337.295-.654.111-.226-.131-.281-.235-.126-.239.151-.003.216-.101.145-.216-.137-.221.223-.282 1.26-.211.927.063 1.02.198.447.647-.533.419-.972.525-.972.235Zm175.486-5.263c-.601-.38.651-1.219 3.755-2.517.867-.362 2.188-1.12 2.935-1.684 1.271-.959 1.377-1.001 1.628-.642.383.545.158.939-.776 1.36-.447.201-1.008.59-1.247.865-.24.275-.625.5-.857.5-.232 0-.776.317-1.21.706-1.484 1.33-3.365 1.958-4.228 1.412Zm-14.706-2.724c-.218-.138-.23-.28-.052-.612.127-.238.232-.728.232-1.089 0-.591.047-.641.472-.491.261.091.804.178 1.209.193.404.015.808.041.898.058.348.065-.583 1.122-1.419 1.612-.996.582-.955.572-1.34.329Zm24.282-1.834c-.073-.073.1-.315.384-.539.429-.336.479-.479.292-.828-.272-.506.131-1.049 1.065-1.435.722-.298.905-.905.711-2.368-.134-1.007-.117-1.07.208-.802.255.211.318.476.227.961-.1.53-.01.806.433 1.332.479.568.621.63.994.431.372-.199.415-.181.298.123-.075.196-.137.394-.137.439 0 .045-.307.239-.683.431-.375.192-1.108.7-1.628 1.128-.846.697-1.716 1.26-1.948 1.26-.046 0-.143-.06-.216-.133Zm-22.221-2.708c-.442-.47-.524-.488-.949-.21-.542.354-1.56.147-2.376-.483-.435-.337-.465-.445-.241-.864.192-.357.198-.607.025-.986-.127-.279-.232-.692-.232-.917 0-.508-.33-.532-.604-.044-.112.201-.265.305-.338.232-.074-.074.169-.479.541-.901.913-1.038.556-1.319-.65-.513-.52.347-.978.727-1.02.843-.041.117-.29-.243-.555-.799-.286-.602-.781-1.208-1.225-1.5-.668-.439-.894-.475-2.177-.348-1.881.187-3.695.65-4.883 1.246-.54.271-1.594.548-2.406.633-.795.084-2.06.382-2.81.664-1.148.431-1.474.476-2.056.285-.78-.257-1.104-.786-.599-.98.183-.07.514-.551.737-1.069.356-.829.376-1.088.164-2.159-.174-.887-.179-1.727-.017-3.092.122-1.031.168-2.077.103-2.325-.065-.248.037-.855.226-1.349.333-.871.414-.928 2.669-1.881 1.278-.541 2.587-.983 2.908-.983.868 0 1.944-.825 2.537-1.945.366-.693.62-.956.84-.871.614.236.735.19.688-.264-.031-.292.095-.505.345-.584.217-.069.616-.45.889-.849.278-.407.852-.867 1.311-1.051.767-.307.844-.303 1.261.076.77.698 1.316.902 1.576.589.127-.152.17-.337.097-.41-.241-.24.86-1.619 1.398-1.751.289-.071.882-.308 1.318-.526.68-.34.919-.362 1.681-.158 1.643.44 1.698.512 1.086 1.434-.785 1.185-.577 1.648 1.35 3.002.89.625 1.73 1.099 1.867 1.054.137-.046.57-.524.962-1.064.535-.735.742-1.27.827-2.134.122-1.228.711-2.936 1.012-2.936.1 0 .329.505.508 1.122.18.618.557 1.338.838 1.601.656.615 1.037 2.335.742 3.351-.195.674-.157.782.512 1.468.397.408 1.025 1.402 1.396 2.209.37.807 1.038 1.95 1.484 2.539l.811 1.07-.23 1.654c-.168 1.2-.426 2-.943 2.914-.792 1.4-1.977 2.736-2.601 2.933-.224.071-.744.597-1.155 1.168-.411.571-.84 1.038-.953 1.038-.113 0-.594.49-1.069 1.089-.791.999-.936 1.091-1.761 1.106-.633.012-1.117.183-1.637.579l-.737.561-.485-.514Zm-102.463-4.409c-.445-.444-.519-.671-.42-1.283.094-.575.005-.914-.395-1.501-.284-.417-.516-.861-.516-.986s-.372-.725-.826-1.333c-.702-.938-.846-1.314-.962-2.501-.204-2.096-.875-4.365-1.776-6.009-.443-.809-.869-1.858-.946-2.333-.164-1.009.247-2.512 1.185-4.332l.623-1.211-.35-1.054c-.196-.589-.292-1.286-.218-1.582.088-.347-.006-.76-.271-1.196-.222-.367-.553-1.185-.734-1.82-.242-.847-.58-1.398-1.272-2.076-1.332-1.304-1.505-1.817-1.091-3.236.841-2.888-.068-4.573-2.289-4.241-.864.13-.897.114-1.019-.496-.094-.468-.348-.743-.986-1.068-.829-.421-1.184-.423-2.201-.009-.231.094-1.177.419-2.102.723-1.39.457-1.807.516-2.412.341-.574-.166-1.056-.123-2.23.198-1.212.332-1.651.368-2.306.187-1.367-.376-3.715-2.488-4.049-3.642-.259-.892-1.866-2.972-2.413-3.122-.348-.095-.391-.169-.178-.306.214-.138.177-.207-.157-.295-.531-.138-.584-.571-.071-.576.315-.003.322-.033.053-.206-.199-.128-.221-.205-.06-.207.167-.002.104-.26-.183-.745-.403-.681-.411-.772-.103-1.111.94-1.037 1.146-3.269.431-4.675-.341-.671-.121-1.599.607-2.563.274-.363.809-1.246 1.189-1.963.665-1.253 2.146-2.996 2.547-2.996.444 0 1.876-1.536 1.876-2.012 0-1.075.644-2.147 1.694-2.82.564-.36 1.225-.978 1.469-1.372.499-.805.569-.832 1.15-.428.228.159.795.352 1.259.43.708.118 1.047.033 2.101-.53 1.815-.968 2.936-1.21 5.012-1.08 1.369.085 1.986.03 2.649-.235.978-.39 1.823-.16 1.594.436a.65.65 0 0 0 .093.587c.151.182.15.442-.004.846-.193.507-.15.657.329 1.156.302.315.844.632 1.204.703 1.689.338 2.169.556 2.518 1.145.255.432.59.653 1.144.757.43.08 1.055.287 1.389.46.567.292.64.281 1.112-.162.318-.298.462-.613.388-.847-.066-.205-.016-.566.11-.8.325-.607 1.248-.547 2.69.173 1.57.784 4.547 1.344 5.603 1.053.508-.14.996-.142 1.44-.005 1.452.445 2.196.096 2.394-1.123.066-.404.178-.736.25-.736.136 0 .207-.608.227-1.94.006-.432.108-.786.227-.786.142 0 .135-.152-.02-.44-.258-.482-.782-.471-2.037.043-.594.243-.76.233-1.293-.081-.691-.408-1.4-.469-1.604-.139-.152.246-1.227.074-1.81-.29-.418-.26-.809-1.037-.809-1.607 0-.219-.213-.547-.473-.73-.403-.283-.426-.363-.158-.538.174-.114.53-.156.793-.094.334.079.642-.053 1.031-.44.366-.366.81-.567 1.309-.594.415-.022 1.016-.212 1.336-.422.695-.457 2.271-.33 3.494.281 1.65.824 3.114.776 3.704-.123.307-.467.308-.565.017-1.008-.177-.27-1.029-.893-1.893-1.383l-1.571-.892.295-.568c.162-.312.241-.62.176-.685-.065-.065-.04-.242.055-.394.095-.152.191-.398.214-.547.048-.317-.291-.23-1.962.508-.97.428-1.114.56-.899.818.141.17.458.312.704.318.345.007.263.106-.358.432-.753.397-.837.402-1.327.082-.419-.274-.474-.401-.275-.64.197-.237.167-.328-.144-.445a1.609 1.609 0 0 1-.616-.447c-.602-.8-2.512 1.306-3.067 3.383-.261.975-.252 1.025.239 1.395l.509.383-.935.193c-.513.105-1.206.118-1.538.027-.614-.167-1.392.085-1.392.451 0 .108-.143.141-.318.074-.175-.067-.452-.01-.617.126-.255.211-.226.384.197 1.177.457.86.472.977.186 1.548-.358.716-.69.663-1.196-.191-.352-.595-.35-.61.116-.675.589-.084.627-.457.056-.548-1.302-.208-1.996-.893-1.996-1.969 0-.84-.78-1.765-1.726-2.048-.491-.147-1.026-.455-1.187-.685-.162-.23-.635-.56-1.051-.735-.417-.173-.883-.494-1.036-.712-.22-.313-.364-.351-.686-.18-.224.12-.408.354-.408.519 0 .544 2.678 3.007 3.987 3.667 1.389.699 1.605.949.641.737-.86-.188-1.094 0-.8.645.207.452.173.59-.243.988l-.483.463.11-.624c.175-.992-1.135-2.416-2.222-2.416-.398 0-1.928-1.482-2.329-2.255-.428-.827-.905-.986-1.58-.53-1.017.689-1.779.921-2.577.787-1.06-.179-1.727.19-1.558.861.088.35.039.507-.159.507-.157 0-.561.236-.897.524-.336.289-.683.525-.771.525-.26 0-.993 1.325-.994 1.796-.001.45-.823 1.337-1.616 1.743-.252.13-.84.236-1.306.236-.641 0-.903.105-1.079.433-.23.43-.237.428-.776-.11-.505-.504-.796-.63-1.815-.787-.536-.083-.627-1.293-.226-3.017.171-.737.255-1.563.187-1.835-.199-.792.424-1.259 1.467-1.1 2.408.37 3.816.39 4.146.06.454-.452.658-1.945.381-2.782-.18-.546-.428-.769-1.169-1.051-1.09-.416-1.113-.817-.048-.828.406-.004.992-.173 1.302-.376.309-.202.652-.313.761-.246.297.183 1.422-.464 1.795-1.033.181-.275.536-.552.79-.617.254-.065.935-.557 1.513-1.094.819-.762 1.249-1 1.951-1.084.87-.104 1.746-.818 1.335-1.09-.256-.168-.469-1.183-.327-1.553.068-.175.365-.477.661-.671l.539-.352-.138.863c-.12.748-.09.854.231.8.204-.033.585-.178.846-.322.399-.218.497-.208.602.066.18.468-.321 1.019-.666.732-.191-.158-.313-.152-.419.02-.11.178-.196.168-.323-.036-.094-.153-.22-.23-.279-.172-.059.06.109.378.373.709.446.557.53.584 1.165.363.544-.19.805-.176 1.268.063.523.27.699.256 1.704-.124.88-.334 1.227-.377 1.616-.2.359.163.624.16.957-.012.945-.487 1.207-.855 1.09-1.53-.174-1 .144-1.327.983-1.01.571.214.738.206.996-.052.273-.273.25-.373-.198-.849-.431-.457-.461-.571-.198-.748.17-.115.808-.156 1.418-.091 1.116.118 2.507-.317 2.265-.709-.213-.342-1.494-.441-2.579-.199-.962.215-1.215.197-1.953-.134-1.145-.516-1.28-1.12-.495-2.212 1.012-1.407 1.197-1.856.909-2.202-.427-.513-.846-.346-1.821.727-.515.566-1.217 1.145-1.559 1.287-.343.142-.767.535-.942.873-.286.552-.286.667.004 1.108.178.271.515.553.749.627.645.205.517.588-.405 1.217-.284.194-.662.742-.84 1.218-.224.596-.565 1.003-1.096 1.309-.749.431-.783.433-1.196.06a2.128 2.128 0 0 1-.552-.96c-.07-.315-.385-.883-.702-1.26l-.575-.688-.729.444c-.401.244-.918.441-1.149.44-.667-.007-1.439-.726-1.49-1.389-.026-.329-.112-.76-.191-.957-.188-.47.753-1.351 1.731-1.62.981-.27 2.971-1.663 3.311-2.316.151-.29.662-.876 1.136-1.3.474-.424.861-.864.861-.978 0-.115.45-.368.999-.563.549-.195 1.47-.55 2.048-.787.71-.292 1.597-.446 2.732-.475 1.983-.05 3.28.212 4.351.88.537.335.961.45 1.366.369.726-.145 4.593 1.051 4.754 1.47.162.421-.947.819-1.902.682a37.993 37.993 0 0 1-2.008-.374c-.899-.191-1.276-.198-1.451-.023-.175.175-.087.303.337.496.315.144.71.525.877.847.425.821 1.788 1.49 2.491 1.224.675-.257.671-.337-.042-.723-.659-.357-.355-.434.473-.12.661.25 1.409-.061 1.235-.515-.082-.212.148-.366.796-.531 1.386-.355 1.488-.405 1.373-.686-.435-1.061-.441-1.03.192-.959.337.039.584.183.556.325-.028.141.148.362.391.492.365.195.652.126 1.655-.4 1.471-.768 2.616-1.02 3.043-.666.238.198.633.199 1.775.007.808-.136 1.561-.191 1.674-.122.112.07.266.026.341-.096.166-.268-.292-.874-.543-.72-.302.187-1.296-.148-1.08-.363.218-.218 6.065 1.142 6.415 1.492.236.235.983-.08.983-.414 0-.113-.417-.407-.926-.654-1.581-.766-1.682-1.994-.196-2.366.863-.216 1.236.033 2.429 1.623 1.549 2.064 1.509 1.959 1.003 2.668-.375.525-.397.648-.137.748.492.188 1.547-.472 1.695-1.062.174-.691-.151-1.28-.926-1.68-.609-.315-1.051-.892-1.051-1.373 0-.164.229-.205.683-.123.682.125 1.245-.122 2.788-1.22.352-.25.949-.415 1.55-.429 1.22-.028 1.615-.232 1.264-.654-.138-.165-.207-.345-.153-.398.268-.268 3.727-.75 4.524-.631.767.115 1.004.053 1.635-.428.405-.308.737-.644.737-.746 0-.256-1.836-.233-1.996.025-.22.355-.505.232-.425-.184.068-.352-.11-.409-1.64-.528-4.18-.325-4.52-.4-4.018-.901.441-.44 1.522-.431 2.427.02.371.184.985.335 1.365.335s.749.094.82.21c.072.115.44.21.818.21 1.048 0 3.075.45 2.947.656-.062.1.134.182.436.182.301 0 .851.163 1.221.361.497.267 1.192.363 2.668.37 1.587.005 2.115.087 2.574.396.318.214.577.449.575.522-.001.073-.486.4-1.077.725-1.428.786-1.126 1.128.6.682 1.119-.29 1.376-.291 2.302-.017.759.225 1.234.254 1.749.107.514-.147 1.042-.116 1.938.116.934.242 1.419.266 2.011.102 1.352-.375 3.015-.269 3.98.253l1.965 1.067c1.066.58 1.112.587 1.852.256.619-.277.964-.3 1.877-.126.907.173 1.237.152 1.748-.111.5-.258.58-.385.39-.615-.369-.443.94-.608 2.548-.32.737.131 1.671.262 2.075.291.405.03 1.195.26 1.756.512.856.384 1.503.471 4.008.54 2.377.065 3.133.16 3.707.465.582.31 1.245.388 3.452.41 2.03.02 2.94.116 3.542.374.972.417 1.361.264.832-.327-.381-.425-.378-.426 1.089-.28 2.46.243 5.41.78 6.409 1.166.52.201 1.512.435 2.203.519.691.084 1.7.378 2.242.652.822.415 1.089.461 1.617.278.722-.252 1.191-.07 2.293.885l.685.594-.516.13c-.518.129-1.894-.211-2.368-.586-.14-.11-.335-.15-.435-.089-.099.062-.591-.03-1.092-.202-1.174-.403-1.695-.252-1.16.338.365.403.357.411-.339.363-1.303-.091-.945.293.968 1.037 1.04.405 1.936.78 1.99.832.197.19-.453.427-.926.337-.52-.1-1.8.457-1.8.782 0 .108-.202.384-.449.614-.413.384-.498.393-1.051.108-.517-.267-.682-.27-1.179-.02-.318.16-.861.358-1.207.441-.346.084-.747.25-.891.368-.423.35.323 1.37 1.373 1.877.572.277.986.647 1.11.992.108.303.337.8.509 1.105.28.497.277.568-.024.684-.22.084-.285.253-.189.493.08.201.171.602.202.89.031.288.123.68.206.872.107.25.018.39-.313.495-.368.117-.617-.024-1.223-.693a12.443 12.443 0 0 0-1.551-1.413c-.435-.315-1.213-1.134-1.731-1.82-.912-1.212-.93-1.267-.628-1.851.172-.331.316-.82.32-1.084.004-.266.137-.717.296-1.003.303-.547.187-.984-.462-1.727-.426-.488-1.184-.122-.993.479.176.553-.364.733-.986.327-.269-.176-.889-.384-1.378-.461-.839-.134-.901-.108-1.118.46-.127.332-.18.856-.118 1.165.096.482.029.58-.467.69-.338.073-.916-.014-1.388-.21-.517-.217-1.005-.282-1.356-.182-.301.085-1.32.163-2.265.172-1.495.015-1.783.08-2.238.506-.287.27-.632.93-.766 1.468-.134.538-.381 1.189-.547 1.446-.289.443-.261.488.563.908.894.455 1.868.574 2.607.32.57-.196 2.308 1.157 2.851 2.218.222.435.59.89.816 1.011.859.459 1.033 3.466.315 5.433-.497 1.361-1.053 1.806-1.869 1.496-.312-.118-.599-.215-.638-.215-.038 0-.272.387-.519.86-.325.622-.388.935-.228 1.127.306.368.079.847-.533 1.126-.282.128-.513.325-.513.437 0 .111.657.654 1.46 1.206 1.023.702 1.569 1.241 1.819 1.796.197.435.32.827.273.869-.047.042-.476.274-.954.514l-.869.437-.523-1.197c-.586-1.341-1.088-1.88-1.972-2.118-.445-.12-.6-.289-.6-.656 0-.337-.218-.623-.681-.893-.675-.395-.688-.394-1.406.048-.719.444-.727.444-.948.032-.122-.228-.222-.56-.222-.736 0-.176-.177-.415-.393-.53-.321-.172-.524-.068-1.114.57-.396.427-.905.882-1.129 1.01-.348.197-.367.28-.127.57.155.186.689.565 1.187.843.793.442.945.468 1.212.2.254-.253.461-.262 1.228-.054l.922.25-.514.342c-.953.636-1.254.97-1.39 1.544-.112.47-.045.612.379.805.282.128.712.641.955 1.14.242.498.727 1.074 1.077 1.28.769.454.992.935.547 1.183-.414.232-.216.577.331.577.654 0 .658.39.025 2.638-.766 2.724-1.457 3.632-3.267 4.293-.712.26-1.579.488-1.926.507-.805.045-1.43.385-1.976 1.077l-.433.55-.201-.53c-.264-.692-.868-.865-1.734-.5-.795.336-1.318.87-1.53 1.562-.189.619.481 1.707 1.589 2.583.909.72 1.93 2.523 2.17 3.836.208 1.142-.161 1.892-1.152 2.338-.451.203-.874.536-.939.74-.155.49-1.088 1.1-1.26.824-.071-.116-.074-.384-.006-.598.068-.213.065-.541-.007-.728-.104-.269-.218-.293-.55-.116-.346.184-.479.138-.758-.266-.686-.993-2.674-2.587-3.225-2.587-.194 0-.269.233-.235.734.026.404-.056 1.191-.183 1.749-.208.909-.187 1.076.204 1.604.24.324.496.826.569 1.116.074.295.682.967 1.377 1.523 1.158.927 1.281 1.11 1.768 2.65.288.91.524 1.744.524 1.854 0 .355-.439.211-1.355-.445-.947-.679-1.552-1.753-2.057-3.651-.219-.824-.459-1.177-1.14-1.677-.836-.614-.861-.667-.794-1.683.039-.576.133-1.394.211-1.816.109-.595.019-1.021-.4-1.887-.297-.616-.649-1.561-.781-2.101-.296-1.207-.714-1.409-1.452-.703-.306.292-.614.531-.686.531-.335 0-.794-.71-.684-1.057.2-.63-1.031-2.824-1.751-3.121-.395-.163-.755-.558-.996-1.092-.419-.928-.889-1.282-1.359-1.026-.17.093-.852.28-1.515.416-1.216.249-1.653.616-1.486 1.251.061.234-.152.46-.662.703-.413.197-.859.593-.99.88-.131.287-.419.579-.641.65-.222.07-.563.39-.76.712-.196.322-.78.911-1.299 1.308-.709.544-.93.848-.895 1.23.206 2.237-.11 4.108-.881 5.219-.753 1.084-.806 1.114-1.443.825-.35-.16-.566-.471-.655-.946-.073-.39-.497-1.487-.941-2.439-2.686-5.759-3.084-6.858-2.855-7.898.155-.703-.216-1.763-.575-1.643-.144.048-.264.221-.267.384-.018.957-1.095 1.104-1.937.264l-.558-.556.48-.177c.54-.2.491-.737-.059-.639-.195.035-.641-.177-.992-.471-.351-.295-.719-.536-.818-.536-.098 0-.24-.19-.314-.422-.193-.609-1.308-1.138-1.867-.887-.502.226-5.063.179-5.827-.06-.275-.087-.784-.481-1.13-.877-.627-.716-.636-.719-1.576-.466-.891.24-1.02.217-2.22-.387-1.036-.522-1.347-.804-1.666-1.512-.409-.903-1.315-1.557-1.867-1.346-.173.066-.376.397-.45.734-.107.484.002.799.517 1.498.359.487.75 1.246.869 1.687.255.947.76 1.229 1.178.658.253-.345.321-.357.492-.087.109.173.168.408.131.523-.117.363 1.095.96 1.661.818.286-.072.897-.558 1.358-1.08.726-.823.979-.879.855-.188-.084.465.283 1.01.89 1.324.938.484 2.244 1.561 2.244 1.851 0 .134-.245.472-.546.751-.3.28-.732.872-.96 1.315-.553 1.078-2.158 2.654-2.701 2.654-.628 0-1.562.53-1.934 1.096-.177.268-.64.646-1.03.84-1.997.996-4.402 2.004-5.078 2.131-.724.136-.782.103-1.166-.652-.222-.436-.474-1.313-.559-1.947-.112-.825-.328-1.35-.761-1.842-.332-.38-.604-.78-.604-.891 0-.112-.379-.593-.843-1.07a4.684 4.684 0 0 1-1.184-2.044c-.188-.648-.57-1.461-.849-1.807-1.928-2.39-2.499-3.233-2.787-4.113-.381-1.166-.703-1.355-.852-.498l-.105.608-.711-.895c-1.095-1.38-1.233-.753-.205.932a52.112 52.112 0 0 1 1.724 3.127c.461.923 1.059 1.97 1.329 2.326.278.368.49.942.49 1.325 0 .79.237 1.283 1.165 2.43.373.462.741 1.135.819 1.497.099.464.505.95 1.377 1.647 1.325 1.061 2.184 2.168 2.397 3.091.08.347.383.702.768.901.586.302.792.294 2.644-.106 1.105-.239 2.275-.572 2.6-.74l.592-.306.141.83c.128.755-.01 1.118-1.506 3.981-1.608 3.079-1.683 3.18-3.283 4.44-.9.71-1.842 1.578-2.093 1.93-.251.352-1.055 1.303-1.786 2.113-2.133 2.363-2.423 4.442-1.008 7.229.359.708.5 1.243.414 1.582-.071.282-.025.993.101 1.581.199.926.177 1.173-.168 1.847-.496.971-.892 1.32-2.281 2.015-.606.303-1.103.641-1.103.751 0 .109-.425.677-.945 1.261-.52.585-.946 1.158-.946 1.274 0 .116.195.592.433 1.058.715 1.398.235 2.41-1.478 3.118-.721.298-.959.908-.78 2.006.094.575.034.767-.293.941-.225.12-.633.569-.906.996-.861 1.35-3.337 3.739-4.462 4.305-.939.473-1.179.514-1.868.324-.608-.167-1.099-.141-2.118.115-1.652.414-1.476.431-2.116-.207Zm27.677-66.884c.543-.28.62-.434.62-1.233 0-.572-.123-1.014-.329-1.185-.181-.15-.474-.553-.652-.895-.293-.566-.292-.61.014-.494.404.155.967-.031.967-.32 0-.114-.195-.48-.434-.816-.36-.504-.504-.571-.841-.392-.272.146-.406.147-.406.004 0-.117-.375-.403-.833-.637-1.015-.516-1.376-1.088-1.059-1.678.239-.447 1.095-.76 1.46-.535.492.304.638-.144.231-.713-.985-1.381-2.358-1.29-4.059.269-1.099 1.006-1.194 1.273-.573 1.605.231.124.42.365.42.536 0 .172.374.717.831 1.212 1.052 1.139 1.245 1.66 1.115 3.007l-.105 1.085 1.444.74c.794.406 1.472.744 1.506.75.035.005.342-.134.683-.31Zm-5.789 58.575c-.593-.335-.677-.513-.832-1.75-.124-.99-.073-1.205.52-2.166.603-.978.646-1.166.513-2.227-.192-1.533.135-2.339 1.028-2.534.841-.184 2.661-1.788 3.097-2.729l.333-.719.232.507c.582 1.277.523 1.837-.491 4.637-.542 1.498-1.124 3.29-1.293 3.982-.54 2.214-.847 2.748-1.732 3.013-.943.282-.851.282-1.375-.014Zm103.51-3.645c-.67-.733-1.072-1.361-1.072-1.678 0-.704.114-.642.72.39.29.494.814 1.172 1.164 1.507.351.336.638.687.638.78 0 .404-.447.095-1.45-.999Zm-93.739-.298c0-.115.095-.21.21-.21a.21.21 0 0 1 .21.21.21.21 0 0 1-.21.21.211.211 0 0 1-.21-.21Zm110.656-.383a.263.263 0 0 1 .093-.358c.312-.192.423-.039.214.298-.111.18-.22.201-.307.06Zm-109.185-.339c0-.051.095-.15.21-.222.116-.071.21-.029.21.093a.217.217 0 0 1-.21.222c-.115 0-.21-.042-.21-.093Zm103.721-2.128c-.205-.532.055-.719.634-.455.5.227.511.262.163.516-.488.355-.642.344-.797-.061Zm1.331-.933c-.41-.253-.126-.455.527-.374.512.063.524.086.158.311-.233.143-.513.169-.685.063Zm-9.811-.769c-.431-.927-.28-1.284.166-.391.465.929.473.959.255.957-.087-.001-.276-.256-.421-.566Zm.805-.149c-.009-.221.04-.345.11-.275.07.07.078.25.017.402-.067.167-.117.117-.127-.127Zm17.107-2.013c-.193-.311-.01-.469.438-.382.329.064.332.098.036.343-.237.196-.371.207-.474.039Zm-124.185-1.045c-.071-.115-.029-.21.093-.21s.222.095.222.21c0 .115-.041.21-.092.21s-.151-.095-.223-.21Zm92.247-1.97c-1.33-.419-1.933-.807-2.456-1.584-.598-.886-1.692-1.558-2.251-1.381-.226.072-.606.461-.845.865-.406.687-.484.725-1.223.594-.434-.077-1.041-.373-1.348-.659-.39-.363-.689-.478-.994-.381-.239.076-.586.053-.771-.05-.289-.161-.261-.237.201-.539.536-.35.536-.354.177-1.106-.288-.603-.686-.918-1.987-1.571-.895-.448-1.906-.816-2.248-.816-.781 0-1.104-.719-.515-1.148.35-.256.299-.319-.615-.762-.969-.47-.983-.49-.52-.747.262-.145.683-.267.937-.271.492-.008 1.115.701 1.115 1.269 0 .19.204.604.454.921.448.567.459.57.788.16.184-.229.77-.665 1.303-.97l.968-.554 1.343.604a39.81 39.81 0 0 0 2.33.96c.542.195 1.628.775 2.412 1.289 1.498.982 2.149 1.809 1.775 2.258-.304.366.891 2.032 2.128 2.967 1.359 1.027 1.336 1.122-.158.652Zm9.145-.017c-.166-.199-.182-.32-.042-.32.254 0 .55.398.404.544-.053.052-.216-.048-.362-.224Zm-35.306-.854c-.305-.168-.393-.291-.21-.294.375-.005.975.344.834.485-.055.055-.336-.031-.624-.191Zm3.552-.277c.596-.835 1.529-1.192 2.391-.916.628.201.638.218.139.238-.295.012-.984.304-1.53.651-1.248.789-1.549.797-1 .027Zm30.489.287c-.284-.341-.216-.384.298-.187.183.07.332.211.332.314 0 .29-.34.222-.63-.127Zm.984-.185a2.198 2.198 0 0 1-.13-.723c.009-.232.082-.179.216.156.112.279.17.604.13.723-.04.12-.137.049-.216-.156Zm16.247.197c0-.05.094-.15.21-.222.115-.071.21-.029.21.093s-.095.222-.21.222c-.116 0-.21-.042-.21-.093Zm-53.742-.88c-.146-.061-.211-.198-.145-.303.16-.259 1.507-.245 1.669.018.072.115.007.211-.145.212a4.525 4.525 0 0 0-.695.093c-.231.05-.539.041-.684-.02Zm3.119-.158c-.382-.459.058-.599 1.048-.333.998.268.994.31-.039.496-.537.097-.832.049-1.009-.163Zm31.55-.127c-.146-.233-.172-.42-.058-.42.112 0 .305.189.429.42.124.23.15.419.058.419s-.285-.189-.429-.419Zm1.316-.211c-.562-.62-.262-.717.317-.103.271.288.396.523.278.523s-.386-.189-.595-.42Zm-39.399-.037c-.751-.104-1.81-.334-2.353-.512-.544-.178-1.184-.262-1.423-.186-.481.153-2.527-.448-2.527-.741 0-.671 1.883-.722 2.884-.078.374.24.669.256 1.459.079.875-.196 1.057-.172 1.572.208.32.236.677.429.793.429.415 0 1.677.702 1.57.874-.059.096-.221.162-.358.146-.138-.017-.865-.115-1.617-.219Zm37.719-1.01c-.21-.231-.286-.42-.171-.42.116 0 .382.189.591.42.209.23.286.419.17.419-.115 0-.381-.189-.59-.419Zm-1.326-.266c-.119-.144-.277-.544-.352-.889-.12-.556-.106-.58.118-.209.139.231.387.576.552.766.175.202.216.398.1.47-.11.067-.298.005-.418-.138Zm-4.45-.667-.522-.288.81-.152c.445-.083 1.129-.432 1.52-.774.427-.374.709-.51.707-.339-.004.426-.263.755-1.048 1.333-.821.604-.782.598-1.467.22Zm-39.417-.816c-.772-.439-2.164-2.137-2.618-3.193-.244-.569-.804-1.507-1.245-2.083-.44-.577-.946-1.332-1.123-1.678-.178-.346-.717-1.007-1.198-1.468-1.015-.973-1.639-1.995-1.214-1.987.552.009 1.971.797 2.58 1.431 1.679 1.749 2.023 2.061 2.816 2.548.765.471 1.127.96 1.164 1.573.007.115.224.446.483.734s.748.831 1.087 1.205c.338.374.676.959.751 1.298.245 1.112-.653 2.092-1.483 1.62Zm-42.326-.139a.21.21 0 0 1 .21-.21c.115 0 .21.095.21.21a.21.21 0 1 1-.42 0Zm55.578-.002c-.072-.116-.073-.395-.002-.619.071-.225-.016-.629-.194-.9-.292-.446-.289-.539.03-.994.194-.277.423-1.019.509-1.649.105-.778.314-1.305.65-1.64.458-.457.573-.478 1.604-.283.886.168 1.234.147 1.716-.101.807-.417.865-.398.598.189-.341.746-1.022.984-1.739.609-1.282-.67-2.982.326-2.085 1.221.33.329.512.359 1.123.184 1.047-.3 1.459-.245.809.108-.735.399-.875.842-.496 1.573.173.333.314.85.314 1.148 0 .477-.05.515-.421.317-.231-.123-.565-.569-.741-.991-.319-.761-.325-.764-.732-.357-.358.357-.382.515-.186 1.223.177.639.165.85-.056.99-.371.235-.544.228-.702-.028h.001Zm28.83-1.118c-.198-.302-.652-.699-1.008-.883-.357-.184-.601-.382-.543-.439.326-.326 2.15 1.155 1.994 1.62-.047.143-.238.015-.443-.298Zm-32.998-.698c-.317-.166-.744-.248-.949-.183-.523.165-2.6-.257-2.805-.57-.164-.25-.645-1.786-.903-2.881-.071-.301 0-.692.165-.918.241-.328.365-.353.746-.149.402.215.487.178.708-.305.138-.302.597-.725 1.019-.94.448-.229.879-.655 1.031-1.023.176-.424.498-.709.978-.867.394-.13.963-.558 1.264-.953.302-.394.66-.717.797-.717s.552.312.922.693l.672.692-.539.723c-.612.822-.58 1.528.114 2.501l.42.588-.524.342c-.288.189-.523.458-.522.6.002.48-1.345 3.249-1.682 3.459-.235.147-.509.119-.912-.092Zm12.206-.004c-.434-.113-.495-.484-.078-.484.159 0 .603.062.988.139.592.118.636.164.289.3-.456.178-.659.186-1.199.045Zm33.464-2.674c0-.051.094-.151.21-.222.115-.071.21-.03.21.092 0 .123-.095.223-.21.223-.116 0-.21-.042-.21-.093Zm-34.2-.569c-.168-.167-.178-.362-.032-.633.116-.216.154-.482.086-.593-.19-.306.285-1.048.67-1.048.309 0 .308.036-.014.39-.277.306-.308.509-.143.942.333.875-.029 1.479-.567.942Zm-105.537-.689c0-.051.095-.151.211-.222.115-.072.21-.03.21.092s-.095.222-.21.222c-.116 0-.211-.041-.211-.092Zm145.725-.537c-.071-.115-.03-.209.093-.209.122 0 .222.094.222.209 0 .116-.041.21-.092.21s-.151-.094-.223-.21Zm-144.464-1.98c0-.05.095-.15.21-.222.116-.071.21-.029.21.093a.217.217 0 0 1-.21.222c-.115 0-.21-.042-.21-.093Zm101.075-3.152c-.401-.933-.455-.975-1.071-.84-.615.135-.637.118-.406-.312.19-.355.367-.426.819-.327.436.096.715-.001 1.141-.396.311-.287.567-.692.57-.899.006-.529.787 1.246.965 2.195.135.72.118.76-.21.488-.488-.403-.957.015-.557.496.159.192.18.324.05.324-.12 0-.367.056-.549.126-.244.093-.441-.131-.752-.855Zm-38.313.37c-.235-.381-.368-2.09-.199-2.543.18-.481.194-.475.729.315.642.946.847 1.553.635 1.877-.202.31-1.035.561-1.165.351Zm46.926-1.085c0-.115.094-.268.21-.339.115-.071.21-.035.21.08s-.095.268-.21.339c-.116.072-.21.036-.21-.08Zm32.99-.024c0-.116.042-.21.093-.21s.151.094.222.21c.072.115.03.209-.092.209-.123 0-.223-.094-.223-.209Zm-47.699-1.212c0-.09.421-.632.936-1.206.754-.84.938-.959.945-.612.006.237-.31.78-.701 1.206-.664.723-1.18.991-1.18.612Zm4.551-.559c-.077-.2-.061-.502.034-.672.149-.264.21-.267.418-.017.185.223.177.382-.035.671-.26.356-.287.357-.417.018Zm-160.915-.818c.129-.154.172-.343.096-.419-.076-.076.057-.138.297-.138.332 0 .41.1.326.42a.56.56 0 0 1-.532.419c-.329 0-.37-.062-.187-.282Zm162.325-.055a5.395 5.395 0 0 0-.228-.554c-.046-.087.004-.158.113-.158.21 0 .505.861.349 1.017-.05.051-.156-.087-.234-.305Zm-2.129-.547c-.296-.355-.008-.86.433-.762.277.062.287.149.065.559-.214.396-.306.434-.498.203Zm2.484-.721c-.241-.306-.403-.591-.361-.634.171-.17.762.205 1.076.684.484.736-.129.693-.715-.05Zm-3.455-.812c-.187-.186-.34-.448-.34-.58 0-.133.208-.035.461.218.254.253.407.515.341.581-.067.067-.274-.032-.462-.219Zm-164.941-.03a.574.574 0 0 1-.14-.356c0-.131.098-.119.248.031.137.137.2.297.14.357-.06.059-.171.045-.248-.032Zm-1.19-.279c0-.116.04-.21.092-.21.05 0 .15.094.222.21.072.115.03.21-.092.21-.123 0-.223-.095-.223-.21Zm9.875-.42c0-.115.042-.209.093-.209.05 0 .151.094.222.209.072.116.03.21-.092.21-.123 0-.223-.094-.223-.21Zm158.37-.032c-.211-.118-.61-.158-.887-.089-.407.102-.688-.061-1.449-.843-1.076-1.105-1.286-1.57-.97-2.16.122-.227.222-.697.222-1.043 0-1.139.764-1.093 1.324.08.31.649.312.788.021 1.484-.314.75-.308.784.252 1.367.404.421.708.564 1.027.484.271-.067.562.016.721.208.378.455.213.779-.261.512ZM90.94 99.332c0-.051.094-.151.21-.222.115-.072.21-.03.21.092s-.095.222-.21.222c-.116 0-.21-.041-.21-.092Zm32.99-.747a.21.21 0 0 1 .42 0 .21.21 0 0 1-.42 0Zm-33.621-.814c0-.115.095-.268.21-.339.116-.071.21-.035.21.08s-.094.268-.21.34c-.115.07-.21.035-.21-.08Zm-1.785-.86c-.073-.12.011-.155.198-.083.364.14.43.29.129.29-.11 0-.256-.094-.327-.208Zm33.41-.003c-.072-.115-.03-.21.092-.21.123 0 .223.095.223.21 0 .115-.042.21-.093.21s-.151-.095-.222-.21Zm-32.57-.42c-.072-.115-.03-.21.092-.21.123 0 .223.095.223.21 0 .116-.042.21-.093.21s-.151-.094-.223-.21Zm.945 0c0-.115.042-.21.093-.21.05 0 .15.095.222.21.072.116.03.21-.092.21-.123 0-.223-.094-.223-.21Zm-14.446-.558c-.145-.058-.263-.192-.263-.298 0-.302.927-.224 1.378.116.388.292.377.307-.222.298-.347-.006-.749-.058-.893-.116Zm5.317-.119c-.189-.105-.605-.134-.925-.064-.32.07-.814.036-1.096-.076-.453-.181-.413-.203.347-.185 1.118.026 1.416-.156 1.13-.688-.202-.378-.142-.407.861-.407.97 0 2.369.444 2.606.827.157.255-2.547.803-2.923.593Zm4.03.133c-.249-.249.06-.504.611-.504.33 0 .498.099.444.262-.097.294-.833.462-1.054.242Zm152.024-.334c-.556-.555-.005-1.219 1.012-1.219.451 0 .451.004.064.665-.451.77-.72.91-1.076.554Zm-150.287-.043c0-.045.142-.136.315-.203.174-.066.315-.03.315.082s-.141.204-.315.204c-.173 0-.315-.038-.315-.083Zm-9.084-1.503c-.064-.065-.508-.123-.985-.13-.659-.009-.817-.073-.655-.267.156-.188-.068-.438-.84-.938-1.515-.98-2.361-1.17-3.379-.764-.954.38-1.027.391-1.027.152 0-.44 1.672-.922 2.877-.83 1.151.087 1.796.331 4.057 1.538 1.859.993 1.861.995 1.261 1.165-.681.194-1.161.221-1.309.074Zm1.52-1.77c.407-.262.63-.262.63 0 0 .116-.213.209-.473.207-.382-.003-.413-.042-.158-.207Zm167.346-.371c-.127-.084-.345-.37-.486-.635-.211-.4-.189-.595.129-1.137.49-.837.821-.942.98-.31.167.666-.317 2.283-.623 2.082Zm-165.967-.28c.14-.227.932-.252.932-.03 0 .086-.236.17-.524.187-.288.017-.472-.054-.408-.157Zm-4.155-2.021c-.336-.385-.287-.892.086-.892.12 0 .169.184.11.409-.06.225 0 .448.133.495.132.048.184.147.116.221-.068.075-.269-.03-.445-.233Zm1.22-1.647c-.074-.195-.088-.401-.03-.459.057-.058.166.054.24.249.075.194.09.4.031.458-.057.058-.166-.054-.24-.248Zm-1.316-.19c0-.172.18-.314.4-.314.356 0 .365.035.085.315-.174.173-.354.314-.4.314-.047 0-.085-.141-.085-.314Zm176.228-4.596c0-.165-.229-.571-.51-.904-.666-.79-.43-1.317.359-.801.567.37.863 1.128.654 1.672-.159.412-.503.435-.503.033Zm-163.06-1.262c0-.051.094-.151.21-.222.115-.072.21-.03.21.092s-.095.222-.21.222c-.116 0-.21-.041-.21-.092Zm164.231-.258c-.136-.354.186-.69.668-.695.334-.004.34.465.01.793-.342.342-.518.317-.678-.098Zm1.92-.766c-.408-.62-.984-.706-2.304-.34-.536.148-.906.15-1.155.005-.202-.118-.256-.217-.121-.22.136-.004.532-.246.88-.538.449-.377.778-.495 1.133-.406.376.094.782-.087 1.636-.727 1.662-1.246 1.813-1.64 1.136-2.971-.649-1.279-.468-1.69.494-1.123.7.412 1.36 1.595 1.168 2.093-.069.18.034.742.229 1.251.275.72.301 1.022.117 1.365-.269.504-1.02.84-1.874.84-.479 0-.622.122-.778.667l-.192.666-.369-.562Zm-85.125-.715c-.251-.25-.118-.476.281-.476.225 0 .467-.094.538-.21.195-.315.529-.251.402.077-.129.337-1.039.79-1.221.609Zm-7.166-.363-.63-.288.84-.014c1.047-.018 1.818.178 1.667.423-.169.273-1.153.21-1.877-.121Zm-8.488-2.092c-.841-.43-.881-.483-.442-.598.526-.137 1.69.034 1.666.244a2.7 2.7 0 0 1-.158.479c-.129.314-.231.302-1.066-.125Zm-4.212-2.269c-.182-.52-.168-.72.069-.956.427-.426.759-.126.759.686 0 .959-.527 1.131-.828.27Zm-4.927.174c.149-.387.788-.453.659-.067-.048.144-.244.292-.437.33-.243.047-.311-.032-.222-.263Zm109.793-2.393c-.385-.54-.396-.639-.112-1.043.279-.398.278-.517-.009-1.072-.473-.912-.406-.967.413-.343.406.308 1.205.7 1.778.87 1.182.35 1.467.625.851.82-.233.073-.424.27-.424.438 0 .228-.144.268-.577.157-1.109-.283-1.424-.214-1.353.297.087.626-.054.595-.567-.124Zm-104.528.246a.47.47 0 0 1 .175-.775c.227-.087.315.024.315.397 0 .504-.206.662-.49.378Zm103.194-4.42c-.178-.203-.608-.934-.955-1.626-.346-.693-1.264-1.964-2.038-2.825-.864-.963-1.304-1.6-1.139-1.656.147-.048.462.17.701.488.578.768 1.29 1.435 2.413 2.261.931.685 1.392 1.319.791 1.089-.693-.266-.52.364.377 1.372.522.587.95 1.111.95 1.165 0 .255-.812.056-1.1-.269Zm-153.766-.368c0-.173.092-.314.204-.314.112 0 .149.141.082.314-.066.173-.158.315-.203.315-.045 0-.083-.142-.083-.315Zm-1.098-.677-.782-.081 1.473-1.456c.81-.8 1.579-1.456 1.708-1.456.137 0 .096.154-.097.367-.438.483-.14 1.025.66 1.2.349.077.697.344.831.638.216.472.179.52-.549.722-.764.212-1.675.23-3.244.067Zm-51.202-1.504c-.727-.678-.809-.964-.326-1.15.432-.165 1.23.375 1.532 1.037.318.695.312.721-.155.721-.219 0-.692-.273-1.05-.608Zm92.54-1.065c.231-.114.686-.303 1.011-.42.716-.258.597-.532-.308-.713-.621-.123-.643-.155-.288-.414.212-.155.323-.38.248-.502-.077-.124.139-.317.493-.44.347-.12.63-.313.63-.426 0-.485-.438-1.3-.681-1.268-.561.073-.821-.026-.73-.277.051-.145.009-.428-.095-.63-.271-.524.351-1.61.928-1.621.087-.002.134.112.105.254-.028.141.17.29.441.331l.493.075-.471.5-.471.501.531.202c.57.216 1.12.92 1.679 2.154.269.59.445.744.758.663.642-.168.718.266.116.66-.409.267-.486.418-.307.596s-.174.298-1.396.474c-.899.13-1.966.297-2.371.372-.562.103-.636.087-.315-.071Zm-3.543-1.159c-.072-.187.01-.611.182-.944.197-.38.236-.651.103-.733-.364-.224-.227-.51.308-.645.284-.071.626-.261.761-.423.28-.337 1.574-.399 1.769-.085.071.115-.018.42-.198.676-.18.257-.327.717-.327 1.024 0 .468-.144.607-.893.867a25.24 25.24 0 0 0-1.234.456c-.22.095-.387.026-.471-.193Zm3.858-2.083c0-.051.095-.15.211-.222.115-.072.21-.03.21.092s-.095.222-.21.222c-.116 0-.211-.041-.211-.092Zm-93.255-1.01c-.206-.248-.193-.363.065-.577.428-.354.64-.114.39.442-.17.383-.233.401-.455.135Zm-.329-1.578c-.07-.114.012-.325.184-.467.342-.283.413-.061.126.391-.11.173-.231.203-.31.076Zm-13.582-.133c0-.148.637-.406 1.541-.624.343-.083.546-.063.477.047-.065.105-.38.243-.7.308-.32.064-.748.181-.95.26-.202.077-.368.081-.368.009Zm124.87-2.358c-.388-.157-.319-.397.122-.43.212-.016.386.105.386.27 0 .312-.073.335-.508.16Zm-46.176-1.072c-1.33-.724-1.966-1.836-1.58-2.764.182-.44.188-.715.02-1.027-.347-.65.107-1.41 1.268-2.122.551-.339 1.102-.801 1.223-1.028.337-.628.037-1.703-.549-1.97-.296-.134-.458-.347-.392-.518.149-.388-.551-1.713-1.247-2.362-.513-.478-.734-.525-2.49-.537-2.391-.015-2.837-.148-2.797-.833.016-.284.08-.517.14-.517.061 0 .912-.099 1.892-.219 1.25-.153 2.371-.47 3.765-1.063 2.158-.918 2.322-.936 7.471-.816 1.626.039 3.122-.081 5.043-.404 1.789-.301 3.106-.414 3.817-.329.604.073 1.479.025 1.973-.108 1.146-.308 4.123.063 5.294.659.692.352 1.059.399 2.227.283 1.262-.126 1.357-.11.978.169-.231.17-.94.376-1.576.46-1.379.18-2.647 1.162-2.311 1.788.145.27.041.501-.427.95-.341.325-.669.748-.73.94-.146.46-2.004 1.315-2.925 1.347-1.023.036-1.13.253-.339.688.374.205.919.555 1.212.777l.533.405-.481.178c-.37.136-.669.048-1.284-.377-.834-.577-1.731-.58-1.252-.004.186.224.141.312-.208.403-.781.204-.228.607.633.461.548-.092.856-.043 1.028.163.204.245-.062.359-1.593.68-1.01.212-2.357.393-2.993.402-1.181.018-2.032.356-3.284 1.306-.408.31-1.275.616-2.29.81-2.122.405-2.839.873-4.117 2.69-1.027 1.46-1.646 2.003-2.286 2.008-.174.002-.788-.255-1.366-.57Zm-14.9-1.403c-.45-.276-1.004-.792-1.228-1.147-.439-.69-.843-.779-2.027-.44-.4.115-.85.126-1.03.026-.623-.348.502-.69 1.753-.534.952.12 1.164.085 1.275-.203.223-.58 1.244-.996 1.811-.738.35.159.667.154 1.114-.016.6-.228.608-.249.216-.536-.224-.165-.48-.3-.569-.3-.088 0-.408-.42-.71-.935-.303-.515-.87-1.133-1.26-1.374-.663-.41-.75-.416-1.344-.11-.519.267-.818.286-1.639.102-.552-.123-1.323-.165-1.714-.092-.677.126-1.917-.205-1.917-.511 0-.564 1.78-1.828 2.837-2.016l.84-.15-.6.64c-.83.88-.517 1.286.383.498.381-.335 1.041-.674 1.466-.753.649-.122.927-.043 1.741.496 1.084.717 1.168.736 1.78.41.367-.197.504-.143.904.357.276.346.894.723 1.496.913.96.303 1.025.37 1.025 1.03 0 .495.144.808.481 1.048 1.41 1.007 1.379.965 1.074 1.453-.418.668-.749.717-1.675.245-.644-.328-.925-.373-1.25-.2-.396.212-.401.258-.081.874.262.506.286.762.108 1.152-.22.48-.255.488-.851.18-1.172-.604-1.96-.206-.867.438.342.202.574.444.516.538-.203.329-1.243.155-2.057-.345Zm43.162.272c0-.096.142-.175.315-.175.174 0 .316.079.316.175 0 .096-.142.175-.316.175-.173 0-.315-.079-.315-.175Zm-51.084-1.128c-.414-.217-.736-.236-1.316-.076-.987.272-1.332.073-.831-.479.64-.707 1.075-.846 1.848-.591.87.287 1.256.712 1.021 1.126-.15.264-.251.267-.722.02Zm41.733-.095c-.346-.228-.788-.364-.98-.303-.266.083-.324.01-.243-.3.125-.477 1.971-1.166 2.595-.968.218.069.774.012 1.236-.126.726-.217.918-.2 1.409.12l.568.371-.506.394c-.427.332-1.22.62-3.133 1.14-.173.047-.599-.1-.946-.328Zm-57.05-3.915c-.289-.046-.992-.292-1.564-.548l-1.038-.465 1.459-.105c.802-.058 1.459-.2 1.459-.315 0-.115-.568-.26-1.261-.322-.916-.081-1.088-.139-.63-.21.766-.118.821-.45.104-.63-.516-.13-.512-.138.214-.45 1.258-.54 2.598-.644 3.785-.293.975.29 1.127.288 1.587-.012.325-.213.518-.248.534-.099l.053.479c.049.454.468.395.968-.136.463-.492 1.266-.728 1.264-.371 0 .086-.188.462-.416.836l-.414.678.678.353.678.353-1.113.508c-1.005.457-1.211.483-2.112.268-.873-.21-1.123-.185-2.003.19-.994.426-1.204.453-2.232.291Zm8.428-.148c-.19-.228-.112-.34.379-.543.341-.141.831-.188 1.093-.105.456.144.445.167-.247.534-.882.47-.926.474-1.225.114Zm57.973-.97c.408-.263.631-.263.631 0 0 .115-.213.208-.473.206-.382-.002-.413-.042-.158-.206Zm38.559-.582c-1.074-.423-1.052-.4-.74-.776.147-.176.184-.323.083-.326-.101-.004.006-.15.237-.324.231-.174.422-.384.424-.465.007-.31.862-1.128 1.467-1.403.347-.158 1.245-.336 1.996-.395.751-.06 1.758-.169 2.236-.242.51-.079.925-.047 1.001.077.149.24-.135.343-1.766.635-1.618.29-2.591.743-3.232 1.503-.675.8-.697 1.306-.077 1.737l.472.33-.63-.01c-.347-.005-1.009-.159-1.471-.34Zm-110.054-.608c-.34-.338-.262-.412 1.364-1.3 1.905-1.04 2.862-1.179 4.57-.66l.946.288-1.26.25c-1.031.203-3.217.932-4.942 1.648-.176.073-.48-.028-.678-.226Zm15.18-.271c0-.112-.26-.352-.577-.534l-.578-.331.773.121c.55.086.824.035.946-.178.145-.252 1.483-.758 2.016-.761.09-.001.017.281-.163.627-.421.814-2.416 1.685-2.416 1.056Zm3.272-.613c-.3-.486 1.755-1.238 2.629-.962.636.202.21.549-.9.733-.496.082-1.059.216-1.25.297-.19.08-.406.05-.479-.068Zm6.71-1.544c-1.387-.11-2.548-.224-2.58-.253-.187-.174.281-.74.786-.949.496-.205.724-.178 1.403.167.662.336 1.088.392 2.318.303.828-.059 1.774-.04 2.1.042l.596.15-.736.393c-.404.216-.877.382-1.05.37l-2.837-.223Zm60.47-.857c-1.032-.527-1.132-.766-.321-.77.318-.003.72-.106.893-.23.273-.196.269-.212-.027-.118a.638.638 0 0 1-.586-.136c-.186-.186-.283-.182-.404.014-.113.181-.343.202-.78.072-1.108-.331-1.355-.478-1.355-.806 0-.279.278-.304 1.997-.183 1.308.091 1.996.066 1.996-.074 0-.413.583-.21.737.258l.157.471.093-.471c.051-.26.228-.472.393-.472.166 0 .301-.113.301-.252 0-.196.056-.196.252 0 .147.146.85.252 1.681.252 1.502 0 1.855.268.853.648-.52.197-1.426.142-2.418-.15-.203-.059-.368-.03-.367.064.002.194 1.182.906 1.502.906.114 0 .341.132.503.294.253.252.251.31-.015.413-.171.065-.31.016-.31-.108 0-.147-.267-.177-.756-.085-.53.099-.713.072-.613-.09.08-.129.03-.37-.11-.538-.269-.324-1.043-.424-1.043-.134 0 .094-.307.51-.683.925l-.682.753-.888-.453Zm-55.742-.461c-.365-.214-.88-.275-1.681-.202-.75.069-1.325.01-1.637-.168-.43-.246-.325-.274.987-.263 1.641.013 2.362-.337 1.473-.717-.422-.18-.36-.196.363-.096.945.13 1.312-.122.797-.548-.548-.455.055-.596 2.008-.47 1.209.078 1.968.034 2.279-.131.595-.318.361-.722-.319-.552-.469.118-3.73-.075-3.592-.213.098-.098 4.717-.525 7.751-.716 1.573-.1 3.322-.238 3.887-.308l1.027-.127-1.695.813c-1.589.761-4.174 1.504-5.236 1.504-.258 0-1.001.283-1.651.63-.65.345-1.312.628-1.471.628-.159 0-.846.282-1.527.627-.681.344-1.238.624-1.238.621 0-.002-.237-.143-.525-.312Zm-4.098-1.916c-1.018-.225-1.056-.31-.307-.697 1.09-.564 2.123-.708 2.592-.363.372.274.35.316-.38.746-.76.448-1.069.499-1.905.314Z"></path>
      </mask>
      <path fill="#2D3633" stroke="#242424" stroke-width=".807" d="M93.718 164.978c-1.067-.398-1.366-.789-1.112-1.454.117-.308.343-.561.501-.561.158 0 .851.364 1.54.808.688.444 1.53.908 1.871 1.032l.62.224-.763.017c-.418.009-1.033.056-1.365.104-.333.048-.914-.028-1.292-.17Zm-2.423-2.046a1.086 1.086 0 0 0-.744-.084c-.263.083-.466-.041-.66-.403-.154-.288-.431-.575-.615-.638-.421-.145-1.305-1.573-1.797-2.906-.248-.672-.582-1.138-.979-1.363-.704-.399-.754-.58-.21-.753.624-.197.74-1.294.215-2.029-.25-.351-.382-.763-.307-.959.09-.231-.156-.638-.751-1.242-.75-.764-.89-1.042-.923-1.846-.022-.521-.15-1.078-.283-1.239-.168-.202-.202-.928-.112-2.364.099-1.556.042-2.516-.23-3.855-.403-1.987-.608-5.69-.504-9.069.023-.721-.07-1.711-.208-2.199-.333-1.19-1.865-2.693-3.759-3.686-1.354-.71-1.545-.892-2.074-1.983a14.696 14.696 0 0 0-1.362-2.195c-.428-.546-.894-1.348-1.035-1.782-.447-1.378-1.235-2.763-1.772-3.114-.286-.187-.612-.673-.725-1.08-.182-.659-.134-.843.437-1.671.618-.897.625-.934.207-1.043-1.027-.268-.595-1.638 1.25-3.961 1.225-1.543 1.584-2.719 1.245-4.078-.13-.517-.246-1.059-.258-1.203-.012-.144-.104-.262-.205-.262-.1 0-.08-.189.043-.42.191-.357.143-.458-.316-.667-.67-.304-1.68-.003-1.683.501-.005.605-.272.65-1.15.192-.472-.245-.96-.445-1.087-.445s-.62-.335-1.097-.744c-.476-.41-.984-.838-1.129-.952-.144-.114-.262-.425-.262-.691 0-.266-.186-.651-.413-.856-.227-.205-.52-.7-.653-1.1-.174-.527-.304-.665-.47-.499-.346.345-.859.28-2.103-.27-.65-.287-1.328-.777-1.598-1.156-.259-.362-.752-.804-1.097-.982-.57-.294-.712-.291-1.54.025l-.915.348-2.802-1.356c-1.724-.834-3.063-1.629-3.477-2.066-.643-.678-.663-.752-.45-1.593.196-.77.163-1.008-.263-1.886-.268-.553-.854-1.403-1.302-1.888-.448-.485-.764-.964-.702-1.064.063-.1-.253-.777-.701-1.504-.509-.826-.868-1.71-.957-2.358-.114-.83-.248-1.083-.67-1.275-.447-.203-.572-.178-.828.172-.36.491-.258 1.01.54 2.73.323.698.658 1.734.744 2.301.085.568.337 1.388.56 1.823.526 1.03.186 1.013-.645-.035-.49-.617-.623-.956-.525-1.343.104-.414.001-.613-.508-.989-.773-.57-.936-.938-.652-1.467.165-.308.09-.647-.331-1.474-.427-.841-.516-1.248-.41-1.872.172-1.02-.287-1.944-1.142-2.298-.494-.204-.664-.432-.764-1.025a21.826 21.826 0 0 0-.303-1.443c-.1-.39-.092-.73.017-.798.104-.064.036-.352-.153-.64-.277-.422-.296-.622-.1-1.052.134-.293.184-.627.112-.743-.072-.116.107-.463.398-.77.291-.308.678-.922.86-1.365.183-.442.745-1.262 1.25-1.822.504-.56 1.144-1.541 1.421-2.18.385-.888.61-1.163.954-1.166.247-.002.436.114.42.259-.067.6.409.415.944-.367.315-.462.485-.87.378-.909-.108-.038-.196-.212-.196-.386 0-.173-.435-.737-.966-1.253-.882-.855-.939-.969-.645-1.292.237-.262.265-.454.107-.737-.279-.496.16-1.608.637-1.613.197-.002.253-.068.132-.157-.271-.199-.394-.65-.356-1.307.061-1.05-.17-1.49-.952-1.816a7.813 7.813 0 0 1-1.43-.825c-.365-.278-.828-.505-1.03-.505-.2 0-1.114-.19-2.03-.424-1.471-.375-1.73-.39-2.24-.128-1.057.543-2.177.764-2.633.52-.343-.183-.716-.07-2.02.61-.878.46-1.929.906-2.333.993-.405.087-1.179.381-1.72.654-1.537.772-3.738 1.551-4.347 1.538-.392-.01-.127-.181.919-.595 1.776-.703 3.602-1.619 3.77-1.891.208-.336-.243-.456-.785-.21-.4.182-.646.165-1.106-.076l-.593-.31.645-.333c.728-.376.957-.801.79-1.467-.162-.644.732-1.118 2.658-1.408 1.035-.156 1.821-.415 2.35-.775.935-.634.774-1.114-.233-.697-.476.197-.824.199-1.53.009-.857-.23-.888-.264-.504-.544.642-.468 1.97-.75 2.842-.603.552.093 1.005.028 1.469-.211l.67-.346-.441-.47c-.243-.257-.442-.524-.442-.592 0-.194 1.265-.583 1.898-.583.316 0 1.181-.228 1.923-.507s2.455-.66 3.805-.846c2.19-.302 2.654-.306 4.297-.034a72.73 72.73 0 0 0 3.102.444c.693.077 1.92.32 2.727.541 1.874.513 3.094.507 5.187-.026.924-.236 1.858-.372 2.076-.303.217.068.587.022.822-.103.323-.172.573-.152 1.034.086.416.215.93.276 1.63.195.739-.086 1.385.003 2.33.321.718.243 1.516.441 1.773.441.455 0 .457.008.06.3-.39.286-.392.306-.026.448.211.081.942.09 1.625.018 1.234-.129 1.245-.125 1.589.539l.346.668.45-.562c.258-.324.872-.69 1.443-.861.863-.26 1.125-.259 1.992.006.612.187 1.344.255 1.892.176.699-.1 1.023-.038 1.479.286.575.409.591.41 1.102.014.284-.22.87-.498 1.302-.618 1.032-.287 1.383-.9.762-1.333-.438-.306-.419-.33.734-.894.86-.421 1.247-.517 1.415-.35.167.168.166.352-.006.673-.294.547.071 1.374.529 1.199a.983.983 0 0 1 .606.003c.266.101.261.188-.03.633-.809 1.23 1.002.882 2.229-.43.498-.532 1.27-.694 1.995-.416.467.179.423.325-.35 1.172-.924 1.01-1.396 1.217-2.782 1.217-.67 0-1.46.144-1.829.335-.51.263-.759.285-1.16.102-.75-.341-1.012-.057-.474.514l.46.488-.917.26a9.358 9.358 0 0 1-1.862.29c-.754.024-.946.106-.947.403 0 .255-.368.523-1.155.844-2.553 1.042-4.718 2.919-3.934 3.411.146.092.38.425.518.739.159.361.465.613.836.688.322.064 1.152.395 1.846.736.693.34 1.544.681 1.89.757.955.207.964.23.519 1.355-.38.963-.388 1.1-.093 1.669.176.34.437.616.578.612.689-.02 1.334-.654 1.735-1.704.383-1.001.557-1.188 1.654-1.773 1.62-.863 2.294-1.714 2.114-2.668-.117-.622-.056-.768.477-1.147.336-.239.781-.81.99-1.27.464-1.028 1.21-1.385 2.469-1.18 1.116.183 2.436.89 2.595 1.391.066.206.011.575-.12.821-.2.373-.163.53.225.942l.466.495.76-.393a12.983 12.983 0 0 0 1.49-.938l.73-.545.171.462c.094.254.121.593.059.753-.061.16-.013.475.107.698.135.252.145.537.027.748-.133.237-.044.597.294 1.191.485.852.485.852.059 1.15-.559.39-.2.806.414.478.611-.326 1.309-.284 1.74.105.637.575.107 1.264-1.583 2.057-1.839.864-2.658 1.035-5.058 1.056-1.773.015-2.007.072-3.73.896-1.011.484-1.839.963-1.839 1.064 0 .433.319.395 1.541-.182.72-.34 1.65-.612 2.091-.612.756 0 .783.023.547.463a3.1 3.1 0 0 1-.654.792c-.352.284-.373.404-.153.886.33.722 1.192 1.07 2.223.896l.814-.137-.626.431c-.345.237-.912.493-1.26.568-.35.076-1.067.354-1.595.62-.535.269-1.073.411-1.218.322-.332-.205.019-.513 1.099-.963.96-.401.807-.827-.228-.633-.404.076-1.712.567-2.907 1.093-1.865.82-2.191 1.036-2.3 1.53-.133.607-.589.893-2.19 1.38-.51.155-1.173.53-1.47.833a8.48 8.48 0 0 1-1.27 1.008c-.4.251-.782.692-.85.979-.112.473-.138.484-.278.12-.263-.683-.66-.015-.682 1.149-.023 1.193-.63 2.007-1.958 2.63-1.363.638-3.302 2.148-3.694 2.876-.347.643-.362.893-.148 2.545.2 1.54.188 1.927-.075 2.434-.196.378-.424.558-.615.486-.45-.173-1.002-2.025-.847-2.847.107-.571.036-.787-.39-1.187-.344-.322-.661-.445-.931-.36-.225.072-.862-.063-1.415-.3-.848-.363-1.119-.393-1.724-.194-.41.135-.819.456-.952.748-.199.435-.33.491-.88.374a5.981 5.981 0 0 1-1.212-.428c-.769-.392-1.199-.365-2.062.13-.403.232-1.225.674-1.826.984-.692.355-1.167.76-1.291 1.1a134.67 134.67 0 0 0-.861 2.56l-.664 2.024.339 1.306c.623 2.4 1.49 3.118 3.296 2.731 1.362-.291 2.18-.882 2.48-1.79.191-.578.397-.769 1.013-.94.928-.257 1.316-.266 1.672-.04.294.186.19.492-1.126 3.337-.903 1.952-.838 2.126.71 1.903 1.41-.203 2.698-.047 2.849.345.058.153-.037 1.183-.212 2.289-.314 1.979-.312 2.023.14 2.752.252.408.726.879 1.052 1.047.52.269.684.268 1.339-.005 1.04-.434 1.605-.388 2.328.189.578.462.66.475 1.114.178.27-.176.638-.613.817-.971.406-.807 1.09-1.373 1.664-1.38.24-.002.658-.24.93-.529.55-.585 1.522-.776 1.047-.205-.398.478-.626 2.018-.369 2.497.214.398.23.396.62-.083.276-.342.332-.56.181-.711-.36-.36-.252-.66.42-1.155.697-.515 1.236-.462 1.838.18.44.47 2.796 1.106 3.471.937 1.028-.258 3.806 1.428 4.85 2.942.497.722 2.084 1.447 2.782 1.272 1.436-.359 3.405 1.077 3.865 2.819.138.519.344 1.003.46 1.075.306.19-.153.943-1.157 1.896-.641.609-.794.871-.614 1.051.18.181.477.023 1.19-.632 1.035-.953 1.381-1.05 1.9-.532.316.315.306.379-.127.839-.257.273-.617.503-.8.511-.191.007-.114.099.185.218.411.164.625.118 1.051-.226 1.109-.894 1.37-.937 2.356-.388.64.357.897.629.865.917-.09.8.099.977.654.614.442-.289.745-.303 2.222-.101 1.571.215 1.777.3 2.531 1.053.56.558 1.189.926 1.98 1.155 1.062.308 1.178.402 1.37 1.116.279 1.035-.048 2.183-.933 3.274-.378.466-.841 1.15-1.029 1.52-.188.37-.589.919-.89 1.219-.509.509-.538.636-.411 1.844.248 2.359-.908 6.761-2.023 7.702-.363.306-.674.378-1.25.289-.473-.073-.824-.026-.916.124-.083.133-.542.413-1.02.623a7.694 7.694 0 0 0-1.583.99c-.679.578-.701.642-.473 1.333.263.796.086 1.739-.478 2.543-.183.26-.332.703-.332.983 0 .281-.219.803-.487 1.159-.268.357-.785 1.174-1.149 1.816-.895 1.578-1.433 1.852-2.731 1.388-1.126-.403-1.727-.451-1.727-.139 0 .118.225.317.5.441.273.125.701.633.95 1.129.369.739.408.995.215 1.417-.298.654-1.44 1.203-2.5 1.203-.94 0-1.173.229-.848.834.2.374.065.975-.322 1.436-.031.037-.36-.089-.731-.28-.885-.457-1.198-.166-.751.697.182.351.528.701.768.777.414.131.419.16.082.531-.196.217-.297.545-.226.73.077.2-.094.631-.42 1.056-.527.691-.535.739-.196 1.255.193.294.495.591.67.658.634.242.739 1.07.256 2.014-.484.946-.558 1.894-.183 2.344.34.409-.805 1.206-1.32.918ZM75.81 72.109c.562-1.17 1.606-2.043 2.448-2.043.605 0 .612.098.058.802l-.436.553.447.361c.36.292.547.317.958.13.28-.128.567-.414.638-.637.097-.303.254-.374.624-.282.342.086.557.013.697-.239.428-.761-.66-1.735-1.459-1.308-.572.306-1.32-.302-1.16-.943.059-.238-.063-.652-.274-.93-.434-.571-1.095-.632-2.54-.231-.521.144-1.114.255-1.319.248-.204-.008-.317.074-.25.182.067.109.046.2-.048.202-.093.002-.405.185-.693.405l-.523.401.587.223c.46.174.73.15 1.24-.114.6-.309.71-.309 1.364.002.394.188.932.284 1.204.216.271-.068.55-.03.621.085.073.117-.223.267-.676.344-1.23.207-1.868.718-2.76 2.208-.745 1.244-.788 1.394-.491 1.723.291.323.372.328.772.049.245-.171.682-.804.971-1.407Zm3.818 1.294c.748-.38.82-.476.556-.74-.264-.262-.43-.245-1.288.133-1.007.445-1.326 1.045-.556 1.045.236 0 .815-.197 1.288-.438Zm3.726-1.584c.437-.306.454-.366.145-.538-.455-.254-1.805.183-1.805.584 0 .413 1.044.384 1.66-.046Zm15.78 90.557c0-.092.114-.281.253-.419.138-.139.172-.252.075-.252-.097 0-.29.155-.428.344-.2.272-.337.295-.654.111-.226-.131-.281-.235-.126-.239.151-.003.216-.101.145-.216-.137-.221.223-.282 1.26-.211.927.063 1.02.198.447.647-.533.419-.972.525-.972.235Zm175.486-5.263c-.601-.38.651-1.219 3.755-2.517.867-.362 2.188-1.12 2.935-1.684 1.271-.959 1.377-1.001 1.628-.642.383.545.158.939-.776 1.36-.447.201-1.008.59-1.247.865-.24.275-.625.5-.857.5-.232 0-.776.317-1.21.706-1.484 1.33-3.365 1.958-4.228 1.412Zm-14.706-2.724c-.218-.138-.23-.28-.052-.612.127-.238.232-.728.232-1.089 0-.591.047-.641.472-.491.261.091.804.178 1.209.193.404.015.808.041.898.058.348.065-.583 1.122-1.419 1.612-.996.582-.955.572-1.34.329Zm24.282-1.834c-.073-.073.1-.315.384-.539.429-.336.479-.479.292-.828-.272-.506.131-1.049 1.065-1.435.722-.298.905-.905.711-2.368-.134-1.007-.117-1.07.208-.802.255.211.318.476.227.961-.1.53-.01.806.433 1.332.479.568.621.63.994.431.372-.199.415-.181.298.123-.075.196-.137.394-.137.439 0 .045-.307.239-.683.431-.375.192-1.108.7-1.628 1.128-.846.697-1.716 1.26-1.948 1.26-.046 0-.143-.06-.216-.133Zm-22.221-2.708c-.442-.47-.524-.488-.949-.21-.542.354-1.56.147-2.376-.483-.435-.337-.465-.445-.241-.864.192-.357.198-.607.025-.986-.127-.279-.232-.692-.232-.917 0-.508-.33-.532-.604-.044-.112.201-.265.305-.338.232-.074-.074.169-.479.541-.901.913-1.038.556-1.319-.65-.513-.52.347-.978.727-1.02.843-.041.117-.29-.243-.555-.799-.286-.602-.781-1.208-1.225-1.5-.668-.439-.894-.475-2.177-.348-1.881.187-3.695.65-4.883 1.246-.54.271-1.594.548-2.406.633-.795.084-2.06.382-2.81.664-1.148.431-1.474.476-2.056.285-.78-.257-1.104-.786-.599-.98.183-.07.514-.551.737-1.069.356-.829.376-1.088.164-2.159-.174-.887-.179-1.727-.017-3.092.122-1.031.168-2.077.103-2.325-.065-.248.037-.855.226-1.349.333-.871.414-.928 2.669-1.881 1.278-.541 2.587-.983 2.908-.983.868 0 1.944-.825 2.537-1.945.366-.693.62-.956.84-.871.614.236.735.19.688-.264-.031-.292.095-.505.345-.584.217-.069.616-.45.889-.849.278-.407.852-.867 1.311-1.051.767-.307.844-.303 1.261.076.77.698 1.316.902 1.576.589.127-.152.17-.337.097-.41-.241-.24.86-1.619 1.398-1.751.289-.071.882-.308 1.318-.526.68-.34.919-.362 1.681-.158 1.643.44 1.698.512 1.086 1.434-.785 1.185-.577 1.648 1.35 3.002.89.625 1.73 1.099 1.867 1.054.137-.046.57-.524.962-1.064.535-.735.742-1.27.827-2.134.122-1.228.711-2.936 1.012-2.936.1 0 .329.505.508 1.122.18.618.557 1.338.838 1.601.656.615 1.037 2.335.742 3.351-.195.674-.157.782.512 1.468.397.408 1.025 1.402 1.396 2.209.37.807 1.038 1.95 1.484 2.539l.811 1.07-.23 1.654c-.168 1.2-.426 2-.943 2.914-.792 1.4-1.977 2.736-2.601 2.933-.224.071-.744.597-1.155 1.168-.411.571-.84 1.038-.953 1.038-.113 0-.594.49-1.069 1.089-.791.999-.936 1.091-1.761 1.106-.633.012-1.117.183-1.637.579l-.737.561-.485-.514Zm-102.463-4.409c-.445-.444-.519-.671-.42-1.283.094-.575.005-.914-.395-1.501-.284-.417-.516-.861-.516-.986s-.372-.725-.826-1.333c-.702-.938-.846-1.314-.962-2.501-.204-2.096-.875-4.365-1.776-6.009-.443-.809-.869-1.858-.946-2.333-.164-1.009.247-2.512 1.185-4.332l.623-1.211-.35-1.054c-.196-.589-.292-1.286-.218-1.582.088-.347-.006-.76-.271-1.196-.222-.367-.553-1.185-.734-1.82-.242-.847-.58-1.398-1.272-2.076-1.332-1.304-1.505-1.817-1.091-3.236.841-2.888-.068-4.573-2.289-4.241-.864.13-.897.114-1.019-.496-.094-.468-.348-.743-.986-1.068-.829-.421-1.184-.423-2.201-.009-.231.094-1.177.419-2.102.723-1.39.457-1.807.516-2.412.341-.574-.166-1.056-.123-2.23.198-1.212.332-1.651.368-2.306.187-1.367-.376-3.715-2.488-4.049-3.642-.259-.892-1.866-2.972-2.413-3.122-.348-.095-.391-.169-.178-.306.214-.138.177-.207-.157-.295-.531-.138-.584-.571-.071-.576.315-.003.322-.033.053-.206-.199-.128-.221-.205-.06-.207.167-.002.104-.26-.183-.745-.403-.681-.411-.772-.103-1.111.94-1.037 1.146-3.269.431-4.675-.341-.671-.121-1.599.607-2.563.274-.363.809-1.246 1.189-1.963.665-1.253 2.146-2.996 2.547-2.996.444 0 1.876-1.536 1.876-2.012 0-1.075.644-2.147 1.694-2.82.564-.36 1.225-.978 1.469-1.372.499-.805.569-.832 1.15-.428.228.159.795.352 1.259.43.708.118 1.047.033 2.101-.53 1.815-.968 2.936-1.21 5.012-1.08 1.369.085 1.986.03 2.649-.235.978-.39 1.823-.16 1.594.436a.65.65 0 0 0 .093.587c.151.182.15.442-.004.846-.193.507-.15.657.329 1.156.302.315.844.632 1.204.703 1.689.338 2.169.556 2.518 1.145.255.432.59.653 1.144.757.43.08 1.055.287 1.389.46.567.292.64.281 1.112-.162.318-.298.462-.613.388-.847-.066-.205-.016-.566.11-.8.325-.607 1.248-.547 2.69.173 1.57.784 4.547 1.344 5.603 1.053.508-.14.996-.142 1.44-.005 1.452.445 2.196.096 2.394-1.123.066-.404.178-.736.25-.736.136 0 .207-.608.227-1.94.006-.432.108-.786.227-.786.142 0 .135-.152-.02-.44-.258-.482-.782-.471-2.037.043-.594.243-.76.233-1.293-.081-.691-.408-1.4-.469-1.604-.139-.152.246-1.227.074-1.81-.29-.418-.26-.809-1.037-.809-1.607 0-.219-.213-.547-.473-.73-.403-.283-.426-.363-.158-.538.174-.114.53-.156.793-.094.334.079.642-.053 1.031-.44.366-.366.81-.567 1.309-.594.415-.022 1.016-.212 1.336-.422.695-.457 2.271-.33 3.494.281 1.65.824 3.114.776 3.704-.123.307-.467.308-.565.017-1.008-.177-.27-1.029-.893-1.893-1.383l-1.571-.892.295-.568c.162-.312.241-.62.176-.685-.065-.065-.04-.242.055-.394.095-.152.191-.398.214-.547.048-.317-.291-.23-1.962.508-.97.428-1.114.56-.899.818.141.17.458.312.704.318.345.007.263.106-.358.432-.753.397-.837.402-1.327.082-.419-.274-.474-.401-.275-.64.197-.237.167-.328-.144-.445a1.609 1.609 0 0 1-.616-.447c-.602-.8-2.512 1.306-3.067 3.383-.261.975-.252 1.025.239 1.395l.509.383-.935.193c-.513.105-1.206.118-1.538.027-.614-.167-1.392.085-1.392.451 0 .108-.143.141-.318.074-.175-.067-.452-.01-.617.126-.255.211-.226.384.197 1.177.457.86.472.977.186 1.548-.358.716-.69.663-1.196-.191-.352-.595-.35-.61.116-.675.589-.084.627-.457.056-.548-1.302-.208-1.996-.893-1.996-1.969 0-.84-.78-1.765-1.726-2.048-.491-.147-1.026-.455-1.187-.685-.162-.23-.635-.56-1.051-.735-.417-.173-.883-.494-1.036-.712-.22-.313-.364-.351-.686-.18-.224.12-.408.354-.408.519 0 .544 2.678 3.007 3.987 3.667 1.389.699 1.605.949.641.737-.86-.188-1.094 0-.8.645.207.452.173.59-.243.988l-.483.463.11-.624c.175-.992-1.135-2.416-2.222-2.416-.398 0-1.928-1.482-2.329-2.255-.428-.827-.905-.986-1.58-.53-1.017.689-1.779.921-2.577.787-1.06-.179-1.727.19-1.558.861.088.35.039.507-.159.507-.157 0-.561.236-.897.524-.336.289-.683.525-.771.525-.26 0-.993 1.325-.994 1.796-.001.45-.823 1.337-1.616 1.743-.252.13-.84.236-1.306.236-.641 0-.903.105-1.079.433-.23.43-.237.428-.776-.11-.505-.504-.796-.63-1.815-.787-.536-.083-.627-1.293-.226-3.017.171-.737.255-1.563.187-1.835-.199-.792.424-1.259 1.467-1.1 2.408.37 3.816.39 4.146.06.454-.452.658-1.945.381-2.782-.18-.546-.428-.769-1.169-1.051-1.09-.416-1.113-.817-.048-.828.406-.004.992-.173 1.302-.376.309-.202.652-.313.761-.246.297.183 1.422-.464 1.795-1.033.181-.275.536-.552.79-.617.254-.065.935-.557 1.513-1.094.819-.762 1.249-1 1.951-1.084.87-.104 1.746-.818 1.335-1.09-.256-.168-.469-1.183-.327-1.553.068-.175.365-.477.661-.671l.539-.352-.138.863c-.12.748-.09.854.231.8.204-.033.585-.178.846-.322.399-.218.497-.208.602.066.18.468-.321 1.019-.666.732-.191-.158-.313-.152-.419.02-.11.178-.196.168-.323-.036-.094-.153-.22-.23-.279-.172-.059.06.109.378.373.709.446.557.53.584 1.165.363.544-.19.805-.176 1.268.063.523.27.699.256 1.704-.124.88-.334 1.227-.377 1.616-.2.359.163.624.16.957-.012.945-.487 1.207-.855 1.09-1.53-.174-1 .144-1.327.983-1.01.571.214.738.206.996-.052.273-.273.25-.373-.198-.849-.431-.457-.461-.571-.198-.748.17-.115.808-.156 1.418-.091 1.116.118 2.507-.317 2.265-.709-.213-.342-1.494-.441-2.579-.199-.962.215-1.215.197-1.953-.134-1.145-.516-1.28-1.12-.495-2.212 1.012-1.407 1.197-1.856.909-2.202-.427-.513-.846-.346-1.821.727-.515.566-1.217 1.145-1.559 1.287-.343.142-.767.535-.942.873-.286.552-.286.667.004 1.108.178.271.515.553.749.627.645.205.517.588-.405 1.217-.284.194-.662.742-.84 1.218-.224.596-.565 1.003-1.096 1.309-.749.431-.783.433-1.196.06a2.128 2.128 0 0 1-.552-.96c-.07-.315-.385-.883-.702-1.26l-.575-.688-.729.444c-.401.244-.918.441-1.149.44-.667-.007-1.439-.726-1.49-1.389-.026-.329-.112-.76-.191-.957-.188-.47.753-1.351 1.731-1.62.981-.27 2.971-1.663 3.311-2.316.151-.29.662-.876 1.136-1.3.474-.424.861-.864.861-.978 0-.115.45-.368.999-.563.549-.195 1.47-.55 2.048-.787.71-.292 1.597-.446 2.732-.475 1.983-.05 3.28.212 4.351.88.537.335.961.45 1.366.369.726-.145 4.593 1.051 4.754 1.47.162.421-.947.819-1.902.682a37.993 37.993 0 0 1-2.008-.374c-.899-.191-1.276-.198-1.451-.023-.175.175-.087.303.337.496.315.144.71.525.877.847.425.821 1.788 1.49 2.491 1.224.675-.257.671-.337-.042-.723-.659-.357-.355-.434.473-.12.661.25 1.409-.061 1.235-.515-.082-.212.148-.366.796-.531 1.386-.355 1.488-.405 1.373-.686-.435-1.061-.441-1.03.192-.959.337.039.584.183.556.325-.028.141.148.362.391.492.365.195.652.126 1.655-.4 1.471-.768 2.616-1.02 3.043-.666.238.198.633.199 1.775.007.808-.136 1.561-.191 1.674-.122.112.07.266.026.341-.096.166-.268-.292-.874-.543-.72-.302.187-1.296-.148-1.08-.363.218-.218 6.065 1.142 6.415 1.492.236.235.983-.08.983-.414 0-.113-.417-.407-.926-.654-1.581-.766-1.682-1.994-.196-2.366.863-.216 1.236.033 2.429 1.623 1.549 2.064 1.509 1.959 1.003 2.668-.375.525-.397.648-.137.748.492.188 1.547-.472 1.695-1.062.174-.691-.151-1.28-.926-1.68-.609-.315-1.051-.892-1.051-1.373 0-.164.229-.205.683-.123.682.125 1.245-.122 2.788-1.22.352-.25.949-.415 1.55-.429 1.22-.028 1.615-.232 1.264-.654-.138-.165-.207-.345-.153-.398.268-.268 3.727-.75 4.524-.631.767.115 1.004.053 1.635-.428.405-.308.737-.644.737-.746 0-.256-1.836-.233-1.996.025-.22.355-.505.232-.425-.184.068-.352-.11-.409-1.64-.528-4.18-.325-4.52-.4-4.018-.901.441-.44 1.522-.431 2.427.02.371.184.985.335 1.365.335s.749.094.82.21c.072.115.44.21.818.21 1.048 0 3.075.45 2.947.656-.062.1.134.182.436.182.301 0 .851.163 1.221.361.497.267 1.192.363 2.668.37 1.587.005 2.115.087 2.574.396.318.214.577.449.575.522-.001.073-.486.4-1.077.725-1.428.786-1.126 1.128.6.682 1.119-.29 1.376-.291 2.302-.017.759.225 1.234.254 1.749.107.514-.147 1.042-.116 1.938.116.934.242 1.419.266 2.011.102 1.352-.375 3.015-.269 3.98.253l1.965 1.067c1.066.58 1.112.587 1.852.256.619-.277.964-.3 1.877-.126.907.173 1.237.152 1.748-.111.5-.258.58-.385.39-.615-.369-.443.94-.608 2.548-.32.737.131 1.671.262 2.075.291.405.03 1.195.26 1.756.512.856.384 1.503.471 4.008.54 2.377.065 3.133.16 3.707.465.582.31 1.245.388 3.452.41 2.03.02 2.94.116 3.542.374.972.417 1.361.264.832-.327-.381-.425-.378-.426 1.089-.28 2.46.243 5.41.78 6.409 1.166.52.201 1.512.435 2.203.519.691.084 1.7.378 2.242.652.822.415 1.089.461 1.617.278.722-.252 1.191-.07 2.293.885l.685.594-.516.13c-.518.129-1.894-.211-2.368-.586-.14-.11-.335-.15-.435-.089-.099.062-.591-.03-1.092-.202-1.174-.403-1.695-.252-1.16.338.365.403.357.411-.339.363-1.303-.091-.945.293.968 1.037 1.04.405 1.936.78 1.99.832.197.19-.453.427-.926.337-.52-.1-1.8.457-1.8.782 0 .108-.202.384-.449.614-.413.384-.498.393-1.051.108-.517-.267-.682-.27-1.179-.02-.318.16-.861.358-1.207.441-.346.084-.747.25-.891.368-.423.35.323 1.37 1.373 1.877.572.277.986.647 1.11.992.108.303.337.8.509 1.105.28.497.277.568-.024.684-.22.084-.285.253-.189.493.08.201.171.602.202.89.031.288.123.68.206.872.107.25.018.39-.313.495-.368.117-.617-.024-1.223-.693a12.443 12.443 0 0 0-1.551-1.413c-.435-.315-1.213-1.134-1.731-1.82-.912-1.212-.93-1.267-.628-1.851.172-.331.316-.82.32-1.084.004-.266.137-.717.296-1.003.303-.547.187-.984-.462-1.727-.426-.488-1.184-.122-.993.479.176.553-.364.733-.986.327-.269-.176-.889-.384-1.378-.461-.839-.134-.901-.108-1.118.46-.127.332-.18.856-.118 1.165.096.482.029.58-.467.69-.338.073-.916-.014-1.388-.21-.517-.217-1.005-.282-1.356-.182-.301.085-1.32.163-2.265.172-1.495.015-1.783.08-2.238.506-.287.27-.632.93-.766 1.468-.134.538-.381 1.189-.547 1.446-.289.443-.261.488.563.908.894.455 1.868.574 2.607.32.57-.196 2.308 1.157 2.851 2.218.222.435.59.89.816 1.011.859.459 1.033 3.466.315 5.433-.497 1.361-1.053 1.806-1.869 1.496-.312-.118-.599-.215-.638-.215-.038 0-.272.387-.519.86-.325.622-.388.935-.228 1.127.306.368.079.847-.533 1.126-.282.128-.513.325-.513.437 0 .111.657.654 1.46 1.206 1.023.702 1.569 1.241 1.819 1.796.197.435.32.827.273.869-.047.042-.476.274-.954.514l-.869.437-.523-1.197c-.586-1.341-1.088-1.88-1.972-2.118-.445-.12-.6-.289-.6-.656 0-.337-.218-.623-.681-.893-.675-.395-.688-.394-1.406.048-.719.444-.727.444-.948.032-.122-.228-.222-.56-.222-.736 0-.176-.177-.415-.393-.53-.321-.172-.524-.068-1.114.57-.396.427-.905.882-1.129 1.01-.348.197-.367.28-.127.57.155.186.689.565 1.187.843.793.442.945.468 1.212.2.254-.253.461-.262 1.228-.054l.922.25-.514.342c-.953.636-1.254.97-1.39 1.544-.112.47-.045.612.379.805.282.128.712.641.955 1.14.242.498.727 1.074 1.077 1.28.769.454.992.935.547 1.183-.414.232-.216.577.331.577.654 0 .658.39.025 2.638-.766 2.724-1.457 3.632-3.267 4.293-.712.26-1.579.488-1.926.507-.805.045-1.43.385-1.976 1.077l-.433.55-.201-.53c-.264-.692-.868-.865-1.734-.5-.795.336-1.318.87-1.53 1.562-.189.619.481 1.707 1.589 2.583.909.72 1.93 2.523 2.17 3.836.208 1.142-.161 1.892-1.152 2.338-.451.203-.874.536-.939.74-.155.49-1.088 1.1-1.26.824-.071-.116-.074-.384-.006-.598.068-.213.065-.541-.007-.728-.104-.269-.218-.293-.55-.116-.346.184-.479.138-.758-.266-.686-.993-2.674-2.587-3.225-2.587-.194 0-.269.233-.235.734.026.404-.056 1.191-.183 1.749-.208.909-.187 1.076.204 1.604.24.324.496.826.569 1.116.074.295.682.967 1.377 1.523 1.158.927 1.281 1.11 1.768 2.65.288.91.524 1.744.524 1.854 0 .355-.439.211-1.355-.445-.947-.679-1.552-1.753-2.057-3.651-.219-.824-.459-1.177-1.14-1.677-.836-.614-.861-.667-.794-1.683.039-.576.133-1.394.211-1.816.109-.595.019-1.021-.4-1.887-.297-.616-.649-1.561-.781-2.101-.296-1.207-.714-1.409-1.452-.703-.306.292-.614.531-.686.531-.335 0-.794-.71-.684-1.057.2-.63-1.031-2.824-1.751-3.121-.395-.163-.755-.558-.996-1.092-.419-.928-.889-1.282-1.359-1.026-.17.093-.852.28-1.515.416-1.216.249-1.653.616-1.486 1.251.061.234-.152.46-.662.703-.413.197-.859.593-.99.88-.131.287-.419.579-.641.65-.222.07-.563.39-.76.712-.196.322-.78.911-1.299 1.308-.709.544-.93.848-.895 1.23.206 2.237-.11 4.108-.881 5.219-.753 1.084-.806 1.114-1.443.825-.35-.16-.566-.471-.655-.946-.073-.39-.497-1.487-.941-2.439-2.686-5.759-3.084-6.858-2.855-7.898.155-.703-.216-1.763-.575-1.643-.144.048-.264.221-.267.384-.018.957-1.095 1.104-1.937.264l-.558-.556.48-.177c.54-.2.491-.737-.059-.639-.195.035-.641-.177-.992-.471-.351-.295-.719-.536-.818-.536-.098 0-.24-.19-.314-.422-.193-.609-1.308-1.138-1.867-.887-.502.226-5.063.179-5.827-.06-.275-.087-.784-.481-1.13-.877-.627-.716-.636-.719-1.576-.466-.891.24-1.02.217-2.22-.387-1.036-.522-1.347-.804-1.666-1.512-.409-.903-1.315-1.557-1.867-1.346-.173.066-.376.397-.45.734-.107.484.002.799.517 1.498.359.487.75 1.246.869 1.687.255.947.76 1.229 1.178.658.253-.345.321-.357.492-.087.109.173.168.408.131.523-.117.363 1.095.96 1.661.818.286-.072.897-.558 1.358-1.08.726-.823.979-.879.855-.188-.084.465.283 1.01.89 1.324.938.484 2.244 1.561 2.244 1.851 0 .134-.245.472-.546.751-.3.28-.732.872-.96 1.315-.553 1.078-2.158 2.654-2.701 2.654-.628 0-1.562.53-1.934 1.096-.177.268-.64.646-1.03.84-1.997.996-4.402 2.004-5.078 2.131-.724.136-.782.103-1.166-.652-.222-.436-.474-1.313-.559-1.947-.112-.825-.328-1.35-.761-1.842-.332-.38-.604-.78-.604-.891 0-.112-.379-.593-.843-1.07a4.684 4.684 0 0 1-1.184-2.044c-.188-.648-.57-1.461-.849-1.807-1.928-2.39-2.499-3.233-2.787-4.113-.381-1.166-.703-1.355-.852-.498l-.105.608-.711-.895c-1.095-1.38-1.233-.753-.205.932a52.112 52.112 0 0 1 1.724 3.127c.461.923 1.059 1.97 1.329 2.326.278.368.49.942.49 1.325 0 .79.237 1.283 1.165 2.43.373.462.741 1.135.819 1.497.099.464.505.95 1.377 1.647 1.325 1.061 2.184 2.168 2.397 3.091.08.347.383.702.768.901.586.302.792.294 2.644-.106 1.105-.239 2.275-.572 2.6-.74l.592-.306.141.83c.128.755-.01 1.118-1.506 3.981-1.608 3.079-1.683 3.18-3.283 4.44-.9.71-1.842 1.578-2.093 1.93-.251.352-1.055 1.303-1.786 2.113-2.133 2.363-2.423 4.442-1.008 7.229.359.708.5 1.243.414 1.582-.071.282-.025.993.101 1.581.199.926.177 1.173-.168 1.847-.496.971-.892 1.32-2.281 2.015-.606.303-1.103.641-1.103.751 0 .109-.425.677-.945 1.261-.52.585-.946 1.158-.946 1.274 0 .116.195.592.433 1.058.715 1.398.235 2.41-1.478 3.118-.721.298-.959.908-.78 2.006.094.575.034.767-.293.941-.225.12-.633.569-.906.996-.861 1.35-3.337 3.739-4.462 4.305-.939.473-1.179.514-1.868.324-.608-.167-1.099-.141-2.118.115-1.652.414-1.476.431-2.116-.207Zm27.677-66.884c.543-.28.62-.434.62-1.233 0-.572-.123-1.014-.329-1.185-.181-.15-.474-.553-.652-.895-.293-.566-.292-.61.014-.494.404.155.967-.031.967-.32 0-.114-.195-.48-.434-.816-.36-.504-.504-.571-.841-.392-.272.146-.406.147-.406.004 0-.117-.375-.403-.833-.637-1.015-.516-1.376-1.088-1.059-1.678.239-.447 1.095-.76 1.46-.535.492.304.638-.144.231-.713-.985-1.381-2.358-1.29-4.059.269-1.099 1.006-1.194 1.273-.573 1.605.231.124.42.365.42.536 0 .172.374.717.831 1.212 1.052 1.139 1.245 1.66 1.115 3.007l-.105 1.085 1.444.74c.794.406 1.472.744 1.506.75.035.005.342-.134.683-.31Zm-5.789 58.575c-.593-.335-.677-.513-.832-1.75-.124-.99-.073-1.205.52-2.166.603-.978.646-1.166.513-2.227-.192-1.533.135-2.339 1.028-2.534.841-.184 2.661-1.788 3.097-2.729l.333-.719.232.507c.582 1.277.523 1.837-.491 4.637-.542 1.498-1.124 3.29-1.293 3.982-.54 2.214-.847 2.748-1.732 3.013-.943.282-.851.282-1.375-.014Zm103.51-3.645c-.67-.733-1.072-1.361-1.072-1.678 0-.704.114-.642.72.39.29.494.814 1.172 1.164 1.507.351.336.638.687.638.78 0 .404-.447.095-1.45-.999Zm-93.739-.298c0-.115.095-.21.21-.21a.21.21 0 0 1 .21.21.21.21 0 0 1-.21.21.211.211 0 0 1-.21-.21Zm110.656-.383a.263.263 0 0 1 .093-.358c.312-.192.423-.039.214.298-.111.18-.22.201-.307.06Zm-109.185-.339c0-.051.095-.15.21-.222.116-.071.21-.029.21.093a.217.217 0 0 1-.21.222c-.115 0-.21-.042-.21-.093Zm103.721-2.128c-.205-.532.055-.719.634-.455.5.227.511.262.163.516-.488.355-.642.344-.797-.061Zm1.331-.933c-.41-.253-.126-.455.527-.374.512.063.524.086.158.311-.233.143-.513.169-.685.063Zm-9.811-.769c-.431-.927-.28-1.284.166-.391.465.929.473.959.255.957-.087-.001-.276-.256-.421-.566Zm.805-.149c-.009-.221.04-.345.11-.275.07.07.078.25.017.402-.067.167-.117.117-.127-.127Zm17.107-2.013c-.193-.311-.01-.469.438-.382.329.064.332.098.036.343-.237.196-.371.207-.474.039Zm-124.185-1.045c-.071-.115-.029-.21.093-.21s.222.095.222.21c0 .115-.041.21-.092.21s-.151-.095-.223-.21Zm92.247-1.97c-1.33-.419-1.933-.807-2.456-1.584-.598-.886-1.692-1.558-2.251-1.381-.226.072-.606.461-.845.865-.406.687-.484.725-1.223.594-.434-.077-1.041-.373-1.348-.659-.39-.363-.689-.478-.994-.381-.239.076-.586.053-.771-.05-.289-.161-.261-.237.201-.539.536-.35.536-.354.177-1.106-.288-.603-.686-.918-1.987-1.571-.895-.448-1.906-.816-2.248-.816-.781 0-1.104-.719-.515-1.148.35-.256.299-.319-.615-.762-.969-.47-.983-.49-.52-.747.262-.145.683-.267.937-.271.492-.008 1.115.701 1.115 1.269 0 .19.204.604.454.921.448.567.459.57.788.16.184-.229.77-.665 1.303-.97l.968-.554 1.343.604a39.81 39.81 0 0 0 2.33.96c.542.195 1.628.775 2.412 1.289 1.498.982 2.149 1.809 1.775 2.258-.304.366.891 2.032 2.128 2.967 1.359 1.027 1.336 1.122-.158.652Zm9.145-.017c-.166-.199-.182-.32-.042-.32.254 0 .55.398.404.544-.053.052-.216-.048-.362-.224Zm-35.306-.854c-.305-.168-.393-.291-.21-.294.375-.005.975.344.834.485-.055.055-.336-.031-.624-.191Zm3.552-.277c.596-.835 1.529-1.192 2.391-.916.628.201.638.218.139.238-.295.012-.984.304-1.53.651-1.248.789-1.549.797-1 .027Zm30.489.287c-.284-.341-.216-.384.298-.187.183.07.332.211.332.314 0 .29-.34.222-.63-.127Zm.984-.185a2.198 2.198 0 0 1-.13-.723c.009-.232.082-.179.216.156.112.279.17.604.13.723-.04.12-.137.049-.216-.156Zm16.247.197c0-.05.094-.15.21-.222.115-.071.21-.029.21.093s-.095.222-.21.222c-.116 0-.21-.042-.21-.093Zm-53.742-.88c-.146-.061-.211-.198-.145-.303.16-.259 1.507-.245 1.669.018.072.115.007.211-.145.212a4.525 4.525 0 0 0-.695.093c-.231.05-.539.041-.684-.02Zm3.119-.158c-.382-.459.058-.599 1.048-.333.998.268.994.31-.039.496-.537.097-.832.049-1.009-.163Zm31.55-.127c-.146-.233-.172-.42-.058-.42.112 0 .305.189.429.42.124.23.15.419.058.419s-.285-.189-.429-.419Zm1.316-.211c-.562-.62-.262-.717.317-.103.271.288.396.523.278.523s-.386-.189-.595-.42Zm-39.399-.037c-.751-.104-1.81-.334-2.353-.512-.544-.178-1.184-.262-1.423-.186-.481.153-2.527-.448-2.527-.741 0-.671 1.883-.722 2.884-.078.374.24.669.256 1.459.079.875-.196 1.057-.172 1.572.208.32.236.677.429.793.429.415 0 1.677.702 1.57.874-.059.096-.221.162-.358.146-.138-.017-.865-.115-1.617-.219Zm37.719-1.01c-.21-.231-.286-.42-.171-.42.116 0 .382.189.591.42.209.23.286.419.17.419-.115 0-.381-.189-.59-.419Zm-1.326-.266c-.119-.144-.277-.544-.352-.889-.12-.556-.106-.58.118-.209.139.231.387.576.552.766.175.202.216.398.1.47-.11.067-.298.005-.418-.138Zm-4.45-.667-.522-.288.81-.152c.445-.083 1.129-.432 1.52-.774.427-.374.709-.51.707-.339-.004.426-.263.755-1.048 1.333-.821.604-.782.598-1.467.22Zm-39.417-.816c-.772-.439-2.164-2.137-2.618-3.193-.244-.569-.804-1.507-1.245-2.083-.44-.577-.946-1.332-1.123-1.678-.178-.346-.717-1.007-1.198-1.468-1.015-.973-1.639-1.995-1.214-1.987.552.009 1.971.797 2.58 1.431 1.679 1.749 2.023 2.061 2.816 2.548.765.471 1.127.96 1.164 1.573.007.115.224.446.483.734s.748.831 1.087 1.205c.338.374.676.959.751 1.298.245 1.112-.653 2.092-1.483 1.62Zm-42.326-.139a.21.21 0 0 1 .21-.21c.115 0 .21.095.21.21a.21.21 0 1 1-.42 0Zm55.578-.002c-.072-.116-.073-.395-.002-.619.071-.225-.016-.629-.194-.9-.292-.446-.289-.539.03-.994.194-.277.423-1.019.509-1.649.105-.778.314-1.305.65-1.64.458-.457.573-.478 1.604-.283.886.168 1.234.147 1.716-.101.807-.417.865-.398.598.189-.341.746-1.022.984-1.739.609-1.282-.67-2.982.326-2.085 1.221.33.329.512.359 1.123.184 1.047-.3 1.459-.245.809.108-.735.399-.875.842-.496 1.573.173.333.314.85.314 1.148 0 .477-.05.515-.421.317-.231-.123-.565-.569-.741-.991-.319-.761-.325-.764-.732-.357-.358.357-.382.515-.186 1.223.177.639.165.85-.056.99-.371.235-.544.228-.702-.028h.001Zm28.83-1.118c-.198-.302-.652-.699-1.008-.883-.357-.184-.601-.382-.543-.439.326-.326 2.15 1.155 1.994 1.62-.047.143-.238.015-.443-.298Zm-32.998-.698c-.317-.166-.744-.248-.949-.183-.523.165-2.6-.257-2.805-.57-.164-.25-.645-1.786-.903-2.881-.071-.301 0-.692.165-.918.241-.328.365-.353.746-.149.402.215.487.178.708-.305.138-.302.597-.725 1.019-.94.448-.229.879-.655 1.031-1.023.176-.424.498-.709.978-.867.394-.13.963-.558 1.264-.953.302-.394.66-.717.797-.717s.552.312.922.693l.672.692-.539.723c-.612.822-.58 1.528.114 2.501l.42.588-.524.342c-.288.189-.523.458-.522.6.002.48-1.345 3.249-1.682 3.459-.235.147-.509.119-.912-.092Zm12.206-.004c-.434-.113-.495-.484-.078-.484.159 0 .603.062.988.139.592.118.636.164.289.3-.456.178-.659.186-1.199.045Zm33.464-2.674c0-.051.094-.151.21-.222.115-.071.21-.03.21.092 0 .123-.095.223-.21.223-.116 0-.21-.042-.21-.093Zm-34.2-.569c-.168-.167-.178-.362-.032-.633.116-.216.154-.482.086-.593-.19-.306.285-1.048.67-1.048.309 0 .308.036-.014.39-.277.306-.308.509-.143.942.333.875-.029 1.479-.567.942Zm-105.537-.689c0-.051.095-.151.211-.222.115-.072.21-.03.21.092s-.095.222-.21.222c-.116 0-.211-.041-.211-.092Zm145.725-.537c-.071-.115-.03-.209.093-.209.122 0 .222.094.222.209 0 .116-.041.21-.092.21s-.151-.094-.223-.21Zm-144.464-1.98c0-.05.095-.15.21-.222.116-.071.21-.029.21.093a.217.217 0 0 1-.21.222c-.115 0-.21-.042-.21-.093Zm101.075-3.152c-.401-.933-.455-.975-1.071-.84-.615.135-.637.118-.406-.312.19-.355.367-.426.819-.327.436.096.715-.001 1.141-.396.311-.287.567-.692.57-.899.006-.529.787 1.246.965 2.195.135.72.118.76-.21.488-.488-.403-.957.015-.557.496.159.192.18.324.05.324-.12 0-.367.056-.549.126-.244.093-.441-.131-.752-.855Zm-38.313.37c-.235-.381-.368-2.09-.199-2.543.18-.481.194-.475.729.315.642.946.847 1.553.635 1.877-.202.31-1.035.561-1.165.351Zm46.926-1.085c0-.115.094-.268.21-.339.115-.071.21-.035.21.08s-.095.268-.21.339c-.116.072-.21.036-.21-.08Zm32.99-.024c0-.116.042-.21.093-.21s.151.094.222.21c.072.115.03.209-.092.209-.123 0-.223-.094-.223-.209Zm-47.699-1.212c0-.09.421-.632.936-1.206.754-.84.938-.959.945-.612.006.237-.31.78-.701 1.206-.664.723-1.18.991-1.18.612Zm4.551-.559c-.077-.2-.061-.502.034-.672.149-.264.21-.267.418-.017.185.223.177.382-.035.671-.26.356-.287.357-.417.018Zm-160.915-.818c.129-.154.172-.343.096-.419-.076-.076.057-.138.297-.138.332 0 .41.1.326.42a.56.56 0 0 1-.532.419c-.329 0-.37-.062-.187-.282Zm162.325-.055a5.395 5.395 0 0 0-.228-.554c-.046-.087.004-.158.113-.158.21 0 .505.861.349 1.017-.05.051-.156-.087-.234-.305Zm-2.129-.547c-.296-.355-.008-.86.433-.762.277.062.287.149.065.559-.214.396-.306.434-.498.203Zm2.484-.721c-.241-.306-.403-.591-.361-.634.171-.17.762.205 1.076.684.484.736-.129.693-.715-.05Zm-3.455-.812c-.187-.186-.34-.448-.34-.58 0-.133.208-.035.461.218.254.253.407.515.341.581-.067.067-.274-.032-.462-.219Zm-164.941-.03a.574.574 0 0 1-.14-.356c0-.131.098-.119.248.031.137.137.2.297.14.357-.06.059-.171.045-.248-.032Zm-1.19-.279c0-.116.04-.21.092-.21.05 0 .15.094.222.21.072.115.03.21-.092.21-.123 0-.223-.095-.223-.21Zm9.875-.42c0-.115.042-.209.093-.209.05 0 .151.094.222.209.072.116.03.21-.092.21-.123 0-.223-.094-.223-.21Zm158.37-.032c-.211-.118-.61-.158-.887-.089-.407.102-.688-.061-1.449-.843-1.076-1.105-1.286-1.57-.97-2.16.122-.227.222-.697.222-1.043 0-1.139.764-1.093 1.324.08.31.649.312.788.021 1.484-.314.75-.308.784.252 1.367.404.421.708.564 1.027.484.271-.067.562.016.721.208.378.455.213.779-.261.512ZM90.94 99.332c0-.051.094-.151.21-.222.115-.072.21-.03.21.092s-.095.222-.21.222c-.116 0-.21-.041-.21-.092Zm32.99-.747a.21.21 0 0 1 .42 0 .21.21 0 0 1-.42 0Zm-33.621-.814c0-.115.095-.268.21-.339.116-.071.21-.035.21.08s-.094.268-.21.34c-.115.07-.21.035-.21-.08Zm-1.785-.86c-.073-.12.011-.155.198-.083.364.14.43.29.129.29-.11 0-.256-.094-.327-.208Zm33.41-.003c-.072-.115-.03-.21.092-.21.123 0 .223.095.223.21 0 .115-.042.21-.093.21s-.151-.095-.222-.21Zm-32.57-.42c-.072-.115-.03-.21.092-.21.123 0 .223.095.223.21 0 .116-.042.21-.093.21s-.151-.094-.223-.21Zm.945 0c0-.115.042-.21.093-.21.05 0 .15.095.222.21.072.116.03.21-.092.21-.123 0-.223-.094-.223-.21Zm-14.446-.558c-.145-.058-.263-.192-.263-.298 0-.302.927-.224 1.378.116.388.292.377.307-.222.298-.347-.006-.749-.058-.893-.116Zm5.317-.119c-.189-.105-.605-.134-.925-.064-.32.07-.814.036-1.096-.076-.453-.181-.413-.203.347-.185 1.118.026 1.416-.156 1.13-.688-.202-.378-.142-.407.861-.407.97 0 2.369.444 2.606.827.157.255-2.547.803-2.923.593Zm4.03.133c-.249-.249.06-.504.611-.504.33 0 .498.099.444.262-.097.294-.833.462-1.054.242Zm152.024-.334c-.556-.555-.005-1.219 1.012-1.219.451 0 .451.004.064.665-.451.77-.72.91-1.076.554Zm-150.287-.043c0-.045.142-.136.315-.203.174-.066.315-.03.315.082s-.141.204-.315.204c-.173 0-.315-.038-.315-.083Zm-9.084-1.503c-.064-.065-.508-.123-.985-.13-.659-.009-.817-.073-.655-.267.156-.188-.068-.438-.84-.938-1.515-.98-2.361-1.17-3.379-.764-.954.38-1.027.391-1.027.152 0-.44 1.672-.922 2.877-.83 1.151.087 1.796.331 4.057 1.538 1.859.993 1.861.995 1.261 1.165-.681.194-1.161.221-1.309.074Zm1.52-1.77c.407-.262.63-.262.63 0 0 .116-.213.209-.473.207-.382-.003-.413-.042-.158-.207Zm167.346-.371c-.127-.084-.345-.37-.486-.635-.211-.4-.189-.595.129-1.137.49-.837.821-.942.98-.31.167.666-.317 2.283-.623 2.082Zm-165.967-.28c.14-.227.932-.252.932-.03 0 .086-.236.17-.524.187-.288.017-.472-.054-.408-.157Zm-4.155-2.021c-.336-.385-.287-.892.086-.892.12 0 .169.184.11.409-.06.225 0 .448.133.495.132.048.184.147.116.221-.068.075-.269-.03-.445-.233Zm1.22-1.647c-.074-.195-.088-.401-.03-.459.057-.058.166.054.24.249.075.194.09.4.031.458-.057.058-.166-.054-.24-.248Zm-1.316-.19c0-.172.18-.314.4-.314.356 0 .365.035.085.315-.174.173-.354.314-.4.314-.047 0-.085-.141-.085-.314Zm176.228-4.596c0-.165-.229-.571-.51-.904-.666-.79-.43-1.317.359-.801.567.37.863 1.128.654 1.672-.159.412-.503.435-.503.033Zm-163.06-1.262c0-.051.094-.151.21-.222.115-.072.21-.03.21.092s-.095.222-.21.222c-.116 0-.21-.041-.21-.092Zm164.231-.258c-.136-.354.186-.69.668-.695.334-.004.34.465.01.793-.342.342-.518.317-.678-.098Zm1.92-.766c-.408-.62-.984-.706-2.304-.34-.536.148-.906.15-1.155.005-.202-.118-.256-.217-.121-.22.136-.004.532-.246.88-.538.449-.377.778-.495 1.133-.406.376.094.782-.087 1.636-.727 1.662-1.246 1.813-1.64 1.136-2.971-.649-1.279-.468-1.69.494-1.123.7.412 1.36 1.595 1.168 2.093-.069.18.034.742.229 1.251.275.72.301 1.022.117 1.365-.269.504-1.02.84-1.874.84-.479 0-.622.122-.778.667l-.192.666-.369-.562Zm-85.125-.715c-.251-.25-.118-.476.281-.476.225 0 .467-.094.538-.21.195-.315.529-.251.402.077-.129.337-1.039.79-1.221.609Zm-7.166-.363-.63-.288.84-.014c1.047-.018 1.818.178 1.667.423-.169.273-1.153.21-1.877-.121Zm-8.488-2.092c-.841-.43-.881-.483-.442-.598.526-.137 1.69.034 1.666.244a2.7 2.7 0 0 1-.158.479c-.129.314-.231.302-1.066-.125Zm-4.212-2.269c-.182-.52-.168-.72.069-.956.427-.426.759-.126.759.686 0 .959-.527 1.131-.828.27Zm-4.927.174c.149-.387.788-.453.659-.067-.048.144-.244.292-.437.33-.243.047-.311-.032-.222-.263Zm109.793-2.393c-.385-.54-.396-.639-.112-1.043.279-.398.278-.517-.009-1.072-.473-.912-.406-.967.413-.343.406.308 1.205.7 1.778.87 1.182.35 1.467.625.851.82-.233.073-.424.27-.424.438 0 .228-.144.268-.577.157-1.109-.283-1.424-.214-1.353.297.087.626-.054.595-.567-.124Zm-104.528.246a.47.47 0 0 1 .175-.775c.227-.087.315.024.315.397 0 .504-.206.662-.49.378Zm103.194-4.42c-.178-.203-.608-.934-.955-1.626-.346-.693-1.264-1.964-2.038-2.825-.864-.963-1.304-1.6-1.139-1.656.147-.048.462.17.701.488.578.768 1.29 1.435 2.413 2.261.931.685 1.392 1.319.791 1.089-.693-.266-.52.364.377 1.372.522.587.95 1.111.95 1.165 0 .255-.812.056-1.1-.269Zm-153.766-.368c0-.173.092-.314.204-.314.112 0 .149.141.082.314-.066.173-.158.315-.203.315-.045 0-.083-.142-.083-.315Zm-1.098-.677-.782-.081 1.473-1.456c.81-.8 1.579-1.456 1.708-1.456.137 0 .096.154-.097.367-.438.483-.14 1.025.66 1.2.349.077.697.344.831.638.216.472.179.52-.549.722-.764.212-1.675.23-3.244.067Zm-51.202-1.504c-.727-.678-.809-.964-.326-1.15.432-.165 1.23.375 1.532 1.037.318.695.312.721-.155.721-.219 0-.692-.273-1.05-.608Zm92.54-1.065c.231-.114.686-.303 1.011-.42.716-.258.597-.532-.308-.713-.621-.123-.643-.155-.288-.414.212-.155.323-.38.248-.502-.077-.124.139-.317.493-.44.347-.12.63-.313.63-.426 0-.485-.438-1.3-.681-1.268-.561.073-.821-.026-.73-.277.051-.145.009-.428-.095-.63-.271-.524.351-1.61.928-1.621.087-.002.134.112.105.254-.028.141.17.29.441.331l.493.075-.471.5-.471.501.531.202c.57.216 1.12.92 1.679 2.154.269.59.445.744.758.663.642-.168.718.266.116.66-.409.267-.486.418-.307.596s-.174.298-1.396.474c-.899.13-1.966.297-2.371.372-.562.103-.636.087-.315-.071Zm-3.543-1.159c-.072-.187.01-.611.182-.944.197-.38.236-.651.103-.733-.364-.224-.227-.51.308-.645.284-.071.626-.261.761-.423.28-.337 1.574-.399 1.769-.085.071.115-.018.42-.198.676-.18.257-.327.717-.327 1.024 0 .468-.144.607-.893.867a25.24 25.24 0 0 0-1.234.456c-.22.095-.387.026-.471-.193Zm3.858-2.083c0-.051.095-.15.211-.222.115-.072.21-.03.21.092s-.095.222-.21.222c-.116 0-.211-.041-.211-.092Zm-93.255-1.01c-.206-.248-.193-.363.065-.577.428-.354.64-.114.39.442-.17.383-.233.401-.455.135Zm-.329-1.578c-.07-.114.012-.325.184-.467.342-.283.413-.061.126.391-.11.173-.231.203-.31.076Zm-13.582-.133c0-.148.637-.406 1.541-.624.343-.083.546-.063.477.047-.065.105-.38.243-.7.308-.32.064-.748.181-.95.26-.202.077-.368.081-.368.009Zm124.87-2.358c-.388-.157-.319-.397.122-.43.212-.016.386.105.386.27 0 .312-.073.335-.508.16Zm-46.176-1.072c-1.33-.724-1.966-1.836-1.58-2.764.182-.44.188-.715.02-1.027-.347-.65.107-1.41 1.268-2.122.551-.339 1.102-.801 1.223-1.028.337-.628.037-1.703-.549-1.97-.296-.134-.458-.347-.392-.518.149-.388-.551-1.713-1.247-2.362-.513-.478-.734-.525-2.49-.537-2.391-.015-2.837-.148-2.797-.833.016-.284.08-.517.14-.517.061 0 .912-.099 1.892-.219 1.25-.153 2.371-.47 3.765-1.063 2.158-.918 2.322-.936 7.471-.816 1.626.039 3.122-.081 5.043-.404 1.789-.301 3.106-.414 3.817-.329.604.073 1.479.025 1.973-.108 1.146-.308 4.123.063 5.294.659.692.352 1.059.399 2.227.283 1.262-.126 1.357-.11.978.169-.231.17-.94.376-1.576.46-1.379.18-2.647 1.162-2.311 1.788.145.27.041.501-.427.95-.341.325-.669.748-.73.94-.146.46-2.004 1.315-2.925 1.347-1.023.036-1.13.253-.339.688.374.205.919.555 1.212.777l.533.405-.481.178c-.37.136-.669.048-1.284-.377-.834-.577-1.731-.58-1.252-.004.186.224.141.312-.208.403-.781.204-.228.607.633.461.548-.092.856-.043 1.028.163.204.245-.062.359-1.593.68-1.01.212-2.357.393-2.993.402-1.181.018-2.032.356-3.284 1.306-.408.31-1.275.616-2.29.81-2.122.405-2.839.873-4.117 2.69-1.027 1.46-1.646 2.003-2.286 2.008-.174.002-.788-.255-1.366-.57Zm-14.9-1.403c-.45-.276-1.004-.792-1.228-1.147-.439-.69-.843-.779-2.027-.44-.4.115-.85.126-1.03.026-.623-.348.502-.69 1.753-.534.952.12 1.164.085 1.275-.203.223-.58 1.244-.996 1.811-.738.35.159.667.154 1.114-.016.6-.228.608-.249.216-.536-.224-.165-.48-.3-.569-.3-.088 0-.408-.42-.71-.935-.303-.515-.87-1.133-1.26-1.374-.663-.41-.75-.416-1.344-.11-.519.267-.818.286-1.639.102-.552-.123-1.323-.165-1.714-.092-.677.126-1.917-.205-1.917-.511 0-.564 1.78-1.828 2.837-2.016l.84-.15-.6.64c-.83.88-.517 1.286.383.498.381-.335 1.041-.674 1.466-.753.649-.122.927-.043 1.741.496 1.084.717 1.168.736 1.78.41.367-.197.504-.143.904.357.276.346.894.723 1.496.913.96.303 1.025.37 1.025 1.03 0 .495.144.808.481 1.048 1.41 1.007 1.379.965 1.074 1.453-.418.668-.749.717-1.675.245-.644-.328-.925-.373-1.25-.2-.396.212-.401.258-.081.874.262.506.286.762.108 1.152-.22.48-.255.488-.851.18-1.172-.604-1.96-.206-.867.438.342.202.574.444.516.538-.203.329-1.243.155-2.057-.345Zm43.162.272c0-.096.142-.175.315-.175.174 0 .316.079.316.175 0 .096-.142.175-.316.175-.173 0-.315-.079-.315-.175Zm-51.084-1.128c-.414-.217-.736-.236-1.316-.076-.987.272-1.332.073-.831-.479.64-.707 1.075-.846 1.848-.591.87.287 1.256.712 1.021 1.126-.15.264-.251.267-.722.02Zm41.733-.095c-.346-.228-.788-.364-.98-.303-.266.083-.324.01-.243-.3.125-.477 1.971-1.166 2.595-.968.218.069.774.012 1.236-.126.726-.217.918-.2 1.409.12l.568.371-.506.394c-.427.332-1.22.62-3.133 1.14-.173.047-.599-.1-.946-.328Zm-57.05-3.915c-.289-.046-.992-.292-1.564-.548l-1.038-.465 1.459-.105c.802-.058 1.459-.2 1.459-.315 0-.115-.568-.26-1.261-.322-.916-.081-1.088-.139-.63-.21.766-.118.821-.45.104-.63-.516-.13-.512-.138.214-.45 1.258-.54 2.598-.644 3.785-.293.975.29 1.127.288 1.587-.012.325-.213.518-.248.534-.099l.053.479c.049.454.468.395.968-.136.463-.492 1.266-.728 1.264-.371 0 .086-.188.462-.416.836l-.414.678.678.353.678.353-1.113.508c-1.005.457-1.211.483-2.112.268-.873-.21-1.123-.185-2.003.19-.994.426-1.204.453-2.232.291Zm8.428-.148c-.19-.228-.112-.34.379-.543.341-.141.831-.188 1.093-.105.456.144.445.167-.247.534-.882.47-.926.474-1.225.114Zm57.973-.97c.408-.263.631-.263.631 0 0 .115-.213.208-.473.206-.382-.002-.413-.042-.158-.206Zm38.559-.582c-1.074-.423-1.052-.4-.74-.776.147-.176.184-.323.083-.326-.101-.004.006-.15.237-.324.231-.174.422-.384.424-.465.007-.31.862-1.128 1.467-1.403.347-.158 1.245-.336 1.996-.395.751-.06 1.758-.169 2.236-.242.51-.079.925-.047 1.001.077.149.24-.135.343-1.766.635-1.618.29-2.591.743-3.232 1.503-.675.8-.697 1.306-.077 1.737l.472.33-.63-.01c-.347-.005-1.009-.159-1.471-.34Zm-110.054-.608c-.34-.338-.262-.412 1.364-1.3 1.905-1.04 2.862-1.179 4.57-.66l.946.288-1.26.25c-1.031.203-3.217.932-4.942 1.648-.176.073-.48-.028-.678-.226Zm15.18-.271c0-.112-.26-.352-.577-.534l-.578-.331.773.121c.55.086.824.035.946-.178.145-.252 1.483-.758 2.016-.761.09-.001.017.281-.163.627-.421.814-2.416 1.685-2.416 1.056Zm3.272-.613c-.3-.486 1.755-1.238 2.629-.962.636.202.21.549-.9.733-.496.082-1.059.216-1.25.297-.19.08-.406.05-.479-.068Zm6.71-1.544c-1.387-.11-2.548-.224-2.58-.253-.187-.174.281-.74.786-.949.496-.205.724-.178 1.403.167.662.336 1.088.392 2.318.303.828-.059 1.774-.04 2.1.042l.596.15-.736.393c-.404.216-.877.382-1.05.37l-2.837-.223Zm60.47-.857c-1.032-.527-1.132-.766-.321-.77.318-.003.72-.106.893-.23.273-.196.269-.212-.027-.118a.638.638 0 0 1-.586-.136c-.186-.186-.283-.182-.404.014-.113.181-.343.202-.78.072-1.108-.331-1.355-.478-1.355-.806 0-.279.278-.304 1.997-.183 1.308.091 1.996.066 1.996-.074 0-.413.583-.21.737.258l.157.471.093-.471c.051-.26.228-.472.393-.472.166 0 .301-.113.301-.252 0-.196.056-.196.252 0 .147.146.85.252 1.681.252 1.502 0 1.855.268.853.648-.52.197-1.426.142-2.418-.15-.203-.059-.368-.03-.367.064.002.194 1.182.906 1.502.906.114 0 .341.132.503.294.253.252.251.31-.015.413-.171.065-.31.016-.31-.108 0-.147-.267-.177-.756-.085-.53.099-.713.072-.613-.09.08-.129.03-.37-.11-.538-.269-.324-1.043-.424-1.043-.134 0 .094-.307.51-.683.925l-.682.753-.888-.453Zm-55.742-.461c-.365-.214-.88-.275-1.681-.202-.75.069-1.325.01-1.637-.168-.43-.246-.325-.274.987-.263 1.641.013 2.362-.337 1.473-.717-.422-.18-.36-.196.363-.096.945.13 1.312-.122.797-.548-.548-.455.055-.596 2.008-.47 1.209.078 1.968.034 2.279-.131.595-.318.361-.722-.319-.552-.469.118-3.73-.075-3.592-.213.098-.098 4.717-.525 7.751-.716 1.573-.1 3.322-.238 3.887-.308l1.027-.127-1.695.813c-1.589.761-4.174 1.504-5.236 1.504-.258 0-1.001.283-1.651.63-.65.345-1.312.628-1.471.628-.159 0-.846.282-1.527.627-.681.344-1.238.624-1.238.621 0-.002-.237-.143-.525-.312Zm-4.098-1.916c-1.018-.225-1.056-.31-.307-.697 1.09-.564 2.123-.708 2.592-.363.372.274.35.316-.38.746-.76.448-1.069.499-1.905.314Z" mask="url(#c)"></path>
    </g>
    <path stroke="#999" stroke-width="1.2" d="M150.315 32.4c29.823 0 54 24.177 54 54s-24.177 54-54 54-54-24.176-54-54c0-29.823 24.177-54 54-54Z"></path>
    <path stroke="#C9C9C9" stroke-dasharray="3.56 3.56" stroke-width=".89" d="M117.384 43.534c-16.599-.02-28.74 4.462-31.883 13.21-5.693 15.847 20.302 39.69 58.061 53.255 37.759 13.564 72.983 11.714 78.676-4.134 3.397-9.454-4.485-21.754-19.414-33.02"></path>
    <path stroke="#C9C9C9" stroke-dasharray="3.56 3.56" stroke-width=".89" d="M156.462 32.516c-11.888-11.585-23.719-16.834-32.07-12.752-15.128 7.395-13.108 42.61 4.511 78.656 17.62 36.046 44.167 59.272 59.295 51.877 9.026-4.412 11.948-18.725 9.096-37.209"></path>
    <g clip-path="url(#d)">
      <path fill="#008055" d="M197.934 38.14a7.252 7.252 0 0 1 7.598 6.89l.034.706-1.414.07-.034-.708a5.836 5.836 0 0 0-6.115-5.544l-.707.035-.069-1.414.707-.035Zm-.039-5.123c6.708-.328 12.411 4.844 12.74 11.551l.034.707-1.414.069-.033-.707c-.291-5.927-5.331-10.497-11.258-10.207l-.707.035-.069-1.414.707-.034Zm1.555-5.232c8.657.521 15.742 7.374 16.41 16.168l.053.706-1.411.107-.054-.706c-.613-8.082-7.126-14.383-15.083-14.863a16.316 16.316 0 0 0-1.337-.025l-.708.015-.03-1.414.707-.016c.489-.01.973-.001 1.453.028Zm-.086 14.656 1.748 1.585-1.585 1.747-1.748-1.584z"></path>
    </g>
  </g>
  <defs>
    <clipPath id="a">
      <path fill="#fff" d="M0 0h300v160H0z"></path>
    </clipPath>
    <clipPath id="b">
      <rect width="106.8" height="106.8" x="96.915" y="33" fill="#fff" rx="53.4"></rect>
    </clipPath>
    <clipPath id="d">
      <path fill="#fff" d="m204.012 18 20.97 19.013-19.013 20.97-20.97-19.013z"></path>
    </clipPath>
  </defs>
</svg>