<svg xmlns="http://www.w3.org/2000/svg" width="300" height="160" fill="none" viewBox="0 0 300 160">
  <path stroke="#fff" stroke-opacity=".5" stroke-width=".6" d="M55 100.5 85 92l42.5 23.5 42 12 63-64"></path>
  <path fill="#333" d="m94.5 107-39-3.5L84 95l40.5 23 46 12.5 63-64.5 4.5 1.5-65 67-48.5-13-30-14.5Z"></path>
  <path stroke="#999" stroke-width="1.2" d="m84 95-28 8-1-2.5 64.5-63 26-6.5 37 19L233 63.5l1 2.5-63.5 64.5-44-12L84 95Z"></path>
  <path fill="#2D3633" d="m89 88-24 7 55.5-55.5L143 34l42.5 21.5 38 10.5-55 56-39-11L89 88Z"></path>
  <path fill="#1E2D28" d="m65 95 24-7 53.5-54-22 5.5L65 95Z"></path>
  <ellipse cx="146.5" cy="94.5" fill="#00A870" fill-opacity=".2" rx="11" ry="5.5"></ellipse>
  <path fill="#394641" fill-rule="evenodd" d="m124.162 80.283 36.728-37.991 3.765 2.08-37.617 38.69a14 14 0 0 1-17.221 2.304l-11.458-6.732 2.739-3.043 10.763 6.337a10 10 0 0 0 12.301-1.645Z" clip-rule="evenodd"></path>
  <path fill="#5A584F" fill-rule="evenodd" d="m171.497 48.017 3.766 2.033-17.721 19.092 25.204 13.008 4.553 20.706-3.422 3.489-4.623-21.496-28.212-14.561 20.455-22.271Z" clip-rule="evenodd"></path>
  <path fill="#394641" fill-rule="evenodd" d="m132.909 41.942 40.333 22.184 41.662 10.605-3.1 3.198-40.045-10.054-39.668-21.817-19.514 1.43 3.498-3.588 16.834-1.958Z" clip-rule="evenodd"></path>
  <path fill="#52583D" fill-rule="evenodd" d="M140.914 57.383c-3.352.654-7.916 2.182-14.109 4.907-10.113 4.45-16.879 5.499-21.394 4.574-2.308-.473-4.044-1.467-5.273-2.785-.638-.579-1.152-1.478-1.417-2.858l2.94-2.908c.152.786.792 2.383 1.403 3.039.6.643 1.562 1.268 3.15 1.593 3.276.671 9.094.033 18.98-4.317 6.308-2.775 11.181-4.435 14.954-5.171 3.733-.729 6.68-.612 8.898.54 2.328 1.208 3.418 3.318 3.932 5.514.499 2.13.522 4.614.522 6.948 0 4.833.332 12.693 6.394 17.28 6.051 4.58 23.658 5.428 50.327-4.292l-5.071 5.33c-26.831 9.779-39.846 8.073-47.67 2.152-7.813-5.913-7.98-15.803-7.98-20.47 0-2.416-.04-4.432-.416-6.036-.361-1.539-.958-2.398-1.881-2.877-1.032-.535-2.897-.825-6.289-.163Z" clip-rule="evenodd"></path>
  <path fill="#242424" stroke="#999" stroke-width="1.2" d="M146.5 94.538s16-14.791 16-29.067c0-9.097-7.163-16.471-16-16.471s-16 7.374-16 16.471c0 14.275 16 29.067 16 29.067Z"></path>
  <circle cx="146.5" cy="66.231" r="7.385" fill="#008055"></circle>
  <path fill="#EE385C" fill-rule="evenodd" d="M174.333 111.417c7.364 0 13.334 5.969 13.334 13.333s-5.97 13.333-13.334 13.333c-7.363 0-13.333-5.969-13.333-13.333s5.97-13.333 13.333-13.333Z" clip-rule="evenodd"></path>
  <path stroke="#fff" stroke-width="1.733" d="m169 119.417 10.667 10.666m-10.667 0 10.667-10.666"></path>
</svg>