<svg xmlns="http://www.w3.org/2000/svg" width="244" height="160" fill="none" viewBox="0 0 244 160">
  <path stroke="#008055" stroke-dasharray="2.65 2.65" stroke-width="1.2" d="m184.58 135.767-19.877-17.117m-21.534-93.313L125.5 65.644m-77.3 65.154 136.38 4.417m0 .552 24.846-68.466M40.47 57.914l80.613 35.337m22.086-67.914 66.258 42.516M40.47 57.362l8.281 74.54m-8.281-74.54 103.25-32.577m15.461 67.362 43.62-20.982M52.617 130.797l23.742-10.49"></path>
  <path fill="#242424" stroke="#999" stroke-linecap="square" stroke-width="1.2" d="M83.543 62.998h75.932v51.839H83.543z"></path>
  <path fill="#2D3633" stroke="#fff" stroke-opacity=".5" stroke-width=".6" d="M87.191 67.374h68.63v47.458h-68.63z"></path>
  <path fill="#454C4A" d="M91.036 76.493h61.244v7.266H91.036z"></path>
  <path fill="#242424" stroke="#999" stroke-linecap="square" stroke-width="1.2" d="M76.97 114.838h88.344v3.651H76.97z"></path>
  <circle cx="91.571" cy="71.761" r="1.46" fill="#FF4D62"></circle>
  <circle cx="95.954" cy="71.761" r="1.46" fill="#CCA200"></circle>
  <circle cx="100.333" cy="71.761" r="1.46" fill="#008055"></circle>
  <circle cx="121.139" cy="103.482" r="3.633" fill="#85BF00" stroke="#fff" stroke-width="1.038"></circle>
  <path stroke="#00A870" stroke-width="1.038" d="M121.138 99.33V87.91m-4.078 4.895 4.078-4.894 4.078 4.894m-8.229 10.678h-11.419m4.894 4.078-4.894-4.078 4.894-4.078m14.829 4.078h11.418m-4.893 4.078 4.893-4.078-4.893-4.078"></path>
  <circle cx="39.917" cy="56.81" r="3.865" fill="#85BF00" stroke="#0A5A5A" stroke-width="1.104"></circle>
  <circle cx="142.616" cy="24.785" r="3.865" fill="#85BF00" stroke="#0A5A5A" stroke-width="1.104"></circle>
  <circle cx="184.58" cy="135.215" r="3.865" fill="#85BF00" stroke="#0A5A5A" stroke-width="1.104"></circle>
  <circle cx="48.751" cy="130.797" r="8.834" fill="#242424" stroke="#999" stroke-linecap="square" stroke-width="1.2"></circle>
  <circle cx="48.752" cy="130.798" r="6.626" fill="#2D3633" stroke="#fff" stroke-opacity=".5" stroke-width=".6"></circle>
  <circle cx="208.874" cy="67.853" r="6.626" fill="#242424" stroke="#999" stroke-linecap="square" stroke-width="1.2"></circle>
  <circle cx="208.874" cy="67.853" r="4.417" fill="#2D3633" stroke="#fff" stroke-opacity=".5" stroke-width=".6"></circle>
</svg>