<svg xmlns="http://www.w3.org/2000/svg" width="20" height="20" fill="none" viewBox="0 0 20 20">
  <path fill="#2B2B2B" d="m17.814 11.72.587.13a.6.6 0 0 0-.768-.701l.181.572ZM11.42 2.126l.458.388a.6.6 0 0 0-.353-.978l-.105.59Zm6.214 9.024A5.398 5.398 0 0 1 16 11.4v1.2c.695 0 1.365-.107 1.996-.307l-.363-1.144ZM16 11.4A5.4 5.4 0 0 1 10.6 6H9.4a6.6 6.6 0 0 0 6.6 6.6v-1.2ZM10.6 6c0-1.33.48-2.546 1.277-3.487l-.916-.775A6.576 6.576 0 0 0 9.4 6h1.2ZM10 2.6c.448 0 .887.04 1.313.116l.211-1.181A8.648 8.648 0 0 0 10 1.4v1.2ZM2.6 10A7.4 7.4 0 0 1 10 2.6V1.4A8.6 8.6 0 0 0 1.4 10h1.2Zm7.4 7.4A7.4 7.4 0 0 1 2.6 10H1.4a8.6 8.6 0 0 0 8.6 8.6v-1.2Zm7.228-5.808A7.403 7.403 0 0 1 10 17.4v1.2a8.603 8.603 0 0 0 8.4-6.75l-1.172-.258Z"></path>
</svg>