<svg xmlns="http://www.w3.org/2000/svg" width="9" height="9" fill="none" viewBox="0 0 9 9">
  <path fill="#EE385C" fill-rule="evenodd" d="M6.974 1.67a1.395 1.395 0 0 0-1.971 0L3.774 2.9a.246.246 0 0 0 0 .349.246.246 0 0 0 .35 0L5.352 2.02a.9.9 0 0 1 1.536.636.89.89 0 0 1-.264.636L5.396 4.519a.246.246 0 0 0 .175.421.248.248 0 0 0 .175-.071L6.975 3.64a1.394 1.394 0 0 0 0-1.97ZM3.396 2.744c.136 0 .246-.11.246-.247v-.99a.246.246 0 1 0-.494 0v.991a.247.247 0 0 0 .247.246Zm2.956 3.253a.244.244 0 0 0-.174-.071.247.247 0 0 0-.175.42l.7.7a.246.246 0 0 0 .35 0 .246.246 0 0 0 0-.349l-.7-.7Zm.783-.998h-.991a.242.242 0 0 0-.174.073.246.246 0 0 0 .174.421h.99a.246.246 0 1 0 0-.494Zm-1.886.902a.246.246 0 0 0-.247.247v.99a.246.246 0 1 0 .494 0v-.991a.247.247 0 0 0-.247-.246Zm-.731-.503L3.29 6.626a.895.895 0 0 1-1.271 0 .897.897 0 0 1 0-1.271l1.228-1.229a.246.246 0 0 0 0-.349.246.246 0 0 0-.35 0L1.67 5.004a1.385 1.385 0 0 0-.409.986c0 .372.145.722.409.985a1.39 1.39 0 0 0 1.97 0l1.229-1.228a.246.246 0 0 0 0-.35.248.248 0 0 0-.35 0Zm-2.226-2.75c.05.048.111.072.175.071a.247.247 0 0 0 .175-.42l-.701-.7a.246.246 0 0 0-.35 0 .246.246 0 0 0 0 .35l.701.7Zm-.782.998h.99c.07 0 .13-.027.174-.073a.246.246 0 0 0-.173-.42h-.99a.246.246 0 0 0-.248.247.244.244 0 0 0 .247.246Z" clip-rule="evenodd"></path>
</svg>