<svg xmlns="http://www.w3.org/2000/svg" width="20" height="20" fill="none" viewBox="0 0 20 20">
  <path fill="#2B2B2B" fill-rule="evenodd" d="M1.162 8.297C1.99 4.22 5.594 1.15 9.917 1.15c4.322 0 7.927 3.07 8.754 7.147l-1.176.239A7.736 7.736 0 0 0 2.628 7.491l1.432-.477.38 1.139-2.5.833a.6.6 0 0 1-.778-.689Zm8.921-2.147a.6.6 0 0 1 .55.36l2.005 4.583.912 2.083-1.1.481-.754-1.724H8.471l-.755 1.724-1.099-.48.912-2.084L9.534 6.51a.6.6 0 0 1 .55-.36Zm1.088 4.583-1.088-2.486-1.087 2.486h2.175Zm7.5 1.136a.6.6 0 0 0-.803-.679l-2.167.833.431 1.12 1.05-.404a7.737 7.737 0 0 1-14.844-1.108l-1.176.238c.828 4.078 4.432 7.148 8.755 7.148 4.322 0 7.927-3.07 8.754-7.148Z" clip-rule="evenodd"></path>
</svg>