<svg xmlns="http://www.w3.org/2000/svg" width="16" height="16" fill="none" viewBox="0 0 16 16">
  <rect width="10.8" height="10.8" x="2.6" y="2.6" stroke="#999" rx="5.4"></rect>
  <path fill="#999" d="M8.06 10.984a2.76 2.76 0 0 1-1.105-.213 2.086 2.086 0 0 1-.806-.609 1.999 1.999 0 0 1-.399-.946l.969-.147c.083.33.252.587.508.767.258.181.555.272.891.272.2 0 .387-.031.562-.093a1.03 1.03 0 0 0 .427-.272.617.617 0 0 0 .166-.438.569.569 0 0 0-.038-.213.507.507 0 0 0-.117-.178.72.72 0 0 0-.194-.14 1.318 1.318 0 0 0-.27-.112L7.21 8.236a4.068 4.068 0 0 1-.403-.144A1.738 1.738 0 0 1 6.4 7.84a1.296 1.296 0 0 1-.314-.41 1.435 1.435 0 0 1-.12-.62c0-.36.09-.66.271-.904.184-.245.43-.429.737-.55.31-.122.654-.181 1.03-.178.383.002.724.068 1.024.197.3.127.55.312.752.554.202.243.344.537.426.88l-1.004.175a1.122 1.122 0 0 0-.67-.818 1.448 1.448 0 0 0-1.058-.031.933.933 0 0 0-.384.248.557.557 0 0 0-.143.38c0 .137.041.25.124.337a.924.924 0 0 0 .306.205c.124.05.25.09.376.124l1 .28c.137.036.29.085.461.147.17.062.335.148.492.26a1.3 1.3 0 0 1 .388.437c.103.181.155.411.155.69a1.552 1.552 0 0 1-.667 1.307 2.217 2.217 0 0 1-.701.325 3.064 3.064 0 0 1-.822.109Z"></path>
</svg>