<svg xmlns="http://www.w3.org/2000/svg" width="20" height="20" fill="none" viewBox="0 0 20 20">
  <path stroke="#00A870" stroke-linecap="square" stroke-width="1.2" d="M4 16V4.75C4 3.507 5.075 2.5 6.4 2.5H16v12H6.4c-1.89 0-2.4.257-2.4 1.5Z"></path>
  <path stroke="#00A870" stroke-linecap="square" stroke-width="1.2" d="M5.5 17.5H16v-3H5.5a1.5 1.5 0 0 0 0 3Z" clip-rule="evenodd"></path>
  <path fill="#00A870" d="M10.524 12.574h-1.25v-1.25h1.25v1.25ZM10.1 4.642a2.494 2.494 0 0 1 1.745.569 2.016 2.016 0 0 1 .652 1.574c.017.48-.127.953-.407 1.344a10.84 10.84 0 0 1-.945.86 1.93 1.93 0 0 0-.473.563c-.12.227-.181.481-.176.738v.188H9.344v-.188c-.013-.36.058-.718.208-1.046.346-.518.77-.978 1.258-1.366L11 7.67c.186-.227.291-.51.297-.804a1.27 1.27 0 0 0-.321-.903 1.256 1.256 0 0 0-.947-.331 1.234 1.234 0 0 0-1.083.472A1.863 1.863 0 0 0 8.65 7.24H7.504a2.54 2.54 0 0 1 .704-1.891 2.561 2.561 0 0 1 1.893-.706Z"></path>
</svg>