<svg xmlns="http://www.w3.org/2000/svg" width="20" height="20" fill="none" viewBox="0 0 20 20">
  <path fill="#2B2B2B" fill-rule="evenodd" d="M10.6.79v-.6H9.4v2.58h1.2V.79ZM3.487 2.638l.424.424.977.977.424.424-.848.849-.424-.425-.977-.976-.425-.425.849-.848ZM.189 9.4h2.582v1.2H.189V9.4Zm4.7 6.56.423-.424-.848-.848-.424.424-.977.977-.425.424.849.848.424-.424.977-.977Zm10.647-1.273.424.425.977.977.424.424-.848.848-.424-.424-.977-.977-.425-.424.85-.848ZM17.83 9.4h-.6v1.2h2.581V9.4H17.83Zm-.468-5.913-.424.425-.977.976-.424.425-.848-.849.424-.424.977-.977.424-.424.848.848ZM4.137 10a5.863 5.863 0 1 1 11.726 0 5.863 5.863 0 0 1-11.726 0ZM10 5.337a4.663 4.663 0 1 0 0 9.326 4.663 4.663 0 0 0 0-9.326Zm.6 12.492v-.6H9.4v2.582h1.2v-1.982Z" clip-rule="evenodd"></path>
</svg>