<svg xmlns="http://www.w3.org/2000/svg" width="20" height="20" fill="none" viewBox="0 0 20 20">
  <g clip-path="url(#a)" data-figma-skip-parse="true">
    
  </g>
  <path d="M17.292 10v.625h1.25V10h-1.25Zm.855 2.573.188-.597-1.192-.376-.188.597.596.188.596.188ZM17.917 10h.625A8.542 8.542 0 0 0 10 1.458v1.25A7.292 7.292 0 0 1 17.292 10h.625ZM10 2.083v-.625A8.542 8.542 0 0 0 1.458 10h1.25A7.292 7.292 0 0 1 10 2.708v-.625ZM2.083 10h-.625A8.542 8.542 0 0 0 10 18.542v-1.25A7.292 7.292 0 0 1 2.708 10h-.625ZM10 17.917v.625a8.545 8.545 0 0 0 8.147-5.97l-.596-.188-.596-.188A7.295 7.295 0 0 1 10 17.293v.625Z" data-figma-gradient-fill="{&#34;type&#34;:&#34;GRADIENT_ANGULAR&#34;,&#34;stops&#34;:[{&#34;color&#34;:{&#34;r&#34;:1.0,&#34;g&#34;:1.0,&#34;b&#34;:1.0,&#34;a&#34;:1.0},&#34;position&#34;:0.017963772639632225},{&#34;color&#34;:{&#34;r&#34;:1.0,&#34;g&#34;:1.0,&#34;b&#34;:1.0,&#34;a&#34;:0.039999999105930328},&#34;position&#34;:0.031290899962186813}],&#34;stopsVar&#34;:[{&#34;color&#34;:{&#34;r&#34;:1.0,&#34;g&#34;:1.0,&#34;b&#34;:1.0,&#34;a&#34;:1.0},&#34;position&#34;:0.017963772639632225},{&#34;color&#34;:{&#34;r&#34;:1.0,&#34;g&#34;:1.0,&#34;b&#34;:1.0,&#34;a&#34;:0.039999999105930328},&#34;position&#34;:0.031290899962186813}],&#34;transform&#34;:{&#34;m00&#34;:15.833333015441895,&#34;m01&#34;:0.0,&#34;m02&#34;:2.0833282470703125,&#34;m10&#34;:0.0,&#34;m11&#34;:15.833333015441895,&#34;m12&#34;:2.0833282470703125},&#34;opacity&#34;:1.0,&#34;blendMode&#34;:&#34;NORMAL&#34;,&#34;visible&#34;:true}"></path>
  <defs>
    <clipPath id="a">
      <path d="M17.292 10v.625h1.25V10h-1.25Zm.855 2.573.188-.597-1.192-.376-.188.597.596.188.596.188ZM17.917 10h.625A8.542 8.542 0 0 0 10 1.458v1.25A7.292 7.292 0 0 1 17.292 10h.625ZM10 2.083v-.625A8.542 8.542 0 0 0 1.458 10h1.25A7.292 7.292 0 0 1 10 2.708v-.625ZM2.083 10h-.625A8.542 8.542 0 0 0 10 18.542v-1.25A7.292 7.292 0 0 1 2.708 10h-.625ZM10 17.917v.625a8.545 8.545 0 0 0 8.147-5.97l-.596-.188-.596-.188A7.295 7.295 0 0 1 10 17.293v.625Z"></path>
    </clipPath>
  </defs>
</svg>