<svg xmlns="http://www.w3.org/2000/svg" width="20" height="20" fill="none" viewBox="0 0 20 20">
  <path stroke="#00A870" stroke-width="1.2" d="M10 13.333c4.602 0 8.333-1.492 8.333-3.333 0-1.841-3.73-3.333-8.333-3.333-4.602 0-8.333 1.492-8.333 3.333 0 1.84 3.73 3.333 8.333 3.333Z"></path>
  <path stroke="#00A870" stroke-width="1.2" d="M13.333 10c0 4.602-1.492 8.333-3.333 8.333-1.84 0-3.333-3.73-3.333-8.333 0-4.602 1.492-8.333 3.333-8.333 1.841 0 3.333 3.73 3.333 8.333Z"></path>
  <path stroke="#00A870" stroke-width="1.2" d="M10 18.333a8.333 8.333 0 1 0 0-16.666 8.333 8.333 0 0 0 0 16.666Z"></path>
</svg>