<svg xmlns="http://www.w3.org/2000/svg" width="20" height="20" fill="none" viewBox="0 0 20 20">
  <path fill="#999" d="m5.431 4.79-.354.354a6.922 6.922 0 0 0 0 9.81l.354.353-.706.708-.354-.352a7.922 7.922 0 0 1 0-11.228l.354-.352.706.708Zm10.197-.355a7.922 7.922 0 0 1 0 11.228l-.353.352-.706-.708.354-.352a6.922 6.922 0 0 0 0-9.81l-.354-.354.706-.708.353.352ZM7.722 6.68l-.366.342c-1.777 1.657-1.777 4.327 0 5.983l.366.341-.681.732-.367-.341c-2.201-2.052-2.201-5.395 0-7.447l.367-.341.681.731Zm5.604-.39c2.201 2.052 2.201 5.395 0 7.447l-.366.34-.682-.73.366-.342c1.777-1.656 1.777-4.326 0-5.983l-.366-.342.682-.731.366.34ZM10 7.859c1.21 0 2.196.98 2.196 2.19 0 1.211-.985 2.19-2.196 2.19a2.193 2.193 0 0 1-2.196-2.19c0-1.21.985-2.19 2.196-2.19Zm0 1c-.662 0-1.196.535-1.196 1.19 0 .656.534 1.19 1.196 1.19.661 0 1.196-.534 1.196-1.19 0-.656-.535-1.19-1.196-1.19Z"></path>
</svg>