<svg xmlns="http://www.w3.org/2000/svg" width="20" height="20" fill="none" viewBox="0 0 20 20">
  <path fill="#18B782" d="M10 10.5c1.536 0 2.854.7 3.676 1.915l-.67.705c-.66-.961-1.826-1.62-3.006-1.62-1.163 0-2.257.624-2.91 1.56l-.721-.715C7.179 11.133 8.475 10.5 10 10.5Zm0-3c2.337 0 4.437.982 5.84 2.768l-.732.713C13.883 9.45 12.004 8.5 10 8.5c-1.966 0-3.833.92-5.062 2.404l-.697-.713C5.65 8.484 7.727 7.5 10 7.5Zm0-3c3.109 0 5.979 1.344 7.956 3.65l-.697.705C15.465 6.768 12.809 5.5 10 5.5c-2.778 0-5.378 1.238-7.169 3.283l-.746-.71C4.06 5.795 6.91 4.5 10 4.5Zm.023 10.121.707-.707a.5.5 0 0 1 .707 0l.354.354-1.768 1.767-1.768-1.767.354-.354a.5.5 0 0 1 .707 0l.707.707Z"></path>
</svg>