<svg xmlns="http://www.w3.org/2000/svg" width="20" height="20" fill="none" viewBox="0 0 20 20">
  <path fill="#fff" d="M18.366 4.896 15.748 7.51l1.027 1.012-3.694 3.724-.781-.812-5.824 5.916L2 18l.567-4.375 6.014-5.914-.799-.824 3.663-3.65 1.009 1.02 2.618-2.582 3.294 3.22Z"></path>
  <path fill="#2B2B2B" d="m14.392 7.493 1.035 1.035-2.354 2.354-3.955-3.954 2.354-2.354.99.99 2.575-2.573 1.928 1.929-2.573 2.573Z"></path>
  <path fill="#2B2B2B" d="m14.392 7.493-.354-.353-.354.353.354.354.354-.354Zm1.035 1.035.353.354.354-.354-.354-.353-.353.353Zm-2.354 2.354-.354.354.354.353.353-.353-.353-.354ZM9.118 6.928l-.354-.354-.353.354.353.353.354-.353Zm2.354-2.354.354-.354-.354-.353-.354.353.354.354Zm.99.99-.353.354.354.354.353-.354-.353-.353Zm2.575-2.573.353-.354-.354-.353-.353.353.354.354Zm1.928 1.929.354.353.353-.353-.353-.354-.354.354Zm-2.573 2.573-.354.354 1.035 1.035.354-.354.353-.353-1.035-1.035-.353.353Zm1.035 1.035-.354-.353-2.354 2.354.354.353.353.354 2.354-2.354-.353-.354Zm-2.354 2.354.353-.353-3.955-3.955-.353.354-.354.353 3.955 3.955.354-.354ZM9.118 6.928l.353.353 2.354-2.354-.353-.353-.354-.354-2.354 2.354.354.354Zm2.354-2.354-.354.353.991.991.354-.353.353-.354-.99-.99-.354.353Zm.99.99.354.354 2.574-2.574-.354-.353-.353-.354-2.574 2.574.354.354Zm2.575-2.573-.354.353 1.929 1.93.353-.354.354-.354-1.929-1.929-.354.354Zm1.928 1.929-.353-.354-2.574 2.574.354.353.353.354 2.574-2.574-.354-.353Z"></path>
  <path fill="#fff" stroke="#2B2B2B" d="m9.909 7.719 2.372 2.372-6.327 6.327-2.768.396.396-2.768 6.327-6.327Z"></path>
</svg>