<svg xmlns="http://www.w3.org/2000/svg" width="20" height="20" fill="none" viewBox="0 0 20 20">
  <path fill="#999" d="m17.513 13.568-1.544 1.543 1.544 1.543-.708.707-1.543-1.543-1.543 1.543-.707-.707 1.543-1.543-1.543-1.543.707-.707 1.543 1.542 1.543-1.542.708.707Zm.656-4.481h-1.235v1.326c0 .568-.07 1.12-.2 1.647a3.36 3.36 0 0 0-.958-.296 5.9 5.9 0 0 0 .158-1.351V9.087H4.153v1.326a5.891 5.891 0 0 0 7.835 5.56c.086.33.222.64.397.921a6.891 6.891 0 0 1-9.232-6.482V9.088H1.83V4.41h16.34v4.677Zm-8.126 1.738a1.87 1.87 0 1 1 0 3.738 1.87 1.87 0 0 1 0-3.738Zm0 1a.87.87 0 1 0 .003 1.741.87.87 0 0 0-.003-1.74ZM2.83 8.087h14.34V5.41H2.83v2.677Z"></path>
</svg>