<svg xmlns="http://www.w3.org/2000/svg" width="20" height="20" fill="none" viewBox="0 0 20 20">
  <path fill="#999" d="M10 2a8 8 0 0 1 7.983 7.5H18v1h-4.507c-.05 1.922-.38 3.672-.907 4.989-.285.713-.638 1.324-1.054 1.764-.418.442-.936.747-1.531.747H10a8 8 0 0 1 0-16Zm8.854 10.928-1.8 1.8 1.8 1.8-.708.707-1.8-1.8-1.8 1.8-.707-.707 1.8-1.8-1.8-1.8.707-.708 1.8 1.8 1.801-1.8.707.708ZM7.507 10.5c.05 1.82.365 3.439.836 4.617.258.644.552 1.132.853 1.45.3.317.572.433.805.433.232 0 .505-.116.804-.433.301-.318.595-.807.853-1.45.47-1.178.786-2.797.835-4.617H7.507Zm-4.487 0a7 7 0 0 0 5.03 6.222 6.677 6.677 0 0 1-.635-1.233c-.527-1.317-.858-3.067-.908-4.99H3.02Zm5.03-7.223A7.001 7.001 0 0 0 3.02 9.5h3.487c.05-1.923.381-3.673.908-4.99.184-.46.395-.877.634-1.233ZM10 3c-.233 0-.504.116-.804.432-.301.318-.595.807-.853 1.45-.47 1.178-.786 2.797-.836 4.618h4.986c-.05-1.82-.364-3.44-.835-4.618-.258-.643-.552-1.132-.853-1.45C10.505 3.115 10.232 3 10 3Zm1.95.277c.239.357.453.773.636 1.233.527 1.317.857 3.067.907 4.99h3.487a7.001 7.001 0 0 0-5.03-6.223Z"></path>
</svg>