<svg xmlns="http://www.w3.org/2000/svg" width="20" height="20" fill="none" viewBox="0 0 20 20">
  <path fill="#636363" d="M9.452 2.397a2.697 2.697 0 0 1 2.697 2.698v2.197c1.73-.001 3.465-.007 5.198 0a.6.6 0 0 1 .593.669c-.154 1.335-.496 3.618-.797 5.558-.15.972-.291 1.862-.395 2.508l-.124.768-.034.21-.009.053-.002.015v.005a.6.6 0 0 1-.584.503c-2.913.045-5.84.007-8.74.002v.006h-5.2v-9.2H6.4l2.504-5.636.042-.077a.6.6 0 0 1 .507-.279ZM7.255 9.416v6.967c2.75.005 5.482.035 8.219.002l.088-.547c.104-.645.245-1.533.395-2.502.255-1.644.534-3.515.706-4.845-1.703-.004-3.405 0-5.113 0a.6.6 0 0 1-.6-.6V5.095a1.498 1.498 0 0 0-1.13-1.45l-2.565 5.77Zm-4 6.973h2.8v-6.8h-2.8v6.8Z"></path>
</svg>