<svg xmlns="http://www.w3.org/2000/svg" width="20" height="20" fill="none" viewBox="0 0 20 20">
  <path fill="#636363" d="M15.995 3.678a.6.6 0 0 1 .583.503v.002l.001.003.002.015.009.053.034.21.124.768c.104.646.245 1.536.395 2.508.301 1.94.643 4.223.797 5.558a.602.602 0 0 1-.593.67c-1.733.006-3.468 0-5.198 0v2.197a2.697 2.697 0 0 1-2.697 2.697.6.6 0 0 1-.507-.278l-.042-.078L6.4 12.87H2.056v-9.2h5.199v.005c2.9-.005 5.827-.042 8.74.003Zm-.521 1.197c-2.737-.034-5.469-.003-8.22.002v6.966l2.566 5.772a1.496 1.496 0 0 0 1.13-1.45v-2.797a.6.6 0 0 1 .6-.6c1.707 0 3.41.004 5.113 0-.172-1.33-.451-3.2-.706-4.845-.15-.97-.291-1.857-.395-2.502l-.088-.546ZM3.254 4.87v6.8h2.802v-6.8H3.255Z"></path>
</svg>