<svg xmlns="http://www.w3.org/2000/svg" width="600" height="121" fill="none" viewBox="0 0 600 121">
  <path fill="#fff" d="M0 0h600v121H0z"></path>
  <g clip-path="url(#a)">
    <rect width="568" height="90.746" x="16" y="15" fill="#fff" rx="6.722"></rect>
    <mask id="b" fill="#fff">
      <path d="M16 15h40.331v33.61H16V15Z"></path>
    </mask>
    <path fill="#F7F7F7" d="M16 15h40.331v33.61H16V15Z"></path>
    <path fill="#ECECEC" d="M56.331 48.61v-.84H16v1.68h40.331v-.84Z" mask="url(#b)"></path>
    <path fill="#fff" d="M29.444 25.083h13.444v13.444H29.444z"></path>
    <rect width="12.604" height="12.604" x="29.864" y="25.503" stroke="#CCC" stroke-width=".84" rx="2.101"></rect>
    <mask id="c" fill="#fff">
      <path d="M16 48.61h40.331v57.135H16V48.609Z"></path>
    </mask>
    <path fill="#ECECEC" d="M56.331 105.745v-.84H16v1.681h40.331v-.841Z" mask="url(#c)"></path>
    <path fill="#fff" d="M29.444 70.456h13.444V83.9H29.444z"></path>
    <rect width="12.604" height="12.604" x="29.864" y="70.876" stroke="#CCC" stroke-width=".84" rx="2.101"></rect>
    <mask id="d" fill="#fff">
      <path d="M56.331 15h190.734v33.61H56.331V15Z"></path>
    </mask>
    <path fill="#F7F7F7" d="M56.331 15h190.734v33.61H56.331V15Z"></path>
    <path fill="#ECECEC" d="M247.065 48.61v-.84H56.331v1.68h190.734v-.84Z" mask="url(#d)"></path>
    <path fill="#2B2B2B" d="M114.291 36.805v-8.47h2.652c.079 0 .224.002.436.006.215.004.421.02.617.047.663.082 1.22.32 1.671.712.454.392.797.89 1.029 1.494.231.6.347 1.258.347 1.976a5.52 5.52 0 0 1-.347 1.988 3.683 3.683 0 0 1-1.029 1.488c-.451.388-1.008.623-1.671.706a5.133 5.133 0 0 1-.617.047 28.6 28.6 0 0 1-.436.006h-2.652Zm1.258-1.17h1.394c.134 0 .292-.005.477-.012a3.97 3.97 0 0 0 .488-.048c.431-.082.78-.268 1.047-.558a2.7 2.7 0 0 0 .594-1.083c.125-.427.188-.882.188-1.364a4.72 4.72 0 0 0-.194-1.382 2.636 2.636 0 0 0-.6-1.07 1.811 1.811 0 0 0-1.035-.554 2.928 2.928 0 0 0-.494-.047 11.376 11.376 0 0 0-.471-.011h-1.394v6.128Zm6.863 1.17v-8.47h5.412v1.159h-4.182v2.376h3.476v1.159h-3.476v2.617h4.182v1.159h-5.412Zm8.812 0-2.753-8.47h1.277l2.347 7.229 2.376-7.229h1.276l-2.753 8.47h-1.77Zm5.528 0v-8.47h1.229v8.47h-1.229Zm6.53.176c-.847 0-1.568-.184-2.164-.553a3.646 3.646 0 0 1-1.371-1.552c-.313-.663-.47-1.432-.47-2.306 0-.875.157-1.643.47-2.306a3.608 3.608 0 0 1 1.371-1.547c.596-.372 1.317-.558 2.164-.558.976 0 1.784.247 2.423.74.643.495 1.09 1.16 1.341 1.995l-1.247.335c-.164-.592-.458-1.057-.882-1.394-.419-.337-.964-.506-1.635-.506-.6 0-1.1.135-1.5.406-.4.27-.702.649-.905 1.135-.2.486-.3 1.053-.3 1.7-.004.647.094 1.213.294 1.7.204.486.505.864.905 1.135.404.27.906.406 1.506.406.671 0 1.216-.169 1.635-.506.424-.341.718-.806.882-1.394l1.247.335c-.251.835-.698 1.5-1.341 1.994-.639.494-1.447.741-2.423.741Zm5.058-.176v-8.47h5.411v1.159h-4.182v2.376h3.476v1.159h-3.476v2.617h4.182v1.159h-5.411Zm9.179 0v-8.47h1.247l4.17 6.294v-6.294h1.247v8.47h-1.247l-4.17-6.3v6.3h-1.247Zm7.717 0 2.753-8.47h1.77l2.753 8.47h-1.277l-2.535-7.729h.318l-2.506 7.729h-1.276Zm1.429-1.912V33.74h4.423v1.153h-4.423Zm6.902 1.912v-8.47h1.111l3.071 6.37 3.052-6.37h1.124V36.8h-1.165v-5.794l-2.735 5.8h-.559l-2.741-5.8v5.8h-1.158Zm10.006 0v-8.47h5.411v1.159h-4.182v2.376h3.476v1.159h-3.476v2.617h4.182v1.159h-5.411Z"></path>
    <g opacity=".01">
      <path fill="#00A870" fill-rule="evenodd" d="M209.372 30.544h-7.562l3.781-5.041 3.781 5.041Z" clip-rule="evenodd"></path>
      <path fill="#CCC" fill-rule="evenodd" d="M209.372 33.065h-7.562l3.781 5.041 3.781-5.041Z" clip-rule="evenodd"></path>
    </g>
    <mask id="e" fill="#fff">
      <path d="M56.331 48.61h190.734v57.135H56.331V48.609Z"></path>
    </mask>
    <path fill="#ECECEC" d="M247.065 105.745v-.84H56.331v1.681h190.734v-.841Z" mask="url(#e)"></path>
    <path fill="url(#f)" d="M70.531 62.809h28.736v28.736H70.531z"></path>
    <path fill="#2B2B2B" d="M117.72 82.354c-.843 0-1.555-.186-2.135-.559a3.539 3.539 0 0 1-1.318-1.558c-.298-.663-.447-1.428-.447-2.294 0-.867.149-1.632.447-2.294a3.502 3.502 0 0 1 1.318-1.553c.58-.376 1.292-.565 2.135-.565.847 0 1.558.189 2.135.565.58.373 1.019.89 1.317 1.553.302.662.453 1.427.453 2.294 0 .866-.151 1.63-.453 2.294a3.543 3.543 0 0 1-1.317 1.558c-.577.373-1.288.559-2.135.559Zm0-.83c.662 0 1.215-.15 1.658-.452.443-.302.775-.722.994-1.259.224-.541.336-1.165.336-1.87 0-.706-.112-1.328-.336-1.865a2.726 2.726 0 0 0-.994-1.258c-.443-.302-.996-.455-1.658-.46-.663 0-1.214.152-1.653.454-.439.302-.771.723-.994 1.264-.22.537-.331 1.159-.335 1.865-.004.706.104 1.327.323 1.864a2.81 2.81 0 0 0 1 1.259c.443.302.996.455 1.659.459Zm8.024.83a4.158 4.158 0 0 1-1.6-.294c-.47-.2-.861-.482-1.17-.847a2.779 2.779 0 0 1-.6-1.3l.882-.147c.141.549.439.98.894 1.294.455.31.998.465 1.629.465a3.04 3.04 0 0 0 1.118-.195c.329-.133.588-.321.776-.564.188-.243.282-.531.282-.865 0-.22-.039-.405-.117-.558a1.141 1.141 0 0 0-.312-.389 1.935 1.935 0 0 0-.423-.253 3.355 3.355 0 0 0-.447-.17l-2.147-.641a3.91 3.91 0 0 1-.718-.283 2.52 2.52 0 0 1-.576-.417 1.8 1.8 0 0 1-.377-.577 1.97 1.97 0 0 1-.135-.752c0-.479.126-.892.376-1.241a2.418 2.418 0 0 1 1.03-.806c.435-.188.931-.28 1.488-.277.564 0 1.068.1 1.511.3.447.2.816.486 1.106.859.29.369.482.806.577 1.312l-.906.164a2.05 2.05 0 0 0-.406-.958 2.07 2.07 0 0 0-.812-.624 2.616 2.616 0 0 0-1.076-.23c-.38 0-.72.066-1.018.195a1.737 1.737 0 0 0-.7.517 1.19 1.19 0 0 0-.258.753c0 .287.078.516.235.688.161.173.357.308.588.406.235.098.463.179.682.241l1.659.489c.173.047.375.115.606.206.235.086.463.211.682.376.224.16.408.372.553.635.145.263.218.596.218 1 0 .392-.079.743-.236 1.053-.153.31-.37.57-.653.782a2.976 2.976 0 0 1-.982.482 4.17 4.17 0 0 1-1.223.17Zm5.895-.177-2.446-8.47h.9l1.982 6.994 1.97-6.987.906-.006 1.982 6.993 1.97-6.993h.906l-2.441 8.47h-.87l-2-6.947-1.988 6.947h-.871Zm8.542-3.334V78.1h3.529v.742h-3.529Zm7.639 3.51c-.529 0-.998-.105-1.405-.317a2.39 2.39 0 0 1-.953-.888c-.228-.384-.341-.833-.341-1.347 0-.525.127-.992.382-1.4.255-.411.643-.723 1.165-.935l-.012.341a1.91 1.91 0 0 1-.994-.788 2.24 2.24 0 0 1-.341-1.211c0-.47.108-.875.323-1.212.216-.341.51-.604.882-.788a2.909 2.909 0 0 1 1.294-.277c.487 0 .918.093 1.294.277.377.184.673.447.888.788.216.337.324.741.324 1.212 0 .443-.11.845-.329 1.205-.216.361-.547.626-.994.794l-.03-.34c.522.207.912.517 1.171.929.262.411.394.88.394 1.405 0 .514-.116.963-.347 1.347-.232.38-.551.677-.959.888-.408.212-.878.318-1.412.318Zm0-.828c.534 0 .967-.147 1.3-.442.334-.297.5-.725.5-1.282 0-.564-.165-.992-.494-1.282-.329-.294-.765-.441-1.306-.441s-.974.147-1.299.441c-.326.29-.489.718-.489 1.282 0 .557.165.984.494 1.282.33.295.761.442 1.294.442Zm0-4.282c.471 0 .853-.12 1.147-.359.294-.243.441-.602.441-1.076 0-.475-.147-.83-.441-1.065-.294-.24-.676-.359-1.147-.359-.47 0-.852.12-1.147.36-.29.234-.435.59-.435 1.064 0 .474.145.833.435 1.076.295.24.677.359 1.147.359Zm7.636 5.11a4.006 4.006 0 0 1-1.612-.31 3.417 3.417 0 0 1-1.223-.889 3.965 3.965 0 0 1-.765-1.388 5.913 5.913 0 0 1-.265-1.823c0-.886.153-1.659.459-2.318.31-.662.753-1.176 1.329-1.54.577-.365 1.269-.548 2.077-.548.902 0 1.635.212 2.199.636.569.42.965.984 1.189 1.694l-.871.211a2.557 2.557 0 0 0-.912-1.24c-.419-.31-.943-.465-1.57-.465-.663-.004-1.214.145-1.653.447-.439.298-.77.717-.994 1.258-.219.537-.331 1.159-.335 1.865-.004.706.104 1.327.323 1.864a2.81 2.81 0 0 0 1 1.259c.443.302.996.455 1.659.459.608 0 1.11-.118 1.506-.353.396-.236.696-.573.9-1.012.207-.44.325-.959.352-1.559h-1.952v-.74h2.858c.012.09.018.186.018.288.004.098.006.168.006.211 0 .765-.137 1.45-.412 2.053a3.239 3.239 0 0 1-1.241 1.423c-.549.345-1.239.518-2.07.518Zm4.782-3.51V78.1h3.529v.742h-3.529Zm7.922 3.51a2.811 2.811 0 0 1-1.447-.381 2.946 2.946 0 0 1-1.035-1.047 2.94 2.94 0 0 1-.382-1.494v-2.935c0-.569.127-1.075.382-1.518a2.798 2.798 0 0 1 1.041-1.052 2.93 2.93 0 0 1 1.506-.389c.482 0 .929.106 1.341.318.415.212.755.508 1.017.888l-.664.547a2.02 2.02 0 0 0-.718-.676 1.947 1.947 0 0 0-.976-.253 1.97 1.97 0 0 0-1.059.288c-.31.192-.553.445-.729.759-.177.31-.265.647-.265 1.011v1.847l-.218-.247c.247-.388.571-.702.971-.94a2.54 2.54 0 0 1 1.317-.36 2.768 2.768 0 0 1 2.788 2.806c0 .521-.131.996-.394 1.423a2.928 2.928 0 0 1-1.041 1.024 2.765 2.765 0 0 1-1.435.382Zm0-.84c.369 0 .704-.088 1.006-.265.306-.176.547-.415.723-.717a1.92 1.92 0 0 0 .271-1.006c0-.369-.09-.704-.271-1.006a1.949 1.949 0 0 0-.717-.723 1.924 1.924 0 0 0-1.006-.27 1.995 1.995 0 0 0-1.729.994 1.952 1.952 0 0 0-.265 1.005c0 .364.088.698.265 1a1.957 1.957 0 0 0 1.723.988Zm7.195.84c-.522 0-.992-.12-1.412-.364a2.71 2.71 0 0 1-1.353-2.4v-3.293a2.734 2.734 0 0 1 1.353-2.4c.42-.243.89-.365 1.412-.365.521 0 .99.122 1.405.365a2.724 2.724 0 0 1 1.359 2.4v3.294a2.696 2.696 0 0 1-1.359 2.4 2.73 2.73 0 0 1-1.405.364Zm0-.834c.349 0 .666-.085.953-.253.286-.173.513-.402.682-.688a1.84 1.84 0 0 0 .253-.947v-3.376c0-.35-.085-.667-.253-.953a1.9 1.9 0 0 0-.682-.682 1.812 1.812 0 0 0-.953-.26 1.81 1.81 0 0 0-.953.26 1.893 1.893 0 0 0-.682.682 1.84 1.84 0 0 0-.253.953v3.376c0 .345.084.66.253.947.168.286.396.515.682.688.286.168.604.253.953.253Zm6.233.658-2.447-8.47h.9l1.982 6.994 1.97-6.987.906-.006 1.982 6.993 1.97-6.993h.906l-2.441 8.47h-.87l-2-6.947-1.988 6.947h-.87Z"></path>
    <mask id="g" fill="#fff">
      <path d="M247.065 15H584v33.61H247.065V15Z"></path>
    </mask>
    <path fill="#F7F7F7" d="M247.065 15H584v33.61H247.065V15Z"></path>
    <path fill="#ECECEC" d="M584 48.61v-.84H247.065v1.68H584v-.84Z" mask="url(#g)"></path>
    <path fill="#2B2B2B" d="M261.332 36.805v-8.47h3.423c.083 0 .185.004.306.012.122.004.237.015.347.035.471.075.863.235 1.177.482.317.247.554.56.711.936.157.376.235.792.235 1.247 0 .458-.078.876-.235 1.252a2.275 2.275 0 0 1-.711.935c-.314.248-.706.408-1.177.483-.11.016-.227.027-.353.035a4.838 4.838 0 0 1-.3.012h-2.194v3.04h-1.229Zm1.229-4.206h2.147c.079 0 .165-.004.259-.011.098-.008.19-.022.277-.042a1.21 1.21 0 0 0 .605-.323 1.43 1.43 0 0 0 .33-.553c.066-.208.1-.416.1-.623 0-.208-.034-.414-.1-.618a1.38 1.38 0 0 0-.33-.547 1.187 1.187 0 0 0-.605-.33 1.522 1.522 0 0 0-.277-.046 3.103 3.103 0 0 0-.259-.012h-2.147v3.105Zm9.681 4.382c-.847 0-1.568-.184-2.164-.553a3.646 3.646 0 0 1-1.371-1.552c-.313-.663-.47-1.432-.47-2.306 0-.875.157-1.643.47-2.306a3.608 3.608 0 0 1 1.371-1.547c.596-.372 1.317-.558 2.164-.558.843 0 1.563.186 2.159.558.6.369 1.056.885 1.37 1.547.314.663.471 1.431.471 2.306 0 .874-.157 1.643-.471 2.306a3.593 3.593 0 0 1-1.37 1.552c-.596.369-1.316.553-2.159.553Zm0-1.17c.6.008 1.098-.124 1.494-.394.4-.275.7-.655.9-1.141.2-.49.3-1.06.3-1.706 0-.647-.1-1.212-.3-1.694a2.46 2.46 0 0 0-.9-1.135c-.396-.27-.894-.408-1.494-.412-.6-.008-1.1.124-1.5.394-.396.27-.694.651-.894 1.141-.2.49-.302 1.059-.306 1.706-.003.647.095 1.213.295 1.7.2.482.499.858.899 1.129.404.27.906.408 1.506.412Zm5.173.994v-8.47h3.423c.082 0 .184.004.306.012.121.004.237.015.347.035.47.075.863.235 1.176.482.318.247.555.56.712.936.157.376.235.792.235 1.247 0 .674-.172 1.256-.517 1.746-.345.487-.863.79-1.553.912l-.5.059h-2.4v3.04h-1.229Zm4.952 0-1.67-3.447 1.241-.318 1.835 3.765h-1.406Zm-3.723-4.206h2.147c.078 0 .165-.004.259-.011.098-.008.19-.022.276-.042a1.2 1.2 0 0 0 .606-.323c.153-.16.263-.345.329-.553a1.966 1.966 0 0 0 0-1.241 1.366 1.366 0 0 0-.329-.547 1.186 1.186 0 0 0-.606-.33 1.496 1.496 0 0 0-.276-.046 3.122 3.122 0 0 0-.259-.012h-2.147v3.105Zm8.533 4.206v-7.311h-2.817v-1.159h6.864v1.159h-2.818v7.31h-1.229Zm8.058.176a4.18 4.18 0 0 1-1.647-.312 3.153 3.153 0 0 1-1.205-.9 3.021 3.021 0 0 1-.612-1.393l1.282-.194c.129.517.4.92.812 1.211.411.286.892.43 1.441.43.341 0 .655-.053.941-.16a1.69 1.69 0 0 0 .688-.464 1.08 1.08 0 0 0 .265-.73.948.948 0 0 0-.3-.711 1.168 1.168 0 0 0-.336-.23 2.49 2.49 0 0 0-.429-.17l-2.17-.641a5.191 5.191 0 0 1-.647-.241 2.54 2.54 0 0 1-.606-.394 1.943 1.943 0 0 1-.441-.606c-.114-.243-.171-.537-.171-.882 0-.522.134-.963.4-1.324a2.48 2.48 0 0 1 1.094-.823 4.027 4.027 0 0 1 1.541-.282c.573.007 1.084.11 1.535.305.455.196.832.479 1.13.847.302.365.509.808.623 1.33l-1.317.223a1.734 1.734 0 0 0-.377-.818 1.88 1.88 0 0 0-.706-.529 2.241 2.241 0 0 0-.905-.194 2.217 2.217 0 0 0-.865.141 1.532 1.532 0 0 0-.623.43.967.967 0 0 0-.23.635c0 .235.069.425.206.57.137.145.306.261.506.347.204.083.406.151.606.206l1.564.441c.196.055.418.13.665.224.251.09.492.218.723.382.235.165.43.384.582.659.153.27.23.612.23 1.023 0 .428-.086.804-.259 1.13-.172.321-.41.592-.712.811a3.238 3.238 0 0 1-1.035.488c-.392.11-.806.165-1.241.165Z"></path>
    <g opacity=".01">
      <path fill="#00A870" fill-rule="evenodd" d="M318.414 30.544h-7.562l3.781-5.041 3.781 5.041Z" clip-rule="evenodd"></path>
      <path fill="#CCC" fill-rule="evenodd" d="M318.414 33.065h-7.562l3.781 5.041 3.781-5.041Z" clip-rule="evenodd"></path>
    </g>
    <mask id="h" fill="#fff">
      <path d="M247.065 48.61H584v57.135H247.065V48.609Z"></path>
    </mask>
    <path fill="#ECECEC" d="M584 105.745v-.84H247.065v1.681H584v-.841Z" mask="url(#h)"></path>
    <path fill="#999" d="M271.438 68.074v-5.361l-1.139.685v-.693l1.139-.681h.626v6.05h-.626Z"></path>
    <rect width="21.846" height="21.846" x="260.509" y="73.435" fill="#00A870" rx="3.361"></rect>
    <path stroke="#fff" stroke-width=".84" d="m266.391 84.68 3.361 3.879 6.721-8.403"></path>
    <path fill="#999" d="m299.705 68.07.004-.563 2.735-2.47c.235-.214.39-.415.466-.606.078-.193.118-.395.118-.605a1.315 1.315 0 0 0-.652-1.155 1.261 1.261 0 0 0-.668-.18c-.257 0-.487.061-.688.184a1.368 1.368 0 0 0-.479.488 1.275 1.275 0 0 0-.168.66h-.631c0-.368.087-.697.261-.988.173-.291.409-.52.706-.685a2.008 2.008 0 0 1 1.008-.252c.367 0 .696.087.987.26.294.171.525.404.693.698.171.291.257.616.257.974 0 .253-.031.475-.093.669-.059.19-.152.368-.281.533a3.79 3.79 0 0 1-.483.504l-2.429 2.193-.096-.252h3.382v.593h-3.949Z"></path>
    <rect width="21.846" height="21.846" x="290.757" y="73.435" fill="#CCC" rx="3.361"></rect>
    <path fill="#999" d="M331.821 68.196c-.3 0-.576-.054-.828-.16a1.87 1.87 0 0 1-.651-.454 1.828 1.828 0 0 1-.399-.71l.588-.176c.101.3.266.526.496.68.232.154.494.229.785.223.269-.006.5-.066.694-.18.196-.115.346-.275.449-.48a1.54 1.54 0 0 0 .156-.71c0-.411-.121-.742-.362-.991-.238-.252-.553-.378-.945-.378-.109 0-.224.015-.344.046a1.457 1.457 0 0 0-.337.122l-.31-.492 2.352-2.172.101.252h-3.084v-.592h3.496v.6l-2.05 1.958-.009-.243c.42-.053.79-.006 1.109.143.32.148.569.375.748.68.182.303.273.658.273 1.067 0 .387-.084.729-.252 1.025a1.803 1.803 0 0 1-.685.694 1.97 1.97 0 0 1-.991.248Z"></path>
    <rect width="21.846" height="21.846" x="321.006" y="73.435" fill="#CCC" rx="3.361"></rect>
    <path fill="#999" d="M362.126 68.2c-.313 0-.603-.065-.869-.194a2.015 2.015 0 0 1-.681-.533 2.085 2.085 0 0 1-.403-.781l.592-.16c.053.218.15.407.29.567.14.157.304.279.492.366.19.086.389.13.596.13.269 0 .51-.065.723-.194.216-.131.386-.305.512-.52.126-.216.189-.453.189-.71 0-.267-.065-.506-.197-.719a1.473 1.473 0 0 0-.521-.512 1.376 1.376 0 0 0-.706-.19c-.285 0-.532.064-.739.19a1.498 1.498 0 0 0-.496.466l-.563-.235.185-3.147h3.231v.592h-2.958l.307-.29-.164 2.685-.156-.206a1.83 1.83 0 0 1 .631-.466c.246-.112.505-.168.777-.168a1.968 1.968 0 0 1 1.722.987c.177.303.265.64.265 1.013 0 .37-.094.708-.281 1.016-.188.306-.437.55-.748.736a1.978 1.978 0 0 1-1.03.277Z"></path>
    <rect width="21.846" height="21.846" x="351.254" y="73.435" fill="#00A870" rx="3.361"></rect>
    <rect width="21.846" height="21.846" x="351.254" y="73.435" stroke="#fff" stroke-width=".84" rx="3.361"></rect>
    <path stroke="#fff" stroke-width=".84" d="m357.136 84.68 3.361 3.879 6.722-8.403"></path>
    <path fill="#999" d="M393.2 68.074v-1.172h-2.832v-.589l2.025-4.289h.693l-2.025 4.29h2.139v-1.765h.621v1.764h.66v.589h-.66v1.172h-.621Z"></path>
    <rect width="21.846" height="21.846" x="381.503" y="73.435" fill="#CCC" rx="3.361"></rect>
    <path fill="#999" d="M422.703 68.2a2.007 2.007 0 0 1-1.772-1.021 2.102 2.102 0 0 1-.274-1.067v-2.097c0-.406.092-.767.274-1.084.182-.319.429-.57.743-.752a2.094 2.094 0 0 1 1.076-.277c.344 0 .663.076.958.227.296.151.539.363.726.634l-.474.391a1.44 1.44 0 0 0-1.21-.664 1.41 1.41 0 0 0-.757.206 1.486 1.486 0 0 0-.52.542c-.127.221-.19.462-.19.723v1.319l-.155-.177a2.07 2.07 0 0 1 .693-.672c.289-.17.602-.256.941-.256a1.975 1.975 0 0 1 1.992 2.004 1.9 1.9 0 0 1-.282 1.017 2.096 2.096 0 0 1-.743.73c-.309.183-.65.274-1.026.274Zm0-.601c.264 0 .503-.063.719-.19a1.4 1.4 0 0 0 .517-.512 1.38 1.38 0 0 0 .193-.718 1.38 1.38 0 0 0-.193-.718 1.395 1.395 0 0 0-.513-.517 1.375 1.375 0 0 0-.718-.193 1.425 1.425 0 0 0-1.235 2.143 1.397 1.397 0 0 0 1.23.706Z"></path>
    <rect width="21.846" height="21.846" x="411.751" y="73.435" fill="#CCC" rx="3.361"></rect>
    <path fill="#999" d="m451.726 68.074 2.227-5.45h-2.803v-.6h3.462v.6l-2.222 5.45h-.664Z"></path>
    <rect width="21.846" height="21.846" x="442" y="73.435" fill="#CCC" rx="3.361"></rect>
    <path fill="#999" d="M483.167 68.2a2.15 2.15 0 0 1-1.004-.227 1.717 1.717 0 0 1-.681-.635 1.857 1.857 0 0 1-.243-.962c0-.375.091-.708.273-1 .182-.294.459-.516.832-.667l-.009.243a1.366 1.366 0 0 1-.71-.563 1.606 1.606 0 0 1-.243-.865c0-.336.077-.625.231-.866.154-.243.364-.43.63-.563.269-.131.577-.197.924-.197.347 0 .655.066.924.197.269.132.481.32.635.563.154.241.231.53.231.866 0 .316-.079.603-.235.861a1.351 1.351 0 0 1-.71.567l-.021-.243c.372.148.651.37.836.663.187.294.281.63.281 1.004 0 .367-.083.688-.248.962a1.696 1.696 0 0 1-.685.635 2.155 2.155 0 0 1-1.008.227Zm0-.593c.381 0 .69-.105.929-.315.238-.213.357-.518.357-.916 0-.403-.118-.708-.353-.915-.236-.21-.546-.316-.933-.316-.386 0-.696.106-.928.316-.233.207-.349.512-.349.915 0 .398.118.703.353.916.235.21.543.315.924.315Zm0-3.058c.336 0 .609-.086.819-.256.21-.174.315-.43.315-.77 0-.338-.105-.592-.315-.76-.21-.17-.483-.256-.819-.256-.336 0-.609.086-.819.256-.207.169-.311.422-.311.76 0 .34.104.596.311.77.21.17.483.256.819.256Z"></path>
    <rect width="21.846" height="21.846" x="472.249" y="73.435" fill="#CCC" rx="3.361"></rect>
    <path fill="#999" d="M513.394 61.902c.381 0 .726.093 1.034.277.311.182.557.432.739.748.182.314.273.667.273 1.059v2.1c0 .404-.091.765-.273 1.085a2.02 2.02 0 0 1-.747.756 2.098 2.098 0 0 1-1.072.273c-.344 0-.664-.076-.958-.227a2.041 2.041 0 0 1-.722-.635l.47-.39a1.453 1.453 0 0 0 1.21.66c.286 0 .538-.068.756-.202a1.49 1.49 0 0 0 .715-1.265v-1.319l.151.177a2.025 2.025 0 0 1-.693.672c-.286.17-.6.256-.941.256-.373 0-.71-.09-1.013-.269a2 2 0 0 1-.714-.723 1.993 1.993 0 0 1-.261-1.012c0-.373.093-.711.278-1.017a2.04 2.04 0 0 1 .743-.73 1.993 1.993 0 0 1 1.025-.274Zm0 .597a1.437 1.437 0 0 0-1.235.706 1.398 1.398 0 0 0-.189.718c0 .263.063.503.189.718a1.398 1.398 0 0 0 1.231.706 1.4 1.4 0 0 0 .719-.189 1.43 1.43 0 0 0 .004-2.466 1.376 1.376 0 0 0-.719-.193Z"></path>
    <rect width="21.846" height="21.846" x="502.497" y="73.435" fill="#CCC" rx="3.361"></rect>
    <path fill="#999" d="M541.11 68.074v-5.361l-1.138.685v-.693l1.138-.681h.626v6.05h-.626Zm4.194.126c-.372 0-.708-.087-1.008-.26a1.94 1.94 0 0 1-.706-.706 1.97 1.97 0 0 1-.26-1.009v-2.352a1.947 1.947 0 0 1 .966-1.715c.3-.173.636-.26 1.008-.26a1.95 1.95 0 0 1 1.714.97c.174.297.261.632.261 1.005v2.352c0 .373-.087.709-.261 1.009a1.95 1.95 0 0 1-1.714.966Zm0-.597a1.323 1.323 0 0 0 1.168-.672c.121-.204.181-.43.181-.676v-2.412c0-.25-.06-.476-.181-.68a1.354 1.354 0 0 0-1.848-.488c-.205.12-.367.283-.488.488a1.32 1.32 0 0 0-.18.68v2.412c0 .246.06.472.18.676.121.204.283.368.488.492.204.12.431.18.68.18Z"></path>
    <rect width="21.846" height="21.846" x="532.746" y="73.435" fill="#CCC" rx="3.361"></rect>
  </g>
  <rect width="567.16" height="89.905" x="16.42" y="15.42" stroke="#ECECEC" stroke-width=".84" rx="6.302"></rect>
  <defs>
    <clipPath id="a">
      <rect width="568" height="90.746" x="16" y="15" fill="#fff" rx="6.722"></rect>
    </clipPath>
    <pattern id="f" width="1" height="1" patternContentUnits="objectBoundingBox">
      <use href="#i" transform="scale(.00294)"></use>
    </pattern>
    <image id="i" width="340" height="340" preserveAspectRatio="none"></image>
  </defs>
</svg>