<svg xmlns="http://www.w3.org/2000/svg" width="200" height="160" fill="none" viewBox="0 0 200 160">
  <path fill="#fff" stroke="#0A5A5A" stroke-linecap="square" stroke-width="1.2" d="M121.829 37.969H185v31.585h-63.171V37.97Z"></path>
  <path fill="#fff" stroke="#636363" stroke-linecap="square" stroke-width=".637" d="M123.85 39.95h59.297v27.479H123.85v-27.48Z"></path>
  <path fill="#DDE9E5" d="M133.2 44.286h40.43v2.527H133.2zm0 7.58h24.005v2.527H133.2zm0 7.581h24.005v2.527H133.2z"></path>
  <circle cx="97.123" cy="80.925" r="41.693" fill="#fff" stroke="#0A5A5A" stroke-linecap="square" stroke-width="1.2"></circle>
  <circle cx="97.123" cy="80.925" r="38.346" fill="#E3F1EC" stroke="#999" stroke-width=".637"></circle>
  <path stroke="#00A870" stroke-width="2.125" d="M46.585 72.081c0-23.026 18.667-41.693 41.693-41.693M147.66 89.77c0 23.026-18.666 41.692-41.693 41.692"></path>
  <path fill="#fff" stroke="#0A5A5A" stroke-linecap="square" stroke-width="1.2" d="M15 93.56h63.171v31.585H15V93.56Z"></path>
  <path fill="#fff" stroke="#636363" stroke-linecap="square" stroke-width=".637" d="M17.022 95.743h59.297v27.277H17.022V95.743Z"></path>
  <path fill="#DDE9E5" d="M26.371 99.876h40.43v2.527h-40.43zm0 7.581h24.005v2.527H26.371zm0 7.581h24.005v2.527H26.371z"></path>
  <mask id="a" width="44" height="35" x="75.171" y="61.501" fill="#000" maskUnits="userSpaceOnUse">
    <path fill="#fff" d="M75.171 61.501h44v35h-44z"></path>
    <path fill-rule="evenodd" d="M86.57 73.528c.794-5.113 5.217-9.028 10.553-9.028 5.337 0 9.759 3.915 10.553 9.029 4.766.795 8.398 4.938 8.398 9.93 0 5.56-4.507 10.068-10.068 10.068H88.239c-5.56 0-10.068-4.508-10.068-10.068 0-4.992 3.633-9.135 8.4-9.93Z" clip-rule="evenodd"></path>
  </mask>
  <path fill="#0069CB" fill-rule="evenodd" d="M86.57 73.528c.794-5.113 5.217-9.028 10.553-9.028 5.337 0 9.759 3.915 10.553 9.029 4.766.795 8.398 4.938 8.398 9.93 0 5.56-4.507 10.068-10.068 10.068H88.239c-5.56 0-10.068-4.508-10.068-10.068 0-4.992 3.633-9.135 8.4-9.93Z" clip-rule="evenodd"></path>
  <path fill="#fff" d="m86.57 73.528.366 2.19 1.582-.264.246-1.585-2.194-.34Zm21.106 0-2.194.341.246 1.585 1.582.264.366-2.19Zm-21.106 0 2.194.341a8.463 8.463 0 0 1 8.36-7.149v-4.439c-6.448 0-11.788 4.728-12.747 10.907l2.194.34ZM97.123 64.5v2.22c4.225 0 7.731 3.1 8.359 7.149l2.194-.34 2.193-.34c-.959-6.18-6.298-10.908-12.746-10.908v2.22Zm10.553 9.029-.366 2.189a7.851 7.851 0 0 1 6.545 7.74h4.439c0-6.093-4.435-11.148-10.253-12.119l-.365 2.19Zm8.398 9.93h-2.219a7.849 7.849 0 0 1-7.849 7.848v4.44c6.786 0 12.288-5.502 12.288-12.288h-2.22Zm-10.068 10.068v-2.22H88.239v4.44h17.767v-2.22Zm-17.767 0v-2.22a7.848 7.848 0 0 1-7.848-7.848h-4.44c0 6.786 5.502 12.287 12.288 12.287v-2.22ZM78.171 83.459h2.22a7.851 7.851 0 0 1 6.545-7.741l-.366-2.19-.365-2.189c-5.818.97-10.253 6.025-10.253 12.12h2.22Z" mask="url(#a)"></path>
  <path fill="#00A870" d="m88.279 21.544 12.002 8.212-12.002 8.212V21.544Zm18.32 101.075-12.003 8.212 12.003 8.212v-16.424Z"></path>
  <path fill="#fff" d="M96.4 78.86h2.708v8.844H96.4V78.86Z"></path>
  <path fill="#fff" d="m92.07 80.391 5.685-8.31 5.685 8.31H92.07Z"></path>
</svg>