<svg xmlns="http://www.w3.org/2000/svg" width="360" height="140" fill="none" viewBox="0 0 360 140">
  <rect width="360" height="140" fill="#F7F7F7" rx="8"></rect>
  <path stroke="#CCC" d="M60 63h240"></path>
  <g clip-path="url(#a)">
    <path fill="url(#b)" d="M34.065 36.665h51.87v51.87h-51.87z"></path>
  </g>
  <rect width="3.6" height="3.6" x="30.8" y="88.6" fill="#00A870" rx="1.8"></rect>
  <path fill="#2B2B2B" d="M38.65 93.4v-5.184h1.6c.052 0 .145.001.276.004.132.002.258.011.378.028.401.053.736.2 1.005.44.271.237.475.54.612.907s.205.771.205 1.213c0 .441-.068.846-.205 1.213-.137.367-.34.67-.612.91a1.839 1.839 0 0 1-1.005.437 4.58 4.58 0 0 1-.381.028c-.132.003-.223.004-.274.004h-1.598Zm.66-.612h.94c.09 0 .193-.002.305-.007a2.84 2.84 0 0 0 .295-.033c.284-.053.513-.171.688-.356.175-.185.304-.415.385-.691.082-.276.123-.574.123-.893 0-.327-.042-.628-.126-.904a1.647 1.647 0 0 0-.386-.687 1.217 1.217 0 0 0-.684-.35 1.96 1.96 0 0 0-.298-.032 7.378 7.378 0 0 0-.303-.007h-.94v3.96Zm5.926.72c-.381 0-.715-.084-1-.252a1.765 1.765 0 0 1-.663-.71 2.28 2.28 0 0 1-.237-1.065c0-.425.078-.792.234-1.102.156-.312.373-.552.651-.72.281-.17.61-.255.987-.255.39 0 .723.09.997.27.276.18.482.437.62.77.138.334.198.731.18 1.192h-.649v-.23c-.007-.478-.104-.835-.291-1.07-.188-.237-.466-.356-.836-.356-.396 0-.697.127-.903.382-.207.254-.31.619-.31 1.094 0 .458.103.813.31 1.066.206.251.5.377.882.377.257 0 .48-.058.67-.176a1.2 1.2 0 0 0 .446-.507l.615.212a1.74 1.74 0 0 1-.684.8c-.302.186-.642.28-1.019.28ZM43.8 91.636v-.515h2.873v.515H43.8Zm4.916 1.764-1.411-3.888h.648l1.09 3.07 1.088-3.07h.651l-1.41 3.888h-.656Zm2.79-4.576v-.662h.64v.662h-.64Zm0 4.576v-3.888h.64V93.4h-.64Zm3.359.108c-.394 0-.729-.088-1.005-.263a1.71 1.71 0 0 1-.626-.73 2.557 2.557 0 0 1-.223-1.06 2.53 2.53 0 0 1 .226-1.068c.15-.31.362-.551.638-.724.276-.173.608-.26.997-.26.41 0 .763.102 1.058.303.298.202.497.478.598.828l-.634.191a1.041 1.041 0 0 0-.4-.525 1.089 1.089 0 0 0-.63-.188c-.266 0-.485.063-.658.188a1.085 1.085 0 0 0-.385.51 2.096 2.096 0 0 0-.13.746c.005.432.104.781.299 1.047.197.264.488.397.875.397.254 0 .465-.058.633-.173.168-.118.296-.287.382-.508l.648.17a1.653 1.653 0 0 1-.63.83c-.286.193-.63.289-1.033.289Zm3.977 0c-.382 0-.715-.084-1-.252a1.765 1.765 0 0 1-.663-.71 2.28 2.28 0 0 1-.238-1.065c0-.425.078-.792.234-1.102.156-.312.373-.552.652-.72.28-.17.61-.255.986-.255.391 0 .724.09.997.27.276.18.483.437.62.77.139.334.199.731.18 1.192h-.648v-.23c-.008-.478-.105-.835-.292-1.07-.187-.237-.466-.356-.835-.356-.396 0-.697.127-.904.382-.206.254-.31.619-.31 1.094 0 .458.104.813.31 1.066.207.251.5.377.882.377.257 0 .48-.058.67-.176a1.2 1.2 0 0 0 .446-.507l.616.212c-.151.343-.38.61-.684.8-.303.186-.642.28-1.02.28Zm-1.436-1.872v-.515h2.872v.515h-2.872Zm5.446 1.764v-5.184h.648l2.704 4.05v-4.05h.648V93.4h-.648L63.5 89.346V93.4h-.648Zm6.112.108c-.29 0-.534-.053-.73-.158a1.128 1.128 0 0 1-.444-.425 1.156 1.156 0 0 1-.147-.576c0-.204.038-.38.115-.53.08-.15.19-.276.331-.374.142-.1.31-.18.508-.237.184-.05.39-.094.619-.13.23-.038.463-.073.698-.105.236-.03.455-.06.66-.09l-.231.134c.007-.346-.063-.602-.21-.767-.143-.166-.393-.249-.748-.249-.235 0-.442.054-.62.162-.174.106-.298.279-.37.519l-.608-.184c.093-.34.274-.608.543-.803.27-.194.623-.291 1.062-.291.353 0 .656.064.907.19.255.126.437.315.548.57.055.12.09.25.104.392.015.14.022.285.022.44V93.4h-.57v-.933l.134.087a1.595 1.595 0 0 1-.616.713c-.261.16-.58.24-.957.24Zm.097-.536c.23 0 .43-.041.598-.123a1.08 1.08 0 0 0 .612-.774c.036-.12.055-.253.057-.4.005-.148.007-.262.007-.341l.224.097c-.21.029-.414.056-.616.082a15.68 15.68 0 0 0-.572.087c-.18.029-.342.064-.486.104a1.583 1.583 0 0 0-.3.13.679.679 0 0 0-.222.205.619.619 0 0 0-.004.608c.055.096.14.174.252.234.115.06.265.09.45.09Zm7.495.428.004-2.488c0-.29-.078-.517-.234-.68a.782.782 0 0 0-.601-.248.88.88 0 0 0-.41.1.755.755 0 0 0-.317.31 1.05 1.05 0 0 0-.123.536l-.338-.137a1.386 1.386 0 0 1 .169-.723c.12-.209.283-.37.49-.486.206-.115.439-.173.698-.173.405 0 .725.124.957.37.233.246.35.576.35.99l-.004 2.629h-.64Zm-4.65 0v-3.888h.572v1.04h.072V93.4h-.645Zm2.328 0 .004-2.463c0-.297-.077-.53-.23-.698a.784.784 0 0 0-.612-.255.786.786 0 0 0-.612.259c-.157.172-.235.402-.235.687l-.338-.201a1.275 1.275 0 0 1 .67-1.145c.206-.115.44-.173.702-.173.261 0 .49.055.684.166.194.11.344.269.45.475.105.204.158.447.158.73l-.004 2.618h-.637Zm5.554.108c-.382 0-.715-.084-1-.252a1.765 1.765 0 0 1-.663-.71 2.28 2.28 0 0 1-.238-1.065c0-.425.078-.792.234-1.102.156-.312.373-.552.652-.72.28-.17.61-.255.986-.255.391 0 .724.09.997.27.276.18.483.437.62.77.139.334.199.731.18 1.192h-.648v-.23c-.008-.478-.105-.835-.292-1.07-.187-.237-.466-.356-.835-.356-.396 0-.697.127-.904.382-.206.254-.31.619-.31 1.094 0 .458.104.813.31 1.066.207.251.5.377.882.377.257 0 .48-.058.67-.176a1.2 1.2 0 0 0 .446-.507l.616.212c-.151.343-.38.61-.684.8-.303.186-.642.28-1.019.28Zm-1.436-1.872v-.515h2.872v.515h-2.872Z"></path>
  <g clip-path="url(#c)">
    <path fill="url(#d)" d="M274.065 36.665h51.87v51.87h-51.87z"></path>
  </g>
  <rect width="3.6" height="3.6" x="270.8" y="88.6" fill="#00A870" rx="1.8"></rect>
  <path fill="#2B2B2B" d="M278.651 93.4v-5.184h1.598c.053 0 .145.001.277.004.132.002.258.011.378.028.401.053.736.2 1.005.44.271.237.475.54.612.907s.205.771.205 1.213c0 .441-.068.846-.205 1.213-.137.367-.341.67-.612.91a1.84 1.84 0 0 1-1.005.437 4.862 4.862 0 0 1-.655.032h-1.598Zm.659-.612h.939c.091 0 .193-.002.306-.007.113-.008.211-.018.295-.033.284-.053.513-.171.688-.356.175-.185.304-.415.385-.691.082-.276.123-.574.123-.893 0-.327-.042-.628-.126-.904a1.644 1.644 0 0 0-.386-.687 1.216 1.216 0 0 0-.684-.35 1.952 1.952 0 0 0-.298-.032 7.413 7.413 0 0 0-.303-.007h-.939v3.96Zm5.926.72c-.381 0-.715-.084-1-.252a1.765 1.765 0 0 1-.663-.71 2.284 2.284 0 0 1-.237-1.065c0-.425.078-.792.234-1.102.156-.312.373-.552.651-.72.281-.17.61-.255.987-.255.391 0 .723.09.997.27.276.18.482.437.619.77.139.334.199.731.18 1.192h-.648v-.23c-.007-.478-.104-.835-.292-1.07-.187-.237-.465-.356-.835-.356-.396 0-.697.127-.903.382-.207.254-.31.619-.31 1.094 0 .458.103.813.31 1.066.206.251.5.377.882.377.256 0 .48-.058.669-.176.19-.117.339-.287.447-.507l.615.212c-.151.343-.379.61-.684.8-.302.186-.642.28-1.019.28Zm-1.436-1.872v-.515h2.873v.515H283.8Zm4.916 1.764-1.411-3.888h.648l1.091 3.07 1.087-3.07h.652l-1.412 3.888h-.655Zm2.79-4.576v-.662h.64v.662h-.64Zm0 4.576v-3.888h.64V93.4h-.64Zm3.359.108c-.394 0-.729-.088-1.005-.263a1.713 1.713 0 0 1-.626-.73 2.545 2.545 0 0 1-.223-1.06 2.52 2.52 0 0 1 .226-1.068c.149-.31.362-.551.638-.724.276-.173.608-.26.997-.26.41 0 .763.102 1.058.303.298.202.497.478.598.828l-.634.191a1.042 1.042 0 0 0-.399-.525 1.091 1.091 0 0 0-.63-.188c-.267 0-.486.063-.659.188a1.083 1.083 0 0 0-.385.51 2.087 2.087 0 0 0-.13.746c.005.432.104.781.299 1.047.197.264.488.397.875.397.254 0 .465-.058.633-.173.168-.118.295-.287.382-.508l.648.17a1.664 1.664 0 0 1-.63.83c-.286.193-.63.289-1.033.289Zm3.977 0c-.382 0-.715-.084-1.001-.252a1.763 1.763 0 0 1-.662-.71 2.272 2.272 0 0 1-.238-1.065c0-.425.078-.792.234-1.102.156-.312.373-.552.652-.72.281-.17.609-.255.986-.255.391 0 .724.09.997.27.276.18.483.437.62.77.139.334.199.731.18 1.192h-.648v-.23c-.008-.478-.105-.835-.292-1.07-.187-.237-.466-.356-.835-.356-.396 0-.697.127-.904.382-.206.254-.309.619-.309 1.094 0 .458.103.813.309 1.066.207.251.501.377.882.377.257 0 .48-.058.67-.176.189-.117.338-.287.446-.507l.616.212c-.151.343-.379.61-.684.8-.303.186-.642.28-1.019.28Zm-1.436-1.872v-.515h2.872v.515h-2.872Zm5.446 1.764v-5.184h.648l2.704 4.05v-4.05h.648V93.4h-.648l-2.704-4.054V93.4h-.648Zm6.112.108c-.291 0-.534-.053-.731-.158a1.133 1.133 0 0 1-.443-.425 1.16 1.16 0 0 1-.147-.576c0-.204.038-.38.115-.53.079-.15.189-.276.331-.374.142-.1.311-.18.508-.237a5.76 5.76 0 0 1 .619-.13c.23-.038.463-.073.698-.105.235-.03.455-.06.659-.09l-.23.134c.007-.346-.063-.602-.209-.767-.144-.166-.394-.249-.749-.249-.235 0-.442.054-.619.162-.175.106-.299.279-.371.519l-.608-.184c.093-.34.274-.608.543-.803.269-.194.623-.291 1.062-.291.353 0 .655.064.907.19.255.126.437.315.548.57.055.12.09.25.104.392.014.14.022.285.022.44V93.4h-.569v-.933l.133.087a1.594 1.594 0 0 1-.616.713c-.261.16-.58.24-.957.24Zm.097-.536c.23 0 .43-.041.598-.123a1.087 1.087 0 0 0 .612-.774c.036-.12.055-.253.057-.4.005-.148.007-.262.007-.341l.224.097c-.209.029-.414.056-.616.082a13.88 13.88 0 0 0-.572.087c-.18.029-.342.064-.486.104a1.558 1.558 0 0 0-.299.13.674.674 0 0 0-.223.205.528.528 0 0 0-.083.306c0 .106.026.207.079.302a.61.61 0 0 0 .252.234c.115.06.265.09.45.09Zm7.495.428.004-2.488c0-.29-.078-.517-.234-.68a.782.782 0 0 0-.601-.248.883.883 0 0 0-.411.1.761.761 0 0 0-.317.31c-.081.14-.122.318-.122.536l-.338-.137a1.38 1.38 0 0 1 .169-.723c.12-.209.283-.37.489-.486.207-.115.44-.173.699-.173.405 0 .725.124.957.37.233.246.35.576.35.99l-.004 2.629h-.641Zm-4.651 0v-3.888h.572v1.04h.072V93.4h-.644Zm2.329 0 .004-2.463c0-.297-.077-.53-.231-.698a.782.782 0 0 0-.612-.255.786.786 0 0 0-.612.259c-.156.172-.234.402-.234.687l-.338-.201a1.272 1.272 0 0 1 .67-1.145c.206-.115.44-.173.702-.173.261 0 .489.055.684.166.194.11.344.269.45.475.105.204.158.447.158.73l-.004 2.618h-.637Zm5.554.108c-.382 0-.715-.084-1.001-.252a1.763 1.763 0 0 1-.662-.71 2.272 2.272 0 0 1-.238-1.065c0-.425.078-.792.234-1.102.156-.312.373-.552.652-.72.281-.17.609-.255.986-.255.391 0 .724.09.997.27.276.18.483.437.62.77.139.334.199.731.18 1.192h-.648v-.23c-.008-.478-.105-.835-.292-1.07-.187-.237-.466-.356-.835-.356-.396 0-.697.127-.904.382-.206.254-.309.619-.309 1.094 0 .458.103.813.309 1.066.207.251.501.377.882.377.257 0 .48-.058.67-.176.189-.117.338-.287.446-.507l.616.212c-.151.343-.379.61-.684.8-.303.186-.642.28-1.019.28Zm-1.436-1.872v-.515h2.872v.515h-2.872Z"></path>
  <path fill="#00A870" fill-opacity=".1" d="M123.6 35.3h112.8a3.3 3.3 0 0 1 3.3 3.3V101a3.3 3.3 0 0 1-3.3 3.3H123.6a3.3 3.3 0 0 1-3.3-3.3V38.6a3.3 3.3 0 0 1 3.3-3.3Z"></path>
  <path stroke="#00A870" stroke-width=".6" d="M123.6 35.3h112.8a3.3 3.3 0 0 1 3.3 3.3V101a3.3 3.3 0 0 1-3.3 3.3H123.6a3.3 3.3 0 0 1-3.3-3.3V38.6a3.3 3.3 0 0 1 3.3-3.3Z"></path>
  <g clip-path="url(#e)">
    <path fill="url(#f)" d="M154.065 36.665h51.87v51.87h-51.87z"></path>
  </g>
  <rect width="3.6" height="3.6" x="150.8" y="88.6" fill="#00A870" rx="1.8"></rect>
  <path fill="#2B2B2B" d="M158.651 93.4v-5.184h1.598c.053 0 .145.001.277.004.132.002.258.011.378.028.401.053.736.2 1.005.44.271.237.475.54.612.907s.205.771.205 1.213c0 .441-.068.846-.205 1.213-.137.367-.341.67-.612.91a1.84 1.84 0 0 1-1.005.437 4.862 4.862 0 0 1-.655.032h-1.598Zm.659-.612h.939c.091 0 .193-.002.306-.007.113-.008.211-.018.295-.033.284-.053.513-.171.688-.356.175-.185.304-.415.385-.691.082-.276.123-.574.123-.893 0-.327-.042-.628-.126-.904a1.644 1.644 0 0 0-.386-.687 1.216 1.216 0 0 0-.684-.35 1.952 1.952 0 0 0-.298-.032 7.413 7.413 0 0 0-.303-.007h-.939v3.96Zm5.926.72c-.381 0-.715-.084-1-.252a1.765 1.765 0 0 1-.663-.71 2.284 2.284 0 0 1-.237-1.065c0-.425.078-.792.234-1.102.156-.312.373-.552.651-.72.281-.17.61-.255.987-.255.391 0 .723.09.997.27.276.18.482.437.619.77.139.334.199.731.18 1.192h-.648v-.23c-.007-.478-.104-.835-.292-1.07-.187-.237-.465-.356-.835-.356-.396 0-.697.127-.903.382-.207.254-.31.619-.31 1.094 0 .458.103.813.31 1.066.206.251.5.377.882.377.256 0 .48-.058.669-.176.19-.117.339-.287.447-.507l.615.212c-.151.343-.379.61-.684.8-.302.186-.642.28-1.019.28Zm-1.436-1.872v-.515h2.873v.515H163.8Zm4.916 1.764-1.411-3.888h.648l1.091 3.07 1.087-3.07h.652l-1.412 3.888h-.655Zm2.79-4.576v-.662h.64v.662h-.64Zm0 4.576v-3.888h.64V93.4h-.64Zm3.359.108c-.394 0-.729-.088-1.005-.263a1.713 1.713 0 0 1-.626-.73 2.545 2.545 0 0 1-.223-1.06 2.52 2.52 0 0 1 .226-1.068c.149-.31.362-.551.638-.724.276-.173.608-.26.997-.26.41 0 .763.102 1.058.303.298.202.497.478.598.828l-.634.191a1.042 1.042 0 0 0-.399-.525 1.091 1.091 0 0 0-.63-.188c-.267 0-.486.063-.659.188a1.083 1.083 0 0 0-.385.51 2.087 2.087 0 0 0-.13.746c.005.432.104.781.299 1.047.197.264.488.397.875.397.254 0 .465-.058.633-.173.168-.118.295-.287.382-.508l.648.17a1.664 1.664 0 0 1-.63.83c-.286.193-.63.289-1.033.289Zm3.977 0c-.382 0-.715-.084-1.001-.252a1.763 1.763 0 0 1-.662-.71 2.272 2.272 0 0 1-.238-1.065c0-.425.078-.792.234-1.102.156-.312.373-.552.652-.72.281-.17.609-.255.986-.255.391 0 .724.09.997.27.276.18.483.437.62.77.139.334.199.731.18 1.192h-.648v-.23c-.008-.478-.105-.835-.292-1.07-.187-.237-.466-.356-.835-.356-.396 0-.697.127-.904.382-.206.254-.309.619-.309 1.094 0 .458.103.813.309 1.066.207.251.501.377.882.377.257 0 .48-.058.67-.176.189-.117.338-.287.446-.507l.616.212c-.151.343-.379.61-.684.8-.303.186-.642.28-1.019.28Zm-1.436-1.872v-.515h2.872v.515h-2.872Zm5.446 1.764v-5.184h.648l2.704 4.05v-4.05h.648V93.4h-.648l-2.704-4.054V93.4h-.648Zm6.112.108c-.291 0-.534-.053-.731-.158a1.133 1.133 0 0 1-.443-.425 1.16 1.16 0 0 1-.147-.576c0-.204.038-.38.115-.53.079-.15.189-.276.331-.374.142-.1.311-.18.508-.237a5.76 5.76 0 0 1 .619-.13c.23-.038.463-.073.698-.105.235-.03.455-.06.659-.09l-.23.134c.007-.346-.063-.602-.209-.767-.144-.166-.394-.249-.749-.249-.235 0-.442.054-.619.162-.175.106-.299.279-.371.519l-.608-.184c.093-.34.274-.608.543-.803.269-.194.623-.291 1.062-.291.353 0 .655.064.907.19.255.126.437.315.548.57.055.12.09.25.104.392.014.14.022.285.022.44V93.4h-.569v-.933l.133.087a1.594 1.594 0 0 1-.616.713c-.261.16-.58.24-.957.24Zm.097-.536c.23 0 .43-.041.598-.123a1.087 1.087 0 0 0 .612-.774c.036-.12.055-.253.057-.4.005-.148.007-.262.007-.341l.224.097c-.209.029-.414.056-.616.082a13.88 13.88 0 0 0-.572.087c-.18.029-.342.064-.486.104a1.558 1.558 0 0 0-.299.13.674.674 0 0 0-.223.205.528.528 0 0 0-.083.306c0 .106.026.207.079.302a.61.61 0 0 0 .252.234c.115.06.265.09.45.09Zm7.495.428.004-2.488c0-.29-.078-.517-.234-.68a.782.782 0 0 0-.601-.248.883.883 0 0 0-.411.1.761.761 0 0 0-.317.31c-.081.14-.122.318-.122.536l-.338-.137a1.38 1.38 0 0 1 .169-.723c.12-.209.283-.37.489-.486.207-.115.44-.173.699-.173.405 0 .725.124.957.37.233.246.35.576.35.99l-.004 2.629h-.641Zm-4.651 0v-3.888h.572v1.04h.072V93.4h-.644Zm2.329 0 .004-2.463c0-.297-.077-.53-.231-.698a.782.782 0 0 0-.612-.255.786.786 0 0 0-.612.259c-.156.172-.234.402-.234.687l-.338-.201a1.272 1.272 0 0 1 .67-1.145c.206-.115.44-.173.702-.173.261 0 .489.055.684.166.194.11.344.269.45.475.105.204.158.447.158.73l-.004 2.618h-.637Zm5.554.108c-.382 0-.715-.084-1.001-.252a1.763 1.763 0 0 1-.662-.71 2.272 2.272 0 0 1-.238-1.065c0-.425.078-.792.234-1.102.156-.312.373-.552.652-.72.281-.17.609-.255.986-.255.391 0 .724.09.997.27.276.18.483.437.62.77.139.334.199.731.18 1.192h-.648v-.23c-.008-.478-.105-.835-.292-1.07-.187-.237-.466-.356-.835-.356-.396 0-.697.127-.904.382-.206.254-.309.619-.309 1.094 0 .458.103.813.309 1.066.207.251.501.377.882.377.257 0 .48-.058.67-.176.189-.117.338-.287.446-.507l.616.212c-.151.343-.379.61-.684.8-.303.186-.642.28-1.019.28Zm-1.436-1.872v-.515h2.872v.515h-2.872Z"></path>
  <path fill="#00A870" d="M240 90v10.5a3.5 3.5 0 0 1-3.5 3.5H226l14-14Z"></path>
  <path stroke="#fff" stroke-width=".7" d="m232.562 99.746 2.042 2.042 4.084-4.423"></path>
  <path fill="#fff" stroke="#212121" d="M225.487 66c.469 0 .881.181 1.177.48.315.317.497.764.482 1.254l.986 4.93c.338-.467.867-.781 1.484-.781.366 0 .693.11.958.3.283.206.495.5.615.842l.242.693.628-.383a1.8 1.8 0 0 1 .931-.257c.366 0 .692.11.957.301.283.205.495.5.614.841l.243.693.628-.382c.263-.16.536-.258.87-.258.491 0 .913.176 1.213.473.309.307.485.736.485 1.207v2.87c0 2.337-.13 4.456-1.556 5.775-.289.267-.669.733-1.133 1.402h-9.299c-.311-1.408-.567-2.105-.656-2.192l-5.891-5.829a1.482 1.482 0 0 1-.463-1.16c.028-.538.302-1.05.637-1.38.302-.295.777-.448 1.251-.448.437 0 .887.133 1.212.45l2.564 2.507-.916-10.292a1.65 1.65 0 0 1 .504-1.16 1.763 1.763 0 0 1 1.233-.496Z"></path>
  <path stroke="#000" stroke-linecap="round" d="M232.063 77.726c.098.552.148 1.143.148 1.773 0 .63-.099 1.419-.297 2.364m2.524-4.137c.098.552.148 1.143.148 1.773 0 .63-.099 1.419-.297 2.364m-4.601-4.137c.098.552.148 1.143.148 1.773 0 .63-.099 1.419-.297 2.364"></path>
  <defs>
    <clipPath id="a">
      <path fill="#fff" d="M33.6 44.6h52.8v36H33.6z"></path>
    </clipPath>
    <clipPath id="c">
      <path fill="#fff" d="M273.6 44.6h52.8v36h-52.8z"></path>
    </clipPath>
    <clipPath id="e">
      <path fill="#fff" d="M153.6 44.6h52.8v36h-52.8z"></path>
    </clipPath>
    <pattern id="b" width="1" height="1" patternContentUnits="objectBoundingBox">
      <use href="#g" transform="scale(.00294)"></use>
    </pattern>
    <pattern id="d" width="1" height="1" patternContentUnits="objectBoundingBox">
      <use href="#g" transform="scale(.00294)"></use>
    </pattern>
    <pattern id="f" width="1" height="1" patternContentUnits="objectBoundingBox">
      <use href="#g" transform="scale(.00294)"></use>
    </pattern>
    <image id="g" width="340" height="340" preserveAspectRatio="none"></image>
  </defs>
</svg>