<svg xmlns="http://www.w3.org/2000/svg" width="100" height="100" fill="none" viewBox="0 0 100 100">
  <path fill="#F4F4F4" fill-rule="evenodd" d="M27.401 51.45c1.697-10.93 11.147-19.294 22.551-19.294 11.405 0 20.856 8.365 22.552 19.295 10.183 1.7 17.945 10.554 17.945 21.22 0 11.883-9.633 21.516-21.515 21.516h-37.97c-11.882 0-21.515-9.633-21.515-21.516 0-10.668 7.765-19.523 17.952-21.221Z" clip-rule="evenodd"></path>
  <mask id="a" fill="#fff">
    <path d="M59.419 84.072h.585c.82-2.355 2.892-4.028 5.319-4.028 3.057 0 5.55 2.653 5.687 5.982 1.015-1.001 2.37-1.613 3.858-1.613 1.799 0 3.402.894 4.446 2.29 1.033-1.592 2.724-2.63 4.636-2.63 2.64 0 4.86 1.978 5.505 4.662.297-.057.607-.087.923-.087 2.444 0 4.425 1.784 4.425 3.984 0 1.928-1.521 3.536-3.543 3.904v.08h-7.237l-.073.002-.074-.002h-8.878c-.044.001-.087.004-.13.004-.044 0-.087-.003-.13-.004h-4.722v.002H37.222v-.002h-23.48v-.036a4.704 4.704 0 0 1-.574.037c-2.443 0-4.425-1.879-4.425-4.196 0-2.318 1.981-4.196 4.425-4.196.475 0 .932.07 1.36.202.479-2.476 2.806-4.355 5.605-4.355 1.703 0 3.231.696 4.275 1.798 1.043-1.102 2.571-1.798 4.274-1.798a5.92 5.92 0 0 1 3.807 1.359c.305-3.148 2.724-5.599 5.663-5.599 1.456 0 2.784.602 3.79 1.592v-9.818H59.42v12.466Z"></path>
  </mask>
  <path fill="#00E194" d="M59.419 84.072h.585c.82-2.355 2.892-4.028 5.319-4.028 3.057 0 5.55 2.653 5.687 5.982 1.015-1.001 2.37-1.613 3.858-1.613 1.799 0 3.402.894 4.446 2.29 1.033-1.592 2.724-2.63 4.636-2.63 2.64 0 4.86 1.978 5.505 4.662.297-.057.607-.087.923-.087 2.444 0 4.425 1.784 4.425 3.984 0 1.928-1.521 3.536-3.543 3.904v.08h-7.237l-.073.002-.074-.002h-8.878c-.044.001-.087.004-.13.004-.044 0-.087-.003-.13-.004h-4.722v.002H37.222v-.002h-23.48v-.036a4.704 4.704 0 0 1-.574.037c-2.443 0-4.425-1.879-4.425-4.196 0-2.318 1.981-4.196 4.425-4.196.475 0 .932.07 1.36.202.479-2.476 2.806-4.355 5.605-4.355 1.703 0 3.231.696 4.275 1.798 1.043-1.102 2.571-1.798 4.274-1.798a5.92 5.92 0 0 1 3.807 1.359c.305-3.148 2.724-5.599 5.663-5.599 1.456 0 2.784.602 3.79 1.592v-9.818H59.42v12.466Z"></path>
  <path fill="#0A5A5A" d="M59.419 84.072h-1v1h1v-1Zm.585 0v1h.711l.234-.671-.945-.329Zm5.319-4.028v-1 1Zm5.687 5.982-.999.042.093 2.258 1.609-1.588-.703-.712Zm3.858-1.613v-1 1Zm4.446 2.29-.8.599.858 1.149.78-1.204-.838-.544Zm4.636-2.63v-1 1Zm5.505 4.662-.973.234.223.928.937-.18-.187-.982Zm.923-.087v-1 1Zm4.425 3.984h1-1Zm-3.543 3.904-.179-.984-.82.15v.834h1Zm0 .08v1h1v-1h-1Zm-7.237 0v-1h-.014l.014 1Zm-.073.002v1-1Zm-.074-.002.014-1h-.014v1Zm-8.878 0v-1h-.024l.024 1Zm-.13.004v1-1Zm-.13-.004.024-1h-.024v1Zm-4.722 0v-1h-1v1h1Zm0 .002v1h1v-1h-1Zm-32.794 0h-1v1h1v-1Zm0-.002h1v-1h-1v1Zm-23.48 0h-1v1h1v-1Zm0-.036h1v-1.13l-1.121.138.122.992Zm-.574.037v1-1Zm-4.425-4.196h-1 1Zm4.425-4.196v-1 1Zm1.36.202-.292.956 1.064.326.21-1.093-.981-.19Zm5.605-4.355v-1 1Zm4.275 1.798-.726.688.726.766.726-.766-.726-.688Zm4.274-1.798v-1 1Zm3.807 1.359-.642.767 1.454 1.216.183-1.887-.995-.096Zm5.663-5.599v-1 1Zm3.79 1.592-.7.713 1.7 1.672v-2.385h-1Zm0-9.818v-1h-1v1h1Zm17.477 0h1v-1h-1v1Zm0 12.466v1h.585v-2h-.585v1Zm.585 0 .945.329c.702-2.016 2.434-3.357 4.374-3.357v-2c-2.915 0-5.325 2.004-6.263 4.7l.944.328Zm5.319-4.028v1c2.435 0 4.569 2.14 4.688 5.024l1-.042.998-.04c-.156-3.776-3.007-6.942-6.686-6.942v1Zm5.687 5.982.703.712c.842-.831 1.95-1.325 3.155-1.325v-2c-1.771 0-3.373.73-4.56 1.902l.702.711Zm3.858-1.613v1c1.454 0 2.772.721 3.645 1.889l.801-.599.8-.599c-1.213-1.623-3.103-2.69-5.246-2.69v1Zm4.446 2.29.839.544c.872-1.344 2.265-2.175 3.797-2.175v-2c-2.292 0-4.281 1.247-5.475 3.087l.839.544Zm4.636-2.63v1c2.107 0 3.977 1.589 4.532 3.896l.973-.234.972-.234c-.736-3.06-3.304-5.429-6.477-5.429v1Zm5.505 4.662.187.983c.236-.046.483-.07.736-.07v-2c-.38 0-.752.036-1.111.105l.188.982Zm.923-.087v1c1.993 0 3.425 1.433 3.425 2.984h2c0-2.849-2.53-4.983-5.424-4.984v1Zm4.425 3.984h-1c0 1.364-1.092 2.623-2.722 2.92l.18.984.178.984c2.413-.44 4.364-2.396 4.364-4.888h-1Zm-3.543 3.904h-1v.08h2v-.08h-1Zm0 .08v-1h-7.237v2h7.237v-1Zm-7.237 0-.014-1-.037.001-.022.001c-.012 0-.008 0 0 0v2l.073-.001h.014l-.014-1Zm-.073.002v-1c.007 0 .011 0 0 0h-.023l-.037-.002-.014 1-.014 1h.015l.073.002v-1Zm-.074-.002v-1h-8.878v2h8.878v-1Zm-8.878 0-.024-1-.08.003-.02.001h-.006v2l.104-.002.05-.002-.024-1Zm-.13.004v-1h-.027l-.08-.004-.023 1-.024 1 .05.002.104.002v-1Zm-.13-.004v-1h-4.722v2h4.722v-1Zm-4.722 0h-1v.002h2v-.002h-1Zm0 .002v-1H37.222v2h32.794v-1Zm-32.794 0h1v-.002h-2v.002h1Zm0-.002v-1h-23.48v2h23.48v-1Zm-23.48 0h1v-.036h-2v.036h1Zm0-.036-.121-.992a3.73 3.73 0 0 1-.453.03v2c.243 0 .476-.018.697-.045l-.122-.993Zm-.574.037v-1c-1.942 0-3.425-1.48-3.425-3.196h-2c0 2.92 2.48 5.196 5.425 5.196v-1Zm-4.425-4.196h1c0-1.716 1.483-3.196 3.425-3.196v-2c-2.945 0-5.425 2.277-5.425 5.196h1Zm4.425-4.196v1c.375 0 .734.056 1.068.158l.293-.956.293-.957a5.645 5.645 0 0 0-1.653-.245v1Zm1.36.202.983.19c.38-1.966 2.26-3.545 4.622-3.545v-2c-3.237 0-6.01 2.18-6.586 5.165l.982.19Zm5.605-4.355v1c1.43 0 2.694.584 3.549 1.486l.726-.688.726-.688c-1.233-1.301-3.024-2.11-5-2.11v1Zm4.275 1.798.726.688c.854-.902 2.12-1.486 3.548-1.486v-2c-1.977 0-3.767.81-5 2.11l.726.688Zm4.274-1.798v1a4.92 4.92 0 0 1 3.165 1.126l.642-.767.641-.767a6.92 6.92 0 0 0-4.448-1.592v1Zm3.807 1.359.995.096c.264-2.72 2.325-4.695 4.668-4.695v-2c-3.535 0-6.312 2.927-6.659 6.502l.996.097Zm5.663-5.599v1c1.17 0 2.253.482 3.09 1.305l.7-.713.702-.713c-1.177-1.157-2.75-1.879-4.492-1.879v1Zm3.79 1.592h1v-9.818h-2v9.818h1Zm0-9.818v1H59.42v-2H41.943v1Zm17.477 0h-1v12.466h2V71.606h-1Z" mask="url(#a)"></path>
  <path fill="#fff" stroke="#0A5A5A" d="M63.372 40.519v2.593c0 7.05 5.391 12.932 12.416 13.542a1.19 1.19 0 0 1 1.087 1.184v14.076H23.752V57.876l.006-.118a1.227 1.227 0 0 1 1.117-1.104c7.189-.61 12.713-6.622 12.713-13.836v-2.299h25.783Z"></path>
  <path fill="#E3F1EC" stroke="#636363" stroke-width=".6" d="M62.87 43.477V44.7c0 6.922 5.317 12.683 12.216 13.236.24.02.424.22.424.46v12.208H25.448V58.413c0-.25.192-.457.44-.477 7.062-.553 12.51-6.445 12.51-13.529v-.93H62.87Z"></path>
  <path fill="#fff" stroke="#0A5A5A" d="M50.456 4.047A38.437 38.437 0 0 1 63.399 32.81v21.61l.075.12 3.736 6.006v16.205h-7.056v-4.83h-18.96v4.83h-7.6V60.548l3.84-6.003.08-.123V32.81A38.438 38.438 0 0 1 50.455 4.047Z"></path>
  <path fill="#E3F1EC" stroke="#636363" stroke-width=".357" d="M50.45 5.94a38.14 38.14 0 0 1 11.402 27.197v21.91l.029.045 3.84 5.89v14.305h-4.658v-4.68H40.227v4.68H35.08V60.983l3.884-5.891.03-.044V33.176A38.108 38.108 0 0 1 50.448 5.941Z"></path>
  <circle cx="50.578" cy="26.884" r="4.487" fill="#05C178" stroke="#0A5A5A" stroke-width=".458"></circle>
  <path stroke="#0A5A5A" stroke-width=".857" d="M46.138 20.198a6.283 6.283 0 0 1 8.885 0"></path>
  <circle cx="50.579" cy="26.884" r="2.638" fill="#fff" stroke="#636363" stroke-width=".229"></circle>
  <path fill="#E3F1EC" stroke="#0A5A5A" stroke-width=".714" d="M37.405 54.539h26.13v17.517h-26.13z"></path>
  <path fill="#fff" stroke="#0A5A5A" stroke-width=".6" d="M47.97 52.451h5.215v24.954H47.97z"></path>
  <path stroke="#0A5A5A" stroke-width=".857" d="M45.427 77.088v6.58m9.476-2.233v6.58m-4.501-4.347v6.579"></path>
  <path fill="#fff" stroke="#0A5A5A" stroke-linecap="square" d="M1.532 92.613h96.939v4.006H1.532z"></path>
</svg>