<svg xmlns="http://www.w3.org/2000/svg" width="300" height="160" fill="none" viewBox="0 0 300 160">
  <path fill="#fff" stroke="#0A5A5A" stroke-linecap="square" stroke-width="1.26" d="M116.936 22.256h66v115.5h-66z"></path>
  <path fill="#E3F1EC" fill-rule="evenodd" stroke="#999" stroke-width=".707" d="M122.829 27.485h54.214v104.893h-54.214c-.005-34.965.003-69.929 0-104.893Z" clip-rule="evenodd"></path>
  <path fill="#FF8C27" fill-rule="evenodd" d="M187.333 115c7.364 0 13.334 5.97 13.334 13.333 0 7.364-5.97 13.334-13.334 13.334-7.363 0-13.333-5.97-13.333-13.334 0-7.363 5.97-13.333 13.333-13.333Z" clip-rule="evenodd"></path>
  <path stroke="#fff" stroke-width="1.733" d="M187.333 121.667v8"></path>
  <path fill="#fff" stroke="#fff" stroke-width="1.333" d="M186.667 133H188v1.333h-1.333z"></path>
  <path fill="#CADFD7" d="M123.2 91h53.6v4h-53.6v-4Z"></path>
  <path fill="#fff" stroke="#0A5A5A" stroke-linecap="square" stroke-width="1.2" d="M101 62h97v29h-97z"></path>
  <path fill="#0A7171" fill-rule="evenodd" d="M113.559 68h6.834c1.346 0 1.971.118 2.484.341l.036.016.072.034.036.017a.267.267 0 0 0 .017.008l.036.018a.263.263 0 0 0 .017.01l.035.017.036.019a3.267 3.267 0 0 1 1.358 1.358l.009.018.019.035.018.035.018.036.008.017.018.036.033.072.016.036c.223.513.341 1.138.341 2.484v6.786c0 1.346-.118 1.97-.341 2.484l-.016.036-.033.072-.018.035-.008.018-.018.036-.009.017-.018.035-.019.035a3.267 3.267 0 0 1-1.358 1.359l-.018.01-.035.018-.035.018-.036.018-.017.008-.036.017a4.63 4.63 0 0 1-.072.034l-.036.016c-.513.223-1.138.341-2.484.341h-6.786c-1.346 0-1.971-.118-2.484-.341l-.036-.016a4.63 4.63 0 0 1-.072-.034l-.036-.017-.017-.008-.036-.018-.017-.01-.035-.017a3.267 3.267 0 0 1-1.394-1.377l-.009-.018-.019-.035-.018-.035-.018-.036-.008-.017-.018-.036a12.503 12.503 0 0 1-.033-.072l-.016-.036c-.221-.507-.338-1.123-.341-2.436v-6.834c0-1.346.118-1.97.341-2.484l.016-.036.033-.072.018-.035.008-.018.018-.036.009-.017.018-.035.019-.035a3.267 3.267 0 0 1 1.358-1.359l.018-.01.035-.018.035-.018.036-.018.017-.008.036-.017a4.63 4.63 0 0 1 .072-.034l.036-.016c.507-.22 1.123-.338 2.436-.34Z" clip-rule="evenodd"></path>
  <path fill="#fff" d="m111.838 75.083-.069.572 1.962.236c.007-.195.03-.387.069-.572l-1.962-.236Zm.314-1.073-.162.451 1.857.666c.043-.156.098-.307.162-.452l-1.857-.666Zm.536-.982-.207.324 1.659 1.06c.063-.113.132-.22.206-.325l-1.658-1.06Zm1.041 2.964-1.969.207.07.669 1.966-.207a3.277 3.277 0 0 1-.067-.661v-.008Z"></path>
  <path fill="#fff" d="M120.714 72.323a5.223 5.223 0 0 0-7.387-.055l.004.004-.116.114 1.378 1.4a3.272 3.272 0 1 1-.796 2.882l-1.876.64.249.727 1.491-.51-1.345.832.454.735.978-.604-.823.81.348.353h-.001c5.058 4.745 12.108-2.202 7.443-7.329h-.001Z"></path>
  <path fill="#32DE9B" d="M132 72h48v3h-48zm0 7h48v3h-48z"></path>
</svg>