<svg xmlns="http://www.w3.org/2000/svg" width="200" height="160" fill="none" viewBox="0 0 200 160">
  <path fill="#E3F1EC" stroke="#0A5A5A" stroke-linecap="square" stroke-width="1.2" d="M52.786 53.935h103.14v70.414H52.786z"></path>
  <path fill="#fff" stroke="#636363" stroke-linecap="square" stroke-width=".6" d="M57.742 59.883h93.223v64.464H57.742z"></path>
  <path fill="#E3F1EC" d="M62.334 76.925h22.178v25.324H62.334zm28.116 0h55.924v9.877H90.45zm0 15.447h55.924v9.877H90.45z"></path>
  <path stroke="#0A5A5A" stroke-linecap="square" stroke-width="1.061" d="M43.857 124.347h120v4.959h-120z"></path>
  <ellipse cx="63.691" cy="65.838" fill="#EE385C" rx="1.983" ry="1.984"></ellipse>
  <ellipse cx="69.642" cy="65.838" fill="#FFCB00" rx="1.983" ry="1.984"></ellipse>
  <ellipse cx="75.593" cy="65.838" fill="#00A870" rx="1.983" ry="1.984"></ellipse>
  <circle cx="62" cy="34" r="14" fill="#FF8C27"></circle>
  <path fill="#fff" d="M61.999 25.862c4.156-.055 7.538 3.364 7.538 7.619 0 2.539-1.17 4.139-3.58 4.87v.67c0 .895-.705 1.625-1.568 1.637a1.529 1.529 0 0 1-1.19-.554 1.574 1.574 0 0 1-1.19.585 1.53 1.53 0 0 1-1.19-.554c-.288.35-.715.579-1.191.585-.863.011-1.567-.7-1.567-1.584v-.67c-2.43-.68-3.6-2.25-3.6-4.788 0-4.255 3.382-7.762 7.538-7.816Zm-3.29 5.68c-1.092.014-1.984.93-1.984 2.057 0 1.127.882 2.009 1.983 1.994 1.101-.014 1.975-.929 1.975-2.046 0-1.117-.884-2.02-1.975-2.005Zm6.595-.087c-1.09.015-1.973.93-1.973 2.057 0 1.127.882 2.01 1.973 1.995 1.091-.014 1.975-.93 1.975-2.046 0-1.117-.884-2.02-1.975-2.006Z"></path>
  <path fill="#FF8C27" d="m52.474 26.46 1.523-1.524 17.397 17.396-1.523 1.524z"></path>
  <circle cx="156" cy="50" r="14" fill="#0069CB"></circle>
  <path fill="#fff" d="m161.013 50.685.655-1.74a.379.379 0 0 0-.35-.514h-1.819a4.065 4.065 0 0 0 .349-2.025c1.235-.247 2.014-.607 2.014-1.008 0-.419-.851-.793-2.186-1.04-.287-1.037-.849-2.08-1.272-2.618a.995.995 0 0 0-1.234-.28l-.861.436a.991.991 0 0 1-.894 0l-.862-.435a.994.994 0 0 0-1.233.279c-.423.538-.985 1.58-1.272 2.617-1.335.248-2.186.622-2.186 1.041 0 .401.778.76 2.014 1.008a4.064 4.064 0 0 0 .349 2.026h-1.794a.379.379 0 0 0-.345.528l.716 1.689a3.033 3.033 0 0 0-1.94 2.838v2.528c0 .837.671 1.517 1.5 1.517h11c.828 0 1.5-.68 1.5-1.517v-2.528a3.035 3.035 0 0 0-1.849-2.802Zm-6.401 6.088-1.5-6.067 1.5.759.75 1.264-.75 4.044Zm2.5 0-.75-4.044.75-1.264 1.5-.759-1.5 6.067Zm1.712-9.597c-.001.001-.135.102-.161.182-.12.375-.219.776-.516 1.054-.314.295-1.498.708-1.999-.79-.089-.266-.483-.266-.572 0-.53 1.584-1.75 1.023-2 .79-.296-.277-.395-.68-.516-1.054-.026-.08-.16-.181-.16-.182a2.636 2.636 0 0 1-.038-.28c-.01-.122.315-.115.346-.118a7.531 7.531 0 0 1 2.438.173c.08.02.361.017.431 0a7.54 7.54 0 0 1 2.439-.173c.031.003.355-.004.346.118a2.922 2.922 0 0 1-.038.28Z"></path>
  <path fill="#0069CB" d="m145.68 41.598 1.98-1.98 17.666 17.666-1.98 1.98z"></path>
  <circle cx="31" cy="82" r="12" fill="#EE385C"></circle>
  <path fill="#fff" d="M36.437 79.608a.825.825 0 0 0-.812-.822l-1.062-.014a4.705 4.705 0 0 0-1.21-1.607l.704-.847a.729.729 0 0 0 0-.925.729.729 0 0 0-1.127-.015l-.887 1.068c-.3-.093-.616-.15-.94-.154a3.284 3.284 0 0 0-.94.13l-.887-1.092a.729.729 0 0 0-1.126-.014.73.73 0 0 0 0 .925l.703.865c-.496.404-.91.946-1.21 1.575l-1.062-.014a.799.799 0 0 0-.811.801c0 .448.363.816.811.822l.582.008c-.036.263-.06.535-.06.81v.812l-.522-.007a.799.799 0 0 0-.811.801c0 .448.363.817.811.823l.522.006v.812c0 .276.024.548.06.812l-.582-.007a.799.799 0 0 0-.811.8c0 .449.363.817.811.823l1.062.014c.69 1.461 1.98 2.46 3.46 2.48 1.48.019 2.77-.946 3.46-2.39l1.062.014a.799.799 0 0 0 .812-.8.825.825 0 0 0-.812-.823l-.582-.008c.037-.263.06-.534.06-.81v-.812l.522.007a.799.799 0 0 0 .812-.801.825.825 0 0 0-.812-.822l-.522-.007v-.812c0-.275-.023-.548-.06-.812l.582.008a.799.799 0 0 0 .812-.801Zm-4 4.817a.799.799 0 0 1-.812.8l-1.044-.013a.825.825 0 0 1-.811-.822c0-.448.363-.807.811-.801l1.044.014a.825.825 0 0 1 .812.822Zm0-3.246a.799.799 0 0 1-.812.8l-1.044-.013a.825.825 0 0 1-.811-.822c0-.449.363-.807.811-.801l1.044.013a.824.824 0 0 1 .812.823Z"></path>
  <path fill="#EE385C" d="m21.36 75.332 1.886-1.886 15.708 15.708-1.886 1.886z"></path>
  <path fill="#fff" stroke="#0A5A5A" stroke-linecap="square" stroke-width="1.061" d="M19 104h85.921v33.08H19V104Z"></path>
  <path fill="#E3F1EC" d="M25 118h74v6H25v-6Zm0 9h74v6H25v-6Z"></path>
  <circle cx="27.806" cy="111.517" r="2.792" fill="#EE385C"></circle>
  <circle cx="37.688" cy="111.517" r="2.792" fill="#FFCB00"></circle>
  <circle cx="47.998" cy="111.517" r="2.792" fill="#00A870"></circle>
  <path fill="#fff" stroke="#0A5A5A" stroke-linecap="square" stroke-width="1.2" d="M156 80c4.11 0 8.115.832 11.895 2.468L180 87.71v15.765a33.867 33.867 0 0 1-1.973 11.482v.015a37.294 37.294 0 0 1-5.572 10.26l-.023.03-.022.03a36.385 36.385 0 0 1-8.475 8.07 30.726 30.726 0 0 1-7.942 3.878 30.372 30.372 0 0 1-7.973-3.9 36.17 36.17 0 0 1-8.475-8.085l-.015-.023-.015-.022a37.241 37.241 0 0 1-5.535-10.23l-.007-.015-.008-.015A33.837 33.837 0 0 1 132 103.49V87.71l12.098-5.242A29.814 29.814 0 0 1 156 80Z"></path>
  <path fill="#E3F1EC" stroke="#636363" stroke-linecap="square" stroke-width=".6" d="M156 84.306c3.424 0 6.762.694 9.912 2.057l10.087 4.368v13.138a28.189 28.189 0 0 1-1.643 9.568v.013a31.128 31.128 0 0 1-4.644 8.55l-.019.025-.019.025a30.33 30.33 0 0 1-7.062 6.725 25.586 25.586 0 0 1-6.619 3.231 25.29 25.29 0 0 1-6.643-3.25 30.106 30.106 0 0 1-7.063-6.737l-.012-.019-.013-.019a31.01 31.01 0 0 1-4.612-8.525l-.007-.012-.006-.013a28.147 28.147 0 0 1-1.637-9.55v-13.15l10.081-4.368A24.844 24.844 0 0 1 156 84.306Z"></path>
  <path stroke="#00A870" stroke-linecap="square" stroke-width="2.974" d="m147.792 105.714 7.503 6.926 10.388-13.274"></path>
</svg>