<svg xmlns="http://www.w3.org/2000/svg" width="300" height="160" fill="none" viewBox="0 0 300 160">
  <path fill="#fff" stroke="#0A5A5A" stroke-linecap="square" stroke-width="1.2" d="M77.166 58.551v49.611h147.778V58.551H77.166Z"></path>
  <path fill="#E3F1EC" stroke="#999" stroke-width=".6" d="M80.334 61.718v43.278h141.444V61.718z"></path>
  <path fill="#A0C3B7" fill-rule="evenodd" d="M188.901 95.837V70.818h26.975v25.02h-26.975Z" clip-rule="evenodd"></path>
  <path fill="#0A5A5A" d="M192.063 74.062v14.254h4.205v3.987h12.301v-3.987h4.141V74.062h-20.647Z"></path>
  <path fill="#00A870" d="M193.821 74.062v7.127h1.757v-7.127h-1.757Zm3.074 0v7.127h1.757v-7.127h-1.757Zm3.075 0v7.127h1.758v-7.127h-1.758Zm3.076 0v7.127h1.758v-7.127h-1.758Zm3.075 0v7.127h1.756v-7.127h-1.756Zm3.076 0v7.127h1.757v-7.127h-1.757Z" opacity=".598"></path>
  <path fill="#A0C3B7" fill-rule="evenodd" d="M155.131 95.837V70.818h26.975v25.02h-26.975Z" clip-rule="evenodd"></path>
  <path fill="#0A5A5A" d="M158.295 74.062v14.254h4.205v3.987h12.301v-3.987h4.142V74.062h-20.648Z"></path>
  <path fill="#00A870" d="M160.053 74.062v7.127h1.758v-7.127h-1.758Zm3.074 0v7.127h1.757v-7.127h-1.757Zm3.077 0v7.127h1.756v-7.127h-1.756Zm3.075 0v7.127h1.758v-7.127h-1.758Zm3.074 0v7.127h1.757v-7.127h-1.757Zm3.076 0v7.127h1.757v-7.127h-1.757Z" opacity=".598"></path>
  <path fill="#A0C3B7" fill-rule="evenodd" d="M121.364 95.837V70.818h26.974v25.02h-26.974Z" clip-rule="evenodd"></path>
  <path fill="#0A5A5A" d="M124.528 74.062v14.254h4.205v3.987h12.301v-3.987h4.142V74.062h-20.648Z"></path>
  <path fill="#00A870" d="M126.287 74.062v7.127h1.756v-7.127h-1.756Zm3.076 0v7.127h1.757v-7.127h-1.757Zm3.073 0v7.127h1.758v-7.127h-1.758Zm3.076 0v7.127h1.757v-7.127h-1.757Zm3.074 0v7.127h1.757v-7.127h-1.757Zm3.077 0v7.127h1.756v-7.127h-1.756Z" opacity=".598"></path>
  <path fill="#A0C3B7" fill-rule="evenodd" d="M87.594 95.837V70.818h26.975v25.02H87.594Z" clip-rule="evenodd"></path>
  <path fill="#0A5A5A" d="M90.757 74.062v14.254h4.205v3.987h12.301v-3.987h4.141V74.062H90.757Z"></path>
  <path fill="#00A870" d="M109.647 81.189v-7.127h-1.757v7.127zm-3.075 0v-7.127h-1.757v7.127zm-3.076 0v-7.127h-1.757v7.127zm-3.074 0v-7.127h-1.757v7.127zm-3.076 0v-7.127h-1.757v7.127zm-3.074 0v-7.127h-1.757v7.127z" opacity=".598"></path>
  <circle cx="72.976" cy="53.304" r="17.976" fill="#0069CB"></circle>
  <path fill="#fff" d="M66.527 59.752h3.517v1.173h-4.689v-4.69h1.172v3.517Zm14.07 1.173h-4.69v-1.173h3.516v-3.516h1.173v4.69Zm-1.562-7.035H66.92v-1.172h12.115v1.172Zm-8.99-7.034h-3.518v3.517h-1.172v-4.689h4.69v1.172Zm10.551 3.517h-1.173v-3.517h-3.516v-1.172h4.69v4.69Z"></path>
  <path fill="#00A870" stroke="#fff" stroke-width="2.261" d="M212.353 94.457a.276.276 0 0 1 .195-.265l-.001-.001 15.559-4.9 15.556 4.901.005.003a.283.283 0 0 1 .203.27v19.801a13.458 13.458 0 0 1-3.685 5.938l-.01.009-.009.01c-1.318 1.295-3.692 2.877-6.007 4.261-2.286 1.365-4.403 2.473-5.139 2.829l-.719.341-.647-.324h.001c-.109-.057-.23-.113-.336-.163a12.247 12.247 0 0 1-.444-.22c-1.305-.681-3.431-1.797-5.539-3.041-2.136-1.261-4.155-2.599-5.3-3.713l-.007-.006-.008-.007a13.407 13.407 0 0 1-3.668-5.935V94.457Z"></path>
  <path stroke="#fff" stroke-linecap="square" stroke-width="1.7" d="m221.712 107.794 4.222 4.542 8.445-9.084"></path>
</svg>