<svg xmlns="http://www.w3.org/2000/svg" width="300" height="160" fill="none" viewBox="0 0 300 160">
  <path fill="#E3F1EC" stroke="#0A5A5A" stroke-linecap="square" stroke-width="1.2" d="M168 44h-68v81h68V44Z"></path>
  <path fill="#fff" stroke="#0A5A5A" stroke-linecap="square" stroke-width="1.2" d="M186 35h-75v90h75V35Z"></path>
  <path fill="#fff" stroke="#636363" stroke-linecap="square" stroke-width=".6" d="M182 39h-67v82h67V39Z"></path>
  <path fill="#E3F1EC" d="M123.496 93.46h36.538v8.769h-36.538z"></path>
  <path fill="#B7EE00" d="M140 47h24.224v7.65H140z"></path>
  <path fill="#00A870" fill-rule="evenodd" d="M129 45.167a5.834 5.834 0 1 1-.001 11.667A5.834 5.834 0 0 1 129 45.167Z" clip-rule="evenodd"></path>
  <path stroke="#F7F7F7" stroke-width=".758" d="m126.375 51 1.75 1.75 3.5-3.792"></path>
  <path fill="#2D62FA" d="M124 63h40v3h-40zm0 9h24v3h-24z"></path>
  <path fill="#E3F1EC" d="M123.496 80.308h52.615v8.769h-52.615z"></path>
  <path fill="#E3F1EC" stroke="#0A5A5A" stroke-linecap="square" stroke-linejoin="bevel" stroke-width="1.2" d="m207.753 50.729 8.411 5.409-31.37 48.784-8.41-5.408z"></path>
  <path fill="#00A870" stroke="#0A5A5A" stroke-linecap="square" stroke-width="1.2" d="m212.08 44 8.411 5.409-4.327 6.728-8.41-5.408z"></path>
  <path fill="#fff" stroke="#0A5A5A" stroke-linejoin="bevel" stroke-width="1.2" d="m185.065 104.502-8.411-5.409-4.448 16.162 12.859-10.753Z"></path>
  <path fill="#0A5A5A" d="m174.94 112.852-1.683-1.081-1.052 3.484 2.735-2.403Z"></path>
  <path fill="#fff" stroke="#0A5A5A" stroke-linecap="square" stroke-width="1.2" d="M82 101h57v24H82z"></path>
  <path fill="#32DE9B" d="M87 108h10v10H87z"></path>
  <path fill="#E3F1EC" d="M100 108h32v10h-32z"></path>
</svg>