<svg xmlns="http://www.w3.org/2000/svg" width="100" height="80" fill="none" viewBox="0 0 100 80">
  <path fill="#fff" stroke="#0A5A5A" stroke-linecap="square" stroke-width="1.2" d="M49.768 11.605c4.11 0 8.114.833 11.895 2.468l12.105 5.242V35.08a33.86 33.86 0 0 1-1.973 11.483v.015a37.316 37.316 0 0 1-5.573 10.26l-.022.03-.023.03a36.385 36.385 0 0 1-8.475 8.07 30.711 30.711 0 0 1-7.942 3.877 30.377 30.377 0 0 1-7.972-3.9 36.15 36.15 0 0 1-8.475-8.085l-.015-.022-.015-.023a37.232 37.232 0 0 1-5.535-10.23l-.008-.015-.007-.015a33.813 33.813 0 0 1-1.965-11.46v-15.78l12.097-5.242a29.815 29.815 0 0 1 11.903-2.468Z"></path>
  <path fill="#E3F1EC" stroke="#636363" stroke-linecap="square" stroke-width=".645" d="M49.767 14.123c3.682 0 7.27.746 10.656 2.21l10.844 4.697v14.123A30.33 30.33 0 0 1 69.5 45.439v.013a33.43 33.43 0 0 1-4.992 9.192l-.02.026-.02.027a32.594 32.594 0 0 1-7.593 7.23A27.515 27.515 0 0 1 49.76 65.4a27.215 27.215 0 0 1-7.142-3.493 32.388 32.388 0 0 1-7.592-7.243l-.013-.02-.014-.02a33.356 33.356 0 0 1-4.958-9.165l-.007-.013-.006-.014a30.291 30.291 0 0 1-1.76-10.266V21.03l10.837-4.697a26.709 26.709 0 0 1 10.662-2.21Z"></path>
  <path fill="#00A870" d="M47.835 47.517V28.431h7.541c.186 0 .407.01.663.027.256.009.504.035.742.08 1.034.159 1.9.512 2.598 1.06a5.079 5.079 0 0 1 1.59 2.08c.354.831.53 1.755.53 2.77 0 1.008-.18 1.931-.543 2.77a5.198 5.198 0 0 1-1.59 2.082c-.698.548-1.56.901-2.585 1.06a9.527 9.527 0 0 1-.742.08 9.869 9.869 0 0 1-.663.026h-5.182v7.051h-2.359Zm2.36-9.29h5.102c.168 0 .358-.01.57-.027a4.5 4.5 0 0 0 .623-.093c.61-.142 1.104-.398 1.484-.769.39-.38.672-.822.849-1.325a4.767 4.767 0 0 0 .265-1.564c0-.53-.089-1.047-.265-1.551a3.395 3.395 0 0 0-.849-1.339c-.38-.38-.874-.636-1.484-.768a2.79 2.79 0 0 0-.623-.093 6.964 6.964 0 0 0-.57-.027h-5.103v7.555Zm-8.695 9.29V28.431h2.36v19.086H41.5Z"></path>
</svg>