<svg xmlns="http://www.w3.org/2000/svg" width="300" height="160" fill="none" viewBox="0 0 300 160">
  <path stroke="#999" stroke-width=".6" d="m58.5 97.75 30-8.5 42.5 23.5 42 12 63-64"></path>
  <path fill="#E6E6E6" d="m98 104.25-39-3.5 28.5-8.5 40.5 23 46 12.5 63-64.5 4.5 1.5-65 67-48.5-13-30-14.5Z"></path>
  <path stroke="#0A5A5A" stroke-width="1.2" d="m87.5 92.25-28 8-1-2.5 64.5-63 26-6.5 37 19 50.5 13.5 1 2.5-63.5 64.5-44-12-42.5-23.5Z"></path>
  <path fill="#EEF8F6" d="m92.5 85.25-24 7 55.5-55.5 22.5-5.5 42.5 21.5 38 10.5-55 56-39-11-40.5-23Z"></path>
  <path fill="#D7E0DE" d="m68.5 92.25 24-7 53.5-54-22 5.5-55.5 55.5Z"></path>
  <ellipse cx="150" cy="91.75" fill="#00A870" fill-opacity=".2" rx="11" ry="5.5"></ellipse>
  <path fill="#D7E0DE" fill-rule="evenodd" d="m127.661 77.533 36.728-37.991 3.765 2.08-37.617 38.69a14 14 0 0 1-17.221 2.304l-11.458-6.732 2.739-3.043 10.764 6.337a10 10 0 0 0 12.3-1.645Z" clip-rule="evenodd"></path>
  <path fill="#EEE6C9" fill-rule="evenodd" d="m174.997 45.267 3.766 2.033-17.721 19.092L186.246 79.4l4.553 20.706-3.422 3.489-4.623-21.496-28.212-14.561 20.455-22.271Z" clip-rule="evenodd"></path>
  <path fill="#D7E0DE" fill-rule="evenodd" d="m136.409 39.192 40.333 22.184 41.662 10.605-3.1 3.198-40.045-10.054-39.668-21.817-19.514 1.43 3.498-3.588 16.834-1.958Z" clip-rule="evenodd"></path>
  <path fill="#D0EC72" fill-rule="evenodd" d="M144.414 54.633c-3.352.654-7.916 2.182-14.109 4.907-10.113 4.45-16.879 5.499-21.394 4.574-2.308-.473-4.044-1.467-5.273-2.785-.638-.579-1.152-1.478-1.417-2.858l2.94-2.908c.152.786.792 2.383 1.403 3.039.6.643 1.562 1.268 3.15 1.593 3.276.671 9.094.033 18.98-4.317 6.308-2.775 11.181-4.435 14.954-5.171 3.733-.729 6.68-.612 8.898.54 2.328 1.208 3.418 3.318 3.932 5.514.499 2.13.522 4.614.522 6.948 0 4.833.332 12.693 6.394 17.28 6.051 4.58 23.658 5.428 50.327-4.292l-5.071 5.33c-26.831 9.779-39.846 8.073-47.67 2.152-7.813-5.913-7.98-15.803-7.98-20.47 0-2.416-.04-4.432-.416-6.036-.361-1.539-.958-2.398-1.881-2.877-1.032-.535-2.897-.825-6.289-.163Z" clip-rule="evenodd"></path>
  <path fill="#fff" stroke="#0A5A5A" stroke-width="1.2" d="M150 91.788s16-14.791 16-29.067c0-9.097-7.163-16.471-16-16.471s-16 7.374-16 16.471c0 14.276 16 29.068 16 29.068Z"></path>
  <circle cx="150" cy="63.481" r="7.385" fill="#00A870"></circle>
  <path fill="#EE385C" fill-rule="evenodd" d="M174.333 111.417c7.364 0 13.334 5.969 13.334 13.333s-5.97 13.333-13.334 13.333c-7.363 0-13.333-5.969-13.333-13.333s5.97-13.333 13.333-13.333Z" clip-rule="evenodd"></path>
  <path stroke="#fff" stroke-width="1.733" d="m169 119.417 10.667 10.666m-10.667 0 10.667-10.666"></path>
</svg>