<svg xmlns="http://www.w3.org/2000/svg" width="244" height="160" fill="none" viewBox="0 0 244 160">
  <path fill="#E3F1EC" stroke="#0A5A5A" stroke-linecap="square" stroke-width="1.2" d="M64.238 42.438h116.648v79.636H64.238z"></path>
  <path fill="#fff" stroke="#636363" stroke-linecap="square" stroke-width=".785" d="M69.844 49.164h105.431v72.906H69.844z"></path>
  <path stroke="#0A5A5A" stroke-linecap="square" stroke-width="1.2" d="M54.141 122.07h135.715v5.608H54.141z"></path>
  <circle cx="76.571" cy="55.9" r="2.243" fill="#EE385C"></circle>
  <circle cx="83.302" cy="55.9" r="2.243" fill="#FFCB00"></circle>
  <circle cx="90.032" cy="55.9" r="2.243" fill="#00A870"></circle>
  <circle cx="123.496" cy="45.992" r="24.392" fill="#fff" stroke="#0A5A5A" stroke-width="1.2"></circle>
  <circle cx="123.5" cy="45.672" r="13.5" fill="#A6EF00"></circle>
  <path fill="#2B2B2B" d="M123.176 31.633c7.731 0 14 6.268 14 14 0 7.716-6.243 13.973-13.953 13.999l-.046.002-.046-.002c-7.711-.025-13.955-6.282-13.955-14 0-7.73 6.268-13.999 14-14ZM118.8 46.185c.052 3.439.587 6.516 1.41 8.75.434 1.18.937 2.094 1.468 2.703.525.602 1.027.852 1.481.858l.017.001h.018c.454-.008.956-.257 1.481-.86.53-.608 1.033-1.523 1.468-2.702.823-2.234 1.357-5.311 1.409-8.75H118.8Zm-8.477 0c.255 6.019 4.644 10.965 10.401 12.077-.611-.741-1.142-1.747-1.579-2.934-.879-2.385-1.428-5.601-1.48-9.143h-7.342Zm18.364 0c-.052 3.542-.6 6.758-1.479 9.143-.437 1.187-.969 2.193-1.58 2.934 5.756-1.111 10.145-6.058 10.399-12.077h-7.34Zm-3.061-13.183c.612.741 1.144 1.749 1.582 2.938.876 2.378 1.424 5.582 1.479 9.11h7.339c-.267-6.005-4.652-10.94-10.4-12.048Zm-4.9-.001c-5.749 1.109-10.134 6.044-10.402 12.05h7.341c.055-3.529.603-6.733 1.48-9.111.438-1.19.969-2.198 1.581-2.939Zm2.451-.232c-.459 0-.968.25-1.499.86-.531.61-1.034 1.525-1.468 2.703-.821 2.227-1.355 5.293-1.41 8.719h8.752c-.055-3.426-.589-6.492-1.409-8.719-.435-1.178-.938-2.093-1.468-2.702-.532-.61-1.04-.861-1.498-.861Z"></path>
  <ellipse cx="124.359" cy="95.849" stroke="#999" stroke-dasharray="1.57 1.57" stroke-linecap="square" stroke-width=".785" rx="38.813" ry="11.5" transform="rotate(28.948 124.359 95.849)"></ellipse>
  <ellipse cx="38.813" cy="11.5" stroke="#999" stroke-dasharray="1.57 1.57" stroke-linecap="square" stroke-width=".785" rx="38.813" ry="11.5" transform="scale(-1 1) rotate(28.948 -206.157 -262.387)"></ellipse>
  <circle cx="102.966" cy="95.852" r="3.5" fill="#05C178" stroke="#0A5A5A"></circle>
  <circle cx="146.001" cy="95.852" r="3.5" fill="#05C178" stroke="#0A5A5A"></circle>
  <circle cx="123.767" cy="82.656" r="3.5" fill="#05C178" stroke="#0A5A5A"></circle>
  <circle cx="123.767" cy="108.25" r="3.5" fill="#05C178" stroke="#0A5A5A"></circle>
</svg>