<svg xmlns="http://www.w3.org/2000/svg" width="200" height="160" fill="none" viewBox="0 0 200 160">
  <path fill="#fff" stroke="#0A5A5A" stroke-linecap="square" stroke-width="1.2" d="M10 56h24v38.77H10V56Z"></path>
  <path fill="#E3F1EC" fill-rule="evenodd" stroke="#999" stroke-width=".6" d="M11.978 57.755h20.044v35.209H11.978c-.002-11.736 0-23.473 0-35.209Z" clip-rule="evenodd"></path>
  <path fill="#0A5A5A" d="M20.033 59.371h5.298v.901h-5.298v-.9Z"></path>
  <path stroke="#999" stroke-dasharray="3.4 3.4" stroke-linecap="square" stroke-width="1.021" d="M97 80V37h21m-1 44h40M45 81h34"></path>
  <path fill="#E3F1EC" stroke="#0A5A5A" stroke-linecap="square" stroke-width="1.2" d="M146.976 65h34.38v23.472h-34.38V65Z"></path>
  <path fill="#fff" stroke="#636363" stroke-linecap="square" stroke-width=".6" d="M148.628 66.983h31.074V88.47h-31.074V66.983Z"></path>
  <path fill="#E0ECE8" d="M151 73h6.861v7.835H151zm8.699 0H177v3.056h-17.301zm0 4.779H177v3.056h-17.301z"></path>
  <path fill="#E3F1EC" stroke="#0A5A5A" stroke-linecap="square" d="M144 88h40v2.5h-40V88Z"></path>
  <circle cx="150.611" cy="68.968" r=".661" fill="#EE385C"></circle>
  <circle cx="152.595" cy="68.968" r=".661" fill="#FFCB00"></circle>
  <circle cx="154.579" cy="68.968" r=".661" fill="#00A870"></circle>
  <path fill="#fff" stroke="#0A5A5A" stroke-linecap="square" d="M26 70.2h14v24.5H26z"></path>
  <path fill="#E3F1EC" fill-rule="evenodd" stroke="#999" stroke-width=".6" d="M27.5 71.793h11v21.282h-11V71.793Z" clip-rule="evenodd"></path>
  <path fill="#0A5A5A" d="M31.174 73.1h3.348v.8h-3.348v-.8Z"></path>
  <path fill="#2B2B2B" d="M54.363 115a3.17 3.17 0 0 1-.76.06 1.68 1.68 0 0 1-.664-.148.951.951 0 0 1-.444-.432 1.282 1.282 0 0 1-.14-.516 19.997 19.997 0 0 1-.008-.596v-3.888h.712v3.856c0 .176.001.327.004.452a.72.72 0 0 0 .084.324.585.585 0 0 0 .456.3c.21.029.464.021.76-.024V115Zm-2.892-3.732v-.588h2.892v.588H51.47ZM50.19 115v-2.164c0-.205-.018-.403-.055-.592a1.482 1.482 0 0 0-.188-.508.972.972 0 0 0-.36-.36 1.105 1.105 0 0 0-.568-.132 1.26 1.26 0 0 0-.488.092.954.954 0 0 0-.372.272 1.32 1.32 0 0 0-.244.464 2.25 2.25 0 0 0-.084.652l-.468-.144c0-.419.075-.777.224-1.076.152-.301.364-.532.636-.692.275-.163.597-.244.968-.244.28 0 .518.044.716.132.197.088.361.205.492.352.13.144.233.307.308.488.075.179.127.361.156.548.032.184.048.359.048.524V115h-.72Zm-3.08 0v-4.32h.64v1.156h.08V115h-.72Zm-2.733.12a2.15 2.15 0 0 1-1.112-.28 1.96 1.96 0 0 1-.736-.788c-.176-.339-.264-.733-.264-1.184 0-.472.087-.88.26-1.224.174-.347.415-.613.724-.8a2.074 2.074 0 0 1 1.096-.284c.435 0 .804.1 1.108.3.307.2.536.485.688.856.155.371.221.812.2 1.324h-.72v-.256c-.008-.531-.116-.927-.324-1.188-.208-.264-.517-.396-.928-.396-.44 0-.775.141-1.004.424-.23.283-.344.688-.344 1.216 0 .509.115.904.344 1.184.23.28.556.42.98.42.285 0 .534-.065.744-.196.21-.131.376-.319.496-.564l.684.236a1.94 1.94 0 0 1-.76.888 2.107 2.107 0 0 1-1.132.312Zm-1.596-2.08v-.572h3.192v.572h-3.192Zm-2.188-3.124v-.736h.712v.736h-.712Zm0 5.084v-4.32h.712V115h-.712Zm-1.992 0v-5.88h.712V115h-.712Zm-3.493.12c-.573 0-1.06-.127-1.46-.38a2.44 2.44 0 0 1-.916-1.056c-.208-.451-.312-.972-.312-1.564 0-.592.104-1.113.312-1.564a2.44 2.44 0 0 1 .916-1.056c.4-.253.887-.38 1.46-.38.667 0 1.215.169 1.644.508.432.339.73.795.892 1.368l-.724.192c-.117-.429-.327-.768-.628-1.016s-.696-.372-1.184-.372c-.43 0-.787.097-1.072.292-.285.195-.5.467-.644.816a3.194 3.194 0 0 0-.22 1.212c-.003.459.068.863.212 1.212.144.347.36.619.648.816.288.195.647.292 1.076.292.488 0 .883-.124 1.184-.372.301-.251.51-.589.628-1.016l.724.192c-.163.571-.46 1.027-.892 1.368-.43.339-.977.508-1.644.508Zm-6.825 0c-.424 0-.794-.093-1.112-.28a1.959 1.959 0 0 1-.736-.788c-.176-.339-.264-.733-.264-1.184 0-.472.087-.88.26-1.224.174-.347.415-.613.724-.8a2.074 2.074 0 0 1 1.096-.284c.435 0 .804.1 1.108.3.307.2.536.485.688.856.155.371.222.812.2 1.324h-.72v-.256c-.008-.531-.116-.927-.324-1.188-.208-.264-.517-.396-.928-.396-.44 0-.774.141-1.004.424-.229.283-.344.688-.344 1.216 0 .509.115.904.344 1.184.23.28.556.42.98.42.286 0 .534-.065.744-.196.211-.131.376-.319.496-.564l.684.236a1.94 1.94 0 0 1-.76.888 2.107 2.107 0 0 1-1.132.312Zm-1.596-2.08v-.572h3.192v.572h-3.192Zm-.973 1.96a3.17 3.17 0 0 1-.76.06 1.68 1.68 0 0 1-.664-.148.951.951 0 0 1-.444-.432 1.28 1.28 0 0 1-.14-.516 19.664 19.664 0 0 1-.008-.596v-3.888h.712v3.856c0 .176.002.327.004.452a.72.72 0 0 0 .084.324.585.585 0 0 0 .456.3c.21.029.464.021.76-.024V115Zm-2.892-3.732v-.588h2.892v.588h-2.892Zm-2.485 3.852c-.429 0-.8-.097-1.112-.292a1.937 1.937 0 0 1-.716-.808 2.666 2.666 0 0 1-.252-1.184c0-.453.086-.851.256-1.192.171-.341.412-.607.724-.796.312-.192.679-.288 1.1-.288.432 0 .804.097 1.116.292.312.192.551.46.716.804.168.341.252.735.252 1.18 0 .451-.084.848-.252 1.192a1.935 1.935 0 0 1-.72.804c-.312.192-.682.288-1.112.288Zm0-.676c.448 0 .782-.149 1-.448.219-.299.328-.685.328-1.16 0-.488-.11-.876-.332-1.164-.221-.291-.553-.436-.996-.436-.301 0-.549.068-.744.204-.194.136-.34.324-.436.564-.096.24-.144.517-.144.832 0 .485.112.875.336 1.168.224.293.554.44.988.44Zm-3.558.556.004-2.764c0-.323-.087-.575-.26-.756a.869.869 0 0 0-.668-.276.973.973 0 0 0-.456.112.841.841 0 0 0-.352.344c-.09.155-.136.353-.136.596l-.376-.152a1.54 1.54 0 0 1 .188-.804c.133-.232.314-.412.544-.54.23-.128.488-.192.776-.192.45 0 .805.137 1.064.412.259.272.388.639.388 1.1L17.49 115h-.712Zm-5.168 0v-4.32h.636v1.156h.08V115h-.716Zm2.588 0 .004-2.736c0-.331-.085-.589-.256-.776-.17-.189-.397-.284-.68-.284a.873.873 0 0 0-.68.288c-.173.192-.26.447-.26.764l-.376-.224a1.417 1.417 0 0 1 .744-1.272c.23-.128.49-.192.78-.192.29 0 .544.061.76.184.216.123.383.299.5.528.117.227.176.497.176.812L14.907 115h-.708Zm-5.322.12a2.15 2.15 0 0 1-1.112-.28 1.96 1.96 0 0 1-.736-.788c-.176-.339-.264-.733-.264-1.184 0-.472.087-.88.26-1.224.174-.347.415-.613.724-.8a2.074 2.074 0 0 1 1.096-.284c.435 0 .804.1 1.108.3.307.2.536.485.688.856.155.371.222.812.2 1.324h-.72v-.256c-.008-.531-.116-.927-.324-1.188-.208-.264-.517-.396-.928-.396-.44 0-.774.141-1.004.424-.229.283-.344.688-.344 1.216 0 .509.115.904.344 1.184.23.28.556.42.98.42.286 0 .534-.065.744-.196.211-.131.376-.319.496-.564l.684.236a1.941 1.941 0 0 1-.76.888 2.107 2.107 0 0 1-1.132.312Zm-1.596-2.08v-.572h3.192v.572H7.281ZM1.88 115v-5.76h2.276a3.203 3.203 0 0 1 .424.032c.312.048.574.155.784.32.214.165.374.375.48.628.107.251.16.529.16.836 0 .445-.116.832-.348 1.16-.232.325-.572.529-1.02.612l-.272.044H2.592V115H1.88Zm3.428 0-1.136-2.344.704-.216L6.124 115h-.816Zm-2.716-2.804h1.54c.051 0 .108-.003.172-.008.067-.005.13-.015.188-.028a.927.927 0 0 0 .448-.232 1.02 1.02 0 0 0 .256-.4 1.44 1.44 0 0 0 0-.94 1.024 1.024 0 0 0-.256-.404.879.879 0 0 0-.448-.232.86.86 0 0 0-.188-.028 2.252 2.252 0 0 0-.172-.008h-1.54v2.28ZM109.833 115v-5.76h.72l3.004 4.5v-4.5h.72V115h-.72l-3.004-4.504V115h-.72Zm-4.921 0v-5.76h2.276a3.222 3.222 0 0 1 .424.032c.312.048.573.155.784.32.213.165.373.375.48.628.106.251.16.529.16.836 0 .304-.055.583-.164.836-.107.251-.267.46-.48.628a1.654 1.654 0 0 1-.78.32 3.222 3.222 0 0 1-.424.032h-1.564V115h-.712Zm.712-2.804h1.54c.05 0 .108-.003.172-.008.066-.005.129-.015.188-.028a.928.928 0 0 0 .448-.232c.117-.115.202-.248.256-.4a1.412 1.412 0 0 0 0-.94 1.036 1.036 0 0 0-.256-.404.88.88 0 0 0-.448-.232.87.87 0 0 0-.188-.028 2.267 2.267 0 0 0-.172-.008h-1.54v2.28ZM101.39 115l-1.928-5.76h.74l1.676 5.004 1.692-5.004h.74l-1.928 5.76h-.992Zm-6.282.12c-.323 0-.593-.059-.812-.176a1.251 1.251 0 0 1-.492-.472 1.286 1.286 0 0 1-.164-.64c0-.227.043-.423.128-.588a1.14 1.14 0 0 1 .368-.416c.157-.112.346-.2.564-.264.206-.056.435-.104.688-.144a23.6 23.6 0 0 1 .776-.116l.732-.1-.256.148c.008-.384-.07-.668-.232-.852-.16-.184-.437-.276-.832-.276a1.3 1.3 0 0 0-.688.18c-.195.117-.332.309-.412.576l-.676-.204c.104-.379.306-.676.604-.892.299-.216.692-.324 1.18-.324.392 0 .728.071 1.008.212.283.139.486.349.608.632.061.133.1.279.116.436.016.155.024.317.024.488V115h-.632v-1.036l.148.096c-.162.349-.39.613-.684.792-.29.179-.645.268-1.064.268Zm.108-.596a1.5 1.5 0 0 0 .664-.136 1.27 1.27 0 0 0 .456-.364 1.19 1.19 0 0 0 .224-.496 1.63 1.63 0 0 0 .064-.444c.005-.165.008-.292.008-.38l.248.108c-.232.032-.46.063-.684.092-.224.029-.436.061-.636.096-.2.032-.38.071-.54.116a1.718 1.718 0 0 0-.332.144.762.762 0 0 0-.248.228.594.594 0 0 0-.092.34c0 .117.03.229.088.336a.681.681 0 0 0 .28.26c.128.067.295.1.5.1Zm-4.113.476-1.568-4.32h.72l1.212 3.412 1.208-3.412h.724L91.831 115h-.728Zm-3.977.12c-.429 0-.8-.097-1.112-.292a1.937 1.937 0 0 1-.716-.808 2.666 2.666 0 0 1-.252-1.184c0-.453.086-.851.256-1.192.171-.341.412-.607.724-.796.312-.192.68-.288 1.1-.288.432 0 .804.097 1.116.292.312.192.551.46.716.804.168.341.252.735.252 1.18 0 .451-.084.848-.252 1.192a1.935 1.935 0 0 1-.72.804c-.312.192-.682.288-1.112.288Zm0-.676c.448 0 .782-.149 1-.448.22-.299.328-.685.328-1.16 0-.488-.11-.876-.332-1.164-.22-.291-.553-.436-.996-.436-.3 0-.549.068-.744.204-.194.136-.34.324-.436.564-.096.24-.144.517-.144.832 0 .485.112.875.336 1.168.224.293.554.44.988.44Zm-7.402.556v-5.76h.72l3.004 4.5v-4.5h.72V115h-.72l-3.004-4.504V115h-.72Z"></path>
  <rect width="78.198" height="15.64" x="118" y="28" fill="#E3F1EC" rx="3"></rect>
  <path fill="#2B2B2B" d="m186.554 38.48 1.859-2.457-1.818-2.403h.954l1.332 1.782 1.318-1.782h.954l-1.818 2.403 1.863 2.457h-.958l-1.359-1.836-1.368 1.836h-.959Zm-4.825 0 1.859-2.457-1.818-2.403h.954l1.332 1.782 1.318-1.782h.954l-1.818 2.403 1.863 2.457h-.958l-1.359-1.836-1.368 1.836h-.959Zm-4.825 0 1.858-2.457-1.818-2.403h.954l1.332 1.782 1.319-1.782h.954l-1.818 2.403 1.863 2.457h-.959l-1.359-1.836-1.368 1.836h-.958Zm-4.825 0 1.858-2.457-1.818-2.403h.954l1.332 1.782 1.319-1.782h.954l-1.818 2.403 1.863 2.457h-.959l-1.359-1.836-1.368 1.836h-.958Zm-4.826 0 1.859-2.457-1.818-2.403h.954l1.332 1.782 1.318-1.782h.954l-1.818 2.403 1.863 2.457h-.958l-1.359-1.836-1.368 1.836h-.959Zm-4.825 0 1.859-2.457-1.818-2.403h.954l1.332 1.782 1.318-1.782h.954l-1.818 2.403 1.863 2.457h-.958l-1.359-1.836-1.368 1.836h-.959Zm-4.825 0 1.859-2.457-1.818-2.403h.954l1.332 1.782 1.318-1.782h.954l-1.818 2.403 1.863 2.457h-.958l-1.359-1.836-1.368 1.836h-.959Zm-4.825 0 1.858-2.457-1.818-2.403h.954l1.332 1.782 1.319-1.782h.954l-1.818 2.403 1.863 2.457h-.959l-1.359-1.836-1.368 1.836h-.958ZM151.511 32h.814l-1.728 6.48h-.814l1.728-6.48Zm-2.365 0h.815l-1.728 6.48h-.815l1.728-6.48Zm-3.378 5.805v-.882h.882v.882h-.882Zm.004-2.628v-.882h.882v.882h-.882Zm-3.301 3.433c-.579 0-1.054-.126-1.426-.378a1.596 1.596 0 0 1-.68-1.066l.819-.13c.066.263.218.473.455.63.237.152.531.229.882.229.333 0 .594-.07.783-.207a.66.66 0 0 0 .283-.563.541.541 0 0 0-.094-.333c-.063-.087-.194-.168-.392-.243a9.318 9.318 0 0 0-.886-.27 5.496 5.496 0 0 1-1.013-.355c-.246-.123-.421-.266-.526-.428a1.06 1.06 0 0 1-.158-.59c0-.284.078-.533.234-.746.156-.216.374-.383.653-.5.282-.117.609-.175.981-.175.369 0 .699.058.99.175.291.117.525.284.702.5.18.213.286.462.319.747l-.819.148a.883.883 0 0 0-.378-.616c-.21-.15-.481-.23-.814-.239-.315-.012-.572.044-.77.167-.195.123-.292.29-.292.5 0 .116.036.217.108.3.075.085.211.164.409.24.201.074.492.16.873.256.429.108.767.226 1.013.355.249.126.426.276.531.45.105.171.157.383.157.635 0 .468-.172.837-.517 1.107-.345.267-.821.4-1.427.4Zm-4.93.005c-.456 0-.84-.113-1.152-.338a2.134 2.134 0 0 1-.711-.922 3.44 3.44 0 0 1-.238-1.31c0-.489.079-.927.238-1.314.162-.387.399-.691.711-.913.315-.222.701-.333 1.157-.333.45 0 .837.112 1.161.337.327.222.577.527.751.914.174.387.261.823.261 1.31 0 .485-.087.922-.261 1.309a2.194 2.194 0 0 1-.751.922c-.324.225-.713.338-1.166.338Zm-2.236 2.025v-7.02h.715v3.577h.09v3.443h-.805Zm2.137-2.759c.321 0 .587-.08.797-.243.21-.162.367-.38.472-.657a2.64 2.64 0 0 0 .158-.936 2.59 2.59 0 0 0-.158-.927 1.41 1.41 0 0 0-.477-.657c-.213-.162-.484-.243-.814-.243-.315 0-.576.078-.783.234a1.363 1.363 0 0 0-.464.644c-.102.273-.153.59-.153.95 0 .353.05.67.149.949.102.276.258.493.468.652.21.156.478.234.805.234Zm-6.284.599c-.288.057-.573.08-.855.068a1.897 1.897 0 0 1-.747-.167 1.073 1.073 0 0 1-.499-.486 1.439 1.439 0 0 1-.158-.58 22.353 22.353 0 0 1-.009-.671V32.27h.801v4.338c0 .198.002.367.005.509a.808.808 0 0 0 .094.364.66.66 0 0 0 .513.337c.237.034.522.025.855-.026v.688Zm-3.253-4.198v-.662h3.253v.662h-3.253Zm6.417 4.198c-.288.057-.573.08-.855.068a1.897 1.897 0 0 1-.747-.167 1.075 1.075 0 0 1-.5-.486 1.437 1.437 0 0 1-.157-.58 22.353 22.353 0 0 1-.009-.671V32.27h.801v4.338c0 .198.001.367.004.509a.808.808 0 0 0 .095.364.66.66 0 0 0 .513.337c.237.034.522.025.855-.026v.688Zm-3.254-4.198v-.662h3.254v.662h-3.254Zm-4.603 4.198v-2.434c0-.231-.021-.453-.063-.666a1.67 1.67 0 0 0-.211-.572 1.093 1.093 0 0 0-.405-.405c-.168-.099-.381-.148-.639-.148-.201 0-.384.034-.55.103a1.08 1.08 0 0 0-.418.306 1.486 1.486 0 0 0-.275.522 2.533 2.533 0 0 0-.094.733l-.527-.161c0-.472.084-.875.252-1.211a1.84 1.84 0 0 1 .716-.778 2.098 2.098 0 0 1 1.089-.275c.315 0 .584.05.806.148.222.1.406.231.553.396.147.163.262.346.347.55.084.2.142.406.175.616.036.207.054.404.054.59v2.686h-.81Zm-3.465 0V32h.72v3.578h.09v2.902H123Zm69.767 76.636c-.515 0-.938-.112-1.268-.336a1.417 1.417 0 0 1-.604-.948l.728-.116a.915.915 0 0 0 .404.56c.21.136.472.204.784.204.296 0 .528-.061.696-.184a.587.587 0 0 0 .252-.5.481.481 0 0 0-.084-.296c-.056-.077-.172-.149-.348-.216a8.166 8.166 0 0 0-.788-.24 4.843 4.843 0 0 1-.9-.316c-.219-.109-.375-.236-.468-.38a.938.938 0 0 1-.14-.524c0-.253.069-.475.208-.664.138-.192.332-.34.58-.444.25-.104.541-.156.872-.156.328 0 .621.052.88.156.258.104.466.252.624.444.16.189.254.411.284.664l-.728.132a.787.787 0 0 0-.336-.548c-.187-.133-.428-.204-.724-.212-.28-.011-.508.039-.684.148a.5.5 0 0 0-.26.444c0 .104.032.193.096.268.066.075.188.145.364.212.178.067.437.143.776.228.381.096.681.201.9.316.221.112.378.245.472.4.093.152.14.34.14.564 0 .416-.154.744-.46.984-.307.237-.73.356-1.268.356Zm-4.487.004c-.424 0-.795-.093-1.112-.28a1.957 1.957 0 0 1-.736-.788c-.176-.339-.264-.733-.264-1.184 0-.472.087-.88.26-1.224.173-.347.415-.613.724-.8a2.073 2.073 0 0 1 1.096-.284c.435 0 .804.1 1.108.3.307.2.536.485.688.856.155.371.221.812.2 1.324h-.72v-.256c-.008-.531-.116-.927-.324-1.188-.208-.264-.517-.396-.928-.396-.44 0-.775.141-1.004.424-.229.283-.344.688-.344 1.216 0 .509.115.904.344 1.184.229.28.556.42.98.42.285 0 .533-.065.744-.196.211-.131.376-.319.496-.564l.684.236a1.939 1.939 0 0 1-.76.888 2.106 2.106 0 0 1-1.132.312Zm-1.596-2.08v-.572h3.192v.572h-3.192Zm-2.823 2.08c-.438 0-.81-.097-1.116-.292a1.898 1.898 0 0 1-.696-.812 2.836 2.836 0 0 1-.248-1.176c.005-.451.089-.847.252-1.188.165-.344.401-.612.708-.804.306-.192.676-.288 1.108-.288.456 0 .848.112 1.176.336.33.224.552.531.664.92l-.704.212a1.16 1.16 0 0 0-.444-.584 1.208 1.208 0 0 0-.7-.208c-.296 0-.54.069-.732.208a1.201 1.201 0 0 0-.428.568 2.3 2.3 0 0 0-.144.828c.005.48.116.868.332 1.164.218.293.542.44.972.44.282 0 .517-.064.704-.192.186-.131.328-.319.424-.564l.72.188c-.15.403-.383.711-.7.924-.318.213-.7.32-1.148.32Zm-3.733-5.204v-.736h.712v.736h-.712Zm0 5.084v-4.32h.712V115h-.712Zm-3.099 0-1.568-4.32h.72l1.212 3.412 1.208-3.412h.724l-1.568 4.32h-.728Zm-3.866.12c-.424 0-.795-.093-1.112-.28a1.957 1.957 0 0 1-.736-.788c-.176-.339-.264-.733-.264-1.184 0-.472.086-.88.26-1.224.173-.347.414-.613.724-.8a2.073 2.073 0 0 1 1.096-.284c.434 0 .804.1 1.108.3.306.2.536.485.688.856.154.371.221.812.2 1.324h-.72v-.256c-.008-.531-.116-.927-.324-1.188-.208-.264-.518-.396-.928-.396-.44 0-.775.141-1.004.424-.23.283-.344.688-.344 1.216 0 .509.114.904.344 1.184.229.28.556.42.98.42.285 0 .533-.065.744-.196.21-.131.376-.319.496-.564l.684.236a1.945 1.945 0 0 1-.76.888 2.109 2.109 0 0 1-1.132.312Zm-1.596-2.08v-.572h3.192v.572h-3.192Zm-5.722 1.96v-5.76h1.776c.059 0 .162.001.308.004.147.003.287.013.42.032.446.059.818.221 1.116.488.302.264.528.6.68 1.008.152.408.228.857.228 1.348 0 .491-.076.94-.228 1.348a2.476 2.476 0 0 1-.68 1.012c-.298.264-.67.425-1.116.484a4.919 4.919 0 0 1-.424.032c-.146.003-.248.004-.304.004h-1.776Zm.732-.68h1.044c.102 0 .215-.003.34-.008.126-.008.235-.02.328-.036.315-.059.57-.191.764-.396.195-.205.338-.461.428-.768.091-.307.136-.637.136-.992 0-.363-.046-.697-.14-1.004a1.82 1.82 0 0 0-.428-.764 1.348 1.348 0 0 0-.76-.388 2.093 2.093 0 0 0-.332-.036 8.842 8.842 0 0 0-.336-.008h-1.044v4.4Zm-5.188.8c-.424 0-.794-.093-1.112-.28a1.964 1.964 0 0 1-.736-.788c-.176-.339-.264-.733-.264-1.184 0-.472.087-.88.26-1.224.174-.347.415-.613.724-.8a2.076 2.076 0 0 1 1.096-.284c.435 0 .804.1 1.108.3.307.2.536.485.688.856.155.371.222.812.2 1.324h-.72v-.256c-.008-.531-.116-.927-.324-1.188-.208-.264-.517-.396-.928-.396-.44 0-.774.141-1.004.424-.229.283-.344.688-.344 1.216 0 .509.115.904.344 1.184.23.28.556.42.98.42.286 0 .534-.065.744-.196.211-.131.376-.319.496-.564l.684.236a1.939 1.939 0 0 1-.76.888 2.106 2.106 0 0 1-1.132.312Zm-1.596-2.08v-.572h3.192v.572h-3.192Zm-2.823 2.08c-.437 0-.809-.097-1.116-.292a1.898 1.898 0 0 1-.696-.812 2.836 2.836 0 0 1-.248-1.176c.005-.451.089-.847.252-1.188.165-.344.401-.612.708-.804.307-.192.676-.288 1.108-.288.456 0 .848.112 1.176.336.331.224.552.531.664.92l-.704.212a1.16 1.16 0 0 0-.444-.584 1.208 1.208 0 0 0-.7-.208c-.296 0-.54.069-.732.208a1.201 1.201 0 0 0-.428.568c-.093.24-.141.516-.144.828.005.48.116.868.332 1.164.219.293.543.44.972.44.283 0 .517-.064.704-.192a1.2 1.2 0 0 0 .424-.564l.72.188c-.149.403-.383.711-.7.924-.317.213-.7.32-1.148.32Zm-3.732-5.204v-.736h.712v.736h-.712Zm0 5.084v-4.32h.712V115h-.712Zm-5.223 0v-4.556c0-.112.006-.225.016-.34.011-.117.035-.231.072-.34a.866.866 0 0 1 .184-.308.857.857 0 0 1 .324-.232c.118-.048.236-.077.356-.088.123-.011.239-.016.348-.016h.548v.592h-.508c-.21 0-.368.052-.472.156-.104.101-.156.256-.156.464V115h-.712Zm-.732-3.732v-.588h2.58v.588h-2.58Zm3.272 3.732v-4.556c0-.112.006-.225.016-.34.011-.117.035-.231.072-.34a.866.866 0 0 1 .184-.308.857.857 0 0 1 .324-.232c.118-.048.236-.077.356-.088.123-.011.239-.016.348-.016h.548v.592h-.508c-.21 0-.368.052-.472.156-.104.101-.156.256-.156.464V115h-.712Zm-.732-3.732v-.588h2.58v.588h-2.58Zm-5.711 3.852c-.574 0-1.06-.127-1.46-.38a2.435 2.435 0 0 1-.916-1.056c-.208-.451-.312-.972-.312-1.564 0-.592.104-1.113.312-1.564.21-.451.516-.803.916-1.056s.886-.38 1.46-.38c.576 0 1.064.127 1.464.38.4.253.704.605.912 1.056.208.451.312.972.312 1.564 0 .592-.104 1.113-.312 1.564a2.413 2.413 0 0 1-.912 1.056c-.4.253-.888.38-1.464.38Zm0-.68c.429.003.786-.093 1.072-.288.288-.197.502-.471.644-.82.144-.349.216-.753.216-1.212 0-.461-.072-.865-.216-1.212a1.753 1.753 0 0 0-.644-.812c-.286-.195-.643-.293-1.072-.296-.43-.003-.787.093-1.072.288a1.791 1.791 0 0 0-.64.816 3.21 3.21 0 0 0-.22 1.216c-.003.459.068.861.212 1.208a1.8 1.8 0 0 0 .644.816c.288.195.646.293 1.076.296Z"></path>
  <path fill="#fff" stroke="#0A5A5A" stroke-width="1.2" d="M97 65.6c2.331 0 4.605.443 6.766 1.313l.43.18 7.204 3.119v9.46a20.54 20.54 0 0 1-1.198 6.975l-.035.097v.008a22.738 22.738 0 0 1-3.358 6.152l-.004.006-.015.019-.012.015a22.12 22.12 0 0 1-5.157 4.912 18.61 18.61 0 0 1-4.627 2.285 18.401 18.401 0 0 1-4.642-2.298v-.001l-.369-.257a21.984 21.984 0 0 1-4.78-4.651l-.007-.011-.01-.016-.012-.015-.268-.357a22.688 22.688 0 0 1-3.102-5.873l-.013-.035-.01-.02a20.532 20.532 0 0 1-1.181-6.924v-9.471l7.199-3.12A18.035 18.035 0 0 1 97 65.6Z"></path>
  <path fill="#E3F1EC" stroke="#636363" stroke-width=".6" d="M97 68.003c2.098 0 4.144.431 6.075 1.278l6.125 2.687v8.124a17.802 17.802 0 0 1-1.011 5.96l-.017.047v.004a19.469 19.469 0 0 1-2.841 5.288l-.002.003-.012.016-.011.014a18.75 18.75 0 0 1-4.345 4.192 15.6 15.6 0 0 1-3.966 1.975 15.44 15.44 0 0 1-3.98-1.986v-.001l-.31-.219a18.639 18.639 0 0 1-4.025-3.966l-.015-.023-.012-.016-.444-.612a19.466 19.466 0 0 1-2.395-4.704l-.006-.018-.008-.016a17.754 17.754 0 0 1-1-5.93v-8.133l6.12-2.687A15.056 15.056 0 0 1 97 68.003Z"></path>
  <path stroke="#00A870" stroke-linecap="square" stroke-width="1.859" d="m91.87 81.071 4.69 4.329 6.492-8.297"></path>
  <path fill="#fff" fill-opacity=".29" fill-rule="evenodd" d="M173.167 91.167c0-.4.323-.722.722-.722h20.222a.722.722 0 1 1 0 1.444h-20.222a.722.722 0 0 1-.722-.722Z" clip-rule="evenodd"></path>
  <path fill="#fff" stroke="#636363" stroke-linecap="square" stroke-width="1.2" d="M175.333 76h17.334v5.778h-17.334V76Z"></path>
  <path fill="#E3F1EC" stroke="#0A5A5A" stroke-linecap="square" stroke-width="1.2" d="M171 81.778h26v12.278h-26V81.778Z"></path>
  <path fill="#fff" fill-rule="evenodd" stroke="#636363" stroke-linecap="square" stroke-width="1.2" d="M175.333 91.167h17.333l1.445 6.5h-20.222l1.444-6.5Z" clip-rule="evenodd"></path>
  <path fill="#EBEBEB" d="M178.8 92.81h10.4v.723h-10.4v-.722Zm-.722 1.968h11.844v.722h-11.844v-.722Z"></path>
</svg>