<svg xmlns="http://www.w3.org/2000/svg" width="300" height="160" fill="none" viewBox="0 0 300 160">
  <path fill="#fff" stroke="#0A5A5A" stroke-linecap="square" stroke-width="1.2" d="M80.392 61.994h139.217v45.425H80.392z"></path>
  <path fill="#E3F1EC" fill-rule="evenodd" stroke="#999" stroke-width=".6" d="M85.354 67.06h28.582v35.615H85.354c-.003-11.872.002-23.743 0-35.614Z" clip-rule="evenodd"></path>
  <path fill="#0A5A5A" d="m97.969 89.104-2.31-1.669 2.016-2.363-3.03-.815.88-2.71 2.898 1.188-.2-3.15h2.857l-.2 3.15 2.883-1.188.882 2.71-3.018.815 2.003 2.363-2.31 1.669-1.669-2.617-1.682 2.617Z"></path>
  <path fill="#E3F1EC" fill-rule="evenodd" stroke="#999" stroke-width=".6" d="M118.636 67.06h28.582v35.615h-28.582c-.003-11.872.001-23.743 0-35.614Z" clip-rule="evenodd"></path>
  <path fill="#0A5A5A" d="m131.251 89.104-2.31-1.669 2.016-2.363-3.031-.815.881-2.71 2.898 1.188-.201-3.15h2.858l-.201 3.15 2.884-1.188.881 2.71-3.017.815 2.003 2.363-2.31 1.669-1.669-2.617-1.682 2.617Z"></path>
  <path fill="#E3F1EC" fill-rule="evenodd" stroke="#999" stroke-width=".6" d="M151.917 67.06H180.5v35.615h-28.582c-.003-11.872.001-23.743-.001-35.614Z" clip-rule="evenodd"></path>
  <path fill="#0A5A5A" d="m164.532 89.104-2.309-1.669 2.016-2.363-3.031-.815.881-2.71 2.897 1.188-.2-3.15h2.857l-.2 3.15 2.884-1.188.881 2.71-3.017.815 2.002 2.363-2.309 1.669-1.669-2.617-1.683 2.617Z"></path>
  <path fill="#E3F1EC" fill-rule="evenodd" stroke="#999" stroke-width=".6" d="M185.199 67.06h28.582v35.615h-28.582c-.003-11.872.002-23.743 0-35.614Z" clip-rule="evenodd"></path>
  <path fill="#0A5A5A" d="m197.814 89.104-2.31-1.669 2.016-2.363-3.03-.815.881-2.71 2.897 1.188-.2-3.15h2.857l-.2 3.15 2.884-1.188.881 2.71-3.018.815 2.003 2.363-2.31 1.669-1.669-2.617-1.682 2.617Z"></path>
  <path fill="#FF8C27" fill-rule="evenodd" d="M223.8 96.507c7.363 0 13.333 5.969 13.333 13.333s-5.97 13.333-13.333 13.333c-7.364 0-13.334-5.969-13.334-13.333s5.97-13.333 13.334-13.333Z" clip-rule="evenodd"></path>
  <path stroke="#fff" stroke-width="1.733" d="M223.8 103.174v8"></path>
  <path fill="#fff" stroke="#fff" stroke-width="1.333" d="M223.133 114.507h1.333v1.333h-1.333z"></path>
  <circle cx="80.392" cy="56.844" r="27.5" fill="#E3F1EC" stroke="#0A5A5A" stroke-width="1.2"></circle>
  <circle cx="80.392" cy="56.844" r="21.5" fill="#fff" stroke="#636363" stroke-linecap="square" stroke-width=".6"></circle>
  <path stroke="#0A5A5A" stroke-linecap="square" stroke-width="1.2" d="M80.092 46.128v12.284h14.552"></path>
</svg>