<svg xmlns="http://www.w3.org/2000/svg" width="360" height="140" fill="none" viewBox="0 0 360 140">
  <rect width="360" height="140" fill="#F7F7F7" rx="8"></rect>
  <path fill="#fff" stroke="#212121" d="M126.487 46c.469 0 .881.181 1.177.48.315.317.497.764.482 1.254l.986 4.93c.338-.467.867-.781 1.484-.781.366 0 .693.11.958.3.283.206.495.5.615.842l.242.693.628-.383a1.8 1.8 0 0 1 .931-.257c.366 0 .692.11.957.301.283.205.495.5.614.842l.243.692.628-.382c.263-.16.536-.258.87-.258.491 0 .913.176 1.213.473.309.307.485.736.485 1.207v2.87c0 2.337-.13 4.456-1.556 5.775-.289.267-.669.733-1.133 1.402h-9.299c-.311-1.408-.567-2.105-.656-2.192l-5.891-5.829a1.482 1.482 0 0 1-.463-1.16c.028-.538.302-1.05.637-1.38.302-.295.777-.448 1.251-.448.437 0 .887.133 1.212.45l2.564 2.507-.916-10.292a1.65 1.65 0 0 1 .504-1.16 1.763 1.763 0 0 1 1.233-.496Z"></path>
  <path stroke="#000" stroke-linecap="round" d="M133.063 57.726c.098.552.148 1.143.148 1.773 0 .63-.099 1.419-.297 2.364m2.524-4.137c.098.552.148 1.143.148 1.773 0 .63-.099 1.419-.297 2.364m-4.601-4.137c.098.552.148 1.143.148 1.773 0 .63-.099 1.419-.297 2.364"></path>
  <g clip-path="url(#a)">
    <rect width="300" height="110.609" x="30" y="15" fill="#fff" rx="5.217"></rect>
    <path fill="url(#b)" d="M41.087 20.869H65.87v24.783H41.087z"></path>
    <circle cx="73.695" cy="26.087" r="1.957" fill="#00A870"></circle>
    <path fill="#2B2B2B" d="M79.552 29.217v-6.574h2.027l.351.005c.168.003.327.015.48.037.508.066.932.252 1.273.556.344.302.603.685.776 1.15.174.467.26.98.26 1.54s-.086 1.072-.26 1.538a2.83 2.83 0 0 1-.776 1.155c-.34.301-.765.485-1.273.552a5.922 5.922 0 0 1-.831.041h-2.027Zm.835-.776h1.192c.115 0 .245-.003.388-.009a3.92 3.92 0 0 0 .374-.041c.36-.067.65-.218.872-.452.222-.234.385-.526.489-.877.103-.35.155-.727.155-1.132 0-.414-.053-.796-.16-1.145a2.089 2.089 0 0 0-.489-.872 1.543 1.543 0 0 0-.867-.443 2.488 2.488 0 0 0-.379-.041 9.331 9.331 0 0 0-.383-.01h-1.192v5.022Zm7.516.913c-.484 0-.907-.106-1.27-.32a2.238 2.238 0 0 1-.84-.899c-.2-.386-.3-.837-.3-1.351 0-.539.099-1.004.296-1.397.198-.396.474-.7.827-.913.356-.216.773-.324 1.25-.324.497 0 .918.114 1.265.342.35.229.612.554.785.977.177.423.253.927.228 1.511h-.821v-.292c-.01-.605-.133-1.057-.37-1.356-.237-.301-.59-.452-1.06-.452-.501 0-.883.162-1.145.484-.262.323-.393.785-.393 1.388 0 .581.131 1.032.393 1.351.262.32.635.48 1.118.48.326 0 .61-.075.85-.224.24-.15.429-.364.566-.644l.78.27a2.2 2.2 0 0 1-.867 1.013 2.406 2.406 0 0 1-1.292.356Zm-1.822-2.374v-.652h3.644v.652h-3.643Zm6.235 2.237-1.79-4.93h.822l1.383 3.894 1.379-3.894h.826l-1.79 4.93h-.83Zm3.537-5.802v-.84h.813v.84h-.813Zm0 5.802v-4.93h.813v4.93h-.813Zm4.26.137c-.5 0-.924-.11-1.274-.333a2.168 2.168 0 0 1-.794-.927 3.243 3.243 0 0 1-.283-1.342c.006-.514.102-.966.287-1.356.189-.392.458-.698.808-.917.35-.22.772-.33 1.265-.33.52 0 .968.129 1.342.384.377.256.63.606.758 1.05l-.804.242a1.319 1.319 0 0 0-.506-.666 1.383 1.383 0 0 0-.799-.238c-.338 0-.617.08-.836.238a1.37 1.37 0 0 0-.488.648 2.658 2.658 0 0 0-.165.945c.007.548.133.99.38 1.329.249.334.619.502 1.109.502.322 0 .59-.073.803-.22.213-.148.375-.363.484-.643l.822.215c-.171.459-.437.81-.799 1.054-.362.244-.799.365-1.31.365Zm5.043 0c-.484 0-.907-.106-1.269-.32a2.24 2.24 0 0 1-.84-.899c-.201-.386-.301-.837-.301-1.351 0-.539.099-1.004.297-1.397.197-.396.473-.7.826-.913.356-.216.773-.324 1.251-.324.496 0 .917.114 1.264.342.35.229.612.554.786.977.176.423.252.927.228 1.511h-.822v-.292c-.009-.605-.132-1.057-.37-1.356-.237-.301-.59-.452-1.059-.452-.502 0-.884.162-1.146.484-.261.323-.392.785-.392 1.388 0 .581.131 1.032.392 1.351.262.32.635.48 1.119.48.325 0 .608-.075.849-.224.24-.15.429-.364.566-.644l.781.27a2.211 2.211 0 0 1-.868 1.013 2.404 2.404 0 0 1-1.292.356Zm-1.821-2.374v-.652h3.643v.652h-3.643Zm6.907 2.237v-6.574h.822l3.428 5.136v-5.136h.822v6.574h-.822l-3.428-5.14v5.14h-.822Zm7.75.137c-.368 0-.677-.067-.927-.2a1.434 1.434 0 0 1-.561-.54 1.464 1.464 0 0 1-.187-.73c0-.259.048-.482.146-.67.1-.193.24-.35.42-.476a2.1 2.1 0 0 1 .643-.3c.235-.065.497-.12.786-.165.292-.049.587-.093.885-.133.299-.04.577-.077.836-.114l-.292.17c.009-.44-.08-.763-.265-.973-.183-.21-.499-.315-.95-.315-.298 0-.56.068-.785.205-.222.134-.379.353-.47.657l-.772-.232a1.8 1.8 0 0 1 .69-1.018c.341-.247.789-.37 1.346-.37.448 0 .831.08 1.151.242.322.158.554.399.694.721.07.152.114.318.132.498.018.176.028.362.028.557v3.05h-.722v-1.183l.169.11c-.186.398-.446.7-.781.903-.331.204-.736.306-1.214.306Zm.123-.68c.293 0 .545-.052.758-.155.216-.107.39-.245.521-.416.131-.173.216-.362.255-.566.046-.152.07-.32.073-.506.006-.19.009-.334.009-.434l.284.123c-.265.037-.525.072-.781.105-.256.034-.498.07-.726.11-.228.036-.434.08-.616.132a1.99 1.99 0 0 0-.379.164.858.858 0 0 0-.283.26.678.678 0 0 0-.105.389c0 .134.033.261.1.383.07.122.177.22.32.297.146.076.336.114.57.114Zm9.505.543.005-3.154c0-.368-.099-.656-.297-.863a.992.992 0 0 0-.762-.315c-.183 0-.356.042-.521.128a.964.964 0 0 0-.402.392c-.103.177-.155.404-.155.68l-.429-.173a1.76 1.76 0 0 1 .215-.918c.152-.264.359-.47.621-.616a1.78 1.78 0 0 1 .885-.219c.515 0 .919.157 1.215.47.295.31.442.73.442 1.256l-.004 3.332h-.813Zm-5.898 0v-4.93h.726v1.32h.091v3.61h-.817Zm2.954 0 .004-3.122c0-.378-.097-.673-.292-.886-.195-.216-.453-.324-.776-.324-.32 0-.578.11-.776.329-.198.219-.297.51-.297.872l-.429-.256a1.613 1.613 0 0 1 .849-1.452c.262-.146.559-.219.89-.219.332 0 .621.07.868.21.246.14.436.34.57.603.134.258.201.567.201.926l-.004 3.32h-.808Zm7.042.137c-.484 0-.907-.106-1.269-.32a2.24 2.24 0 0 1-.84-.899c-.201-.386-.301-.837-.301-1.351 0-.539.099-1.004.297-1.397.198-.396.473-.7.826-.913.356-.216.773-.324 1.251-.324.496 0 .917.114 1.264.342.35.229.612.554.786.977.176.423.252.927.228 1.511h-.822v-.292c-.009-.605-.132-1.057-.37-1.356-.237-.301-.59-.452-1.059-.452-.502 0-.884.162-1.146.484-.261.323-.392.785-.392 1.388 0 .581.131 1.032.392 1.351.262.32.635.48 1.119.48.326 0 .609-.075.849-.224.24-.15.429-.364.566-.644l.781.27a2.211 2.211 0 0 1-.868 1.013 2.404 2.404 0 0 1-1.292.356Zm-1.821-2.374v-.652h3.643v.652h-3.643Z"></path>
    <path fill="#999" d="M79.46 42.174v-5.635h1.71c.06 0 .162.001.306.004.146.003.285.013.418.031.428.06.786.22 1.072.478.288.258.503.587.646.986.144.399.215.838.215 1.318 0 .48-.071.92-.215 1.32a2.38 2.38 0 0 1-.645.985 1.968 1.968 0 0 1-1.073.478c-.13.015-.27.026-.418.03a21 21 0 0 1-.306.005h-1.71Zm.595-.552h1.115c.107 0 .222-.002.345-.008.125-.008.232-.02.32-.039.33-.057.594-.19.795-.399.204-.209.352-.47.446-.783.094-.315.14-.66.14-1.037a3.64 3.64 0 0 0-.14-1.04 1.835 1.835 0 0 0-.446-.783 1.431 1.431 0 0 0-.794-.395 2.063 2.063 0 0 0-.325-.035 5.523 5.523 0 0 0-.34-.012h-1.116v4.531Zm6.452.67c-.412 0-.77-.092-1.072-.275a1.86 1.86 0 0 1-.7-.77c-.168-.332-.251-.72-.251-1.167 0-.461.082-.86.246-1.197.165-.337.395-.596.693-.779.3-.182.653-.274 1.06-.274.418 0 .774.097 1.069.29.294.19.517.464.669.822.151.357.22.784.207 1.28h-.587v-.204c-.01-.548-.129-.962-.356-1.24-.224-.28-.553-.42-.986-.42-.454 0-.802.148-1.045.443-.24.295-.36.715-.36 1.26 0 .532.12.945.36 1.24.243.292.586.438 1.03.438.302 0 .565-.069.79-.207a1.45 1.45 0 0 0 .536-.606l.536.207a1.917 1.917 0 0 1-.74.857c-.323.2-.69.301-1.1.301Zm-1.616-2.07v-.482h3.228v.481h-3.228Zm5.395 1.952-1.534-4.226h.583l1.249 3.474 1.24-3.474h.591l-1.534 4.226h-.595Zm2.91-5.028V36.5h.575v.646h-.575Zm0 5.028v-4.226h.575v4.226h-.575Zm3.502.117c-.426 0-.786-.095-1.08-.285a1.82 1.82 0 0 1-.673-.787 2.883 2.883 0 0 1-.235-1.158 2.8 2.8 0 0 1 .242-1.166c.157-.337.383-.598.677-.783.295-.188.652-.282 1.072-.282.428 0 .8.105 1.116.313.318.21.536.495.653.857l-.563.18a1.19 1.19 0 0 0-.474-.587 1.307 1.307 0 0 0-.736-.21c-.31 0-.567.07-.77.214a1.25 1.25 0 0 0-.454.591c-.1.253-.15.544-.153.873.005.506.123.913.352 1.22.23.306.572.459 1.026.459.287 0 .53-.066.731-.196a1.22 1.22 0 0 0 .462-.58l.58.173a1.842 1.842 0 0 1-.69.86c-.302.196-.663.294-1.084.294Zm4.253 0c-.412 0-.769-.091-1.072-.274a1.86 1.86 0 0 1-.7-.77c-.167-.332-.25-.72-.25-1.167 0-.461.082-.86.246-1.197.164-.337.395-.596.693-.779a2 2 0 0 1 1.06-.274c.417 0 .773.097 1.068.29.295.19.518.464.669.822.152.357.221.784.208 1.28h-.587v-.204c-.011-.548-.129-.962-.356-1.24-.225-.28-.553-.42-.986-.42-.454 0-.803.148-1.045.443-.24.295-.36.715-.36 1.26 0 .532.12.945.36 1.24.242.292.586.438 1.029.438.303 0 .566-.069.79-.207.227-.14.406-.343.537-.606l.536.207a1.919 1.919 0 0 1-.74.857c-.323.2-.69.301-1.1.301Zm-1.616-2.07v-.481h3.229v.481h-3.229Zm5.973 1.953v-5.635h.528l2.215 4.739 2.203-4.739h.536v5.63h-.548v-4.346l-2.007 4.35h-.372l-2.003-4.35v4.35h-.552Zm8.345.117c-.42 0-.779-.095-1.076-.285a1.86 1.86 0 0 1-.685-.79 2.681 2.681 0 0 1-.239-1.16c0-.443.081-.831.243-1.165.162-.334.391-.594.689-.779.3-.188.656-.282 1.068-.282.423 0 .783.096 1.08.286.3.188.528.45.685.787.159.333.239.718.239 1.154 0 .443-.08.833-.239 1.17a1.828 1.828 0 0 1-.689.783c-.3.187-.659.281-1.076.281Zm0-.551c.47 0 .819-.156 1.049-.466.229-.313.344-.719.344-1.217 0-.511-.116-.918-.348-1.221-.23-.303-.578-.454-1.045-.454-.316 0-.576.072-.783.215a1.274 1.274 0 0 0-.457.591c-.1.25-.149.54-.149.869 0 .509.117.917.352 1.225.235.305.581.458 1.037.458Zm4.506.551c-.394 0-.73-.098-1.009-.293a1.907 1.907 0 0 1-.642-.802 2.785 2.785 0 0 1-.223-1.14c0-.42.073-.797.219-1.134.149-.336.361-.602.638-.798.276-.196.608-.294.994-.294.396 0 .73.097 1.002.29.271.193.476.458.614.794.141.334.211.715.211 1.143 0 .42-.069.8-.207 1.139a1.837 1.837 0 0 1-.611.802c-.268.195-.597.293-.986.293Zm.059-.536c.3 0 .548-.073.743-.219.196-.146.342-.347.439-.603a2.5 2.5 0 0 0 .144-.876c0-.331-.048-.624-.144-.877a1.283 1.283 0 0 0-.439-.598c-.193-.144-.437-.216-.731-.216-.303 0-.553.075-.752.224-.198.148-.345.35-.442.606a2.481 2.481 0 0 0-.141.86c0 .322.049.611.145.87.099.255.247.457.442.606.196.149.441.223.736.223Zm1.326.419v-3.181h-.062v-2.454h.579v5.635h-.517Zm3.403.117c-.412 0-.77-.091-1.072-.274a1.86 1.86 0 0 1-.701-.77c-.167-.332-.25-.72-.25-1.167 0-.461.082-.86.247-1.197a1.83 1.83 0 0 1 .692-.779c.3-.182.654-.274 1.061-.274.417 0 .773.097 1.068.29.295.19.518.464.669.822.151.357.22.784.207 1.28h-.587v-.204c-.01-.548-.129-.962-.356-1.24-.224-.28-.553-.42-.986-.42-.454 0-.802.148-1.045.443-.24.295-.36.715-.36 1.26 0 .532.12.945.36 1.24.243.292.586.438 1.03.438.302 0 .566-.069.79-.207.227-.14.406-.343.536-.606l.536.207a1.917 1.917 0 0 1-.739.857c-.324.2-.69.301-1.1.301Zm-1.616-2.07v-.481h3.228v.481h-3.228Zm4.484 1.953v-5.752h.575v5.752h-.575Z"></path>
    <path stroke="#ECECEC" stroke-width=".652" d="M40.435 51.196h279.13"></path>
    <path fill="#999" d="M48.917 63.739v-4.16l-.884.53v-.537l.884-.529h.486v4.696h-.486Z"></path>
    <rect width="16.956" height="16.956" x="40.435" y="68.348" fill="#00A870" rx="2.609"></rect>
    <path stroke="#fff" stroke-width=".652" d="m45 77.077 2.608 3.01 5.218-6.522"></path>
    <path fill="#999" d="M72.307 63.834a1.64 1.64 0 0 1-.642-.124 1.45 1.45 0 0 1-.506-.352 1.42 1.42 0 0 1-.31-.552l.457-.137a.992.992 0 0 0 .385.529c.18.12.383.177.61.172a1.08 1.08 0 0 0 .537-.14.886.886 0 0 0 .35-.371c.08-.16.12-.343.12-.552 0-.32-.093-.576-.28-.77-.185-.195-.43-.293-.734-.293a1.08 1.08 0 0 0-.267.036c-.094.022-.18.054-.261.095l-.242-.382 1.826-1.686.079.196h-2.394v-.46h2.713v.467l-1.591 1.52-.007-.19c.326-.041.613-.004.861.111s.442.291.58.528c.142.235.213.511.213.828 0 .3-.066.566-.196.796a1.403 1.403 0 0 1-.532.538 1.533 1.533 0 0 1-.77.193Z"></path>
    <rect width="16.956" height="16.956" x="63.913" y="68.348" fill="#CCC" rx="2.609"></rect>
    <path fill="#999" d="M95.83 63.837a1.528 1.528 0 0 1-1.204-.564 1.613 1.613 0 0 1-.313-.607l.46-.124c.041.17.117.317.225.44.109.122.236.217.382.284.148.068.302.101.463.101.209 0 .395-.05.56-.15.168-.102.3-.237.398-.404.098-.168.147-.351.147-.551 0-.207-.05-.393-.153-.558a1.143 1.143 0 0 0-.404-.398 1.067 1.067 0 0 0-.548-.146 1.09 1.09 0 0 0-.574.146c-.161.096-.29.217-.385.362l-.437-.182.144-2.443h2.507v.46h-2.295l.238-.225-.127 2.084-.121-.16c.135-.154.298-.275.489-.362a1.44 1.44 0 0 1 .603-.13 1.532 1.532 0 0 1 1.542 1.552c0 .287-.072.55-.218.789a1.666 1.666 0 0 1-.58.57 1.534 1.534 0 0 1-.8.216Z"></path>
    <rect width="16.956" height="16.956" x="87.391" y="68.348" fill="#CCC" rx="2.609"></rect>
    <path fill="#999" d="m118.418 63.739 1.728-4.23h-2.175v-.466h2.687v.467l-1.725 4.229h-.515Z"></path>
    <rect width="16.956" height="16.956" x="110.869" y="68.348" fill="#CCC" rx="2.609"></rect>
    <path fill="#999" d="M142.806 58.949c.296 0 .563.072.802.215.241.141.433.335.574.58.141.244.212.518.212.822v1.63c0 .314-.071.594-.212.842a1.568 1.568 0 0 1-1.412.799c-.267 0-.515-.059-.743-.176a1.59 1.59 0 0 1-.561-.493l.365-.303a1.129 1.129 0 0 0 1.93-.062c.1-.174.15-.362.15-.564v-1.024l.118.137c-.135.215-.314.39-.538.522a1.397 1.397 0 0 1-.731.199 1.514 1.514 0 0 1-1.34-.77 1.547 1.547 0 0 1-.202-.786c0-.289.072-.552.215-.789a1.593 1.593 0 0 1 1.373-.78Zm0 .463a1.12 1.12 0 0 0-.959.548 1.082 1.082 0 0 0-.146.557c0 .205.048.39.146.558a1.084 1.084 0 0 0 .956.548 1.099 1.099 0 0 0 .958-.548c.1-.167.15-.353.15-.558 0-.202-.05-.387-.15-.554a1.11 1.11 0 0 0-.397-.401 1.07 1.07 0 0 0-.558-.15Z"></path>
    <rect width="16.956" height="16.956" x="134.348" y="68.348" fill="#00A870" rx="2.609"></rect>
    <path stroke="#fff" stroke-width=".652" d="m138.913 77.077 2.608 3.01 5.218-6.522"></path>
    <path fill="#999" d="M165.038 63.739v-4.16l-.884.53v-.537l.884-.529h.486v4.696h-.486Zm2.541 0v-4.16l-.884.53v-.537l.884-.529h.486v4.696h-.486Z"></path>
    <rect width="16.956" height="16.956" x="157.826" y="68.348" fill="#CCC" rx="2.609"></rect>
    <path fill="#999" d="M187.984 63.739v-4.16l-.883.53v-.537l.883-.529h.486v4.696h-.486Zm2.985.095c-.232 0-.447-.042-.642-.124a1.457 1.457 0 0 1-.506-.352 1.419 1.419 0 0 1-.309-.552l.456-.137a.993.993 0 0 0 .385.529c.18.12.384.177.61.172a1.07 1.07 0 0 0 .538-.14.89.89 0 0 0 .349-.371c.08-.16.12-.343.12-.552 0-.32-.093-.576-.28-.77-.185-.195-.43-.293-.734-.293-.085 0-.174.012-.267.036a1.116 1.116 0 0 0-.261.095l-.241-.382 1.826-1.686.078.196h-2.394v-.46h2.713v.467l-1.591 1.52-.006-.19c.326-.041.613-.004.86.111.248.115.442.291.581.528.141.235.212.511.212.828 0 .3-.065.566-.196.796a1.401 1.401 0 0 1-.531.538 1.534 1.534 0 0 1-.77.193Z"></path>
    <rect width="16.956" height="16.956" x="181.304" y="68.348" fill="#CCC" rx="2.609"></rect>
    <path fill="#999" d="M211.383 63.739v-4.16l-.884.53v-.537l.884-.529h.486v4.696h-.486Zm3.108.098a1.531 1.531 0 0 1-1.203-.564 1.623 1.623 0 0 1-.313-.607l.46-.124c.041.17.116.317.225.44.109.122.236.217.381.284.148.068.303.101.464.101.208 0 .395-.05.56-.15.168-.102.3-.237.398-.404.098-.168.147-.351.147-.551a1.04 1.04 0 0 0-.153-.558 1.138 1.138 0 0 0-.405-.398 1.065 1.065 0 0 0-.547-.146c-.222 0-.414.049-.574.146-.161.096-.29.217-.385.362l-.437-.182.143-2.443h2.508v.46h-2.296l.238-.225-.127 2.084-.12-.16c.134-.154.297-.275.489-.362.191-.087.392-.13.603-.13a1.535 1.535 0 0 1 1.542 1.552c0 .287-.073.55-.218.789a1.676 1.676 0 0 1-.581.57 1.532 1.532 0 0 1-.799.216Z"></path>
    <rect width="16.956" height="16.956" x="204.782" y="68.348" fill="#CCC" rx="2.609"></rect>
    <path fill="#999" d="M235.107 63.739v-4.16l-.884.53v-.537l.884-.529h.485v4.696h-.485Zm1.973 0 1.729-4.23h-2.175v-.466h2.687v.467l-1.725 4.229h-.516Z"></path>
    <rect width="16.956" height="16.956" x="228.261" y="68.348" fill="#CCC" rx="2.609"></rect>
    <path fill="#999" d="M258.199 63.739v-4.16l-.883.53v-.537l.883-.529h.486v4.696h-.486Zm3.269-4.79a1.572 1.572 0 0 1 1.376.796c.141.243.212.517.212.821v1.63c0 .314-.071.594-.212.842a1.57 1.57 0 0 1-1.412.799c-.268 0-.515-.059-.744-.176a1.59 1.59 0 0 1-.561-.493l.366-.303a1.12 1.12 0 0 0 .939.512c.222 0 .417-.052.587-.157a1.16 1.16 0 0 0 .554-.981v-1.024l.118.137a1.57 1.57 0 0 1-.539.522 1.394 1.394 0 0 1-.73.199 1.514 1.514 0 0 1-1.34-.77 1.547 1.547 0 0 1-.202-.786c0-.289.071-.552.215-.789.143-.239.336-.428.577-.567a1.54 1.54 0 0 1 .796-.212Zm0 .463a1.12 1.12 0 0 0-.959.548 1.083 1.083 0 0 0-.147.557c0 .205.049.39.147.558a1.083 1.083 0 0 0 .955.548c.205 0 .391-.05.558-.147a1.106 1.106 0 0 0 .003-1.914c-.167-.1-.353-.15-.557-.15Z"></path>
    <rect width="16.956" height="16.956" x="251.739" y="68.348" fill="#CCC" rx="2.609"></rect>
    <path fill="#999" d="m280.891 63.736.004-.437 2.122-1.918c.183-.165.304-.321.362-.47.061-.15.092-.306.092-.469a1.026 1.026 0 0 0-1.024-1.037c-.2 0-.379.048-.535.144a1.07 1.07 0 0 0-.372.378.995.995 0 0 0-.13.512h-.489a1.443 1.443 0 0 1 .75-1.298c.23-.13.491-.196.782-.196.285 0 .54.068.767.203.228.132.407.313.538.541.132.226.199.478.199.757 0 .195-.024.368-.072.518a1.296 1.296 0 0 1-.219.414 2.96 2.96 0 0 1-.375.391l-1.884 1.703-.075-.196h2.625v.46h-3.066Zm4.669.003v-4.16l-.884.53v-.537l.884-.529h.486v4.696h-.486Z"></path>
    <rect width="16.956" height="16.956" x="275.217" y="68.348" fill="#CCC" rx="2.609"></rect>
    <rect width="16.956" height="16.956" x="40.435" y="91.826" fill="#CCC" rx="2.609"></rect>
    <path fill="#999" d="m47.38 118.388.002-.437 2.123-1.917c.183-.166.304-.322.362-.47.061-.15.092-.307.092-.47a1.025 1.025 0 0 0-1.024-1.037c-.2 0-.379.048-.535.144-.157.096-.28.222-.372.378a.993.993 0 0 0-.13.512h-.49a1.452 1.452 0 0 1 .75-1.298c.231-.13.492-.195.783-.195.285 0 .54.067.767.202.228.132.407.313.538.541.132.226.198.478.198.757 0 .195-.024.368-.071.518a1.284 1.284 0 0 1-.219.414 2.96 2.96 0 0 1-.375.392l-1.885 1.702-.075-.196h2.625v.46H47.38Z"></path>
    <rect width="16.956" height="16.956" x="63.913" y="91.826" fill="#CCC" rx="2.609"></rect>
    <path fill="#999" d="M72.991 118.391v-.91h-2.198v-.456l1.572-3.33h.538l-1.571 3.33h1.66v-1.37h.482v1.37h.512v.456h-.512v.91h-.483Z"></path>
    <g clip-path="url(#c)">
      <path fill="#CCC" fill-rule="evenodd" d="m101.982 91.837 2.355 2.355c.007.08.011.16.011.243v.506l-3.115-3.115h.506c.082 0 .163.004.243.011Zm-3.148-.011h.738l4.776 4.775v.738l-5.514-5.513Zm-2.398 0h.738L104.348 99v.737l-7.912-7.911Zm-2.398 0h.738l9.572 9.571v.738l-10.31-10.31Zm-2.398 0h.738l11.97 11.97v.737L91.64 91.826Zm-2.31.087c.207-.055.426-.085.65-.087l14.368 14.367a2.635 2.635 0 0 1-.087.651L89.33 91.913Zm-1.428.97c.104-.14.222-.27.351-.386l15.424 15.423c-.117.13-.247.248-.387.352L87.902 92.884Zm-.51 1.888v-.336c0-.128.008-.253.026-.375l14.696 14.696a2.736 2.736 0 0 1-.375.026h-.337l-14.01-14.01Zm0 2.398v-.738l12.35 12.351h-.737L87.39 97.169Zm0 2.398v-.738l9.952 9.953h-.737l-9.216-9.215Zm0 2.398v-.738l7.555 7.555h-.738l-6.818-6.817Zm0 2.398v-.738l5.157 5.157h-.738l-4.42-4.419Zm.088 2.487a2.618 2.618 0 0 1-.089-.676v-.151l2.76 2.759H90a2.6 2.6 0 0 1-.676-.088l-1.844-1.844Z" clip-rule="evenodd"></path>
    </g>
    <path fill="#999" d="M95.892 118.489a1.561 1.561 0 0 1-1.376-.792 1.633 1.633 0 0 1-.212-.829v-1.627c0-.315.07-.596.212-.841.141-.248.333-.443.577-.584a1.63 1.63 0 0 1 .835-.215c.267 0 .515.059.743.176.23.117.419.282.564.492l-.368.304a1.108 1.108 0 0 0-.94-.516c-.219 0-.415.054-.586.16a1.158 1.158 0 0 0-.551.982v1.024l-.121-.137a1.6 1.6 0 0 1 .538-.522c.224-.133.467-.199.73-.199a1.537 1.537 0 0 1 1.546 1.555c0 .29-.073.553-.218.79a1.617 1.617 0 0 1-.578.567 1.536 1.536 0 0 1-.795.212Zm0-.466c.204 0 .39-.049.557-.147.17-.098.304-.231.401-.398.1-.167.15-.353.15-.558 0-.204-.05-.39-.15-.557a1.081 1.081 0 0 0-.397-.401 1.07 1.07 0 0 0-.558-.15 1.106 1.106 0 0 0-.959.551 1.083 1.083 0 0 0-.146.557c0 .203.049.387.146.555a1.083 1.083 0 0 0 .955.548Z"></path>
    <g clip-path="url(#d)">
      <path fill="#CCC" fill-rule="evenodd" d="m125.46 91.837 2.355 2.355c.007.08.011.16.011.243v.506l-3.115-3.115h.506c.082 0 .163.004.243.011Zm-3.148-.011h.738l4.776 4.775v.738l-5.514-5.513Zm-2.398 0h.738L127.826 99v.737l-7.912-7.911Zm-2.398 0h.738l9.572 9.571v.738l-10.31-10.31Zm-2.398 0h.738l11.97 11.97v.737l-12.708-12.707Zm-2.311.087c.208-.055.427-.085.651-.087l14.368 14.367a2.635 2.635 0 0 1-.087.651l-14.932-14.931Zm-1.427.97c.104-.14.222-.27.351-.386l15.424 15.423c-.117.13-.247.248-.387.352L111.38 92.884Zm-.511 1.888v-.336c0-.128.009-.253.027-.375l14.696 14.696a2.736 2.736 0 0 1-.375.026h-.336l-14.012-14.01Zm0 2.398v-.738l12.352 12.351h-.738l-11.614-11.613Zm0 2.398v-.738l9.953 9.953h-.737l-9.216-9.215Zm0 2.398v-.738l7.556 7.555h-.738l-6.818-6.817Zm0 2.398v-.738l5.158 5.157h-.738l-4.42-4.419Zm.089 2.487a2.606 2.606 0 0 1-.089-.676v-.151l2.759 2.759h-.15a2.6 2.6 0 0 1-.676-.088l-1.844-1.844Z" clip-rule="evenodd"></path>
    </g>
    <path fill="#999" d="M119.344 118.489c-.294 0-.553-.059-.779-.176a1.337 1.337 0 0 1-.529-.493 1.436 1.436 0 0 1-.189-.746c0-.292.071-.55.212-.776.141-.229.357-.401.646-.519l-.007.189a1.055 1.055 0 0 1-.551-.437 1.243 1.243 0 0 1-.189-.671c0-.261.06-.485.179-.672.12-.189.283-.335.489-.437.209-.102.448-.153.718-.153.269 0 .509.051.717.153.209.102.373.248.493.437.119.187.179.411.179.672 0 .245-.061.468-.183.668a1.04 1.04 0 0 1-.551.44l-.016-.189c.289.115.505.287.649.515.146.229.218.488.218.78 0 .285-.064.533-.192.746a1.32 1.32 0 0 1-.532.493 1.675 1.675 0 0 1-.782.176Zm0-.46c.296 0 .536-.081.721-.244.184-.166.277-.403.277-.711 0-.313-.092-.55-.274-.711-.183-.163-.424-.245-.724-.245s-.54.082-.721.245c-.18.161-.27.398-.27.711 0 .308.091.545.273.711.183.163.422.244.718.244Zm0-2.374c.261 0 .473-.066.636-.199.163-.134.244-.333.244-.596 0-.263-.081-.46-.244-.591-.163-.132-.375-.199-.636-.199s-.473.067-.636.199c-.161.131-.241.328-.241.591 0 .263.08.462.241.596.163.133.375.199.636.199Z"></path>
    <g clip-path="url(#e)">
      <path fill="#CCC" fill-rule="evenodd" d="m148.938 91.837 2.355 2.355c.007.08.011.16.011.243v.506l-3.115-3.115h.506c.082 0 .163.004.243.011Zm-3.147-.011h.738l4.775 4.775v.738l-5.513-5.513Zm-2.398 0h.737L151.304 99v.737l-7.911-7.911Zm-2.398 0h.738l9.571 9.571v.738l-10.309-10.31Zm-2.398 0h.738l11.969 11.97v.737l-12.707-12.707Zm-2.311.087c.208-.055.426-.085.651-.087l14.367 14.367a2.635 2.635 0 0 1-.087.651l-14.931-14.931Zm-1.427.97c.104-.14.221-.27.351-.386l15.423 15.423c-.117.13-.246.248-.387.352l-15.387-15.388Zm-.511 1.888v-.336c0-.128.009-.253.026-.375l14.696 14.696a2.714 2.714 0 0 1-.375.026h-.336l-14.011-14.01Zm0 2.398v-.738l12.351 12.351h-.738l-11.613-11.613Zm0 2.398v-.738l9.953 9.953h-.738l-9.215-9.215Zm0 2.398v-.738l7.555 7.555h-.737l-6.818-6.817Zm0 2.398v-.738l5.157 5.157h-.738l-4.419-4.419Zm.088 2.487a2.605 2.605 0 0 1-.088-.676v-.151l2.759 2.759h-.151c-.233 0-.46-.03-.675-.088l-1.845-1.844Z" clip-rule="evenodd"></path>
    </g>
    <path fill="#999" d="M140.84 118.391v-4.161l-.884.532v-.538l.884-.529h.486v4.696h-.486Zm3.255.098a1.508 1.508 0 0 1-1.33-.75 1.533 1.533 0 0 1-.202-.783v-1.826a1.51 1.51 0 0 1 .75-1.33c.232-.135.493-.202.782-.202.289 0 .549.067.78.202a1.51 1.51 0 0 1 .753 1.33v1.826c0 .289-.067.55-.202.783a1.508 1.508 0 0 1-1.331.75Zm0-.463a1.028 1.028 0 0 0 .907-.522c.093-.159.14-.334.14-.525v-1.872c0-.193-.047-.369-.14-.528a1.053 1.053 0 0 0-.907-.522c-.193 0-.369.048-.528.144a1.038 1.038 0 0 0-.518.906v1.872c0 .191.046.366.14.525a1.027 1.027 0 0 0 .906.522Z"></path>
    <rect width="16.956" height="16.956" x="157.826" y="91.826" fill="#CCC" rx="2.609"></rect>
    <path fill="#999" d="M164.449 118.391v-4.161l-.884.532v-.538l.884-.529h.486v4.696h-.486Zm1.592-.003.003-.437 2.123-1.917c.183-.166.303-.322.362-.47.061-.15.091-.307.091-.47a1.018 1.018 0 0 0-.505-.896.979.979 0 0 0-.519-.141c-.2 0-.378.048-.534.144a1.069 1.069 0 0 0-.372.378.997.997 0 0 0-.131.512h-.489c0-.285.068-.54.202-.766.135-.226.318-.403.548-.532.231-.13.492-.195.783-.195.285 0 .54.067.766.202.228.132.408.313.538.541.133.226.199.478.199.757 0 .195-.024.368-.072.518a1.27 1.27 0 0 1-.218.414 2.986 2.986 0 0 1-.375.392l-1.885 1.702-.075-.196h2.625v.46h-3.065Z"></path>
    <rect width="16.956" height="16.956" x="181.304" y="91.826" fill="#00A870" rx="2.609"></rect>
    <path stroke="#fff" stroke-width=".652" d="m185.869 100.555 2.609 3.01 5.217-6.522"></path>
    <path fill="#999" d="M187.863 118.391v-4.161l-.883.532v-.538l.883-.529h.486v4.696h-.486Zm3.791 0v-.91h-2.198v-.456l1.571-3.33h.539l-1.572 3.33h1.66v-1.37h.482v1.37h.512v.456h-.512v.91h-.482Z"></path>
    <rect width="16.956" height="16.956" x="204.782" y="91.826" fill="#CCC" rx="2.609"></rect>
    <path fill="#999" d="M211.243 118.391v-4.161l-.884.532v-.538l.884-.529h.486v4.696h-.486Zm3.311.098a1.565 1.565 0 0 1-1.377-.792 1.636 1.636 0 0 1-.212-.829v-1.627c0-.315.071-.596.212-.841a1.55 1.55 0 0 1 .578-.584c.245-.143.524-.215.834-.215.268 0 .516.059.744.176.23.117.418.282.564.492l-.368.304a1.11 1.11 0 0 0-.94-.516c-.219 0-.415.054-.587.16a1.164 1.164 0 0 0-.551.982v1.024l-.12-.137a1.6 1.6 0 0 1 .538-.522c.224-.133.467-.199.73-.199a1.533 1.533 0 0 1 1.546 1.555c0 .29-.073.553-.219.79a1.616 1.616 0 0 1-.577.567 1.536 1.536 0 0 1-.795.212Zm0-.466c.204 0 .39-.049.557-.147.17-.098.303-.231.401-.398.1-.167.15-.353.15-.558 0-.204-.05-.39-.15-.557a1.079 1.079 0 0 0-.398-.401c-.167-.1-.353-.15-.557-.15a1.11 1.11 0 0 0-.959.551 1.081 1.081 0 0 0-.147.557c0 .203.049.387.147.555a1.082 1.082 0 0 0 .956.548Z"></path>
    <rect width="16.956" height="16.956" x="228.261" y="91.826" fill="#CCC" rx="2.609"></rect>
    <path fill="#999" d="M234.852 118.391v-4.161l-.884.532v-.538l.884-.529h.486v4.696h-.486Zm3.154.098c-.293 0-.553-.059-.779-.176a1.337 1.337 0 0 1-.529-.493 1.436 1.436 0 0 1-.189-.746c0-.292.071-.55.212-.776.142-.229.357-.401.646-.519l-.007.189a1.055 1.055 0 0 1-.551-.437 1.243 1.243 0 0 1-.189-.671c0-.261.06-.485.18-.672.119-.189.282-.335.489-.437.208-.102.448-.153.717-.153.27 0 .509.051.717.153.209.102.373.248.493.437.119.187.179.411.179.672 0 .245-.061.468-.182.668-.12.2-.304.347-.551.44l-.017-.189c.289.115.506.287.649.515.146.229.219.488.219.78 0 .285-.065.533-.193.746a1.323 1.323 0 0 1-.531.493 1.68 1.68 0 0 1-.783.176Zm0-.46c.296 0 .536-.081.721-.244.185-.166.277-.403.277-.711 0-.313-.091-.55-.274-.711-.183-.163-.424-.245-.724-.245s-.54.082-.721.245c-.18.161-.27.398-.27.711 0 .308.091.545.274.711.182.163.421.244.717.244Zm0-2.374c.261 0 .473-.066.636-.199.163-.134.245-.333.245-.596 0-.263-.082-.46-.245-.591-.163-.132-.375-.199-.636-.199s-.473.067-.636.199c-.161.131-.241.328-.241.591 0 .263.08.462.241.596.163.133.375.199.636.199Z"></path>
    <rect width="16.956" height="16.956" x="251.739" y="91.826" fill="#00A870" rx="2.609"></rect>
    <path stroke="#fff" stroke-width=".652" d="m256.304 100.555 2.608 3.01 5.218-6.522"></path>
    <path fill="#999" d="m256.693 118.388.003-.437 2.123-1.917c.183-.166.303-.322.362-.47.061-.15.091-.307.091-.47a1.027 1.027 0 0 0-.505-.896.975.975 0 0 0-.518-.141c-.2 0-.379.048-.535.144a1.069 1.069 0 0 0-.372.378.986.986 0 0 0-.13.512h-.49a1.464 1.464 0 0 1 .75-1.298c.231-.13.492-.195.783-.195.285 0 .54.067.766.202.229.132.408.313.538.541.133.226.199.478.199.757 0 .195-.024.368-.071.518a1.291 1.291 0 0 1-.219.414 2.986 2.986 0 0 1-.375.392l-1.885 1.702-.075-.196h2.625v.46h-3.065Zm5.383.101c-.29 0-.55-.067-.783-.202a1.515 1.515 0 0 1-.548-.548 1.533 1.533 0 0 1-.202-.783v-1.826a1.51 1.51 0 0 1 .75-1.33 1.53 1.53 0 0 1 .783-.202 1.51 1.51 0 0 1 1.33.753c.135.23.202.49.202.779v1.826a1.5 1.5 0 0 1-.753 1.331 1.51 1.51 0 0 1-.779.202Zm0-.463a1.027 1.027 0 0 0 .906-.522c.094-.159.14-.334.14-.525v-1.872a1.038 1.038 0 0 0-.518-.906 1.002 1.002 0 0 0-.528-.144 1.053 1.053 0 0 0-.907.522c-.093.159-.14.335-.14.528v1.872c0 .191.047.366.14.525a1.028 1.028 0 0 0 .907.522Z"></path>
    <rect width="16.956" height="16.956" x="275.217" y="91.826" fill="#00A870" rx="2.609"></rect>
    <path stroke="#fff" stroke-width=".652" d="m279.782 100.555 2.609 3.01 5.217-6.522"></path>
    <path fill="#999" d="m280.302 118.388.003-.437 2.123-1.917c.183-.166.304-.322.362-.47.061-.15.092-.307.092-.47a1.028 1.028 0 0 0-.506-.896.975.975 0 0 0-.518-.141c-.2 0-.379.048-.535.144a1.069 1.069 0 0 0-.372.378.996.996 0 0 0-.13.512h-.489a1.45 1.45 0 0 1 .75-1.298c.23-.13.491-.195.782-.195.285 0 .54.067.766.202.229.132.408.313.539.541.132.226.198.478.198.757 0 .195-.023.368-.071.518a1.291 1.291 0 0 1-.219.414 2.986 2.986 0 0 1-.375.392l-1.885 1.702-.075-.196h2.625v.46h-3.065Zm3.72 0 .003-.437 2.123-1.917c.182-.166.303-.322.362-.47.061-.15.091-.307.091-.47a1.028 1.028 0 0 0-.505-.896.981.981 0 0 0-.519-.141c-.2 0-.378.048-.535.144-.156.096-.28.222-.371.378a.987.987 0 0 0-.131.512h-.489a1.458 1.458 0 0 1 .75-1.298c.23-.13.491-.195.783-.195.284 0 .54.067.766.202.228.132.408.313.538.541.133.226.199.478.199.757 0 .195-.024.368-.072.518a1.289 1.289 0 0 1-.218.414 2.986 2.986 0 0 1-.375.392l-1.885 1.702-.075-.196h2.625v.46h-3.065Z"></path>
  </g>
  <rect width="299.511" height="110.12" x="30.245" y="15.245" stroke="#ECECEC" stroke-width=".489" rx="4.973"></rect>
  <path fill="#fff" stroke="#212121" d="M168.487 79c.469 0 .881.181 1.177.48.315.317.497.764.482 1.254l.986 4.93c.338-.467.867-.781 1.484-.781.366 0 .693.11.958.3.283.206.495.5.615.842l.242.693.628-.383a1.8 1.8 0 0 1 .931-.257c.366 0 .692.11.957.301.283.205.495.5.614.841l.243.693.628-.382c.263-.16.536-.258.87-.258.491 0 .913.176 1.213.473.309.307.485.736.485 1.207v2.87c0 2.337-.13 4.456-1.556 5.775-.289.267-.669.733-1.133 1.402h-9.299c-.311-1.408-.567-2.105-.656-2.192l-5.891-5.829a1.482 1.482 0 0 1-.463-1.16c.028-.538.302-1.05.637-1.38.302-.295.777-.448 1.251-.448.437 0 .887.133 1.212.45l2.564 2.507-.916-10.292a1.65 1.65 0 0 1 .504-1.16 1.763 1.763 0 0 1 1.233-.496Z"></path>
  <path stroke="#000" stroke-linecap="round" d="M175.063 90.726c.098.552.148 1.143.148 1.773 0 .63-.099 1.419-.297 2.364m2.524-4.137c.098.552.148 1.143.148 1.773 0 .63-.099 1.419-.297 2.364m-4.601-4.137c.098.552.148 1.143.148 1.773 0 .63-.099 1.419-.297 2.364"></path>
  <defs>
    <clipPath id="a">
      <rect width="300" height="110.609" x="30" y="15" fill="#fff" rx="5.217"></rect>
    </clipPath>
    <clipPath id="c">
      <rect width="16.956" height="16.956" x="87.391" y="91.826" fill="#fff" rx="2.609"></rect>
    </clipPath>
    <clipPath id="d">
      <rect width="16.956" height="16.956" x="110.869" y="91.826" fill="#fff" rx="2.609"></rect>
    </clipPath>
    <clipPath id="e">
      <rect width="16.956" height="16.956" x="134.348" y="91.826" fill="#fff" rx="2.609"></rect>
    </clipPath>
    <pattern id="b" width="1" height="1" patternContentUnits="objectBoundingBox">
      <use href="#f" transform="scale(.00294)"></use>
    </pattern>
    <image id="f" width="340" height="340" preserveAspectRatio="none"></image>
  </defs>
</svg>