<svg xmlns="http://www.w3.org/2000/svg" width="300" height="160" fill="none" viewBox="0 0 300 160">
  <ellipse cx="234.711" cy="68.174" fill="#ECECEC" rx="14.336" ry="5.334"></ellipse>
  <ellipse cx="234.711" cy="135.204" fill="#ECECEC" rx="14.336" ry="5.334"></ellipse>
  <path stroke="#999" stroke-dasharray="4 4" stroke-linecap="square" stroke-width="1.2" d="M91.731 71.513c24.532-21.464 70.371-57.278 137.794-27.538"></path>
  <path stroke="#999" stroke-dasharray="4 4" stroke-linecap="square" stroke-width="1.2" d="M112.876 68.612c26.63-11.522 91.35-16.76 116.649 26.807"></path>
  <path fill="#fff" stroke="#0A5A5A" stroke-linecap="square" stroke-width="1.2" d="M234.712 66.57s20-16.405 20-31.516c0-10.775-8.954-19.51-20-19.51s-20 8.735-20 19.51c0 15.111 20 31.515 20 31.515Z"></path>
  <path fill="#E3F1EC" stroke="#636363" stroke-width=".589" d="M234.711 63.73s18-14.764 18-28.364c0-9.698-8.058-17.56-18-17.56-9.941 0-18 7.862-18 17.56 0 13.6 18 28.364 18 28.364Z"></path>
  <path fill="#fff" stroke="#636363" stroke-width=".6" d="M234.713 47.712c6.718 0 12.165-5.447 12.165-12.166 0-6.718-5.447-12.165-12.165-12.165-6.719 0-12.166 5.447-12.166 12.165 0 6.719 5.447 12.166 12.166 12.166Z"></path>
  <path fill="#A6EF00" stroke="#0A5A5A" stroke-linecap="square" d="M234.713 41.302a5.755 5.755 0 1 0 0-11.511 5.755 5.755 0 0 0 0 11.51Z"></path>
  <path fill="#fff" stroke="#0A5A5A" stroke-linecap="square" stroke-width="1.2" d="M234.712 134.504s20-16.404 20-31.515c0-10.776-8.954-19.51-20-19.51s-20 8.734-20 19.51c0 15.111 20 31.515 20 31.515Z"></path>
  <path fill="#E3F1EC" stroke="#636363" stroke-width=".589" d="M234.711 131.664s18-14.764 18-28.364c0-9.698-8.058-17.56-18-17.56-9.941 0-18 7.862-18 17.56 0 13.6 18 28.364 18 28.364Z"></path>
  <path fill="#fff" stroke="#636363" stroke-width=".6" d="M234.713 115.646c6.718 0 12.165-5.447 12.165-12.165 0-6.719-5.447-12.165-12.165-12.165-6.719 0-12.166 5.446-12.166 12.165 0 6.718 5.447 12.165 12.166 12.165Z"></path>
  <path fill="#A6EF00" stroke="#0A5A5A" stroke-linecap="square" d="M234.713 109.034a5.755 5.755 0 1 0 0-11.51 5.755 5.755 0 0 0 0 11.51Z"></path>
  <path fill="#E3F1EC" stroke="#0A5A5A" stroke-linecap="square" stroke-width="1.2" d="M27.481 71.191h85.95v58.679h-85.95z"></path>
  <path fill="#fff" stroke="#636363" stroke-linecap="square" stroke-width=".6" d="M31.612 76.148h77.686v53.72H31.612z"></path>
  <path stroke="#0A5A5A" stroke-linecap="square" stroke-width="1.2" d="M20.041 129.868h100V134h-100z"></path>
  <circle cx="36.569" cy="81.11" r="1.653" fill="#EE385C"></circle>
  <circle cx="41.528" cy="81.11" r="1.653" fill="#FFCB00"></circle>
  <circle cx="46.487" cy="81.11" r="1.653" fill="#00A870"></circle>
  <path fill="#fff" d="M99.823 95.42h40v38.951h-40z"></path>
  <path fill="#E3F1EC" stroke="#0A5A5A" stroke-linecap="square" stroke-width="1.2" d="M99.823 95.42h40v11.429h-40z"></path>
  <path fill="#fff" stroke="#636363" stroke-linecap="square" stroke-width=".6" d="M101.966 97.563h35.714v7.143h-35.714z"></path>
  <circle cx="105.704" cy="101.301" r=".881" fill="#00A870"></circle>
  <path fill="#E3F1EC" stroke="#0A5A5A" stroke-linecap="square" stroke-width="1.2" d="M99.823 108.991h40v11.429h-40z"></path>
  <path fill="#fff" stroke="#636363" stroke-linecap="square" stroke-width=".6" d="M101.966 111.134h35.714v7.143h-35.714z"></path>
  <circle cx="105.704" cy="114.872" r=".881" fill="#00A870"></circle>
  <path fill="#E3F1EC" stroke="#0A5A5A" stroke-linecap="square" stroke-width="1.2" d="M99.823 122.562h40v11.429h-40z"></path>
  <path fill="#fff" stroke="#636363" stroke-linecap="square" stroke-width=".6" d="M101.966 124.705h35.714v7.143h-35.714z"></path>
  <circle cx="105.704" cy="128.444" r=".881" fill="#00A870"></circle>
  <path fill="#fff" stroke="#0A5A5A" stroke-width="1.2" d="M70.041 86.057c2.331 0 4.605.443 6.766 1.313l.43.18 7.204 3.12v9.46a20.569 20.569 0 0 1-1.198 6.974l-.035.097v.008a22.73 22.73 0 0 1-3.358 6.153l-.004.005-.015.019-.012.016a22.164 22.164 0 0 1-5.157 4.911 18.598 18.598 0 0 1-4.627 2.285 18.374 18.374 0 0 1-4.642-2.298v-.001l-.369-.257a21.991 21.991 0 0 1-4.78-4.651l-.007-.011-.01-.015-.012-.016-.268-.357a22.683 22.683 0 0 1-3.102-5.873l-.013-.035-.01-.02a20.54 20.54 0 0 1-1.181-6.924v-9.47l7.199-3.12a18.035 18.035 0 0 1 7.201-1.493Z"></path>
  <path fill="#E3F1EC" stroke="#636363" stroke-width=".6" d="M70.04 88.46c2.1 0 4.145.432 6.076 1.278l6.125 2.688v8.124a17.787 17.787 0 0 1-1.011 5.959l-.017.047v.004a19.46 19.46 0 0 1-2.841 5.288l-.002.003-.012.016-.01.015a18.775 18.775 0 0 1-4.346 4.191 15.64 15.64 0 0 1-3.966 1.976 15.448 15.448 0 0 1-3.98-1.987v-.001l-.31-.218a18.65 18.65 0 0 1-4.025-3.966l-.015-.024-.012-.015-.444-.613a19.456 19.456 0 0 1-2.395-4.704l-.006-.017-.008-.017a17.756 17.756 0 0 1-1-5.93v-8.132l6.12-2.688a15.056 15.056 0 0 1 6.08-1.276Z"></path>
  <path stroke="#00A870" stroke-linecap="square" stroke-width="1.859" d="m64.911 101.529 4.69 4.328 6.492-8.296"></path>
  <path fill="#fff" d="M139.317 114.895a9.86 9.86 0 0 1 8.921 5.657 7.043 7.043 0 1 1 .542 14.065c-.077 0-.154-.005-.231-.007v.006h-19.091l-.29-.007a5.634 5.634 0 0 1 .29-11.262l.101.002c.682-4.779 4.79-8.454 9.758-8.454Z"></path>
  <path fill="#0A5A5A" d="M139.317 114.895v-.6.6Zm8.921 5.657-.542.256.176.374.412-.032-.046-.598Zm.542-.021v-.6.6Zm7.043 7.043h.6-.6Zm-7.043 7.043v.6-.6Zm-.231-.007.019-.6-.619-.02v.62h.6Zm0 .006v.6h.6v-.6h-.6Zm-19.091 0-.014.6h.014v-.6Zm-.29-.007-.03.599h.008l.008.001.014-.6Zm-5.345-5.628h-.6.6Zm5.635-5.634v-.6.6Zm.101.002-.011.6.53.009.075-.524-.594-.085Zm9.758-8.454v.6a9.261 9.261 0 0 1 8.379 5.313l.542-.256.543-.256a10.461 10.461 0 0 0-9.464-6.001v.6Zm8.921 5.657.046.598c.166-.012.331-.019.496-.019v-1.2a7.54 7.54 0 0 0-.587.023l.045.598Zm.542-.021v.6a6.442 6.442 0 0 1 6.443 6.443h1.2a7.643 7.643 0 0 0-7.643-7.643v.6Zm7.043 7.043h-.6a6.444 6.444 0 0 1-6.443 6.443v1.2a7.644 7.644 0 0 0 7.643-7.643h-.6Zm-7.043 7.043v-.6c-.065 0-.115-.004-.212-.007l-.019.6-.02.599c.058.002.161.008.251.008v-.6Zm-.231-.007h-.6v.006h1.2v-.006h-.6Zm0 .006v-.6h-19.091v1.2h19.091v-.6Zm-19.091 0 .014-.6-.29-.007-.014.6-.014.6.29.006.014-.599Zm-.29-.007.03-.599a5.037 5.037 0 0 1-4.775-5.029h-1.2c0 3.336 2.62 6.06 5.915 6.227l.03-.599Zm-5.345-5.628h.6a5.035 5.035 0 0 1 5.035-5.034v-1.2a6.235 6.235 0 0 0-6.235 6.234h.6Zm5.635-5.634v.6l.09.002.011-.6.01-.6-.111-.002v.6Zm.101.002.594.085c.64-4.488 4.499-7.939 9.164-7.939v-1.2c-5.271 0-9.628 3.899-10.352 8.969l.594.085Z"></path>
  <path fill="#E3F1EC" d="M139.584 116.724c3.688 0 6.549 2.259 7.587 5.408.215-.018.433-.027.654-.027 3.408 0 6.171 2.083 6.171 5.171 0 3.064-2.72 5.55-6.091 5.589v.002h-8.281l-.04.001-.039-.001h-8.822v-.001l-.042.001c-2.524 0-4.571-1.896-4.571-4.234 0-1.941 2.047-3.837 4.571-3.837.154 0 .307.005.457.016v-.016c0-4.458 3.782-8.072 8.446-8.072Z"></path>
  <path fill="#636363" d="M139.584 116.724v-.3.3Zm7.587 5.408-.285.094.074.223.235-.018-.024-.299Zm.654-.027v-.3.3Zm6.171 5.171h.3-.3Zm-6.091 5.589-.004-.3-.296.003v.297h.3Zm0 .002v.3h.3v-.3h-.3Zm-8.281 0v-.3h-.002l.002.3Zm-.04.001v.3-.3Zm-.039-.001.002-.3h-.002v.3Zm-8.822 0h-.3v.3h.3v-.3Zm0-.001h.3v-.303l-.302.003.002.3Zm-.042.001v.3-.3Zm-4.571-4.234h-.3.3Zm4.571-3.837v-.3.3Zm.457.016-.022.299.323.024-.001-.323h-.3Zm0-.016h-.3.3Zm8.446-8.072v.3c3.555 0 6.304 2.173 7.302 5.202l.285-.094.285-.094c-1.077-3.268-4.051-5.614-7.872-5.614v.3Zm7.587 5.408.024.299c.207-.017.417-.026.63-.026v-.6c-.229 0-.455.01-.678.028l.024.299Zm.654-.027v.3c3.304 0 5.871 2.004 5.871 4.871h.6c0-3.309-2.959-5.471-6.471-5.471v.3Zm6.171 5.171h-.3c0 2.872-2.559 5.252-5.795 5.289l.004.3.003.3c3.508-.041 6.388-2.634 6.388-5.889h-.3Zm-6.091 5.589h-.3v.002h.6v-.002h-.3Zm0 .002v-.3h-8.281v.6h8.281v-.3Zm-8.281 0-.002-.3-.029.001h-.009v.6l.031-.001h.01l-.001-.3Zm-.04.001v-.3h-.008l-.029-.001-.002.3-.001.3h.01l.03.001v-.3Zm-.039-.001v-.3h-8.822v.6h8.822v-.3Zm-8.822 0h.3v-.001h-.6v.001h.3Zm0-.001-.002-.3-.029.001h-.011v.6l.031-.001h.014l-.003-.3Zm-.042.001v-.3c-2.381 0-4.271-1.783-4.271-3.934h-.6c0 2.525 2.203 4.534 4.871 4.534v-.3Zm-4.571-4.234h.3c0-1.736 1.87-3.537 4.271-3.537v-.6c-2.648 0-4.871 1.991-4.871 4.137h.3Zm4.571-3.837v.3c.147 0 .292.005.435.015l.022-.299.022-.299a6.294 6.294 0 0 0-.479-.017v.3Zm.457.016h.3v-.016h-.6v.017l.3-.001Zm0-.016h.3c0-4.28 3.635-7.772 8.146-7.772v-.6c-4.817 0-8.746 3.736-8.746 8.372h.3Z"></path>
  <path fill="#00A870" d="m139.845 121.787 3.446 4.236h-2.419v5.178h-2.054v-5.178h-2.42l3.447-4.236Z"></path>
</svg>