<svg xmlns="http://www.w3.org/2000/svg" width="300" height="160" fill="none" viewBox="0 0 300 160">
  <ellipse cx="217.661" cy="95.316" fill="#ECECEC" rx="19.661" ry="7.316"></ellipse>
  <path fill="#fff" stroke="#0A5A5A" stroke-linecap="square" stroke-width="1.2" d="M218.429 91.978s27.428-22.497 27.428-43.22c0-14.778-12.28-26.758-27.428-26.758C203.28 22 191 33.98 191 48.757c0 20.724 27.429 43.221 27.429 43.221Z"></path>
  <path fill="#E3F1EC" stroke="#636363" stroke-width=".6" d="M218.428 25.403c13.474 0 24.385 10.655 24.385 23.782 0 9.211-6.107 18.864-12.273 26.252-3.076 3.685-6.153 6.79-8.461 8.974a97.137 97.137 0 0 1-2.788 2.54c-.336.294-.6.52-.779.672l-.084.07-.083-.07c-.18-.152-.444-.378-.781-.672a97.654 97.654 0 0 1-2.787-2.54c-2.308-2.184-5.385-5.29-8.462-8.974-6.166-7.388-12.273-17.04-12.273-26.252 0-13.127 10.911-23.782 24.386-23.782Z"></path>
  <path fill="#fff" stroke="#636363" stroke-width=".6" d="M218.429 66.116c9.215 0 16.684-7.47 16.684-16.684 0-9.214-7.469-16.684-16.684-16.684-9.214 0-16.683 7.47-16.683 16.684 0 9.214 7.469 16.684 16.683 16.684Z"></path>
  <path fill="#A6EF00" stroke="#0A5A5A" stroke-linecap="square" stroke-width="1.2" d="M218.43 57.325a7.893 7.893 0 1 0 0-15.786 7.893 7.893 0 0 0 0 15.786Z"></path>
  <ellipse cx="93.998" cy="139.451" fill="#ECECEC" rx="28.672" ry="10.668"></ellipse>
  <path fill="#fff" stroke="#0A5A5A" stroke-linecap="square" stroke-width="1.2" d="M94 138.051s40-32.808 40-63.03C134 53.47 116.091 36 94 36S54 53.47 54 75.02c0 30.223 40 63.031 40 63.031Z"></path>
  <path fill="#E3F1EC" stroke="#636363" stroke-width=".6" d="M93.999 40.824c19.723 0 35.7 15.597 35.7 34.82 0 13.485-8.936 27.595-17.931 38.371-4.49 5.379-8.982 9.912-12.35 13.099a140.136 140.136 0 0 1-4.07 3.709 90.8 90.8 0 0 1-1.138.98l-.211.177-.211-.177a90.66 90.66 0 0 1-1.14-.98 140.29 140.29 0 0 1-4.068-3.709c-3.37-3.187-7.86-7.72-12.351-13.099-8.995-10.776-17.93-24.886-17.93-38.371 0-19.223 15.976-34.82 35.7-34.82Z"></path>
  <path fill="#fff" stroke="#636363" stroke-width=".6" d="M94.001 100.335c13.437 0 24.331-10.893 24.331-24.33 0-13.437-10.894-24.33-24.331-24.33s-24.33 10.893-24.33 24.33c0 13.437 10.893 24.33 24.33 24.33Z"></path>
  <path fill="#A6EF00" stroke="#0A5A5A" stroke-linecap="square" stroke-width="1.2" d="M94.002 87.112c6.357 0 11.511-5.153 11.511-11.51 0-6.358-5.154-11.511-11.511-11.511-6.357 0-11.51 5.153-11.51 11.51 0 6.358 5.153 11.511 11.51 11.511Z"></path>
  <path stroke="#00A870" stroke-dasharray="5 5" stroke-linecap="square" stroke-width="1.5" d="M139.25 66.46c5.394-7.642 18.431-17.082 35.963-17.982m13.037 32.817c-3.896 5.394-16.903 16.903-37.761 19.78"></path>
  <path fill="#00A870" d="m174.914 43.524 9.768 3.621-8.003 6.67-1.765-10.29Zm-23.665 62.447-9.768-3.621 8.003-6.67 1.765 10.291Z"></path>
</svg>