<svg xmlns="http://www.w3.org/2000/svg" width="244" height="160" fill="none" viewBox="0 0 244 160">
  <path fill="#fff" stroke="#0A5A5A" stroke-linecap="square" stroke-width="1.2" d="M37 71h80v64H37z"></path>
  <path fill="#fff" stroke="#636363" stroke-linecap="square" stroke-width=".598" d="M40.049 74.049h73.905v57.905H40.049z"></path>
  <circle cx="44.803" cy="78.806" r="1.709" fill="#EE385C"></circle>
  <circle cx="49.931" cy="78.806" r="1.709" fill="#FFCB00"></circle>
  <circle cx="55.06" cy="78.806" r="1.709" fill="#00A870"></circle>
  <path fill="#fff" stroke="#0A5A5A" stroke-linecap="square" stroke-width="1.2" d="M126 27h80v64h-80z"></path>
  <path fill="#fff" stroke="#636363" stroke-linecap="square" stroke-width=".598" d="M129.049 30.049h73.905v57.905h-73.905z"></path>
  <circle cx="133.803" cy="34.806" r="1.709" fill="#EE385C"></circle>
  <circle cx="138.931" cy="34.806" r="1.709" fill="#FFCB00"></circle>
  <circle cx="144.06" cy="34.806" r="1.709" fill="#00A870"></circle>
  <path fill="#fff" stroke="#0A5A5A" stroke-linecap="square" stroke-width="1.2" d="M72.5 43.6h96v76.8h-96z"></path>
  <path fill="#E3F1EC" stroke="#636363" stroke-linecap="square" stroke-width=".6" d="M76.157 47.258h88.686v69.486H76.157z"></path>
  <circle cx="81.865" cy="52.965" r="2.051" fill="#EE385C"></circle>
  <circle cx="88.019" cy="52.965" r="2.051" fill="#FFCB00"></circle>
  <circle cx="94.172" cy="52.965" r="2.051" fill="#00A870"></circle>
  <path fill="#2B2B2B" d="M79.86 65.972 81 64.305l-1.11-1.625h.407l.903 1.344.903-1.344h.409L81.4 64.305l1.138 1.667h-.407l-.932-1.383-.93 1.383h-.41Zm2.772 0 1.141-1.667-1.11-1.625h.406l.903 1.344.903-1.344h.409l-1.11 1.625 1.137 1.667h-.407l-.932-1.383-.93 1.383h-.41Zm2.773 0 1.14-1.667-1.11-1.625h.406l.903 1.344.903-1.344h.41l-1.112 1.625 1.139 1.667h-.407l-.933-1.383-.93 1.383h-.41Zm2.772 0 1.14-1.667-1.11-1.625h.407l.903 1.344.902-1.344h.41l-1.111 1.625 1.138 1.667h-.407l-.932-1.383-.93 1.383h-.41Zm2.772 0 1.141-1.667-1.11-1.625h.406l.903 1.344.903-1.344h.409l-1.111 1.625 1.138 1.667h-.406l-.933-1.383-.93 1.383h-.41Zm2.773 0 1.14-1.667-1.11-1.625h.406l.903 1.344.903-1.344h.41l-1.112 1.625 1.139 1.667h-.407l-.933-1.383-.93 1.383h-.41Zm2.772 0 1.14-1.667-1.11-1.625h.407l.903 1.344.902-1.344h.41l-1.111 1.625 1.138 1.667h-.407l-.933-1.383-.93 1.383h-.409Zm2.772 0 1.141-1.667-1.11-1.625h.406l.903 1.344.903-1.344h.409l-1.111 1.625 1.138 1.667h-.407l-.932-1.383-.93 1.383h-.41Zm2.773 0 1.14-1.667-1.111-1.625h.407l.903 1.344.903-1.344h.409l-1.111 1.625 1.139 1.667h-.407l-.933-1.383-.93 1.383h-.409Zm2.772 0 1.141-1.667-1.111-1.625h.407l.902 1.344.903-1.344h.409l-1.11 1.625 1.138 1.667h-.407l-.933-1.383-.93 1.383h-.409Zm2.772 0 1.141-1.667-1.111-1.625h.407l.903 1.344.903-1.344h.409l-1.111 1.625 1.138 1.667h-.407l-.932-1.383-.93 1.383h-.41Zm2.773 0 1.14-1.667-1.111-1.625h.407l.903 1.344.903-1.344h.409l-1.111 1.625 1.139 1.667h-.407l-.933-1.383-.93 1.383h-.409Zm2.772 0 1.141-1.667-1.111-1.625h.407l.902 1.344.903-1.344h.409l-1.11 1.625 1.138 1.667h-.407l-.933-1.383-.93 1.383h-.409Zm2.772 0 1.141-1.667-1.111-1.625h.407l.903 1.344.903-1.344h.409l-1.111 1.625 1.138 1.667h-.407l-.932-1.383-.931 1.383h-.409Zm2.773 0 1.14-1.667-1.111-1.625h.407l.903 1.344.903-1.344h.409l-1.111 1.625 1.139 1.667h-.407l-.933-1.383-.93 1.383h-.409Zm2.772 0 1.141-1.667-1.111-1.625h.407l.902 1.344.903-1.344h.409l-1.11 1.625 1.138 1.667h-.407l-.933-1.383-.93 1.383h-.409Zm2.772 0 1.141-1.667-1.111-1.625h.407l.903 1.344.903-1.344h.409l-1.111 1.625 1.138 1.667h-.407l-.932-1.383-.931 1.383h-.409Zm2.773 0 1.14-1.667-1.111-1.625h.407l.903 1.344.903-1.344h.409l-1.111 1.625 1.138 1.667h-.406l-.933-1.383-.93 1.383h-.409ZM79.86 106.2l1.14-1.666-1.11-1.625h.407l.903 1.344.903-1.344h.409l-1.111 1.625 1.138 1.666h-.407l-.932-1.382-.93 1.382h-.41Zm2.772 0 1.141-1.666-1.11-1.625h.406l.903 1.344.903-1.344h.409l-1.11 1.625 1.137 1.666h-.407l-.932-1.382-.93 1.382h-.41Zm2.773 0 1.14-1.666-1.11-1.625h.406l.903 1.344.903-1.344h.41l-1.112 1.625 1.139 1.666h-.407l-.933-1.382-.93 1.382h-.41Zm2.772 0 1.14-1.666-1.11-1.625h.407l.903 1.344.902-1.344h.41l-1.111 1.625 1.138 1.666h-.407l-.932-1.382-.93 1.382h-.41Zm2.772 0 1.141-1.666-1.11-1.625h.406l.903 1.344.903-1.344h.409l-1.111 1.625 1.138 1.666h-.406l-.933-1.382-.93 1.382h-.41Zm2.773 0 1.14-1.666-1.11-1.625h.406l.903 1.344.903-1.344h.41l-1.112 1.625 1.139 1.666h-.407l-.933-1.382-.93 1.382h-.41Zm2.772 0 1.14-1.666-1.11-1.625h.407l.903 1.344.902-1.344h.41l-1.111 1.625 1.138 1.666h-.407l-.933-1.382-.93 1.382h-.409Zm2.772 0 1.141-1.666-1.11-1.625h.406l.903 1.344.903-1.344h.409l-1.111 1.625 1.138 1.666h-.407l-.932-1.382-.93 1.382h-.41Zm2.773 0 1.14-1.666-1.111-1.625h.407l.903 1.344.903-1.344h.409l-1.111 1.625 1.139 1.666h-.407l-.933-1.382-.93 1.382h-.409Zm2.772 0 1.141-1.666-1.111-1.625h.407l.902 1.344.903-1.344h.409l-1.11 1.625 1.138 1.666h-.407l-.933-1.382-.93 1.382h-.409Zm2.772 0 1.141-1.666-1.111-1.625h.407l.903 1.344.903-1.344h.409l-1.111 1.625 1.138 1.666h-.407l-.932-1.382-.93 1.382h-.41Zm2.773 0 1.14-1.666-1.111-1.625h.407l.903 1.344.903-1.344h.409l-1.111 1.625 1.139 1.666h-.407l-.933-1.382-.93 1.382h-.409Zm2.772 0 1.141-1.666-1.111-1.625h.407l.902 1.344.903-1.344h.409l-1.11 1.625 1.138 1.666h-.407l-.933-1.382-.93 1.382h-.409Zm2.772 0 1.141-1.666-1.111-1.625h.407l.903 1.344.903-1.344h.409l-1.111 1.625 1.138 1.666h-.407l-.932-1.382-.931 1.382h-.409Zm2.773 0 1.14-1.666-1.111-1.625h.407l.903 1.344.903-1.344h.409l-1.111 1.625 1.139 1.666h-.407l-.933-1.382-.93 1.382h-.409Zm2.772 0 1.141-1.666-1.111-1.625h.407l.902 1.344.903-1.344h.409l-1.11 1.625 1.138 1.666h-.407l-.933-1.382-.93 1.382h-.409Zm2.772 0 1.141-1.666-1.111-1.625h.407l.903 1.344.903-1.344h.409l-1.111 1.625 1.138 1.666h-.407l-.932-1.382-.931 1.382h-.409Zm2.773 0 1.14-1.666-1.111-1.625h.407l.903 1.344.903-1.344h.409l-1.111 1.625 1.138 1.666h-.406l-.933-1.382-.93 1.382h-.409Zm2.772 0 1.141-1.666-1.111-1.625h.407l.902 1.344.903-1.344h.409l-1.11 1.625 1.138 1.666h-.407l-.933-1.382-.93 1.382h-.409Zm2.772 0 1.141-1.666-1.111-1.625h.407l.903 1.344.903-1.344h.409l-1.111 1.625 1.138 1.666h-.407l-.932-1.382-.931 1.382h-.409Zm2.773 0 1.14-1.666-1.111-1.625h.407l.903 1.344.903-1.344h.409l-1.111 1.625 1.138 1.666h-.406l-.933-1.382-.93 1.382h-.409Zm2.772 0 1.14-1.666-1.11-1.625h.406l.903 1.344.903-1.344h.409l-1.111 1.625 1.139 1.666h-.407l-.933-1.382-.93 1.382h-.409Zm2.772 0 1.141-1.666-1.111-1.625h.407l.903 1.344.903-1.344h.409l-1.111 1.625 1.138 1.666h-.407l-.932-1.382-.931 1.382h-.409Zm2.773 0 1.14-1.666-1.111-1.625h.407l.903 1.344.903-1.344h.409l-1.111 1.625 1.138 1.666h-.406l-.933-1.382-.93 1.382h-.409Zm2.772 0 1.14-1.666-1.11-1.625h.406l.903 1.344.903-1.344h.409l-1.111 1.625 1.139 1.666h-.407l-.933-1.382-.93 1.382h-.409Zm2.772 0 1.141-1.666-1.111-1.625h.407l.903 1.344.902-1.344h.41l-1.111 1.625 1.138 1.666h-.407l-.932-1.382-.931 1.382h-.409Zm2.773 0 1.14-1.666-1.111-1.625h.407l.903 1.344.903-1.344h.409l-1.111 1.625 1.138 1.666h-.406l-.933-1.382-.93 1.382h-.409Zm2.772 0 1.14-1.666-1.11-1.625h.406l.903 1.344.903-1.344h.409l-1.111 1.625 1.139 1.666h-.407l-.933-1.382-.93 1.382h-.409ZM79.86 76.029 81 74.363l-1.11-1.626h.407l.903 1.344.903-1.344h.409L81.4 74.363l1.138 1.666h-.407l-.932-1.383-.93 1.383h-.41Zm2.772 0 1.141-1.666-1.11-1.626h.406l.903 1.344.903-1.344h.409l-1.11 1.626 1.137 1.666h-.407l-.932-1.383-.93 1.383h-.41Zm2.773 0 1.14-1.666-1.11-1.626h.406l.903 1.344.903-1.344h.41l-1.112 1.626 1.139 1.666h-.407l-.933-1.383-.93 1.383h-.41Zm16.634 0 1.14-1.666-1.111-1.626h.407l.903 1.344.903-1.344h.409l-1.111 1.626 1.139 1.666h-.407l-.933-1.383-.93 1.383h-.409Zm2.772 0 1.141-1.666-1.111-1.626h.407l.902 1.344.903-1.344h.409l-1.11 1.626 1.138 1.666h-.407l-.933-1.383-.93 1.383h-.409Zm2.772 0 1.141-1.666-1.111-1.626h.407l.903 1.344.903-1.344h.409l-1.111 1.626 1.138 1.666h-.407l-.932-1.383-.93 1.383h-.41Zm2.773 0 1.14-1.666-1.111-1.626h.407l.903 1.344.903-1.344h.409l-1.111 1.626 1.139 1.666h-.407l-.933-1.383-.93 1.383h-.409Zm2.772 0 1.141-1.666-1.111-1.626h.407l.902 1.344.903-1.344h.409l-1.11 1.626 1.138 1.666h-.407l-.933-1.383-.93 1.383h-.409Zm2.772 0 1.141-1.666-1.111-1.626h.407l.903 1.344.903-1.344h.409l-1.111 1.626 1.138 1.666h-.407l-.932-1.383-.931 1.383h-.409Zm2.773 0 1.14-1.666-1.111-1.626h.407l.903 1.344.903-1.344h.409l-1.111 1.626 1.139 1.666h-.407l-.933-1.383-.93 1.383h-.409Z"></path>
  <path fill="#EE385C" d="m88.177 76.029 1.14-1.666-1.11-1.626h.407l.903 1.344.902-1.344h.41l-1.111 1.626 1.138 1.666h-.407l-.932-1.383-.93 1.383h-.41Zm2.772 0 1.141-1.666-1.11-1.626h.406l.903 1.344.903-1.344h.409l-1.111 1.626 1.138 1.666h-.406l-.933-1.383-.93 1.383h-.41Zm2.773 0 1.14-1.666-1.11-1.626h.406l.903 1.344.903-1.344h.41l-1.112 1.626 1.139 1.666h-.407l-.933-1.383-.93 1.383h-.41Zm2.772 0 1.14-1.666-1.11-1.626h.407l.903 1.344.902-1.344h.41l-1.111 1.626 1.138 1.666h-.407l-.933-1.383-.93 1.383h-.409Zm2.772 0 1.141-1.666-1.11-1.626h.406l.903 1.344.903-1.344h.409l-1.111 1.626 1.138 1.666h-.407l-.932-1.383-.93 1.383h-.41Z"></path>
  <path fill="#2B2B2B" d="M79.86 86.086 81 84.42l-1.11-1.626h.407l.903 1.344.903-1.344h.409L81.4 84.42l1.138 1.666h-.407l-.932-1.383-.93 1.383h-.41Zm2.772 0 1.141-1.666-1.11-1.626h.406l.903 1.344.903-1.344h.409l-1.11 1.626 1.137 1.666h-.407l-.932-1.383-.93 1.383h-.41Zm2.773 0 1.14-1.666-1.11-1.626h.406l.903 1.344.903-1.344h.41l-1.112 1.626 1.139 1.666h-.407l-.933-1.383-.93 1.383h-.41Zm2.772 0 1.14-1.666-1.11-1.626h.407l.903 1.344.902-1.344h.41l-1.111 1.626 1.138 1.666h-.407l-.932-1.383-.93 1.383h-.41Zm2.772 0 1.141-1.666-1.11-1.626h.406l.903 1.344.903-1.344h.409L92.49 84.42l1.138 1.666h-.406l-.933-1.383-.93 1.383h-.41Zm2.773 0 1.14-1.666-1.11-1.626h.406l.903 1.344.903-1.344h.41l-1.112 1.626 1.139 1.666h-.407l-.933-1.383-.93 1.383h-.41Zm2.772 0 1.14-1.666-1.11-1.626h.407l.903 1.344.902-1.344h.41l-1.111 1.626 1.138 1.666h-.407l-.933-1.383-.93 1.383h-.409Zm2.772 0 1.141-1.666-1.11-1.626h.406l.903 1.344.903-1.344h.409l-1.111 1.626 1.138 1.666h-.407l-.932-1.383-.93 1.383h-.41Zm2.773 0 1.14-1.666-1.111-1.626h.407l.903 1.344.903-1.344h.409l-1.111 1.626 1.139 1.666h-.407l-.933-1.383-.93 1.383h-.409Zm19.406 0 1.141-1.666-1.111-1.626h.407l.902 1.344.903-1.344h.409l-1.11 1.626 1.138 1.666h-.407l-.933-1.383-.93 1.383h-.409Zm2.772 0 1.141-1.666-1.111-1.626h.407l.903 1.344.903-1.344h.409l-1.111 1.626 1.138 1.666h-.407l-.932-1.383-.931 1.383h-.409Zm2.773 0 1.14-1.666-1.111-1.626h.407l.903 1.344.903-1.344h.409l-1.111 1.626 1.138 1.666h-.406l-.933-1.383-.93 1.383h-.409Z"></path>
  <path fill="#00875B" d="m104.811 86.086 1.141-1.666-1.111-1.626h.407l.902 1.344.903-1.344h.409l-1.11 1.626 1.138 1.666h-.407l-.933-1.383-.93 1.383h-.409Zm2.772 0 1.141-1.666-1.111-1.626h.407l.903 1.344.903-1.344h.409l-1.111 1.626 1.138 1.666h-.407l-.932-1.383-.93 1.383h-.41Zm2.773 0 1.14-1.666-1.111-1.626h.407l.903 1.344.903-1.344h.409l-1.111 1.626 1.139 1.666h-.407l-.933-1.383-.93 1.383h-.409Zm2.772 0 1.141-1.666-1.111-1.626h.407l.902 1.344.903-1.344h.409l-1.11 1.626 1.138 1.666h-.407l-.933-1.383-.93 1.383h-.409Zm2.772 0 1.141-1.666-1.111-1.626h.407l.903 1.344.903-1.344h.409l-1.111 1.626 1.138 1.666h-.407l-.932-1.383-.931 1.383h-.409Zm2.773 0 1.14-1.666-1.111-1.626h.407l.903 1.344.903-1.344h.409l-1.111 1.626 1.139 1.666h-.407l-.933-1.383-.93 1.383h-.409Z"></path>
  <path fill="#2B2B2B" d="M79.86 96.143 81 94.477l-1.11-1.625h.407l.903 1.344.903-1.344h.409L81.4 94.477l1.138 1.666h-.407L81.2 94.76l-.93 1.383h-.41Zm2.772 0 1.141-1.666-1.11-1.625h.406l.903 1.344.903-1.344h.409l-1.11 1.625 1.137 1.666h-.407l-.932-1.383-.93 1.383h-.41Zm2.773 0 1.14-1.666-1.11-1.625h.406l.903 1.344.903-1.344h.41l-1.112 1.625 1.139 1.666h-.407l-.933-1.383-.93 1.383h-.41Zm2.772 0 1.14-1.666-1.11-1.625h.407l.903 1.344.902-1.344h.41l-1.111 1.625 1.138 1.666h-.407l-.932-1.383-.93 1.383h-.41Zm2.772 0 1.141-1.666-1.11-1.625h.406l.903 1.344.903-1.344h.409l-1.111 1.625 1.138 1.666h-.406l-.933-1.383-.93 1.383h-.41Zm2.773 0 1.14-1.666-1.11-1.625h.406l.903 1.344.903-1.344h.41l-1.112 1.625 1.139 1.666h-.407l-.933-1.383-.93 1.383h-.41Zm2.772 0 1.14-1.666-1.11-1.625h.407l.903 1.344.902-1.344h.41l-1.111 1.625 1.138 1.666h-.407l-.933-1.383-.93 1.383h-.409Zm2.772 0 1.141-1.666-1.11-1.625h.406l.903 1.344.903-1.344h.409l-1.111 1.625 1.138 1.666h-.407l-.932-1.383-.93 1.383h-.41Z"></path>
</svg>