<svg xmlns="http://www.w3.org/2000/svg" width="200" height="160" fill="none" viewBox="0 0 200 160">
  <path stroke="#0A5A5A" stroke-linecap="square" stroke-width="1.34" d="M152.497 65.275H47.499v42.255h104.998V65.275Z"></path>
  <path fill="#fff" stroke="#0A5A5A" stroke-linecap="square" stroke-width="1.2" d="M146.095 28.14H79.511v79.39h66.584V28.14Z"></path>
  <path fill="#fff" stroke="#636363" stroke-linecap="square" stroke-width=".6" d="M142.255 31.982H83.354v72.495h58.901V31.982Z"></path>
  <path fill="#32DE9B" stroke="#0A5A5A" stroke-linecap="square" stroke-width="1.2" d="M79.513 40.944h-25.61v66.585h25.61V40.944Z"></path>
  <path fill="#E3F1EC" d="m48.143 66.556 52.179 42.255L152.5 66.556v65.303l-52.178-46.737-52.179 46.737V66.556Z"></path>
  <path stroke="#0A5A5A" stroke-linecap="square" stroke-width="1.2" d="m47.5 66.556 52.498 41.615 52.499-41.615v65.303H47.499V66.556Z"></path>
  <path fill="#fff" stroke="#0A5A5A" stroke-linecap="square" stroke-linejoin="bevel" stroke-width="1.2" d="M152.497 131.858H47.499l51.859-46.097 53.139 46.097Z"></path>
  <path stroke="#00A870" stroke-width="3.532" d="M100.315 67.12h25.276"></path>
  <circle cx="100.315" cy="58.569" r="8.551" stroke="#00A870" stroke-width="3.532"></circle>
  <circle cx="126.213" cy="58.569" r="8.551" stroke="#00A870" stroke-width="3.532"></circle>
</svg>