<svg xmlns="http://www.w3.org/2000/svg" width="200" height="160" fill="none" viewBox="0 0 200 160">
  <path stroke="#fff" stroke-dasharray="3.4 3.4" stroke-linecap="square" stroke-opacity=".5" stroke-width="1.021" d="M66.085 75.036v-27.68h-24m24 29.68v34.23h-24M120.533 75v43h24m-24-43V40h24M66.085 76.036h78.448"></path>
  <circle cx="32.085" cy="111.588" r="18" fill="#2D3633" stroke="#999" stroke-linecap="square" stroke-width="1.2"></circle>
  <circle cx="32.08" cy="111.324" r="10.803" fill="#85BF00"></circle>
  <path fill="#fff" fill-opacity=".8" d="M32.087 100.385c6.186.001 11.201 5.016 11.202 11.203 0 6.184-5.013 11.199-11.197 11.203l-.007.001c-6.188 0-11.203-5.017-11.204-11.204 0-6.188 5.016-11.203 11.203-11.203h.003Zm-3.504 11.645c.042 2.751.47 5.214 1.128 7.002.348.943.752 1.675 1.176 2.162.425.488.83.687 1.197.688h.001c.367-.001.774-.2 1.2-.688.424-.487.827-1.219 1.175-2.162.658-1.788 1.085-4.251 1.126-7.002h-7.002Zm-6.782 0c.204 4.816 3.715 8.773 8.32 9.663-.488-.593-.912-1.398-1.262-2.348-.703-1.908-1.142-4.481-1.184-7.315h-5.874Zm14.695 0c-.042 2.834-.48 5.407-1.184 7.315-.35.95-.774 1.755-1.263 2.348 4.605-.89 8.115-4.848 8.319-9.663h-5.872Zm-2.447-10.549c.489.593.913 1.399 1.263 2.349.701 1.903 1.14 4.468 1.184 7.292h5.872c-.214-4.805-3.72-8.752-8.319-9.641Zm-3.927 0c-4.6.888-8.107 4.836-8.32 9.641h5.873c.044-2.824.483-5.389 1.184-7.292.35-.95.774-1.756 1.263-2.349Zm1.962-.188c-.366 0-.772.201-1.197.689-.424.488-.828 1.219-1.176 2.162-.656 1.783-1.084 4.237-1.127 6.978h7.002c-.043-2.742-.47-5.195-1.127-6.978-.347-.943-.75-1.674-1.174-2.162-.426-.488-.834-.689-1.2-.689Z"></path>
  <circle cx="93.585" cy="74" r="18" fill="#2D3633" stroke="#999" stroke-linecap="square" stroke-width="1.2"></circle>
  <path fill="#00A870" d="M91.085 84h-2.5V72.5h-4l6.5-8.5v20Zm6.5-8.5h4l-6.5 8.5V64h2.5v11.5Z"></path>
  <path fill="#2D3633" fill-rule="evenodd" stroke="#999" stroke-linecap="square" stroke-width="1.2" d="M15.085 62.041V30.506h34V62.04h-34Z" clip-rule="evenodd"></path>
  <path fill="#495450" d="M19.07 34.594V52.56h5.301v5.026h15.504V52.56h5.22V34.594H19.07Z"></path>
  <path fill="#fff" fill-opacity=".64" d="M19.07 34.594h-.3v-.3h.3v.3Zm0 17.966v.3h-.3v-.3h.3Zm5.301 0v-.3h.3v.3h-.3Zm0 5.026v.3h-.3v-.3h.3Zm15.504 0h.3v.3h-.3v-.3Zm0-5.026h-.3v-.3h.3v.3Zm5.22 0h.3v.3h-.3v-.3Zm0-17.966v-.3h.3v.3h-.3Zm-26.025 0h.3V52.56h-.6V34.594h.3Zm0 17.966v-.3h5.301v.6h-5.3v-.3Zm5.301 0h.3v5.026h-.6V52.56h.3Zm0 5.026v-.3h15.504v.6H24.371v-.3Zm15.504 0h-.3V52.56h.6v5.026h-.3Zm0-5.026v-.3h5.22v.6h-5.22v-.3Zm5.22 0h-.3V34.594h.6V52.56h-.3Zm0-17.966v.3H19.07v-.6h26.026v.3Z"></path>
  <path fill="#5C736A" d="M21.286 34.97v8.984h2.215V34.97h-2.215Zm3.875 0v8.984h2.215V34.97h-2.215Zm3.877 0v8.984h2.215V34.97h-2.215Zm3.874 0v8.984h2.215V34.97h-2.215Zm3.878 0v8.984h2.215V34.97H36.79Zm3.877 0v8.984h2.215V34.97h-2.215Z"></path>
  <path fill="#999" d="M34.416 76.506v-7.2h.9l3.755 5.625v-5.625h.9v7.2h-.9l-3.755-5.63v5.63h-.9Zm-6.956 0 2.41-7.2h1.24l2.41 7.2h-.924l-2.255-6.68h.28l-2.235 6.68h-.925Zm1.16-1.685v-.835h3.74v.835h-3.74Zm-5.735 1.685v-7.2h.89v6.355h3.34v.845h-4.23Zm26.88 67.082c-.32.064-.637.089-.95.075a2.096 2.096 0 0 1-.83-.185 1.187 1.187 0 0 1-.555-.54 1.594 1.594 0 0 1-.175-.645 24.71 24.71 0 0 1-.01-.745v-4.86h.89v4.82c0 .22.002.409.005.565a.896.896 0 0 0 .105.405.73.73 0 0 0 .57.375c.263.037.58.027.95-.03v.765Zm-3.615-4.665v-.735h3.615v.735H46.15Zm-2.969 4.815c-.53 0-.993-.117-1.39-.35a2.454 2.454 0 0 1-.92-.985c-.22-.423-.33-.917-.33-1.48 0-.59.109-1.1.326-1.53.216-.433.518-.767.905-1 .39-.237.846-.355 1.37-.355.543 0 1.005.125 1.384.375.384.25.67.607.86 1.07.194.463.277 1.015.25 1.655h-.9v-.32c-.01-.663-.144-1.158-.404-1.485-.26-.33-.647-.495-1.16-.495-.55 0-.969.177-1.255.53-.287.353-.43.86-.43 1.52 0 .637.143 1.13.43 1.48.286.35.694.525 1.224.525.357 0 .667-.082.93-.245.264-.163.47-.398.62-.705l.855.295c-.21.477-.526.847-.95 1.11-.42.26-.891.39-1.414.39Zm-1.994-2.6v-.715h3.99v.715h-3.99Zm-2.497 2.45v-2.705c0-.257-.023-.503-.07-.74a1.853 1.853 0 0 0-.235-.635c-.11-.19-.26-.34-.45-.45-.186-.11-.423-.165-.71-.165a1.56 1.56 0 0 0-.61.115c-.18.073-.335.187-.465.34-.13.153-.231.347-.305.58-.07.23-.105.502-.105.815l-.585-.18c0-.523.094-.972.28-1.345.19-.377.455-.665.795-.865.344-.203.747-.305 1.21-.305.35 0 .649.055.895.165.247.11.452.257.615.44.164.18.292.383.385.61a2.9 2.9 0 0 1 .195.685c.04.23.06.448.06.655v2.985h-.9Zm-3.85 0v-5.4h.8v1.445h.1v3.955h-.9Zm-3.725 0v-5.4h.795v1.305l-.13-.17a2.02 2.02 0 0 1 .245-.46c.104-.14.219-.255.345-.345.14-.113.299-.2.475-.26.177-.06.357-.095.54-.105.184-.013.355-.002.515.035v.835a1.694 1.694 0 0 0-.615-.04c-.223.023-.43.105-.62.245a1.33 1.33 0 0 0-.405.45 1.955 1.955 0 0 0-.195.575 3.521 3.521 0 0 0-.055.625v2.71h-.895Zm-3.568.15c-.53 0-.994-.117-1.39-.35a2.454 2.454 0 0 1-.92-.985c-.22-.423-.33-.917-.33-1.48 0-.59.108-1.1.325-1.53.216-.433.518-.767.905-1 .39-.237.846-.355 1.37-.355.543 0 1.005.125 1.385.375.383.25.67.607.86 1.07.193.463.276 1.015.25 1.655h-.9v-.32c-.01-.663-.145-1.158-.405-1.485-.26-.33-.647-.495-1.16-.495-.55 0-.969.177-1.255.53-.287.353-.43.86-.43 1.52 0 .637.143 1.13.43 1.48.286.35.695.525 1.225.525.356 0 .666-.082.93-.245.263-.163.47-.398.62-.705l.855.295a2.42 2.42 0 0 1-.95 1.11c-.42.26-.892.39-1.415.39Zm-1.995-2.6v-.715h3.99v.715h-3.99Zm-1.217 2.45c-.32.064-.637.089-.95.075a2.096 2.096 0 0 1-.83-.185 1.187 1.187 0 0 1-.555-.54 1.594 1.594 0 0 1-.175-.645 24.71 24.71 0 0 1-.01-.745v-4.86h.89v4.82c0 .22.002.409.005.565a.896.896 0 0 0 .105.405.73.73 0 0 0 .57.375c.263.037.58.027.95-.03v.765Zm-3.615-4.665v-.735h3.615v.735H20.72Zm-1.6 4.665v-2.705c0-.257-.023-.503-.07-.74a1.853 1.853 0 0 0-.235-.635c-.11-.19-.26-.34-.45-.45-.187-.11-.423-.165-.71-.165a1.56 1.56 0 0 0-.61.115c-.18.073-.335.187-.465.34-.13.153-.232.347-.305.58-.07.23-.105.502-.105.815l-.585-.18c0-.523.093-.972.28-1.345.19-.377.455-.665.795-.865.343-.203.747-.305 1.21-.305.35 0 .648.055.895.165.247.11.452.257.615.44.163.18.292.383.385.61.093.223.158.452.195.685.04.23.06.448.06.655v2.985h-.9Zm-3.85 0v-5.4h.8v1.445h.1v3.955h-.9Zm-2.385 0v-7.2h.89v7.2h-.89Z"></path>
  <path fill="#2D3633" stroke="#999" stroke-linecap="square" stroke-width="1.2" d="M145.515 75.322h7.025v12.044h-7.025V75.322Z"></path>
  <path fill="#A6EF00" stroke="#fff" stroke-linecap="square" stroke-opacity=".64" stroke-width=".615" d="M147.24 77.08h3.575v8.343h-3.575V77.08Z"></path>
  <path fill="#2D3633" stroke="#999" stroke-linecap="square" stroke-width="1.2" d="M156.375 68.296h7.026v19.07h-7.026v-19.07Zm10.838-6.022h7.026v25.092h-7.026V62.274Z"></path>
  <path fill="#A6EF00" stroke="#fff" stroke-linecap="square" stroke-opacity=".64" stroke-width=".615" d="M158.089 70.05h3.575v15.373h-3.575V70.049Zm10.849-5.854h3.575v21.227h-3.575V64.196Z"></path>
  <path fill="#2D3633" stroke="#999" stroke-linecap="square" stroke-width="1.2" d="M141.696 87.367h35.073v2.36h-35.073v-2.36Z"></path>
  <path fill="#242424" stroke="#999" stroke-linecap="square" stroke-width="1.2" d="M144.095 26.849h32.877V53.15h-32.877V26.849Z"></path>
  <path fill="#2D3633" stroke="#fff" stroke-linecap="square" stroke-opacity=".64" stroke-width=".32" d="M146.316 28.861h28.434v22.278h-28.434z"></path>
  <path fill="#A6EF00" stroke="#fff" stroke-linecap="square" stroke-opacity=".64" stroke-width=".32" d="M152.917 44.051c-2.031-1.62-5.247-1.013-6.601-.506v7.594h28.434v-4.556c-2.538.506-3.046-2.026-6.6-2.532-3.555-.506-5.586 2.025-8.124 2.532-2.539.506-4.57-.507-7.109-2.532Z"></path>
  <path fill="#05C178" d="M148.05 31.49h2.241v2.333h-2.241zm0 4.334h2.241v2.333h-2.241z"></path>
  <path fill="#454C4A" d="M151.892 35.824h9.282v2.333h-9.282v-2.333Zm0-4.334h9.282v2.334h-9.282V31.49Zm11.522 0h9.602v2.333h-9.602z"></path>
  <path fill="#00A870" stroke="#242424" stroke-linecap="square" stroke-width=".32" d="m165.516 38.724 2.559-3.774 2.498 3.774h-1.558v3.779h-1.885v-3.779h-1.614Z"></path>
  <circle cx="171.747" cy="84.923" r="10.193" fill="#fff" fill-opacity=".4" stroke="#999" stroke-linecap="square" stroke-width="1.2"></circle>
  <path fill="#2D3633" d="M164.198 78.097c3.77-4.17 10.206-4.494 14.376-.724 4.169 3.77 4.493 10.207.723 14.377-3.77 4.169-10.207 4.492-14.376.722-4.169-3.77-4.493-10.206-.723-14.375Zm1.849 1.672a7.685 7.685 0 1 0 11.401 10.308 7.685 7.685 0 0 0-11.401-10.308Z"></path>
  <path fill="#999" d="m164.198 78.097-.256-.231.256.231Zm14.376-.724.231-.256-.231.256Zm.723 14.377.256.23-.256-.23Zm-14.376.722-.231.256.231-.256Zm1.126-12.703-.256-.231.256.231Zm.546 10.854-.231.256.231-.256Zm10.854-.546.255.231h.001l-.256-.231Zm-.546-10.854.231-.256-.231.256Zm-12.703-1.126.255.231c3.643-4.028 9.861-4.341 13.889-.7l.232-.255.231-.256c-4.311-3.897-10.965-3.562-14.863.749l.256.231Zm14.376-.724-.232.256c4.028 3.642 4.341 9.861.699 13.89l.256.23.256.232c3.897-4.31 3.562-10.966-.748-14.864l-.231.256Zm.723 14.377-.256-.231c-3.642 4.027-9.861 4.34-13.889.698l-.231.255-.231.256c4.31 3.897 10.965 3.563 14.863-.747l-.256-.231Zm-14.376.722.231-.255c-4.028-3.643-4.341-9.86-.699-13.889l-.255-.231-.256-.231c-3.897 4.31-3.563 10.964.748 14.862l.231-.256Zm1.126-12.703-.256-.231a8.03 8.03 0 0 0 .571 11.34l.231-.255.231-.256A7.34 7.34 0 0 1 166.303 80l-.256-.23Zm.546 10.854-.231.256a8.029 8.029 0 0 0 11.34-.57l-.255-.232-.256-.231a7.34 7.34 0 0 1-10.367.521l-.231.256Zm10.854-.546.256.231a8.03 8.03 0 0 0-.571-11.34l-.231.255-.231.256a7.34 7.34 0 0 1 .521 10.367l.256.23Zm-.546-10.854.231-.256a8.03 8.03 0 0 0-11.341.57l.256.232.256.231a7.34 7.34 0 0 1 10.367-.521l.231-.256Z"></path>
  <path fill="#2D3633" stroke="#999" stroke-linecap="square" stroke-width="1.2" d="m180.119 95.258 2.471-2.733 8.848 8-2.472 2.733z"></path>
  <path fill="#242424" stroke="#999" stroke-linecap="square" stroke-width="1.2" d="m178.638 92.969 1.526-1.687 1.954 1.766-1.526 1.688zm-31.425 15.619h14.5l14.5 14.414v23.586h-29v-38Z"></path>
  <path fill="#2D3633" stroke="#fff" stroke-opacity=".5" stroke-width=".65" d="M149.213 110.588h11.472l13.528 13.545v20.455h-25v-34Z"></path>
  <path fill="#454C4A" d="M151.274 127.588h20.647v6.5h-20.647zm0 7.894h16.3v1.857h-16.3zm0 3.251h16.3v1.857h-16.3z"></path>
  <path fill="#242424" stroke="#999" stroke-linecap="square" stroke-linejoin="bevel" stroke-width="1.2" d="M162.038 122.653v-13.628l13.779 13.628h-13.779Z"></path>
  <path fill="#A6EF00" stroke="#fff" stroke-opacity=".5" stroke-width=".65" d="M151.274 112.416h8.089v8.089h-8.089z"></path>
  <path stroke="#999" stroke-linecap="square" d="m153.37 117.036 1.255 1.264 2.867-2.875"></path>
</svg>