<svg xmlns="http://www.w3.org/2000/svg" width="200" height="160" fill="none" viewBox="0 0 200 160">
  <path fill="#242424" stroke="#999" stroke-linecap="square" stroke-width="1.2" d="M76.165 22.76h47.666v13.619H76.165z"></path>
  <path fill="#2D3633" stroke="#999" stroke-linecap="square" stroke-width=".6" d="M78.719 25.313h42.559v8.512H78.719z"></path>
  <circle cx="83.174" cy="29.768" r="1.05" fill="#008055"></circle>
  <path fill="#242424" stroke="#999" stroke-linecap="square" stroke-width="1.2" d="M76.165 38.932h47.666v13.62H76.165v-13.62Z"></path>
  <path fill="#2D3633" stroke="#999" stroke-linecap="square" stroke-width=".6" d="M78.72 41.486h42.558v8.512H78.719v-8.512Z"></path>
  <circle cx="83.174" cy="45.941" r="1.05" fill="#008055"></circle>
  <path fill="#242424" stroke="#999" stroke-linecap="square" stroke-width="1.2" d="M76.165 55.105h47.666v13.618H76.165V55.105Z"></path>
  <path fill="#2D3633" stroke="#999" stroke-linecap="square" stroke-width=".6" d="M78.72 57.658h42.558v8.512H78.719v-8.512Z"></path>
  <circle cx="83.174" cy="62.113" r="1.05" fill="#008055"></circle>
  <path fill="#242424" stroke="#999" stroke-width="1.2" d="M123.831 42.937c1.973 0 3.897.374 5.726 1.11l.364.153 6.078 2.632v7.994a17.402 17.402 0 0 1-1.015 5.905l-.035.1a19.217 19.217 0 0 1-2.84 5.203l-.005.006-.011.016-.01.012a18.767 18.767 0 0 1-4.368 4.16 15.745 15.745 0 0 1-3.89 1.925 15.55 15.55 0 0 1-3.42-1.619l-.48-.316a18.609 18.609 0 0 1-4.364-4.163l-.011-.016-.012-.016-.446-.607a19.211 19.211 0 0 1-2.409-4.67l-.013-.035-.007-.013a17.378 17.378 0 0 1-1-5.864v-8.002l6.074-2.632a15.263 15.263 0 0 1 6.094-1.264Z"></path>
  <path fill="#2D3633" stroke="#999" stroke-width=".6" d="M123.831 44.928c1.781 0 3.516.36 5.154 1.07l5.186 2.244v6.793l-.013.638a14.67 14.67 0 0 1-.845 4.351l-.017.05v.003a16.25 16.25 0 0 1-2.408 4.42l-.002.003-.01.014-.009.011a15.823 15.823 0 0 1-3.687 3.511 13.32 13.32 0 0 1-3.353 1.65 13.162 13.162 0 0 1-3.364-1.659l-.522-.373a15.748 15.748 0 0 1-3.162-3.14l-.007-.01-.004-.008-.006-.008-.377-.512a16.21 16.21 0 0 1-2.032-3.94l-.007-.018-.008-.017a14.705 14.705 0 0 1-.847-4.959v-6.8l5.183-2.245a12.916 12.916 0 0 1 5.157-1.07Z"></path>
  <path stroke="#00A870" stroke-linecap="square" stroke-width="1.582" d="m119.465 56.017 3.991 3.684 5.527-7.062"></path>
  <path stroke="#fff" stroke-dasharray="3.4 3.4" stroke-linecap="square" stroke-opacity=".5" stroke-width="1.021" d="M100.398 79.788H43.949v23.282m56.449-23.282h56.45v23.282m-56.85-32.645v32.345"></path>
  <path fill="#242424" stroke="#999" stroke-linecap="square" stroke-width="1.021" d="M23.533 104.472h40.952v27.958H23.533v-27.958Z"></path>
  <path fill="#2D3633" stroke="#999" stroke-linecap="square" stroke-width=".6" d="M25.4 106.834h37.014v25.595H25.4v-25.595Z"></path>
  <path stroke="#999" stroke-linecap="square" stroke-width="1.021" d="M19.988 132.429h47.645v1.969H19.988z"></path>
  <circle cx="27.863" cy="109.198" r=".788" fill="#FF4D62"></circle>
  <circle cx="30.226" cy="109.198" r=".788" fill="#CCA200"></circle>
  <circle cx="32.589" cy="109.198" r=".788" fill="#008055"></circle>
  <path fill="#242424" stroke="#999" stroke-width=".6" d="M43.82 111.582a8.211 8.211 0 1 1 0 16.423 8.212 8.212 0 1 1 0-16.423Z"></path>
  <path fill="#00A870" d="M42.976 122.376v-5.374H45.1c.053 0 .115.003.187.008.072.002.142.01.209.022.291.045.535.145.731.299.2.154.349.349.448.586.1.234.15.493.15.78 0 .283-.052.543-.154.779-.1.234-.248.43-.447.586-.197.155-.44.254-.728.299a2.679 2.679 0 0 1-.396.03h-1.46v1.985h-.664Zm.664-2.616h1.437c.047 0 .1-.002.16-.007a1.16 1.16 0 0 0 .176-.027.85.85 0 0 0 .418-.216.959.959 0 0 0 .239-.373 1.341 1.341 0 0 0 0-.877.959.959 0 0 0-.24-.377.818.818 0 0 0-.417-.216 1.96 1.96 0 0 0-.336-.034H43.64v2.127Zm-2.448 2.616v-5.374h.665v5.374h-.665Z"></path>
  <path fill="#242424" stroke="#999" stroke-linecap="square" stroke-width="1.021" d="M79.71 104.472h40.952v27.958H79.71v-27.958Z"></path>
  <path fill="#2D3633" stroke="#fff" stroke-linecap="square" stroke-opacity=".64" stroke-width=".6" d="M81.6 106.834h37.014v25.595H81.6v-25.595Z"></path>
  <path fill="#242424" stroke="#999" stroke-width=".6" d="M99.999 111.581a8.212 8.212 0 0 1 8.211 8.212 8.212 8.212 0 1 1-8.211-8.212Z"></path>
  <path fill="#00A870" d="M99.153 122.376v-5.374h2.124c.052 0 .114.003.186.008.072.002.142.01.209.022.291.045.535.144.732.299.199.154.348.349.447.585.1.234.15.494.15.78 0 .284-.051.544-.153.78a1.47 1.47 0 0 1-.448.586 1.543 1.543 0 0 1-.728.299 2.679 2.679 0 0 1-.395.029h-1.46v1.986h-.664Zm.664-2.616h1.437a1.985 1.985 0 0 0 .336-.034.866.866 0 0 0 .418-.216.974.974 0 0 0 .239-.373 1.339 1.339 0 0 0 0-.877.96.96 0 0 0-.239-.377.827.827 0 0 0-.418-.217.81.81 0 0 0-.175-.026 1.947 1.947 0 0 0-.161-.007h-1.437v2.127Zm-2.447 2.616v-5.374h.664v5.374h-.664Z"></path>
  <path stroke="#999" stroke-linecap="square" stroke-width="1.021" d="M76.165 132.429h47.646v1.969H76.165v-1.969Z"></path>
  <circle cx="84.04" cy="109.198" r=".788" fill="#FF4D62"></circle>
  <circle cx="86.403" cy="109.198" r=".788" fill="#CCA200"></circle>
  <circle cx="88.766" cy="109.198" r=".788" fill="#008055"></circle>
  <path fill="#242424" stroke="#999" stroke-linecap="square" stroke-width="1.021" d="M135.888 104.472h40.951v27.958h-40.951v-27.958Z"></path>
  <path fill="#2D3633" stroke="#999" stroke-linecap="square" stroke-width=".6" d="M137.8 107h37.014v25.595H137.8V107Z"></path>
  <path fill="#242424" stroke="#999" stroke-width=".6" d="M156.176 111.581a8.212 8.212 0 1 1 0 16.425 8.212 8.212 0 0 1 0-16.425Z"></path>
  <path fill="#00A870" d="M155.331 122.376v-5.374h2.123c.052 0 .114.003.186.008.073.002.142.01.209.022.291.045.535.144.732.299.199.154.348.349.448.585.099.234.149.494.149.78 0 .284-.051.544-.153.78a1.47 1.47 0 0 1-.448.586 1.54 1.54 0 0 1-.728.299 2.629 2.629 0 0 1-.395.029h-1.459v1.986h-.664Zm.664-2.616h1.436a1.964 1.964 0 0 0 .336-.034.866.866 0 0 0 .418-.216.963.963 0 0 0 .239-.373 1.34 1.34 0 0 0 0-.877.948.948 0 0 0-.239-.377.827.827 0 0 0-.418-.217.802.802 0 0 0-.175-.026 1.93 1.93 0 0 0-.161-.007h-1.436v2.127Zm-2.448 2.616v-5.374h.664v5.374h-.664Z"></path>
  <path stroke="#999" stroke-linecap="square" stroke-width="1.021" d="M132.343 132.429h47.645v1.969h-47.645v-1.969Z"></path>
  <circle cx="140.218" cy="109.198" r=".788" fill="#FF4D62"></circle>
  <circle cx="142.58" cy="109.198" r=".788" fill="#CCA200"></circle>
  <circle cx="144.943" cy="109.198" r=".788" fill="#008055"></circle>
</svg>