<svg xmlns="http://www.w3.org/2000/svg" width="300" height="160" fill="none" viewBox="0 0 300 160">
  <path fill="#242424" stroke="#999" stroke-width="1.2" d="M99.945 39.067V61.35h-6.321v4.215l-8.395-4.153-.126-.062H64.1V39.067h35.845Z"></path>
  <path fill="#F19151" fill-rule="evenodd" d="M84.827 56.431h-4.49a2.252 2.252 0 0 0 2.245 2.246 2.252 2.252 0 0 0 2.245-2.246Zm2.906-7.858c0-2.456-1.664-4.437-3.962-4.992v-.555c0-.633-.555-1.188-1.189-1.188s-1.188.555-1.188 1.188v.555c-2.298.555-3.963 2.536-3.963 4.992v4.359l-1.584 1.34v1.037h13.47v-1.037l-1.584-1.34v-4.359Z" clip-rule="evenodd"></path>
  <path fill="#242424" stroke="#999" stroke-linecap="square" stroke-width="1.2" d="M118.504 25h62.864v110.013h-62.864z"></path>
  <path fill="#2D3633" fill-rule="evenodd" stroke="#fff" stroke-opacity=".5" stroke-width=".6" d="M124.116 29.98h51.639v99.91h-51.638c-.006-33.303.002-66.606-.001-99.91Z" clip-rule="evenodd"></path>
  <path fill="#45514D" d="M128.608 106.945h19.084v17.961h-19.084z"></path>
  <path fill="#242424" stroke="#999" stroke-width="1.2" d="M88.796 86.216v26.979h7.661v5.137l10.362-5.075.125-.062h25.555v-26.98H88.796Z"></path>
  <circle cx="110.647" cy="100.209" r="8.981" fill="#33A0E9"></circle>
  <path stroke="#fff" stroke-linecap="square" stroke-width=".702" d="m107.843 96.895 5.613 5.358-2.807 2.551V94.599l2.807 2.551-5.613 5.358"></path>
  <path fill="#45514D" d="M128.608 35.098h42.658v15.716h-42.658zm0 19.086h33.677v4.49h-33.677zm0 7.861h33.677v4.49h-33.677zm0 7.855h33.677v4.49h-33.677z"></path>
  <path fill="#242424" stroke="#999" stroke-width="1.2" d="M167.378 53.663v44.826h34.518v8.602l16.81-8.537.128-.065H236.9V53.663h-69.522Z"></path>
  <ellipse cx="202.139" cy="87.903" fill="#85BF00" rx="10.131" ry="2.933"></ellipse>
  <path fill="#008055" fill-rule="evenodd" d="M194.597 65.168c4.164-4.164 10.917-4.164 15.082 0 4.164 4.165 4.164 10.918 0 15.082l-6.96 6.96a.822.822 0 0 1-1.163 0l-6.959-6.96c-4.165-4.164-4.165-10.917 0-15.082Z" clip-rule="evenodd"></path>
  <circle cx="202.139" cy="72.708" r="5.646" fill="#fff"></circle>
</svg>