<svg xmlns="http://www.w3.org/2000/svg" width="140" height="80" fill="none" viewBox="0 0 140 80">
  <path fill="#242424" stroke="#999" stroke-linecap="square" stroke-width="1.008" d="M12.361 27h26.05l3.362 26.89H9L12.361 27Z"></path>
  <path fill="#2D3633" stroke="#fff" stroke-opacity=".5" stroke-width=".504" d="M15.723 30.361H35.05l2.521 20.168h-24.37l2.522-20.168Z"></path>
  <path fill="#fff" d="M25.257 44.563v-6.434l-1.366.822v-.832l1.366-.816h.751v7.26h-.75Z"></path>
  <path fill="#242424" stroke="#999" stroke-linecap="square" stroke-width="1.008" d="M45.975 27h26.05l3.361 26.89H42.613L45.975 27Z"></path>
  <path fill="#2D3633" stroke="#fff" stroke-opacity=".5" stroke-width=".504" d="M49.336 30.361h19.328l2.52 20.168h-24.37l2.522-20.168Z"></path>
  <path fill="#fff" d="m57.403 44.558.005-.676 3.282-2.964c.283-.256.47-.498.56-.726.094-.232.141-.474.141-.727a1.581 1.581 0 0 0-.781-1.386 1.517 1.517 0 0 0-.802-.217c-.31 0-.585.074-.827.222a1.652 1.652 0 0 0-.575.585 1.534 1.534 0 0 0-.201.792h-.756a2.235 2.235 0 0 1 1.16-2.007 2.405 2.405 0 0 1 1.21-.303c.44 0 .834.104 1.184.313.353.205.63.484.832.837.205.35.308.74.308 1.17 0 .302-.037.57-.111.801-.07.229-.183.442-.338.64a4.561 4.561 0 0 1-.58.606L58.2 44.15l-.116-.303h4.059v.71h-4.74Z"></path>
  <path fill="#242424" stroke="#999" stroke-linecap="square" stroke-width="1.008" d="M79.589 27h26.05l3.362 26.89H76.228L79.588 27Z"></path>
  <path fill="#2D3633" stroke="#fff" stroke-opacity=".5" stroke-width=".504" d="M82.95 30.361h19.328l2.521 20.168h-24.37l2.521-20.168Z"></path>
  <path fill="#fff" d="M93.17 44.71c-.36 0-.69-.065-.993-.192a2.244 2.244 0 0 1-.782-.545 2.194 2.194 0 0 1-.478-.852l.705-.212c.121.36.32.632.595.817.28.185.594.274.943.267.323-.007.6-.079.832-.217a1.37 1.37 0 0 0 .54-.574 1.86 1.86 0 0 0 .186-.852c0-.495-.144-.891-.433-1.19-.286-.303-.664-.454-1.135-.454-.13 0-.269.018-.413.055a1.745 1.745 0 0 0-.404.146l-.373-.59 2.824-2.606.12.302h-3.7v-.71h4.195v.72l-2.46 2.35-.01-.292c.504-.064.947-.007 1.33.171.384.178.683.45.898.817.218.363.328.79.328 1.28 0 .464-.101.875-.303 1.23a2.164 2.164 0 0 1-.822.833c-.35.198-.746.297-1.19.297Z"></path>
  <path fill="url(#a)" d="M138 44.5c0 7.456-6.044 13.5-13.5 13.5-2.28 0-4.428-.565-6.312-1.563L98.625 76 93 70.375l19.563-19.563A13.441 13.441 0 0 1 111 44.5c0-7.456 6.044-13.5 13.5-13.5 2.28 0 4.428.565 6.312 1.563l-8.562 8.562 5.625 5.625 8.562-8.562A13.441 13.441 0 0 1 138 44.5Z"></path>
  <defs>
    <linearGradient id="a" x1="137.066" x2="91.992" y1="32.877" y2="71.826" gradientUnits="userSpaceOnUse">
      <stop stop-color="#05C178"></stop>
      <stop offset="1" stop-color="#05C178" stop-opacity="0"></stop>
    </linearGradient>
  </defs>
</svg>