<svg xmlns="http://www.w3.org/2000/svg" width="244" height="160" fill="none" viewBox="0 0 244 160">
  <path fill="#242424" stroke="#999" stroke-linecap="square" stroke-width="1.2" d="M64.238 42.438h116.648v79.636H64.238z"></path>
  <path fill="#2D3633" stroke="#fff" stroke-opacity=".5" stroke-width=".6" d="M69.844 49.164h105.431v72.906H69.844z"></path>
  <path fill="#242424" stroke="#999" stroke-linecap="square" stroke-width="1.2" d="M54.141 122.07h135.715v5.608H54.141z"></path>
  <circle cx="76.571" cy="55.9" r="2.243" fill="#FF4D62"></circle>
  <circle cx="83.302" cy="55.9" r="2.243" fill="#CCA200"></circle>
  <circle cx="90.032" cy="55.9" r="2.243" fill="#008055"></circle>
  <circle cx="123.496" cy="45.992" r="24.992" fill="#272727" stroke="#999" stroke-linecap="square" stroke-width="1.2"></circle>
  <circle cx="123.5" cy="45.672" r="13.5" fill="#85BF00"></circle>
  <path fill="#fff" fill-opacity=".8" d="M123.176 31.633c7.731 0 14 6.268 14 14 0 7.716-6.244 13.974-13.954 13.999l-.046.002-.047-.002c-7.71-.026-13.953-6.283-13.953-14 0-7.731 6.268-14 14-14ZM118.8 46.185c.052 3.438.586 6.516 1.409 8.75.434 1.179.937 2.093 1.468 2.703.524.602 1.027.851 1.481.858h.035c.454-.007.956-.256 1.481-.858.53-.61 1.033-1.524 1.468-2.703.823-2.234 1.358-5.312 1.41-8.75H118.8Zm-8.477 0c.255 6.018 4.644 10.965 10.4 12.076-.611-.74-1.142-1.746-1.579-2.933-.879-2.385-1.427-5.602-1.479-9.143h-7.342Zm18.364 0c-.052 3.541-.601 6.758-1.48 9.143-.437 1.187-.969 2.193-1.58 2.933 5.757-1.11 10.146-6.057 10.4-12.076h-7.34Zm-3.062-13.184c.612.741 1.144 1.75 1.582 2.938.876 2.378 1.425 5.583 1.48 9.111h7.339c-.267-6.006-4.652-10.94-10.401-12.05Zm-4.9 0c-5.748 1.11-10.133 6.044-10.401 12.05h7.341c.055-3.53.602-6.734 1.479-9.112.437-1.188.969-2.196 1.581-2.937Zm2.451-.233c-.459 0-.968.251-1.499.862-.531.609-1.034 1.523-1.468 2.702-.821 2.227-1.354 5.293-1.409 8.718h8.752c-.055-3.425-.59-6.49-1.41-8.718-.435-1.179-.938-2.093-1.468-2.702-.532-.61-1.04-.861-1.498-.862Z"></path>
  <ellipse cx="124.359" cy="95.849" stroke="#fff" stroke-dasharray="1.57 1.57" stroke-linecap="square" stroke-opacity=".5" stroke-width=".785" rx="38.813" ry="11.5" transform="rotate(28.948 124.359 95.849)"></ellipse>
  <ellipse cx="38.813" cy="11.5" stroke="#fff" stroke-dasharray="1.57 1.57" stroke-linecap="square" stroke-opacity=".5" stroke-width=".785" rx="38.813" ry="11.5" transform="scale(-1 1) rotate(28.948 -206.157 -262.387)"></ellipse>
  <circle cx="102.966" cy="95.852" r="3.5" fill="#00A870" stroke="#fff"></circle>
  <circle cx="146.001" cy="95.852" r="3.5" fill="#00A870" stroke="#fff"></circle>
  <circle cx="123.767" cy="82.656" r="3.5" fill="#00A870" stroke="#fff"></circle>
  <circle cx="123.767" cy="108.25" r="3.5" fill="#00A870" stroke="#fff"></circle>
</svg>