<svg xmlns="http://www.w3.org/2000/svg" width="300" height="160" fill="none" viewBox="0 0 300 160">
  <path fill="#2D3633" stroke="#999" stroke-linecap="square" stroke-width="1.2" d="M100 49h104v71H100z"></path>
  <path fill="#242424" stroke="#fff" stroke-linecap="square" stroke-opacity=".64" stroke-width=".7" d="M105 55h94v65h-94z"></path>
  <path fill="#242424" stroke="#999" stroke-linecap="square" stroke-width="1.2" d="M91 120h121v5H91z"></path>
  <path fill="#242424" stroke="#fff" stroke-opacity=".5" stroke-width=".6" d="M117 102h69v10h-69z"></path>
  <path fill="#33A0E9" d="M118 103h67v8h-67z"></path>
  <circle cx="152" cy="80" r="13" fill="#00A870" fill-opacity=".24"></circle>
  <path fill="#00A870" d="m152 74.09-4.727 5.81h3.319v7.103h2.817V79.9h3.319L152 74.09Z"></path>
  <path fill="#242424" d="M152.695 31c6.284 0 11.705 3.688 14.22 9.017.284-.022.571-.036.86-.036 6.2 0 11.225 5.026 11.225 11.225s-5.025 11.224-11.225 11.225c-.123 0-.246-.006-.369-.01v.008H136.98v-.001h-.001a8.98 8.98 0 0 1 0-17.958c.054 0 .108.003.162.004C138.228 36.856 144.777 31 152.695 31Z"></path>
  <path fill="#999" d="M152.695 31v-.6.6Zm14.22 9.017-.543.256.177.373.411-.031-.045-.598Zm.86-.036v-.6.6ZM179 51.206h.6-.6Zm-11.225 11.225v.6-.6Zm-.369-.01.02-.6-.62-.02v.62h.6Zm0 .008v.6h.6v-.6h-.6Zm-30.426 0h-.6v.6h.6v-.6Zm0-.001h.6v-1.449l-1.024 1.025.424.424Zm-.001 0v.6h.249l.176-.175-.425-.424ZM128 53.45h-.6.6Zm8.979-8.98v-.6.6Zm.162.005-.011.6.53.009.075-.525-.594-.084ZM152.695 31v.6c6.043 0 11.258 3.546 13.677 8.673l.543-.256.543-.257c-2.61-5.53-8.239-9.36-14.763-9.36v.6Zm14.22 9.017.045.598c.273-.02.545-.034.815-.034v-1.2c-.308 0-.61.015-.905.037l.045.599Zm.86-.036v.6c5.868 0 10.625 4.757 10.625 10.625h1.2c0-6.53-5.294-11.824-11.825-11.825v.6ZM179 51.206h-.6c0 5.868-4.757 10.624-10.625 10.625v1.2c6.531 0 11.825-5.295 11.825-11.825h-.6Zm-11.225 11.225v-.6c-.11 0-.215-.005-.349-.01l-.02.6-.019.6c.11.003.252.01.388.01v-.6Zm-.369-.01h-.6v.008h1.2v-.008h-.6Zm0 .008v-.6H136.98v1.2h30.426v-.6Zm-30.426 0h.6v-.001h-1.2.6Zm0-.001-.424-.424h-.001l.424.425.425.424.001-.001-.425-.424Zm-.001 0 .001-.6a8.38 8.38 0 0 1-8.38-8.379h-1.2c0 5.29 4.289 9.58 9.579 9.58v-.6ZM128 53.45h.6a8.38 8.38 0 0 1 8.38-8.38l-.001-.6v-.6c-5.29.001-9.579 4.29-9.579 9.58h.6Zm8.979-8.98v.6c.057 0 .058.003.151.005l.011-.6.01-.6c-.014 0-.12-.004-.172-.004v.6Zm.162.005.594.084c1.046-7.325 7.345-12.958 14.96-12.958v-1.2c-8.221 0-15.019 6.08-16.148 13.989l.594.085Z"></path>
  <circle cx="111" cy="61" r="2" fill="#FF4D62"></circle>
  <circle cx="117" cy="61" r="2" fill="#CCA200"></circle>
  <circle cx="123" cy="61" r="2" fill="#008055"></circle>
  <path fill="#00A870" fill-rule="evenodd" d="M205.333 107c7.364 0 13.334 5.97 13.334 13.333 0 7.364-5.97 13.334-13.334 13.334-7.363 0-13.333-5.97-13.333-13.334 0-7.363 5.97-13.333 13.333-13.333Z" clip-rule="evenodd"></path>
  <path stroke="#fff" stroke-width="1.733" d="m199.333 120.334 4 4 8-8.667"></path>
</svg>