<svg xmlns="http://www.w3.org/2000/svg" width="300" height="160" fill="none" viewBox="0 0 300 160">
  <path fill="#333" d="m170.932 130.343 8.748 1.401-15.969 10.534-13.668 4.465v-7.159l-12.752-2.35-6.986 4.628-7.652-10.651 7.652 5.327 5.881-3.963 17.121 3.539v5.165l9.947-3.156 7.678-4.962v-2.818Z"></path>
  <path fill="#2D3633" stroke="#999" stroke-width=".6" d="m153.211 30.405-23.417-2.351.576 103.303 22.841 4.757V30.405Z"></path>
  <path stroke="#fff" stroke-opacity=".5" stroke-width=".551" d="m122.782 23.488 6.933-.49.606 113.518-7.539-6.071V23.488Z"></path>
  <path stroke="#fff" stroke-opacity=".5" stroke-width=".6" d="M153.226 141.116V25.208l10.026 3.68v109.285l-10.026 2.943Z"></path>
  <path fill="#999" fill-rule="evenodd" d="M142.255 51.565a1.857 1.857 0 0 0-2.015 1.693l-.031.392 1.043.084.031-.393a.811.811 0 0 1 .889-.733c.457.036.749.38.711.852a.786.786 0 0 1-.865.745l-.392-.031-.083 1.043.392.03a1.853 1.853 0 0 0 1.991-1.704c.086-1.063-.623-1.894-1.671-1.978Zm-3.426 3.204c-.01.13.089.267.238.28l.993.079-.079.993a.263.263 0 0 0 .237.279l.849.068.19-2.36-2.36-.188-.068.85Z" clip-rule="evenodd"></path>
  <path stroke="#fff" stroke-opacity=".5" stroke-width=".6" d="m122.592 23.565 7.223-.638 9.061-5.256"></path>
  <path stroke="#fff" stroke-opacity=".5" stroke-width=".6" d="M129.775 22.893v5.027l9.33-5.628v-5.114h-1.678"></path>
  <path stroke="#fff" stroke-opacity=".5" stroke-width=".551" d="m153.224 25.274 9.132-6.171 8.985 5.183-.73 109.256-7.335 4.629m-32.969-1.605 5.991-3.967"></path>
  <path stroke="#999" stroke-width="1.2" d="M134.827 16.977h4.405v5.036l16.851 1.379 6.253-4.354 9.033 5.28-.602 109.133-7.365 4.679-10.376 3.196v-5.188l-16.786-3.137-5.866 3.739-7.689-6.3V23.067l12.142-6.09Z"></path>
</svg>