<svg xmlns="http://www.w3.org/2000/svg" width="300" height="160" fill="none" viewBox="0 0 300 160">
  <path fill="#333" d="m63.494 109.694 7.497-3.512 115.259 20.427 44.18-26.743 8.436 1.156-50.54 31.169-124.832-22.497Z"></path>
  <path fill="#1A1A1A" d="m128.741 69.639-57.13 17.597 115.523 18.751 43.329-22.944c.141-.075.103-.288-.056-.308L128.741 69.639Z"></path>
  <path fill="#2D3633" stroke="#999" stroke-linejoin="bevel" stroke-width="1.2" d="M123.609 67.905 71.538 87.268l115.574 18.419 43.283-23.023-106.786-14.76Z"></path>
  <path stroke="#fff" stroke-linecap="square" stroke-opacity=".5" stroke-width=".6" d="M71.444 87.313v5.865l115.764 19.231v-6.586L71.444 87.313Z"></path>
  <path stroke="#fff" stroke-opacity=".5" stroke-width=".6" d="m185.731 113.515 1.381-.921m-1.22.713v12.744L70.55 106.39V94.199l115.342 19.108Z"></path>
  <path fill="#00E195" d="M74.922 90.112c0-.102.09-.18.19-.162l12.531 2.073c.08.014.138.082.138.163v1.525a.164.164 0 0 1-.192.162l-12.53-2.117a.164.164 0 0 1-.137-.161v-1.483Z"></path>
  <path fill="#E57DFA" d="m145.671 102.924 3.503.578v2.82l-3.503-.578v-2.82Z"></path>
  <path stroke="#fff" stroke-opacity=".5" stroke-width=".6" d="M148.874 103.756v2.212l-2.903-.479v-2.212l2.903.479Z"></path>
  <path fill="#E57DFA" d="m152.269 103.994 3.503.578v2.828l-3.503-.579v-2.827Z"></path>
  <path stroke="#fff" stroke-opacity=".5" stroke-width=".6" d="M155.472 104.826v2.22l-2.903-.479v-2.221l2.903.48Z"></path>
  <path fill="#E57DFA" d="m158.866 105.182 3.502.578v2.808l-3.502-.578v-2.808Z"></path>
  <path stroke="#fff" stroke-opacity=".5" stroke-width=".6" d="M162.069 106.014v2.2l-2.903-.479v-2.201l2.903.48Z"></path>
  <path fill="#fff" fill-opacity=".5" d="M178.421 106.662v2.942l-5.861-1.047v-2.899l5.861 1.004Zm-5.067 1.528 4.567.816v-.691h-.002l-3.571-.609-.994.484Zm-.294-.413 1.141-.554.072-.035.08.013 3.568.606v-.724l-4.861-.832v1.526Z"></path>
  <ellipse cx="190.442" cy="107.841" fill="#999" rx=".566" ry=".901" transform="rotate(3 190.442 107.841)"></ellipse>
  <ellipse cx="190.442" cy="118.89" fill="#999" rx=".566" ry=".901" transform="rotate(3 190.442 118.89)"></ellipse>
  <ellipse cx="190.438" cy="113.366" fill="#B8EF00" rx=".929" ry="1.479" transform="rotate(4 190.438 113.366)"></ellipse>
  <path stroke="#fff" stroke-opacity=".5" stroke-width=".4" d="M190.527 112.091c.163.011.332.129.463.373.128.24.202.577.176.953-.027.376-.146.7-.307.92-.163.223-.347.316-.51.305-.163-.011-.332-.13-.463-.373-.128-.241-.201-.578-.175-.954.027-.375.146-.699.306-.919.163-.223.348-.317.51-.305Z"></path>
  <path stroke="#A1A1A2" stroke-width=".4" d="M227.909 92.497c.095.005.209.073.302.241.092.166.148.404.134.672a1.268 1.268 0 0 1-.203.654c-.111.157-.231.212-.326.207-.095-.005-.209-.072-.302-.24a1.272 1.272 0 0 1-.134-.671c.014-.269.094-.5.203-.655.111-.157.231-.212.326-.208Z"></path>
  <ellipse cx="193.141" cy="106.321" fill="#999" rx=".566" ry=".901" transform="rotate(3 193.141 106.321)"></ellipse>
  <ellipse cx="193.141" cy="117.367" fill="#999" rx=".566" ry=".901" transform="rotate(3 193.141 117.367)"></ellipse>
  <mask id="a" width="16" height="16" x="195" y="95" maskUnits="userSpaceOnUse" style="mask-type:alpha">
    <path fill="#A1A1A2" stroke="#1D2529" stroke-linecap="square" stroke-width=".328" d="m210.677 95.664-15.114 9.312v4.802l15.114-9.248v-4.866Z"></path>
  </mask>
  <g mask="url(#a)">
    <path stroke="#fff" stroke-linecap="square" stroke-opacity=".5" stroke-width=".4" d="m196.548 102.763-2.238 4.488m3.264-4.634-3.109 6.302m4.384-6.955-3.785 7.718m5.654-9.267-4.617 9.255m5.882-9.871-4.617 9.254m6.119-10.266-4.617 9.255m5.845-9.746-4.617 9.254m5.94-9.826-4.617 9.254m5.838-10.07-4.617 9.254m5.78-9.799-4.617 9.254m5.837-9.742-4.618 9.255m6.488-10.902-5.219 10.478m5.725-9.505-4.617 9.255m5.598-9.409-4.617 9.255"></path>
  </g>
  <mask id="b" width="16" height="16" x="195" y="102" maskUnits="userSpaceOnUse" style="mask-type:alpha">
    <path fill="#777C7F" d="m210.582 102.36-15.019 9.615v5.035l15.019-9.701v-4.949Z"></path>
  </mask>
  <g mask="url(#b)">
    <path stroke="#fff" stroke-linecap="square" stroke-opacity=".5" stroke-width=".4" d="m196.608 109.429-2.371 4.487m3.459-4.631-3.294 6.302m4.641-6.953-4.009 7.718m5.99-9.267-4.892 9.254m6.232-9.871-4.892 9.255m6.484-10.266-4.893 9.254m6.196-9.748-4.892 9.254m6.297-9.826-4.892 9.255m6.178-10.069-4.892 9.255m6.129-9.802-4.893 9.254m6.185-9.743-4.892 9.254m6.87-10.898-5.53 10.478m6.071-9.505-4.893 9.255m5.931-9.412-4.892 9.255"></path>
  </g>
  <path fill="#999" d="M217.053 101.219c-.446 1.573-1.291 2.636-2.206 2.589l-.118-.013c-.641-.101-1.181-.746-1.526-1.705l.723-.841c.066.276.147.525.24.744.328.769.653.879.73.883.076.004.411-.071.817-.802.221-.397.409-.91.541-1.506l.799.651Zm-2.154-5.581a2.46 2.46 0 0 0-.431.589c-.374.672-.662 1.678-.724 2.853a8.155 8.155 0 0 0 .053 1.454l-.785.912a8.29 8.29 0 0 1-.213-1.938l.013-.477c.119-2.27 1.014-4.119 2.087-4.476v1.083Zm.565-1.131c1.191.2 2.035 2.28 1.905 4.763l-.036.475a9.113 9.113 0 0 1-.132.865l-.834-.68c.031-.228.057-.465.07-.71.061-1.174-.12-2.205-.421-2.912-.205-.482-.409-.705-.552-.805v-.996Z"></path>
  <path stroke="#999" stroke-width="1.2" d="m187.112 125.4 43.283-25.7V82.665l-106.786-14.76-52.071 19.364v5.986l-.921.921v11.972l115.574 19.8.921-.547ZM71.538 87.268l115.574 18.419m43.283-23.023-43.283 23.023m0 0V125.4"></path>
  <path fill="#1E2D28" d="m166.25 89.31-41.5-6 63.635-5.643 5.391.762c-5.2 11.2-17.526 12.382-27.526 10.882Z"></path>
  <path fill="#242424" stroke="#999" stroke-width="1.2" d="M149.007 25.55c10.114-1.53 20.082 4.558 23.13 14.637.455 1.505.733 3.02.844 4.524l.036.483.479.067c7.793 1.092 14.627 6.576 17.054 14.6 3.328 11.008-2.896 22.629-13.904 25.957-1.772.536-4.905.756-8.37.994-1.637.113-3.333.23-4.951.389a14.777 14.777 0 0 1-3.524-1.816l-.126-.088-.152-.015-24.346-2.607-.035-.004h-.431c-8.307-.095-15.95-5.522-18.482-13.895-.762-2.52-.091-5.717 1.6-9.37 1.682-3.631 4.319-7.6 7.314-11.608 2.992-4.004 6.322-8.02 9.383-11.749 2.969-3.617 5.693-6.977 7.579-9.77l6.875-.726.014-.002.013-.002Z"></path>
  <path fill="#242424" stroke="#999" stroke-width="1.2" d="M136.961 27.175c10.935-3.307 22.48 2.877 25.786 13.812.626 2.07.912 4.158.891 6.21l-.006.533.53.068c7.505.948 14.118 6.185 16.448 13.89 3.158 10.444-2.879 21.65-13.327 24.81-3.66 1.106-8.069 1.238-13.187.728l-28.203-4.045c-4.977-.822-9.061-2.195-12.215-4.404-3.142-2.2-5.396-5.25-6.681-9.5-3.125-10.335 2.72-21.246 13.055-24.372.65-.196 1.302-.357 1.954-.484l.416-.081.063-.419c1.149-7.66 6.571-14.356 14.476-16.746Z"></path>
  <path stroke="#999" stroke-width=".643" d="M157.383 46.803a14.61 14.61 0 0 1 .616 3.63c4.991 1.002 9.316 4.726 10.922 10.039 2.3 7.612-1.854 15.604-9.278 17.85-2.505.471-3.983.811-7.591.629l-20.976-2.724c-6.373-.648-11.882-3.83-13.75-10.013-2.251-7.448 1.958-15.312 9.401-17.564.27-.082.541-.155.812-.22 1.128-5.26 5.099-9.806 10.734-11.51 8.158-2.467 16.714 1.958 19.11 9.883Z"></path>
  <path fill="#2D3633" stroke="#999" stroke-width=".6" d="M155.871 47.57c.411 1.358.599 2.73.585 4.077 4.934.624 9.05 4.18 10.583 9.248 2.077 6.87-1.808 14.122-8.677 16.2-1.611.486-5.283.257-7.449 0l-20.084-2.57c-6.271-1.044-10.331-3.283-12.024-8.88-2.056-6.8 2.033-13.61 8.831-15.665.427-.13.856-.235 1.285-.318.754-5.03 4.622-9.64 9.814-11.21 7.182-2.171 14.965 1.936 17.136 9.118Z"></path>
</svg>