<svg xmlns="http://www.w3.org/2000/svg" width="300" height="160" fill="none" viewBox="0 0 300 160">
  <path stroke="#fff" stroke-opacity=".5" stroke-width=".6" d="m59.5 106.5 30-8.5 42.5 23.5 42 12 63-64"></path>
  <path fill="#333" d="m99 113-39-3.5 28.5-8.5 40.5 23 46 12.5L238 72l4.5 1.5-65 67-48.5-13L99 113Z"></path>
  <path stroke="#999" stroke-width="1.2" d="m88.5 101-28 8-1-2.5 64.5-63 26-6.5 37 19 50.5 13.5 1 2.5-63.5 64.5-44-12L88.5 101Z"></path>
  <path fill="#2D3633" d="m93.5 94-24 7L125 45.5l22.5-5.5L190 61.5 228 72l-55 56-39-11-40.5-23Z"></path>
  <path fill="#1E2D28" d="m69.5 101 24-7L147 40l-22 5.5L69.5 101Z"></path>
  <ellipse cx="151" cy="100.5" fill="#00A870" fill-opacity=".2" rx="11" ry="5.5"></ellipse>
  <path fill="#394641" fill-rule="evenodd" d="m128.661 86.283 36.728-37.99 3.765 2.08-37.617 38.69a14 14 0 0 1-17.221 2.303l-11.458-6.732 2.739-3.043 10.764 6.337a10 10 0 0 0 12.3-1.645Z" clip-rule="evenodd"></path>
  <path fill="#5A584F" fill-rule="evenodd" d="m175.996 54.017 3.767 2.033-17.721 19.092 25.204 13.009 4.552 20.705-3.422 3.489-4.623-21.496-28.211-14.56 20.454-22.272Z" clip-rule="evenodd"></path>
  <path fill="#394641" fill-rule="evenodd" d="m137.409 47.942 40.332 22.183 41.663 10.606-3.101 3.198-40.045-10.054-39.667-21.817-19.514 1.43 3.497-3.588 16.835-1.958Z" clip-rule="evenodd"></path>
  <path fill="#52583D" fill-rule="evenodd" d="M145.414 63.383c-3.352.654-7.916 2.182-14.109 4.907-10.113 4.45-16.879 5.499-21.394 4.574-2.308-.473-4.044-1.467-5.273-2.785-.638-.579-1.152-1.478-1.417-2.858l2.94-2.908c.152.787.792 2.383 1.403 3.039.6.643 1.562 1.268 3.15 1.593 3.276.671 9.094.034 18.98-4.317 6.308-2.775 11.181-4.435 14.954-5.171 3.733-.729 6.68-.612 8.898.54 2.328 1.208 3.418 3.318 3.932 5.514.499 2.13.522 4.614.522 6.948 0 4.833.332 12.693 6.394 17.28 6.051 4.58 23.658 5.428 50.327-4.292l-5.071 5.33c-26.831 9.779-39.846 8.073-47.67 2.152-7.813-5.913-7.98-15.803-7.98-20.47 0-2.416-.04-4.432-.416-6.036-.361-1.539-.958-2.398-1.881-2.877-1.032-.535-2.897-.825-6.289-.163Z" clip-rule="evenodd"></path>
  <path fill="#242424" stroke="#999" stroke-width="1.2" d="M151 100.538s16-14.791 16-29.067C167 62.374 159.837 55 151 55s-16 7.374-16 16.471c0 14.275 16 29.067 16 29.067Z"></path>
  <circle cx="151" cy="72.231" r="7.385" fill="#008055"></circle>
</svg>