<svg xmlns="http://www.w3.org/2000/svg" width="300" height="160" fill="none" viewBox="0 0 300 160">
  <path fill="#2D3633" stroke="#999" stroke-linecap="square" stroke-width="1.2" d="M71.765 41.117h116.648v79.636H71.765z"></path>
  <path fill="#242424" stroke="#999" stroke-linecap="square" stroke-width=".785" d="M77.372 47.847h105.431v72.906H77.372z"></path>
  <path stroke="#999" stroke-linecap="square" stroke-width="1.2" d="M61.669 120.752h135.715v5.608H61.669z"></path>
  <circle cx="84.1" cy="54.577" r="2.243" fill="#FF4D62"></circle>
  <circle cx="90.83" cy="54.577" r="2.243" fill="#CCA200"></circle>
  <circle cx="97.56" cy="54.577" r="2.243" fill="#00A870"></circle>
  <path fill="#242424" stroke="#999" stroke-linecap="square" stroke-width="1.2" d="M95.316 61.994h139.217v45.425H95.316z"></path>
  <path fill="#2D3633" fill-rule="evenodd" stroke="#fff" stroke-opacity=".4" stroke-width=".6" d="M100.279 67.06h28.582v35.615h-28.582c-.003-11.872.001-23.743 0-35.614Z" clip-rule="evenodd"></path>
  <path fill="#999" d="m112.894 89.104-2.31-1.669 2.016-2.363-3.031-.815.882-2.71 2.897 1.188-.201-3.15h2.858l-.201 3.15 2.884-1.188.881 2.71-3.017.815 2.003 2.363-2.31 1.669-1.669-2.617-1.682 2.617Z"></path>
  <path fill="#2D3633" fill-rule="evenodd" stroke="#fff" stroke-opacity=".4" stroke-width=".6" d="M133.56 67.06h28.583v35.615h-28.582c-.003-11.872.001-23.743-.001-35.614Z" clip-rule="evenodd"></path>
  <path fill="#999" d="m146.176 89.104-2.31-1.669 2.016-2.363-3.031-.815.881-2.71 2.897 1.188-.2-3.15h2.857l-.2 3.15 2.884-1.188.881 2.71-3.017.815 2.002 2.363-2.309 1.669-1.669-2.617-1.682 2.617Z"></path>
  <path fill="#2D3633" fill-rule="evenodd" stroke="#fff" stroke-opacity=".4" stroke-width=".6" d="M166.842 67.06h28.583v35.615h-28.583c-.003-11.872.002-23.743 0-35.614Z" clip-rule="evenodd"></path>
  <path fill="#999" d="m179.457 89.104-2.31-1.669 2.017-2.363-3.031-.815.881-2.71 2.897 1.188-.2-3.15h2.857l-.2 3.15 2.884-1.188.881 2.71-3.018.815 2.003 2.363-2.31 1.669-1.669-2.617-1.682 2.617Z"></path>
  <path fill="#2D3633" fill-rule="evenodd" stroke="#fff" stroke-opacity=".4" stroke-width=".6" d="M200.124 67.06h28.582v35.615h-28.582c-.003-11.872.002-23.743 0-35.614Z" clip-rule="evenodd"></path>
  <path fill="#999" d="m212.739 89.104-2.31-1.669 2.016-2.363-3.03-.815.881-2.71 2.897 1.188-.2-3.15h2.857l-.2 3.15 2.883-1.188.882 2.71-3.018.815 2.003 2.363-2.31 1.669-1.669-2.617-1.682 2.617Z"></path>
  <path fill="#00A870" fill-rule="evenodd" d="M234.534 95.567c7.363 0 13.333 5.969 13.333 13.333s-5.97 13.333-13.333 13.333c-7.364 0-13.334-5.969-13.334-13.333s5.97-13.334 13.334-13.334Z" clip-rule="evenodd"></path>
  <path stroke="#fff" stroke-width="1.733" d="m228.534 108.9 4 4 8-8.667"></path>
</svg>