<svg xmlns="http://www.w3.org/2000/svg" width="300" height="160" fill="none" viewBox="0 0 300 160">
  <ellipse cx="234.711" cy="68.174" fill="#363636" rx="14.336" ry="5.334"></ellipse>
  <ellipse cx="234.711" cy="135.204" fill="#363636" rx="14.336" ry="5.334"></ellipse>
  <path stroke="#999" stroke-dasharray="4 4" stroke-linecap="square" stroke-width="1.2" d="M91.731 71.513c24.532-21.464 70.371-57.278 137.794-27.538"></path>
  <path stroke="#999" stroke-dasharray="4 4" stroke-linecap="square" stroke-width="1.2" d="M112.876 68.612c26.63-11.522 91.35-16.76 116.649 26.807"></path>
  <path fill="#242424" stroke="#999" stroke-linecap="square" stroke-width="1.2" d="M234.712 66.57s20-16.405 20-31.516c0-10.775-8.954-19.51-20-19.51s-20 8.735-20 19.51c0 15.111 20 31.515 20 31.515Z"></path>
  <path fill="#2D3633" stroke="#999" stroke-width=".589" d="M234.711 63.73s18-14.764 18-28.364c0-9.698-8.059-17.56-18-17.56s-18 7.862-18 17.56c0 13.6 18 28.364 18 28.364Z"></path>
  <path fill="#242424" stroke="#999" stroke-width=".6" d="M234.712 47.711c6.719 0 12.165-5.446 12.165-12.165 0-6.718-5.446-12.165-12.165-12.165-6.718 0-12.165 5.447-12.165 12.165 0 6.719 5.447 12.165 12.165 12.165Z"></path>
  <path fill="#A6EF00" stroke="#999" stroke-linecap="square" d="M234.712 41.302a5.756 5.756 0 1 0 0-11.512 5.756 5.756 0 0 0 0 11.512Z"></path>
  <path fill="#242424" stroke="#999" stroke-linecap="square" stroke-width="1.2" d="M234.712 134.504s20-16.404 20-31.515c0-10.776-8.954-19.51-20-19.51s-20 8.734-20 19.51c0 15.111 20 31.515 20 31.515Z"></path>
  <path fill="#2D3633" stroke="#999" stroke-width=".589" d="M234.711 131.664s18-14.764 18-28.364c0-9.698-8.059-17.56-18-17.56s-18 7.862-18 17.56c0 13.6 18 28.364 18 28.364Z"></path>
  <path fill="#242424" stroke="#999" stroke-width=".6" d="M234.712 115.646c6.719 0 12.165-5.446 12.165-12.165 0-6.719-5.446-12.165-12.165-12.165-6.718 0-12.165 5.446-12.165 12.165 0 6.719 5.447 12.165 12.165 12.165Z"></path>
  <path fill="#A6EF00" stroke="#999" stroke-linecap="square" d="M234.712 109.035a5.756 5.756 0 1 0 0-11.512 5.756 5.756 0 0 0 0 11.512Z"></path>
  <path fill="#2D3633" stroke="#999" stroke-linecap="square" stroke-width="1.2" d="M27.481 71.191h85.95v58.679h-85.95z"></path>
  <path fill="#242424" stroke="#999" stroke-linecap="square" stroke-width=".6" d="M31.611 76.147h77.686v53.72H31.611z"></path>
  <path stroke="#999" stroke-linecap="square" stroke-width="1.2" d="M20.041 129.868h100V134h-100z"></path>
  <circle cx="36.569" cy="81.11" r="1.653" fill="#FF4D62"></circle>
  <circle cx="41.528" cy="81.11" r="1.653" fill="#CCA200"></circle>
  <circle cx="46.488" cy="81.11" r="1.653" fill="#00A870"></circle>
  <path fill="#1A1A1A" d="M99.823 95.419h40v38.951h-40z"></path>
  <path fill="#2D3633" stroke="#999" stroke-linecap="square" stroke-width="1.2" d="M99.823 95.419h40v11.429h-40z"></path>
  <path fill="#242424" stroke="#999" stroke-linecap="square" stroke-width=".6" d="M101.966 97.563h35.714v7.143h-35.714z"></path>
  <circle cx="105.705" cy="101.301" r=".881" fill="#00A870"></circle>
  <path fill="#2D3633" stroke="#999" stroke-linecap="square" stroke-width="1.2" d="M99.823 108.991h40v11.429h-40z"></path>
  <path fill="#242424" stroke="#999" stroke-linecap="square" stroke-width=".6" d="M101.966 111.134h35.714v7.143h-35.714z"></path>
  <circle cx="105.705" cy="114.872" r=".881" fill="#00A870"></circle>
  <path fill="#2D3633" stroke="#999" stroke-linecap="square" stroke-width="1.2" d="M99.823 122.562h40v11.429h-40z"></path>
  <path fill="#242424" stroke="#999" stroke-linecap="square" stroke-width=".6" d="M101.966 124.705h35.714v7.143h-35.714z"></path>
  <circle cx="105.705" cy="128.444" r=".881" fill="#00A870"></circle>
  <path fill="#242424" stroke="#999" stroke-width="1.2" d="M70.041 86.057c2.331 0 4.605.443 6.766 1.313l.43.18 7.204 3.12v9.46a20.569 20.569 0 0 1-1.198 6.974l-.035.097v.008a22.73 22.73 0 0 1-3.358 6.153l-.004.005-.015.019-.012.016a22.164 22.164 0 0 1-5.157 4.911 18.598 18.598 0 0 1-4.627 2.285 18.374 18.374 0 0 1-4.642-2.298v-.001l-.369-.257a21.991 21.991 0 0 1-4.78-4.651l-.007-.011-.01-.015-.012-.016-.268-.357a22.683 22.683 0 0 1-3.102-5.873l-.013-.035-.01-.02a20.54 20.54 0 0 1-1.181-6.924v-9.47l7.199-3.12a18.035 18.035 0 0 1 7.201-1.493Z"></path>
  <path fill="#2D3633" stroke="#999" stroke-width=".6" d="M70.041 88.46c2.099 0 4.144.432 6.075 1.278l6.125 2.688v8.124a17.787 17.787 0 0 1-1.01 5.959l-.017.047v.004a19.463 19.463 0 0 1-2.842 5.288l-.002.003-.012.016-.01.015a18.775 18.775 0 0 1-4.345 4.191 15.64 15.64 0 0 1-3.967 1.976 15.448 15.448 0 0 1-3.98-1.987v-.001l-.31-.218a18.65 18.65 0 0 1-4.024-3.966l-.016-.024-.012-.015-.443-.613a19.456 19.456 0 0 1-2.395-4.704l-.006-.017-.008-.017a17.756 17.756 0 0 1-1.001-5.93v-8.132l6.12-2.688a15.056 15.056 0 0 1 6.08-1.276Z"></path>
  <path stroke="#00A870" stroke-linecap="square" stroke-width="1.859" d="m64.911 101.529 4.69 4.328 6.492-8.296"></path>
  <path fill="#242424" d="M139.318 114.895a9.86 9.86 0 0 1 8.92 5.657 7.042 7.042 0 0 1 7.584 7.021 7.043 7.043 0 0 1-7.043 7.043c-.077 0-.154-.004-.23-.006v.006h-19.091l-.29-.007a5.634 5.634 0 0 1 .29-11.262l.101.002c.682-4.78 4.791-8.454 9.759-8.454Z"></path>
  <path fill="#999" d="M139.318 114.895v-.6.6Zm8.92 5.657-.542.256.176.374.412-.032-.046-.598Zm.541-.021v-.6.6Zm7.043 7.042h.6-.6Zm-7.043 7.043v.6-.6Zm-.23-.006.019-.6-.619-.02v.62h.6Zm0 .006v.6h.6v-.6h-.6Zm-19.091 0-.014.6h.014v-.6Zm-.29-.007-.03.599h.008l.008.001.014-.6Zm-5.345-5.628h-.6.6Zm5.635-5.634v-.6.6Zm.101.002-.011.6.53.009.075-.524-.594-.085Zm9.759-8.454v.6a9.26 9.26 0 0 1 8.378 5.313l.542-.256.543-.256a10.46 10.46 0 0 0-9.463-6.001v.6Zm8.92 5.657.046.598c.166-.012.331-.019.495-.019v-1.2c-.199 0-.395.008-.586.023l.045.598Zm.541-.021v.6a6.442 6.442 0 0 1 6.443 6.442h1.2a7.642 7.642 0 0 0-7.643-7.642v.6Zm7.043 7.042h-.6a6.443 6.443 0 0 1-6.443 6.443v1.2a7.643 7.643 0 0 0 7.643-7.643h-.6Zm-7.043 7.043v-.6c-.064 0-.125-.003-.211-.006l-.019.6-.019.599c.066.003.159.007.249.007v-.6Zm-.23-.006h-.6v.006h1.2v-.006h-.6Zm0 .006v-.6h-19.091v1.2h19.091v-.6Zm-19.091 0 .014-.6-.29-.007-.014.6-.014.6.29.006.014-.599Zm-.29-.007.03-.599a5.037 5.037 0 0 1-4.775-5.029h-1.2c0 3.336 2.62 6.06 5.915 6.227l.03-.599Zm-5.345-5.628h.6a5.035 5.035 0 0 1 5.035-5.034v-1.2a6.235 6.235 0 0 0-6.235 6.234h.6Zm5.635-5.634v.6l.09.002.011-.6.01-.6-.111-.002v.6Zm.101.002.594.085c.64-4.488 4.5-7.939 9.165-7.939v-1.2c-5.271 0-9.629 3.898-10.353 8.969l.594.085Z"></path>
  <path fill="#2D3633" d="M139.584 116.724c3.687.001 6.548 2.278 7.586 5.452.215-.018.433-.027.654-.027 3.408 0 6.171 2.101 6.171 5.214 0 3.089-2.72 5.595-6.091 5.634V133h-17.181v-.002l-.042.002c-2.525 0-4.572-1.912-4.572-4.27 0-1.956 2.047-3.868 4.572-3.868.154 0 .306.005.457.016v-.016c0-4.494 3.781-8.138 8.446-8.138Z"></path>
  <path fill="#999" d="M139.584 116.724v-.3.3Zm7.586 5.452-.285.093.073.225.236-.019-.024-.299Zm.654-.027v-.3.3Zm6.171 5.214h.3-.3Zm-6.091 5.634-.003-.3-.297.003v.297h.3Zm0 .003v.3h.3v-.3h-.3Zm-17.181 0h-.3v.3h.3v-.3Zm0-.002h.3v-.303l-.303.003.003.3Zm-.042.002v.3-.3Zm-4.572-4.27h-.3.3Zm4.572-3.868v-.3.3Zm.457.016-.022.299.322.024v-.324l-.3.001Zm0-.016h-.3.3Zm8.446-8.138v.3c3.553.001 6.302 2.19 7.301 5.245l.285-.093.285-.094c-1.077-3.292-4.049-5.657-7.871-5.658v.3Zm7.586 5.452.024.299c.207-.017.418-.026.63-.026v-.6c-.229 0-.455.01-.678.028l.024.299Zm.654-.027v.3c3.302 0 5.871 2.02 5.871 4.914h.6c0-3.332-2.956-5.514-6.471-5.514v.3Zm6.171 5.214h-.3c0 2.899-2.561 5.296-5.794 5.334l.003.3.004.3c3.509-.041 6.387-2.656 6.387-5.934h-.3Zm-6.091 5.634h-.3V133h.6v-.003h-.3Zm0 .003v-.3h-17.181v.6h17.181v-.3Zm-17.181 0h.3v-.002h-.6V133h.3Zm0-.002-.003-.3a.17.17 0 0 0-.024.001l-.015.001c-.008 0-.005 0 0 0v.6a.338.338 0 0 0 .041-.002h.006-.003l-.002-.3Zm-.042.002v-.3c-2.379 0-4.272-1.797-4.272-3.97h-.6c0 2.543 2.201 4.57 4.872 4.57v-.3Zm-4.572-4.27h.3c0-1.754 1.873-3.568 4.272-3.568v-.6c-2.651 0-4.872 2.009-4.872 4.168h.3Zm4.572-3.868v.3c.148 0 .293.005.435.015l.022-.299.022-.299a6.369 6.369 0 0 0-.479-.017v.3Zm.457.016.3-.001v-.015h-.6v.016h.3Zm0-.016h.3c0-4.318 3.636-7.838 8.146-7.838v-.6c-4.82 0-8.746 3.768-8.746 8.438h.3Z"></path>
  <path fill="#00A870" d="m139.845 121.787 3.446 4.236h-2.419v5.178h-2.054v-5.178h-2.42l3.447-4.236Z"></path>
</svg>