<svg xmlns="http://www.w3.org/2000/svg" width="300" height="160" fill="none" viewBox="0 0 300 160">
  <path fill="#2D3633" stroke="#999" stroke-linecap="square" stroke-width="1.2" d="M80.936 45.314h116.648v79.636H80.936V45.314Z"></path>
  <path fill="#242424" stroke="#999" stroke-linecap="square" stroke-width=".785" d="M86.542 52.04h105.431v72.906H86.542V52.041Z"></path>
  <path stroke="#999" stroke-linecap="square" stroke-width="1.2" d="M70.839 124.947h135.715v5.608H70.839v-5.608Z"></path>
  <circle cx="93.27" cy="58.776" r="2.243" fill="#FF4D62"></circle>
  <circle cx="100" cy="58.776" r="2.243" fill="#CCA200"></circle>
  <circle cx="106.731" cy="58.776" r="2.243" fill="#00A870"></circle>
  <ellipse cx="141.057" cy="90.298" stroke="#fff" stroke-dasharray="1.57 1.57" stroke-linecap="square" stroke-opacity=".5" stroke-width=".785" rx="38.813" ry="11.5" transform="rotate(28.948 141.057 90.298)"></ellipse>
  <ellipse cx="38.813" cy="11.5" stroke="#fff" stroke-dasharray="1.57 1.57" stroke-linecap="square" stroke-opacity=".5" stroke-width=".785" rx="38.813" ry="11.5" transform="scale(-1 1) rotate(28.948 -203.753 -297.507)"></ellipse>
  <circle cx="119.664" cy="90.3" r="3.5" fill="#00A870" stroke="#0A5A5A"></circle>
  <circle cx="162.699" cy="90.3" r="3.5" fill="#00A870" stroke="#0A5A5A"></circle>
  <circle cx="140.465" cy="77.105" r="3.5" fill="#00A870" stroke="#0A5A5A"></circle>
  <circle cx="140.465" cy="102.699" r="3.5" fill="#00A870" stroke="#0A5A5A"></circle>
  <path fill="#242424" stroke="#999" stroke-width="1.2" d="M75 75.809c3.936 0 7.778.747 11.426 2.217l.726.304L99.4 83.634v16.03a34.673 34.673 0 0 1-2.02 11.757l-.035.098v.014a38.257 38.257 0 0 1-5.68 10.427l-.005.006-.047.062a37.3 37.3 0 0 1-8.685 8.271 31.387 31.387 0 0 1-7.936 3.903 31.013 31.013 0 0 1-7.966-3.926v-.001a37.04 37.04 0 0 1-8.676-8.272l-.007-.01-.016-.023-.01-.017-.012-.015a38.201 38.201 0 0 1-5.677-10.492l-.012-.035-.015-.03A34.624 34.624 0 0 1 50.6 99.679V83.634l12.24-5.304A30.456 30.456 0 0 1 75 75.81Z"></path>
  <path fill="#2D3633" stroke="#999" stroke-width=".6" d="M75 78.499c3.741 0 7.386.758 10.827 2.246l10.96 4.746v14.313l-.006.67a30.844 30.844 0 0 1-1.792 9.797l-.017.048v.013a34.053 34.053 0 0 1-5.067 9.313l-.002.002-.02.028-.02.025a33.208 33.208 0 0 1-7.73 7.362 28.017 28.017 0 0 1-7.14 3.5 27.686 27.686 0 0 1-7.168-3.521 32.955 32.955 0 0 1-7.318-6.84l-.411-.534-.004-.006-.014-.021-.012-.016a33.968 33.968 0 0 1-5.048-9.332l-.007-.018-.008-.016-.007-.014a30.82 30.82 0 0 1-1.784-10.427V85.491l10.953-4.746A27.142 27.142 0 0 1 75 78.5Z"></path>
  <path stroke="#00A870" stroke-linecap="square" stroke-width="3.098" d="m66.45 101.994 7.816 7.214 10.821-13.827"></path>
  <path fill="#242424" stroke="#999" stroke-linecap="square" stroke-width="1.2" d="M195 78.128s24-19.685 24-37.818c0-12.93-10.745-23.413-24-23.413S171 27.38 171 40.31c0 18.133 24 37.818 24 37.818Z"></path>
  <path fill="#2D3633" stroke="#999" stroke-width=".589" d="M194.999 74.721s21.6-17.717 21.6-34.036c0-11.638-9.67-21.072-21.6-21.072-11.929 0-21.6 9.434-21.6 21.072 0 16.32 21.6 34.036 21.6 34.036Z"></path>
  <path fill="#242424" stroke="#636363" stroke-width=".6" d="M195.001 55.5c8.062 0 14.598-6.537 14.598-14.6 0-8.062-6.536-14.598-14.598-14.598-8.063 0-14.599 6.536-14.599 14.599 0 8.062 6.536 14.598 14.599 14.598Z"></path>
  <path fill="#A6EF00" stroke="#999" stroke-linecap="square" d="M195.001 47.807a6.907 6.907 0 1 0 0-13.814 6.907 6.907 0 0 0 0 13.814Z"></path>
  <path fill="#2D3633" stroke="#999" stroke-linecap="square" stroke-width="1.2" d="M198 76.5h56v16h-56v-16Z"></path>
  <path fill="#242424" stroke="#999" stroke-linecap="square" stroke-width=".432" d="M201 79.5h50v10h-50v-10Z"></path>
  <circle cx="206.234" cy="84.734" r="1.234" fill="#00A870"></circle>
  <path fill="#2D3633" stroke="#999" stroke-linecap="square" stroke-width="1.2" d="M198 95.5h56v16h-56v-16Z"></path>
  <path fill="#242424" stroke="#999" stroke-linecap="square" stroke-width=".432" d="M201 98.5h50v10h-50v-10Z"></path>
  <circle cx="206.234" cy="103.734" r="1.234" fill="#00A870"></circle>
  <path fill="#2D3633" stroke="#999" stroke-linecap="square" stroke-width="1.2" d="M198 114.5h56v16h-56v-16Z"></path>
  <path fill="#242424" stroke="#999" stroke-linecap="square" stroke-width=".432" d="M201 117.5h50v10h-50v-10Z"></path>
  <circle cx="206.234" cy="122.734" r="1.234" fill="#00A870"></circle>
</svg>