<svg xmlns="http://www.w3.org/2000/svg" width="100" height="100" fill="none" viewBox="0 0 100 100">
  <path fill="#272727" fill-rule="evenodd" d="M27.401 51.45c1.697-10.93 11.147-19.294 22.551-19.294 11.405 0 20.856 8.365 22.552 19.295 10.183 1.7 17.945 10.554 17.945 21.22 0 11.883-9.633 21.516-21.515 21.516h-37.97c-11.882 0-21.515-9.633-21.515-21.516 0-10.668 7.765-19.523 17.952-21.221Z" clip-rule="evenodd"></path>
  <mask id="a" fill="#fff">
    <path d="M59.419 84.072h.585c.82-2.355 2.892-4.028 5.319-4.028 3.057 0 5.55 2.653 5.687 5.982 1.015-1.001 2.37-1.613 3.858-1.613 1.799 0 3.402.894 4.446 2.29 1.033-1.592 2.724-2.63 4.636-2.63 2.64 0 4.86 1.978 5.505 4.662.297-.057.607-.087.923-.087 2.444 0 4.425 1.784 4.425 3.984 0 1.928-1.521 3.536-3.543 3.904v.08h-7.237l-.073.002-.074-.002h-8.878c-.044.001-.087.004-.13.004-.044 0-.087-.003-.13-.004h-4.722v.002H37.222v-.002h-23.48v-.036a4.704 4.704 0 0 1-.574.037c-2.443 0-4.425-1.879-4.425-4.196 0-2.318 1.981-4.196 4.425-4.196.475 0 .932.07 1.36.202.479-2.476 2.806-4.355 5.605-4.355 1.703 0 3.231.696 4.275 1.798 1.043-1.102 2.571-1.798 4.274-1.798a5.92 5.92 0 0 1 3.807 1.359c.305-3.148 2.724-5.599 5.663-5.599 1.456 0 2.784.602 3.79 1.592v-9.818H59.42v12.466Z"></path>
  </mask>
  <path fill="#05C178" d="M59.419 84.072h.585c.82-2.355 2.892-4.028 5.319-4.028 3.057 0 5.55 2.653 5.687 5.982 1.015-1.001 2.37-1.613 3.858-1.613 1.799 0 3.402.894 4.446 2.29 1.033-1.592 2.724-2.63 4.636-2.63 2.64 0 4.86 1.978 5.505 4.662.297-.057.607-.087.923-.087 2.444 0 4.425 1.784 4.425 3.984 0 1.928-1.521 3.536-3.543 3.904v.08h-7.237l-.073.002-.074-.002h-8.878c-.044.001-.087.004-.13.004-.044 0-.087-.003-.13-.004h-4.722v.002H37.222v-.002h-23.48v-.036a4.704 4.704 0 0 1-.574.037c-2.443 0-4.425-1.879-4.425-4.196 0-2.318 1.981-4.196 4.425-4.196.475 0 .932.07 1.36.202.479-2.476 2.806-4.355 5.605-4.355 1.703 0 3.231.696 4.275 1.798 1.043-1.102 2.571-1.798 4.274-1.798a5.92 5.92 0 0 1 3.807 1.359c.305-3.148 2.724-5.599 5.663-5.599 1.456 0 2.784.602 3.79 1.592v-9.818H59.42v12.466Z"></path>
  <path fill="#DBDBDB" d="M59.419 84.072h-1.2v1.2h1.2v-1.2Zm.585 0v1.2h.853l.28-.805-1.133-.395Zm5.319-4.028v-1.2 1.2Zm5.687 5.982-1.199.05.112 2.71 1.93-1.906-.843-.854Zm3.858-1.613v-1.2 1.2Zm4.446 2.29-.961.719 1.03 1.378.938-1.444-1.007-.653Zm4.636-2.63v-1.2 1.2Zm5.505 4.662-1.167.28.267 1.114 1.125-.215-.225-1.179Zm.923-.087v-1.2 1.2Zm4.425 3.984h1.2-1.2Zm-3.543 3.904-.215-1.18-.985.179v1.001h1.2Zm0 .08v1.2h1.2v-1.2h-1.2Zm-7.237 0v-1.2h-.017l.017 1.2Zm-.073.002v1.2-1.2Zm-.074-.002.017-1.2h-.017v1.2Zm-8.878 0v-1.2h-.029l.029 1.2Zm-.13.004v1.2-1.2Zm-.13-.004.029-1.2h-.029v1.2Zm-4.722 0v-1.2h-1.2v1.2h1.2Zm0 .002v1.2h1.2v-1.2h-1.2Zm-32.794 0h-1.2v1.2h1.2v-1.2Zm0-.002h1.2v-1.2h-1.2v1.2Zm-23.48 0h-1.2v1.2h1.2v-1.2Zm0-.036h1.2v-1.356l-1.346.165.147 1.191Zm-.574.037v1.2-1.2Zm-4.425-4.196h-1.2 1.2Zm4.425-4.196v-1.2 1.2Zm1.36.202-.35 1.147 1.276.39.253-1.31-1.178-.227Zm5.605-4.355v-1.2 1.2Zm4.275 1.798-.872.825.872.92.87-.92-.87-.825Zm4.274-1.798v-1.2 1.2Zm3.807 1.359-.77.92 1.745 1.46.22-2.265-1.195-.115Zm5.663-5.599v-1.2 1.2Zm3.79 1.592-.84.855 2.04 2.008v-2.863h-1.2Zm0-9.818v-1.2h-1.2v1.2h1.2Zm17.477 0h1.2v-1.2h-1.2v1.2Zm0 12.466v1.2h.585v-2.4h-.585v1.2Zm.585 0 1.134.395c.678-1.948 2.343-3.223 4.185-3.223v-2.4c-3.013 0-5.49 2.07-6.452 4.834l1.133.394Zm5.319-4.028v1.2c2.31 0 4.373 2.037 4.488 4.832l1.2-.05 1.198-.05c-.16-3.864-3.083-7.132-6.886-7.132v1.2Zm5.687 5.982.843.854c.808-.797 1.866-1.267 3.015-1.267v-2.4c-1.828 0-3.48.753-4.7 1.96l.842.853Zm3.858-1.613v1.2c1.385 0 2.646.686 3.485 1.809l.961-.719.961-.719c-1.248-1.669-3.195-2.77-5.407-2.77v1.2Zm4.446 2.29 1.007.653c.84-1.294 2.173-2.084 3.629-2.084v-2.4c-2.368 0-4.417 1.289-5.643 3.178l1.007.653Zm4.636-2.63v1.2c2 0 3.801 1.511 4.338 3.743l1.167-.28 1.166-.281c-.754-3.136-3.392-5.583-6.671-5.583v1.2Zm5.505 4.662.225 1.179c.224-.043.457-.066.698-.066v-2.4a6.12 6.12 0 0 0-1.149.109l.226 1.178Zm.923-.087v1.2c1.903 0 3.225 1.362 3.225 2.784h2.4c0-2.978-2.64-5.183-5.624-5.184v1.2Zm4.425 3.984h-1.2c0 1.251-1.006 2.441-2.558 2.724l.215 1.18.215 1.18c2.491-.453 4.528-2.48 4.528-5.084h-1.2Zm-3.543 3.904h-1.2v.08h2.4v-.08h-1.2Zm0 .08v-1.2h-7.237v2.4h7.237v-1.2Zm-7.237 0-.017-1.2-.04.001-.023.001h-.006.013v2.4l.08-.001.014-.001h-.004l-.017-1.2Zm-.073.002v-1.2h.012-.028l-.04-.002-.018 1.2-.016 1.2h-.004.013l.08.002v-1.2Zm-.074-.002v-1.2h-8.878v2.4h8.878v-1.2Zm-8.878 0-.03-1.2-.049.002H74.9l-.014.001-.018.001v2.4l.112-.002.046-.002-.028-1.2Zm-.13.004v-1.2h-.018l-.015-.001h-.019l-.05-.002-.028 1.2-.029 1.199.047.002.112.002v-1.2Zm-.13-.004v-1.2h-4.722v2.4h4.722v-1.2Zm-4.722 0h-1.2v.002h2.4v-.002h-1.2Zm0 .002v-1.2H37.222v2.4h32.794v-1.2Zm-32.794 0h1.2v-.002h-2.4v.002h1.2Zm0-.002v-1.2h-23.48v2.4h23.48v-1.2Zm-23.48 0h1.2v-.036h-2.4v.036h1.2Zm0-.036-.146-1.191c-.148.018-.29.028-.428.028v2.4c.252 0 .494-.018.721-.046l-.146-1.19Zm-.574.037v-1.2c-1.842 0-3.225-1.4-3.225-2.996h-2.4c0 3.04 2.58 5.396 5.625 5.396v-1.2Zm-4.425-4.196h1.2c0-1.595 1.383-2.996 3.226-2.996v-2.4c-3.046 0-5.626 2.356-5.626 5.396h1.2Zm4.425-4.196v1.2c.355 0 .694.053 1.01.15l.35-1.148.352-1.148a5.843 5.843 0 0 0-1.712-.254v1.2Zm1.36.202 1.179.227c.36-1.862 2.151-3.382 4.426-3.382v-2.4c-3.324 0-6.186 2.24-6.782 5.327l1.178.228Zm5.605-4.355v1.2c1.374 0 2.587.561 3.404 1.423l.87-.825.872-.825c-1.27-1.341-3.114-2.173-5.146-2.173v1.2Zm4.275 1.798.87.825c.818-.862 2.03-1.423 3.404-1.423v-2.4c-2.032 0-3.875.832-5.145 2.173l.87.825Zm4.274-1.798v1.2a4.72 4.72 0 0 1 3.037 1.08l.77-.921.77-.92a7.12 7.12 0 0 0-4.577-1.639v1.2Zm3.807 1.359 1.194.115c.256-2.634 2.245-4.514 4.469-4.514v-2.4c-3.654 0-6.503 3.022-6.858 6.683l1.195.116Zm5.663-5.599v1.2c1.113 0 2.146.458 2.95 1.248l.84-.856.842-.856c-1.21-1.19-2.834-1.936-4.632-1.936v1.2Zm3.79 1.592h1.2v-9.818h-2.4v9.818h1.2Zm0-9.818v1.2H59.42v-2.4H41.943v1.2Zm17.477 0h-1.2v12.466h2.4V71.606h-1.2Z" mask="url(#a)"></path>
  <path fill="#242424" stroke="#DDD" stroke-width="1.2" d="M63.271 40.619v2.493c0 7.103 5.432 13.027 12.509 13.641.563.05.995.52.995 1.085v13.976H23.853V57.877c0-.586.449-1.074 1.032-1.124 7.24-.613 12.804-6.67 12.804-13.935v-2.2h25.582Z"></path>
  <path fill="#2D3633" d="M25.148 58.413c0-.406.312-.744.717-.776 6.906-.54 12.234-6.303 12.234-13.23v-1.23h25.07V44.7A12.979 12.979 0 0 0 75.11 57.637a.76.76 0 0 1 .7.758v12.51H25.148V58.413Z"></path>
  <path stroke="#fff" stroke-opacity=".64" stroke-width=".6" d="M62.87 43.477V44.7c0 6.922 5.317 12.683 12.216 13.236.24.02.424.22.424.46v12.208H25.448V58.413c0-.25.192-.457.44-.477 7.062-.553 12.51-6.445 12.51-13.529v-.93H62.87Z"></path>
  <path fill="#242424" stroke="#DDD" stroke-width="1.2" d="M50.456 4.181a38.338 38.338 0 0 1 12.843 28.63v21.637l.09.145 3.72 5.98v16.079h-6.855V71.82h-19.16v4.83h-7.4V60.58l3.824-5.98.095-.147V32.81c0-10.946 4.68-21.36 12.843-28.629Z"></path>
  <path fill="#2D3633" d="M38.816 33.176A38.288 38.288 0 0 1 50.45 5.689a38.32 38.32 0 0 1 11.58 27.448v21.858l3.87 5.934v14.537h-5.015v-4.68h-20.48v4.68h-5.503V60.929l3.913-5.935V33.175Z"></path>
  <path stroke="#fff" stroke-opacity=".64" stroke-width=".357" d="M50.45 5.94a38.14 38.14 0 0 1 11.402 27.197v21.91l.029.045 3.84 5.89v14.305h-4.658v-4.68H40.227v4.68H35.08V60.983l3.884-5.891.03-.044V33.176A38.108 38.108 0 0 1 50.448 5.941Z"></path>
  <circle cx="50.578" cy="26.884" r="4.487" fill="#A3E50A" stroke="#DDD" stroke-width=".458"></circle>
  <path stroke="#DDD" stroke-width=".857" d="M46.138 20.198a6.283 6.283 0 0 1 8.885 0"></path>
  <circle cx="50.579" cy="26.884" r="2.753" fill="#242424"></circle>
  <circle cx="50.579" cy="26.884" r="2.638" stroke="#fff" stroke-opacity=".64" stroke-width=".229"></circle>
  <path fill="#2D3633" stroke="#DDD" stroke-width=".714" d="M37.405 54.539h26.13v17.517h-26.13z"></path>
  <path fill="#242424" stroke="#DDD" stroke-width=".6" d="M47.97 52.451h5.215v24.954H47.97z"></path>
  <path stroke="#DBDBDB" stroke-width=".857" d="M45.427 77.088v6.58m9.476-2.233v6.58m-4.501-4.347v6.579"></path>
  <path fill="#242424" stroke="#DBDBDB" stroke-linecap="square" stroke-width="1.2" d="M1.532 92.613h96.939v4.006H1.532z"></path>
</svg>