<svg width="120" height="45" viewBox="0 0 120 45" fill="none" xmlns="http://www.w3.org/2000/svg">
<path fill-rule="evenodd" clip-rule="evenodd" d="M7.38578 8.60471L3.28631 5.73838C3.09201 6.00672 2.90693 6.28181 2.7323 6.56365L6.85144 9.44348C7.01316 9.15304 7.19209 8.87304 7.38578 8.60471ZM6.51387 10.1226L1.84624 8.23935C1.67838 8.6176 1.52834 9.00322 1.39553 9.3962L6.09574 11.2923C6.20704 10.8895 6.34724 10.499 6.51387 10.1226ZM5.974 11.786L0.962031 10.9933C0.863033 11.479 0.794166 11.9715 0.751738 12.4688L5.79629 13.2671C5.8129 12.7611 5.87254 12.2662 5.974 11.786ZM5.78953 13.5465C5.78953 13.5397 5.79014 13.533 5.79014 13.5262L0.710541 13.8805C0.725913 14.4645 0.778794 15.0429 0.872257 15.6127L5.96293 15.2572C5.84917 14.7046 5.78953 14.1323 5.78953 13.5465ZM27.8321 13.5465C27.8321 20.6988 21.7582 27.0927 14.2664 27.0927C10.0114 27.0927 6.21565 25.029 3.72842 21.9361L5.82458 19.984L3.33305 21.4203C2.88541 20.8081 2.4888 20.1603 2.14631 19.4842L5.59953 17.4935L1.76139 18.6651C1.49698 18.0455 1.27993 17.4051 1.11145 16.7499L5.96539 15.2682C6.76167 19.1176 10.1755 22.0116 14.2664 22.0116C18.9482 22.0116 22.7439 18.2218 22.7439 13.5465C22.7439 8.8712 18.9482 5.08075 14.2664 5.08075C11.7952 5.08075 9.57172 6.13751 8.02219 7.82242L4.66613 4.10013C7.12138 1.60284 10.5162 0.000205994 14.2664 0.000205994C21.7582 0.000205994 27.8321 6.39417 27.8321 13.5465ZM59.5426 15.4365V26.394C59.5426 26.4959 59.4602 26.5776 59.3587 26.5776H55.3988C55.2974 26.5776 55.215 26.4959 55.215 26.394V15.7582C55.215 12.7501 53.9581 11.2248 51.4808 11.2248C48.8195 11.2248 47.1667 13.0356 47.1667 15.9517V26.394C47.1667 26.4959 47.0843 26.5776 46.9828 26.5776H43.0223C42.9209 26.5776 42.8385 26.4959 42.8385 26.394V15.7582C42.8385 12.7501 41.5607 11.2248 39.0403 11.2248C36.3994 11.2248 34.7582 13.0356 34.7582 15.9517V26.394C34.7582 26.4959 34.6758 26.5776 34.5744 26.5776H30.6145C30.513 26.5776 30.4306 26.4959 30.4306 26.394V8.01953C30.4306 7.91821 30.513 7.83593 30.6145 7.83593H32.6842C32.7758 7.83593 32.8601 7.88874 32.8994 7.97163L34.2737 10.8533C34.5676 10.1564 36.0317 7.32076 40.3937 7.32076C43.2246 7.32076 45.2741 8.54699 46.3292 10.8687C47.5658 8.57953 49.8814 7.32076 52.8667 7.32076C57.2343 7.32076 59.5426 10.1275 59.5426 15.4365ZM66.4656 21.0138C66.4607 18.8567 68.3798 18.2175 70.423 18.2482H74.4506V20.4169C74.2237 21.0126 72.9084 23.815 69.5954 23.815C67.8202 23.8396 66.4146 22.8639 66.4656 21.0138ZM70.7951 7.15988C67.2736 7.15988 63.6648 8.90067 62.9103 12.5659C62.8894 12.6653 62.9558 12.7624 63.0554 12.7826L66.5443 13.4881C66.6353 13.5066 66.7245 13.4531 66.7546 13.3653C67.3966 11.4858 68.5237 10.6906 70.6032 10.6636C74.5649 10.663 74.434 14.2465 74.4506 15.224H70.0627C68.4339 15.224 67.0135 15.4647 65.8409 15.9406C62.3532 17.278 61.2188 21.0162 62.8876 24.2092C63.4705 25.2856 65.028 27.0927 68.911 27.0927C71.8287 27.0927 73.8547 25.9543 74.9363 23.7082C75.1405 24.2141 75.8359 25.9402 76.0376 26.4406C76.0714 26.5241 76.152 26.5776 76.2424 26.5776H78.3766C78.4781 26.5776 78.5605 26.4959 78.5605 26.394V15.224C78.563 15.0521 79.2904 7.15988 70.7951 7.15988ZM95.3039 14.7801V19.8066C94.0852 22.0853 92.3088 23.0462 90.3811 23.0462C87.5889 23.0462 85.1349 20.5907 85.1349 17.2068C85.1349 13.8234 87.2661 11.3679 90.3811 11.3679C93.2945 11.3679 94.8618 13.3457 95.3039 14.7801ZM96.0117 10.7287C95.5524 9.87576 93.8251 7.32076 89.6353 7.32076C84.6092 7.32076 80.961 11.4784 80.961 17.2068C80.961 23.0272 84.5145 27.0927 89.6027 27.0927C94.2365 27.0927 96.1556 24.2074 96.5331 23.5485L97.6983 26.44C97.7321 26.5229 97.8133 26.5776 97.9031 26.5776H100.156C100.257 26.5776 100.34 26.4959 100.34 26.394V2.16653C100.34 2.06521 100.257 1.98293 100.156 1.98293H96.1955C96.0941 1.98293 96.0117 2.06521 96.0117 2.16653V10.7287ZM107.163 21.0138C107.158 18.8567 109.077 18.2175 111.121 18.2482H115.148V20.4169C114.921 21.0126 113.606 23.815 110.293 23.815C108.518 23.8396 107.112 22.8639 107.163 21.0138ZM111.493 7.15988C107.971 7.15988 104.363 8.90067 103.608 12.5659C103.588 12.6653 103.654 12.7624 103.753 12.7826L107.242 13.4881C107.333 13.5066 107.422 13.4531 107.452 13.3653C108.094 11.4858 109.221 10.6906 111.301 10.6636C115.263 10.663 115.132 14.2465 115.148 15.224H110.76C109.132 15.224 107.711 15.4647 106.539 15.9406C103.051 17.278 101.916 21.0162 103.585 24.2092C104.168 25.2856 105.726 27.0927 109.609 27.0927C112.526 27.0927 114.552 25.9543 115.634 23.7082C115.838 24.2141 116.534 25.9402 116.735 26.4406C116.769 26.5241 116.85 26.5776 116.94 26.5776H119.074C119.176 26.5776 119.258 26.4959 119.258 26.394V15.224C119.261 15.0521 119.988 7.15988 111.493 7.15988ZM74.0429 34.7418H75.9159L73.4465 41.5171C72.7406 43.4685 71.6006 44.2981 69.8635 44.2035V42.5769C70.8 42.591 71.3159 42.222 71.6412 41.3003L68.8594 34.7418H70.7729L72.537 39.2949L74.0429 34.7418ZM64.8835 40.0403C65.8132 40.0403 66.77 39.4017 66.77 38.1294C66.77 36.9996 65.9528 36.2186 64.8835 36.2186C63.8062 36.2186 63.0106 36.999 63.0106 38.1294C63.0106 39.056 63.6052 40.0403 64.8835 40.0403ZM67.5429 35.5953C68.1947 36.2867 68.5206 37.1267 68.5206 38.1294C68.5206 39.1322 68.1947 39.9863 67.5435 40.6771C66.9053 41.3685 66.1182 41.7068 65.2094 41.7068C64.2594 41.7068 63.5264 41.382 63.0106 40.7176V41.5171H61.26V31.9633H63.0106V35.5413C63.5264 34.8769 64.2594 34.5521 65.2094 34.5521C66.1182 34.5521 66.9053 34.9039 67.5429 35.5953ZM98.2991 41.137C98.2991 41.3396 98.4768 41.5171 98.6797 41.5171H99.8726V31.1786L98.2991 31.9633V41.137ZM107.892 34.1935C106.623 34.1935 105.303 34.8529 104.643 35.8158V41.137C104.643 41.3396 104.821 41.5171 105.024 41.5171H106.217V36.4488C106.597 35.9674 107.206 35.6635 107.892 35.6635C108.983 35.6635 109.769 36.525 109.769 37.6652V41.5171H111.317V37.6155C111.317 35.6635 109.845 34.1935 107.892 34.1935ZM82.1601 39.1352V35.79H84.1904V34.3967H82.1601V32.2427L80.5859 33.028V39.4644C80.5859 40.7821 81.373 41.5171 82.7688 41.5171H84.7986V40.1742H83.1746C82.4134 40.1742 82.1601 39.8954 82.1601 39.1352ZM89.2141 34.2702C87.8693 34.2702 86.4489 34.9794 85.7381 36.0184V43.8234C85.7381 44.026 85.9152 44.2035 86.1187 44.2035H87.3116V36.6515C87.6922 36.0939 88.4018 35.7396 89.1895 35.7396C90.4063 35.7396 91.2955 36.6515 91.2955 37.9434C91.2955 39.2108 90.4063 40.1742 89.1895 40.1742H88.0728V41.5171H89.2141C91.3207 41.5171 92.8684 40.0219 92.8684 37.9434C92.8684 35.8409 91.2955 34.2702 89.2141 34.2702ZM103.044 41.5171V34.3967H101.471V41.137C101.471 41.3396 101.649 41.5171 101.852 41.5171H103.044ZM119.26 41.5171L115.936 37.7666L118.905 34.3967H117.051L114.388 37.5394V31.1786L112.814 31.9633V41.1112C112.814 41.3396 112.992 41.5171 113.195 41.5171H114.388V37.9692L117.331 41.5171H119.26ZM94.7715 38.73H96.9033V37.158H94.0102L94.7715 38.73ZM102.258 31.0263C101.674 31.0263 101.192 31.4825 101.192 32.0646C101.192 32.3434 101.294 32.5724 101.471 32.7493H103.044C103.222 32.5724 103.324 32.3434 103.324 32.0646C103.324 31.4825 102.841 31.0263 102.258 31.0263Z" fill="#0A5A5A"></path>
</svg>