<svg width="192" height="192" viewBox="0 0 192 192" fill="none" xmlns="http://www.w3.org/2000/svg">
<path fill-rule="evenodd" clip-rule="evenodd" d="M54.7107 0.000600221L136.716 0C152.864 0 160.366 1.4123 166.519 4.09191L166.956 4.28546C167.246 4.41593 167.534 4.54927 167.819 4.68545L168.246 4.89187C168.317 4.92663 168.388 4.96156 168.459 4.99668L168.883 5.20948C168.953 5.2453 169.024 5.2813 169.094 5.31748L169.517 5.53665C169.657 5.61041 169.798 5.68488 169.938 5.76005C176.966 9.51855 182.481 15.034 186.24 22.0618L186.352 22.2726L186.573 22.6944C186.647 22.8352 186.719 22.976 186.791 23.117L187.003 23.541C187.038 23.6118 187.073 23.6827 187.108 23.7536L187.315 24.1807C187.451 24.4663 187.584 24.7537 187.715 25.0439L187.908 25.4811C190.588 31.6339 192 39.1361 192 55.2838V136.716C192 152.864 190.588 160.366 187.908 166.519L187.715 166.956C187.584 167.246 187.451 167.534 187.315 167.819L187.108 168.246C187.073 168.317 187.038 168.388 187.003 168.459L186.791 168.883C186.755 168.953 186.719 169.024 186.683 169.094L186.463 169.517C186.39 169.657 186.315 169.798 186.24 169.938C182.481 176.966 176.966 182.481 169.938 186.24L169.727 186.352L169.306 186.573C169.165 186.647 169.024 186.719 168.883 186.791L168.459 187.003C168.388 187.038 168.317 187.073 168.246 187.108L167.819 187.315C167.534 187.451 167.246 187.584 166.956 187.715L166.519 187.908C160.366 190.588 152.864 192 136.716 192H55.2838C39.1361 192 31.6339 190.588 25.4811 187.908L25.0439 187.715C24.7537 187.584 24.4663 187.451 24.1807 187.315L23.7536 187.108C23.6827 187.073 23.6118 187.038 23.541 187.003L23.117 186.791C23.0465 186.755 22.976 186.719 22.9056 186.683L22.4835 186.463C22.3429 186.39 22.2023 186.315 22.0618 186.24C15.034 182.481 9.51855 176.966 5.76005 169.938L5.64782 169.727L5.42653 169.306C5.35348 169.165 5.28113 169.024 5.20948 168.883L4.99668 168.459C4.96156 168.388 4.92663 168.317 4.89187 168.246L4.68545 167.819C4.54927 167.534 4.41593 167.246 4.28546 166.956L4.09191 166.519C1.4442 160.439 0.0338057 153.042 0.000600221 137.289L0 55.2838C0 39.1361 1.4123 31.6339 4.09191 25.4811L4.28546 25.0439C4.41593 24.7537 4.54927 24.4663 4.68545 24.1807L4.89187 23.7536C4.92663 23.6827 4.96156 23.6118 4.99668 23.541L5.20948 23.117C5.2453 23.0465 5.2813 22.976 5.31748 22.9056L5.53665 22.4835C5.61041 22.3429 5.68488 22.2023 5.76005 22.0618C9.51855 15.034 15.034 9.51855 22.0618 5.76005L22.2726 5.64782L22.6944 5.42653C22.8352 5.35348 22.976 5.28113 23.117 5.20948L23.541 4.99668C23.6118 4.96156 23.6827 4.92663 23.7536 4.89187L24.1807 4.68545C24.4663 4.54927 24.7537 4.41593 25.0439 4.28546L25.4811 4.09191C31.5606 1.4442 38.9577 0.0338057 54.7107 0.000600221Z" fill="#0A7171"></path>
<path d="M34.0518 84.9926L33.2238 91.8593L56.7719 94.6945C56.8499 92.3492 57.1274 90.0516 57.5956 87.8277L34.0475 84.9926H34.0518Z" fill="white"></path>
<path d="M37.8222 72.1125L35.8801 77.5356L58.1667 85.5251C58.6825 83.6567 59.3328 81.8447 60.1088 80.0976L37.8265 72.1125H37.8222Z" fill="white"></path>
<path d="M44.2512 60.3344L41.7672 64.2186L61.6782 76.9377C62.4282 75.5895 63.2562 74.2933 64.1535 73.0492L44.2512 60.3301V60.3344Z" fill="white"></path>
<path d="M56.7449 95.9077L33.1144 98.3916L33.9554 106.416L57.5469 103.936C57.0223 101.374 56.7449 98.7168 56.7449 95.9987C56.7449 95.9683 56.7449 95.938 56.7449 95.9077Z" fill="white"></path>
<path d="M140.568 51.8724C116.274 27.2102 76.5776 26.9154 51.9241 51.2178L51.9631 51.2655L50.5759 52.631L67.1142 69.4207C74.2887 61.6306 84.5715 56.745 95.9987 56.745C117.678 56.745 135.257 74.3193 135.257 96.0033C135.257 117.687 117.678 135.262 95.9987 135.262C77.0588 135.262 61.2575 121.849 57.5597 104.006L35.052 111.692L38.0302 120.418L55.9297 114.306L39.7859 124.281L45.2394 133.107L56.9745 125.855L47.0992 135.578L51.2738 139.813L51.2652 139.822C111.96 196.75 196.555 113.383 140.572 51.868L140.568 51.8724Z" fill="white"></path>
</svg>