<svg width="120" height="45" viewBox="0 0 120 45" fill="none" xmlns="http://www.w3.org/2000/svg">
<path d="M54.0395 31.8183H31.9357C31.0866 31.8183 30.3979 32.507 30.3979 33.3562V42.5835C30.3979 43.4327 31.0866 44.1214 31.9357 44.1214H54.0395C54.8886 44.1214 55.5774 43.4327 55.5774 42.5835V33.3562C55.5774 32.507 54.8886 31.8183 54.0395 31.8183ZM50.2151 36.6587C50.5552 36.9988 50.7306 37.4351 50.7306 37.9677C50.7306 38.5003 50.5552 38.9366 50.2151 39.2767C49.875 39.6168 49.4557 39.7836 48.9488 39.7836C48.4419 39.7836 48.0141 39.6168 47.674 39.2767C47.3339 38.9366 47.1671 38.5003 47.1671 37.9677C47.1671 37.4351 47.3339 36.9988 47.674 36.6587C48.0141 36.3186 48.4419 36.1517 48.9488 36.1517C49.4557 36.1517 49.875 36.3186 50.2151 36.6587ZM51.2011 40.2307C50.5808 40.8424 49.8301 41.1483 48.9467 41.1483C48.0633 41.1483 47.3125 40.8424 46.6922 40.2307C46.072 39.6189 45.7661 38.8682 45.7661 37.9698C45.7661 37.0715 46.072 36.3186 46.6922 35.709C47.3125 35.0972 48.0633 34.7914 48.9467 34.7914C49.8301 34.7914 50.5808 35.0972 51.2011 35.709C51.8214 36.3207 52.1273 37.0715 52.1273 37.9698C52.1273 38.8682 51.8214 39.6211 51.2011 40.2307ZM43.4539 37.0073C43.4539 37.4522 43.1395 37.7923 42.7545 37.7923H41.7064V36.2202H42.7545C43.1395 36.2202 43.4539 36.5603 43.4539 37.0052V37.0073ZM43.5245 41.0242L42.3716 39.0158H41.7085V41.0242H40.3118V34.9112H42.7566C43.3427 34.9112 43.8304 35.1122 44.241 35.5229C44.6517 35.9336 44.8528 36.4234 44.8528 37.0073C44.8528 37.7495 44.3993 38.4297 43.7255 38.7805L45.0282 41.0242H43.5266H43.5245ZM37.7772 37.0073C37.7772 37.4522 37.4627 37.7923 37.035 37.7923H36.1174V36.2202H37.035C37.4627 36.2202 37.7772 36.5603 37.7772 37.0052V37.0073ZM38.5536 38.4917C38.1429 38.9024 37.636 39.1035 37.0328 39.1035H36.1152V41.0242H34.7185V34.9112H37.0328C37.636 34.9112 38.1429 35.1122 38.5536 35.5229C38.9643 35.9336 39.1739 36.4234 39.1739 37.0073C39.1739 37.5912 38.9643 38.0811 38.5536 38.4917ZM94.6493 39.2275H96.7775V37.6554H93.8878L94.6493 39.2275ZM119.104 42.0146L115.784 38.2629L118.749 34.8919H116.898L114.238 38.034V31.6728L112.665 32.4578V41.606C112.665 41.8349 112.843 42.0124 113.046 42.0124H114.238V38.4639L117.176 42.0124H119.104V42.0146ZM102.125 31.5231C101.543 31.5231 101.06 31.9787 101.06 32.5626C101.06 32.8407 101.16 33.0695 101.338 33.2471H102.91C103.087 33.0695 103.19 32.8407 103.19 32.5626C103.19 31.9808 102.709 31.5231 102.125 31.5231ZM102.91 42.0146V34.894H101.338V41.6338C101.338 41.837 101.515 42.0146 101.718 42.0146H102.91ZM89.0987 34.7679C87.7555 34.7679 86.3374 35.478 85.6272 36.5154V44.3203C85.6272 44.5235 85.8048 44.7011 86.008 44.7011H87.1994V37.1485C87.5801 36.5902 88.2881 36.2373 89.0752 36.2373C90.2901 36.2373 91.1778 37.1485 91.1778 38.4404C91.1778 39.7323 90.2901 40.6713 89.0752 40.6713H87.9608V42.0146H89.1009C91.2034 42.0146 92.7499 40.5194 92.7499 38.4404C92.7499 36.3614 91.1778 34.7657 89.1009 34.7657M82.0574 39.6318V36.2865H84.0851V34.894H82.0574V32.7401L80.4852 33.5251V39.9612C80.4852 41.2788 81.2702 42.0146 82.6648 42.0146H84.6925V40.6713H83.0712C82.3119 40.6713 82.0574 40.3932 82.0574 39.6318ZM107.755 34.6908C106.488 34.6908 105.171 35.3496 104.51 36.3143V41.636C104.51 41.8392 104.687 42.0167 104.89 42.0167H106.082V36.9474C106.46 36.4662 107.07 36.1624 107.755 36.1624C108.843 36.1624 109.628 37.0244 109.628 38.1645V42.0167H111.175V38.1153C111.175 36.1624 109.705 34.693 107.755 34.693M98.1742 41.636C98.1742 41.8392 98.3518 42.0167 98.555 42.0167H99.7463V31.6771L98.1742 32.4621V41.636ZM67.4613 36.094C68.1115 36.7849 68.4366 37.6255 68.4366 38.6286C68.4366 39.6318 68.1115 40.4852 67.4613 41.1761C66.8239 41.867 66.0389 42.2071 65.1299 42.2071C64.2208 42.2071 63.4486 41.8819 62.9353 41.2167V42.0167H61.1878V32.4621H62.9353V36.0405C63.4508 35.3774 64.1823 35.0502 65.1299 35.0502C66.0774 35.0502 66.8239 35.4031 67.4613 36.094ZM64.8047 40.5387C65.733 40.5387 66.6891 39.8992 66.6891 38.6286C66.6891 37.4993 65.8742 36.7186 64.8047 36.7186C63.7353 36.7186 62.9353 37.4993 62.9353 38.6286C62.9353 39.5548 63.5278 40.5387 64.8047 40.5387ZM73.9508 35.2406H75.8202L73.354 42.0167C72.6503 43.9674 71.5103 44.7973 69.7756 44.7032V43.0776C70.7103 43.0904 71.2258 42.7225 71.5509 41.8007L68.7725 35.2406H70.6825L72.445 39.7943L73.9487 35.2406H73.9508ZM111.348 7.66115C107.832 7.66115 104.227 9.40224 103.475 13.0662C103.453 13.1646 103.519 13.263 103.62 13.2823L107.104 13.9881C107.194 14.0074 107.284 13.9539 107.314 13.8662C107.956 11.9861 109.081 11.1904 111.158 11.1647C115.115 11.1647 114.984 14.7474 114.999 15.7249H110.616C108.991 15.7249 107.571 15.9666 106.401 16.4415C102.918 17.7783 101.785 21.5172 103.451 24.7106C104.033 25.7886 105.588 27.5939 109.466 27.5939C112.379 27.5939 114.402 26.456 115.482 24.2101C115.686 24.7149 116.381 26.441 116.582 26.9415C116.616 27.0249 116.695 27.0784 116.785 27.0784H118.918C119.018 27.0784 119.102 26.9971 119.102 26.8944V15.7228C119.104 15.5517 119.831 7.65901 111.346 7.65901L111.348 7.66115ZM107.025 21.515C107.021 19.3568 108.937 18.7194 110.978 18.7494H114.999V20.9183C114.772 21.5129 113.459 24.317 110.15 24.317C108.377 24.3405 106.974 23.3652 107.025 21.515ZM95.8898 11.231C95.43 10.3776 93.706 7.82371 89.5222 7.82371C84.5022 7.82371 80.8596 11.9818 80.8596 17.7099C80.8596 23.4379 84.4081 27.596 89.4902 27.596C94.1167 27.596 96.0332 24.7106 96.4096 24.0518L97.5732 26.9436C97.6074 27.0271 97.6887 27.0827 97.7785 27.0827H100.029C100.129 27.0827 100.213 27.0014 100.213 26.8987V2.66674C100.213 2.56621 100.131 2.48279 100.029 2.48279H96.0738C95.9733 2.48279 95.8898 2.56407 95.8898 2.66674V11.2289V11.231ZM95.1819 15.2822V20.3087C93.9648 22.5866 92.1916 23.5491 90.2666 23.5491C87.4774 23.5491 85.0283 21.0936 85.0283 17.7099C85.0283 14.3261 87.1566 11.8706 90.2666 11.8706C93.1755 11.8706 94.7412 13.8491 95.1819 15.2822ZM70.706 7.66115C67.1896 7.66115 63.5855 9.40224 62.8326 13.0662C62.8112 13.1646 62.8775 13.263 62.9781 13.2823L66.4624 13.9881C66.5522 14.0074 66.6421 13.9539 66.672 13.8662C67.3137 11.9861 68.4388 11.1904 70.5157 11.1647C74.4727 11.1647 74.3422 14.7474 74.3572 15.7249H69.9745C68.3489 15.7249 66.9287 15.9666 65.7587 16.4415C62.2765 17.7783 61.1429 21.5172 62.8091 24.7106C63.3909 25.7886 64.9459 27.5939 68.8238 27.5939C71.737 27.5939 73.7604 26.456 74.8406 24.2101C75.0438 24.7149 75.739 26.441 75.94 26.9415C75.9742 27.0249 76.0534 27.0784 76.1432 27.0784H78.2757C78.3763 27.0784 78.4597 26.9971 78.4597 26.8944V15.7228C78.4618 15.5517 79.1891 7.65901 70.7039 7.65901L70.706 7.66115ZM66.3833 21.515C66.379 19.3568 68.2955 18.7194 70.336 18.7494H74.3572V20.9183C74.1305 21.5129 72.8172 24.317 69.5082 24.317C67.7351 24.3405 66.3319 23.3652 66.3833 21.515ZM59.4702 15.9388V26.8966C59.4702 26.9971 59.389 27.0805 59.2863 27.0805H55.3314C55.2309 27.0805 55.1474 26.9992 55.1474 26.8966V16.2597C55.1474 13.2502 53.8919 11.7251 51.4193 11.7251C48.7627 11.7251 47.1115 13.5368 47.1115 16.4522V26.8944C47.1115 26.995 47.0302 27.0784 46.9275 27.0784H42.9726C42.8721 27.0784 42.7887 26.9971 42.7887 26.8944V16.2575C42.7887 13.248 41.5117 11.723 38.9964 11.723C36.481 11.723 34.7206 13.5347 34.7206 16.45V26.8923C34.7206 26.9928 34.6394 27.0762 34.5367 27.0762H30.5818C30.4813 27.0762 30.3979 26.995 30.3979 26.8923V8.51886C30.3979 8.41833 30.4791 8.33491 30.5818 8.33491H32.648C32.74 8.33491 32.8234 8.38839 32.864 8.4718L34.2372 11.3529C34.5303 10.6557 35.9933 7.82157 40.3482 7.82157C43.1758 7.82157 45.2207 9.04718 46.2752 11.3701C47.5093 9.0814 49.8215 7.82157 52.8032 7.82157C57.1645 7.82157 59.4702 10.6278 59.4702 15.9367V15.9388ZM27.8033 14.048C27.8033 21.2006 21.7373 27.5939 14.2575 27.5939C10.0074 27.5939 6.21721 25.5298 3.73391 22.4369L5.82793 20.4841L3.34035 21.9214C2.89331 21.3097 2.49761 20.6616 2.15538 19.9857L5.60334 17.9943L1.77037 19.1665C1.50728 18.5462 1.28911 17.9066 1.12228 17.2521L5.9691 15.7698C6.76478 19.6199 10.1742 22.5139 14.2596 22.5139C18.9353 22.5139 22.7255 18.7237 22.7255 14.048C22.7255 9.3723 18.931 5.57997 14.2553 5.57997C11.787 5.57997 9.56678 6.6366 8.02034 8.32208L4.66863 4.60034C7.11984 2.10206 10.5101 0.5 14.2553 0.5C21.7373 0.5 27.8012 6.89327 27.8012 14.0459L27.8033 14.048ZM5.79157 14.048C5.79157 14.048 5.79157 14.0352 5.79157 14.0266L0.718018 14.3817C0.73299 14.9656 0.786463 15.5431 0.880576 16.1142L5.96482 15.7591C5.85146 15.2073 5.79157 14.6341 5.79157 14.048ZM5.97551 12.2877L0.968273 11.4941C0.869882 11.9797 0.801436 12.4716 0.758657 12.97L5.79584 13.7678C5.81296 13.2609 5.87285 12.7668 5.97338 12.2877H5.97551ZM6.51453 10.6236L1.85165 8.73917C1.68482 9.11776 1.53295 9.50277 1.40034 9.89633L6.09316 11.7936C6.20438 11.3914 6.34341 11 6.51025 10.6236H6.51453ZM7.38507 9.10493L3.29115 6.23876C3.09651 6.50826 2.91256 6.78205 2.73717 7.06439L6.85034 9.94553C7.01076 9.65463 7.19043 9.37443 7.38293 9.10707L7.38507 9.10493Z" fill="#0A5A5A"></path>
</svg>