<svg xmlns="http://www.w3.org/2000/svg" width="88" height="60" fill="none" viewBox="0 0 88 60">
  <path fill="#CCC" d="M32.343 12.09a4.364 4.364 0 0 1 4.363-4.364h13.091a4.364 4.364 0 0 1 4.364 4.364v35.819a4.364 4.364 0 0 1-4.364 4.363h-13.09a4.364 4.364 0 0 1-4.364-4.363v-35.82Z"></path>
  <mask id="a" width="21" height="43" x="33" y="8" maskUnits="userSpaceOnUse" style="mask-type:alpha">
    <path fill="#323232" d="M33.502 12a3 3 0 0 1 3-3h13.5a3 3 0 0 1 3 3v36a3 3 0 0 1-3 3h-13.5a3 3 0 0 1-3-3V12Z"></path>
  </mask>
  <g mask="url(#a)">
    <path fill="#959595" d="M32.752 10.176c0-.65.527-1.177 1.176-1.177h18.648c.65 0 1.176.527 1.176 1.177v39.647c0 .65-.527 1.176-1.177 1.176H33.928c-.65 0-1.176-.526-1.176-1.176V10.176Z"></path>
    <path fill="url(#b)" fill-opacity=".76" d="M32.752 8.999h21v45h-21z"></path>
  </g>
  <defs>
    <pattern id="b" width="1" height="1" patternContentUnits="objectBoundingBox">
      <use href="#c" transform="matrix(.00203 0 0 .00095 0 -.012)"></use>
    </pattern>
    <image id="c" width="492" height="1080" data-name="image.png" preserveAspectRatio="none"></image>
  </defs>
</svg>