<svg xmlns="http://www.w3.org/2000/svg" width="88" height="60" fill="none" viewBox="0 0 88 60">
  <g filter="url(#a)">
    <path fill="url(#b)" d="M26 22.213c0-.18.146-.327.327-.327h35.346c.18 0 .327.147.327.327v18.982a.328.328 0 0 1-.327.328H26.327a.327.327 0 0 1-.327-.328V22.213Z"></path>
  </g>
  <g filter="url(#c)">
    <path fill="url(#d)" d="M26 31.704c0-.903.733-1.636 1.636-1.636h32.728c.903 0 1.636.733 1.636 1.636v9.819H26v-9.819Z"></path>
    <path fill="url(#e)" fill-opacity=".2" d="M26 31.704c0-.903.733-1.636 1.636-1.636h32.728c.903 0 1.636.733 1.636 1.636v9.819H26v-9.819Z"></path>
  </g>
  <path fill="url(#f)" d="M29.273 12.395c0-.18.146-.327.327-.327h28.8c.18 0 .327.147.327.327v9.491H29.273v-9.49Z"></path>
  <rect width="32.727" height="3.273" x="27.637" y="34.977" fill="url(#g)" rx=".818"></rect>
  <path fill="url(#h)" d="M29.273 36.614h29.454v9.49a.327.327 0 0 1-.327.328H29.6a.327.327 0 0 1-.327-.328v-9.49Z"></path>
  <path fill="url(#i)" d="m27.78 46 1.493-4.478h29.454l1.493 4.479a.327.327 0 0 1-.31.43H28.09a.327.327 0 0 1-.31-.43Z"></path>
  <defs>
    <linearGradient id="b" x1="62" x2="26" y1="31.704" y2="31.704" gradientUnits="userSpaceOnUse">
      <stop stop-color="#B7B7B7"></stop>
      <stop offset=".055" stop-color="#DDD"></stop>
      <stop offset=".519" stop-color="#EBEBEB"></stop>
      <stop offset=".951" stop-color="#D7D7D7"></stop>
      <stop offset="1" stop-color="#B7B7B7"></stop>
    </linearGradient>
    <linearGradient id="d" x1="62" x2="26" y1="35.795" y2="35.795" gradientUnits="userSpaceOnUse">
      <stop stop-color="#B7B7B7"></stop>
      <stop offset=".055" stop-color="#DDD"></stop>
      <stop offset=".519" stop-color="#EBEBEB"></stop>
      <stop offset=".951" stop-color="#D7D7D7"></stop>
      <stop offset="1" stop-color="#B7B7B7"></stop>
    </linearGradient>
    <linearGradient id="e" x1="44" x2="44" y1="30.068" y2="41.523" gradientUnits="userSpaceOnUse">
      <stop stop-color="#B8B8B8"></stop>
      <stop offset="1" stop-color="#E4E4E4" stop-opacity="0"></stop>
    </linearGradient>
    <linearGradient id="f" x1="37.127" x2="46.555" y1="12.403" y2="28.161" gradientUnits="userSpaceOnUse">
      <stop stop-color="#6B6B6B"></stop>
      <stop offset="1" stop-color="#454545"></stop>
    </linearGradient>
    <linearGradient id="g" x1="44" x2="44" y1="34.977" y2="38.25" gradientUnits="userSpaceOnUse">
      <stop stop-color="#777"></stop>
      <stop offset="1" stop-color="#CCC"></stop>
    </linearGradient>
    <linearGradient id="h" x1="37.127" x2="46.555" y1="36.949" y2="52.707" gradientUnits="userSpaceOnUse">
      <stop stop-color="#545454"></stop>
      <stop offset="1" stop-color="#2E2E2E"></stop>
    </linearGradient>
    <linearGradient id="i" x1="36.364" x2="39.05" y1="41.69" y2="51.666" gradientUnits="userSpaceOnUse">
      <stop stop-color="#6B6B6B"></stop>
      <stop offset="1" stop-color="#454545"></stop>
    </linearGradient>
    <filter id="a" width="36" height="20.454" x="26" y="21.068" color-interpolation-filters="sRGB" filterUnits="userSpaceOnUse">
      <feFlood flood-opacity="0" result="BackgroundImageFix"></feFlood>
      <feBlend in="SourceGraphic" in2="BackgroundImageFix" result="shape"></feBlend>
      <feColorMatrix in="SourceAlpha" result="hardAlpha" values="0 0 0 0 0 0 0 0 0 0 0 0 0 0 0 0 0 0 127 0"></feColorMatrix>
      <feOffset dy="-.818"></feOffset>
      <feGaussianBlur stdDeviation=".818"></feGaussianBlur>
      <feComposite in2="hardAlpha" k2="-1" k3="1" operator="arithmetic"></feComposite>
      <feColorMatrix values="0 0 0 0 0 0 0 0 0 0 0 0 0 0 0 0 0 0 0.25 0"></feColorMatrix>
      <feBlend in2="shape" result="effect1_innerShadow_25947_14546"></feBlend>
    </filter>
    <filter id="c" width="36" height="12.273" x="26" y="29.25" color-interpolation-filters="sRGB" filterUnits="userSpaceOnUse">
      <feFlood flood-opacity="0" result="BackgroundImageFix"></feFlood>
      <feBlend in="SourceGraphic" in2="BackgroundImageFix" result="shape"></feBlend>
      <feColorMatrix in="SourceAlpha" result="hardAlpha" values="0 0 0 0 0 0 0 0 0 0 0 0 0 0 0 0 0 0 127 0"></feColorMatrix>
      <feOffset dy="-.818"></feOffset>
      <feGaussianBlur stdDeviation=".818"></feGaussianBlur>
      <feComposite in2="hardAlpha" k2="-1" k3="1" operator="arithmetic"></feComposite>
      <feColorMatrix values="0 0 0 0 0 0 0 0 0 0 0 0 0 0 0 0 0 0 0.25 0"></feColorMatrix>
      <feBlend in2="shape" result="effect1_innerShadow_25947_14546"></feBlend>
    </filter>
  </defs>
</svg>