<svg xmlns="http://www.w3.org/2000/svg" width="44" height="44" fill="none" viewBox="0 0 44 44">
  <path stroke="#999" stroke-width="1.3" d="M22.035 13.97c2.508 0 4.333.561 5.675 1.48 1.343.92 2.262 2.24 2.891 3.855 1.236 3.176 1.304 7.363 1.308 11.566-1.68.017-6.411.036-10.906.039-2.462.002-4.851-.001-6.625-.009-.886-.004-1.618-.009-2.127-.016-.056 0-.11-.003-.16-.004.005-4.16.086-8.313 1.306-11.482.632-1.643 1.559-2.985 2.912-3.92 1.354-.937 3.194-1.509 5.726-1.509ZM10 34.44h24M22.247 7.56v4.45m10.026-.803-2.586 2.897M11.92 11.28l2.585 2.898"></path>
  <path fill="#00A870" d="M16.24 27.74v-5.78h1.94v5.78h-1.94Z"></path>
</svg>