<svg xmlns="http://www.w3.org/2000/svg" width="16" height="16" fill="none" viewBox="0 0 16 16">
  <path fill="#fff" fill-opacity=".5" fill-rule="evenodd" d="M6.177 2.933c.078-.378.62-.378.697 0l.056.273a7.372 7.372 0 0 0 5.285 5.636c.33.09.329.556 0 .646l-.191.056a7.37 7.37 0 0 0-5.094 5.58l-.026.123-.03.15-.02.066c-.116.29-.542.29-.658 0l-.019-.067-.031-.15-.025-.122A7.372 7.372 0 0 0 1.086 9.56l-.25-.073c-.33-.09-.33-.557 0-.646A7.37 7.37 0 0 0 6.082 3.38l.04-.174.055-.273Zm.349 2.246a8.374 8.374 0 0 1-3.782 3.986 8.375 8.375 0 0 1 3.782 3.984 8.375 8.375 0 0 1 3.78-3.984 8.374 8.374 0 0 1-3.78-3.986ZM12.14.757c.041-.227.366-.227.408 0l.049.266a4.124 4.124 0 0 0 2.858 3.201.188.188 0 0 1 0 .36l-.122.04a4.122 4.122 0 0 0-2.736 3.16l-.035.19-.014.078-.028.075a.21.21 0 0 1-.353 0l-.027-.075-.015-.079-.035-.188a4.123 4.123 0 0 0-2.586-3.108l-.272-.093c-.177-.054-.177-.306 0-.36a4.123 4.123 0 0 0 2.858-3.2l.05-.267Zm.203 2.288a5.124 5.124 0 0 1-1.271 1.359c.504.371.933.833 1.271 1.358a5.128 5.128 0 0 1 1.271-1.358 5.127 5.127 0 0 1-1.271-1.36Z" clip-rule="evenodd"></path>
</svg>