<svg xmlns="http://www.w3.org/2000/svg" width="44" height="44" fill="none" viewBox="0 0 44 44">
  <path stroke="#999" stroke-width="1.3" d="M26.479 11.819H10.555v13.818H32.48V23.85M7.817 29.47a.707.707 0 0 0 .576 1.12h26.25c.576 0 .91-.65.576-1.12l-2.738-3.832H10.555l-2.738 3.833Z"></path>
  <path stroke="#999" stroke-width="1.3" d="M7.725 32.662c0 .057.046.104.104.104h27.378a.104.104 0 0 0 .103-.104v-2.074H7.725v2.074ZM34.223 10.65v11.673h-6.33V10.65h6.33Zm-4.692 9.707h3.053"></path>
  <path fill="#00A870" d="M13.723 15.069h6.868v2.092h-6.868z"></path>
</svg>