<svg xmlns="http://www.w3.org/2000/svg" width="40" height="40" fill="none" viewBox="0 0 40 40">
  <mask id="a" fill="#fff">
    <path d="M18.995 10.076a9.86 9.86 0 0 1 8.92 5.657 7.043 7.043 0 0 1 1.646 13.977v.087H9.135l-.29-.007a5.635 5.635 0 0 1 .29-11.262l.1.002c.683-4.78 4.792-8.454 9.76-8.454Z"></path>
  </mask>
  <path fill="#999" d="M18.995 10.076V8.742v1.334Zm8.92 5.657-1.206.57.392.83.916-.07-.102-1.33Zm.542-.023v-1.333 1.333Zm7.043 7.043h1.334H35.5Zm-5.94 6.956-.206-1.317-1.127.178v1.14h1.334Zm0 .088v1.334h1.334v-1.334h-1.333Zm-20.425 0-.031 1.332h.031v-1.333Zm-.29-.007-.068 1.331.019.001h.018l.031-1.332ZM3.5 24.163H2.167 3.5Zm5.635-5.635v-1.333 1.333Zm.1.002-.023 1.333 1.177.02.167-1.165-1.32-.188Zm9.76-8.454v1.333a8.526 8.526 0 0 1 7.714 4.893l1.206-.57 1.206-.568c-1.79-3.792-5.648-6.422-10.126-6.422v1.334Zm8.92 5.657.102 1.33c.155-.012.3-.02.44-.02v-2.666c-.225 0-.44.011-.643.026l.101 1.33Zm.542-.023v1.334a5.71 5.71 0 0 1 5.71 5.71h2.667a8.376 8.376 0 0 0-8.377-8.377v1.333Zm7.043 7.043h-1.333a5.71 5.71 0 0 1-4.814 5.64l.208 1.316.207 1.318a8.377 8.377 0 0 0 7.066-8.274H35.5Zm-5.94 6.956h-1.332v.088h2.666v-.088h-1.333Zm0 .088v-1.333H9.136v2.666H29.56v-1.333Zm-20.425 0 .031-1.334-.29-.006-.031 1.333-.031 1.332.29.007.031-1.333Zm-.29-.007.067-1.332a4.302 4.302 0 0 1-4.078-4.295H2.167a6.968 6.968 0 0 0 6.61 6.958l.068-1.331ZM3.5 24.163h1.334a4.302 4.302 0 0 1 4.301-4.302v-2.666a6.968 6.968 0 0 0-6.968 6.968H3.5Zm5.635-5.635v1.333h.017a1.644 1.644 0 0 0 .06.002l.024-1.333.023-1.333-.04-.001-.084-.002v1.334Zm.1.002 1.32.188a8.529 8.529 0 0 1 8.44-7.309V8.742c-5.641 0-10.304 4.172-11.08 9.6l1.32.188Z" mask="url(#a)"></path>
  <path fill="#008055" d="M18.95 24.972h-6.622v-2.207h6.62l.001 2.207Z"></path>
</svg>