<svg xmlns="http://www.w3.org/2000/svg" width="44" height="44" fill="none" viewBox="0 0 44 44">
  <mask id="a" fill="#fff">
    <path fill-rule="evenodd" d="M30.352 17.632a7.969 7.969 0 0 1-1.321 15.828H14.97a7.969 7.969 0 0 1-1.321-15.828 8.455 8.455 0 0 1 16.704 0Z" clip-rule="evenodd"></path>
  </mask>
  <path fill="#999" d="m30.352 17.632-1.284.2.144.928.926.154.214-1.282Zm-16.704 0 .214 1.282.926-.154.144-.929-1.284-.199Zm16.704 0-.214 1.282a6.67 6.67 0 0 1 5.562 6.578h2.6c0-4.597-3.345-8.41-7.734-9.142l-.214 1.282ZM37 25.492h-1.3a6.669 6.669 0 0 1-6.669 6.669v2.6a9.269 9.269 0 0 0 9.269-9.27H37Zm-7.969 7.969v-1.3H14.97v2.6h14.06v-1.3Zm-14.062 0v-1.3A6.669 6.669 0 0 1 8.3 25.49H5.7a9.269 9.269 0 0 0 9.269 9.27v-1.3ZM7 25.49h1.3a6.67 6.67 0 0 1 5.562-6.577l-.214-1.282-.214-1.282c-4.389.732-7.734 4.545-7.734 9.142H7Zm6.648-7.859 1.284.2A7.155 7.155 0 0 1 22 11.785v-2.6c-4.875 0-8.912 3.575-9.637 8.247l1.285.2ZM22 10.486v1.3a7.155 7.155 0 0 1 7.068 6.045l1.284-.199 1.285-.2c-.725-4.67-4.762-8.246-9.637-8.246v1.3Z" mask="url(#a)"></path>
  <path fill="#00A870" d="M22 23.443c2.209 0 4 .863 4 1.926 0 1.445-1.79 1.927-4 1.927s-4-.579-4-1.927c0-1.063 1.791-1.926 4-1.926ZM22.161 19a1.942 1.942 0 1 1 0 3.883 1.942 1.942 0 0 1 0-3.883Z"></path>
</svg>