<svg xmlns="http://www.w3.org/2000/svg" width="20" height="20" fill="none" viewBox="0 0 20 20">
  <path fill="#fff" fill-opacity=".64" d="m8.063 6.003.647 5.164 1.687-1.056.074-.04c.38-.171.83.105.83.54v.663l2.204-1.403.075-.04a.591.591 0 0 1 .833.54v.938l2.06-1.213.075-.037a.59.59 0 0 1 .816.546v5.598h.642l-.002 1.065a7703.174 7703.174 0 0 0-14.064-.01 369.643 369.643 0 0 0-1.818.008c-.039 0-.021.002.007-.002l-.135-1.057c.04-.005.09-.005.102-.006l.113-.001c.093-.002.223-.002.385-.003.211-.002.48-.002.795-.003L4.785 5.998l.059-.423h3.165l.054.428Zm3.01 6.58-.753.479v-1.746l-1.475.925.496 3.952c2.402.001 4.983.004 7.042.008v-4.914l-2.212 1.304-.74.436V11.08l-2.357 1.501ZM4.38 16.191h3.972l-1.21-9.637H5.7l-1.32 9.637Zm6.642-1.526H9.9v-.98h1.12v.98Zm2.187 0h-1.12v-.98h1.12v.98Zm1.924 0h-1.121v-.98h1.121v.98ZM7.197 2.767c.422-.078.915-.024 1.482.165l-.31.932c-.468-.156-.786-.17-.994-.132a.62.62 0 0 0-.398.228c-.191.245-.243.673-.19 1.04l-.97.141c-.07-.478-.045-1.231.387-1.784.229-.293.559-.51.993-.59Z"></path>
</svg>