<svg xmlns="http://www.w3.org/2000/svg" width="20" height="20" fill="none" viewBox="0 0 20 20">
  <g clip-path="url(#a)">
    <path fill="#fff" fill-opacity=".64" d="M7.789 17.23a.419.419 0 0 1-.361-.21L5.84 14.163l-2.86-1.587a.404.404 0 0 1-.204-.304.424.424 0 0 1 .115-.349l.988-.988a.41.41 0 0 1 .357-.115l1.768.296L8.59 8.53l-5.11-2.7a.407.407 0 0 1-.197-.489.419.419 0 0 1 .099-.163L4.7 3.861a.404.404 0 0 1 .406-.102l6.346 1.903 2.293-2.293c.723-.722 2.4-.812 3.048-.163.3.299.46.857.43 1.493-.032.644-.25 1.21-.594 1.555l-2.293 2.292 1.904 6.346a.404.404 0 0 1-.103.407l-1.317 1.316a.409.409 0 0 1-.529.044.42.42 0 0 1-.127-.142l-2.7-5.103-2.584 2.584.296 1.768a.411.411 0 0 1-.115.357l-.99.989a.382.382 0 0 1-.282.119Zm-3.934-5.11 2.486 1.382a.428.428 0 0 1 .16.16l1.382 2.486.451-.451-.295-1.768a.41.41 0 0 1 .115-.357l3.126-3.126a.4.4 0 0 1 .352-.115.42.42 0 0 1 .304.213l2.7 5.104.75-.751-1.903-6.347a.403.403 0 0 1 .102-.406l2.47-2.47c.197-.197.332-.586.352-1.013.02-.426-.078-.763-.189-.873-.279-.28-1.435-.288-1.887.164l-2.469 2.47a.404.404 0 0 1-.406.102L5.11 4.62l-.75.747 5.102 2.7a.413.413 0 0 1 .099.656l-3.126 3.125a.411.411 0 0 1-.357.115l-1.768-.296-.455.452Z"></path>
  </g>
  <defs>
    <clipPath id="a">
      <path fill="#fff" d="M2.713 2.713h14.575v14.575H2.713z"></path>
    </clipPath>
  </defs>
</svg>