<svg xmlns="http://www.w3.org/2000/svg" width="20" height="20" fill="none" viewBox="0 0 20 20">
  <path fill="#fff" fill-opacity=".64" d="M17 3.5h-.918a1.2 1.2 0 0 1 .019.2v12.6a1.2 1.2 0 0 1-.019.2H17v1H3v-1h.918a1.205 1.205 0 0 1-.018-.2V3.7a1.2 1.2 0 0 1 .018-.2H3v-1h14v1Zm-11.9 0a.2.2 0 0 0-.2.2v12.6c0 .11.09.2.2.2h3v-3.2h-.2c-.436 0-.917-.38-.807-.944C7.34 11.081 8.597 10.2 10 10.2s2.659.881 2.907 2.156c.11.565-.37.944-.807.944h-.2v3.2h3a.2.2 0 0 0 .2-.2V3.7a.2.2 0 0 0-.2-.2H5.1Zm4 13h1.8v-3.2H9.1v3.2Zm.9-5.3c-.905 0-1.603.494-1.85 1.1h3.7c-.247-.606-.945-1.1-1.85-1.1ZM8.05 8.4h-1.7v-1h1.7v1Zm2.8 0h-1.7v-1h1.7v1Zm2.8 0h-1.7v-1h1.7v1Zm-5.6-2.1h-1.7v-1h1.7v1Zm2.8 0h-1.7v-1h1.7v1Zm2.8 0h-1.7v-1h1.7v1Z"></path>
</svg>