<svg xmlns="http://www.w3.org/2000/svg" width="59" height="9" fill="none" viewBox="0 0 59 9">
  <path fill="#85BF00" d="M2.904 8.82c-.604 0-1.122-.15-1.554-.45A2.987 2.987 0 0 1 .348 7.14C.116 6.624 0 6.042 0 5.394c0-.648.116-1.23.348-1.746.236-.516.57-.922 1.002-1.218.432-.3.948-.45 1.548-.45.612 0 1.126.148 1.542.444.416.296.73.702.942 1.218.216.516.324 1.1.324 1.752 0 .644-.108 1.226-.324 1.746a2.804 2.804 0 0 1-.942 1.23c-.416.3-.928.45-1.536.45Zm.132-.978c.436 0 .794-.104 1.074-.312.28-.212.486-.502.618-.87a3.67 3.67 0 0 0 .204-1.266c0-.48-.068-.902-.204-1.266a1.78 1.78 0 0 0-.612-.858c-.276-.208-.626-.312-1.05-.312-.44 0-.804.108-1.092.324a1.935 1.935 0 0 0-.636.876c-.136.368-.204.78-.204 1.236 0 .46.07.876.21 1.248.14.368.35.66.63.876.284.216.638.324 1.062.324Zm1.896.798V3.87h-.12V0h1.074v8.64h-.954Zm4.477.18c-.484 0-.89-.088-1.218-.264a1.88 1.88 0 0 1-.738-.708 1.927 1.927 0 0 1-.246-.96c0-.34.064-.634.192-.882.132-.252.316-.46.552-.624.236-.168.518-.3.846-.396A9.676 9.676 0 0 1 9.83 4.77a35.38 35.38 0 0 1 1.164-.174c.392-.052.758-.102 1.098-.15l-.384.222c.012-.576-.104-1.002-.348-1.278-.24-.276-.656-.414-1.248-.414-.392 0-.736.09-1.032.27-.292.176-.498.464-.618.864l-1.014-.306c.156-.568.458-1.014.906-1.338.448-.324 1.038-.486 1.77-.486.588 0 1.092.106 1.512.318.424.208.728.524.912.948.092.2.15.418.174.654.024.232.036.476.036.732V8.64h-.948V7.086l.222.144c-.244.524-.586.92-1.026 1.188-.436.268-.968.402-1.596.402Zm.162-.894c.384 0 .716-.068.996-.204.284-.14.512-.322.684-.546.172-.228.284-.476.336-.744.06-.2.092-.422.096-.666.008-.248.012-.438.012-.57l.372.162c-.348.048-.69.094-1.026.138-.336.044-.654.092-.954.144-.3.048-.57.106-.81.174a2.639 2.639 0 0 0-.498.216 1.131 1.131 0 0 0-.372.342.89.89 0 0 0-.138.51c0 .176.044.344.132.504.092.16.232.29.42.39.192.1.442.15.75.15Zm7.194.888c-.772 0-1.406-.168-1.902-.504-.492-.34-.794-.814-.906-1.422l1.092-.174c.088.352.29.632.606.84.316.204.708.306 1.176.306.444 0 .792-.092 1.044-.276a.88.88 0 0 0 .378-.75.722.722 0 0 0-.126-.444c-.084-.116-.258-.224-.522-.324-.26-.1-.654-.22-1.182-.36-.572-.152-1.022-.31-1.35-.474-.328-.164-.562-.354-.702-.57a1.414 1.414 0 0 1-.21-.786c0-.38.104-.712.312-.996.208-.288.498-.51.87-.666.376-.156.812-.234 1.308-.234.492 0 .932.078 1.32.234.388.156.7.378.936.666.24.284.382.616.426.996l-1.092.198a1.178 1.178 0 0 0-.504-.822c-.28-.2-.642-.306-1.086-.318-.42-.016-.762.058-1.026.222-.26.164-.39.386-.39.666 0 .156.048.29.144.402.1.112.282.218.546.318.268.1.656.214 1.164.342.572.144 1.022.302 1.35.474.332.168.568.368.708.6.14.228.21.51.21.846 0 .624-.23 1.116-.69 1.476-.46.356-1.094.534-1.902.534Zm8.53-.174V5.394a4.58 4.58 0 0 0-.085-.888 2.227 2.227 0 0 0-.282-.762 1.457 1.457 0 0 0-.54-.54c-.224-.132-.508-.198-.852-.198a1.88 1.88 0 0 0-.732.138 1.432 1.432 0 0 0-.558.408 1.98 1.98 0 0 0-.366.696 3.376 3.376 0 0 0-.126.978l-.702-.216c0-.628.112-1.166.336-1.614.228-.452.546-.798.954-1.038.412-.244.896-.366 1.452-.366.42 0 .778.066 1.074.198.296.132.542.308.738.528.196.216.35.46.462.732.112.268.19.542.234.822.048.276.072.538.072.786V8.64h-1.08Zm-4.62 0V0h.96v4.77h.12v3.87h-1.08Zm10.235.18c-.608 0-1.12-.15-1.536-.45a2.846 2.846 0 0 1-.948-1.23 4.587 4.587 0 0 1-.318-1.746c0-.652.106-1.236.318-1.752.216-.516.532-.922.948-1.218.42-.296.934-.444 1.542-.444.6 0 1.116.15 1.548.45.436.296.77.702 1.002 1.218.232.516.348 1.098.348 1.746 0 .648-.116 1.23-.348 1.746a2.927 2.927 0 0 1-1.002 1.23c-.432.3-.95.45-1.554.45Zm-2.982-.18V0h1.074v3.87h-.12v4.77h-.954Zm2.85-.798c.428 0 .782-.108 1.062-.324.28-.216.49-.508.63-.876.14-.372.21-.788.21-1.248 0-.456-.07-.868-.21-1.236a1.879 1.879 0 0 0-.636-.876c-.284-.216-.646-.324-1.086-.324-.42 0-.768.104-1.044.312-.276.204-.482.49-.618.858a3.607 3.607 0 0 0-.204 1.266c0 .472.066.894.198 1.266.136.368.344.658.624.87.28.208.638.312 1.074.312Zm7.112.978c-.644 0-1.2-.146-1.668-.438a2.902 2.902 0 0 1-1.074-1.212c-.252-.516-.378-1.108-.378-1.776 0-.68.128-1.276.384-1.788s.618-.91 1.086-1.194c.468-.288 1.018-.432 1.65-.432.648 0 1.206.146 1.674.438.468.288.826.69 1.074 1.206.252.512.378 1.102.378 1.77 0 .676-.126 1.272-.378 1.788a2.897 2.897 0 0 1-1.08 1.206c-.468.288-1.024.432-1.668.432Zm0-1.014c.672 0 1.172-.224 1.5-.672.328-.448.492-1.028.492-1.74 0-.732-.166-1.314-.498-1.746-.332-.436-.83-.654-1.494-.654-.452 0-.824.102-1.116.306-.292.204-.51.486-.654.846-.144.36-.216.776-.216 1.248 0 .728.168 1.312.504 1.752.336.44.83.66 1.482.66Zm6.289 1.014c-.484 0-.89-.088-1.218-.264a1.88 1.88 0 0 1-.738-.708 1.927 1.927 0 0 1-.246-.96c0-.34.064-.634.192-.882.132-.252.316-.46.552-.624.236-.168.518-.3.846-.396a9.676 9.676 0 0 1 1.032-.216 35.38 35.38 0 0 1 1.164-.174c.392-.052.758-.102 1.098-.15l-.384.222c.012-.576-.104-1.002-.348-1.278-.24-.276-.656-.414-1.248-.414-.392 0-.736.09-1.032.27-.292.176-.498.464-.618.864l-1.014-.306c.156-.568.458-1.014.906-1.338.448-.324 1.038-.486 1.77-.486.588 0 1.092.106 1.512.318.424.208.728.524.912.948.092.2.15.418.174.654.024.232.036.476.036.732V8.64h-.948V7.086l.222.144c-.244.524-.586.92-1.026 1.188-.436.268-.968.402-1.596.402Zm.162-.894c.384 0 .716-.068.996-.204.284-.14.512-.322.684-.546.172-.228.284-.476.336-.744.06-.2.092-.422.096-.666.008-.248.012-.438.012-.57l.372.162c-.348.048-.69.094-1.026.138-.336.044-.654.092-.954.144-.3.048-.57.106-.81.174a2.639 2.639 0 0 0-.498.216 1.131 1.131 0 0 0-.372.342.89.89 0 0 0-.138.51c0 .176.044.344.132.504.092.16.232.29.42.39.192.1.442.15.75.15Zm4.746.714V2.16h.954v1.566l-.156-.204c.076-.2.174-.384.294-.552.124-.168.262-.306.414-.414.168-.136.358-.24.57-.312.212-.072.428-.114.648-.126a2.08 2.08 0 0 1 .618.042v1.002a2.025 2.025 0 0 0-.738-.048 1.5 1.5 0 0 0-.744.294c-.208.148-.37.328-.486.54-.112.212-.19.442-.234.69a4.218 4.218 0 0 0-.066.75V8.64h-1.074Zm6.903.18c-.604 0-1.122-.15-1.554-.45a2.987 2.987 0 0 1-1.002-1.23c-.232-.516-.348-1.098-.348-1.746 0-.648.116-1.23.348-1.746.236-.516.57-.922 1.002-1.218.432-.3.948-.45 1.548-.45.612 0 1.126.148 1.542.444.416.296.73.702.942 1.218.216.516.324 1.1.324 1.752 0 .644-.108 1.226-.324 1.746a2.804 2.804 0 0 1-.942 1.23c-.416.3-.928.45-1.536.45Zm.132-.978c.436 0 .794-.104 1.074-.312.28-.212.486-.502.618-.87a3.67 3.67 0 0 0 .204-1.266c0-.48-.068-.902-.204-1.266a1.78 1.78 0 0 0-.612-.858c-.276-.208-.626-.312-1.05-.312-.44 0-.804.108-1.092.324a1.935 1.935 0 0 0-.636.876c-.136.368-.204.78-.204 1.236 0 .46.07.876.21 1.248.14.368.35.66.63.876.284.216.638.324 1.062.324Zm1.896.798V3.87h-.12V0h1.074v8.64h-.954Z"></path>
</svg>