<svg xmlns="http://www.w3.org/2000/svg" width="20" height="20" fill="none" viewBox="0 0 20 20">
  <path fill="#fff" fill-opacity=".64" d="M11.17 16.48H9.48v-1.688h1.69v1.688Zm-4.568-3.334a5.265 5.265 0 0 1 7.445 0l.41.41-.82.819-.408-.41a4.108 4.108 0 0 0-5.809 0l-.409.41-.82-.82.41-.409Zm-2.485-2.698a8.78 8.78 0 0 1 12.416 0l.41.41-.819.819-.41-.41a7.621 7.621 0 0 0-10.778 0l-.41.41-.819-.819.41-.41Zm-1.685-3.53c4.87-3.908 11.966-3.68 16.575.69l.42.398-.796.84-.42-.398C14.023 4.481 7.58 4.272 3.155 7.822c-.245.197-.484.406-.716.626l-.421.398-.796-.84.42-.399c.255-.242.519-.472.789-.688Z"></path>
</svg>