<svg xmlns="http://www.w3.org/2000/svg" width="20" height="20" fill="none" viewBox="0 0 20 20">
  <path fill="#EE385C" fill-rule="evenodd" d="M16.317 3.67a3.32 3.32 0 0 0-4.694 0L8.698 6.595a.585.585 0 0 0 0 .832.585.585 0 0 0 .832 0l2.925-2.925a2.145 2.145 0 0 1 3.657 1.514 2.12 2.12 0 0 1-.628 1.513l-2.924 2.925a.586.586 0 0 0 .417 1.003.59.59 0 0 0 .417-.171l2.924-2.925a3.318 3.318 0 0 0-.001-4.69Zm-8.52 2.557a.586.586 0 0 0 .587-.587l-.002-2.36a.586.586 0 0 0-.587-.587.586.586 0 0 0-.588.587v2.36a.588.588 0 0 0 .59.586Zm7.039 7.744a.581.581 0 0 0-.415-.169.587.587 0 0 0-.417 1.003l1.668 1.666c.228.232.6.232.832 0a.586.586 0 0 0 0-.831l-1.668-1.669Zm1.863-2.374h-2.36a.576.576 0 0 0-.413.174.586.586 0 0 0 .413 1.002l2.359-.001a.586.586 0 0 0 .587-.588.584.584 0 0 0-.586-.587Zm-4.49 2.146a.586.586 0 0 0-.588.588l.002 2.358a.586.586 0 0 0 .587.588.586.586 0 0 0 .588-.588v-2.36a.588.588 0 0 0-.59-.586Zm-1.74-1.197L7.546 15.47a2.13 2.13 0 0 1-1.514.629 2.12 2.12 0 0 1-1.514-.629 2.135 2.135 0 0 1-.001-3.027L7.44 9.518a.585.585 0 0 0 0-.831.585.585 0 0 0-.831 0l-2.925 2.921a3.297 3.297 0 0 0-.973 2.347c0 .886.345 1.72.973 2.345a3.308 3.308 0 0 0 2.345.972 3.3 3.3 0 0 0 2.346-.971l2.926-2.924a.586.586 0 0 0 0-.831.59.59 0 0 0-.833 0Zm-5.3-6.547a.58.58 0 0 0 .415.17.588.588 0 0 0 .417-1.003L4.333 3.501a.585.585 0 0 0-.832 0 .585.585 0 0 0 0 .832L5.17 5.999ZM3.306 8.376h2.36a.576.576 0 0 0 .413-.175.586.586 0 0 0-.413-1.002L3.307 7.2a.586.586 0 0 0-.587.587.582.582 0 0 0 .586.588Z" clip-rule="evenodd"></path>
</svg>