<svg xmlns="http://www.w3.org/2000/svg" width="20" height="20" fill="none" viewBox="0 0 20 20">
  <path fill="#fff" fill-opacity=".8" d="M10.953 10.375c.962 0 1.714 0 2.318.049.608.05 1.11.153 1.563.384.746.38 1.353.987 1.733 1.733.231.453.334.955.384 1.564.05.603.049 1.355.049 2.317v1.02H3v-1.02c0-.962 0-1.714.049-2.317.05-.61.153-1.11.384-1.564a3.966 3.966 0 0 1 1.733-1.733c.453-.231.954-.334 1.563-.384.604-.05 1.356-.049 2.318-.049h1.906Zm-1.906 1c-.98 0-1.683 0-2.236.046-.547.045-.902.13-1.19.277a2.968 2.968 0 0 0-1.298 1.297c-.147.289-.232.644-.277 1.19C4 14.74 4 15.444 4 16.423v.02h12v-.02c0-.979 0-1.683-.046-2.236-.045-.547-.13-.902-.277-1.19a2.969 2.969 0 0 0-1.297-1.298c-.289-.147-.644-.232-1.19-.277-.553-.045-1.258-.046-2.237-.046H9.047ZM10 2.142a3.533 3.533 0 1 1 0 7.066 3.533 3.533 0 0 1 0-7.066Zm0 1a2.533 2.533 0 1 0 0 5.066 2.533 2.533 0 0 0 0-5.066Z"></path>
</svg>