<svg xmlns="http://www.w3.org/2000/svg" width="20" height="20" fill="none" viewBox="0 0 20 20">
  <circle cx="10" cy="10" r="8" stroke="#00A870" stroke-width="1.2"></circle>
  <path fill="#00A870" d="M12.381 5.952a2.418 2.418 0 0 1 .783 1.89 2.605 2.605 0 0 1-.488 1.611 12.9 12.9 0 0 1-1.135 1.033c-.23.187-.423.416-.567.676a1.804 1.804 0 0 0-.21.885v.227H9.379v-.227c-.015-.432.07-.861.25-1.254a7.235 7.235 0 0 1 1.51-1.64l.226-.25c.225-.272.351-.612.358-.965a1.52 1.52 0 0 0-.386-1.084 1.504 1.504 0 0 0-1.135-.397 1.481 1.481 0 0 0-1.3.567 2.236 2.236 0 0 0-.358 1.362H7.171a3.048 3.048 0 0 1 .846-2.27 3.07 3.07 0 0 1 2.27-.846 2.991 2.991 0 0 1 2.094.682Zm-3.086 7.337h1.5v1.5h-1.5z"></path>
</svg>