<svg xmlns="http://www.w3.org/2000/svg" width="20" height="20" fill="none" viewBox="0 0 20 20">
  <path fill="#fff" fill-opacity=".64" d="M16.639 14.639h2.76v1h-2.76v2.76h-1v-2.76h-2.76v-1h2.76v-2.76h1v2.76Z"></path>
  <path fill="#fff" fill-opacity=".64" d="M10 2.031a7.969 7.969 0 0 1 7.835 9.414 3.968 3.968 0 0 0-.893-.333 7.031 7.031 0 1 0-4.596 5.516c.131.293.297.567.49.818A7.969 7.969 0 1 1 10 2.031ZM10 6.5a3.5 3.5 0 1 1 0 7 3.5 3.5 0 0 1 0-7Zm0 1a2.5 2.5 0 1 0 0 5 2.5 2.5 0 0 0 0-5Z"></path>
</svg>