<svg xmlns="http://www.w3.org/2000/svg" width="42" height="9" fill="none" viewBox="0 0 42 9">
  <path fill="#85BF00" d="M2.808 8.904c-.772 0-1.406-.168-1.902-.504C.414 8.06.112 7.586 0 6.978l1.092-.174c.088.352.29.632.606.84.316.204.708.306 1.176.306.444 0 .792-.092 1.044-.276a.88.88 0 0 0 .378-.75.722.722 0 0 0-.126-.444c-.084-.116-.258-.224-.522-.324-.26-.1-.654-.22-1.182-.36-.572-.152-1.022-.31-1.35-.474-.328-.164-.562-.354-.702-.57a1.414 1.414 0 0 1-.21-.786c0-.38.104-.712.312-.996.208-.288.498-.51.87-.666.376-.156.812-.234 1.308-.234.492 0 .932.078 1.32.234.388.156.7.378.936.666.24.284.382.616.426.996l-1.092.198a1.178 1.178 0 0 0-.504-.822c-.28-.2-.642-.306-1.086-.318-.42-.016-.762.058-1.026.222-.26.164-.39.386-.39.666 0 .156.048.29.144.402.1.112.282.218.546.318.268.1.656.214 1.164.342.572.144 1.022.302 1.35.474.332.168.568.368.708.6.14.228.21.51.21.846 0 .624-.23 1.116-.69 1.476-.46.356-1.094.534-1.902.534Zm4.035-7.8V0h1.068v1.104H6.843Zm0 7.626V2.25h1.068v6.48H6.843Zm5.413.18c-.604 0-1.122-.15-1.554-.45A2.988 2.988 0 0 1 9.7 7.23c-.232-.516-.348-1.098-.348-1.746 0-.648.116-1.23.348-1.746.236-.516.57-.922 1.002-1.218.432-.3.948-.45 1.548-.45.612 0 1.126.148 1.542.444.416.296.73.702.942 1.218.216.516.324 1.1.324 1.752 0 .644-.108 1.226-.324 1.746a2.804 2.804 0 0 1-.942 1.23c-.416.3-.928.45-1.536.45Zm.132-.978c.436 0 .794-.104 1.074-.312.28-.212.486-.502.618-.87a3.67 3.67 0 0 0 .204-1.266c0-.48-.068-.902-.204-1.266a1.78 1.78 0 0 0-.612-.858c-.276-.208-.626-.312-1.05-.312-.44 0-.804.108-1.092.324a1.935 1.935 0 0 0-.636.876c-.136.368-.204.78-.204 1.236 0 .46.07.876.21 1.248.14.368.35.66.63.876.284.216.638.324 1.062.324Zm1.896.798V3.96h-.12V.09h1.074v8.64h-.954Zm5.443.18c-.636 0-1.192-.14-1.668-.42a2.942 2.942 0 0 1-1.104-1.182c-.264-.508-.396-1.1-.396-1.776 0-.708.13-1.32.39-1.836.26-.52.622-.92 1.086-1.2.468-.284 1.016-.426 1.644-.426.652 0 1.206.15 1.662.45.46.3.804.728 1.032 1.284.232.556.332 1.218.3 1.986h-1.08v-.384c-.012-.796-.174-1.39-.486-1.782-.312-.396-.776-.594-1.392-.594-.66 0-1.162.212-1.506.636-.344.424-.516 1.032-.516 1.824 0 .764.172 1.356.516 1.776.344.42.834.63 1.47.63.428 0 .8-.098 1.116-.294a2 2 0 0 0 .744-.846l1.026.354a2.906 2.906 0 0 1-1.14 1.332 3.16 3.16 0 0 1-1.698.468Zm-2.394-3.12v-.858h4.788v.858h-4.788Zm9.652 3.12c-.608 0-1.12-.15-1.537-.45a2.846 2.846 0 0 1-.948-1.23 4.587 4.587 0 0 1-.317-1.746c0-.652.105-1.236.317-1.752.216-.516.532-.922.948-1.218.42-.296.934-.444 1.543-.444.6 0 1.116.15 1.547.45.436.296.77.702 1.003 1.218.232.516.348 1.098.348 1.746 0 .648-.116 1.23-.348 1.746a2.927 2.927 0 0 1-1.003 1.23c-.431.3-.95.45-1.553.45Zm-2.982-.18V.09h1.073v3.87h-.12v4.77h-.953Zm2.85-.798c.427 0 .781-.108 1.061-.324.28-.216.49-.508.63-.876.14-.372.21-.788.21-1.248 0-.456-.07-.868-.21-1.236a1.879 1.879 0 0 0-.636-.876c-.284-.216-.646-.324-1.085-.324-.42 0-.768.104-1.044.312-.276.204-.482.49-.619.858a3.607 3.607 0 0 0-.204 1.266c0 .472.067.894.198 1.266.137.368.345.658.625.87.28.208.637.312 1.073.312Zm6.193.978c-.484 0-.89-.088-1.218-.264a1.88 1.88 0 0 1-.738-.708 1.927 1.927 0 0 1-.246-.96c0-.34.064-.634.192-.882.132-.252.316-.46.552-.624.236-.168.518-.3.846-.396a9.676 9.676 0 0 1 1.032-.216 35.38 35.38 0 0 1 1.164-.174c.392-.052.758-.102 1.098-.15l-.384.222c.012-.576-.104-1.002-.348-1.278-.24-.276-.656-.414-1.248-.414-.392 0-.736.09-1.032.27-.292.176-.498.464-.618.864l-1.014-.306c.156-.568.458-1.014.906-1.338.448-.324 1.038-.486 1.77-.486.588 0 1.092.106 1.512.318.424.208.728.524.912.948.092.2.15.418.174.654.024.232.036.476.036.732V8.73h-.948V7.176l.222.144c-.244.524-.586.92-1.026 1.188-.436.268-.968.402-1.596.402Zm.162-.894c.384 0 .716-.068.996-.204.284-.14.512-.322.684-.546.172-.228.284-.476.336-.744.06-.2.092-.422.096-.666.008-.248.012-.438.012-.57l.372.162c-.348.048-.69.094-1.026.138-.336.044-.654.092-.954.144-.3.048-.57.106-.81.174a2.639 2.639 0 0 0-.498.216 1.131 1.131 0 0 0-.372.342.89.89 0 0 0-.138.51c0 .176.044.344.132.504.092.16.232.29.42.39.192.1.442.15.75.15Zm4.746.714V2.25h.954v1.566l-.156-.204c.076-.2.174-.384.294-.552.124-.168.262-.306.414-.414.168-.136.358-.24.57-.312.212-.072.428-.114.648-.126a2.08 2.08 0 0 1 .618.042v1.002a2.025 2.025 0 0 0-.738-.048 1.5 1.5 0 0 0-.744.294c-.208.148-.37.328-.486.54-.112.212-.19.442-.234.69a4.218 4.218 0 0 0-.066.75V8.73h-1.074Z"></path>
</svg>