<svg xmlns="http://www.w3.org/2000/svg" width="23" height="12" fill="none" viewBox="0 0 23 12">
  <path fill="#85BF00" d="m10.056.132.684.72c-1.368.456-3.408.816-5.124 1.02a3.343 3.343 0 0 0-.288-.72C6.996.912 8.94.54 10.056.132Zm-5.04.78 1.14.204c-.012.084-.084.144-.24.168v3.48c0 1.86-.216 4.428-1.848 6.204a2.135 2.135 0 0 0-.672-.636c1.464-1.596 1.62-3.816 1.62-5.58V.912Zm.492 3.144h5.688v.852H5.508v-.852Zm2.784.468h.888v6.492h-.888V4.524ZM0 6.36c1.056-.276 2.652-.732 4.2-1.188L4.308 6c-1.416.444-2.916.9-4.056 1.224L0 6.36Zm.18-3.948h3.984v.852H.18v-.852ZM1.896 0h.888v9.972c0 .504-.12.756-.432.888-.312.144-.804.168-1.608.156C.72 10.8.588 10.428.468 10.2c.552.012 1.056.012 1.2 0 .168 0 .228-.048.228-.228V0Zm12.108.3h6.456v.576h-6.456V.3Zm.6 1.092L15 .936c2.292.336 4.692.924 6.132 1.5l-.504.48c-1.38-.588-3.66-1.164-6.024-1.524ZM20.316.3h.156l.144-.036.468.324C19.668 1.992 16.62 2.58 13.932 2.82c-.072-.18-.204-.432-.336-.576 2.568-.18 5.496-.72 6.72-1.836V.3Zm-7.464 2.604h3.96v.576h-3.96v-.576Zm.312 1.104.432-.432c1.308.384 2.7.936 3.516 1.44l-.576.456c-.756-.504-2.064-1.056-3.372-1.464Zm3.456-1.104h.132l.144-.024.468.264c-.9 1.284-2.856 2.004-4.668 2.364a2.576 2.576 0 0 0-.396-.552c1.692-.264 3.576-.912 4.32-1.932v-.12Zm1.224 0h4.14v.576h-4.14v-.576Zm.228 1.08.42-.432c1.548.372 3.18.924 4.152 1.44l-.552.456c-.9-.516-2.448-1.068-4.02-1.464Zm3.732-1.08h.144l.132-.024.492.252c-.816 1.236-2.568 1.92-4.224 2.268a2.416 2.416 0 0 0-.408-.516c1.536-.264 3.192-.9 3.864-1.86v-.12ZM14.82 7.908h5.724v.528H14.82v-.528Zm0 1.116h5.724v.528H14.82v-.528Zm-2.484 1.104h10.656v.624H12.336v-.624Zm4.896-5.472H18v1.236h-.768V4.656Zm-4.572.9h10.008v1.62h-.852V6.168H13.5v1.008h-.84v-1.62Zm1.668 1.164h6.612v3.72h-.9V7.332h-4.848v3.108h-.864V6.72Z"></path>
</svg>