<svg xmlns="http://www.w3.org/2000/svg" width="20" height="20" fill="none" viewBox="0 0 20 20">
  <path fill="#00A870" d="M5.437 7.432 5.01 8.553 2.945 7.77a7.4 7.4 0 0 0 11.957 7.775l.795.9A8.599 8.599 0 0 1 1.822 7.342H1.82l.007-.018.018-.056.003.001.398-1.047 3.19 1.211ZM10.7 5.044l3.402 8.768h-1.415l-.9-2.388H8.253l-.9 2.388H5.986L9.4 5.044h1.3ZM4.19 3.658a8.598 8.598 0 0 1 8.543-1.812 8.598 8.598 0 0 1 5.562 10.42l.009.003-.087.259c-.02.068-.04.136-.063.204l-.005-.002-.226.676-3.235-1.084.38-1.138 2.087.7a7.399 7.399 0 0 0-12.156-7.34l-.81-.886Zm4.475 6.606h2.711L10.01 6.675l-1.345 3.59Z"></path>
</svg>