<svg xmlns="http://www.w3.org/2000/svg" width="23" height="12" fill="none" viewBox="0 0 23 12">
  <path fill="#85BF00" d="M.132 3.84h10.944v.744H.132V3.84Zm1.956 2.916.48-.372c.516.288 1.164.72 1.5 1.032l-.492.408c-.312-.3-.96-.756-1.488-1.068Zm-.072 1.62.48-.372c.552.3 1.212.768 1.536 1.116l-.504.42c-.312-.348-.972-.828-1.512-1.164Zm-.9-3.06H4.62v.672H1.956V11.1h-.84V5.316Zm3.144 0h.864v4.848c0 .444-.072.672-.372.792-.312.132-.792.144-1.476.144a3.326 3.326 0 0 0-.264-.78c.504.024.936.024 1.08.024.132-.012.168-.06.168-.18V5.316Zm-2.124-2.58.768-.3c.384.408.804.96.984 1.344l-.816.324c-.168-.372-.576-.948-.936-1.368Zm6.216-.3.876.288a15.742 15.742 0 0 1-1.14 1.416l-.744-.276c.336-.396.78-1.008 1.008-1.428ZM1.548.972h3.876v.732H1.548V.972Zm4.668 0h4.644v.732H6.216V.972ZM1.8 0l.852.216C2.196 1.296 1.464 2.352.768 3.048A4.526 4.526 0 0 0 0 2.58C.744 1.944 1.416.972 1.8 0Zm4.74 0 .864.216c-.444 1.08-1.2 2.112-1.968 2.76-.18-.144-.576-.348-.792-.444A5.875 5.875 0 0 0 6.54 0ZM2.388 1.536l.732-.288c.36.396.768.96.948 1.344l-.756.312c-.168-.372-.564-.948-.924-1.368ZM7.2 1.524l.768-.228c.372.396.792.96.96 1.356l-.804.264c-.168-.384-.552-.972-.924-1.392Zm-.816 3.972h.864V9.48h-.864V5.496Zm2.856-.24h.888v4.812c0 .492-.12.732-.492.876-.36.144-.96.156-1.812.156-.06-.24-.228-.6-.372-.828.72.024 1.356.012 1.56 0 .192 0 .228-.048.228-.204V5.256ZM17.928.168h.924c-.012 5.496.012 9.336-6.06 10.884a3.445 3.445 0 0 0-.528-.756c5.844-1.416 5.64-4.848 5.664-10.128Zm-5.664 5.388h10.68v.84h-10.68v-.84Zm5.76 2.592.48-.636c1.668.78 3.396 1.848 4.392 2.724l-.6.684c-.96-.9-2.628-1.968-4.272-2.772Zm-4.14-6.912L14.388.6c.96.324 2.16.9 2.76 1.38l-.516.744c-.588-.492-1.776-1.128-2.748-1.488Zm-1.068 2.196.54-.636c.96.348 2.148.96 2.76 1.464l-.588.708c-.564-.504-1.752-1.152-2.712-1.536Z"></path>
</svg>