<svg xmlns="http://www.w3.org/2000/svg" width="23" height="11" fill="none" viewBox="0 0 23 11">
  <path fill="#85BF00" d="M2.76 4.464v4.248h-.852V5.304H.156v-.84H2.76Zm0 3.888c.588.888 1.62 1.296 3.036 1.344 1.32.06 4.092.024 5.532-.072-.108.204-.24.624-.288.888-1.332.06-3.9.084-5.244.024-1.572-.06-2.664-.48-3.408-1.428a45.953 45.953 0 0 1-1.944 1.56L0 9.78c.6-.372 1.344-.912 1.98-1.428h.78ZM.36.564.984 0c.768.54 1.668 1.356 2.064 1.944l-.684.624C1.992 1.98 1.116 1.128.36.564Zm4.8 1.176.576-.504c1.128.396 2.64 1.056 3.444 1.536l-.612.564C7.812 2.868 6.324 2.184 5.16 1.74ZM4.02 2.748h6.204v.696H4.872v5.52H4.02V2.748Zm5.772 0h.864v5.316c0 .444-.084.648-.408.78-.312.144-.816.144-1.62.144a2.724 2.724 0 0 0-.252-.744c.564.024 1.068.012 1.224.012.156 0 .192-.048.192-.204V2.748ZM4.02.228h5.988v.72H4.02v-.72ZM4.488 4.5h5.652v.672H4.488V4.5Zm0 1.764h5.652v.696H4.488v-.696Zm2.4-3.228h.816v5.88h-.816v-5.88ZM9.708.228h.204l.192-.048.552.432c-.804.756-2.016 1.5-3.108 1.956a6.787 6.787 0 0 0-.48-.528c.984-.384 2.1-1.08 2.64-1.644V.228Zm4.296.348h7.764v.864h-7.764V.576Zm0 2.796h7.752v.852h-7.752v-.852Zm-.06 2.868h7.836v.852h-7.836V6.24ZM13.5.576h.888v4.356c0 1.824-.216 4.308-1.644 5.904-.144-.18-.504-.48-.696-.6C13.368 8.748 13.5 6.612 13.5 4.92V.576Zm7.908 0h.888V9.54c0 .588-.144.864-.54 1.02-.408.144-1.104.156-2.244.144a3.202 3.202 0 0 0-.312-.876c.852.036 1.668.024 1.896.024.228-.012.312-.084.312-.312V.576ZM17.268.9h.912v9.756h-.912V.9Z"></path>
</svg>