<svg xmlns="http://www.w3.org/2000/svg" width="35.399" height="12.926" viewBox="0 0 35.399 12.926" fill="none">
  <path d="M 28.932 0 C 30.728 0 32.254 0.622 33.516 1.866 C 34.777 3.11 35.399 4.636 35.399 6.463 C 35.399 8.29 34.777 9.821 33.516 11.061 C 32.254 12.304 30.728 12.926 28.932 12.926 C 27.135 12.926 25.609 12.304 24.348 11.061 C 23.086 9.817 22.464 8.29 22.464 6.463 C 22.464 4.636 23.086 3.106 24.348 1.866 C 25.609 0.622 27.135 0 28.932 0 Z M 4.706 0.243 C 5.932 0.243 6.963 0.652 7.798 1.487 C 8.633 2.322 9.06 3.319 9.06 4.506 C 9.06 5.693 8.633 6.689 7.798 7.524 C 6.963 8.359 5.932 8.769 4.706 8.769 L 2.84 8.769 L 2.84 12.674 L 0 12.674 L 0 0.243 L 4.706 0.243 Z M 16.345 0.243 C 17.536 0.243 18.528 0.652 19.363 1.487 C 20.198 2.322 20.607 3.319 20.607 4.506 C 20.607 6.015 19.684 7.398 18.314 8.111 L 20.964 12.674 L 17.906 12.674 L 15.562 8.59 L 14.214 8.59 L 14.214 12.674 L 11.373 12.674 L 11.373 0.243 L 16.345 0.243 Z M 28.936 2.765 C 27.905 2.765 27.034 3.103 26.343 3.795 C 25.651 4.486 25.313 5.374 25.313 6.457 C 25.313 7.54 25.651 8.428 26.343 9.119 C 27.034 9.811 27.905 10.149 28.936 10.149 C 29.966 10.149 30.818 9.81 31.51 9.119 C 32.201 8.428 32.559 7.54 32.559 6.457 C 32.559 5.374 32.201 4.486 31.51 3.795 C 30.818 3.104 29.966 2.765 28.936 2.765 Z M 2.845 6.101 L 4.71 6.101 C 5.58 6.101 6.22 5.409 6.22 4.504 L 6.22 4.5 C 6.22 3.595 5.58 2.904 4.71 2.904 L 2.845 2.904 L 2.845 6.101 Z M 14.21 6.101 L 16.341 6.101 C 17.124 6.101 17.763 5.409 17.763 4.504 L 17.763 4.5 C 17.763 3.595 17.124 2.904 16.341 2.904 L 14.21 2.904 L 14.21 6.101 Z" fill="currentColor" fill-rule="nonzero"></path>
</svg>