<svg xmlns="http://www.w3.org/2000/svg" width="118.564" height="44.211" viewBox="0 0 118.564 44.211" fill="none">
  <path d="M 6.675 8.605 L 2.576 5.738 C 2.381 6.007 2.196 6.282 2.022 6.563 L 6.141 9.443 C 6.303 9.153 6.482 8.873 6.675 8.605 Z M 5.803 10.122 L 1.136 8.239 C 0.968 8.617 0.818 9.003 0.685 9.396 L 5.385 11.292 C 5.496 10.889 5.637 10.499 5.803 10.122 Z M 5.263 11.786 L 0.251 10.993 C 0.152 11.479 0.084 11.971 0.041 12.469 L 5.086 13.267 C 5.102 12.761 5.162 12.266 5.263 11.786 Z M 5.079 13.546 C 5.079 13.54 5.08 13.533 5.08 13.526 L 0 13.88 C 0.015 14.464 0.068 15.043 0.162 15.613 L 5.252 15.257 C 5.139 14.704 5.079 14.132 5.079 13.546 Z M 27.122 13.546 C 27.122 20.699 21.048 27.093 13.556 27.093 C 9.301 27.093 5.505 25.029 3.018 21.936 L 5.114 19.984 L 2.623 21.42 C 2.175 20.808 1.778 20.16 1.436 19.484 L 4.889 17.493 L 1.051 18.665 C 0.786 18.045 0.569 17.405 0.401 16.75 L 5.255 15.268 C 6.051 19.117 9.465 22.011 13.556 22.011 C 18.238 22.011 22.033 18.222 22.033 13.546 C 22.033 8.871 18.238 5.081 13.556 5.081 C 11.085 5.081 8.861 6.137 7.312 7.822 L 3.956 4.1 C 6.411 1.603 9.806 0 13.556 0 C 21.048 0 27.122 6.394 27.122 13.546 Z M 58.832 15.436 L 58.832 26.394 C 58.832 26.496 58.75 26.577 58.648 26.577 L 54.688 26.577 C 54.587 26.577 54.504 26.496 54.504 26.394 L 54.504 15.758 C 54.504 12.75 53.248 11.225 50.77 11.225 C 48.109 11.225 46.456 13.035 46.456 15.951 L 46.456 26.394 C 46.456 26.496 46.374 26.577 46.272 26.577 L 42.312 26.577 C 42.21 26.577 42.128 26.496 42.128 26.394 L 42.128 15.758 C 42.128 12.75 40.85 11.225 38.33 11.225 C 35.689 11.225 34.048 13.035 34.048 15.951 L 34.048 26.394 C 34.048 26.496 33.965 26.577 33.864 26.577 L 29.904 26.577 C 29.802 26.577 29.72 26.496 29.72 26.394 L 29.72 8.019 C 29.72 7.918 29.802 7.836 29.904 7.836 L 31.974 7.836 C 32.065 7.836 32.15 7.889 32.189 7.971 L 33.563 10.853 C 33.857 10.156 35.321 7.321 39.683 7.321 C 42.514 7.321 44.564 8.547 45.619 10.868 C 46.855 8.579 49.171 7.321 52.156 7.321 C 56.524 7.321 58.832 10.127 58.832 15.436 Z M 65.755 21.014 C 65.75 18.856 67.669 18.217 69.713 18.248 L 73.74 18.248 L 73.74 20.417 C 73.513 21.012 72.198 23.815 68.885 23.815 C 67.11 23.839 65.704 22.864 65.755 21.014 Z M 70.085 7.16 C 66.563 7.16 62.954 8.9 62.2 12.566 C 62.179 12.665 62.245 12.762 62.345 12.782 L 65.834 13.488 C 65.925 13.506 66.014 13.453 66.044 13.365 C 66.686 11.486 67.813 10.69 69.893 10.663 C 73.854 10.663 73.723 14.246 73.74 15.224 L 69.352 15.224 C 67.723 15.224 66.303 15.465 65.13 15.94 C 61.643 17.278 60.508 21.016 62.177 24.209 C 62.76 25.285 64.317 27.093 68.2 27.093 C 71.118 27.093 73.144 25.954 74.226 23.708 C 74.43 24.214 75.125 25.94 75.327 26.44 C 75.361 26.524 75.441 26.577 75.532 26.577 L 77.666 26.577 C 77.768 26.577 77.85 26.496 77.85 26.394 L 77.85 15.224 C 77.852 15.052 78.58 7.16 70.085 7.16 Z M 94.593 14.78 L 94.593 19.806 C 93.375 22.085 91.598 23.046 89.671 23.046 C 86.878 23.046 84.424 20.591 84.424 17.207 C 84.424 13.823 86.556 11.368 89.671 11.368 C 92.584 11.368 94.151 13.345 94.593 14.78 Z M 95.301 10.728 C 94.842 9.876 93.115 7.321 88.925 7.321 C 83.899 7.321 80.25 11.478 80.25 17.207 C 80.25 23.027 83.804 27.093 88.892 27.093 C 93.526 27.093 95.445 24.207 95.823 23.548 L 96.988 26.44 C 97.022 26.523 97.103 26.577 97.193 26.577 L 99.446 26.577 C 99.547 26.577 99.629 26.496 99.629 26.394 L 99.629 2.166 C 99.629 2.065 99.547 1.983 99.446 1.983 L 95.485 1.983 C 95.384 1.983 95.301 2.065 95.301 2.166 L 95.301 10.728 Z M 106.453 21.014 C 106.448 18.856 108.367 18.217 110.41 18.248 L 114.438 18.248 L 114.438 20.417 C 114.211 21.012 112.896 23.815 109.583 23.815 C 107.807 23.839 106.402 22.864 106.453 21.014 Z M 110.782 7.16 C 107.261 7.16 103.653 8.9 102.897 12.566 C 102.877 12.665 102.943 12.762 103.043 12.782 L 106.531 13.488 C 106.622 13.506 106.712 13.453 106.742 13.365 C 107.384 11.486 108.511 10.69 110.59 10.663 C 114.553 10.663 114.421 14.246 114.438 15.224 L 110.05 15.224 C 108.421 15.224 107.001 15.465 105.828 15.94 C 102.34 17.278 101.206 21.016 102.875 24.209 C 103.458 25.285 105.015 27.093 108.898 27.093 C 111.816 27.093 113.842 25.954 114.924 23.708 C 115.128 24.214 115.823 25.94 116.025 26.44 C 116.059 26.524 116.139 26.577 116.23 26.577 L 118.364 26.577 C 118.465 26.577 118.548 26.496 118.548 26.394 L 118.548 15.224 C 118.55 15.052 119.278 7.16 110.782 7.16 Z M 73.332 34.742 L 75.205 34.742 L 72.736 41.517 C 72.03 43.468 70.89 44.298 69.153 44.203 L 69.153 42.577 C 70.089 42.591 70.605 42.222 70.931 41.3 L 68.149 34.742 L 70.062 34.742 L 71.826 39.295 L 73.332 34.742 Z M 64.173 40.04 C 65.103 40.04 66.059 39.402 66.059 38.129 C 66.059 36.999 65.242 36.218 64.173 36.218 C 63.096 36.218 62.3 36.999 62.3 38.129 C 62.3 39.056 62.895 40.04 64.173 40.04 Z M 66.832 35.595 C 67.484 36.287 67.81 37.127 67.81 38.129 C 67.81 39.132 67.484 39.986 66.833 40.677 C 66.195 41.368 65.408 41.707 64.499 41.707 C 63.549 41.707 62.816 41.382 62.3 40.717 L 62.3 41.517 L 60.549 41.517 L 60.549 31.963 L 62.3 31.963 L 62.3 35.541 C 62.816 34.877 63.549 34.552 64.499 34.552 C 65.408 34.552 66.195 34.904 66.832 35.595 Z M 97.589 41.137 C 97.589 41.339 97.766 41.517 97.969 41.517 L 99.162 41.517 L 99.162 31.178 L 97.589 31.963 L 97.589 41.137 Z M 107.181 34.193 C 105.912 34.193 104.593 34.853 103.932 35.816 L 103.932 41.137 C 103.932 41.339 104.111 41.517 104.313 41.517 L 105.506 41.517 L 105.506 36.449 C 105.886 35.967 106.496 35.663 107.181 35.663 C 108.272 35.663 109.059 36.525 109.059 37.665 L 109.059 41.517 L 110.606 41.517 L 110.606 37.615 C 110.606 35.663 109.134 34.193 107.181 34.193 Z M 81.45 39.135 L 81.45 35.79 L 83.48 35.79 L 83.48 34.397 L 81.45 34.397 L 81.45 32.242 L 79.875 33.028 L 79.875 39.464 C 79.875 40.782 80.662 41.517 82.058 41.517 L 84.088 41.517 L 84.088 40.174 L 82.464 40.174 C 81.703 40.174 81.45 39.895 81.45 39.135 Z M 88.504 34.27 C 87.159 34.27 85.738 34.979 85.028 36.018 L 85.028 43.823 C 85.028 44.026 85.205 44.203 85.408 44.203 L 86.601 44.203 L 86.601 36.651 C 86.982 36.094 87.691 35.739 88.479 35.739 C 89.696 35.739 90.585 36.651 90.585 37.943 C 90.585 39.211 89.696 40.174 88.479 40.174 L 87.362 40.174 L 87.362 41.517 L 88.504 41.517 C 90.61 41.517 92.158 40.022 92.158 37.943 C 92.158 35.841 90.585 34.27 88.504 34.27 Z M 102.334 41.517 L 102.334 34.397 L 100.761 34.397 L 100.761 41.137 C 100.761 41.339 100.938 41.517 101.141 41.517 L 102.334 41.517 Z M 118.55 41.517 L 115.225 37.766 L 118.194 34.397 L 116.341 34.397 L 113.677 37.539 L 113.677 31.178 L 112.104 31.963 L 112.104 41.111 C 112.104 41.339 112.281 41.517 112.484 41.517 L 113.677 41.517 L 113.677 37.969 L 116.62 41.517 L 118.55 41.517 Z M 94.061 38.73 L 96.193 38.73 L 96.193 37.158 L 93.3 37.158 L 94.061 38.73 Z M 101.547 31.026 C 100.964 31.026 100.482 31.482 100.482 32.064 C 100.482 32.343 100.583 32.572 100.761 32.749 L 102.334 32.749 C 102.512 32.572 102.613 32.343 102.613 32.064 C 102.613 31.482 102.131 31.026 101.547 31.026 Z" fill="currentColor" fill-rule="evenodd"></path>
</svg>