<svg xmlns="http://www.w3.org/2000/svg" width="118.400" height="44.210" viewBox="0 0 118.400 44.210" fill="none">
  <path d="M 53.321 31.318 L 31.218 31.318 C 30.369 31.318 29.68 32.007 29.68 32.856 L 29.68 42.084 C 29.68 42.933 30.369 43.621 31.218 43.621 L 53.321 43.621 C 54.171 43.621 54.859 42.933 54.859 42.084 L 54.859 32.856 C 54.859 32.007 54.171 31.318 53.321 31.318 Z M 49.497 36.159 C 49.837 36.499 50.013 36.935 50.013 37.468 C 50.013 38 49.837 38.437 49.497 38.777 C 49.157 39.117 48.738 39.284 48.231 39.284 C 47.724 39.284 47.296 39.117 46.956 38.777 C 46.616 38.437 46.449 38 46.449 37.468 C 46.449 36.935 46.616 36.499 46.956 36.159 C 47.296 35.819 47.724 35.652 48.231 35.652 C 48.738 35.652 49.157 35.819 49.497 36.159 Z M 50.483 39.731 C 49.863 40.342 49.112 40.648 48.229 40.648 C 47.345 40.648 46.595 40.342 45.974 39.731 C 45.354 39.119 45.048 38.368 45.048 37.47 C 45.048 36.571 45.354 35.819 45.974 35.209 C 46.595 34.597 47.345 34.291 48.229 34.291 C 49.112 34.291 49.863 34.597 50.483 35.209 C 51.103 35.821 51.409 36.571 51.409 37.47 C 51.409 38.368 51.103 39.121 50.483 39.731 Z M 42.736 36.507 C 42.736 36.952 42.421 37.292 42.036 37.292 L 40.988 37.292 L 40.988 35.72 L 42.036 35.72 C 42.421 35.72 42.736 36.06 42.736 36.505 L 42.736 36.507 Z M 42.806 40.524 L 41.654 38.516 L 40.991 38.516 L 40.991 40.524 L 39.594 40.524 L 39.594 34.411 L 42.039 34.411 C 42.625 34.411 43.112 34.612 43.523 35.023 C 43.934 35.434 44.135 35.923 44.135 36.507 C 44.135 37.25 43.681 37.93 43.008 38.28 L 44.31 40.524 L 42.809 40.524 L 42.806 40.524 Z M 37.059 36.507 C 37.059 36.952 36.745 37.292 36.317 37.292 L 35.399 37.292 L 35.399 35.72 L 36.317 35.72 C 36.745 35.72 37.059 36.06 37.059 36.505 L 37.059 36.507 Z M 37.836 37.992 C 37.425 38.402 36.918 38.603 36.315 38.603 L 35.397 38.603 L 35.397 40.524 L 34 40.524 L 34 34.411 L 36.315 34.411 C 36.918 34.411 37.425 34.612 37.836 35.023 C 38.246 35.434 38.456 35.923 38.456 36.507 C 38.456 37.091 38.246 37.581 37.836 37.992 Z M 93.931 38.728 L 96.059 38.728 L 96.059 37.155 L 93.17 37.155 L 93.931 38.728 Z M 118.386 41.515 L 115.066 37.763 L 118.031 34.392 L 116.18 34.392 L 113.52 37.534 L 113.52 31.173 L 111.947 31.958 L 111.947 41.106 C 111.947 41.335 112.125 41.512 112.328 41.512 L 113.52 41.512 L 113.52 37.964 L 116.458 41.512 L 118.386 41.512 L 118.386 41.515 Z M 101.407 31.023 C 100.825 31.023 100.342 31.479 100.342 32.063 C 100.342 32.341 100.442 32.57 100.62 32.747 L 102.192 32.747 C 102.369 32.57 102.472 32.341 102.472 32.063 C 102.472 31.481 101.991 31.023 101.407 31.023 Z M 102.192 41.515 L 102.192 34.394 L 100.62 34.394 L 100.62 41.134 C 100.62 41.337 100.797 41.515 101 41.515 L 102.192 41.515 Z M 88.381 34.268 C 87.037 34.268 85.619 34.978 84.909 36.015 L 84.909 43.82 C 84.909 44.024 85.087 44.201 85.29 44.201 L 86.481 44.201 L 86.481 36.648 C 86.862 36.09 87.57 35.737 88.357 35.737 C 89.572 35.737 90.46 36.648 90.46 37.94 C 90.46 39.232 89.572 40.171 88.357 40.171 L 87.243 40.171 L 87.243 41.515 L 88.383 41.515 C 90.485 41.515 92.032 40.019 92.032 37.94 C 92.032 35.861 90.46 34.266 88.383 34.266 M 81.339 39.132 L 81.339 35.786 L 83.367 35.786 L 83.367 34.394 L 81.339 34.394 L 81.339 32.24 L 79.767 33.025 L 79.767 39.461 C 79.767 40.779 80.552 41.515 81.947 41.515 L 83.975 41.515 L 83.975 40.171 L 82.353 40.171 C 81.594 40.171 81.339 39.893 81.339 39.132 Z M 107.036 34.191 C 105.77 34.191 104.453 34.85 103.792 35.814 L 103.792 41.136 C 103.792 41.339 103.969 41.517 104.172 41.517 L 105.364 41.517 L 105.364 36.447 C 105.742 35.966 106.352 35.662 107.036 35.662 C 108.125 35.662 108.91 36.524 108.91 37.664 L 108.91 41.517 L 110.457 41.517 L 110.457 37.615 C 110.457 35.662 108.987 34.193 107.036 34.193 M 97.456 41.136 C 97.456 41.339 97.634 41.517 97.837 41.517 L 99.028 41.517 L 99.028 31.177 L 97.456 31.962 L 97.456 41.136 Z M 66.743 35.594 C 67.394 36.285 67.719 37.125 67.719 38.129 C 67.719 39.132 67.394 39.985 66.743 40.676 C 66.106 41.367 65.321 41.707 64.412 41.707 C 63.503 41.707 62.731 41.382 62.217 40.717 L 62.217 41.517 L 60.47 41.517 L 60.47 31.962 L 62.217 31.962 L 62.217 35.541 C 62.733 34.877 63.464 34.55 64.412 34.55 C 65.359 34.55 66.106 34.903 66.743 35.594 Z M 64.087 40.039 C 65.015 40.039 65.971 39.399 65.971 38.129 C 65.971 36.999 65.156 36.219 64.087 36.219 C 63.017 36.219 62.217 36.999 62.217 38.129 C 62.217 39.055 62.81 40.039 64.087 40.039 Z M 73.233 34.741 L 75.102 34.741 L 72.636 41.517 C 71.932 43.467 70.792 44.297 69.058 44.203 L 69.058 42.578 C 69.992 42.59 70.508 42.223 70.833 41.301 L 68.054 34.741 L 69.965 34.741 L 71.727 39.294 L 73.231 34.741 L 73.233 34.741 Z M 110.63 7.161 C 107.113 7.161 103.509 8.902 102.756 12.566 C 102.735 12.665 102.801 12.763 102.902 12.782 L 106.386 13.488 C 106.476 13.507 106.566 13.454 106.596 13.366 C 107.238 11.486 108.363 10.69 110.44 10.665 C 114.397 10.665 114.266 14.247 114.281 15.225 L 109.898 15.225 C 108.273 15.225 106.853 15.467 105.683 15.941 C 102.2 17.278 101.067 21.017 102.733 24.211 C 103.315 25.289 104.87 27.094 108.748 27.094 C 111.661 27.094 113.684 25.956 114.764 23.71 C 114.968 24.215 115.663 25.941 115.864 26.441 C 115.898 26.525 115.977 26.578 116.067 26.578 L 118.2 26.578 C 118.3 26.578 118.384 26.497 118.384 26.394 L 118.384 15.223 C 118.386 15.052 119.113 7.159 110.628 7.159 L 110.63 7.161 Z M 106.307 21.015 C 106.303 18.857 108.219 18.219 110.26 18.249 L 114.281 18.249 L 114.281 20.418 C 114.054 21.013 112.741 23.817 109.432 23.817 C 107.659 23.841 106.256 22.865 106.307 21.015 Z M 95.172 10.731 C 94.712 9.878 92.988 7.324 88.804 7.324 C 83.784 7.324 80.142 11.482 80.142 17.21 C 80.142 22.938 83.69 27.096 88.772 27.096 C 93.399 27.096 95.315 24.211 95.692 23.552 L 96.855 26.444 C 96.889 26.527 96.971 26.583 97.061 26.583 L 99.311 26.583 C 99.411 26.583 99.495 26.501 99.495 26.399 L 99.495 2.167 C 99.495 2.066 99.413 1.983 99.311 1.983 L 95.356 1.983 C 95.255 1.983 95.172 2.064 95.172 2.167 L 95.172 10.729 L 95.172 10.731 Z M 94.464 14.782 L 94.464 19.809 C 93.247 22.087 91.474 23.049 89.549 23.049 C 86.759 23.049 84.31 20.594 84.31 17.21 C 84.31 13.826 86.439 11.371 89.549 11.371 C 92.458 11.371 94.023 13.349 94.464 14.782 Z M 69.988 7.161 C 66.472 7.161 62.868 8.902 62.115 12.566 C 62.093 12.665 62.16 12.763 62.26 12.782 L 65.744 13.488 C 65.834 13.507 65.924 13.454 65.954 13.366 C 66.596 11.486 67.721 10.69 69.798 10.665 C 73.755 10.665 73.624 14.247 73.639 15.225 L 69.257 15.225 C 67.631 15.225 66.211 15.467 65.041 15.941 C 61.558 17.278 60.425 21.017 62.091 24.211 C 62.673 25.289 64.228 27.094 68.106 27.094 C 71.019 27.094 73.042 25.956 74.123 23.71 C 74.326 24.215 75.021 25.941 75.222 26.441 C 75.256 26.525 75.335 26.578 75.425 26.578 L 77.558 26.578 C 77.658 26.578 77.742 26.497 77.742 26.394 L 77.742 15.223 C 77.744 15.052 78.471 7.159 69.986 7.159 L 69.988 7.161 Z M 65.665 21.015 C 65.661 18.857 67.577 18.219 69.618 18.249 L 73.639 18.249 L 73.639 20.418 C 73.412 21.013 72.099 23.817 68.79 23.817 C 67.017 23.841 65.614 22.865 65.665 21.015 Z M 58.752 15.439 L 58.752 26.397 C 58.752 26.497 58.671 26.581 58.568 26.581 L 54.613 26.581 C 54.513 26.581 54.429 26.499 54.429 26.397 L 54.429 15.76 C 54.429 12.75 53.174 11.225 50.701 11.225 C 48.045 11.225 46.393 13.037 46.393 15.952 L 46.393 26.394 C 46.393 26.495 46.312 26.578 46.21 26.578 L 42.255 26.578 C 42.154 26.578 42.071 26.497 42.071 26.394 L 42.071 15.758 C 42.071 12.748 40.794 11.223 38.278 11.223 C 35.763 11.223 34.003 13.035 34.003 15.95 L 34.003 26.392 C 34.003 26.493 33.921 26.576 33.819 26.576 L 29.864 26.576 C 29.763 26.576 29.68 26.495 29.68 26.392 L 29.68 8.019 C 29.68 7.918 29.761 7.835 29.864 7.835 L 31.93 7.835 C 32.022 7.835 32.105 7.888 32.146 7.972 L 33.519 10.853 C 33.812 10.156 35.275 7.322 39.63 7.322 C 42.458 7.322 44.503 8.547 45.557 10.87 C 46.791 8.581 49.103 7.322 52.085 7.322 C 56.446 7.322 58.752 10.128 58.752 15.437 L 58.752 15.439 Z M 27.085 13.548 C 27.085 20.701 21.019 27.094 13.539 27.094 C 9.289 27.094 5.499 25.03 3.016 21.937 L 5.11 19.984 L 2.622 21.421 C 2.175 20.81 1.78 20.162 1.437 19.486 L 4.885 17.494 L 1.052 18.666 C 0.789 18.046 0.571 17.407 0.404 16.752 L 5.251 15.27 C 6.047 19.12 9.456 22.014 13.542 22.014 C 18.217 22.014 22.007 18.224 22.007 13.548 C 22.007 8.872 18.213 5.08 13.537 5.08 C 11.069 5.08 8.849 6.137 7.302 7.822 L 3.951 4.1 C 6.402 1.602 9.792 0 13.537 0 C 21.019 0 27.083 6.393 27.083 13.546 L 27.085 13.548 Z M 5.074 13.548 C 5.074 13.548 5.074 13.535 5.074 13.527 L 0 13.882 C 0.015 14.466 0.068 15.043 0.163 15.614 L 5.247 15.259 C 5.133 14.707 5.074 14.134 5.074 13.548 Z M 5.257 11.788 L 0.25 10.994 C 0.152 11.48 0.083 11.972 0.041 12.47 L 5.078 13.268 C 5.095 12.761 5.155 12.267 5.255 11.788 L 5.257 11.788 Z M 5.797 10.124 L 1.134 8.239 C 0.967 8.618 0.815 9.003 0.682 9.396 L 5.375 11.294 C 5.486 10.891 5.625 10.5 5.792 10.124 L 5.797 10.124 Z M 6.667 8.605 L 2.573 5.739 C 2.378 6.008 2.195 6.282 2.019 6.564 L 6.132 9.446 C 6.293 9.155 6.472 8.874 6.665 8.607 L 6.667 8.605 Z" fill="currentColor" fill-rule="nonzero"></path>
</svg>