<svg xmlns="http://www.w3.org/2000/svg" width="53.099" height="19.390" viewBox="0 0 53.099 19.390" fill="none">
  <path d="M 43.397 0 C 46.092 0 48.382 0.933 50.273 2.799 C 52.165 4.665 53.099 6.954 53.099 9.694 C 53.099 12.434 52.165 14.731 50.273 16.591 C 48.382 18.456 46.092 19.39 43.397 19.39 C 40.703 19.39 38.413 18.456 36.521 16.591 C 34.63 14.725 33.696 12.434 33.696 9.694 C 33.696 6.954 34.63 4.658 36.521 2.799 C 38.413 0.933 40.703 0 43.397 0 Z M 7.059 0.365 C 8.898 0.365 10.445 0.979 11.697 2.231 C 12.95 3.484 13.59 4.978 13.59 6.759 C 13.59 8.54 12.95 10.034 11.697 11.286 C 10.445 12.539 8.898 13.152 7.059 13.152 L 4.26 13.152 L 4.26 19.011 L 0 19.011 L 0 0.365 L 7.059 0.365 Z M 24.517 0.365 C 26.304 0.365 27.792 0.979 29.045 2.231 C 30.297 3.484 30.91 4.978 30.91 6.759 C 30.91 9.023 29.528 11.097 27.473 12.167 L 31.445 19.011 L 26.859 19.011 L 23.343 12.885 L 21.32 12.885 L 21.32 19.011 L 17.061 19.011 L 17.061 0.365 L 24.517 0.365 Z M 43.403 4.146 C 41.857 4.146 40.552 4.656 39.515 5.693 C 38.477 6.731 37.969 8.061 37.969 9.686 C 37.969 11.31 38.477 12.641 39.515 13.679 C 40.552 14.716 41.857 15.225 43.403 15.225 C 44.949 15.225 46.228 14.716 47.265 13.679 C 48.302 12.641 48.837 11.31 48.837 9.686 C 48.837 8.061 48.302 6.731 47.265 5.693 C 46.227 4.656 44.949 4.147 43.403 4.146 Z M 4.267 9.15 L 7.065 9.15 C 8.37 9.15 9.329 8.114 9.329 6.757 L 9.329 6.75 C 9.329 5.393 8.37 4.355 7.065 4.355 L 4.267 4.355 L 4.267 9.15 Z M 21.314 9.15 L 24.511 9.15 C 25.685 9.15 26.644 8.114 26.645 6.757 L 26.645 6.75 C 26.645 5.393 25.685 4.355 24.511 4.355 L 21.314 4.355 L 21.314 9.15 Z" fill="currentColor" fill-rule="nonzero"></path>
</svg>