<svg xmlns="http://www.w3.org/2000/svg" width="20" height="20" fill="none" viewBox="0 0 20 20">
  <path fill="#636363" d="M17.873 18.12H10.91v-6.964h6.963v6.964ZM3.307 14.304h4.116l-.533-.587-.404-.444.888-.807.404.444 1.54 1.694.392.431-.42.405-1.54 1.486-.432.416-.833-.863.432-.418.579-.558H2.108v-4.806h1.199v3.607Zm8.802 2.616h4.564v-4.565H12.11v4.565Zm1.387-13.112-.432.417-.578.558h5.387V9.27h-1.199V5.983H12.56l.532.586.405.444-.89.807-.402-.444-1.54-1.694-.393-.431.42-.404 1.54-1.487.433-.416.832.864ZM9.064 8.964H2.1V2h6.964v6.964Zm-5.765-1.2h4.565V3.199H3.299v4.565Z"></path>
</svg>