<svg xmlns="http://www.w3.org/2000/svg" width="20" height="20" fill="none" viewBox="0 0 20 20">
  <path fill="#00A870" d="M0 0h20v20H0z"></path>
  <path fill="#fff" fill-rule="evenodd" d="M16.605 3.977a3.32 3.32 0 0 0-4.694 0L8.986 6.9a.585.585 0 0 0 0 .832.585.585 0 0 0 .832 0l2.925-2.925A2.145 2.145 0 0 1 16.4 6.322a2.12 2.12 0 0 1-.628 1.514l-2.923 2.924a.586.586 0 0 0 .416 1.003.59.59 0 0 0 .417-.17l2.925-2.926a3.318 3.318 0 0 0-.002-4.69Zm-8.52 2.557a.586.586 0 0 0 .587-.588l-.001-2.358A.586.586 0 0 0 8.083 3a.586.586 0 0 0-.588.588v2.36a.588.588 0 0 0 .59.586Zm7.039 7.744a.58.58 0 0 0-.415-.17.588.588 0 0 0-.417 1.003l1.669 1.667c.228.23.6.23.831 0a.586.586 0 0 0 0-.832l-1.668-1.668Zm1.864-2.375h-2.36a.576.576 0 0 0-.414.174.586.586 0 0 0 .414 1.003l2.358-.002a.586.586 0 0 0 .588-.587.584.584 0 0 0-.586-.588Zm-4.49 2.147a.586.586 0 0 0-.588.587l.001 2.359a.586.586 0 0 0 .588.587.586.586 0 0 0 .587-.587v-2.36a.589.589 0 0 0-.59-.586Zm-1.74-1.198-2.924 2.925a2.13 2.13 0 0 1-1.514.628 2.12 2.12 0 0 1-1.513-.628 2.135 2.135 0 0 1-.002-3.028L7.73 9.825a.585.585 0 0 0 0-.832.585.585 0 0 0-.832 0l-2.925 2.921A3.297 3.297 0 0 0 3 14.261c0 .886.345 1.72.973 2.346a3.308 3.308 0 0 0 2.346.971 3.3 3.3 0 0 0 2.345-.971l2.927-2.923a.586.586 0 0 0 0-.832.59.59 0 0 0-.834 0Zm-5.3-6.546a.58.58 0 0 0 .415.169.588.588 0 0 0 .416-1.003L4.621 3.807a.585.585 0 0 0-.832 0 .585.585 0 0 0 0 .832l1.669 1.667ZM3.594 8.682h2.36a.576.576 0 0 0 .414-.174.586.586 0 0 0-.414-1.003l-2.358.002a.586.586 0 0 0-.588.587.582.582 0 0 0 .586.588Z" clip-rule="evenodd"></path>
</svg>