<svg xmlns="http://www.w3.org/2000/svg" width="44" height="44" fill="none" viewBox="0 0 44 44">
  <rect width="24.7" height="24.7" x="9.65" y="9.65" stroke="#2B2B2B" stroke-width="1.3" rx="12.35"></rect>
  <path fill="#00A870" d="M21.999 27.002c2.761 0 5.001-2.36 5.001-5C27 19.36 24.76 17 21.999 17c-1.383 0-2.634.592-3.541 1.514l1.238 1.372A3.125 3.125 0 0 1 25.125 22a3.126 3.126 0 0 1-6.188.637l-1.788.546c.063.243.143.479.24.708l1.415-.433-1.274.734c.126.25.271.488.437.714l.918-.53-.773.72c.918 1.143 2.317 1.905 3.886 1.905Z"></path>
  <path fill="#00A870" d="M18.873 21.994v.007c0 .218.022.429.063.633l-1.877.131a5.003 5.003 0 0 1-.059-.64l1.873-.13Zm-1.78-.936 1.848.293c-.039.176-.06.36-.066.546l-1.86-.295a5.2 5.2 0 0 1 .078-.544Zm.327-1.016 1.72.694a3.18 3.18 0 0 0-.154.433l-1.732-.7a4.86 4.86 0 0 1 .165-.427Zm2.042.134h-.001a2.856 2.856 0 0 0-.196.308l-1.52-1.063c.064-.102.132-.204.205-.304l1.51 1.058.002-.001v.002Z"></path>
</svg>