<svg xmlns="http://www.w3.org/2000/svg" width="44" height="44" fill="none" viewBox="0 0 44 44">
  <path stroke="#2B2B2B" stroke-width="1.3" d="M8.5 20.06h27c.47 0 .85.38.85.85v8.758H7.65v-8.759c0-.47.38-.85.85-.85Zm24.335-6.819 3.147 6.796H8.018l3.147-6.796h21.67Z"></path>
  <path fill="#00A870" d="M11 24h2v2h-2v-2Zm4 0h6v2h-6v-2Zm12.5.4h-1.6v-1.6h1.6v1.6Zm2.801 0h-1.6v-1.6h1.6v1.6Zm2.8 0h-1.6v-1.6h1.6v1.6Zm-2.8 2.4h-1.6v-1.6h1.6v1.6Zm2.8 0h-1.6v-1.6h1.6v1.6Zm-5.601 0h-1.6v-1.6h1.6v1.6Z"></path>
</svg>