<svg xmlns="http://www.w3.org/2000/svg" width="44" height="44" fill="none" viewBox="0 0 44 44">
  <path stroke="#2B2B2B" stroke-width="1.3" d="M8.5 15.469h27c.47 0 .85.38.85.85v8.758H7.65v-8.759c0-.47.38-.85.85-.85Z"></path>
  <path stroke="#2B2B2B" stroke-width="1.3" d="M8.5 25.06h27c.47 0 .85.38.85.85v8.758H7.65v-8.759c0-.47.38-.85.85-.85Z"></path>
  <path fill="#00A870" d="M23.02 21.387H21v-2.02h2.02v2.02Zm3.538 0h-2.02v-2.02h2.02v2.02Zm3.534 0h-2.02v-2.02h2.02v2.02Zm3.528 0H31.6v-2.02h2.02v2.02ZM11 19.366h6.02v2.02H11v-2.02ZM23.02 30.93H21v-2.02h2.02v2.02Zm3.538 0h-2.02v-2.02h2.02v2.02Zm3.534 0h-2.02v-2.02h2.02v2.02Zm3.528 0H31.6v-2.02h2.02v2.02ZM11 28.91h6.02v2.02H11v-2.02Z"></path>
  <path stroke="#2B2B2B" stroke-width="1.3" d="m32.835 8.65 3.147 6.796H8.018l3.147-6.796h21.67Z"></path>
</svg>