<svg xmlns="http://www.w3.org/2000/svg" width="20" height="20" fill="none" viewBox="0 0 20 20">
  <path fill="#00A870" d="m10.145 1.505 7.116 2.078.36.105v4.638a10.91 10.91 0 0 1-7.462 10.35l-.157.053-.158-.053A10.911 10.911 0 0 1 2.38 8.324V3.688l.36-.105 7.123-2.078.14-.041.14.04ZM3.38 4.438v3.886A9.91 9.91 0 0 0 10 17.671a9.908 9.908 0 0 0 6.62-9.345V4.437l-6.618-1.933L3.38 4.437Zm6.62.344a2 2 0 0 1 2 2v.5h-1v-.5a1 1 0 0 0-2 0v1.05a3.5 3.5 0 1 1-1 .482V6.782a2 2 0 0 1 2-2Zm0 3.905a2.5 2.5 0 1 0 0 5 2.5 2.5 0 0 0 0-5Zm.5 3.857h-1V9.83h1v2.714Z"></path>
</svg>