<svg xmlns="http://www.w3.org/2000/svg" width="20" height="20" fill="none" viewBox="0 0 20 20">
  <path stroke="#2B2B2B" d="M10 2.167A5.334 5.334 0 0 1 15.334 7.5c0 2.324-1.342 4.164-2.754 5.453a13.516 13.516 0 0 1-2.568 1.83l-.012.006-.013-.006a13.517 13.517 0 0 1-2.566-1.83C6.008 11.663 4.667 9.824 4.667 7.5A5.333 5.333 0 0 1 10 2.167Z"></path>
  <path stroke="#2B2B2B" stroke-linecap="square" d="M10 9.833a2.333 2.333 0 1 0 0-4.667 2.333 2.333 0 0 0 0 4.667ZM6.667 12.8H4.583l-1.666 4.583h14.166L15.417 12.8h-2.084"></path>
</svg>