<svg xmlns="http://www.w3.org/2000/svg" width="20" height="20" fill="none" viewBox="0 0 20 20">
  <path fill="#00A870" d="m5.545 7.811.083.495.358-.06.056-.358-.497-.077Zm8.91 0-.497.077.056.359.358.06.083-.496Zm-8.91 0 .497.077A4.007 4.007 0 0 1 10 4.502V3.498a5.012 5.012 0 0 0-4.95 4.236l.495.077ZM10 4v.502a4.007 4.007 0 0 1 3.958 3.386l.497-.077.496-.077A5.012 5.012 0 0 0 10 3.498V4Zm4.455 3.811-.083.495a3.749 3.749 0 0 1 3.126 3.697h1.004a4.753 4.753 0 0 0-3.965-4.687l-.082.495ZM18 12.003h-.502a3.748 3.748 0 0 1-3.748 3.748v1.004a4.752 4.752 0 0 0 4.752-4.752H18Zm-4.25 4.25v-.502h-7.5v1.004h7.5v-.502Zm-7.5 0v-.502a3.748 3.748 0 0 1-3.748-3.748H1.498a4.752 4.752 0 0 0 4.752 4.752v-.502ZM2 12.003h.502a3.75 3.75 0 0 1 3.126-3.697l-.083-.495-.082-.495a4.753 4.753 0 0 0-3.965 4.687H2Z"></path>
</svg>