<svg xmlns="http://www.w3.org/2000/svg" width="20" height="20" fill="none" viewBox="0 0 20 20">
  <g clip-path="url(#a)">
    <path stroke="#00A870" stroke-linecap="square" d="M3.083 9.898a7.03 7.03 0 0 1-.193-.446A5.348 5.348 0 0 1 2.5 7.5c0-2.237 1.832-4.05 4.09-4.05A4.1 4.1 0 0 1 10 5.26a4.098 4.098 0 0 1 3.41-1.81c2.258 0 4.09 1.813 4.09 4.05 0 2.912-2.727 5.4-4.09 6.75-.91.9-2.046 1.8-3.41 2.7-1.364-.9-2.5-1.8-3.41-2.7-.136-.136-.287-.283-.448-.442"></path>
    <path stroke="#00A870" stroke-linecap="square" d="m4 12.44 4.168-4.1 2.424 2.5 3.631-3.708"></path>
  </g>
  <defs>
    <clipPath id="a">
      <path fill="#fff" d="M0 0h20v20H0z"></path>
    </clipPath>
  </defs>
</svg>