<svg xmlns="http://www.w3.org/2000/svg" width="20" height="20" fill="none" viewBox="0 0 20 20">
  <path fill="#00A870" d="m3.5 7.633-.312-.39-.188.15v.24h.5Zm0 9.534H3v.5h.5v-.5ZM10 2.433l.312-.39-.312-.25-.312.25.312.39Zm6.5 5.2h.5v-.24l-.188-.15-.312.39Zm0 9.534v.5h.5v-.5h-.5Zm-4.47 0h-.5v.5h.5v-.5Zm0-5.661h.5v-.5h-.5v.5Zm-4.062 0v-.5h-.5v.5h.5Zm0 5.66v.5h.5v-.5h-.5ZM3.5 7.634H3v9.534h1V7.633h-.5Zm6.5-5.2-.312-.39-6.5 5.2.312.39.312.39 6.5-5.2-.312-.39Zm6.5 5.2.312-.39-6.5-5.2-.312.39-.312.39 6.5 5.2.312-.39Zm0 9.534h.5V7.633h-1v9.534h.5Zm-4.47 0v.5h4.47v-1h-4.47v.5Zm0 0h.5v-5.661h-1v5.66h.5Zm0-5.661v-.5H7.969v1h4.063v-.5Zm-4.062 0h-.5v5.66h1v-5.66h-.5ZM3.5 17.166v.5h4.468v-1H3.5v.5Z"></path>
</svg>