<svg xmlns="http://www.w3.org/2000/svg" width="20" height="20" fill="none" viewBox="0 0 20 20">
  <path fill="#2B2B2B" d="M16.783 10.592c0 2.57-1.945 4.7-4.4 4.7H4.43l1.56 1.68.34.366-.733.681-.34-.367-2.34-2.52-.317-.34.317-.34 2.34-2.52.34-.367.733.68-.34.367-1.561 1.68h7.954c1.837 0 3.4-1.614 3.4-3.7v-.5h1v.5Zm-2.474-7.9 2.34 2.52.317.34-.317.34-2.34 2.52-.34.367-.733-.68.341-.367 1.56-1.68H7.183c-1.836 0-3.4 1.614-3.4 3.7v.5h-1v-.5c0-2.57 1.945-4.7 4.4-4.7h7.954l-1.56-1.68-.34-.367.733-.68.34.367Z"></path>
</svg>