<svg xmlns="http://www.w3.org/2000/svg" width="20" height="20" fill="none" viewBox="0 0 20 20">
  <path fill="#00A870" d="M10 1.999a8 8 0 0 1 .047 15.998c-.015 0-.03.004-.046.004-.015 0-.03-.004-.046-.004A8 8 0 0 1 10 2Zm-2.251 8.494c.045 1.827.334 3.453.77 4.636.237.646.509 1.133.785 1.45.255.293.477.398.653.413l.043.002.045-.002c.176-.015.397-.12.652-.413.276-.317.548-.804.785-1.45.436-1.183.725-2.809.77-4.636H7.749Zm-4.726 0a6.997 6.997 0 0 0 5.168 6.263 6.794 6.794 0 0 1-.615-1.28c-.484-1.314-.786-3.062-.83-4.983H3.022Zm10.234 0c-.045 1.921-.348 3.669-.832 4.983-.177.48-.384.912-.616 1.28a6.996 6.996 0 0 0 5.167-6.263h-3.72ZM11.805 3.24c.234.369.442.804.62 1.286.482 1.31.784 3.05.83 4.964h3.72a6.998 6.998 0 0 0-5.17-6.25Zm-3.61 0a7 7 0 0 0-5.17 6.25h3.721c.046-1.913.348-3.654.83-4.964.178-.482.385-.917.62-1.286Zm1.806-.234c-.183 0-.42.099-.697.417-.276.317-.547.805-.785 1.451-.435 1.179-.723 2.797-.769 4.616h4.501c-.046-1.819-.334-3.437-.769-4.616-.238-.646-.509-1.134-.785-1.451-.276-.318-.513-.417-.696-.417Z"></path>
</svg>