<svg xmlns="http://www.w3.org/2000/svg" width="20" height="20" fill="none" viewBox="0 0 20 20">
  <path fill="#00A870" d="M4.259 14.018h1.506v1.505h2.69v1h-2.69v1.506H1.753v-4.011h1.506v-2.689h1v2.689Zm12.348 0h1.206v4.011H13.8v-1.506h-2.689v-1H13.8v-1.505h1.806v-2.689h1v2.689ZM2.753 17.029h2.012v-2.011H2.753v2.011Zm12.048 0h2.011v-2.011h-2.011v2.011ZM5.765 3.477h2.69v1h-2.69v1.505H4.259v2.689h-1V5.982H1.753V1.971h4.012v1.506Zm12.047 2.505h-1.205v2.689h-1V5.982h-1.806V4.477h-2.689v-1h2.689V1.97h4.011v4.011Zm-15.06-1h2.013V2.971H2.753v2.011Zm12.049 0h2.011V2.971h-2.011v2.011Z"></path>
</svg>