<svg xmlns="http://www.w3.org/2000/svg" width="20" height="20" fill="none" viewBox="0 0 20 20">
  <path stroke="#00A870" d="M7.856 17.21a7.5 7.5 0 0 1-3.26-1.99 2.25 2.25 0 0 0-1.943-3.69 7.533 7.533 0 0 1 .19-3.76h.032a2.25 2.25 0 0 0 2.02-3.244 7.488 7.488 0 0 1 3.1-1.735 2.25 2.25 0 0 0 4.01 0 7.488 7.488 0 0 1 3.1 1.735 2.25 2.25 0 0 0 2.05 3.244 7.536 7.536 0 0 1 .191 3.761 2.25 2.25 0 0 0-1.943 3.69 7.5 7.5 0 0 1-3.26 1.988 2.251 2.251 0 0 0-4.287 0Z"></path>
  <path stroke="#00A870" d="M10 12.645a2.625 2.625 0 1 0 0-5.25 2.625 2.625 0 0 0 0 5.25Z"></path>
</svg>