<svg xmlns="http://www.w3.org/2000/svg" width="20" height="20" fill="none" viewBox="0 0 20 20">
  <path fill="#00A870" d="M9.744 12.602a.602.602 0 0 1 .578 0l.086.057 4.715 3.773a.6.6 0 0 1-.375 1.068h-9.43a.6.6 0 0 1-.375-1.068l4.715-3.773.086-.057ZM6.458 16.5h7.15l-3.575-2.86-3.575 2.86Zm3.575-15a8.75 8.75 0 0 1 6.932 14.09l-.306.396-.792-.61.306-.396a7.75 7.75 0 1 0-12.28 0l.306.396-.792.61-.305-.395A8.75 8.75 0 0 1 10.034 1.5Zm0 3a5.75 5.75 0 0 1 4.804 8.911l-.275.418-.835-.55.275-.418a4.75 4.75 0 1 0-7.938 0l.276.417-.835.551-.276-.418A5.75 5.75 0 0 1 10.033 4.5Z"></path>
</svg>