<svg xmlns="http://www.w3.org/2000/svg" width="16" height="12.253" viewBox="0 0 16 12.253" fill="none">
  <path d="M 3.545 3.811 L 3.628 4.306 L 3.986 4.247 L 4.042 3.888 L 3.545 3.811 Z M 12.455 3.811 L 11.958 3.888 L 12.014 4.247 L 12.372 4.306 L 12.455 3.811 Z M 3.545 3.811 L 4.042 3.888 C 4.34 1.97 5.999 0.502 8 0.502 L 8 0 L 8 -0.502 C 5.496 -0.502 3.422 1.334 3.049 3.734 L 3.545 3.811 Z M 8 0 L 8 0.502 C 10.001 0.502 11.661 1.97 11.958 3.888 L 12.455 3.811 L 12.951 3.734 C 12.578 1.334 10.504 -0.502 8 -0.502 L 8 0 Z M 12.455 3.811 L 12.372 4.306 C 14.146 4.602 15.498 6.145 15.498 8.003 L 16 8.003 L 16.502 8.003 C 16.502 5.646 14.787 3.691 12.537 3.316 L 12.455 3.811 Z M 16 8.003 L 15.498 8.003 C 15.498 10.073 13.82 11.751 11.75 11.751 L 11.75 12.253 L 11.75 12.755 C 14.375 12.755 16.502 10.627 16.502 8.003 L 16 8.003 Z M 11.75 12.253 L 11.75 11.751 L 4.25 11.751 L 4.25 12.253 L 4.25 12.755 L 11.75 12.755 L 11.75 12.253 Z M 4.25 12.253 L 4.25 11.751 C 2.18 11.751 0.502 10.073 0.502 8.003 L 0 8.003 L -0.502 8.003 C -0.502 10.627 1.625 12.755 4.25 12.755 L 4.25 12.253 Z M 0 8.003 L 0.502 8.003 C 0.502 6.145 1.854 4.602 3.628 4.306 L 3.545 3.811 L 3.463 3.316 C 1.213 3.691 -0.502 5.646 -0.502 8.003 L 0 8.003 Z" fill="currentColor" fill-rule="nonzero"></path>
</svg>