<svg xmlns="http://www.w3.org/2000/svg" width="14.167" height="14.167" viewBox="0 0 14.167 14.167" fill="none">
  <path d="M 0 0 L 0 -0.6 L -0.6 -0.6 L -0.6 0 L 0 0 Z M 0 14.167 L -0.6 14.167 L -0.6 14.767 L 0 14.767 L 0 14.167 Z M 14.167 14.167 L 14.167 14.767 L 14.767 14.767 L 14.767 14.167 L 14.167 14.167 Z M 7.658 0 L 7.658 -0.6 L 0 -0.6 L 0 0 L 0 0.6 L 7.658 0.6 L 7.658 0 Z M 0 0 L -0.6 0 L -0.6 14.167 L 0 14.167 L 0.6 14.167 L 0.6 0 L 0 0 Z M 0 14.167 L 0 14.767 L 14.167 14.767 L 14.167 14.167 L 14.167 13.567 L 0 13.567 L 0 14.167 Z M 14.167 14.167 L 14.767 14.167 L 14.767 6.509 L 14.167 6.509 L 13.567 6.509 L 13.567 14.167 L 14.167 14.167 Z" fill="currentColor" fill-rule="nonzero"></path>
</svg>