<svg xmlns="http://www.w3.org/2000/svg" width="10" height="13.184" viewBox="0 0 10 13.184" fill="none">
  <path d="M 10 0 L 6.945 5.742 L 6.945 12.267 L 3.055 13.184 L 3.055 5.742 L 0 0 L 10 0 Z" fill="currentColor" fill-rule="evenodd"></path>
  <path d="M 10 0 L 10.883 0.47 C 11.048 0.16 11.038 -0.214 10.857 -0.515 C 10.676 -0.816 10.351 -1 10 -1 L 10 0 Z M 6.945 5.742 L 6.062 5.273 C 5.985 5.417 5.945 5.579 5.945 5.742 L 6.945 5.742 Z M 6.945 12.267 L 7.175 13.24 C 7.626 13.134 7.945 12.731 7.945 12.267 L 6.945 12.267 Z M 3.055 13.184 L 2.055 13.184 C 2.055 13.49 2.195 13.779 2.435 13.968 C 2.674 14.158 2.988 14.228 3.285 14.158 L 3.055 13.184 Z M 3.055 5.742 L 4.055 5.742 C 4.055 5.578 4.015 5.417 3.938 5.272 L 3.055 5.742 Z M 0 0 L 0 -1 C -0.351 -1 -0.676 -0.816 -0.857 -0.515 C -1.038 -0.214 -1.048 0.16 -0.883 0.47 L 0 0 Z M 10 0 L 9.117 -0.47 L 6.062 5.273 L 6.945 5.742 L 7.828 6.212 L 10.883 0.47 L 10 0 Z M 6.945 5.742 L 5.945 5.742 L 5.945 12.267 L 6.945 12.267 L 7.945 12.267 L 7.945 5.742 L 6.945 5.742 Z M 6.945 12.267 L 6.716 11.294 L 2.826 12.211 L 3.055 13.184 L 3.285 14.158 L 7.175 13.24 L 6.945 12.267 Z M 3.055 13.184 L 4.055 13.184 L 4.055 5.742 L 3.055 5.742 L 2.055 5.742 L 2.055 13.184 L 3.055 13.184 Z M 3.055 5.742 L 3.938 5.272 L 0.883 -0.47 L 0 0 L -0.883 0.47 L 2.173 6.212 L 3.055 5.742 Z M 0 0 L 0 1 L 10 1 L 10 0 L 10 -1 L 0 -1 L 0 0 Z" fill="currentColor" fill-rule="nonzero"></path>
</svg>