<svg xmlns="http://www.w3.org/2000/svg" width="15" height="15" viewBox="0 0 15 15" fill="none">
  <path d="M 13.228 13.228 L 13.652 12.803 L 12.803 11.955 L 12.379 12.379 L 12.803 12.803 L 13.228 13.228 Z M 12.803 2.197 L 12.379 2.621 L 12.379 2.621 L 12.803 2.197 Z M 14.551 4.982 L 14.95 5.43 L 15.847 4.634 L 15.449 4.185 L 15 4.583 L 14.551 4.982 Z M 12.803 12.803 L 12.379 12.379 C 11.13 13.628 9.406 14.4 7.5 14.4 L 7.5 15 L 7.5 15.6 C 9.737 15.6 11.762 14.693 13.228 13.228 L 12.803 12.803 Z M 7.5 15 L 7.5 14.4 C 3.689 14.4 0.6 11.311 0.6 7.5 L 0 7.5 L -0.6 7.5 C -0.6 11.973 3.027 15.6 7.5 15.6 L 7.5 15 Z M 0 7.5 L 0.6 7.5 C 0.6 3.689 3.689 0.6 7.5 0.6 L 7.5 0 L 7.5 -0.6 C 3.027 -0.6 -0.6 3.027 -0.6 7.5 L 0 7.5 Z M 7.5 0 L 7.5 0.6 C 9.406 0.6 11.13 1.372 12.379 2.621 L 12.803 2.197 L 13.228 1.772 C 11.762 0.307 9.737 -0.6 7.5 -0.6 L 7.5 0 Z M 12.803 2.197 L 12.379 2.621 C 12.713 2.954 13.252 3.541 13.716 4.052 C 13.947 4.306 14.155 4.539 14.307 4.708 C 14.383 4.792 14.444 4.861 14.486 4.908 C 14.507 4.932 14.524 4.95 14.535 4.963 C 14.54 4.969 14.544 4.974 14.547 4.977 C 14.549 4.979 14.55 4.98 14.55 4.981 C 14.551 4.981 14.551 4.981 14.551 4.981 C 14.551 4.982 14.551 4.982 14.551 4.982 C 14.551 4.982 14.551 4.982 14.551 4.982 C 14.551 4.982 14.551 4.982 15 4.583 C 15.449 4.185 15.449 4.185 15.449 4.185 C 15.449 4.185 15.449 4.185 15.449 4.185 C 15.449 4.185 15.448 4.185 15.448 4.185 C 15.448 4.184 15.448 4.184 15.447 4.184 C 15.447 4.183 15.446 4.182 15.444 4.18 C 15.441 4.177 15.437 4.172 15.431 4.165 C 15.42 4.153 15.403 4.134 15.382 4.11 C 15.339 4.062 15.277 3.993 15.201 3.907 C 15.048 3.737 14.838 3.502 14.605 3.246 C 14.144 2.737 13.585 2.13 13.228 1.772 L 12.803 2.197 Z" fill="currentColor" fill-rule="nonzero"></path>
</svg>