<svg xmlns="http://www.w3.org/2000/svg" width="16.667" height="14.167" viewBox="0 0 16.667 14.167" fill="none">
  <path d="M 12.5 14.167 L 12.5 14.767 L 12.843 14.767 L 13.017 14.471 L 12.5 14.167 Z M 16.667 7.083 L 17.184 7.388 L 17.363 7.083 L 17.184 6.779 L 16.667 7.083 Z M 12.5 0 L 13.017 -0.304 L 12.843 -0.6 L 12.5 -0.6 L 12.5 0 Z M 4.167 0 L 4.167 -0.6 L 3.824 -0.6 L 3.65 -0.304 L 4.167 0 Z M 0 7.083 L -0.517 6.779 L -0.696 7.083 L -0.517 7.388 L 0 7.083 Z M 4.167 14.167 L 3.65 14.471 L 3.824 14.767 L 4.167 14.767 L 4.167 14.167 Z M 12.5 14.167 L 13.017 14.471 L 17.184 7.388 L 16.667 7.083 L 16.15 6.779 L 11.983 13.862 L 12.5 14.167 Z M 16.667 7.083 L 17.184 6.779 L 13.017 -0.304 L 12.5 0 L 11.983 0.304 L 16.15 7.388 L 16.667 7.083 Z M 12.5 0 L 12.5 -0.6 L 4.167 -0.6 L 4.167 0 L 4.167 0.6 L 12.5 0.6 L 12.5 0 Z M 4.167 0 L 3.65 -0.304 L -0.517 6.779 L 0 7.083 L 0.517 7.388 L 4.684 0.304 L 4.167 0 Z M 0 7.083 L -0.517 7.388 L 3.65 14.471 L 4.167 14.167 L 4.684 13.862 L 0.517 6.779 L 0 7.083 Z M 4.167 14.167 L 4.167 14.767 L 12.5 14.767 L 12.5 14.167 L 12.5 13.567 L 4.167 13.567 L 4.167 14.167 Z" fill="currentColor" fill-rule="nonzero"></path>
</svg>