<svg xmlns="http://www.w3.org/2000/svg" width="4.167" height="4.167" viewBox="0 0 4.167 4.167" fill="none">
  <path d="M 2.083 4.167 L 2.083 4.767 C 3.565 4.767 4.767 3.565 4.767 2.083 L 4.167 2.083 L 3.567 2.083 C 3.567 2.903 2.903 3.567 2.083 3.567 L 2.083 4.167 Z M 4.167 2.083 L 4.767 2.083 C 4.767 0.601 3.565 -0.6 2.083 -0.6 L 2.083 0 L 2.083 0.6 C 2.903 0.6 3.567 1.264 3.567 2.083 L 4.167 2.083 Z M 2.083 0 L 2.083 -0.6 C 0.601 -0.6 -0.6 0.601 -0.6 2.083 L 0 2.083 L 0.6 2.083 C 0.6 1.264 1.264 0.6 2.083 0.6 L 2.083 0 Z M 0 2.083 L -0.6 2.083 C -0.6 3.565 0.601 4.767 2.083 4.767 L 2.083 4.167 L 2.083 3.567 C 1.264 3.567 0.6 2.903 0.6 2.083 L 0 2.083 Z" fill="currentColor" fill-rule="nonzero"></path>
</svg>