<svg xmlns="http://www.w3.org/2000/svg" width="14.577" height="14.583" viewBox="0 0 14.577 14.583" fill="none">
  <path d="M 13.605 0.977 C 12.31 -0.319 10.207 -0.319 8.911 0.977 L 5.986 3.901 C 5.755 4.133 5.755 4.505 5.986 4.733 C 6.217 4.964 6.59 4.964 6.818 4.733 L 9.743 1.808 C 10.578 0.973 11.937 0.973 12.772 1.808 C 13.175 2.212 13.4 2.751 13.4 3.322 C 13.4 3.895 13.177 4.432 12.772 4.836 L 9.849 7.76 C 9.618 7.992 9.618 8.364 9.849 8.592 C 9.963 8.706 10.114 8.763 10.265 8.763 C 10.417 8.763 10.566 8.706 10.682 8.592 L 13.607 5.667 C 14.901 4.375 14.901 2.269 13.605 0.977 Z M 5.085 3.534 C 5.409 3.535 5.672 3.271 5.672 2.946 L 5.671 0.588 C 5.672 0.264 5.409 0 5.083 0 C 4.759 -0.002 4.495 0.262 4.495 0.588 L 4.495 2.948 C 4.497 3.11 4.561 3.255 4.67 3.361 C 4.775 3.467 4.924 3.534 5.085 3.534 L 5.085 3.534 Z M 12.124 11.278 C 12.007 11.164 11.86 11.107 11.709 11.108 C 11.558 11.108 11.406 11.165 11.292 11.279 C 11.061 11.507 11.061 11.88 11.292 12.111 L 12.961 13.778 C 13.188 14.009 13.561 14.009 13.792 13.778 C 14.023 13.55 14.023 13.177 13.792 12.946 L 12.124 11.278 Z M 13.988 8.903 L 11.628 8.903 C 11.465 8.905 11.32 8.968 11.214 9.077 C 11.107 9.185 11.04 9.331 11.04 9.492 C 11.038 9.816 11.302 10.08 11.628 10.08 L 13.986 10.078 C 14.31 10.08 14.574 9.816 14.574 9.491 C 14.577 9.167 14.313 8.903 13.988 8.903 Z M 9.497 11.05 C 9.173 11.048 8.91 11.312 8.91 11.637 L 8.911 13.996 C 8.91 14.32 9.173 14.583 9.499 14.583 C 9.823 14.585 10.086 14.321 10.086 13.996 L 10.086 11.636 C 10.085 11.473 10.021 11.328 9.912 11.222 C 9.806 11.117 9.658 11.05 9.497 11.05 Z M 7.757 9.852 L 4.834 12.777 C 4.43 13.18 3.892 13.405 3.32 13.405 C 2.747 13.405 2.21 13.182 1.807 12.777 C 1.403 12.371 1.177 11.834 1.177 11.263 C 1.177 10.69 1.4 10.153 1.805 9.749 L 4.73 6.825 C 4.961 6.593 4.961 6.221 4.73 5.993 C 4.499 5.762 4.126 5.762 3.898 5.993 L 0.973 8.914 C 0.345 9.543 0 10.376 0 11.261 C 0 12.147 0.345 12.982 0.973 13.607 C 1.621 14.255 2.471 14.578 3.319 14.578 C 4.168 14.578 5.02 14.255 5.664 13.607 L 8.59 10.684 C 8.822 10.452 8.822 10.08 8.59 9.852 C 8.359 9.622 7.988 9.622 7.757 9.852 L 7.757 9.852 Z M 2.458 3.306 C 2.575 3.42 2.721 3.477 2.873 3.475 C 3.024 3.475 3.175 3.418 3.289 3.304 C 3.521 3.076 3.521 2.703 3.289 2.472 L 1.621 0.807 C 1.393 0.576 1.021 0.576 0.789 0.807 C 0.558 1.035 0.558 1.408 0.789 1.639 L 2.458 3.306 L 2.458 3.306 Z M 0.594 5.682 L 2.954 5.682 C 3.117 5.68 3.262 5.617 3.368 5.508 C 3.475 5.4 3.542 5.254 3.542 5.093 C 3.543 4.769 3.28 4.505 2.954 4.505 L 0.596 4.507 C 0.272 4.505 0.008 4.769 0.008 5.094 C 0.003 5.418 0.267 5.682 0.594 5.682 Z" fill="currentColor" fill-rule="evenodd"></path>
</svg>