<svg xmlns="http://www.w3.org/2000/svg" width="16.199" height="16.199" viewBox="0 0 16.199 16.199" fill="none">
  <path d="M 11.229 0.479 L 11.59 2.25 L 16.199 2.25 L 16.199 3.449 L 14.324 3.449 L 14.324 16.199 L 1.875 16.199 L 1.875 3.449 L 0 3.449 L 0 2.25 L 4.614 2.25 L 4.996 0.474 L 5.099 0 L 11.131 0 L 11.229 0.479 Z M 3.074 15 L 13.125 15 L 13.125 3.449 L 3.074 3.449 L 3.074 15 Z M 7.199 12.074 L 6 12.074 L 6 6 L 7.199 6 L 7.199 12.074 Z M 10.199 12.074 L 9 12.074 L 9 6 L 10.199 6 L 10.199 12.074 Z M 5.843 2.25 L 10.365 2.25 L 10.15 1.199 L 6.068 1.199 L 5.843 2.25 Z" fill="currentColor" fill-rule="nonzero"></path>
</svg>