<svg xmlns="http://www.w3.org/2000/svg" width="42" height="12" fill="none" viewBox="0 0 42 12">
  <path fill="#000" d="M1.626 8.814V1.158L0 2.136v-.99L1.626.174h.894v8.64h-.894Zm6.092.18c-.54 0-1.032-.13-1.476-.39a3.002 3.002 0 0 1-1.056-1.068 3 3 0 0 1-.39-1.524V3.018c0-.58.13-1.096.39-1.548.26-.456.614-.814 1.062-1.074A2.989 2.989 0 0 1 7.784 0c.492 0 .948.108 1.368.324.424.216.77.518 1.038.906l-.678.558A2.054 2.054 0 0 0 7.784.84c-.404 0-.764.098-1.08.294A2.123 2.123 0 0 0 5.69 2.94v1.884l-.222-.252c.252-.396.582-.716.99-.96a2.59 2.59 0 0 1 1.344-.366 2.819 2.819 0 0 1 2.844 2.862c0 .532-.134 1.016-.402 1.452a2.985 2.985 0 0 1-1.062 1.044c-.44.26-.928.39-1.464.39Zm0-.858c.376 0 .718-.09 1.026-.27.312-.18.558-.424.738-.732.184-.308.276-.65.276-1.026s-.092-.718-.276-1.026a1.994 1.994 0 0 0-.732-.738 1.963 1.963 0 0 0-1.026-.276c-.376 0-.718.092-1.026.276a2.04 2.04 0 0 0-.738.738c-.18.308-.27.65-.27 1.026 0 .372.09.712.27 1.02a1.996 1.996 0 0 0 1.758 1.008ZM12.95 4.14l-.66-.48.948-1.224-1.482-.45.252-.774 1.458.516L13.43.174h.816l-.036 1.554 1.452-.516.252.774-1.476.45.936 1.224-.66.48-.876-1.272-.888 1.272Zm6.03 4.674V1.158l-1.626.978v-.99l1.627-.972h.893v8.64h-.893Zm6.092.18c-.54 0-1.032-.13-1.476-.39a3.002 3.002 0 0 1-1.056-1.068 3 3 0 0 1-.39-1.524V3.018c0-.58.13-1.096.39-1.548.26-.456.614-.814 1.062-1.074A2.989 2.989 0 0 1 25.14 0c.492 0 .948.108 1.368.324.424.216.77.518 1.038.906l-.678.558A2.054 2.054 0 0 0 25.14.84c-.404 0-.764.098-1.08.294a2.123 2.123 0 0 0-1.014 1.806v1.884l-.222-.252c.252-.396.582-.716.99-.96a2.59 2.59 0 0 1 1.344-.366 2.819 2.819 0 0 1 2.844 2.862c0 .532-.134 1.016-.402 1.452a2.984 2.984 0 0 1-1.062 1.044c-.44.26-.928.39-1.464.39Zm0-.858c.376 0 .718-.09 1.026-.27.312-.18.558-.424.738-.732.184-.308.276-.65.276-1.026s-.092-.718-.276-1.026a1.994 1.994 0 0 0-.732-.738 1.963 1.963 0 0 0-1.026-.276c-.376 0-.718.092-1.026.276a2.04 2.04 0 0 0-.738.738c-.18.308-.27.65-.27 1.026 0 .372.09.712.27 1.02a1.996 1.996 0 0 0 1.758 1.008Zm7.43.858c-.596 0-1.1-.15-1.512-.45a2.822 2.822 0 0 1-.936-1.23 4.587 4.587 0 0 1-.318-1.746c0-.656.106-1.24.318-1.752.216-.516.532-.922.948-1.218.416-.296.928-.444 1.536-.444.592 0 1.1.15 1.524.45.424.3.748.708.972 1.224.228.516.342 1.096.342 1.74 0 .648-.114 1.23-.342 1.746a2.919 2.919 0 0 1-.984 1.23c-.428.3-.944.45-1.548.45Zm-2.916 2.7v-9.36h.792v4.878h.096v4.482h-.888Zm2.826-3.522c.452 0 .828-.114 1.128-.342.3-.228.524-.538.672-.93.152-.396.228-.84.228-1.332 0-.488-.074-.928-.222-1.32a2.023 2.023 0 0 0-.678-.93c-.3-.228-.682-.342-1.146-.342-.452 0-.828.11-1.128.33-.296.22-.518.526-.666.918-.148.388-.222.836-.222 1.344 0 .5.074.948.222 1.344.148.392.372.7.672.924.3.224.68.336 1.14.336Zm3.444.642 2.532-3.276-2.478-3.204h1.056l1.938 2.526 1.92-2.526h1.056l-2.478 3.204 2.538 3.276h-1.062l-1.974-2.598-1.986 2.598h-1.062Z"></path>
</svg>