<svg xmlns="http://www.w3.org/2000/svg" width="46" height="12" fill="none" viewBox="0 0 46 12">
  <path fill="#000" d="m0 8.814.006-.804 3.906-3.528c.336-.304.558-.592.666-.864.112-.276.168-.564.168-.864a1.882 1.882 0 0 0-.93-1.65 1.805 1.805 0 0 0-.954-.258c-.368 0-.696.088-.984.264a1.965 1.965 0 0 0-.684.696 1.826 1.826 0 0 0-.24.942h-.9a2.7 2.7 0 0 1 .372-1.41A2.659 2.659 0 0 1 1.434.36C1.858.12 2.338 0 2.874 0a2.7 2.7 0 0 1 1.41.372c.42.244.75.576.99.996A2.7 2.7 0 0 1 5.64 2.76c0 .36-.044.678-.132.954a2.37 2.37 0 0 1-.402.762c-.18.232-.41.472-.69.72L.948 8.328l-.138-.36h4.83v.846H0Zm10.653.006V7.146H6.61v-.84L9.501.18h.99L7.6 6.306h3.054v-2.52h.888v2.52h.942v.84h-.942V8.82h-.888Zm3.989-4.674-.66-.48.948-1.224-1.482-.45.252-.774 1.458.516L15.12.18h.816l-.035 1.554 1.452-.516.252.774-1.477.45.936 1.224-.66.48-.876-1.272-.887 1.272Zm4.284 4.668.006-.804 3.906-3.528c.336-.304.558-.592.666-.864.112-.276.168-.564.168-.864a1.882 1.882 0 0 0-.93-1.65 1.805 1.805 0 0 0-.954-.258c-.368 0-.696.088-.984.264a1.965 1.965 0 0 0-.684.696 1.826 1.826 0 0 0-.24.942h-.9a2.7 2.7 0 0 1 .372-1.41A2.659 2.659 0 0 1 20.36.36c.424-.24.904-.36 1.44-.36a2.7 2.7 0 0 1 1.41.372c.42.244.75.576.99.996a2.7 2.7 0 0 1 .366 1.392c0 .36-.044.678-.132.954a2.37 2.37 0 0 1-.402.762c-.18.232-.41.472-.69.72l-3.468 3.132-.138-.36h4.83v.846h-5.64Zm10.653.006V7.146h-4.044v-.84L28.427.18h.99l-2.892 6.126h3.054v-2.52h.888v2.52h.942v.84h-.942V8.82h-.888Zm6.184.18c-.596 0-1.1-.15-1.512-.45a2.822 2.822 0 0 1-.936-1.23 4.587 4.587 0 0 1-.318-1.746c0-.656.106-1.24.318-1.752.216-.516.532-.922.948-1.218.416-.296.928-.444 1.536-.444.592 0 1.1.15 1.524.45.424.3.748.708.972 1.224.228.516.342 1.096.342 1.74 0 .648-.114 1.23-.342 1.746a2.919 2.919 0 0 1-.984 1.23c-.428.3-.944.45-1.548.45Zm-2.916 2.7V2.34h.792v4.878h.096V11.7h-.888Zm2.826-3.522c.452 0 .828-.114 1.128-.342.3-.228.524-.538.672-.93.152-.396.228-.84.228-1.332 0-.488-.074-.928-.222-1.32a2.023 2.023 0 0 0-.678-.93c-.3-.228-.682-.342-1.146-.342-.452 0-.828.11-1.128.33-.296.22-.518.526-.666.918-.148.388-.222.836-.222 1.344 0 .5.074.948.222 1.344.148.392.372.7.672.924.3.224.68.336 1.14.336Zm3.445.642 2.532-3.276-2.478-3.204h1.056l1.938 2.526 1.92-2.526h1.056l-2.478 3.204 2.538 3.276H44.14l-1.974-2.598L40.18 8.82h-1.062Z"></path>
</svg>