<svg xmlns="http://www.w3.org/2000/svg" width="45" height="12" fill="none" viewBox="0 0 45 12">
  <path fill="#000" d="M2.682 8.994c-.428 0-.822-.076-1.182-.228a2.67 2.67 0 0 1-.93-.648A2.61 2.61 0 0 1 0 7.104l.84-.252c.144.428.38.752.708.972.332.22.706.326 1.122.318.384-.008.714-.094.99-.258a1.63 1.63 0 0 0 .642-.684c.148-.292.222-.63.222-1.014 0-.588-.172-1.06-.516-1.416-.34-.36-.79-.54-1.35-.54-.156 0-.32.022-.492.066-.172.04-.332.098-.48.174l-.444-.702L4.602.666l.144.36H.342V.18h4.992v.858L2.406 3.834l-.012-.348c.6-.076 1.128-.008 1.584.204.456.212.812.536 1.068.972.26.432.39.94.39 1.524 0 .552-.12 1.04-.36 1.464-.236.42-.562.75-.978.99a2.819 2.819 0 0 1-1.416.354Zm4.07-.18.007-.804 3.906-3.528c.336-.304.558-.592.666-.864.112-.276.168-.564.168-.864a1.882 1.882 0 0 0-.93-1.65 1.805 1.805 0 0 0-.954-.258c-.368 0-.696.088-.984.264a1.965 1.965 0 0 0-.684.696 1.826 1.826 0 0 0-.24.942h-.9a2.7 2.7 0 0 1 .372-1.41A2.659 2.659 0 0 1 8.187.36C8.61.12 9.09 0 9.627 0a2.7 2.7 0 0 1 1.41.372c.42.244.75.576.99.996a2.7 2.7 0 0 1 .366 1.392c0 .36-.044.678-.132.954a2.37 2.37 0 0 1-.402.762c-.18.232-.41.472-.69.72L7.7 8.328l-.138-.36h4.83v.846h-5.64Zm7.799-4.668-.66-.48.948-1.224-1.482-.45.252-.774 1.458.516L15.03.18h.816l-.036 1.554 1.452-.516.252.774-1.476.45.936 1.224-.66.48-.876-1.272-.888 1.272Zm6.846 4.848c-.428 0-.822-.076-1.182-.228a2.67 2.67 0 0 1-.93-.648 2.61 2.61 0 0 1-.57-1.014l.84-.252c.144.428.38.752.708.972.332.22.706.326 1.122.318.384-.008.714-.094.99-.258a1.63 1.63 0 0 0 .642-.684c.148-.292.222-.63.222-1.014 0-.588-.172-1.06-.516-1.416-.34-.36-.79-.54-1.35-.54-.156 0-.32.022-.492.066-.172.04-.332.098-.48.174l-.444-.702 3.36-3.102.144.36h-4.404V.18h4.992v.858L21.12 3.834l-.012-.348c.6-.076 1.128-.008 1.584.204.456.212.812.536 1.068.972.26.432.39.94.39 1.524 0 .552-.12 1.04-.36 1.464-.236.42-.562.75-.978.99a2.819 2.819 0 0 1-1.416.354Zm4.07-.18.007-.804 3.906-3.528c.336-.304.558-.592.666-.864.112-.276.168-.564.168-.864a1.882 1.882 0 0 0-.93-1.65 1.805 1.805 0 0 0-.954-.258c-.368 0-.696.088-.984.264a1.965 1.965 0 0 0-.684.696 1.826 1.826 0 0 0-.24.942h-.9a2.7 2.7 0 0 1 .372-1.41A2.659 2.659 0 0 1 26.902.36c.424-.24.904-.36 1.44-.36a2.7 2.7 0 0 1 1.41.372c.42.244.75.576.99.996a2.7 2.7 0 0 1 .366 1.392c0 .36-.044.678-.132.954a2.37 2.37 0 0 1-.402.762c-.18.232-.41.472-.69.72l-3.468 3.132-.138-.36h4.83v.846h-5.64ZM35.462 9c-.596 0-1.1-.15-1.512-.45a2.822 2.822 0 0 1-.936-1.23 4.587 4.587 0 0 1-.318-1.746c0-.656.106-1.24.318-1.752.216-.516.532-.922.948-1.218.416-.296.928-.444 1.536-.444.592 0 1.1.15 1.524.45.424.3.748.708.972 1.224.228.516.342 1.096.342 1.74 0 .648-.114 1.23-.342 1.746a2.919 2.919 0 0 1-.984 1.23c-.428.3-.944.45-1.548.45Zm-2.916 2.7V2.34h.792v4.878h.096V11.7h-.888Zm2.826-3.522c.452 0 .828-.114 1.128-.342.3-.228.524-.538.672-.93.152-.396.228-.84.228-1.332 0-.488-.074-.928-.222-1.32a2.023 2.023 0 0 0-.678-.93c-.3-.228-.682-.342-1.146-.342-.452 0-.828.11-1.128.33-.296.22-.518.526-.666.918-.148.388-.222.836-.222 1.344 0 .5.074.948.222 1.344.148.392.372.7.672.924.3.224.68.336 1.14.336Zm3.445.642 2.532-3.276L38.87 2.34h1.056l1.938 2.526 1.92-2.526h1.056l-2.478 3.204L44.9 8.82h-1.062l-1.974-2.598-1.986 2.598h-1.062Z"></path>
</svg>