<svg xmlns="http://www.w3.org/2000/svg" width="20" height="20" fill="none" viewBox="0 0 20 20">
  <path stroke="#374FD5" stroke-linecap="round" stroke-linejoin="round" stroke-width="1.2" d="M9.865 3.05v1.108m4.39.489-.712.849m3.047 3.197-1.09.192M3.138 8.693l1.091.192m1.246-4.238.712.849"></path>
  <path fill="#374FD5" d="M9.865 6.142a4.29 4.29 0 0 1 4.292 4.29v5.308h2.723a.6.6 0 0 1 0 1.2H3.22a.6.6 0 1 1 0-1.2h2.354v-5.307a4.29 4.29 0 0 1 4.291-4.291Zm0 1.199a3.093 3.093 0 0 0-3.092 3.092v5.306h6.184v-5.306A3.092 3.092 0 0 0 9.865 7.34Z"></path>
</svg>