<svg xmlns="http://www.w3.org/2000/svg" width="20" height="20" fill="none" viewBox="0 0 20 20">
  <path stroke="#374FD5" stroke-linecap="round" stroke-linejoin="round" d="M10.078 5v.783m3.105.347-.504.6m2.156 2.26-.772.137M5.32 8.99l.772.137m.881-2.997.503.6"></path>
  <path fill="#374FD5" d="M10.08 7.11a3.112 3.112 0 0 1 3.11 3.111V13.9h1.849a.5.5 0 0 1 0 1H5.378a.5.5 0 0 1 0-1h1.59v-3.679a3.112 3.112 0 0 1 3.111-3.111Zm0 1a2.112 2.112 0 0 0-2.112 2.111v3.677h4.221v-3.677a2.112 2.112 0 0 0-2.11-2.111Z"></path>
</svg>