<svg xmlns="http://www.w3.org/2000/svg" width="1252" height="56" fill="none" viewBox="0 0 1252 56">
  <rect width="1251" height="55" x=".5" y=".5" stroke="#9747FF" stroke-dasharray="10 5" rx="4.5"></rect>
  <path fill="#999" d="M28 20.5a7.5 7.5 0 1 1 0 15 7.5 7.5 0 0 1 0-15Zm0 1a6.5 6.5 0 1 0 0 13 6.5 6.5 0 0 0 0-13Zm-.161 9.026h-.951l-.382-1.197h-2.177l-.377 1.197H23L24.742 25h1.355l1.742 5.526Zm2.73-5.522c.137.002.27.011.398.026.437.057.807.213 1.11.469.303.253.534.577.69.97.156.395.234.826.234 1.294 0 .468-.078.9-.234 1.294a2.405 2.405 0 0 1-.69.974 2.101 2.101 0 0 1-1.11.464 3.848 3.848 0 0 1-.395.027c-.137.003-.23.004-.276.004h-1.762V25h1.762c.046 0 .137.001.272.004Zm-1.094 4.651h.82c.077 0 .174-.002.292-.008.12-.005.226-.016.318-.034a1.09 1.09 0 0 0 .638-.35c.164-.184.284-.408.36-.671.08-.264.12-.54.12-.83 0-.299-.04-.58-.12-.843a1.664 1.664 0 0 0-.368-.664 1.109 1.109 0 0 0-.63-.342 1.65 1.65 0 0 0-.318-.034 6.975 6.975 0 0 0-.291-.008h-.821v3.784Zm-4.873-1.19h1.628l-.82-2.57-.808 2.57Zm29.652-7.894 6 3.53.246.144v7.631l-.246.146-6 3.529-.254.148-.254-.148-6-3.53-.246-.145v-7.63l.246-.145 6-3.53.254-.15.254.15ZM48.5 24.816v6.488l5.5 3.235 5.5-3.235v-6.488L54 21.581l-5.5 3.235Zm8.322 1.48.265.424-2.587 1.617v2.902h-1v-2.9l-2.589-1.62.531-.847 2.555 1.6 2.56-1.6.265.424ZM80 20.5a7.5 7.5 0 0 1 3.731 14.005H87v1h-7v-.006A7.5 7.5 0 1 1 80 20.5Zm0 1a6.5 6.5 0 1 0 0 13 6.5 6.5 0 0 0 0-13Zm-.001 7.901a1.75 1.75 0 1 1 0 3.5 1.75 1.75 0 0 1 0-3.5Zm0 1a.75.75 0 1 0 0 1.5.75.75 0 0 0 0-1.5Zm-3.148-4.148a1.75 1.75 0 1 1 0 3.5 1.75 1.75 0 0 1 0-3.5Zm6.296 0a1.75 1.75 0 1 1 0 3.5 1.75 1.75 0 0 1 0-3.5Zm-6.296 1a.75.75 0 1 0 0 1.5.75.75 0 0 0 0-1.5Zm6.296 0a.75.75 0 1 0 .001 1.5.75.75 0 0 0 0-1.5ZM80 23.105a1.75 1.75 0 1 1 0 3.5 1.75 1.75 0 0 1 0-3.5Zm0 1a.75.75 0 1 0 0 1.5.75.75 0 0 0 0-1.5Zm30.382 6.863h-.5v-.494l-.001.5h-7.765a1.617 1.617 0 0 0 0 3.235h9.383V22.003h1v13.206h-10.383a2.618 2.618 0 0 1-2.617-2.618v-9.182h1v7.121a2.606 2.606 0 0 1 1.617-.562h7.266V21.79h-7.266c-.893 0-1.617.724-1.617 1.617h-1a2.618 2.618 0 0 1 2.617-2.617h8.266v10.177Zm-.852 2.123h-7.058v-1h7.058v1Zm22.469-12.588a7.498 7.498 0 0 1 6.697 4.126c.006.01.013.02.018.032a7.5 7.5 0 0 1-9.358 10.361l-.018-.007a7.5 7.5 0 0 1 2.661-14.512Zm2.509 4.85a3.641 3.641 0 0 1 1.141 2.65 3.643 3.643 0 0 1-1.368 2.847l-3.752 3.483a6.5 6.5 0 0 0 7.406-8.98h-3.427Zm-8.676.595a6.5 6.5 0 0 0 3.609 8.031l2.507-2.328a3.644 3.644 0 0 1-2.759-1.319.56.56 0 0 1-.082-.083l-3.275-4.3Zm6.167-.596a2.65 2.65 0 1 0 0 5.3 2.65 2.65 0 0 0 0-5.3Zm0-3.85a6.5 6.5 0 0 0-5.712 3.393l2.081 2.733a3.651 3.651 0 0 1 3.631-3.276h5.378a6.494 6.494 0 0 0-5.378-2.85Zm27.282 7.337c.12-.092.246-.176.376-.253v-2.243h3.753v2.243a3.71 3.71 0 0 1-1.876 6.914 3.703 3.703 0 0 1-2.753-1.222v.054h-3.253v-7.99h3.753v2.497Zm2.253.238a2.713 2.713 0 0 0 0 5.423 2.712 2.712 0 0 0 0-5.423Zm-6.383 5.255h-3.753v-7.99h3.753v7.99Zm8.112-3.165-1.89 1.89-.351.35-.353-.346-1.066-1.047.35-.357.351-.357.712.699 1.54-1.539.707.707Zm-10.865 2.165h1.753v-5.99h-1.753v5.99Zm4.13 0h1.63a3.699 3.699 0 0 1-.336-1.543c0-.662.173-1.282.477-1.82h-.018v-2.626h-1.753v5.989Zm4.129-5.15a3.727 3.727 0 0 1 1.753 0v-.84h-1.753v.84Zm-2.926-7.56 4.768 4.14 1.011.878h-12.212l1.011-.877 4.767-4.14.328-.285.327.284Zm-3.756 4.018h6.858l-3.43-2.978-3.428 2.978ZM191 34.331h-14v-5.667h14v5.667Zm-13-1h12v-3.667h-12v3.667ZM183.052 32h-3.333v-1h3.333v1ZM191 27.331h-14v-5.667h14v5.667Zm-13-1h12v-3.667h-12v3.667ZM183.052 25h-3.333v-1h3.333v1Zm24.88 3.309c1.483 0 2.826.623 3.806 1.632a4.121 4.121 0 0 1 6.263 3.519v.5h-4.64l.001.038h-10.861c0-3.142 2.431-5.69 5.431-5.69Zm0 1c-2.09 0-3.893 1.553-4.329 3.689h6.657v-.038h1.993c-.45-2.117-2.244-3.651-4.321-3.651Zm5.948 1.03a3.1 3.1 0 0 0-1.506.39c.44.655.752 1.412.897 2.231h3.689a3.121 3.121 0 0 0-3.08-2.62Zm.182-5.05a1.812 1.812 0 0 1 1.626 1.8l-.009.184a1.81 1.81 0 0 1-1.801 1.625l-.186-.008a1.812 1.812 0 0 1-1.615-1.617l-.01-.184c.001-1 .811-1.81 1.811-1.81l.184.01Zm-.184.99a.812.812 0 0 0-.811.81.812.812 0 0 0 1.621 0 .812.812 0 0 0-.81-.81Zm-5.655-4.158a2.845 2.845 0 0 1 2.553 2.83l-.014.291a2.846 2.846 0 0 1-2.83 2.554l-.291-.015a2.846 2.846 0 0 1-2.539-2.539l-.015-.29a2.845 2.845 0 0 1 2.845-2.846l.291.015Zm-.291.985a1.845 1.845 0 1 0 0 3.69 1.845 1.845 0 0 0 0-3.69ZM232.75 33.5h-3.5v-6h3.5v6Zm5 0h-3.5v-9h3.5v9Zm5 0h-3.5v-12h3.5v12Zm-12.5-1h1.5v-4h-1.5v4Zm5 0h1.5v-7h-1.5v7Zm5 0h1.5v-10h-1.5v10ZM263.873 21c.865 0 1.682.214 2.398.594l.597.317-3.059 3.06 1.22 1.22 3.06-3.06.317.599a5.127 5.127 0 0 1-6.593 7.092l-4.385 4.385-2.635-2.635.353-.353 4.032-4.034A5.127 5.127 0 0 1 263.873 21Zm0 1a4.127 4.127 0 0 0-3.649 6.057l.172.326-.261.26-3.929 3.928 1.222 1.222 3.928-3.928.261-.261.326.172a4.127 4.127 0 0 0 5.851-4.937l-2.411 2.413-.354.354-2.634-2.635.353-.354 2.411-2.412a4.116 4.116 0 0 0-1.286-.205Zm24.271-1.48 5.997 1.752.359.105v3.968a9.272 9.272 0 0 1-6.341 8.797l-.158.052-.158-.052a9.274 9.274 0 0 1-6.343-8.8v-3.965l.36-.105 6.002-1.752.141-.04.141.04Zm-5.644 2.606v3.217a8.271 8.271 0 0 0 5.501 7.793 8.27 8.27 0 0 0 5.499-7.791v-3.219l-5.498-1.607-5.502 1.607Zm8.876 2.001.353.354-4.471 4.471-.354-.34-1.883-1.81.694-.72 1.528 1.469 3.778-3.778.355.354Zm22.539-4.205c2.233 0 4.009 1.83 4.238 4.106h2.848l-.094.58-1.436 8.895-.068.42h-10.978l-.068-.42-1.436-8.895-.094-.58h2.851c.229-2.276 2.004-4.106 4.237-4.106Zm-4.639 13h9.276l1.275-7.894h-11.826l1.275 7.895Zm7.384-3.063-.278.417v.001l-.002.002-.003.005a.434.434 0 0 0-.011.016l-.034.045a3.122 3.122 0 0 1-.578.566 3.036 3.036 0 0 1-1.84.613 3.035 3.035 0 0 1-1.84-.613 3.17 3.17 0 0 1-.578-.566l-.034-.045-.011-.016-.003-.005-.002-.002-.001-.002-.277-.416.832-.554.277.416.014.018a2.132 2.132 0 0 0 .384.372c.277.208.688.413 1.239.413.551 0 .962-.205 1.239-.413a2.132 2.132 0 0 0 .384-.372l.014-.02.277-.414.832.554Zm-5.141-2.937a.685.685 0 1 1-.002 1.37.685.685 0 0 1 .002-1.37Zm4.792 0a.684.684 0 1 1-.002 1.368.684.684 0 0 1 .002-1.368Zm-2.396-6c-1.615 0-3.009 1.321-3.23 3.106h6.462c-.221-1.785-1.617-3.106-3.232-3.106Zm26.309-.369 7.894 3.947-.633.316v3.752h-1v-3.252l-1.985.993v4.949l-.123.141-.003.003-.005.006-.018.02-.066.071a7.411 7.411 0 0 1-1.134.95c-.755.513-1.853 1.051-3.151 1.051-1.298 0-2.396-.538-3.151-1.05a7.411 7.411 0 0 1-1.134-.951l-.066-.07-.018-.02-.005-.007-.003-.003-.123-.141v-4.95l-3.618-1.808 7.894-3.947.224-.112.224.112Zm0 7.894-.224.112-.224-.112-3.276-1.638v4.06a6.474 6.474 0 0 0 .91.753c.664.452 1.567.878 2.59.878s1.926-.426 2.59-.878c.329-.224.591-.448.77-.615.056-.052.102-.1.14-.138v-4.06l-3.276 1.638Zm-6.106-3.947L340 28.44l5.882-2.94L340 22.559l-5.882 2.941Zm31.88-4.67c1.993 0 3.834 1.275 3.834 3.093v2.244h2.668v9h-13v-9h2.665v-2.244c0-1.818 1.84-3.093 3.833-3.093ZM360.5 34.167h11v-7h-11v7Zm6-2h-1v-3h1v3Zm-.502-10.337c-1.689 0-2.833 1.047-2.833 2.093v2.244h5.667v-2.244c0-1.046-1.145-2.093-2.834-2.093Zm26.831-.557.279 2.227h5.391v11.667h-7.167a.5.5 0 0 1-.495-.439l-.278-2.225H385.5V20.836h7.274l.055.437Zm.612 4.899h1.555v1h-1.43l.208 1.664h1.225v1h-1.1l.264 2.104v.015l.026.205-.129.148c-.007.008-.011.018-.018.026-.007.008-.015.013-.022.02l-1.586 1.813h5.065V24.5h-4.266l.208 1.672Zm-1.751 7.325.871-.994h-.995l.124.994Zm-5.19-1.994h6.599l-.263-2.108-.333-2.666-.334-2.666-.07-.563h.002l-.209-1.664H386.5v9.667Zm4.5-1.667h-3v-1h3v1Zm-.333-2.664H388v-1h2.667v1Zm-.334-2.672H388v-1h2.333v1Zm35.167 9.836h-15V21.669h15v12.667Zm-14-1h13V22.669h-13v10.667Zm9.417-7.583a2.25 2.25 0 0 1-.001 4.5h-5.833l-.229-.012a2.25 2.25 0 1 1 2.1-.988h2.092a2.25 2.25 0 0 1 1.871-3.5Zm-5.834 1a1.25 1.25 0 1 0 0 2.5 1.25 1.25 0 0 0 0-2.5Zm5.834 0a1.25 1.25 0 1 0 0 2.5 1.25 1.25 0 0 0 0-2.5ZM444 20.5a7.5 7.5 0 1 1 0 15 7.5 7.5 0 0 1 0-15Zm0 1a6.5 6.5 0 1 0 0 13 6.5 6.5 0 0 0 0-13Zm-3.1 5.5a.9.9 0 1 1-.001 1.801A.9.9 0 0 1 440.9 27Zm3 0a.9.9 0 1 1-.001 1.801A.9.9 0 0 1 443.9 27Zm3 0a.9.9 0 1 1-.001 1.801A.9.9 0 0 1 446.9 27Zm30.1 8h-14V21h14v14Zm-13-1h12V22h-2.5v1.5a3.5 3.5 0 1 1-7 0V22H464v12Zm3.5-10.5a2.5 2.5 0 1 0 5 0V22h-5v1.5Zm28.5-3a7.5 7.5 0 1 1 0 15 7.5 7.5 0 0 1 0-15Zm0 1a6.5 6.5 0 1 0 0 13 6.5 6.5 0 0 0 0-13Zm-.528 3.5c.356 0 .671.068.943.204.275.134.489.322.644.566.157.243.235.529.235.856 0 .26-.05.492-.152.7a1.906 1.906 0 0 1-.283.404c.16.137.29.303.388.498.136.268.204.55.204.85 0 .35-.085.663-.255.938-.17.272-.404.487-.703.644a2.188 2.188 0 0 1-1.021.232c-.383 0-.723-.077-1.022-.232a1.803 1.803 0 0 1-.699-.644 1.772 1.772 0 0 1-.251-.939c0-.298.067-.58.2-.845.099-.192.23-.358.392-.5a2.176 2.176 0 0 1-.281-.407 1.488 1.488 0 0 1-.162-.699c0-.327.077-.613.232-.857a1.58 1.58 0 0 1 .644-.565 2.11 2.11 0 0 1 .947-.204Zm-2.82 5.781h-1.091v-4.493l-1.061.651v-1.177l1.061-.637h1.091v5.656Zm2.82-2.521c-.252 0-.454.071-.609.213-.154.138-.232.34-.232.604 0 .267.078.47.232.606.155.136.358.204.609.204s.456-.068.613-.204c.157-.137.235-.339.235-.606 0-.264-.078-.466-.235-.604-.157-.142-.362-.213-.613-.213Zm4.911-.737h1.351v.825h-1.351v1.359h-.824v-1.36h-1.36v-.824h1.36v-1.351h.824v1.351Zm-4.911-1.525a.763.763 0 0 0-.499.157c-.128.102-.193.26-.193.471 0 .212.064.37.193.472.128.1.294.149.499.15a.79.79 0 0 0 .499-.15c.128-.102.192-.26.192-.472 0-.212-.064-.369-.192-.47a.766.766 0 0 0-.499-.158ZM526 28.5a3 3 0 1 1 0 6h-8a3 3 0 1 1 0-6h8Zm-8 1a2 2 0 1 0 0 4h8a2 2 0 1 0 0-4h-8Zm.5 1a1 1 0 1 1 0 2 1 1 0 0 1 0-2Zm7.5-9a3 3 0 1 1 0 6h-8a3 3 0 1 1 0-6h8Zm-8 1a2 2 0 1 0 0 4h8a2 2 0 1 0 0-4h-8Zm7.5 1a1 1 0 1 1 0 2 1 1 0 0 1 0-2Zm21.35-2.69a6.1 6.1 0 0 1 4.905 9.725l3.82 3.275-.325.38-.325.38-3.83-3.283a6.08 6.08 0 0 1-4.245 1.723 6.1 6.1 0 0 1 0-12.2Zm0 1.102a5 5 0 1 0 0 10 5 5 0 0 0 0-10Zm.002 2.002a3 3 0 0 0-3 3h-1a4 4 0 0 1 4-4v1Zm26.482 11.083h-5.667v-14h5.667v14Zm7 0h-5.667v-14h5.667v14Zm-11.667-1h3.667v-12h-3.667v12Zm7 0h3.667v-12h-3.667v12Zm-4.664-1.719h-1v-1.333h1v1.333Zm7 0h-1v-1.333h1v1.333Zm21.999-11.975a6.1 6.1 0 0 1 2.477 11.673l-.484 3.397-.061.43h-3.868l-.061-.43-.486-3.4a6.1 6.1 0 0 1 2.483-11.67Zm-1.068 14.5h2.132l.382-2.674h-2.896l.382 2.674Zm1.068-13.5a5.099 5.099 0 0 0-1.911 9.826h3.822a5.1 5.1 0 0 0 3.189-4.727 5.101 5.101 0 0 0-5.1-5.1Zm-1.6 5.337 1.376-.688.224-.111.224.111 1.376.688v-1.29h1v2.909l-.724-.363-1.876-.938-1.876.939-.724.362v-2.91h1v1.29Zm27.725-6.14c4.068 0 7.373 3.273 7.373 7.32 0 4.045-3.305 7.32-7.373 7.32a7.382 7.382 0 0 1-3.366-.81l-3.61 1.147-.942.3.317-.937 1.167-3.444a7.259 7.259 0 0 1-.939-3.577c0-4.046 3.305-7.319 7.373-7.319Zm0 1c-3.523 0-6.373 2.833-6.373 6.32 0 1.193.334 2.309.914 3.261l.121.2-.075.221-.923 2.722 2.862-.91.204-.064.189.102a6.383 6.383 0 0 0 3.081.788c3.523 0 6.373-2.834 6.373-6.32 0-3.487-2.85-6.32-6.373-6.32Zm-3.19 2.782a.967.967 0 0 1 1.292-.066l.074.066 1.453 1.453a.968.968 0 0 1 .066 1.294l-.066.073-.246.246a.741.741 0 0 0 .026.09c.061.163.197.387.418.608.221.221.445.356.608.417a.807.807 0 0 0 .089.026l.246-.245.074-.066a.966.966 0 0 1 1.219 0l.075.066 1.453 1.453a.968.968 0 0 1 0 1.367h-.001l-.33.33c-.333.333-.761.523-1.244.585h-.001c-.117.014-.235.02-.353.02V32a3.75 3.75 0 0 1-1.053-.163c-.974-.287-1.966-.921-2.809-1.764-.843-.843-1.477-1.835-1.764-2.81-.143-.486-.198-.962-.142-1.406.062-.483.253-.91.585-1.244l.331-.33Zm.376 1.038c-.154.155-.262.369-.299.663-.035.278-.006.612.108.998.229.781.76 1.633 1.512 2.385.752.752 1.604 1.282 2.385 1.511.285.085.543.123.77.123h.001c.076 0 .151-.004.227-.014l.107-.017c.24-.048.42-.147.556-.283l.306-.306-1.405-1.405-.307.306a.787.787 0 0 1-.561.217 1.425 1.425 0 0 1-.498-.097 2.792 2.792 0 0 1-.968-.648 2.8 2.8 0 0 1-.648-.968 1.416 1.416 0 0 1-.098-.498.788.788 0 0 1 .218-.561l.306-.307-1.405-1.405-.307.306Zm28.686-4.817a7.5 7.5 0 0 1 0 15h-.001l-.001-.001a7.5 7.5 0 0 1 0-15h.002Zm1.98 10.686a17.547 17.547 0 0 1-3.963 0c.125.587.283 1.119.466 1.578.24.598.512 1.05.789 1.342.276.292.522.393.727.393.205 0 .451-.101.727-.393.277-.293.549-.744.789-1.342.183-.46.34-.991.465-1.579Zm-8.199-1.29a6.514 6.514 0 0 0 4.321 4.32 6.334 6.334 0 0 1-.547-1.08 11.223 11.223 0 0 1-.588-2.105 11.226 11.226 0 0 1-2.103-.588 6.431 6.431 0 0 1-1.083-.548Zm12.436 0a6.422 6.422 0 0 1-1.081.547c-.612.245-1.324.444-2.105.588a11.15 11.15 0 0 1-.588 2.105 6.406 6.406 0 0 1-.546 1.08 6.511 6.511 0 0 0 4.32-4.32Zm-6.217-4.197c-.758 0-1.484.052-2.158.143a16.332 16.332 0 0 0 0 4.314 16.307 16.307 0 0 0 4.314 0 16.332 16.332 0 0 0 0-4.314 16.31 16.31 0 0 0-2.156-.143Zm-3.187.317a9.79 9.79 0 0 0-1.577.467c-.598.24-1.049.512-1.342.79-.292.275-.394.521-.394.726 0 .205.102.45.394.727.293.277.744.55 1.342.789.459.183.99.34 1.577.465a17.298 17.298 0 0 1 0-3.963Zm6.373 0a17.583 17.583 0 0 1 0 3.964 9.796 9.796 0 0 0 1.578-.465c.598-.24 1.05-.512 1.342-.79.292-.275.394-.521.394-.726 0-.205-.102-.45-.394-.727-.292-.277-.744-.55-1.342-.789a9.793 9.793 0 0 0-1.578-.466Zm-5.083-4.235a6.513 6.513 0 0 0-4.322 4.322 6.446 6.446 0 0 1 1.083-.548 11.247 11.247 0 0 1 2.103-.588c.144-.78.343-1.491.588-2.103.159-.399.343-.765.548-1.083Zm3.793 0c.204.319.388.684.547 1.083.245.612.444 1.322.588 2.103.781.144 1.493.343 2.105.588.398.159.763.342 1.081.547a6.514 6.514 0 0 0-4.321-4.32Zm-1.898-.281c-.204 0-.45.102-.726.393-.276.293-.549.745-.789 1.343a9.82 9.82 0 0 0-.466 1.576 17.517 17.517 0 0 1 3.963 0 9.79 9.79 0 0 0-.465-1.576c-.24-.598-.512-1.05-.789-1.343-.276-.291-.522-.393-.727-.393h-.001ZM684 34.333h-2.374a.75.75 0 1 1-1.252 0h-4.751a.747.747 0 0 1-.625 1.162.75.75 0 0 1-.626-1.162H672V20.5h12v13.833Zm-11-1h10v-3.735h-10v3.735Zm2.498-2.697a.75.75 0 1 1 0 1.5.75.75 0 0 1 0-1.5Zm5.001 0a.75.75 0 1 1 0 1.5.75.75 0 0 1 0-1.5ZM673 28.598h4.5V24.25H673v4.348Zm5.5 0h4.5V24.25h-4.5v4.348ZM673 23.25h10V21.5h-10v1.75Zm37.999 9.077a3.5 3.5 0 0 1-3.5 3.5h-1.377v-2.034H697v-4.002h9.122v-2.427h4.877v4.963Zm-3.877-1.536H698v2.002h9.122v2.034h.377a2.5 2.5 0 0 0 2.5-2.5v-3.963h-2.877v2.427Zm-5.244-8.585H711v4.002h-9.122v2.427h-4.877v-4.963a3.5 3.5 0 0 1 3.5-3.5h1.377v2.034Zm-1.377-1.034a2.5 2.5 0 0 0-2.5 2.5v3.963h2.877v-2.427H710v-2.002h-9.122v-2.034h-.377Zm36.999 12.58h-5.607l-.147-.147L730 31.858l-1.746 1.747-.147.147H722.5v-9.4h15v9.4Zm-14-1h4.193l1.953-1.954.354-.354.354.354 1.953 1.954h4.193v-7.4h-13v7.4Zm3.002-5.604a1.9 1.9 0 1 1-.002 3.8 1.9 1.9 0 0 1 .002-3.8Zm7 0a1.9 1.9 0 1 1-.002 3.8 1.9 1.9 0 0 1 .002-3.8Zm-7 1a.9.9 0 1 0 0 1.801.9.9 0 0 0 0-1.8Zm7 0a.9.9 0 1 0 0 1.801.9.9 0 0 0 0-1.8Zm2.797-4.898h-12.6v-1h12.6v1Zm27.909 3.849-3.708 3.706-4.5 4.5-8.207-8.206L753 21.892l3 3 3.001-3 5.207 5.207Zm-15.001 0L756 33.892l.793-.795-.77-.77.707-.707.77.77.791-.791-.77-.77.708-.707.769.77.795-.794-2.292-2.292-2.173 2.172-.334-.2-1.875-1.126-.55-.329 2.724-2.724L753 23.306l-3.793 3.793Zm4.975 1.025.991.595 1.974-1.974.354-.353 3 3 2.293-2.293-3.793-3.793-4.819 4.818Z"></path>
  <path stroke="#999" stroke-linecap="square" d="m779.35 24.305-1.35 1.35 1.35 1.35"></path>
  <path fill="#999" d="M789.5 34.167h-15V21.5h15v12.667Zm-14-1h13V22.5h-13v10.667Zm11.209-3.013-.354.354-1.349 1.35-.354.354-.707-.707.849-.849H777.5v-1h7.297l-.852-.851.707-.707 2.057 2.056Zm-.209-3.998H778v-1h8.5v1Zm18-5.353c1.027 0 1.982.207 2.698.565.687.343 1.302.91 1.302 1.685v3.386c.098-.062.199-.12.302-.172.716-.358 1.671-.566 2.698-.566s1.982.207 2.698.566c.687.343 1.302.91 1.302 1.684v4.904c0 .774-.615 1.34-1.302 1.684-.716.358-1.671.566-2.698.566s-1.982-.208-2.698-.566a3.026 3.026 0 0 1-.802-.565 3.026 3.026 0 0 1-.802.565c-.716.358-1.671.566-2.698.566s-1.982-.208-2.698-.566c-.687-.343-1.302-.91-1.302-1.684v-9.802c0-.775.615-1.342 1.302-1.685.716-.358 1.671-.565 2.698-.565Zm3 11.111c-.098.062-.199.12-.302.172-.716.358-1.671.565-2.698.565s-1.982-.207-2.698-.565a3.606 3.606 0 0 1-.302-.172v.94c0 .192.169.5.749.79.55.276 1.345.46 2.251.46.906 0 1.701-.184 2.251-.46.58-.29.749-.598.749-.79v-.94Zm1 .94c0 .192.169.5.749.79.55.276 1.345.46 2.251.46.906 0 1.701-.184 2.251-.46.58-.29.749-.598.749-.79v-.94c-.098.062-.199.12-.302.172-.716.358-1.671.565-2.698.565s-1.982-.207-2.698-.565a3.606 3.606 0 0 1-.302-.172v.94Zm-1-3.385c-.098.061-.199.12-.302.172-.716.358-1.671.565-2.698.565s-1.982-.207-2.698-.565a3.606 3.606 0 0 1-.302-.172v.932c0 .192.169.5.749.79.55.276 1.345.46 2.251.46.906 0 1.701-.184 2.251-.46.58-.29.749-.598.749-.79v-.932Zm7-.005c-.098.062-.199.12-.302.172-.716.358-1.671.565-2.698.565s-1.982-.207-2.698-.565a3.606 3.606 0 0 1-.302-.172v.937c0 .192.169.5.749.79.55.276 1.345.46 2.251.46.906 0 1.701-.184 2.251-.46.58-.29.749-.598.749-.79v-.937Zm-7-2.448a3.58 3.58 0 0 1-.302.172c-.716.358-1.671.565-2.698.565s-1.982-.207-2.698-.566a3.58 3.58 0 0 1-.302-.171v.94c0 .192.169.5.749.79.55.275 1.345.46 2.251.46.906 0 1.701-.185 2.251-.46.58-.29.749-.598.749-.79v-.94Zm4-.315c-.906 0-1.701.185-2.251.46-.58.29-.749.598-.749.79 0 .192.169.5.749.79.55.275 1.345.46 2.251.46.906 0 1.701-.185 2.251-.46.58-.29.749-.598.749-.79 0-.192-.169-.5-.749-.79-.55-.275-1.345-.46-2.251-.46Zm-4-2.136a3.58 3.58 0 0 1-.302.172c-.716.359-1.671.566-2.698.566s-1.982-.207-2.698-.566a3.58 3.58 0 0 1-.302-.172v.938c0 .192.169.5.749.79.55.275 1.345.46 2.251.46.906 0 1.701-.185 2.251-.46.58-.29.749-.598.749-.79v-.938Zm-3-2.762c-.906 0-1.701.185-2.251.46-.58.29-.749.598-.749.79 0 .192.169.5.749.79.55.275 1.345.46 2.251.46.906 0 1.701-.185 2.251-.46.58-.29.749-.598.749-.79 0-.192-.169-.5-.749-.79-.55-.275-1.345-.46-2.251-.46Zm37 11.989a.6.6 0 0 1-.974.469l-4.202-3.344h-4.648l-4.202 3.344a.6.6 0 0 1-.974-.469V22.366h15v11.426Zm-14-.831 3.688-2.935.137-.109h5.35l.137.11 3.688 2.934v-9.595h-13v9.595Zm4-6.961h1.5v1h-1.5v1.5h-1V27H829v-1h1.5v-1.5h1V26Zm5.5-1.5a2 2 0 1 1 0 4 2 2 0 0 1 0-4Zm0 1a1 1 0 1 0 0 2 1 1 0 0 0 0-2Zm22.571 9.501H853V28.43h6.571V35Zm7.43 0h-6.571V28.43h6.571V35Zm-13.001-1h4.571V29.43H854V34Zm7.43 0h4.571V29.43h-4.571V34Zm-1.859-6.43H853V21h6.571v6.571Zm7.43 0h-6.571V21h6.571v6.571Zm-13.001-1h4.571V22H854v4.571Zm7.43 0h4.571V22h-4.571v4.571Zm27.528-5.565a4.777 4.777 0 0 1 3.135 1.398h.001c.438.441.786.956 1.028 1.532l.088.225a4.8 4.8 0 0 1 .29 1.658l-.006.234a5.523 5.523 0 0 1-.354 1.655l-.001-.001a8.176 8.176 0 0 1-.83 1.608h-.001c-.489.745-1.13 1.508-1.905 2.275l-.34.329a25.613 25.613 0 0 1-2.822 2.291l-.303.206-.384.252h-.001a1.01 1.01 0 0 1-1.106 0h-.001l-.384-.252v-.001a24.852 24.852 0 0 1-3.125-2.496c-.928-.877-1.686-1.752-2.245-2.604h-.001a8.246 8.246 0 0 1-.831-1.607 5.399 5.399 0 0 1-.36-1.889c0-.651.129-1.286.38-1.883a4.788 4.788 0 0 1 2.549-2.56v.001a4.708 4.708 0 0 1 1.853-.376h.001c.89 0 1.762.249 2.521.722.067.041.131.087.196.132a4.757 4.757 0 0 1 2.719-.855l.239.006Zm-.24.994a3.752 3.752 0 0 0-2.398.865l-.319.265-.319-.265a3.756 3.756 0 0 0-2.136-.856l-.263-.009c-.508 0-1 .1-1.464.297h-.001a3.774 3.774 0 0 0-1.202.812v.001a3.84 3.84 0 0 0-1.116 2.709c0 .486.097 1.002.298 1.538l.14.342c.154.346.352.704.59 1.069l.199.29c.485.684 1.12 1.401 1.896 2.134a24.21 24.21 0 0 0 2.904 2.333l.056.038.02.012.007.005.383.251.007.002c.002 0 .004 0 .007-.002l.382-.25h.001a24.13 24.13 0 0 0 2.437-1.889l.55-.5c.887-.838 1.59-1.654 2.095-2.424l.225-.363c.212-.36.381-.71.505-1.047a4.389 4.389 0 0 0 .298-1.539 3.842 3.842 0 0 0-.229-1.316l-.071-.179a3.823 3.823 0 0 0-1.851-1.952l-.166-.075a3.722 3.722 0 0 0-1.464-.297h-.001Zm-.8 2.777 1.356 2.721H891v1h-2.345l-.138-.277-1.036-2.076-1.446 3.068-.418.886-.471-.858-1.137-2.062-.732 1.096-.148.223H881v-1h1.594l1.04-1.558.457-.684.397.72 1.06 1.925 1.47-3.114.44-.932.46.922Z"></path>
  <path stroke="#999" d="m909.2 23.859-1.4 10.5"></path>
  <path fill="#999" d="M915.851 24.36h-.48l1.267 9.5H919v1h-14v-1h2.361l1.268-9.5h-.479v-1h7.701v1Zm-7.48 9.5h7.258l-.334-2.5h-6.591l-.333 2.5Zm.467-3.5h6.324l-.334-2.5h-5.657l-.333 2.5Zm.467-3.5h5.39l-.334-2.5h-4.723l-.333 2.5Zm5.848-5.6-.29.29a1.899 1.899 0 0 1-1.342.556h-.241a.899.899 0 0 0-.636.264l-.29.29-.708-.707.291-.29a1.898 1.898 0 0 1 1.343-.557h.241a.898.898 0 0 0 .635-.263l.29-.29.707.707Zm27.375-.235c.683-.01 1.324.169 1.788.633.464.464.643 1.104.633 1.788-.011.681-.207 1.45-.541 2.249a13.172 13.172 0 0 1-1.253 2.267c.551.805.992 1.598 1.304 2.342.334.8.53 1.568.541 2.25.01.683-.169 1.323-.633 1.787-.465.465-1.105.644-1.788.633-.682-.01-1.45-.207-2.249-.54a13.28 13.28 0 0 1-2.33-1.297 13.25 13.25 0 0 1-2.331 1.296c-.799.334-1.567.53-2.249.541-.683.01-1.323-.168-1.788-.633-.464-.464-.643-1.104-.632-1.788.01-.681.207-1.45.542-2.249a13.25 13.25 0 0 1 1.302-2.341c-.527-.78-.95-1.547-1.252-2.268-.334-.8-.531-1.568-.542-2.25-.01-.683.169-1.323.633-1.787.464-.465 1.105-.643 1.788-.633.682.01 1.45.208 2.249.542a13.23 13.23 0 0 1 2.28 1.26 13.197 13.197 0 0 1 2.279-1.26c.799-.334 1.567-.532 2.249-.542Zm-9.059 7.803a11.827 11.827 0 0 0-1.006 1.862c-.304.728-.456 1.367-.463 1.879-.008.51.126.851.339 1.065.214.214.556.348 1.066.34.512-.008 1.15-.16 1.879-.464.583-.244 1.209-.58 1.854-1a20.662 20.662 0 0 1-3.669-3.682Zm9.061 0a20.443 20.443 0 0 1-1.745 1.982 20.535 20.535 0 0 1-1.924 1.7c.645.42 1.271.756 1.854 1 .729.305 1.367.456 1.879.464.51.008.852-.126 1.066-.34.214-.214.347-.555.34-1.065-.008-.512-.16-1.15-.464-1.879a11.827 11.827 0 0 0-1.006-1.862ZM938 24.052a19.114 19.114 0 0 0-2.129 1.844 19.296 19.296 0 0 0-1.8 2.07 19.28 19.28 0 0 0 1.85 2.137A19.3 19.3 0 0 0 938 31.91a19.282 19.282 0 0 0 2.078-1.806 19.166 19.166 0 0 0 1.85-2.138 19.175 19.175 0 0 0-1.8-2.069c-.7-.7-1.42-1.318-2.128-1.844Zm-4.544-2.027c-.51-.008-.852.126-1.066.34-.214.214-.347.555-.34 1.065.008.512.16 1.15.464 1.88.236.563.559 1.168.959 1.79.5-.644 1.066-1.287 1.691-1.911a20.399 20.399 0 0 1 1.969-1.735 11.756 11.756 0 0 0-1.798-.965c-.729-.305-1.367-.456-1.879-.464Zm9.088 0c-.513.008-1.151.16-1.879.464-.567.237-1.174.562-1.799.965.663.51 1.326 1.092 1.97 1.735.624.624 1.19 1.268 1.69 1.911.4-.623.723-1.227.959-1.79.304-.73.456-1.368.464-1.88.007-.51-.126-.851-.34-1.065-.214-.214-.556-.348-1.065-.34Zm28.955 11.724H956.5V22.25h14.999v11.499Zm-7.5-5.124-.3-.226-6.199-4.649v8.999h12.999V23.75l-6.5 4.875Zm0-1.251 5.499-4.124H958.5l5.499 4.124ZM997.5 33.11h-7.731l-3.395 1.698-.724.36V33.11h-3.15v-11.5h15v11.5Zm-14-1h3.15v1.44l2.777-1.387.105-.053h6.968v-9.5h-13v9.5Zm3.148-5.631a.85.85 0 1 1 0 1.7.85.85 0 0 1 0-1.7Zm3.351 0a.85.85 0 1 1 0 1.7.85.85 0 0 1 0-1.7Zm3.387 0a.85.85 0 1 1 0 1.698.85.85 0 0 1 0-1.698ZM1023 35h-7.35v-.004H1009v-10.58h3.07v-3.418H1023V35Zm-9.93-10.584h3.09V34h5.84V21.998h-8.93v2.418Zm-3.07 9.58h5.16v-8.58H1010v8.58Zm3.61-1.05h-2.06v-1h2.06v1Zm4.96 0h-2.07v-1h2.07v1Zm24.83-7.756a5 5 0 0 1 3.97 8.911h1.51v1h-13.65v-14.21h8.17v4.3Zm-7.17 8.912h5.16a4.993 4.993 0 0 1-2.01-4.008c0-.43.06-.845.16-1.242h-2.01v-1h2.16v.51a5.035 5.035 0 0 1 2.71-2.861v-3.61h-6.17V34.1Zm8.15-8.008a4 4 0 1 0 0 7.999 4 4 0 0 0 0-8Zm0 4.771c.7 0 1.26.562 1.26 1.254s-.57 1.254-1.26 1.254c-.69 0-1.25-.562-1.25-1.254s.56-1.254 1.25-1.254Zm0 .9a.354.354 0 0 0 0 .708c.2 0 .36-.159.36-.354a.356.356 0 0 0-.36-.353Zm-2.02-2.921c.69 0 1.26.561 1.26 1.254 0 .692-.57 1.253-1.26 1.254-.69 0-1.25-.562-1.25-1.254 0-.693.56-1.254 1.25-1.254Zm4.05 0c.69 0 1.25.561 1.25 1.254 0 .692-.56 1.254-1.25 1.254s-1.26-.562-1.26-1.254c0-.693.57-1.254 1.26-1.254Zm-4.05.9a.354.354 0 0 0 0 .707c.2 0 .35-.158.35-.353a.348.348 0 0 0-.35-.354Zm4.05 0c-.2 0-.36.159-.36.354 0 .195.16.353.36.353a.354.354 0 0 0 0-.707Zm-2.03-2.93c.7 0 1.26.561 1.26 1.253a1.26 1.26 0 0 1-1.26 1.254c-.69 0-1.25-.561-1.25-1.254 0-.692.56-1.253 1.25-1.253Zm0 .9a.354.354 0 0 0 0 .707c.2 0 .36-.159.36-.354a.356.356 0 0 0-.36-.353Zm-3.18-1.878h-3.67v-1h3.67v1Zm32.92-3.287c-.28.947-1.23 3.823-2.1 6.449l-1.17 3.502c-.15.464-.28.846-.37 1.111a3.63 3.63 0 0 0-.1.309.185.185 0 0 0-.03.08c0 .009-.01.016-.01.02v.007l-.94.017-1.96-5.248-5.43-1.799-.02-.943v-.001l.01-.002c0-.002.01-.006.02-.009.02-.007.05-.017.08-.03a414.452 414.452 0 0 0 1.48-.544c.97-.354 2.27-.829 3.62-1.318 2.68-.972 5.57-2.01 6.3-2.222l.62.62Zm-1.25.636a415.52 415.52 0 0 0-5.33 1.905c-1.35.488-2.65.964-3.61 1.317-.09.032-.17.06-.25.09l4.3 1.426.31.3 1.55 4.15.06-.19 1.17-3.5c.67-2.03 1.39-4.19 1.8-5.498Zm21.83 9.965h-1.4v-1.4h1.4v1.4Zm-3.85-3.04a4.452 4.452 0 0 1 6.3 0l.36.353-.71.707-.35-.354a3.469 3.469 0 0 0-4.9 0l-.35.354-.71-.707.36-.354Zm-2.1-2.283a7.422 7.422 0 0 1 10.5 0l.36.354-.71.707-.36-.354a6.427 6.427 0 0 0-9.09 0l-.35.354-.71-.707.36-.354Zm-1.43-2.984c4.12-3.307 10.12-3.113 14.02.582l.37.344-.69.726-.36-.345c-3.54-3.348-8.98-3.523-12.71-.527-.21.166-.41.342-.61.527l-.36.345-.69-.726.37-.344c.21-.205.43-.399.66-.582ZM1115 21.88a1.304 1.304 0 0 1 1.84 0l2.49 2.49v.001c.47.476.5 1.229.09 1.74l-.09.098-.54.536v.041c0 .078.02.204.08.373.13.335.39.763.8 1.173.41.41.84.672 1.17.797.17.062.3.083.37.083.02 0 .03-.004.04-.005l.54-.536.1-.089a1.302 1.302 0 0 1 1.74.089l2.49 2.49c.51.508.51 1.33 0 1.838l-.57.566c-.5.508-1.16.805-1.92.9a4.59 4.59 0 0 1-.56.034v.001c-.54 0-1.12-.092-1.71-.266-1.6-.47-3.25-1.52-4.66-2.931-1.41-1.413-2.47-3.065-2.94-4.666-.23-.8-.31-1.563-.23-2.265.1-.76.4-1.419.9-1.926l.57-.566Zm1.13.708a.303.303 0 0 0-.38-.038l-.04.038-.57.565c-.33.33-.54.772-.61 1.344-.06.468-.02 1.004.12 1.599l.07.259.09.264c.45 1.33 1.35 2.737 2.59 3.976 1.33 1.321 2.84 2.267 4.25 2.68.51.152.99.225 1.42.225.14 0 .29-.008.43-.026l.21-.034c.47-.094.85-.294 1.14-.582l.56-.565.04-.047c.07-.1.07-.23 0-.331l-.04-.047-2.49-2.49a.295.295 0 0 0-.42 0l-.57.566c-.21.208-.48.266-.71.268-.23.001-.48-.055-.73-.146-.49-.181-1.03-.53-1.53-1.027-.5-.496-.85-1.042-1.03-1.531a2.13 2.13 0 0 1-.14-.729c0-.228.06-.503.27-.71l.56-.567a.296.296 0 0 0 0-.425l-2.49-2.49Zm32.87.912h4.5v11h-15v-11h1.5v-2h9v2Zm-9.5 10h13V31h-6.5v-5h6.5v-1.5h-13v9Zm7.5-3.5h5.5v-3h-5.5v3Zm2.51-2a.554.554 0 1 1-.008 1.108.554.554 0 0 1 .008-1.108Zm-8.51-4.5h7v-1h-7v1Zm38.5 11h-15v-13h15v13Zm-14-1h13V26h-13v7.5Zm0-8.5h13v-2.5h-13V25Zm1.6-1.797a.6.6 0 1 1-.001 1.201.6.6 0 0 1 .001-1.2Zm2 0a.6.6 0 1 1-.001 1.201.6.6 0 0 1 .001-1.2Zm28.34 2.691a2.178 2.178 0 0 1-3.72 1.537 2.2 2.2 0 0 1-.63-1.537v-4.892H1192v4.892c0 .77.27 1.516.77 2.103.5.588 1.19.981 1.95 1.11v6.067h1.08v-6.067a3.276 3.276 0 0 0 1.95-1.11c.5-.587.77-1.332.77-2.103v-4.892h-1.08v4.892Zm3.3-4.892h-.55v14.172h1.09v-4.388h1.63c.29 0 .57-.114.77-.318.2-.204.32-.48.32-.769v-5.435a3.23 3.23 0 0 0-.22-1.268 2.97 2.97 0 0 0-.7-1.076 3.13 3.13 0 0 0-1.08-.704c-.4-.158-.83-.23-1.26-.214Zm2.17 8.697h-1.63v-7.56c1.57.304 1.63 1.924 1.63 2.125v5.435Z"></path>
  <path fill="#999" d="M1194.72 21.002h1.08v5.436h-1.08v-5.436Z"></path>
  <path fill="#999" fill-rule="evenodd" d="M1222.18 22.933c.07-.378.62-.378.69 0l.06.273a7.372 7.372 0 0 0 5.29 5.636c.32.09.32.556 0 .646l-.2.056a7.358 7.358 0 0 0-5.09 5.58l-.03.123-.03.15-.02.066c-.11.29-.54.29-.65 0l-.02-.067-.03-.15-.03-.122a7.366 7.366 0 0 0-5.03-5.563l-.25-.073c-.33-.09-.33-.557 0-.646a7.361 7.361 0 0 0 5.24-5.462l.04-.174.06-.273Zm.35 2.247a8.38 8.38 0 0 1-3.79 3.985 8.379 8.379 0 0 1 3.79 3.984 8.313 8.313 0 0 1 3.78-3.984 8.314 8.314 0 0 1-3.78-3.985Zm5.61-4.423c.04-.227.37-.227.41 0l.05.266a4.123 4.123 0 0 0 2.86 3.201c.17.054.17.306 0 .36l-.13.04a4.122 4.122 0 0 0-2.73 3.16l-.04.19-.01.078-.03.075c-.08.127-.28.127-.35 0l-.03-.075-.01-.079-.04-.188a4.124 4.124 0 0 0-2.59-3.108l-.27-.093c-.17-.054-.17-.305 0-.36a4.122 4.122 0 0 0 2.86-3.2l.05-.267Zm.2 2.288a4.91 4.91 0 0 1-1.27 1.36c.51.37.94.832 1.27 1.357.34-.525.77-.987 1.27-1.358a5.23 5.23 0 0 1-1.27-1.36Z" clip-rule="evenodd"></path>
</svg>