<svg xmlns="http://www.w3.org/2000/svg" width="180" height="60" fill="none" viewBox="0 0 180 60">
  <rect width="179" height="59" x=".5" y=".5" stroke="#9747FF" stroke-dasharray="10 5" rx="4.5"></rect>
  <path fill="#636363" d="M29.566 36.5H23.5v-6.066h6.066V36.5Zm6.934 0h-6.066v-6.066H36.5V36.5Zm-12-1h4.066v-4.066H24.5V35.5Zm6.934 0H35.5v-4.066h-4.066V35.5Zm-1.868-5.934H23.5V23.5h6.066v6.066Zm6.934 0h-6.066V23.5H36.5v6.066Zm-12-1h4.066V24.5H24.5v4.066Zm6.934 0H35.5V24.5h-4.066v4.066Zm35.567-2.401h-3.889v-1.44h-1.887v4.777h1.886v-1.445h3.89v3.888h-3.89v-1.443h-1.886v4.78h1.886v-1.449h3.89v3.889h-3.89v-1.44h-2.886v-5.78h-1.89v3.257h-5.334v-7.5h5.334v3.243h1.89v-5.777h2.887v-1.449h3.89v3.889Zm-2.89 9.596.002.02-.001.02v.92H66v-1.888h-1.888v.928Zm-10.11-3.002h3.334v-5.5h-3.334v5.5Zm10.11-2.778.002.021-.001.02v.923H66v-1.888h-1.888v.924Zm.001-5.767.001.01v.942H66v-1.889h-1.889v.938Zm21.756 11.918H82.5v-1h3.368v1Zm11.843-1v1h-9.685v-1h9.685ZM92.117 30l-2.707 2.707-.707-.707 1.395-1.395H82.71v-1h7.599L88.703 28l.707-.707L92.117 30Zm5.594.605h-4.158v-1h4.158v1ZM85.868 25.08H82.5v-1h3.368v1Zm11.843 0h-9.685v-1h9.685v1Zm22.518-3.01 6.375 3.75.246.144v8.072l-.246.145-6.375 3.75-.254.15-.254-.15-6.375-3.75-.246-.145v-8.072l.246-.145 6.375-3.75.254-.15.254.15Zm-6.129 4.465v6.929l5.875 3.456 5.875-3.456v-6.929l-5.875-3.456-5.875 3.456Zm9.563 1.748-.424.265-2.764 1.727v3.6h-1v-3.597l-2.766-1.73-.423-.266.531-.847.424.265 2.731 1.71 2.736-1.71.424-.265.531.848Zm27.506 8.197h-1.688v-1.688h1.688v1.688Zm-4.567-3.334a5.265 5.265 0 0 1 7.445 0l.41.41-.819.819-.409-.41a4.108 4.108 0 0 0-5.809 0l-.409.41-.819-.82.41-.409Zm-2.485-2.698a8.78 8.78 0 0 1 12.416 0l.41.41-.819.819-.41-.41a7.621 7.621 0 0 0-10.778 0l-.409.41-.82-.819.41-.41Zm-1.685-3.53c4.871-3.909 11.966-3.68 16.575.69l.42.398-.796.84-.421-.398c-4.186-3.967-10.63-4.176-15.053-.626-.246.197-.485.406-.717.626l-.421.398-.796-.84.42-.399c.255-.242.519-.472.789-.688Z"></path>
</svg>