<svg xmlns="http://www.w3.org/2000/svg" width="214" height="144" fill="none" viewBox="0 0 214 144">
  <g filter="url(#a)">
    <rect width="194" height="124" x="10" y="6" fill="#fff" rx="6" shape-rendering="crispEdges"></rect>
    <path fill="#2B2B2B" d="M36.953 32.375c.962 0 1.714 0 2.317.049.61.05 1.111.153 1.564.384.746.38 1.353.987 1.733 1.733.231.453.334.955.384 1.564.05.603.049 1.355.049 2.317v1.02H29v-1.02c0-.962 0-1.714.049-2.317.05-.61.153-1.11.384-1.564a3.966 3.966 0 0 1 1.733-1.733c.453-.231.954-.334 1.564-.384.603-.05 1.355-.049 2.317-.049h1.906Zm-1.906 1c-.98 0-1.683 0-2.236.046-.547.045-.902.13-1.19.277a2.969 2.969 0 0 0-1.298 1.297c-.147.289-.232.644-.277 1.19C30 36.74 30 37.444 30 38.423v.02h12v-.02c0-.979 0-1.683-.046-2.236-.045-.547-.13-.902-.277-1.19a2.969 2.969 0 0 0-1.297-1.298c-.289-.147-.644-.232-1.19-.277-.553-.045-1.258-.046-2.237-.046h-1.906ZM36 24.142a3.533 3.533 0 1 1 0 7.066 3.533 3.533 0 0 1 0-7.066Zm0 1a2.533 2.533 0 1 0 0 5.066 2.533 2.533 0 0 0 0-5.066ZM54.28 37l3.472-10.08h1.365L62.589 37h-1.071l-3.297-9.506h.406L55.351 37H54.28Zm1.547-2.443v-.966h5.208v.966h-5.208Zm11.162 2.653c-.76 0-1.405-.17-1.932-.511a3.258 3.258 0 0 1-1.204-1.407c-.27-.602-.41-1.293-.42-2.072.01-.793.154-1.489.434-2.086a3.204 3.204 0 0 1 1.211-1.4c.527-.336 1.167-.504 1.918-.504.765 0 1.43.187 1.995.56.57.373.959.884 1.169 1.533l-1.008.322a2.128 2.128 0 0 0-.847-1.05 2.338 2.338 0 0 0-1.316-.378c-.555 0-1.015.128-1.379.385a2.24 2.24 0 0 0-.812 1.057c-.177.453-.268.973-.273 1.561.01.905.22 1.633.63 2.184.41.546 1.022.819 1.834.819.513 0 .95-.117 1.309-.35.364-.238.64-.583.826-1.036l1.036.308c-.28.672-.69 1.185-1.232 1.54-.541.35-1.188.525-1.939.525Zm7.547 0c-.76 0-1.405-.17-1.932-.511a3.258 3.258 0 0 1-1.204-1.407c-.27-.602-.41-1.293-.42-2.072.01-.793.154-1.489.434-2.086a3.204 3.204 0 0 1 1.21-1.4c.528-.336 1.168-.504 1.919-.504.765 0 1.43.187 1.995.56.57.373.959.884 1.169 1.533l-1.008.322a2.128 2.128 0 0 0-.847-1.05 2.338 2.338 0 0 0-1.316-.378c-.555 0-1.015.128-1.38.385a2.24 2.24 0 0 0-.811 1.057c-.177.453-.268.973-.273 1.561.01.905.22 1.633.63 2.184.41.546 1.022.819 1.834.819.513 0 .95-.117 1.309-.35.364-.238.64-.583.826-1.036l1.036.308c-.28.672-.69 1.185-1.232 1.54-.541.35-1.188.525-1.94.525Zm7.568 0c-.751 0-1.393-.17-1.925-.511a3.325 3.325 0 0 1-1.225-1.414c-.285-.602-.427-1.293-.427-2.072 0-.793.144-1.489.434-2.086a3.29 3.29 0 0 1 1.232-1.393c.537-.336 1.174-.504 1.91-.504.757 0 1.4.17 1.933.511.537.336.945.805 1.225 1.407.285.597.427 1.286.427 2.065 0 .793-.142 1.491-.427 2.093a3.272 3.272 0 0 1-1.232 1.4c-.537.336-1.178.504-1.925.504Zm0-.987c.84 0 1.465-.278 1.876-.833.41-.56.616-1.286.616-2.177 0-.915-.208-1.643-.623-2.184-.41-.541-1.034-.812-1.87-.812-.564 0-1.03.128-1.4.385a2.282 2.282 0 0 0-.818 1.057c-.178.448-.266.966-.266 1.554 0 .91.21 1.64.63 2.191.42.546 1.038.819 1.855.819Zm8.019.966c-.453 0-.85-.07-1.19-.21a2.634 2.634 0 0 1-.861-.567 2.988 2.988 0 0 1-.567-.812 4.088 4.088 0 0 1-.315-.973 5.519 5.519 0 0 1-.098-1.029V29.44h1.036v3.857c0 .415.04.8.119 1.155.08.355.205.665.378.931.177.261.404.464.679.609.28.145.618.217 1.015.217.364 0 .684-.063.959-.189a1.86 1.86 0 0 0 .7-.539c.191-.238.336-.525.434-.861a4.15 4.15 0 0 0 .147-1.148l.728.161c0 .775-.135 1.426-.406 1.953-.27.527-.644.926-1.12 1.197-.476.27-1.022.406-1.638.406ZM92.664 37v-1.862h-.105V29.44h1.029V37h-.924Zm8.34 0v-3.857c0-.42-.039-.805-.119-1.155a2.644 2.644 0 0 0-.385-.924 1.758 1.758 0 0 0-.678-.616c-.276-.145-.612-.217-1.008-.217-.364 0-.686.063-.966.189a1.902 1.902 0 0 0-.7.546 2.445 2.445 0 0 0-.427.854 4.104 4.104 0 0 0-.148 1.148l-.727-.161c0-.775.135-1.426.405-1.953a2.82 2.82 0 0 1 1.12-1.197c.477-.27 1.023-.406 1.639-.406.452 0 .846.07 1.182.21.341.14.628.329.861.567.238.238.43.511.574.819.145.303.25.628.315.973.066.34.098.681.098 1.022V37h-1.036Zm-5.467 0v-7.56h.931v1.862h.105V37h-1.035Zm12.436 0a5.037 5.037 0 0 1-1.26.105 2.796 2.796 0 0 1-1.106-.266 1.596 1.596 0 0 1-.735-.742 2.186 2.186 0 0 1-.224-.847c-.009-.29-.014-.618-.014-.987V27.34h1.022v6.881c0 .317.002.583.007.798.009.21.058.397.147.56.168.313.434.5.798.56.369.06.824.047 1.365-.042V37Zm-4.956-6.678v-.882h4.956v.882h-4.956Zm12.748 6.888c-.705 0-1.339-.117-1.904-.35a3.69 3.69 0 0 1-1.393-1.008 3.31 3.31 0 0 1-.714-1.547l1.05-.175a2.593 2.593 0 0 0 1.064 1.54c.541.369 1.188.553 1.939.553.495 0 .938-.077 1.33-.231.392-.159.7-.383.924-.672.224-.29.336-.632.336-1.029a1.45 1.45 0 0 0-.14-.665 1.338 1.338 0 0 0-.371-.462 2.288 2.288 0 0 0-.504-.301 3.955 3.955 0 0 0-.532-.203l-2.555-.763a4.644 4.644 0 0 1-.854-.336 3.016 3.016 0 0 1-.686-.497 2.13 2.13 0 0 1-.448-.686 2.348 2.348 0 0 1-.161-.896c0-.57.149-1.062.448-1.477a2.876 2.876 0 0 1 1.225-.959c.518-.224 1.108-.334 1.771-.329.672 0 1.272.119 1.799.357.532.238.971.579 1.316 1.022.345.439.574.959.686 1.561l-1.078.196a2.44 2.44 0 0 0-.483-1.141 2.466 2.466 0 0 0-.966-.742 3.116 3.116 0 0 0-1.281-.273c-.453 0-.856.077-1.211.231a2.06 2.06 0 0 0-.833.616c-.205.261-.308.56-.308.896 0 .34.093.614.28.819.191.205.425.366.7.483.28.117.551.212.812.287l1.974.581c.205.056.446.138.721.245.28.103.551.252.812.448.266.191.485.443.658.756.173.313.259.71.259 1.19 0 .467-.093.884-.28 1.253a2.576 2.576 0 0 1-.777.931 3.55 3.55 0 0 1-1.169.574 4.97 4.97 0 0 1-1.456.203Zm8.326 0c-.737 0-1.377-.163-1.918-.49a3.325 3.325 0 0 1-1.253-1.379c-.299-.593-.448-1.288-.448-2.086 0-.826.147-1.54.441-2.142a3.278 3.278 0 0 1 1.239-1.393c.537-.327 1.169-.49 1.897-.49.747 0 1.384.173 1.911.518.527.34.926.83 1.197 1.47s.394 1.402.371 2.289h-1.05v-.364c-.019-.98-.231-1.72-.637-2.219-.401-.5-.989-.749-1.764-.749-.812 0-1.435.264-1.869.791-.429.527-.644 1.279-.644 2.254 0 .952.215 1.692.644 2.219.434.523 1.048.784 1.841.784.541 0 1.013-.124 1.414-.371.406-.252.726-.614.959-1.085l.959.371a3.433 3.433 0 0 1-1.323 1.533c-.579.36-1.234.539-1.967.539Zm-2.891-3.703v-.861h5.775v.861H121.2ZM133.198 37a5.037 5.037 0 0 1-1.26.105 2.791 2.791 0 0 1-1.106-.266 1.596 1.596 0 0 1-.735-.742 2.169 2.169 0 0 1-.224-.847 29.09 29.09 0 0 1-.014-.987V27.34h1.022v6.881c0 .317.002.583.007.798.009.21.058.397.147.56.168.313.434.5.798.56.368.06.823.047 1.365-.042V37Zm-4.956-6.678v-.882h4.956v.882h-4.956ZM137.965 37a5.037 5.037 0 0 1-1.26.105 2.791 2.791 0 0 1-1.106-.266 1.596 1.596 0 0 1-.735-.742 2.169 2.169 0 0 1-.224-.847 29.09 29.09 0 0 1-.014-.987V27.34h1.022v6.881c0 .317.002.583.007.798.009.21.058.397.147.56.168.313.434.5.798.56.368.06.823.047 1.365-.042V37Zm-4.956-6.678v-.882h4.956v.882h-4.956Zm6.59-2.317V26.85h1.029v1.155h-1.029Zm0 8.995v-7.56h1.029V37h-1.029Zm8.587 0v-3.857c0-.42-.04-.805-.119-1.155a2.663 2.663 0 0 0-.385-.924 1.763 1.763 0 0 0-.679-.616c-.275-.145-.611-.217-1.008-.217-.364 0-.686.063-.966.189a1.903 1.903 0 0 0-.7.546 2.44 2.44 0 0 0-.427.854 4.104 4.104 0 0 0-.147 1.148l-.728-.161c0-.775.135-1.426.406-1.953a2.816 2.816 0 0 1 1.12-1.197c.476-.27 1.022-.406 1.638-.406.453 0 .847.07 1.183.21.341.14.628.329.861.567.238.238.429.511.574.819.145.303.25.628.315.973.065.34.098.681.098 1.022V37h-1.036Zm-5.467 0v-7.56h.931v1.862h.105V37h-1.036Zm11.323 3.57c-.388 0-.77-.058-1.148-.175a3.134 3.134 0 0 1-1.036-.539 2.96 2.96 0 0 1-.798-.952l.931-.518c.21.42.504.721.882.903.382.187.772.28 1.169.28.546 0 .987-.103 1.323-.308.34-.2.588-.5.742-.896.154-.397.228-.891.224-1.484v-2.016h.119V29.44h.917v7.455c0 .215-.007.42-.021.616a5.1 5.1 0 0 1-.063.588c-.089.565-.273 1.029-.553 1.393a2.47 2.47 0 0 1-1.092.812c-.448.177-.98.266-1.596.266Zm-.07-3.36c-.705 0-1.307-.175-1.806-.525a3.4 3.4 0 0 1-1.148-1.435c-.266-.602-.399-1.281-.399-2.037 0-.751.13-1.428.392-2.03.266-.602.646-1.078 1.141-1.428.494-.35 1.087-.525 1.778-.525.709 0 1.306.173 1.792.518.485.345.851.819 1.099 1.421.252.597.378 1.279.378 2.044 0 .751-.124 1.43-.371 2.037-.248.602-.612 1.08-1.092 1.435-.481.35-1.069.525-1.764.525Zm.105-.959c.536 0 .98-.13 1.33-.392.35-.261.611-.62.784-1.078a4.47 4.47 0 0 0 .259-1.568c0-.593-.087-1.115-.259-1.568-.173-.457-.434-.814-.784-1.071-.346-.257-.782-.385-1.309-.385-.542 0-.99.133-1.344.399a2.354 2.354 0 0 0-.791 1.085c-.168.457-.252.97-.252 1.54 0 .574.086 1.092.259 1.554.177.457.441.819.791 1.085.35.266.788.399 1.316.399Zm8.068.952c-.887 0-1.617-.191-2.191-.574a2.388 2.388 0 0 1-1.05-1.596l1.05-.175c.112.43.366.772.763 1.029.401.252.896.378 1.484.378.574 0 1.026-.119 1.358-.357a1.16 1.16 0 0 0 .497-.987c0-.233-.054-.422-.161-.567-.103-.15-.315-.287-.637-.413a14.998 14.998 0 0 0-1.442-.448c-.686-.187-1.223-.373-1.61-.56-.388-.187-.663-.401-.826-.644-.164-.247-.245-.548-.245-.903 0-.43.121-.805.364-1.127.242-.327.578-.579 1.008-.756.429-.182.928-.273 1.498-.273.569 0 1.078.093 1.526.28.452.182.816.439 1.092.77.275.331.438.716.49 1.155l-1.05.189a1.514 1.514 0 0 0-.665-1.05c-.369-.261-.838-.397-1.407-.406-.537-.014-.973.089-1.309.308-.336.215-.504.502-.504.861 0 .2.06.373.182.518.121.14.34.273.658.399.322.126.779.264 1.372.413.695.177 1.241.364 1.638.56.396.196.679.427.847.693.168.266.252.595.252.987 0 .714-.266 1.276-.798 1.687-.528.406-1.256.609-2.184.609ZM36 59.5a8 8 0 1 1 0 16 8 8 0 0 1 0-16Zm0 1a7 7 0 1 0 0 14 7 7 0 0 0 0-14Zm.6 11.1h-1.2v-5.2h1.2v5.2Zm.15-6.1h-1.5V64h1.5v1.5ZM54.28 73l3.472-10.08h1.365L62.589 73h-1.071l-3.297-9.506h.406L55.351 73H54.28Zm1.547-2.443v-.966h5.208v.966h-5.208Zm11.421 2.653c-.695 0-1.283-.175-1.764-.525a3.297 3.297 0 0 1-1.092-1.435c-.247-.607-.371-1.286-.371-2.037 0-.765.124-1.447.371-2.044.252-.602.62-1.076 1.106-1.421.485-.345 1.083-.518 1.792-.518.69 0 1.283.175 1.778.525.495.35.873.826 1.134 1.428.266.602.399 1.279.399 2.03 0 .756-.133 1.435-.399 2.037a3.405 3.405 0 0 1-1.148 1.435c-.5.35-1.101.525-1.806.525ZM63.846 73V62.92h1.036v4.389h-.112V73h-.924Zm3.297-.749c.527 0 .966-.133 1.316-.399a2.38 2.38 0 0 0 .784-1.085c.177-.462.266-.98.266-1.554 0-.57-.086-1.083-.259-1.54a2.36 2.36 0 0 0-.791-1.085c-.35-.266-.796-.399-1.337-.399-.527 0-.966.128-1.316.385-.345.257-.604.614-.777 1.071-.173.453-.259.975-.259 1.568 0 .583.086 1.106.259 1.568.173.457.434.817.784 1.078.35.261.793.392 1.33.392Zm8.152.959c-.751 0-1.393-.17-1.925-.511a3.325 3.325 0 0 1-1.225-1.414c-.284-.602-.427-1.293-.427-2.072 0-.793.145-1.489.434-2.086a3.29 3.29 0 0 1 1.232-1.393c.537-.336 1.174-.504 1.911-.504.756 0 1.4.17 1.932.511.537.336.945.805 1.225 1.407.285.597.427 1.286.427 2.065 0 .793-.142 1.491-.427 2.093a3.272 3.272 0 0 1-1.232 1.4c-.537.336-1.178.504-1.925.504Zm0-.987c.84 0 1.465-.278 1.876-.833.41-.56.616-1.286.616-2.177 0-.915-.208-1.643-.623-2.184-.41-.541-1.034-.812-1.869-.812-.564 0-1.031.128-1.4.385a2.282 2.282 0 0 0-.819 1.057c-.177.448-.266.966-.266 1.554 0 .91.21 1.64.63 2.191.42.546 1.038.819 1.855.819Zm8.02.966c-.453 0-.85-.07-1.19-.21a2.634 2.634 0 0 1-.862-.567 2.988 2.988 0 0 1-.567-.812 4.088 4.088 0 0 1-.315-.973 5.519 5.519 0 0 1-.098-1.029V65.44h1.036v3.857c0 .415.04.8.12 1.155.079.355.205.665.377.931.178.261.404.464.68.609.28.145.618.217 1.014.217.364 0 .684-.063.96-.189a1.86 1.86 0 0 0 .7-.539c.19-.238.335-.525.433-.861a4.15 4.15 0 0 0 .147-1.148l.728.161c0 .775-.135 1.426-.406 1.953-.27.527-.644.926-1.12 1.197-.476.27-1.022.406-1.638.406Zm2.54-.189v-1.862h-.105V65.44h1.03V73h-.925Zm6.997 0a5.035 5.035 0 0 1-1.26.105 2.795 2.795 0 0 1-1.106-.266 1.596 1.596 0 0 1-.735-.742 2.18 2.18 0 0 1-.224-.847c-.01-.29-.014-.618-.014-.987V63.34h1.022v6.881c0 .317.002.583.007.798.01.21.058.397.147.56.168.313.434.5.798.56.369.06.824.047 1.365-.042V73Zm-4.956-6.678v-.882h4.956v.882h-4.956ZM32.833 96.993c1.342 0 2.517.713 3.167 1.781a3.703 3.703 0 0 1 3.167-1.781h4.893v12.556h-5.684a1.839 1.839 0 0 0-1.839 1.838h-1.074a1.839 1.839 0 0 0-1.839-1.838H27.94V96.993h4.893Zm-3.818 11.481h4.609a2.9 2.9 0 0 1 1.839.654v-8.431a2.63 2.63 0 0 0-2.63-2.63h-3.818v10.407Zm10.152-10.407a2.63 2.63 0 0 0-2.63 2.63v8.431a2.9 2.9 0 0 1 1.839-.654h4.61V98.067h-3.819Zm19.747 11.143c-.77 0-1.451-.159-2.044-.476a3.486 3.486 0 0 1-1.386-1.344c-.336-.579-.504-1.255-.504-2.03v-6.433l1.036-.007v6.307c0 .523.089.975.266 1.358.177.378.408.691.693.938a3.05 3.05 0 0 0 1.939.714c.327 0 .66-.058 1.001-.175a2.87 2.87 0 0 0 .938-.539 2.79 2.79 0 0 0 .693-.938c.177-.383.266-.835.266-1.358V98.92h1.036v6.44c0 .775-.168 1.451-.504 2.03a3.54 3.54 0 0 1-1.393 1.344c-.588.317-1.267.476-2.037.476Zm8.717-.007c-.887 0-1.617-.191-2.19-.574a2.393 2.393 0 0 1-1.05-1.596l1.05-.175c.111.429.365.772.762 1.029.401.252.896.378 1.484.378.574 0 1.027-.119 1.358-.357a1.16 1.16 0 0 0 .497-.987c0-.233-.054-.422-.16-.567-.104-.149-.316-.287-.638-.413a15.057 15.057 0 0 0-1.442-.448c-.686-.187-1.223-.373-1.61-.56-.387-.187-.663-.401-.826-.644-.163-.247-.245-.548-.245-.903 0-.429.121-.805.364-1.127.243-.327.579-.579 1.008-.756.43-.182.929-.273 1.498-.273.57 0 1.078.093 1.526.28.453.182.817.439 1.092.77.275.331.439.716.49 1.155l-1.05.189a1.514 1.514 0 0 0-.665-1.05c-.369-.261-.838-.397-1.407-.406-.537-.014-.973.089-1.309.308-.336.215-.504.502-.504.861 0 .201.06.373.182.518.121.14.34.273.658.399.322.126.78.264 1.372.413.695.177 1.241.364 1.638.56.397.196.68.427.847.693.168.266.252.595.252.987 0 .714-.266 1.276-.798 1.687-.527.406-1.255.609-2.184.609Zm7.734.007c-.738 0-1.377-.163-1.918-.49a3.326 3.326 0 0 1-1.254-1.379c-.298-.593-.447-1.288-.447-2.086 0-.826.147-1.54.44-2.142a3.28 3.28 0 0 1 1.24-1.393c.536-.327 1.168-.49 1.897-.49.746 0 1.383.173 1.91.518.528.341.927.831 1.197 1.47.271.639.395 1.402.371 2.289h-1.05v-.364c-.018-.98-.23-1.72-.636-2.219-.402-.499-.99-.749-1.764-.749-.813 0-1.436.264-1.87.791-.429.527-.643 1.279-.643 2.254 0 .952.214 1.692.644 2.219.433.523 1.047.784 1.84.784.542 0 1.013-.124 1.415-.371.406-.252.725-.614.959-1.085l.959.371a3.428 3.428 0 0 1-1.323 1.533c-.58.359-1.235.539-1.967.539Zm-2.891-3.703v-.861h5.775v.861h-5.775ZM80.355 109v-7.56h.924v1.82l-.182-.238c.084-.224.194-.429.329-.616a2.12 2.12 0 0 1 .441-.469c.196-.173.425-.303.686-.392.261-.093.525-.147.791-.161.266-.019.509 0 .728.056v.966a2.504 2.504 0 0 0-.903-.049 1.718 1.718 0 0 0-.903.392 1.88 1.88 0 0 0-.567.707 3.01 3.01 0 0 0-.252.868 6.57 6.57 0 0 0-.063.903V109h-1.029Zm11.887.21c-.71 0-1.349-.124-1.918-.371a4.066 4.066 0 0 1-1.456-1.057 4.716 4.716 0 0 1-.91-1.652c-.21-.649-.315-1.372-.315-2.17 0-1.055.182-1.974.546-2.758.368-.789.896-1.4 1.582-1.834.686-.434 1.51-.651 2.47-.651 1.074 0 1.947.252 2.619.756.676.5 1.148 1.171 1.414 2.016l-1.036.252a3.05 3.05 0 0 0-1.085-1.477c-.5-.369-1.123-.553-1.87-.553-.788-.005-1.444.173-1.966.532-.523.355-.917.854-1.183 1.498-.262.639-.395 1.379-.4 2.219-.004.84.124 1.58.386 2.219.266.635.662 1.134 1.19 1.498.527.359 1.185.541 1.974.546.723 0 1.32-.14 1.792-.42.471-.28.828-.681 1.07-1.204.248-.523.388-1.141.42-1.855h-2.323v-.882h3.402c.014.107.02.222.02.343.005.117.008.201.008.252 0 .91-.164 1.724-.49 2.443a3.857 3.857 0 0 1-1.477 1.694c-.654.411-1.475.616-2.464.616Zm8.723-.021c-.453 0-.85-.07-1.19-.21a2.634 2.634 0 0 1-.861-.567 2.992 2.992 0 0 1-.567-.812 4.084 4.084 0 0 1-.315-.973 5.514 5.514 0 0 1-.098-1.029v-4.158h1.036v3.857c0 .415.04.8.119 1.155.08.355.205.665.378.931.177.261.403.464.679.609.28.145.618.217 1.015.217.364 0 .683-.063.959-.189.28-.126.513-.306.7-.539.191-.238.336-.525.434-.861a4.15 4.15 0 0 0 .147-1.148l.728.161c0 .775-.136 1.426-.406 1.953a2.82 2.82 0 0 1-1.12 1.197c-.476.271-1.022.406-1.638.406Zm2.541-.189v-1.862h-.105v-5.698h1.029V109h-.924Zm3.02-8.995V98.85h1.029v1.155h-1.029Zm0 8.995v-7.56h1.029V109h-1.029Zm6.061.21c-.705 0-1.307-.175-1.806-.525a3.402 3.402 0 0 1-1.148-1.435c-.266-.602-.399-1.281-.399-2.037 0-.751.13-1.428.392-2.03.266-.602.646-1.078 1.141-1.428.494-.35 1.087-.525 1.778-.525.709 0 1.306.173 1.792.518.485.345.851.819 1.099 1.421.252.597.378 1.279.378 2.044 0 .751-.124 1.43-.371 2.037-.248.602-.612 1.08-1.092 1.435-.481.35-1.069.525-1.764.525Zm.105-.959c.536 0 .98-.131 1.33-.392.35-.261.611-.621.784-1.078.172-.462.259-.985.259-1.568 0-.593-.087-1.115-.259-1.568-.173-.457-.434-.814-.784-1.071-.346-.257-.782-.385-1.309-.385-.542 0-.99.133-1.344.399a2.355 2.355 0 0 0-.791 1.085 4.442 4.442 0 0 0-.252 1.54c0 .574.086 1.092.259 1.554.177.457.441.819.791 1.085.35.266.788.399 1.316.399Zm2.373.749v-5.691h-.112V98.92h1.036V109h-.924Zm6.087.21c-.738 0-1.377-.163-1.918-.49a3.319 3.319 0 0 1-1.253-1.379c-.299-.593-.448-1.288-.448-2.086 0-.826.147-1.54.441-2.142a3.28 3.28 0 0 1 1.239-1.393c.536-.327 1.169-.49 1.897-.49.746 0 1.383.173 1.911.518.527.341.926.831 1.197 1.47.27.639.394 1.402.371 2.289h-1.05v-.364c-.019-.98-.231-1.72-.637-2.219-.402-.499-.99-.749-1.764-.749-.812 0-1.435.264-1.869.791-.43.527-.644 1.279-.644 2.254 0 .952.214 1.692.644 2.219.434.523 1.047.784 1.841.784.541 0 1.012-.124 1.414-.371.406-.252.725-.614.959-1.085l.959.371a3.433 3.433 0 0 1-1.323 1.533c-.579.359-1.235.539-1.967.539Zm-2.891-3.703v-.861h5.775v.861h-5.775Z"></path>
  </g>
  <defs>
    <filter id="a" width="214" height="144" x="0" y="0" color-interpolation-filters="sRGB" filterUnits="userSpaceOnUse">
      <feFlood flood-opacity="0" result="BackgroundImageFix"></feFlood>
      <feColorMatrix in="SourceAlpha" result="hardAlpha" values="0 0 0 0 0 0 0 0 0 0 0 0 0 0 0 0 0 0 127 0"></feColorMatrix>
      <feOffset dy="4"></feOffset>
      <feGaussianBlur stdDeviation="5"></feGaussianBlur>
      <feComposite in2="hardAlpha" operator="out"></feComposite>
      <feColorMatrix values="0 0 0 0 0.168627 0 0 0 0 0.168627 0 0 0 0 0.168627 0 0 0 0.25 0"></feColorMatrix>
      <feBlend in2="BackgroundImageFix" result="effect1_dropShadow_25947_13524"></feBlend>
      <feBlend in="SourceGraphic" in2="effect1_dropShadow_25947_13524" result="shape"></feBlend>
    </filter>
  </defs>
</svg>