<svg xmlns="http://www.w3.org/2000/svg" width="20" height="20" fill="none" viewBox="0 0 20 20">
  <path fill="#4285F4" fill-rule="evenodd" d="M18.64 10.2a10.309 10.309 0 0 0-.164-1.84H10v3.481h4.844a4.146 4.146 0 0 1-1.796 2.717v2.258h2.908c1.702-1.567 2.684-3.874 2.684-6.615V10.2Z" clip-rule="evenodd"></path>
  <path fill="#34A853" fill-rule="evenodd" d="M10.003 19c2.43 0 4.467-.806 5.956-2.18l-2.909-2.26c-.806.54-1.836.86-3.047.86-2.344 0-4.328-1.584-5.036-3.711H1.96v2.332A8.996 8.996 0 0 0 10.003 19Z" clip-rule="evenodd"></path>
  <path fill="#FBBC05" fill-rule="evenodd" d="M4.964 11.712a5.41 5.41 0 0 1-.282-1.71c0-.593.102-1.17.282-1.71V5.96H1.957a9.005 9.005 0 0 0 0 8.084l3.007-2.332Z" clip-rule="evenodd"></path>
  <path fill="#EA4335" fill-rule="evenodd" d="M10.003 4.58c1.321 0 2.508.454 3.44 1.345l2.582-2.58C14.464 1.891 12.428 1 10.002 1A8.996 8.996 0 0 0 1.96 5.958L4.967 8.29c.708-2.127 2.692-3.71 5.036-3.71Z" clip-rule="evenodd"></path>
</svg>