<svg xmlns="http://www.w3.org/2000/svg" width="492" height="41" fill="none" viewBox="0 0 492 41">
  <path fill="#000" d="M26.892 37.372v-3.306c0-.36-.034-.69-.102-.99a2.283 2.283 0 0 0-.33-.792 1.509 1.509 0 0 0-.582-.528c-.236-.124-.524-.186-.864-.186-.312 0-.588.054-.828.162a1.631 1.631 0 0 0-.6.468c-.16.2-.282.444-.366.732a3.517 3.517 0 0 0-.126.984l-.624-.138c0-.664.116-1.222.348-1.674.232-.452.552-.794.96-1.026.408-.232.876-.348 1.404-.348.388 0 .726.06 1.014.18.292.12.538.282.738.486.204.204.368.438.492.702.124.26.214.538.27.834.056.292.084.584.084.876v3.564h-.888Zm-4.686 0v-6.48h.798v1.596h.09v4.884h-.888Zm9.79.18c-.644 0-1.194-.146-1.65-.438a2.85 2.85 0 0 1-1.05-1.212c-.244-.516-.366-1.108-.366-1.776 0-.68.124-1.276.372-1.788s.6-.91 1.056-1.194c.46-.288 1.006-.432 1.638-.432.648 0 1.2.146 1.656.438.46.288.81.69 1.05 1.206.244.512.366 1.102.366 1.77 0 .68-.122 1.278-.366 1.794a2.804 2.804 0 0 1-1.056 1.2c-.46.288-1.01.432-1.65.432Zm0-.846c.72 0 1.256-.238 1.608-.714.352-.48.528-1.102.528-1.866 0-.784-.178-1.408-.534-1.872-.352-.464-.886-.696-1.602-.696-.484 0-.884.11-1.2.33a1.957 1.957 0 0 0-.702.906c-.152.384-.228.828-.228 1.332 0 .78.18 1.406.54 1.878.36.468.89.702 1.59.702Zm4.396.666v-6.48h.792v1.56l-.156-.204c.072-.192.166-.368.282-.528a1.83 1.83 0 0 1 .378-.402 1.71 1.71 0 0 1 .588-.336c.224-.08.45-.126.678-.138.228-.016.436 0 .624.048v.828a2.14 2.14 0 0 0-.774-.042c-.28.032-.538.144-.774.336a1.61 1.61 0 0 0-.486.606c-.108.232-.18.48-.216.744-.036.26-.054.518-.054.774v3.234h-.882Zm12.052 0 .006-4.254c0-.5-.14-.892-.42-1.176-.276-.288-.628-.432-1.056-.432-.244 0-.482.056-.714.168a1.377 1.377 0 0 0-.576.54c-.148.248-.222.572-.222.972l-.522-.15c-.012-.464.078-.87.27-1.218.196-.348.464-.618.804-.81a2.31 2.31 0 0 1 1.164-.294c.652 0 1.174.202 1.566.606.392.4.588.942.588 1.626l-.006 4.422h-.882Zm-7.734 0v-6.48h.792v1.596h.096v4.884h-.888Zm3.876 0 .006-4.194c0-.516-.138-.922-.414-1.218-.272-.3-.632-.45-1.08-.45-.448 0-.81.154-1.086.462-.276.304-.414.71-.414 1.218l-.528-.288c0-.416.098-.788.294-1.116.196-.332.464-.592.804-.78.34-.192.726-.288 1.158-.288.412 0 .778.088 1.098.264.324.176.578.432.762.768.184.336.276.744.276 1.224l-.006 4.398h-.87Zm8.156.18c-.488 0-.898-.088-1.23-.264a1.79 1.79 0 0 1-.738-.702 1.915 1.915 0 0 1-.246-.954c0-.352.07-.652.21-.9.144-.252.338-.458.582-.618.248-.16.534-.282.858-.366.328-.08.69-.15 1.086-.21.4-.064.79-.118 1.17-.162.384-.048.72-.094 1.008-.138l-.312.192c.012-.64-.112-1.114-.372-1.422-.26-.308-.712-.462-1.356-.462-.444 0-.82.1-1.128.3-.304.2-.518.516-.642.948l-.858-.252c.148-.58.446-1.03.894-1.35.448-.32 1.03-.48 1.746-.48.592 0 1.094.112 1.506.336.416.22.71.54.882.96.08.188.132.398.156.63.024.232.036.468.036.708v4.026h-.786v-1.626l.228.096c-.22.556-.562.98-1.026 1.272-.464.292-1.02.438-1.668.438Zm.102-.762c.412 0 .772-.074 1.08-.222.308-.148.556-.35.744-.606.188-.26.31-.552.366-.876.048-.208.074-.436.078-.684.004-.252.006-.44.006-.564l.336.174c-.3.04-.626.08-.978.12-.348.04-.692.086-1.032.138-.336.052-.64.114-.912.186a2.473 2.473 0 0 0-.534.222 1.233 1.233 0 0 0-.426.372.998.998 0 0 0-.162.582c0 .188.046.37.138.546.096.176.248.322.456.438.212.116.492.174.84.174Zm4.832.582v-8.82h.882v8.82h-.882Zm4.306-.006.697-2.598h-2.443l.223-.846h2.447l.51-1.926h-2.441l.227-.846h2.449l.642-2.418h.881l-.654 2.418h2.01l.642-2.418h.883L67.4 31.15h2.442l-.227.846h-2.436l-.523 1.926h2.442l-.227.846h-2.436l-.697 2.598h-.876l.69-2.598h-1.998l-.696 2.598h-.875Zm1.8-3.444h2.005l.51-1.926h-1.998l-.517 1.926Zm7.625 3.45v-8.64h5.4v.846H72.29v2.988h3.798v.846H72.29v3.114h4.518v.846h-5.4Zm6.844 0v-8.64h5.4v.846h-4.518v2.988h3.798v.846h-3.798v3.114h4.518v.846h-5.4Zm9.166.174c-.428 0-.822-.076-1.182-.228a2.67 2.67 0 0 1-.93-.648 2.61 2.61 0 0 1-.57-1.014l.84-.252c.144.428.38.752.708.972.332.22.706.326 1.122.318.384-.008.714-.094.99-.258a1.63 1.63 0 0 0 .642-.684c.148-.292.222-.63.222-1.014 0-.588-.172-1.06-.516-1.416-.34-.36-.79-.54-1.35-.54-.156 0-.32.022-.492.066-.172.04-.332.098-.48.174l-.444-.702 3.36-3.102.144.36h-4.404v-.846h4.992v.858l-2.928 2.796-.012-.348c.6-.076 1.128-.008 1.584.204.456.212.812.536 1.068.972.26.432.39.94.39 1.524 0 .552-.12 1.04-.36 1.464-.236.42-.562.75-.978.99a2.819 2.819 0 0 1-1.416.354Zm6.945.006c-.54 0-1.018-.108-1.434-.324a2.44 2.44 0 0 1-.972-.906c-.232-.392-.348-.85-.348-1.374 0-.536.13-1.012.39-1.428.26-.42.656-.738 1.188-.954l-.012.348a1.949 1.949 0 0 1-1.014-.804 2.29 2.29 0 0 1-.348-1.236c0-.48.11-.892.33-1.236.22-.348.52-.616.9-.804a2.965 2.965 0 0 1 1.32-.282c.496 0 .936.094 1.32.282.384.188.686.456.906.804.22.344.33.756.33 1.236 0 .452-.112.862-.336 1.23-.22.368-.558.638-1.014.81l-.03-.348c.532.212.93.528 1.194.948.268.42.402.898.402 1.434 0 .524-.118.982-.354 1.374a2.43 2.43 0 0 1-.978.906c-.416.216-.896.324-1.44.324Zm0-.846c.544 0 .986-.15 1.326-.45.34-.304.51-.74.51-1.308 0-.576-.168-1.012-.504-1.308-.336-.3-.78-.45-1.332-.45s-.994.15-1.326.45c-.332.296-.498.732-.498 1.308 0 .568.168 1.004.504 1.308.336.3.776.45 1.32.45Zm0-4.368c.48 0 .87-.122 1.17-.366.3-.248.45-.614.45-1.098 0-.484-.15-.846-.45-1.086-.3-.244-.69-.366-1.17-.366s-.87.122-1.17.366c-.296.24-.444.602-.444 1.086 0 .484.148.85.444 1.098.3.244.69.366 1.17.366Zm6.877 5.214a2.82 2.82 0 0 1-1.243-.276 2.87 2.87 0 0 1-.971-.762 2.969 2.969 0 0 1-.577-1.116l.847-.228c.076.312.213.582.413.81.2.224.435.398.703.522.272.124.556.186.852.186.384 0 .728-.092 1.032-.276.308-.188.552-.436.732-.744.18-.308.27-.646.27-1.014 0-.38-.094-.722-.282-1.026a2.103 2.103 0 0 0-.744-.732 1.962 1.962 0 0 0-1.008-.27c-.408 0-.76.09-1.056.27a2.135 2.135 0 0 0-.708.666l-.804-.336.264-4.494h4.614v.846h-4.224l.438-.414-.235 3.834-.222-.294a2.63 2.63 0 0 1 .901-.666c.352-.16.722-.24 1.11-.24.532 0 1.012.128 1.44.384a2.819 2.819 0 0 1 1.398 2.472c0 .528-.134 1.012-.402 1.452a3.085 3.085 0 0 1-1.068 1.05 2.823 2.823 0 0 1-1.47.396Zm7.873 0c-.86 0-1.586-.19-2.178-.57a3.613 3.613 0 0 1-1.344-1.59c-.304-.676-.456-1.456-.456-2.34 0-.884.152-1.664.456-2.34a3.575 3.575 0 0 1 1.344-1.584c.592-.384 1.318-.576 2.178-.576 1.004 0 1.824.258 2.46.774.636.512 1.072 1.2 1.308 2.064l-.9.234c-.184-.684-.514-1.226-.99-1.626-.476-.4-1.102-.6-1.878-.6-.676 0-1.238.154-1.686.462-.448.308-.786.738-1.014 1.29-.224.548-.34 1.182-.348 1.902-.004.72.106 1.354.33 1.902.228.548.568.978 1.02 1.29.456.308 1.022.462 1.698.462.776 0 1.402-.2 1.878-.6.476-.404.806-.946.99-1.626l.9.234c-.236.864-.672 1.554-1.308 2.07-.636.512-1.456.768-2.46.768Zm12.592-4.74c0-.784.096-1.516.288-2.196.2-.68.48-1.312.84-1.896.36-.592.78-1.132 1.26-1.62l.72.372a8.56 8.56 0 0 0-1.188 1.548 7.352 7.352 0 0 0-.78 1.776 7.4 7.4 0 0 0-.264 2.016c0 .712.088 1.384.264 2.016.184.632.444 1.224.78 1.776a9.155 9.155 0 0 0 1.188 1.548l-.72.372a9.467 9.467 0 0 1-1.26-1.62 7.775 7.775 0 0 1-.84-1.896 8.136 8.136 0 0 1-.288-2.196Zm7.014 4.74c-.604 0-1.12-.15-1.548-.45a2.919 2.919 0 0 1-.984-1.23c-.228-.516-.342-1.098-.342-1.746 0-.644.112-1.224.336-1.74.228-.516.554-.924.978-1.224.424-.3.932-.45 1.524-.45.608 0 1.12.148 1.536.444.416.296.73.702.942 1.218.216.512.324 1.096.324 1.752 0 .644-.106 1.226-.318 1.746a2.822 2.822 0 0 1-.936 1.23c-.412.3-.916.45-1.512.45Zm.09-.822c.46 0 .84-.112 1.14-.336.3-.224.524-.532.672-.924.148-.396.222-.844.222-1.344 0-.508-.074-.956-.222-1.344a1.964 1.964 0 0 0-.672-.918c-.296-.22-.67-.33-1.122-.33-.464 0-.848.114-1.152.342-.304.228-.53.538-.678.93a3.807 3.807 0 0 0-.216 1.32c0 .492.074.936.222 1.332.152.392.378.702.678.93.3.228.676.342 1.128.342Zm2.034.642v-4.878h-.096v-3.762h.888v8.64h-.792Zm4.329.18c-.488 0-.898-.088-1.23-.264a1.79 1.79 0 0 1-.738-.702 1.915 1.915 0 0 1-.246-.954c0-.352.07-.652.21-.9.144-.252.338-.458.582-.618.248-.16.534-.282.858-.366.328-.08.69-.15 1.086-.21.4-.064.79-.118 1.17-.162.384-.048.72-.094 1.008-.138l-.312.192c.012-.64-.112-1.114-.372-1.422-.26-.308-.712-.462-1.356-.462-.444 0-.82.1-1.128.3-.304.2-.518.516-.642.948l-.858-.252c.148-.58.446-1.03.894-1.35.448-.32 1.03-.48 1.746-.48.592 0 1.094.112 1.506.336.416.22.71.54.882.96.08.188.132.398.156.63.024.232.036.468.036.708v4.026h-.786v-1.626l.228.096c-.22.556-.562.98-1.026 1.272-.464.292-1.02.438-1.668.438Zm.102-.762c.412 0 .772-.074 1.08-.222.308-.148.556-.35.744-.606.188-.26.31-.552.366-.876.048-.208.074-.436.078-.684.004-.252.006-.44.006-.564l.336.174c-.3.04-.626.08-.978.12-.348.04-.692.086-1.032.138-.336.052-.64.114-.912.186a2.473 2.473 0 0 0-.534.222 1.233 1.233 0 0 0-.426.372.998.998 0 0 0-.162.582c0 .188.046.37.138.546.096.176.248.322.456.438.212.116.492.174.84.174Zm4.712.582v-6.48h.792v1.56l-.156-.204c.072-.192.166-.368.282-.528a1.83 1.83 0 0 1 .378-.402 1.71 1.71 0 0 1 .588-.336c.224-.08.45-.126.678-.138.228-.016.436 0 .624.048v.828a2.14 2.14 0 0 0-.774-.042c-.28.032-.538.144-.774.336a1.61 1.61 0 0 0-.486.606c-.108.232-.18.48-.216.744-.036.26-.054.518-.054.774v3.234h-.882Zm4.319 0 .006-8.64h.888v5.28l2.892-3.12h1.176l-3.036 3.24 3.432 3.24h-1.284l-3.18-3.12v3.12h-.894Zm5.119 1.278v-.756h7.92v.756h-7.92Zm10.388-1.284.696-2.598h-2.442l.222-.846h2.448l.51-1.926h-2.442l.228-.846h2.448l.642-2.418h.882l-.654 2.418h2.01l.642-2.418h.882l-.654 2.418h2.442l-.228.846h-2.436l-.522 1.926h2.442l-.228.846h-2.436l-.696 2.598h-.876l.69-2.598h-1.998l-.696 2.598h-.876Zm1.8-3.444h2.004l.51-1.926h-1.998l-.516 1.926Zm7.624 3.45v-8.64h4.962v.882h-4.08v3h3.36v.876h-3.36v3.882h-.882Zm6.047 0v-8.64h4.962v.882h-4.08v3h3.36v.876h-3.36v3.882h-.882Zm9.734 0v-1.674h-4.044v-.84l2.892-6.126h.99l-2.892 6.126h3.054v-2.52h.888v2.52h.942v.84h-.942v1.674h-.888Zm3.274 0v-8.64h2.622c.092 0 .248.002.468.006.224.004.438.02.642.048.656.092 1.204.336 1.644.732.44.396.77.9.99 1.512.22.612.33 1.286.33 2.022 0 .736-.11 1.41-.33 2.022a3.655 3.655 0 0 1-.99 1.512c-.44.396-.988.64-1.644.732-.2.024-.414.04-.642.048a32.1 32.1 0 0 1-.468.006h-2.622Zm.912-.846h1.71c.164 0 .34-.004.528-.012.192-.012.356-.032.492-.06.504-.088.91-.292 1.218-.612.312-.32.54-.72.684-1.2a5.557 5.557 0 0 0 .216-1.59 5.58 5.58 0 0 0-.216-1.596 2.815 2.815 0 0 0-.684-1.2c-.312-.316-.718-.518-1.218-.606a3.156 3.156 0 0 0-.498-.054 8.436 8.436 0 0 0-.522-.018h-1.71v6.948Zm10.073 1.026c-.54 0-1.032-.13-1.476-.39a3.002 3.002 0 0 1-1.056-1.068 3 3 0 0 1-.39-1.524v-2.994c0-.58.13-1.096.39-1.548.26-.456.614-.814 1.062-1.074a2.989 2.989 0 0 1 1.536-.396c.492 0 .948.108 1.368.324.424.216.77.518 1.038.906l-.678.558a2.054 2.054 0 0 0-1.728-.948c-.404 0-.764.098-1.08.294a2.123 2.123 0 0 0-1.014 1.806v1.884l-.222-.252c.252-.396.582-.716.99-.96a2.59 2.59 0 0 1 1.344-.366 2.819 2.819 0 0 1 2.844 2.862c0 .532-.134 1.016-.402 1.452a2.984 2.984 0 0 1-1.062 1.044c-.44.26-.928.39-1.464.39Zm0-.858c.376 0 .718-.09 1.026-.27.312-.18.558-.424.738-.732.184-.308.276-.65.276-1.026s-.092-.718-.276-1.026a1.994 1.994 0 0 0-.732-.738 1.963 1.963 0 0 0-1.026-.276c-.376 0-.718.092-1.026.276a2.04 2.04 0 0 0-.738.738c-.18.308-.27.65-.27 1.026 0 .372.09.712.27 1.02a1.996 1.996 0 0 0 1.758 1.008Zm4.279.672.006-.804 3.906-3.528c.336-.304.558-.592.666-.864.112-.276.168-.564.168-.864a1.882 1.882 0 0 0-.93-1.65 1.805 1.805 0 0 0-.954-.258c-.368 0-.696.088-.984.264a1.965 1.965 0 0 0-.684.696 1.826 1.826 0 0 0-.24.942h-.9a2.7 2.7 0 0 1 .372-1.41 2.659 2.659 0 0 1 1.008-.978c.424-.24.904-.36 1.44-.36a2.7 2.7 0 0 1 1.41.372c.42.244.75.576.99.996a2.7 2.7 0 0 1 .366 1.392c0 .36-.044.678-.132.954a2.37 2.37 0 0 1-.402.762c-.18.232-.41.472-.69.72l-3.468 3.132-.138-.36h4.83v.846h-5.64Zm9.904-4.554c0 .776-.1 1.508-.3 2.196a7.452 7.452 0 0 1-.828 1.896 9.467 9.467 0 0 1-1.26 1.62l-.72-.372c.456-.48.852-.996 1.188-1.548a7.02 7.02 0 0 0 .768-1.776 7.179 7.179 0 0 0 .276-2.016c0-.72-.092-1.392-.276-2.016a7.02 7.02 0 0 0-.768-1.776 8.56 8.56 0 0 0-1.188-1.548l.72-.372c.48.488.9 1.028 1.26 1.62.36.584.636 1.216.828 1.896.2.68.3 1.412.3 2.196Zm13.368 5.796-.276-.636c.504-.224.884-.508 1.14-.852.256-.352.384-.776.384-1.272l-.228-1.044.648.9a.702.702 0 0 1-.3.216.993.993 0 0 1-.336.06.972.972 0 0 1-.636-.216c-.176-.144-.264-.36-.264-.648 0-.288.092-.504.276-.648.184-.144.396-.216.636-.216.336 0 .592.132.768.396.176.264.264.62.264 1.068 0 .696-.188 1.288-.564 1.776-.368.496-.872.868-1.512 1.116Zm.972-7.764a.94.94 0 0 1-.636-.24.852.852 0 0 1-.276-.66c0-.272.092-.488.276-.648a.915.915 0 0 1 .636-.252c.24 0 .452.084.636.252.184.16.276.376.276.648a.852.852 0 0 1-.276.66.94.94 0 0 1-.636.24Zm11.52 6.528v-3.306c0-.36-.034-.69-.102-.99a2.283 2.283 0 0 0-.33-.792 1.509 1.509 0 0 0-.582-.528c-.236-.124-.524-.186-.864-.186-.312 0-.588.054-.828.162a1.631 1.631 0 0 0-.6.468c-.16.2-.282.444-.366.732a3.517 3.517 0 0 0-.126.984l-.624-.138c0-.664.116-1.222.348-1.674.232-.452.552-.794.96-1.026.408-.232.876-.348 1.404-.348.388 0 .726.06 1.014.18.292.12.538.282.738.486.204.204.368.438.492.702.124.26.214.538.27.834.056.292.084.584.084.876v3.564h-.888Zm-4.686 0v-8.64h.798v4.878h.09v3.762h-.888Zm9.837.18c-.644 0-1.194-.146-1.65-.438a2.85 2.85 0 0 1-1.05-1.212c-.244-.516-.366-1.108-.366-1.776 0-.68.124-1.276.372-1.788s.6-.91 1.056-1.194c.46-.288 1.006-.432 1.638-.432.648 0 1.2.146 1.656.438.46.288.81.69 1.05 1.206.244.512.366 1.102.366 1.77 0 .68-.122 1.278-.366 1.794a2.804 2.804 0 0 1-1.056 1.2c-.46.288-1.01.432-1.65.432Zm0-.846c.72 0 1.256-.238 1.608-.714.352-.48.528-1.102.528-1.866 0-.784-.178-1.408-.534-1.872-.352-.464-.886-.696-1.602-.696-.484 0-.884.11-1.2.33a1.957 1.957 0 0 0-.702.906c-.152.384-.228.828-.228 1.332 0 .78.18 1.406.54 1.878.36.468.89.702 1.59.702Zm5.913.666-2.352-6.48h.894l1.914 5.328 1.902-5.328h.906l-2.352 6.48h-.912Zm6.849.18c-.632 0-1.18-.14-1.644-.42a2.85 2.85 0 0 1-1.074-1.182c-.256-.508-.384-1.104-.384-1.788 0-.708.126-1.32.378-1.836a2.81 2.81 0 0 1 1.062-1.194c.46-.28 1.002-.42 1.626-.42.64 0 1.186.148 1.638.444.452.292.794.712 1.026 1.26.232.548.338 1.202.318 1.962h-.9v-.312c-.016-.84-.198-1.474-.546-1.902-.344-.428-.848-.642-1.512-.642-.696 0-1.23.226-1.602.678-.368.452-.552 1.096-.552 1.932 0 .816.184 1.45.552 1.902.372.448.898.672 1.578.672.464 0 .868-.106 1.212-.318.348-.216.622-.526.822-.93l.822.318a2.94 2.94 0 0 1-1.134 1.314 3.13 3.13 0 0 1-1.686.462Zm-2.478-3.174v-.738h4.95v.738h-4.95Zm6.756 2.994v-6.48h.792v1.56l-.156-.204c.072-.192.166-.368.282-.528a1.83 1.83 0 0 1 .378-.402 1.71 1.71 0 0 1 .588-.336c.224-.08.45-.126.678-.138.228-.016.436 0 .624.048v.828a2.14 2.14 0 0 0-.774-.042c-.28.032-.538.144-.774.336a1.61 1.61 0 0 0-.486.606c-.108.232-.18.48-.216.744-.036.26-.054.518-.054.774v3.234h-.882Zm5.95-.006.696-2.598h-2.442l.222-.846h2.448l.51-1.926h-2.442l.228-.846h2.448l.642-2.418h.882l-.654 2.418h2.01l.642-2.418h.882l-.654 2.418h2.442l-.228.846h-2.436l-.522 1.926h2.442l-.228.846h-2.436l-.696 2.598h-.876l.69-2.598h-1.998l-.696 2.598h-.876Zm1.8-3.444h2.004l.51-1.926h-1.998l-.516 1.926Zm7.625 3.45v-8.64h4.962v.882h-4.08v3h3.36v.876h-3.36v3.882h-.882Zm6.047 0v-8.64h4.962v.882h-4.08v3h3.36v.876h-3.36v3.882h-.882Zm8.597.18c-.448 0-.862-.092-1.242-.276a2.87 2.87 0 0 1-.972-.762 2.969 2.969 0 0 1-.576-1.116l.846-.228c.076.312.214.582.414.81.2.224.434.398.702.522.272.124.556.186.852.186.384 0 .728-.092 1.032-.276.308-.188.552-.436.732-.744.18-.308.27-.646.27-1.014 0-.38-.094-.722-.282-1.026a2.103 2.103 0 0 0-.744-.732 1.962 1.962 0 0 0-1.008-.27c-.408 0-.76.09-1.056.27a2.138 2.138 0 0 0-.708.666l-.804-.336.264-4.494h4.614v.846h-4.224l.438-.414-.234 3.834-.222-.294c.248-.284.548-.506.9-.666.352-.16.722-.24 1.11-.24.532 0 1.012.128 1.44.384a2.819 2.819 0 0 1 1.398 2.472c0 .528-.134 1.012-.402 1.452a3.085 3.085 0 0 1-1.068 1.05 2.823 2.823 0 0 1-1.47.396Zm4.375-.18v-8.64h3.336c.484 0 .906.1 1.266.3.36.2.64.47.84.81.2.336.3.708.3 1.116 0 .464-.124.878-.372 1.242-.248.36-.58.61-.996.75l-.012-.294c.56.16 1 .44 1.32.84.32.4.48.884.48 1.452 0 .5-.106.932-.318 1.296-.212.36-.51.638-.894.834-.384.196-.83.294-1.338.294h-3.612Zm.888-.846h2.508c.352 0 .668-.062.948-.186.28-.128.5-.308.66-.54.164-.232.246-.512.246-.84a1.677 1.677 0 0 0-.828-1.476 1.608 1.608 0 0 0-.864-.234h-2.67v3.276Zm0-4.11h2.442c.276 0 .528-.062.756-.186a1.44 1.44 0 0 0 .744-1.284c0-.408-.142-.74-.426-.996-.28-.256-.638-.384-1.074-.384h-2.442v2.85Zm6.934 4.956 3.18-7.782h-4.002v-.858h4.944v.858l-3.174 7.782h-.948Zm5.561 0v-8.64h3.336c.484 0 .906.1 1.266.3.36.2.64.47.84.81.2.336.3.708.3 1.116 0 .464-.124.878-.372 1.242-.248.36-.58.61-.996.75l-.012-.294c.56.16 1 .44 1.32.84.32.4.48.884.48 1.452 0 .5-.106.932-.318 1.296-.212.36-.51.638-.894.834-.384.196-.83.294-1.338.294h-3.612Zm.888-.846h2.508c.352 0 .668-.062.948-.186.28-.128.5-.308.66-.54.164-.232.246-.512.246-.84a1.677 1.677 0 0 0-.828-1.476 1.608 1.608 0 0 0-.864-.234h-2.67v3.276Zm0-4.11h2.442c.276 0 .528-.062.756-.186a1.44 1.44 0 0 0 .744-1.284c0-.408-.142-.74-.426-.996-.28-.256-.638-.384-1.074-.384h-2.442v2.85Zm9.574 7.11a8.814 8.814 0 0 1-1.218-1.812 10.047 10.047 0 0 1-.78-2.094 9.01 9.01 0 0 1-.264-2.208 9.01 9.01 0 0 1 .264-2.208c.184-.736.444-1.436.78-2.1a8.88 8.88 0 0 1 1.218-1.806l.648.504a9.386 9.386 0 0 0-1.164 1.752 8.443 8.443 0 0 0-.702 1.884 8.849 8.849 0 0 0-.234 1.974c.004.66.084 1.318.24 1.974.16.652.394 1.286.702 1.902a8.718 8.718 0 0 0 1.158 1.722l-.648.516Zm4.04-1.974c-.604 0-1.12-.15-1.548-.45a2.919 2.919 0 0 1-.984-1.23c-.228-.516-.342-1.098-.342-1.746 0-.644.112-1.224.336-1.74.228-.516.554-.924.978-1.224.424-.3.932-.45 1.524-.45.608 0 1.12.148 1.536.444.416.296.73.702.942 1.218.216.512.324 1.096.324 1.752 0 .644-.106 1.226-.318 1.746a2.822 2.822 0 0 1-.936 1.23c-.412.3-.916.45-1.512.45Zm.09-.822c.46 0 .84-.112 1.14-.336.3-.224.524-.532.672-.924.148-.396.222-.844.222-1.344 0-.508-.074-.956-.222-1.344a1.964 1.964 0 0 0-.672-.918c-.296-.22-.67-.33-1.122-.33-.464 0-.848.114-1.152.342-.304.228-.53.538-.678.93a3.807 3.807 0 0 0-.216 1.32c0 .492.074.936.222 1.332.152.392.378.702.678.93.3.228.676.342 1.128.342Zm2.034.642v-4.878h-.096v-3.762h.888v8.64h-.792Zm4.33.18c-.488 0-.898-.088-1.23-.264a1.79 1.79 0 0 1-.738-.702 1.915 1.915 0 0 1-.246-.954c0-.352.07-.652.21-.9.144-.252.338-.458.582-.618.248-.16.534-.282.858-.366.328-.08.69-.15 1.086-.21.4-.064.79-.118 1.17-.162.384-.048.72-.094 1.008-.138l-.312.192c.012-.64-.112-1.114-.372-1.422-.26-.308-.712-.462-1.356-.462-.444 0-.82.1-1.128.3-.304.2-.518.516-.642.948l-.858-.252c.148-.58.446-1.03.894-1.35.448-.32 1.03-.48 1.746-.48.592 0 1.094.112 1.506.336.416.22.71.54.882.96.08.188.132.398.156.63.024.232.036.468.036.708v4.026h-.786v-1.626l.228.096c-.22.556-.562.98-1.026 1.272-.464.292-1.02.438-1.668.438Zm.102-.762c.412 0 .772-.074 1.08-.222.308-.148.556-.35.744-.606.188-.26.31-.552.366-.876.048-.208.074-.436.078-.684.004-.252.006-.44.006-.564l.336.174c-.3.04-.626.08-.978.12-.348.04-.692.086-1.032.138-.336.052-.64.114-.912.186a2.473 2.473 0 0 0-.534.222 1.233 1.233 0 0 0-.426.372.998.998 0 0 0-.162.582c0 .188.046.37.138.546.096.176.248.322.456.438.212.116.492.174.84.174Zm4.712.582v-6.48h.792v1.56l-.156-.204c.072-.192.166-.368.282-.528a1.83 1.83 0 0 1 .378-.402 1.71 1.71 0 0 1 .588-.336c.224-.08.45-.126.678-.138.228-.016.436 0 .624.048v.828a2.14 2.14 0 0 0-.774-.042c-.28.032-.538.144-.774.336a1.61 1.61 0 0 0-.486.606c-.108.232-.18.48-.216.744-.036.26-.054.518-.054.774v3.234h-.882Zm4.318 0 .006-8.64h.888v5.28l2.892-3.12h1.176l-3.036 3.24 3.432 3.24h-1.284l-3.18-3.12v3.12h-.894Zm5.119 1.278v-.756h7.92v.756h-7.92Zm10.388-1.284.696-2.598h-2.442l.222-.846h2.448l.51-1.926h-2.442l.228-.846h2.448l.642-2.418h.882l-.654 2.418h2.01l.642-2.418h.882l-.654 2.418h2.442l-.228.846h-2.436l-.522 1.926h2.442l-.228.846h-2.436l-.696 2.598h-.876l.69-2.598h-1.998l-.696 2.598h-.876Zm1.8-3.444h2.004l.51-1.926h-1.998l-.516 1.926Zm7.625 3.45v-8.64h5.4v.846h-4.518v2.988h3.798v.846h-3.798v3.114h4.518v.846h-5.4Zm6.843 0v-8.64h5.4v.846h-4.518v2.988h3.798v.846h-3.798v3.114h4.518v.846h-5.4Zm9.166.174c-.428 0-.822-.076-1.182-.228a2.67 2.67 0 0 1-.93-.648 2.61 2.61 0 0 1-.57-1.014l.84-.252c.144.428.38.752.708.972.332.22.706.326 1.122.318.384-.008.714-.094.99-.258a1.63 1.63 0 0 0 .642-.684c.148-.292.222-.63.222-1.014 0-.588-.172-1.06-.516-1.416-.34-.36-.79-.54-1.35-.54-.156 0-.32.022-.492.066-.172.04-.332.098-.48.174l-.444-.702 3.36-3.102.144.36h-4.404v-.846h4.992v.858l-2.928 2.796-.012-.348c.6-.076 1.128-.008 1.584.204.456.212.812.536 1.068.972.26.432.39.94.39 1.524 0 .552-.12 1.04-.36 1.464-.236.42-.562.75-.978.99a2.819 2.819 0 0 1-1.416.354Zm6.945.006c-.54 0-1.018-.108-1.434-.324a2.44 2.44 0 0 1-.972-.906c-.232-.392-.348-.85-.348-1.374 0-.536.13-1.012.39-1.428.26-.42.656-.738 1.188-.954l-.012.348a1.949 1.949 0 0 1-1.014-.804 2.29 2.29 0 0 1-.348-1.236c0-.48.11-.892.33-1.236.22-.348.52-.616.9-.804a2.965 2.965 0 0 1 1.32-.282c.496 0 .936.094 1.32.282.384.188.686.456.906.804.22.344.33.756.33 1.236 0 .452-.112.862-.336 1.23-.22.368-.558.638-1.014.81l-.03-.348c.532.212.93.528 1.194.948.268.42.402.898.402 1.434 0 .524-.118.982-.354 1.374a2.43 2.43 0 0 1-.978.906c-.416.216-.896.324-1.44.324Zm0-.846c.544 0 .986-.15 1.326-.45.34-.304.51-.74.51-1.308 0-.576-.168-1.012-.504-1.308-.336-.3-.78-.45-1.332-.45s-.994.15-1.326.45c-.332.296-.498.732-.498 1.308 0 .568.168 1.004.504 1.308.336.3.776.45 1.32.45Zm0-4.368c.48 0 .87-.122 1.17-.366.3-.248.45-.614.45-1.098 0-.484-.15-.846-.45-1.086-.3-.244-.69-.366-1.17-.366s-.87.122-1.17.366c-.296.24-.444.602-.444 1.086 0 .484.148.85.444 1.098.3.244.69.366 1.17.366Zm6.877 5.214c-.448 0-.862-.092-1.242-.276a2.87 2.87 0 0 1-.972-.762 2.969 2.969 0 0 1-.576-1.116l.846-.228c.076.312.214.582.414.81.2.224.434.398.702.522.272.124.556.186.852.186.384 0 .728-.092 1.032-.276.308-.188.552-.436.732-.744.18-.308.27-.646.27-1.014 0-.38-.094-.722-.282-1.026a2.103 2.103 0 0 0-.744-.732 1.962 1.962 0 0 0-1.008-.27c-.408 0-.76.09-1.056.27a2.138 2.138 0 0 0-.708.666l-.804-.336.264-4.494h4.614v.846h-4.224l.438-.414-.234 3.834-.222-.294c.248-.284.548-.506.9-.666.352-.16.722-.24 1.11-.24.532 0 1.012.128 1.44.384a2.819 2.819 0 0 1 1.398 2.472c0 .528-.134 1.012-.402 1.452a3.085 3.085 0 0 1-1.068 1.05 2.823 2.823 0 0 1-1.47.396Zm7.874 0c-.86 0-1.586-.19-2.178-.57a3.613 3.613 0 0 1-1.344-1.59c-.304-.676-.456-1.456-.456-2.34 0-.884.152-1.664.456-2.34a3.575 3.575 0 0 1 1.344-1.584c.592-.384 1.318-.576 2.178-.576 1.004 0 1.824.258 2.46.774.636.512 1.072 1.2 1.308 2.064l-.9.234c-.184-.684-.514-1.226-.99-1.626-.476-.4-1.102-.6-1.878-.6-.676 0-1.238.154-1.686.462-.448.308-.786.738-1.014 1.29-.224.548-.34 1.182-.348 1.902-.004.72.106 1.354.33 1.902.228.548.568.978 1.02 1.29.456.308 1.022.462 1.698.462.776 0 1.402-.2 1.878-.6.476-.404.806-.946.99-1.626l.9.234c-.236.864-.672 1.554-1.308 2.07-.636.512-1.456.768-2.46.768Zm4.707 1.974-.648-.516c.46-.536.844-1.11 1.152-1.722.312-.616.546-1.25.702-1.902.16-.656.242-1.314.246-1.974a8.627 8.627 0 0 0-.936-3.858 9.386 9.386 0 0 0-1.164-1.752l.648-.504c.472.54.876 1.142 1.212 1.806.34.664.6 1.364.78 2.1.184.732.274 1.468.27 2.208a8.828 8.828 0 0 1-.27 2.208c-.18.732-.44 1.43-.78 2.094a8.633 8.633 0 0 1-1.212 1.812Zm4.947-2.154v-1.026h1.026v1.026h-1.026Zm5.567.18c-.652 0-1.204-.146-1.656-.438a2.791 2.791 0 0 1-1.032-1.206c-.232-.516-.352-1.108-.36-1.776.008-.68.132-1.276.372-1.788.24-.516.586-.916 1.038-1.2.452-.288 1-.432 1.644-.432.656 0 1.226.16 1.71.48.488.32.822.758 1.002 1.314l-.864.276a1.825 1.825 0 0 0-.726-.9 2.004 2.004 0 0 0-1.128-.324c-.476 0-.87.11-1.182.33a1.92 1.92 0 0 0-.696.906c-.152.388-.23.834-.234 1.338.008.776.188 1.4.54 1.872.352.468.876.702 1.572.702.44 0 .814-.1 1.122-.3.312-.204.548-.5.708-.888l.888.264c-.24.576-.592 1.016-1.056 1.32-.464.3-1.018.45-1.662.45Zm3.901-.18v-8.82h.882v8.82h-.882Zm2.801-7.71v-.99h.882v.99h-.882Zm0 7.71v-6.48h.882v6.48h-.882Zm5.368.18c-.652 0-1.204-.146-1.656-.438a2.791 2.791 0 0 1-1.032-1.206c-.232-.516-.352-1.108-.36-1.776.008-.68.132-1.276.372-1.788.24-.516.586-.916 1.038-1.2.452-.288 1-.432 1.644-.432.656 0 1.226.16 1.71.48.488.32.822.758 1.002 1.314l-.864.276a1.825 1.825 0 0 0-.726-.9 2.004 2.004 0 0 0-1.128-.324c-.476 0-.87.11-1.182.33a1.92 1.92 0 0 0-.696.906c-.152.388-.23.834-.234 1.338.008.776.188 1.4.54 1.872.352.468.876.702 1.572.702.44 0 .814-.1 1.122-.3.312-.204.548-.5.708-.888l.888.264c-.24.576-.592 1.016-1.056 1.32-.464.3-1.018.45-1.662.45Zm3.951-.18.006-8.64h.888v5.28l2.892-3.12h1.176l-3.036 3.24 3.432 3.24h-1.284l-3.18-3.12v3.12h-.894Zm8.095-7.344h6.096v.78h-6.096v-.78Zm.612 2.04h.828v4.692h-.828v-4.692Zm.444 0h4.392v3.828h-4.392v-.78h3.552v-2.28h-3.552v-.768Zm-2.976-4.152h9.576v.852h-8.7v9.588h-.876v-10.44Zm9.024 0h.888v9.276c0 .272-.04.484-.12.636a.663.663 0 0 1-.384.348c-.176.072-.428.116-.756.132-.32.024-.736.036-1.248.036a1.254 1.254 0 0 0-.072-.288 3.255 3.255 0 0 0-.12-.324 1.351 1.351 0 0 0-.132-.264c.376.008.72.012 1.032.012h.624c.112-.008.188-.036.228-.084.04-.04.06-.112.06-.216v-9.264Zm7.44 9.456v-3.306c0-.36-.034-.69-.102-.99a2.283 2.283 0 0 0-.33-.792 1.509 1.509 0 0 0-.582-.528c-.236-.124-.524-.186-.864-.186-.312 0-.588.054-.828.162a1.631 1.631 0 0 0-.6.468c-.16.2-.282.444-.366.732a3.517 3.517 0 0 0-.126.984l-.624-.138c0-.664.116-1.222.348-1.674.232-.452.552-.794.96-1.026.408-.232.876-.348 1.404-.348.388 0 .726.06 1.014.18.292.12.538.282.738.486.204.204.368.438.492.702.124.26.214.538.27.834.056.292.084.584.084.876v3.564h-.888Zm-4.686 0v-6.48h.798v1.596h.09v4.884h-.888Zm9.79.18c-.644 0-1.194-.146-1.65-.438a2.85 2.85 0 0 1-1.05-1.212c-.244-.516-.366-1.108-.366-1.776 0-.68.124-1.276.372-1.788s.6-.91 1.056-1.194c.46-.288 1.006-.432 1.638-.432.648 0 1.2.146 1.656.438.46.288.81.69 1.05 1.206.244.512.366 1.102.366 1.77 0 .68-.122 1.278-.366 1.794a2.804 2.804 0 0 1-1.056 1.2c-.46.288-1.01.432-1.65.432Zm0-.846c.72 0 1.256-.238 1.608-.714.352-.48.528-1.102.528-1.866 0-.784-.178-1.408-.534-1.872-.352-.464-.886-.696-1.602-.696-.484 0-.884.11-1.2.33a1.957 1.957 0 0 0-.702.906c-.152.384-.228.828-.228 1.332 0 .78.18 1.406.54 1.878.36.468.89.702 1.59.702Zm4.396.666v-6.48h.792v1.56l-.156-.204c.072-.192.166-.368.282-.528a1.83 1.83 0 0 1 .378-.402 1.71 1.71 0 0 1 .588-.336c.224-.08.45-.126.678-.138.228-.016.436 0 .624.048v.828a2.14 2.14 0 0 0-.774-.042c-.28.032-.538.144-.774.336a1.61 1.61 0 0 0-.486.606c-.108.232-.18.48-.216.744-.036.26-.054.518-.054.774v3.234h-.882Zm12.052 0 .006-4.254c0-.5-.14-.892-.42-1.176-.276-.288-.628-.432-1.056-.432-.244 0-.482.056-.714.168a1.377 1.377 0 0 0-.576.54c-.148.248-.222.572-.222.972l-.522-.15c-.012-.464.078-.87.27-1.218.196-.348.464-.618.804-.81a2.31 2.31 0 0 1 1.164-.294c.652 0 1.174.202 1.566.606.392.4.588.942.588 1.626l-.006 4.422h-.882Zm-7.734 0v-6.48h.792v1.596h.096v4.884h-.888Zm3.876 0 .006-4.194c0-.516-.138-.922-.414-1.218-.272-.3-.632-.45-1.08-.45-.448 0-.81.154-1.086.462-.276.304-.414.71-.414 1.218l-.528-.288c0-.416.098-.788.294-1.116.196-.332.464-.592.804-.78.34-.192.726-.288 1.158-.288.412 0 .778.088 1.098.264.324.176.578.432.762.768.184.336.276.744.276 1.224l-.006 4.398h-.87Zm8.156.18c-.488 0-.898-.088-1.23-.264a1.79 1.79 0 0 1-.738-.702 1.915 1.915 0 0 1-.246-.954c0-.352.07-.652.21-.9.144-.252.338-.458.582-.618.248-.16.534-.282.858-.366.328-.08.69-.15 1.086-.21.4-.064.79-.118 1.17-.162.384-.048.72-.094 1.008-.138l-.312.192c.012-.64-.112-1.114-.372-1.422-.26-.308-.712-.462-1.356-.462-.444 0-.82.1-1.128.3-.304.2-.518.516-.642.948l-.858-.252c.148-.58.446-1.03.894-1.35.448-.32 1.03-.48 1.746-.48.592 0 1.094.112 1.506.336.416.22.71.54.882.96.08.188.132.398.156.63.024.232.036.468.036.708v4.026h-.786v-1.626l.228.096c-.22.556-.562.98-1.026 1.272-.464.292-1.02.438-1.668.438Zm.102-.762c.412 0 .772-.074 1.08-.222.308-.148.556-.35.744-.606.188-.26.31-.552.366-.876.048-.208.074-.436.078-.684.004-.252.006-.44.006-.564l.336.174c-.3.04-.626.08-.978.12-.348.04-.692.086-1.032.138-.336.052-.64.114-.912.186a2.473 2.473 0 0 0-.534.222 1.233 1.233 0 0 0-.426.372.998.998 0 0 0-.162.582c0 .188.046.37.138.546.096.176.248.322.456.438.212.116.492.174.84.174Zm4.832.582v-8.82h.882v8.82h-.882Z"></path>
  <path fill="#EE385C" d="M0 28.333h17.029v9.039H0z"></path>
  <path fill="#00A870" d="M0 3.481h17.029v9.039H0z"></path>
  <path fill="#000" d="M26.55 13V9.694c0-.36-.035-.69-.103-.99a2.283 2.283 0 0 0-.33-.792 1.509 1.509 0 0 0-.582-.528c-.236-.124-.524-.186-.864-.186-.312 0-.588.054-.828.162a1.631 1.631 0 0 0-.6.468c-.16.2-.282.444-.366.732a3.517 3.517 0 0 0-.126.984l-.624-.138c0-.664.116-1.222.348-1.674.232-.452.552-.794.96-1.026.408-.232.876-.348 1.404-.348.388 0 .726.06 1.014.18.292.12.538.282.738.486.204.204.368.438.492.702.124.26.214.538.27.834.056.292.084.584.084.876V13h-.888Zm-4.687 0V6.52h.798v1.596h.09V13h-.888Zm9.79.18c-.643 0-1.194-.146-1.65-.438a2.85 2.85 0 0 1-1.05-1.212c-.244-.516-.366-1.108-.366-1.776 0-.68.125-1.276.372-1.788.248-.512.6-.91 1.056-1.194.46-.288 1.006-.432 1.639-.432.647 0 1.2.146 1.655.438.46.288.81.69 1.05 1.206.244.512.366 1.102.366 1.77 0 .68-.122 1.278-.366 1.794a2.804 2.804 0 0 1-1.056 1.2c-.46.288-1.01.432-1.65.432Zm0-.846c.72 0 1.257-.238 1.608-.714.352-.48.528-1.102.528-1.866 0-.784-.178-1.408-.534-1.872-.352-.464-.886-.696-1.602-.696-.483 0-.883.11-1.2.33a1.957 1.957 0 0 0-.701.906 3.601 3.601 0 0 0-.229 1.332c0 .78.18 1.406.54 1.878.36.468.89.702 1.59.702ZM36.05 13V6.52h.792v1.56l-.156-.204c.072-.192.166-.368.282-.528a1.83 1.83 0 0 1 .378-.402 1.71 1.71 0 0 1 .588-.336c.224-.08.45-.126.678-.138.228-.016.436 0 .624.048v.828a2.14 2.14 0 0 0-.774-.042c-.28.032-.538.144-.774.336a1.61 1.61 0 0 0-.486.606c-.108.232-.18.48-.216.744-.036.26-.054.518-.054.774V13h-.882Zm12.052 0 .006-4.254c0-.5-.14-.892-.42-1.176-.276-.288-.628-.432-1.056-.432-.244 0-.482.056-.714.168a1.377 1.377 0 0 0-.576.54c-.148.248-.222.572-.222.972l-.522-.15c-.012-.464.078-.87.27-1.218.196-.348.464-.618.804-.81a2.31 2.31 0 0 1 1.164-.294c.652 0 1.174.202 1.566.606.392.4.588.942.588 1.626L48.983 13h-.882Zm-7.734 0V6.52h.792v1.596h.096V13h-.888Zm3.876 0 .006-4.194c0-.516-.138-.922-.414-1.218-.272-.3-.632-.45-1.08-.45-.448 0-.81.154-1.086.462-.276.304-.414.71-.414 1.218l-.528-.288c0-.416.098-.788.294-1.116.196-.332.464-.592.804-.78.34-.192.726-.288 1.158-.288.412 0 .778.088 1.098.264.324.176.578.432.762.768.184.336.276.744.276 1.224L45.113 13h-.87Zm8.156.18c-.488 0-.898-.088-1.23-.264a1.79 1.79 0 0 1-.738-.702 1.915 1.915 0 0 1-.246-.954c0-.352.07-.652.21-.9.144-.252.338-.458.582-.618.248-.16.534-.282.858-.366.328-.08.69-.15 1.086-.21.4-.064.79-.118 1.17-.162.384-.048.72-.094 1.008-.138l-.312.192c.012-.64-.112-1.114-.372-1.422-.26-.308-.712-.462-1.356-.462-.444 0-.82.1-1.128.3-.304.2-.518.516-.642.948l-.858-.252c.148-.58.446-1.03.894-1.35.448-.32 1.03-.48 1.746-.48.592 0 1.094.112 1.506.336.416.22.71.54.882.96.08.188.132.398.156.63.024.232.036.468.036.708V13h-.786v-1.626l.228.096c-.22.556-.562.98-1.026 1.272-.464.292-1.02.438-1.668.438Zm.102-.762c.412 0 .772-.074 1.08-.222.308-.148.556-.35.744-.606.188-.26.31-.552.366-.876.048-.208.074-.436.078-.684.004-.252.006-.44.006-.564l.336.174c-.3.04-.626.08-.978.12-.348.04-.692.086-1.032.138-.336.052-.64.114-.912.186a2.473 2.473 0 0 0-.534.222 1.233 1.233 0 0 0-.426.372.998.998 0 0 0-.162.582c0 .188.046.37.138.546.096.176.248.322.456.438.212.116.492.174.84.174Zm4.832.582V4.18h.882V13h-.882Zm4.307-.006.696-2.598h-2.442l.222-.846h2.448l.51-1.926h-2.442l.228-.846h2.448l.642-2.418h.882l-.654 2.418h2.01l.642-2.418h.882l-.654 2.418H69.5l-.228.846h-2.436l-.522 1.926h2.442l-.228.846h-2.436l-.696 2.598h-.876l.69-2.598h-1.998l-.696 2.598h-.876Zm1.8-3.444h2.004l.51-1.926h-1.998L63.44 9.55Zm10.445 3.63a2.82 2.82 0 0 1-1.44-.372 2.768 2.768 0 0 1-1.008-1.008 2.82 2.82 0 0 1-.372-1.44V7a2.787 2.787 0 0 1 1.38-2.448 2.82 2.82 0 0 1 1.44-.372c.532 0 1.01.124 1.434.372a2.74 2.74 0 0 1 1.014 1.014c.248.424.372.902.372 1.434v3.36a2.82 2.82 0 0 1-.372 1.44 2.787 2.787 0 0 1-2.448 1.38Zm0-.852c.356 0 .68-.086.972-.258.292-.176.524-.41.696-.702.172-.292.258-.614.258-.966V6.958c0-.356-.086-.68-.258-.972a1.935 1.935 0 0 0-.696-.696 1.847 1.847 0 0 0-.972-.264c-.356 0-.68.088-.972.264a1.935 1.935 0 0 0-.696.696 1.88 1.88 0 0 0-.258.972v3.444c0 .352.086.674.258.966.172.292.404.526.696.702.292.172.616.258.972.258Zm7.324.852a2.82 2.82 0 0 1-1.44-.372 2.768 2.768 0 0 1-1.008-1.008 2.82 2.82 0 0 1-.372-1.44V7a2.787 2.787 0 0 1 1.38-2.448 2.82 2.82 0 0 1 1.44-.372c.532 0 1.01.124 1.434.372a2.74 2.74 0 0 1 1.014 1.014c.248.424.372.902.372 1.434v3.36a2.82 2.82 0 0 1-.372 1.44 2.787 2.787 0 0 1-2.448 1.38Zm0-.852c.356 0 .68-.086.972-.258.292-.176.524-.41.696-.702.172-.292.258-.614.258-.966V6.958c0-.356-.086-.68-.258-.972a1.935 1.935 0 0 0-.696-.696 1.847 1.847 0 0 0-.972-.264c-.356 0-.68.088-.972.264a1.935 1.935 0 0 0-.696.696 1.88 1.88 0 0 0-.258.972v3.444c0 .352.086.674.258.966.172.292.404.526.696.702.292.172.616.258.972.258Zm3.904.672 2.976-8.64h1.17L92.235 13h-.918l-2.826-8.148h.348L86.031 13h-.918Zm1.326-2.094v-.828h4.464v.828H86.44Zm9.514 2.274c-.54 0-1.018-.108-1.434-.324a2.44 2.44 0 0 1-.972-.906c-.232-.392-.348-.85-.348-1.374 0-.536.13-1.012.39-1.428.26-.42.656-.738 1.188-.954l-.012.348a1.949 1.949 0 0 1-1.014-.804 2.29 2.29 0 0 1-.348-1.236c0-.48.11-.892.33-1.236.22-.348.52-.616.9-.804a2.965 2.965 0 0 1 1.32-.282c.496 0 .936.094 1.32.282.384.188.686.456.906.804.22.344.33.756.33 1.236 0 .452-.112.862-.336 1.23-.22.368-.558.638-1.014.81l-.03-.348c.532.212.93.528 1.194.948.268.42.402.898.402 1.434 0 .524-.118.982-.354 1.374a2.43 2.43 0 0 1-.978.906c-.416.216-.896.324-1.44.324Zm0-.846c.544 0 .986-.15 1.326-.45.34-.304.51-.74.51-1.308 0-.576-.168-1.012-.504-1.308-.336-.3-.78-.45-1.332-.45s-.994.15-1.326.45c-.332.296-.498.732-.498 1.308 0 .568.168 1.004.504 1.308.336.3.776.45 1.32.45Zm0-4.368c.48 0 .87-.122 1.17-.366.3-.248.45-.614.45-1.098 0-.484-.15-.846-.45-1.086-.3-.244-.69-.366-1.17-.366s-.87.122-1.17.366c-.296.24-.444.602-.444 1.086 0 .484.148.85.444 1.098.3.244.69.366 1.17.366ZM100.742 13l3.18-7.782H99.92V4.36h4.944v.858L101.69 13h-.948Zm8.381.18a2.82 2.82 0 0 1-1.44-.372 2.768 2.768 0 0 1-1.008-1.008 2.82 2.82 0 0 1-.372-1.44V7a2.787 2.787 0 0 1 1.38-2.448 2.82 2.82 0 0 1 1.44-.372c.532 0 1.01.124 1.434.372a2.74 2.74 0 0 1 1.014 1.014c.248.424.372.902.372 1.434v3.36a2.82 2.82 0 0 1-.372 1.44 2.787 2.787 0 0 1-2.448 1.38Zm0-.852c.356 0 .68-.086.972-.258.292-.176.524-.41.696-.702.172-.292.258-.614.258-.966V6.958c0-.356-.086-.68-.258-.972a1.935 1.935 0 0 0-.696-.696 1.847 1.847 0 0 0-.972-.264c-.356 0-.68.088-.972.264a1.935 1.935 0 0 0-.696.696 1.88 1.88 0 0 0-.258.972v3.444c0 .352.086.674.258.966.172.292.404.526.696.702.292.172.616.258.972.258Zm12.004-3.888c0-.784.096-1.516.288-2.196.2-.68.48-1.312.84-1.896.36-.592.78-1.132 1.26-1.62l.72.372a8.56 8.56 0 0 0-1.188 1.548 7.352 7.352 0 0 0-.78 1.776 7.4 7.4 0 0 0-.264 2.016c0 .712.088 1.384.264 2.016.184.632.444 1.224.78 1.776a9.155 9.155 0 0 0 1.188 1.548l-.72.372a9.467 9.467 0 0 1-1.26-1.62 7.775 7.775 0 0 1-.84-1.896 8.136 8.136 0 0 1-.288-2.196Zm7.014 4.74c-.604 0-1.12-.15-1.548-.45a2.919 2.919 0 0 1-.984-1.23c-.228-.516-.342-1.098-.342-1.746 0-.644.112-1.224.336-1.74.228-.516.554-.924.978-1.224.424-.3.932-.45 1.524-.45.608 0 1.12.148 1.536.444.416.296.73.702.942 1.218.216.512.324 1.096.324 1.752 0 .644-.106 1.226-.318 1.746a2.822 2.822 0 0 1-.936 1.23c-.412.3-.916.45-1.512.45Zm.09-.822c.46 0 .84-.112 1.14-.336.3-.224.524-.532.672-.924.148-.396.222-.844.222-1.344 0-.508-.074-.956-.222-1.344a1.964 1.964 0 0 0-.672-.918c-.296-.22-.67-.33-1.122-.33-.464 0-.848.114-1.152.342-.304.228-.53.538-.678.93a3.807 3.807 0 0 0-.216 1.32c0 .492.074.936.222 1.332.152.392.378.702.678.93.3.228.676.342 1.128.342Zm2.034.642V8.122h-.096V4.36h.888V13h-.792Zm4.33.18c-.488 0-.898-.088-1.23-.264a1.79 1.79 0 0 1-.738-.702 1.915 1.915 0 0 1-.246-.954c0-.352.07-.652.21-.9.144-.252.338-.458.582-.618.248-.16.534-.282.858-.366.328-.08.69-.15 1.086-.21.4-.064.79-.118 1.17-.162.384-.048.72-.094 1.008-.138l-.312.192c.012-.64-.112-1.114-.372-1.422-.26-.308-.712-.462-1.356-.462-.444 0-.82.1-1.128.3-.304.2-.518.516-.642.948l-.858-.252c.148-.58.446-1.03.894-1.35.448-.32 1.03-.48 1.746-.48.592 0 1.094.112 1.506.336.416.22.71.54.882.96.08.188.132.398.156.63.024.232.036.468.036.708V13h-.786v-1.626l.228.096c-.22.556-.562.98-1.026 1.272-.464.292-1.02.438-1.668.438Zm.102-.762c.412 0 .772-.074 1.08-.222.308-.148.556-.35.744-.606.188-.26.31-.552.366-.876.048-.208.074-.436.078-.684.004-.252.006-.44.006-.564l.336.174c-.3.04-.626.08-.978.12-.348.04-.692.086-1.032.138-.336.052-.64.114-.912.186a2.473 2.473 0 0 0-.534.222 1.233 1.233 0 0 0-.426.372.998.998 0 0 0-.162.582c0 .188.046.37.138.546.096.176.248.322.456.438.212.116.492.174.84.174Zm4.711.582V6.52h.792v1.56l-.156-.204c.072-.192.166-.368.282-.528a1.83 1.83 0 0 1 .378-.402 1.71 1.71 0 0 1 .588-.336c.224-.08.45-.126.678-.138.228-.016.436 0 .624.048v.828a2.14 2.14 0 0 0-.774-.042c-.28.032-.538.144-.774.336a1.61 1.61 0 0 0-.486.606c-.108.232-.18.48-.216.744-.036.26-.054.518-.054.774V13h-.882Zm4.319 0 .006-8.64h.888v5.28l2.892-3.12h1.176l-3.036 3.24 3.432 3.24h-1.284l-3.18-3.12V13h-.894Zm5.119 1.278v-.756h7.92v.756h-7.92Zm10.388-1.284.696-2.598h-2.442l.222-.846h2.448l.51-1.926h-2.442l.228-.846h2.448l.642-2.418h.882l-.654 2.418h2.01l.642-2.418h.882l-.654 2.418h2.442l-.228.846h-2.436l-.522 1.926h2.442l-.228.846h-2.436l-.696 2.598h-.876l.69-2.598h-1.998l-.696 2.598h-.876Zm1.8-3.444h2.004l.51-1.926h-1.998l-.516 1.926Zm10.444 3.63a2.82 2.82 0 0 1-1.44-.372 2.768 2.768 0 0 1-1.008-1.008 2.82 2.82 0 0 1-.372-1.44V7a2.787 2.787 0 0 1 1.38-2.448 2.82 2.82 0 0 1 1.44-.372c.532 0 1.01.124 1.434.372a2.74 2.74 0 0 1 1.014 1.014c.248.424.372.902.372 1.434v3.36a2.82 2.82 0 0 1-.372 1.44 2.787 2.787 0 0 1-2.448 1.38Zm0-.852c.356 0 .68-.086.972-.258.292-.176.524-.41.696-.702.172-.292.258-.614.258-.966V6.958c0-.356-.086-.68-.258-.972a1.935 1.935 0 0 0-.696-.696 1.847 1.847 0 0 0-.972-.264c-.356 0-.68.088-.972.264a1.935 1.935 0 0 0-.696.696 1.88 1.88 0 0 0-.258.972v3.444c0 .352.086.674.258.966.172.292.404.526.696.702.292.172.616.258.972.258Zm7.325.852a2.82 2.82 0 0 1-1.44-.372 2.768 2.768 0 0 1-1.008-1.008 2.82 2.82 0 0 1-.372-1.44V7a2.787 2.787 0 0 1 1.38-2.448 2.82 2.82 0 0 1 1.44-.372c.532 0 1.01.124 1.434.372a2.74 2.74 0 0 1 1.014 1.014c.248.424.372.902.372 1.434v3.36a2.82 2.82 0 0 1-.372 1.44 2.787 2.787 0 0 1-2.448 1.38Zm0-.852c.356 0 .68-.086.972-.258.292-.176.524-.41.696-.702.172-.292.258-.614.258-.966V6.958c0-.356-.086-.68-.258-.972a1.935 1.935 0 0 0-.696-.696 1.847 1.847 0 0 0-.972-.264c-.356 0-.68.088-.972.264a1.935 1.935 0 0 0-.696.696 1.88 1.88 0 0 0-.258.972v3.444c0 .352.086.674.258.966.172.292.404.526.696.702.292.172.616.258.972.258Zm3.904.672 2.976-8.64h1.17l2.976 8.64h-.918l-2.826-8.148h.348L183.625 13h-.918Zm1.326-2.094v-.828h4.464v.828h-4.464Zm9.513 2.274c-.54 0-1.018-.108-1.434-.324a2.44 2.44 0 0 1-.972-.906c-.232-.392-.348-.85-.348-1.374 0-.536.13-1.012.39-1.428.26-.42.656-.738 1.188-.954l-.012.348a1.949 1.949 0 0 1-1.014-.804 2.29 2.29 0 0 1-.348-1.236c0-.48.11-.892.33-1.236.22-.348.52-.616.9-.804a2.965 2.965 0 0 1 1.32-.282c.496 0 .936.094 1.32.282.384.188.686.456.906.804.22.344.33.756.33 1.236 0 .452-.112.862-.336 1.23-.22.368-.558.638-1.014.81l-.03-.348c.532.212.93.528 1.194.948.268.42.402.898.402 1.434 0 .524-.118.982-.354 1.374a2.43 2.43 0 0 1-.978.906c-.416.216-.896.324-1.44.324Zm0-.846c.544 0 .986-.15 1.326-.45.34-.304.51-.74.51-1.308 0-.576-.168-1.012-.504-1.308-.336-.3-.78-.45-1.332-.45s-.994.15-1.326.45c-.332.296-.498.732-.498 1.308 0 .568.168 1.004.504 1.308.336.3.776.45 1.32.45Zm0-4.368c.48 0 .87-.122 1.17-.366.3-.248.45-.614.45-1.098 0-.484-.15-.846-.45-1.086-.3-.244-.69-.366-1.17-.366s-.87.122-1.17.366c-.296.24-.444.602-.444 1.086 0 .484.148.85.444 1.098.3.244.69.366 1.17.366ZM198.335 13l3.18-7.782h-4.002V4.36h4.944v.858L199.283 13h-.948Zm8.382.18a2.82 2.82 0 0 1-1.44-.372 2.768 2.768 0 0 1-1.008-1.008 2.82 2.82 0 0 1-.372-1.44V7a2.787 2.787 0 0 1 1.38-2.448 2.82 2.82 0 0 1 1.44-.372c.532 0 1.01.124 1.434.372a2.74 2.74 0 0 1 1.014 1.014c.248.424.372.902.372 1.434v3.36a2.82 2.82 0 0 1-.372 1.44 2.787 2.787 0 0 1-2.448 1.38Zm0-.852c.356 0 .68-.086.972-.258.292-.176.524-.41.696-.702.172-.292.258-.614.258-.966V6.958c0-.356-.086-.68-.258-.972a1.935 1.935 0 0 0-.696-.696 1.847 1.847 0 0 0-.972-.264c-.356 0-.68.088-.972.264a1.935 1.935 0 0 0-.696.696 1.88 1.88 0 0 0-.258.972v3.444c0 .352.086.674.258.966.172.292.404.526.696.702.292.172.616.258.972.258Zm7.324-3.888c0 .776-.1 1.508-.3 2.196a7.452 7.452 0 0 1-.828 1.896 9.467 9.467 0 0 1-1.26 1.62l-.72-.372c.456-.48.852-.996 1.188-1.548a7.02 7.02 0 0 0 .768-1.776 7.179 7.179 0 0 0 .276-2.016c0-.72-.092-1.392-.276-2.016a7.02 7.02 0 0 0-.768-1.776 8.56 8.56 0 0 0-1.188-1.548l.72-.372c.48.488.9 1.028 1.26 1.62.36.584.636 1.216.828 1.896.2.68.3 1.412.3 2.196Zm13.368 5.796-.276-.636c.504-.224.884-.508 1.14-.852.256-.352.384-.776.384-1.272l-.228-1.044.648.9a.702.702 0 0 1-.3.216.993.993 0 0 1-.336.06.972.972 0 0 1-.636-.216c-.176-.144-.264-.36-.264-.648 0-.288.092-.504.276-.648.184-.144.396-.216.636-.216.336 0 .592.132.768.396.176.264.264.62.264 1.068 0 .696-.188 1.288-.564 1.776-.368.496-.872.868-1.512 1.116Zm.972-7.764a.94.94 0 0 1-.636-.24.852.852 0 0 1-.276-.66c0-.272.092-.488.276-.648a.915.915 0 0 1 .636-.252c.24 0 .452.084.636.252.184.16.276.376.276.648a.852.852 0 0 1-.276.66.94.94 0 0 1-.636.24ZM239.901 13V9.694c0-.36-.034-.69-.102-.99a2.283 2.283 0 0 0-.33-.792 1.509 1.509 0 0 0-.582-.528c-.236-.124-.524-.186-.864-.186-.312 0-.588.054-.828.162a1.631 1.631 0 0 0-.6.468c-.16.2-.282.444-.366.732a3.517 3.517 0 0 0-.126.984l-.624-.138c0-.664.116-1.222.348-1.674.232-.452.552-.794.96-1.026.408-.232.876-.348 1.404-.348.388 0 .726.06 1.014.18.292.12.538.282.738.486.204.204.368.438.492.702.124.26.214.538.27.834.056.292.084.584.084.876V13h-.888Zm-4.686 0V4.36h.798v4.878h.09V13h-.888Zm9.837.18c-.644 0-1.194-.146-1.65-.438a2.85 2.85 0 0 1-1.05-1.212c-.244-.516-.366-1.108-.366-1.776 0-.68.124-1.276.372-1.788s.6-.91 1.056-1.194c.46-.288 1.006-.432 1.638-.432.648 0 1.2.146 1.656.438.46.288.81.69 1.05 1.206.244.512.366 1.102.366 1.77 0 .68-.122 1.278-.366 1.794a2.804 2.804 0 0 1-1.056 1.2c-.46.288-1.01.432-1.65.432Zm0-.846c.72 0 1.256-.238 1.608-.714.352-.48.528-1.102.528-1.866 0-.784-.178-1.408-.534-1.872-.352-.464-.886-.696-1.602-.696-.484 0-.884.11-1.2.33a1.957 1.957 0 0 0-.702.906c-.152.384-.228.828-.228 1.332 0 .78.18 1.406.54 1.878.36.468.89.702 1.59.702Zm5.913.666-2.352-6.48h.894l1.914 5.328 1.902-5.328h.906L251.877 13h-.912Zm6.85.18c-.632 0-1.18-.14-1.644-.42a2.85 2.85 0 0 1-1.074-1.182c-.256-.508-.384-1.104-.384-1.788 0-.708.126-1.32.378-1.836a2.81 2.81 0 0 1 1.062-1.194c.46-.28 1.002-.42 1.626-.42.64 0 1.186.148 1.638.444.452.292.794.712 1.026 1.26.232.548.338 1.202.318 1.962h-.9v-.312c-.016-.84-.198-1.474-.546-1.902-.344-.428-.848-.642-1.512-.642-.696 0-1.23.226-1.602.678-.368.452-.552 1.096-.552 1.932 0 .816.184 1.45.552 1.902.372.448.898.672 1.578.672.464 0 .868-.106 1.212-.318.348-.216.622-.526.822-.93l.822.318a2.94 2.94 0 0 1-1.134 1.314 3.13 3.13 0 0 1-1.686.462Zm-2.478-3.174v-.738h4.95v.738h-4.95ZM262.092 13V6.52h.792v1.56l-.156-.204c.072-.192.166-.368.282-.528a1.83 1.83 0 0 1 .378-.402 1.71 1.71 0 0 1 .588-.336c.224-.08.45-.126.678-.138.228-.016.436 0 .624.048v.828a2.14 2.14 0 0 0-.774-.042c-.28.032-.538.144-.774.336a1.61 1.61 0 0 0-.486.606c-.108.232-.18.48-.216.744-.036.26-.054.518-.054.774V13h-.882Zm5.95-.006.696-2.598h-2.442l.222-.846h2.448l.51-1.926h-2.442l.228-.846h2.448l.642-2.418h.882l-.654 2.418h2.01l.642-2.418h.882l-.654 2.418h2.442l-.228.846h-2.436l-.522 1.926h2.442l-.228.846h-2.436l-.696 2.598h-.876l.69-2.598h-1.998l-.696 2.598h-.876Zm1.8-3.444h2.004l.51-1.926h-1.998l-.516 1.926Zm10.445 3.63a2.82 2.82 0 0 1-1.44-.372 2.768 2.768 0 0 1-1.008-1.008 2.82 2.82 0 0 1-.372-1.44V7a2.787 2.787 0 0 1 1.38-2.448 2.82 2.82 0 0 1 1.44-.372c.532 0 1.01.124 1.434.372a2.74 2.74 0 0 1 1.014 1.014c.248.424.372.902.372 1.434v3.36a2.82 2.82 0 0 1-.372 1.44 2.787 2.787 0 0 1-2.448 1.38Zm0-.852c.356 0 .68-.086.972-.258.292-.176.524-.41.696-.702.172-.292.258-.614.258-.966V6.958c0-.356-.086-.68-.258-.972a1.935 1.935 0 0 0-.696-.696 1.847 1.847 0 0 0-.972-.264c-.356 0-.68.088-.972.264a1.935 1.935 0 0 0-.696.696 1.88 1.88 0 0 0-.258.972v3.444c0 .352.086.674.258.966.172.292.404.526.696.702.292.172.616.258.972.258Zm7.054.852c-.448 0-.862-.092-1.242-.276a2.87 2.87 0 0 1-.972-.762 2.969 2.969 0 0 1-.576-1.116l.846-.228c.076.312.214.582.414.81.2.224.434.398.702.522.272.124.556.186.852.186.384 0 .728-.092 1.032-.276.308-.188.552-.436.732-.744.18-.308.27-.646.27-1.014 0-.38-.094-.722-.282-1.026a2.103 2.103 0 0 0-.744-.732 1.962 1.962 0 0 0-1.008-.27c-.408 0-.76.09-1.056.27a2.138 2.138 0 0 0-.708.666l-.804-.336.264-4.494h4.614v.846h-4.224l.438-.414-.234 3.834-.222-.294c.248-.284.548-.506.9-.666.352-.16.722-.24 1.11-.24.532 0 1.012.128 1.44.384a2.819 2.819 0 0 1 1.398 2.472c0 .528-.134 1.012-.402 1.452a3.085 3.085 0 0 1-1.068 1.05 2.823 2.823 0 0 1-1.47.396Zm7.874 0c-.86 0-1.586-.19-2.178-.57a3.613 3.613 0 0 1-1.344-1.59c-.304-.676-.456-1.456-.456-2.34 0-.884.152-1.664.456-2.34a3.575 3.575 0 0 1 1.344-1.584c.592-.384 1.318-.576 2.178-.576 1.004 0 1.824.258 2.46.774.636.512 1.072 1.2 1.308 2.064l-.9.234c-.184-.684-.514-1.226-.99-1.626-.476-.4-1.102-.6-1.878-.6-.676 0-1.238.154-1.686.462-.448.308-.786.738-1.014 1.29-.224.548-.34 1.182-.348 1.902-.004.72.106 1.354.33 1.902.228.548.568.978 1.02 1.29.456.308 1.022.462 1.698.462.776 0 1.402-.2 1.878-.6.476-.404.806-.946.99-1.626l.9.234c-.236.864-.672 1.554-1.308 2.07-.636.512-1.456.768-2.46.768Zm6.598-.18V5.344l-1.626.978v-.99l1.626-.972h.894V13h-.894Zm3.632 0 3.18-7.782h-4.002V4.36h4.944v.858L306.393 13h-.948Zm8.195.18c-.54 0-1.018-.108-1.434-.324a2.44 2.44 0 0 1-.972-.906c-.232-.392-.348-.85-.348-1.374 0-.536.13-1.012.39-1.428.26-.42.656-.738 1.188-.954l-.012.348a1.949 1.949 0 0 1-1.014-.804 2.29 2.29 0 0 1-.348-1.236c0-.48.11-.892.33-1.236.22-.348.52-.616.9-.804a2.965 2.965 0 0 1 1.32-.282c.496 0 .936.094 1.32.282.384.188.686.456.906.804.22.344.33.756.33 1.236 0 .452-.112.862-.336 1.23-.22.368-.558.638-1.014.81l-.03-.348c.532.212.93.528 1.194.948.268.42.402.898.402 1.434 0 .524-.118.982-.354 1.374a2.43 2.43 0 0 1-.978.906c-.416.216-.896.324-1.44.324Zm0-.846c.544 0 .986-.15 1.326-.45.34-.304.51-.74.51-1.308 0-.576-.168-1.012-.504-1.308-.336-.3-.78-.45-1.332-.45s-.994.15-1.326.45c-.332.296-.498.732-.498 1.308 0 .568.168 1.004.504 1.308.336.3.776.45 1.32.45Zm0-4.368c.48 0 .87-.122 1.17-.366.3-.248.45-.614.45-1.098 0-.484-.15-.846-.45-1.086-.3-.244-.69-.366-1.17-.366s-.87.122-1.17.366c-.296.24-.444.602-.444 1.086 0 .484.148.85.444 1.098.3.244.69.366 1.17.366Zm7.429 7.188a8.814 8.814 0 0 1-1.218-1.812 10.047 10.047 0 0 1-.78-2.094 9.01 9.01 0 0 1-.264-2.208 9.01 9.01 0 0 1 .264-2.208c.184-.736.444-1.436.78-2.1a8.88 8.88 0 0 1 1.218-1.806l.648.504a9.386 9.386 0 0 0-1.164 1.752 8.443 8.443 0 0 0-.702 1.884 8.849 8.849 0 0 0-.234 1.974c.004.66.084 1.318.24 1.974.16.652.394 1.286.702 1.902a8.718 8.718 0 0 0 1.158 1.722l-.648.516Zm4.041-1.974c-.604 0-1.12-.15-1.548-.45a2.919 2.919 0 0 1-.984-1.23c-.228-.516-.342-1.098-.342-1.746 0-.644.112-1.224.336-1.74.228-.516.554-.924.978-1.224.424-.3.932-.45 1.524-.45.608 0 1.12.148 1.536.444.416.296.73.702.942 1.218.216.512.324 1.096.324 1.752 0 .644-.106 1.226-.318 1.746a2.822 2.822 0 0 1-.936 1.23c-.412.3-.916.45-1.512.45Zm.09-.822c.46 0 .84-.112 1.14-.336.3-.224.524-.532.672-.924.148-.396.222-.844.222-1.344 0-.508-.074-.956-.222-1.344a1.964 1.964 0 0 0-.672-.918c-.296-.22-.67-.33-1.122-.33-.464 0-.848.114-1.152.342-.304.228-.53.538-.678.93a3.807 3.807 0 0 0-.216 1.32c0 .492.074.936.222 1.332.152.392.378.702.678.93.3.228.676.342 1.128.342Zm2.034.642V8.122h-.096V4.36h.888V13h-.792Zm4.329.18c-.488 0-.898-.088-1.23-.264a1.79 1.79 0 0 1-.738-.702 1.915 1.915 0 0 1-.246-.954c0-.352.07-.652.21-.9.144-.252.338-.458.582-.618.248-.16.534-.282.858-.366.328-.08.69-.15 1.086-.21.4-.064.79-.118 1.17-.162.384-.048.72-.094 1.008-.138l-.312.192c.012-.64-.112-1.114-.372-1.422-.26-.308-.712-.462-1.356-.462-.444 0-.82.1-1.128.3-.304.2-.518.516-.642.948l-.858-.252c.148-.58.446-1.03.894-1.35.448-.32 1.03-.48 1.746-.48.592 0 1.094.112 1.506.336.416.22.71.54.882.96.08.188.132.398.156.63.024.232.036.468.036.708V13h-.786v-1.626l.228.096c-.22.556-.562.98-1.026 1.272-.464.292-1.02.438-1.668.438Zm.102-.762c.412 0 .772-.074 1.08-.222.308-.148.556-.35.744-.606.188-.26.31-.552.366-.876.048-.208.074-.436.078-.684.004-.252.006-.44.006-.564l.336.174c-.3.04-.626.08-.978.12-.348.04-.692.086-1.032.138-.336.052-.64.114-.912.186a2.473 2.473 0 0 0-.534.222 1.233 1.233 0 0 0-.426.372.998.998 0 0 0-.162.582c0 .188.046.37.138.546.096.176.248.322.456.438.212.116.492.174.84.174Zm4.712.582V6.52h.792v1.56l-.156-.204c.072-.192.166-.368.282-.528a1.83 1.83 0 0 1 .378-.402 1.71 1.71 0 0 1 .588-.336c.224-.08.45-.126.678-.138.228-.016.436 0 .624.048v.828a2.14 2.14 0 0 0-.774-.042c-.28.032-.538.144-.774.336a1.61 1.61 0 0 0-.486.606c-.108.232-.18.48-.216.744-.036.26-.054.518-.054.774V13h-.882Zm4.318 0 .006-8.64h.888v5.28l2.892-3.12h1.176l-3.036 3.24 3.432 3.24h-1.284l-3.18-3.12V13h-.894Zm5.12 1.278v-.756h7.92v.756h-7.92Zm10.387-1.284.696-2.598h-2.442l.222-.846h2.448l.51-1.926h-2.442l.228-.846h2.448l.642-2.418h.882l-.654 2.418h2.01l.642-2.418h.882l-.654 2.418h2.442l-.228.846h-2.436l-.522 1.926h2.442l-.228.846h-2.436l-.696 2.598h-.876l.69-2.598h-1.998l-.696 2.598h-.876Zm1.8-3.444h2.004l.51-1.926h-1.998l-.516 1.926Zm10.445 3.63a2.82 2.82 0 0 1-1.44-.372 2.768 2.768 0 0 1-1.008-1.008 2.82 2.82 0 0 1-.372-1.44V7a2.787 2.787 0 0 1 1.38-2.448 2.82 2.82 0 0 1 1.44-.372c.532 0 1.01.124 1.434.372a2.74 2.74 0 0 1 1.014 1.014c.248.424.372.902.372 1.434v3.36a2.82 2.82 0 0 1-.372 1.44 2.787 2.787 0 0 1-2.448 1.38Zm0-.852c.356 0 .68-.086.972-.258.292-.176.524-.41.696-.702.172-.292.258-.614.258-.966V6.958c0-.356-.086-.68-.258-.972a1.935 1.935 0 0 0-.696-.696 1.847 1.847 0 0 0-.972-.264c-.356 0-.68.088-.972.264a1.935 1.935 0 0 0-.696.696 1.88 1.88 0 0 0-.258.972v3.444c0 .352.086.674.258.966.172.292.404.526.696.702.292.172.616.258.972.258Zm7.324.852a2.82 2.82 0 0 1-1.44-.372 2.768 2.768 0 0 1-1.008-1.008 2.82 2.82 0 0 1-.372-1.44V7a2.787 2.787 0 0 1 1.38-2.448 2.82 2.82 0 0 1 1.44-.372c.532 0 1.01.124 1.434.372a2.74 2.74 0 0 1 1.014 1.014c.248.424.372.902.372 1.434v3.36a2.82 2.82 0 0 1-.372 1.44 2.787 2.787 0 0 1-2.448 1.38Zm0-.852c.356 0 .68-.086.972-.258.292-.176.524-.41.696-.702.172-.292.258-.614.258-.966V6.958c0-.356-.086-.68-.258-.972a1.935 1.935 0 0 0-.696-.696 1.847 1.847 0 0 0-.972-.264c-.356 0-.68.088-.972.264a1.935 1.935 0 0 0-.696.696 1.88 1.88 0 0 0-.258.972v3.444c0 .352.086.674.258.966.172.292.404.526.696.702.292.172.616.258.972.258Zm4.505.672V4.36h3.336c.484 0 .906.1 1.266.3.36.2.64.47.84.81.2.336.3.708.3 1.116 0 .464-.124.878-.372 1.242-.248.36-.58.61-.996.75l-.012-.294c.56.16 1 .44 1.32.84.32.4.48.884.48 1.452 0 .5-.106.932-.318 1.296-.212.36-.51.638-.894.834-.384.196-.83.294-1.338.294h-3.612Zm.888-.846h2.508c.352 0 .668-.062.948-.186.28-.128.5-.308.66-.54.164-.232.246-.512.246-.84a1.677 1.677 0 0 0-.828-1.476 1.608 1.608 0 0 0-.864-.234h-2.67v3.276Zm0-4.11h2.442c.276 0 .528-.062.756-.186a1.44 1.44 0 0 0 .744-1.284c0-.408-.142-.74-.426-.996-.28-.256-.638-.384-1.074-.384h-2.442v2.85Zm9.393 5.136c-.54 0-1.032-.13-1.476-.39a3.002 3.002 0 0 1-1.056-1.068 3 3 0 0 1-.39-1.524V7.204c0-.58.13-1.096.39-1.548.26-.456.614-.814 1.062-1.074a2.989 2.989 0 0 1 1.536-.396c.492 0 .948.108 1.368.324.424.216.77.518 1.038.906l-.678.558a2.054 2.054 0 0 0-1.728-.948c-.404 0-.764.098-1.08.294a2.123 2.123 0 0 0-1.014 1.806V9.01l-.222-.252c.252-.396.582-.716.99-.96a2.59 2.59 0 0 1 1.344-.366 2.819 2.819 0 0 1 2.844 2.862c0 .532-.134 1.016-.402 1.452a2.984 2.984 0 0 1-1.062 1.044c-.44.26-.928.39-1.464.39Zm0-.858c.376 0 .718-.09 1.026-.27.312-.18.558-.424.738-.732.184-.308.276-.65.276-1.026s-.092-.718-.276-1.026a1.994 1.994 0 0 0-.732-.738 1.963 1.963 0 0 0-1.026-.276c-.376 0-.718.092-1.026.276a2.04 2.04 0 0 0-.738.738c-.18.308-.27.65-.27 1.026 0 .372.09.712.27 1.02a1.996 1.996 0 0 0 1.758 1.008Zm4.981.678 3.18-7.782h-4.002V4.36h4.944v.858L396.486 13h-.948Zm8.406-8.814c.544 0 1.036.132 1.476.396.444.26.796.616 1.056 1.068.26.448.39.952.39 1.512v3a3.07 3.07 0 0 1-.39 1.548c-.26.456-.616.816-1.068 1.08-.448.26-.958.39-1.53.39-.492 0-.948-.108-1.368-.324a2.921 2.921 0 0 1-1.032-.906l.672-.558c.184.284.428.512.732.684.308.172.64.258.996.258.408 0 .768-.096 1.08-.288.316-.196.564-.452.744-.768.184-.32.276-.666.276-1.038V8.356l.216.252a2.88 2.88 0 0 1-.99.96 2.57 2.57 0 0 1-1.344.366 2.783 2.783 0 0 1-1.446-.384 2.866 2.866 0 0 1-1.02-1.032 2.852 2.852 0 0 1-.372-1.446c0-.532.132-1.016.396-1.452a2.92 2.92 0 0 1 1.062-1.044c.444-.26.932-.39 1.464-.39Zm0 .852c-.376 0-.718.092-1.026.276a1.996 1.996 0 0 0-1.008 1.758c0 .376.09.718.27 1.026a1.996 1.996 0 0 0 1.758 1.008c.376 0 .718-.09 1.026-.27a2.04 2.04 0 0 0 .738-.738c.184-.308.276-.65.276-1.026 0-.372-.092-.712-.276-1.02a2.054 2.054 0 0 0-.732-.738 1.963 1.963 0 0 0-1.026-.276Zm4.927 9.756-.648-.516c.46-.536.844-1.11 1.152-1.722.312-.616.546-1.25.702-1.902.16-.656.242-1.314.246-1.974a8.627 8.627 0 0 0-.936-3.858 9.386 9.386 0 0 0-1.164-1.752l.648-.504c.472.54.876 1.142 1.212 1.806.34.664.6 1.364.78 2.1.184.732.274 1.468.27 2.208a8.828 8.828 0 0 1-.27 2.208 9.743 9.743 0 0 1-.78 2.1 8.696 8.696 0 0 1-1.212 1.806ZM413.819 13v-1.026h1.026V13h-1.026Zm5.567.18c-.652 0-1.204-.146-1.656-.438a2.791 2.791 0 0 1-1.032-1.206c-.232-.516-.352-1.108-.36-1.776.008-.68.132-1.276.372-1.788.24-.516.586-.916 1.038-1.2.452-.288 1-.432 1.644-.432.656 0 1.226.16 1.71.48.488.32.822.758 1.002 1.314l-.864.276a1.825 1.825 0 0 0-.726-.9 2.004 2.004 0 0 0-1.128-.324c-.476 0-.87.11-1.182.33a1.92 1.92 0 0 0-.696.906c-.152.388-.23.834-.234 1.338.008.776.188 1.4.54 1.872.352.468.876.702 1.572.702.44 0 .814-.1 1.122-.3.312-.204.548-.5.708-.888l.888.264c-.24.576-.592 1.016-1.056 1.32-.464.3-1.018.45-1.662.45Zm3.9-.18V4.18h.882V13h-.882Zm2.801-7.71V4.3h.882v.99h-.882Zm0 7.71V6.52h.882V13h-.882Zm5.369.18c-.652 0-1.204-.146-1.656-.438a2.791 2.791 0 0 1-1.032-1.206c-.232-.516-.352-1.108-.36-1.776.008-.68.132-1.276.372-1.788.24-.516.586-.916 1.038-1.2.452-.288 1-.432 1.644-.432.656 0 1.226.16 1.71.48.488.32.822.758 1.002 1.314l-.864.276a1.825 1.825 0 0 0-.726-.9 2.004 2.004 0 0 0-1.128-.324c-.476 0-.87.11-1.182.33a1.92 1.92 0 0 0-.696.906c-.152.388-.23.834-.234 1.338.008.776.188 1.4.54 1.872.352.468.876.702 1.572.702.44 0 .814-.1 1.122-.3.312-.204.548-.5.708-.888l.888.264c-.24.576-.592 1.016-1.056 1.32-.464.3-1.018.45-1.662.45Zm3.95-.18.006-8.64h.888v5.28l2.892-3.12h1.176l-3.036 3.24 3.432 3.24h-1.284l-3.18-3.12V13h-.894Zm8.096-7.344h6.096v.78h-6.096v-.78Zm.612 2.04h.828v4.692h-.828V7.696Zm.444 0h4.392v3.828h-4.392v-.78h3.552v-2.28h-3.552v-.768Zm-2.976-4.152h9.576v.852h-8.7v9.588h-.876V3.544Zm9.024 0h.888v9.276c0 .272-.04.484-.12.636a.663.663 0 0 1-.384.348c-.176.072-.428.116-.756.132-.32.024-.736.036-1.248.036a1.254 1.254 0 0 0-.072-.288 3.255 3.255 0 0 0-.12-.324 1.351 1.351 0 0 0-.132-.264c.376.008.72.012 1.032.012h.624c.112-.008.188-.036.228-.084.04-.04.06-.112.06-.216V3.544Zm7.44 9.456V9.694c0-.36-.034-.69-.102-.99a2.283 2.283 0 0 0-.33-.792 1.509 1.509 0 0 0-.582-.528c-.236-.124-.524-.186-.864-.186-.312 0-.588.054-.828.162a1.631 1.631 0 0 0-.6.468c-.16.2-.282.444-.366.732a3.517 3.517 0 0 0-.126.984l-.624-.138c0-.664.116-1.222.348-1.674.232-.452.552-.794.96-1.026.408-.232.876-.348 1.404-.348.388 0 .726.06 1.014.18.292.12.538.282.738.486.204.204.368.438.492.702.124.26.214.538.27.834.056.292.084.584.084.876V13h-.888Zm-4.686 0V6.52h.798v1.596h.09V13h-.888Zm9.79.18c-.644 0-1.194-.146-1.65-.438a2.85 2.85 0 0 1-1.05-1.212c-.244-.516-.366-1.108-.366-1.776 0-.68.124-1.276.372-1.788s.6-.91 1.056-1.194c.46-.288 1.006-.432 1.638-.432.648 0 1.2.146 1.656.438.46.288.81.69 1.05 1.206.244.512.366 1.102.366 1.77 0 .68-.122 1.278-.366 1.794a2.804 2.804 0 0 1-1.056 1.2c-.46.288-1.01.432-1.65.432Zm0-.846c.72 0 1.256-.238 1.608-.714.352-.48.528-1.102.528-1.866 0-.784-.178-1.408-.534-1.872-.352-.464-.886-.696-1.602-.696-.484 0-.884.11-1.2.33a1.957 1.957 0 0 0-.702.906c-.152.384-.228.828-.228 1.332 0 .78.18 1.406.54 1.878.36.468.89.702 1.59.702Zm4.395.666V6.52h.792v1.56l-.156-.204c.072-.192.166-.368.282-.528a1.83 1.83 0 0 1 .378-.402 1.71 1.71 0 0 1 .588-.336c.224-.08.45-.126.678-.138.228-.016.436 0 .624.048v.828a2.14 2.14 0 0 0-.774-.042c-.28.032-.538.144-.774.336a1.61 1.61 0 0 0-.486.606c-.108.232-.18.48-.216.744-.036.26-.054.518-.054.774V13h-.882Zm12.052 0 .006-4.254c0-.5-.14-.892-.42-1.176-.276-.288-.628-.432-1.056-.432-.244 0-.482.056-.714.168a1.377 1.377 0 0 0-.576.54c-.148.248-.222.572-.222.972l-.522-.15c-.012-.464.078-.87.27-1.218.196-.348.464-.618.804-.81a2.31 2.31 0 0 1 1.164-.294c.652 0 1.174.202 1.566.606.392.4.588.942.588 1.626L480.479 13h-.882Zm-7.734 0V6.52h.792v1.596h.096V13h-.888Zm3.876 0 .006-4.194c0-.516-.138-.922-.414-1.218-.272-.3-.632-.45-1.08-.45-.448 0-.81.154-1.086.462-.276.304-.414.71-.414 1.218l-.528-.288c0-.416.098-.788.294-1.116.196-.332.464-.592.804-.78.34-.192.726-.288 1.158-.288.412 0 .778.088 1.098.264.324.176.578.432.762.768.184.336.276.744.276 1.224L476.609 13h-.87Zm8.156.18c-.488 0-.898-.088-1.23-.264a1.79 1.79 0 0 1-.738-.702 1.915 1.915 0 0 1-.246-.954c0-.352.07-.652.21-.9.144-.252.338-.458.582-.618.248-.16.534-.282.858-.366.328-.08.69-.15 1.086-.21.4-.064.79-.118 1.17-.162.384-.048.72-.094 1.008-.138l-.312.192c.012-.64-.112-1.114-.372-1.422-.26-.308-.712-.462-1.356-.462-.444 0-.82.1-1.128.3-.304.2-.518.516-.642.948l-.858-.252c.148-.58.446-1.03.894-1.35.448-.32 1.03-.48 1.746-.48.592 0 1.094.112 1.506.336.416.22.71.54.882.96.08.188.132.398.156.63.024.232.036.468.036.708V13h-.786v-1.626l.228.096c-.22.556-.562.98-1.026 1.272-.464.292-1.02.438-1.668.438Zm.102-.762c.412 0 .772-.074 1.08-.222.308-.148.556-.35.744-.606.188-.26.31-.552.366-.876.048-.208.074-.436.078-.684.004-.252.006-.44.006-.564l.336.174c-.3.04-.626.08-.978.12-.348.04-.692.086-1.032.138-.336.052-.64.114-.912.186a2.473 2.473 0 0 0-.534.222 1.233 1.233 0 0 0-.426.372.998.998 0 0 0-.162.582c0 .188.046.37.138.546.096.176.248.322.456.438.212.116.492.174.84.174Zm4.832.582V4.18h.882V13h-.882Z"></path>
</svg>