<svg xmlns="http://www.w3.org/2000/svg" width="128" height="60" fill="none" viewBox="0 0 128 60">
  <rect width="127" height="59" x=".5" y=".5" stroke="#9747FF" stroke-dasharray="10 5" rx="4.5"></rect>
  <path fill="#999" d="M29.728 21.772c1.012.28 1.924.8 2.67 1.494l.274.254-.165.333a1.289 1.289 0 0 0 1.156 1.857h.019l.372-.006.112.356a6.46 6.46 0 0 1 .164 3.24l-.09.44-.448-.043a1.289 1.289 0 0 0-1.114 2.111l.29.345-.312.325a6.462 6.462 0 0 1-2.81 1.713l-.469.14-.15-.467a1.29 1.29 0 0 0-2.454 0l-.15.467-.47-.14a6.462 6.462 0 0 1-2.81-1.713l-.312-.325.29-.345a1.29 1.29 0 0 0-1.113-2.111l-.448.044-.09-.442a6.482 6.482 0 0 1 .164-3.239l.111-.355.373.005h.018a1.29 1.29 0 0 0 1.157-1.857l-.165-.333.273-.254a6.452 6.452 0 0 1 2.672-1.494l.393-.11.186.364a1.288 1.288 0 0 0 2.297 0l.185-.363.394.109Zm.078 1.072a2.283 2.283 0 0 1-3.613 0 5.452 5.452 0 0 0-1.664.938c.06.203.096.418.096.64 0 1.14-.835 2.082-1.926 2.256a5.471 5.471 0 0 0-.115 2.026 2.288 2.288 0 0 1 2.041 2.274c0 .39-.101.759-.274 1.081.488.44 1.056.79 1.68 1.031a2.288 2.288 0 0 1 3.938 0 5.458 5.458 0 0 0 1.679-1.031 2.288 2.288 0 0 1 1.767-3.354 5.47 5.47 0 0 0-.114-2.026 2.286 2.286 0 0 1-1.926-2.257c0-.222.035-.437.095-.64a5.45 5.45 0 0 0-1.664-.938ZM28 25.412a2.586 2.586 0 1 1 0 5.172 2.586 2.586 0 0 1 0-5.172Zm0 1a1.587 1.587 0 1 0 0 3.174 1.587 1.587 0 0 0 0-3.174Z"></path>
  <path stroke="#999" stroke-linecap="round" d="M54.4 28c0 3.314-1.074 6-2.4 6-1.325 0-2.4-2.686-2.4-6s1.075-6 2.4-6c1.326 0 2.4 2.686 2.4 6Z"></path>
  <path stroke="#999" d="M58 28a6 6 0 1 0-6 6"></path>
  <path stroke="#999" stroke-linecap="square" d="M46.5 28H58"></path>
  <path fill="#999" d="M55.856 32.607c.038.328.154.566.351.716.201.15.498.224.891.224a1.6 1.6 0 0 0 .485-.063.876.876 0 0 0 .315-.168.58.58 0 0 0 .169-.246.972.972 0 0 0 .049-.309.772.772 0 0 0-.035-.231.543.543 0 0 0-.127-.218.757.757 0 0 0-.245-.168 1.447 1.447 0 0 0-.393-.12l-.639-.119a4.387 4.387 0 0 1-.673-.175 1.636 1.636 0 0 1-.499-.274 1.18 1.18 0 0 1-.302-.42 1.687 1.687 0 0 1-.098-.611c0-.239.047-.447.14-.625.099-.178.232-.325.4-.442.169-.122.368-.21.597-.267.234-.06.487-.091.758-.091.346 0 .636.04.87.12.234.079.424.184.569.315.145.126.255.274.33.442.074.169.126.344.154.527l-.8.126c-.066-.28-.18-.49-.344-.625-.16-.135-.414-.203-.765-.203-.201 0-.37.018-.505.056a.858.858 0 0 0-.323.147.557.557 0 0 0-.225.47c0 .22.059.384.176.492.121.107.332.191.631.252l.695.134c.529.098.917.266 1.165.505.248.234.372.573.372 1.017 0 .211-.04.407-.12.59a1.255 1.255 0 0 1-.35.47 1.752 1.752 0 0 1-.597.309c-.234.08-.507.12-.82.12-.642 0-1.145-.134-1.51-.4-.364-.272-.566-.69-.603-1.257h.856Z"></path>
  <circle cx="76" cy="28" r="6.5" stroke="#999"></circle>
  <circle cx="76" cy="28" r="2" stroke="#999"></circle>
  <circle cx="97.667" cy="24.333" r="2.333" stroke="#999"></circle>
  <path stroke="#999" d="M97.667 28.417A4.667 4.667 0 0 0 93 33.084h9.333a4.666 4.666 0 0 0-4.666-4.667Z"></path>
  <circle cx="103.5" cy="26.084" r="1.75" stroke="#999"></circle>
  <path stroke="#999" d="M100 33.078h7a3.5 3.5 0 0 0-5.583-2.813"></path>
</svg>