<svg xmlns="http://www.w3.org/2000/svg" width="1208" height="104" fill="none" viewBox="0 0 1208 104">
  <rect width="1207" height="103" x=".5" y=".5" stroke="#8A38F5" stroke-dasharray="10 5" rx="4.5"></rect>
  <g clip-path="url(#a)">
    
    <path fill="#EE385C" fill-opacity=".12" d="M144 83.5c17.397 0 31.5-14.103 31.5-31.5S161.397 20.5 144 20.5 112.5 34.603 112.5 52s14.103 31.5 31.5 31.5Z" data-figma-bg-blur-radius="14.588"></path>
    
    <path fill="#EE385C" fill-opacity=".24" d="M144 69.667c9.757 0 17.667-7.91 17.667-17.667 0-9.757-7.91-17.667-17.667-17.667-9.757 0-17.667 7.91-17.667 17.667 0 9.757 7.91 17.667 17.667 17.667Z" data-figma-bg-blur-radius="14.588"></path>
    
    <path fill="#EE385C" d="M144 59.333a7.333 7.333 0 1 0 0-14.666 7.333 7.333 0 0 0 0 14.666Z" data-figma-bg-blur-radius="14.588"></path>
  </g>
  <g clip-path="url(#e)">
    
    <path fill="#00A870" d="M52 83.5c17.397 0 31.5-14.103 31.5-31.5S69.397 20.5 52 20.5 20.5 34.603 20.5 52 34.603 83.5 52 83.5Z" data-figma-bg-blur-radius="14.588" opacity=".16"></path>
    
    <path fill="#00A870" d="M52 69.667c9.757 0 17.667-7.91 17.667-17.667 0-9.757-7.91-17.667-17.667-17.667-9.757 0-17.667 7.91-17.667 17.667 0 9.757 7.91 17.667 17.667 17.667Z" data-figma-bg-blur-radius="14.588" opacity=".24"></path>
    
    <path fill="#00A870" d="M52 59.333a7.333 7.333 0 1 0 0-14.666 7.333 7.333 0 0 0 0 14.666Z" data-figma-bg-blur-radius="14.588"></path>
  </g>
  <g clip-path="url(#i)">
    
    <path fill="#FF8C27" d="M236 83.5c17.397 0 31.5-14.103 31.5-31.5S253.397 20.5 236 20.5 204.5 34.603 204.5 52s14.103 31.5 31.5 31.5Z" data-figma-bg-blur-radius="14.588" opacity=".16"></path>
    
    <path fill="#FF8C27" d="M236 69.667c9.757 0 17.667-7.91 17.667-17.667 0-9.757-7.91-17.667-17.667-17.667-9.757 0-17.667 7.91-17.667 17.667 0 9.757 7.91 17.667 17.667 17.667Z" data-figma-bg-blur-radius="14.588" opacity=".24"></path>
    
    <path fill="#FF8C27" d="M236 59.333a7.333 7.333 0 1 0 0-14.666 7.333 7.333 0 0 0 0 14.666Z" data-figma-bg-blur-radius="14.588"></path>
  </g>
  <g clip-path="url(#m)">
    
    <path fill="#636363" d="M328 83.5c17.397 0 31.5-14.103 31.5-31.5S345.397 20.5 328 20.5 296.5 34.603 296.5 52s14.103 31.5 31.5 31.5Z" data-figma-bg-blur-radius="14.588" opacity=".16"></path>
    
    <path fill="#636363" d="M328 69.667c9.757 0 17.667-7.91 17.667-17.667 0-9.757-7.91-17.667-17.667-17.667-9.757 0-17.667 7.91-17.667 17.667 0 9.757 7.91 17.667 17.667 17.667Z" data-figma-bg-blur-radius="14.588" opacity=".24"></path>
    
    <path fill="#636363" d="M328 59.333a7.333 7.333 0 1 0 0-14.666 7.333 7.333 0 0 0 0 14.666Z" data-figma-bg-blur-radius="14.588"></path>
  </g>
  <g clip-path="url(#q)">
    
    <path fill="#F05473" fill-opacity=".12" stroke="#F05473" stroke-opacity=".4" d="M1064 83.5c17.4 0 31.5-14.103 31.5-31.5s-14.1-31.5-31.5-31.5-31.5 14.103-31.5 31.5 14.1 31.5 31.5 31.5Z" data-figma-bg-blur-radius="14.588"></path>
    
    <path fill="#F05473" fill-opacity=".24" d="M1064 69.667c9.76 0 17.67-7.91 17.67-17.667 0-9.757-7.91-17.667-17.67-17.667-9.76 0-17.67 7.91-17.67 17.667 0 9.757 7.91 17.667 17.67 17.667Z" data-figma-bg-blur-radius="14.588"></path>
    
    <path fill="#F05473" d="M1064 59.333a7.33 7.33 0 0 0 7.33-7.333 7.33 7.33 0 1 0-14.66 0 7.33 7.33 0 0 0 7.33 7.333Z" data-figma-bg-blur-radius="14.588"></path>
  </g>
  <g clip-path="url(#u)">
    
    <path fill="#00A870" fill-opacity=".3" stroke="#00A870" stroke-opacity=".64" d="M1156 83.5c17.4 0 31.5-14.103 31.5-31.5s-14.1-31.5-31.5-31.5-31.5 14.103-31.5 31.5 14.1 31.5 31.5 31.5Z" data-figma-bg-blur-radius="14.588"></path>
    
    <path fill="#00A870" fill-opacity=".24" d="M1156 69.667c9.76 0 17.67-7.91 17.67-17.667 0-9.757-7.91-17.667-17.67-17.667-9.76 0-17.67 7.91-17.67 17.667 0 9.757 7.91 17.667 17.67 17.667Z" data-figma-bg-blur-radius="14.588"></path>
    
    <path fill="#00A870" d="M1156 59.333a7.33 7.33 0 0 0 7.33-7.333 7.33 7.33 0 1 0-14.66 0 7.33 7.33 0 0 0 7.33 7.333Z" data-figma-bg-blur-radius="14.588"></path>
  </g>
  <path fill="#00A870" d="M788 67.726c12.15 0 22-9.788 22-21.863S800.15 24 788 24s-22 9.788-22 21.863 9.85 21.863 22 21.863Z"></path>
  <path fill="#fff" d="M788 57.575c6.509 0 11.786-5.243 11.786-11.712 0-6.468-5.277-11.712-11.786-11.712-6.509 0-11.786 5.243-11.786 11.712 0 6.469 5.277 11.712 11.786 11.712Z"></path>
  <path stroke="#00A870" stroke-linecap="round" stroke-width="3.936" d="M788 67.726V81"></path>
  <g clip-path="url(#y)">
    <path fill="#48555C" fill-opacity=".16" d="M420 84c17.673 0 32-14.327 32-32 0-17.673-14.327-32-32-32-17.673 0-32 14.327-32 32 0 17.673 14.327 32 32 32Z"></path>
    <path fill="#48555C" d="M420 76c13.255 0 24-10.745 24-24s-10.745-24-24-24-24 10.745-24 24 10.745 24 24 24Z"></path>
    <path fill="#EE385C" d="M440.8 42.4c-6.186 0-11.2-5.014-11.2-11.2 0-6.186 5.014-11.2 11.2-11.2 6.186 0 11.2 5.014 11.2 11.2 0 6.186-5.014 11.2-11.2 11.2Z"></path>
    <path fill="#fff" d="M441.733 24.217h-1.866v9.333h1.866v-9.333Zm-.002 11.273h-1.867a.467.467 0 0 0-.466.467v1.867c0 .258.209.467.466.467h1.867a.467.467 0 0 0 .467-.467v-1.867a.467.467 0 0 0-.467-.466Z"></path>
  </g>
  <g clip-path="url(#z)">
    
    <path fill="#00778C" fill-opacity=".12" d="M512 84c17.673 0 32-14.327 32-32 0-17.673-14.327-32-32-32-17.673 0-32 14.327-32 32 0 17.673 14.327 32 32 32Z" data-figma-bg-blur-radius="14.588"></path>
    <path fill="#00A870" d="M512 76c13.255 0 24-10.745 24-24s-10.745-24-24-24-24 10.745-24 24 10.745 24 24 24Z"></path>
  </g>
  <g clip-path="url(#B)">
    <path fill="#00A870" d="M604 84c17.673 0 32-14.327 32-32 0-17.673-14.327-32-32-32-17.673 0-32 14.327-32 32 0 17.673 14.327 32 32 32Z"></path>
    <path fill="#fff" d="M618.733 66h-6.8a2.256 2.256 0 0 1-2.266-2.244V59.32a2.256 2.256 0 0 1 2.266-2.244h2.267v-4.46h-20.4v4.46h2.267a2.256 2.256 0 0 1 2.266 2.244v4.436A2.256 2.256 0 0 1 596.067 66h-6.8A2.256 2.256 0 0 1 587 63.756V59.32a2.256 2.256 0 0 1 2.267-2.244h2.266V51.5c0-.617.506-1.115 1.127-1.115h10.207v-4.463H600.6a2.255 2.255 0 0 1-2.267-2.244v-4.434A2.255 2.255 0 0 1 600.6 37h6.8a2.255 2.255 0 0 1 2.267 2.244v4.434c0 1.24-1.016 2.244-2.267 2.244h-2.267v4.463h10.207c.621 0 1.127.498 1.127 1.115v5.577h2.266c1.252 0 2.267 1.004 2.267 2.243v4.436A2.256 2.256 0 0 1 618.733 66Z"></path>
  </g>
  <g clip-path="url(#C)">
    <path fill="#00A870" d="M696 84c17.673 0 32-14.327 32-32 0-17.673-14.327-32-32-32-17.673 0-32 14.327-32 32 0 17.673 14.327 32 32 32Z"></path>
    <path fill="#fff" fill-rule="evenodd" d="M686.219 58.946a1.6 1.6 0 0 1-1.073 1.992c-1.364.41-2.352.865-2.963 1.299-.42.298-.541.492-.574.563.033.07.154.265.574.563.611.434 1.599.89 2.963 1.299C687.855 65.474 691.693 66 696 66c4.307 0 8.145-.526 10.854-1.338 1.364-.41 2.352-.865 2.963-1.299.42-.298.541-.492.574-.563-.033-.07-.154-.265-.574-.563-.611-.434-1.599-.89-2.963-1.299a1.6 1.6 0 0 1 .919-3.065c1.531.46 2.887 1.038 3.895 1.754.967.685 1.932 1.734 1.932 3.173 0 1.438-.965 2.488-1.932 3.173-1.008.716-2.364 1.294-3.895 1.754-3.082.924-7.244 1.473-11.773 1.473s-8.691-.549-11.773-1.473c-1.531-.46-2.887-1.038-3.895-1.754-.967-.685-1.932-1.735-1.932-3.173s.965-2.488 1.932-3.173c1.008-.716 2.364-1.294 3.895-1.754a1.6 1.6 0 0 1 1.992 1.073Z" clip-rule="evenodd"></path>
    <path fill="#fff" d="M696 61.2s10.4-6.797 10.4-14.655c0-5.603-4.656-10.145-10.4-10.145-5.744 0-10.4 4.542-10.4 10.145C685.6 54.403 696 61.2 696 61.2Z"></path>
    <path fill="#fff" fill-rule="evenodd" d="M684 46.545c0-6.523 5.41-11.745 12-11.745s12 5.222 12 11.745c0 4.588-2.993 8.647-5.651 11.388a36.72 36.72 0 0 1-4.978 4.266 18.524 18.524 0 0 1-.455.313l-.028.019-.008.005-.003.002h-.001c0 .001-.001.001-.876-1.338a292.77 292.77 0 0 1-.876 1.339h-.001l-.003-.003-.008-.005-.028-.019a18.524 18.524 0 0 1-.455-.313 36.72 36.72 0 0 1-4.978-4.266c-2.658-2.741-5.651-6.8-5.651-11.388ZM696 61.2l-.875 1.34a1.599 1.599 0 0 0 1.75 0L696 61.2Zm0-1.96a33.535 33.535 0 0 0 4.051-3.535c2.542-2.62 4.749-5.89 4.749-9.16 0-4.682-3.902-8.545-8.8-8.545-4.898 0-8.8 3.863-8.8 8.545 0 3.27 2.207 6.54 4.749 9.16A33.535 33.535 0 0 0 696 59.242Z" clip-rule="evenodd"></path>
    <path fill="#00A870" d="M696 52a5 5 0 1 0 0-10 5 5 0 0 0 0 10Z"></path>
  </g>
  <path fill="#00A870" d="M880 66.945s19-7.504 19-24.19c0-10.635-8.507-19.255-19-19.255s-19 8.62-19 19.254c0 16.687 19 24.191 19 24.191Z"></path>
  <path fill="#00A870" fill-rule="evenodd" d="M858.467 42.754c0-12 9.609-21.787 21.533-21.787 11.924 0 21.533 9.786 21.533 21.787 0 9.4-5.368 16.093-10.41 20.299a42.745 42.745 0 0 1-9.252 5.84 28.501 28.501 0 0 1-.857.375l-.055.022-.018.007-.006.003h-.002c-.001.001-.002.002-.933-2.355a289.69 289.69 0 0 1-.933 2.356l-.002-.001-.006-.003-.018-.007-.055-.022-.189-.079a28.501 28.501 0 0 1-.668-.295 42.745 42.745 0 0 1-9.252-5.841c-5.042-4.206-10.41-10.899-10.41-20.299ZM880 66.945l-.931 2.357a2.535 2.535 0 0 0 1.862 0L880 66.945Zm0-2.768a37.632 37.632 0 0 0 7.877-5.015c4.458-3.718 8.59-9.121 8.59-16.408 0-9.266-7.404-16.72-16.467-16.72-9.063 0-16.467 7.454-16.467 16.72 0 7.287 4.132 12.69 8.59 16.408A37.632 37.632 0 0 0 880 64.177Z" clip-rule="evenodd"></path>
  <path fill="#fff" fill-opacity=".42" d="M880 58.519c8.212 0 14.869-6.716 14.869-15 0-8.284-6.657-15-14.869-15s-14.869 6.716-14.869 15c0 8.284 6.657 15 14.869 15Z"></path>
  <path fill="#fff" d="M880 55.519c6.627 0 12-5.373 12-12s-5.373-12-12-12-12 5.373-12 12 5.373 12 12 12Z"></path>
  <path fill="#00A870" d="M880 80.5c2.058 0 3.726-1.683 3.726-3.758 0-2.076-1.668-3.758-3.726-3.758-2.057 0-3.725 1.682-3.725 3.758 0 2.075 1.668 3.758 3.725 3.758Zm92-13.774c12.15 0 22-9.788 22-21.863S984.15 23 972 23s-22 9.788-22 21.863 9.85 21.863 22 21.863Z"></path>
  <path fill="#fff" d="M972 56.575c6.509 0 11.786-5.243 11.786-11.712 0-6.468-5.277-11.712-11.786-11.712-6.509 0-11.786 5.243-11.786 11.712 0 6.469 5.277 11.712 11.786 11.712Z"></path>
  <path stroke="#00A870" stroke-linecap="round" stroke-width="3.936" d="M972 66.726V80"></path>
  <circle cx="994" cy="74" r="10" fill="#999"></circle>
  <path fill="#fff" fill-rule="evenodd" d="m994.08 72.91 3.541-3.54a.715.715 0 0 1 1.01 1.009l-3.541 3.54 3.701 3.702a.713.713 0 1 1-1.01 1.01l-3.701-3.702-3.861 3.862a.714.714 0 0 1-1.01-1.01l3.862-3.861-3.702-3.701a.715.715 0 0 1 1.01-1.01l3.701 3.701Z" clip-rule="evenodd"></path>
  <defs>
    <clipPath id="b">
      <path d="M144 83.5c17.397 0 31.5-14.103 31.5-31.5S161.397 20.5 144 20.5 112.5 34.603 112.5 52s14.103 31.5 31.5 31.5Z"></path>
    </clipPath>
    <clipPath id="c">
      <path d="M144 69.667c9.757 0 17.667-7.91 17.667-17.667 0-9.757-7.91-17.667-17.667-17.667-9.757 0-17.667 7.91-17.667 17.667 0 9.757 7.91 17.667 17.667 17.667Z"></path>
    </clipPath>
    <clipPath id="d">
      <path d="M144 59.333a7.333 7.333 0 1 0 0-14.666 7.333 7.333 0 0 0 0 14.666Z"></path>
    </clipPath>
    <clipPath id="f">
      <path d="M52 83.5c17.397 0 31.5-14.103 31.5-31.5S69.397 20.5 52 20.5 20.5 34.603 20.5 52 34.603 83.5 52 83.5Z"></path>
    </clipPath>
    <clipPath id="g">
      <path d="M52 69.667c9.757 0 17.667-7.91 17.667-17.667 0-9.757-7.91-17.667-17.667-17.667-9.757 0-17.667 7.91-17.667 17.667 0 9.757 7.91 17.667 17.667 17.667Z"></path>
    </clipPath>
    <clipPath id="h">
      <path d="M52 59.333a7.333 7.333 0 1 0 0-14.666 7.333 7.333 0 0 0 0 14.666Z"></path>
    </clipPath>
    <clipPath id="j">
      <path d="M236 83.5c17.397 0 31.5-14.103 31.5-31.5S253.397 20.5 236 20.5 204.5 34.603 204.5 52s14.103 31.5 31.5 31.5Z"></path>
    </clipPath>
    <clipPath id="k">
      <path d="M236 69.667c9.757 0 17.667-7.91 17.667-17.667 0-9.757-7.91-17.667-17.667-17.667-9.757 0-17.667 7.91-17.667 17.667 0 9.757 7.91 17.667 17.667 17.667Z"></path>
    </clipPath>
    <clipPath id="l">
      <path d="M236 59.333a7.333 7.333 0 1 0 0-14.666 7.333 7.333 0 0 0 0 14.666Z"></path>
    </clipPath>
    <clipPath id="n">
      <path d="M328 83.5c17.397 0 31.5-14.103 31.5-31.5S345.397 20.5 328 20.5 296.5 34.603 296.5 52s14.103 31.5 31.5 31.5Z"></path>
    </clipPath>
    <clipPath id="o">
      <path d="M328 69.667c9.757 0 17.667-7.91 17.667-17.667 0-9.757-7.91-17.667-17.667-17.667-9.757 0-17.667 7.91-17.667 17.667 0 9.757 7.91 17.667 17.667 17.667Z"></path>
    </clipPath>
    <clipPath id="p">
      <path d="M328 59.333a7.333 7.333 0 1 0 0-14.666 7.333 7.333 0 0 0 0 14.666Z"></path>
    </clipPath>
    <clipPath id="r">
      <path d="M1064 83.5c17.4 0 31.5-14.103 31.5-31.5s-14.1-31.5-31.5-31.5-31.5 14.103-31.5 31.5 14.1 31.5 31.5 31.5Z"></path>
    </clipPath>
    <clipPath id="s">
      <path d="M1064 69.667c9.76 0 17.67-7.91 17.67-17.667 0-9.757-7.91-17.667-17.67-17.667-9.76 0-17.67 7.91-17.67 17.667 0 9.757 7.91 17.667 17.67 17.667Z"></path>
    </clipPath>
    <clipPath id="t">
      <path d="M1064 59.333a7.33 7.33 0 0 0 7.33-7.333 7.33 7.33 0 1 0-14.66 0 7.33 7.33 0 0 0 7.33 7.333Z"></path>
    </clipPath>
    <clipPath id="v">
      <path d="M1156 83.5c17.4 0 31.5-14.103 31.5-31.5s-14.1-31.5-31.5-31.5-31.5 14.103-31.5 31.5 14.1 31.5 31.5 31.5Z"></path>
    </clipPath>
    <clipPath id="w">
      <path d="M1156 69.667c9.76 0 17.67-7.91 17.67-17.667 0-9.757-7.91-17.667-17.67-17.667-9.76 0-17.67 7.91-17.67 17.667 0 9.757 7.91 17.667 17.67 17.667Z"></path>
    </clipPath>
    <clipPath id="x">
      <path d="M1156 59.333a7.33 7.33 0 0 0 7.33-7.333 7.33 7.33 0 1 0-14.66 0 7.33 7.33 0 0 0 7.33 7.333Z"></path>
    </clipPath>
    <clipPath id="A">
      <path d="M512 84c17.673 0 32-14.327 32-32 0-17.673-14.327-32-32-32-17.673 0-32 14.327-32 32 0 17.673 14.327 32 32 32Z"></path>
    </clipPath>
    <clipPath id="a">
      <path fill="#fff" d="M112 20h64v64h-64z"></path>
    </clipPath>
    <clipPath id="e">
      <path fill="#fff" d="M20 20h64v64H20z"></path>
    </clipPath>
    <clipPath id="i">
      <path fill="#fff" d="M204 20h64v64h-64z"></path>
    </clipPath>
    <clipPath id="m">
      <path fill="#fff" d="M296 20h64v64h-64z"></path>
    </clipPath>
    <clipPath id="q">
      <path fill="#fff" d="M1032 20h64v64h-64z"></path>
    </clipPath>
    <clipPath id="u">
      <path fill="#fff" d="M1124 20h64v64h-64z"></path>
    </clipPath>
    <clipPath id="y">
      <path fill="#fff" d="M388 20h64v64h-64z"></path>
    </clipPath>
    <clipPath id="z">
      <path fill="#fff" d="M480 20h64v64h-64z"></path>
    </clipPath>
    <clipPath id="B">
      <path fill="#fff" d="M572 20h64v64h-64z"></path>
    </clipPath>
    <clipPath id="C">
      <path fill="#fff" d="M664 20h64v64h-64z"></path>
    </clipPath>
  </defs>
</svg>