<svg xmlns="http://www.w3.org/2000/svg" width="43" height="11" fill="none" viewBox="0 0 43 11">
  <path fill="#000" d="M5.467 10.29V6.433c0-.42-.04-.805-.119-1.155a2.663 2.663 0 0 0-.385-.924 1.76 1.76 0 0 0-.679-.616c-.275-.145-.611-.217-1.008-.217-.364 0-.686.063-.966.189a1.903 1.903 0 0 0-.7.546 2.446 2.446 0 0 0-.427.854 4.104 4.104 0 0 0-.147 1.148l-.728-.161c0-.775.135-1.426.406-1.953.27-.527.644-.926 1.12-1.197.476-.27 1.022-.406 1.638-.406.453 0 .847.07 1.183.21.34.14.628.329.861.567.238.238.43.511.574.819.145.303.25.628.315.973.065.34.098.681.098 1.022v4.158H5.467ZM0 10.29V2.73h.931v1.862h.105v5.698H0Zm11.422.21c-.752 0-1.393-.17-1.925-.511a3.325 3.325 0 0 1-1.225-1.414c-.285-.602-.427-1.293-.427-2.072 0-.793.144-1.489.434-2.086a3.29 3.29 0 0 1 1.232-1.393c.537-.336 1.174-.504 1.91-.504.757 0 1.4.17 1.933.511.537.336.945.805 1.225 1.407.284.597.427 1.286.427 2.065 0 .793-.143 1.491-.427 2.093a3.271 3.271 0 0 1-1.232 1.4c-.537.336-1.178.504-1.925.504Zm0-.987c.84 0 1.465-.278 1.876-.833.41-.56.616-1.286.616-2.177 0-.915-.208-1.643-.623-2.184-.41-.541-1.034-.812-1.87-.812-.564 0-1.03.128-1.4.385a2.283 2.283 0 0 0-.818 1.057c-.178.448-.266.966-.266 1.554 0 .91.21 1.64.63 2.191.42.546 1.038.819 1.855.819Zm5.128.777V2.73h.924v1.82l-.182-.238c.084-.224.194-.43.329-.616a2.12 2.12 0 0 1 .441-.469c.196-.173.425-.303.686-.392.261-.093.525-.147.791-.161.266-.019.509 0 .728.056v.966a2.496 2.496 0 0 0-.903-.049 1.72 1.72 0 0 0-.903.392 1.878 1.878 0 0 0-.567.707 3 3 0 0 0-.252.868 6.577 6.577 0 0 0-.063.903v3.773H16.55Zm14.06 0 .008-4.963c0-.583-.163-1.04-.49-1.372-.322-.336-.733-.504-1.232-.504-.285 0-.562.065-.833.196a1.6 1.6 0 0 0-.672.63c-.173.29-.26.667-.26 1.134l-.608-.175c-.014-.541.09-1.015.315-1.421.229-.406.541-.721.938-.945a2.694 2.694 0 0 1 1.358-.343c.76 0 1.37.236 1.827.707.457.467.686 1.099.686 1.897l-.007 5.159h-1.03Zm-9.022 0V2.73h.924v1.862h.112v5.698h-1.036Zm4.522 0 .007-4.893c0-.602-.161-1.076-.483-1.421-.317-.35-.737-.525-1.26-.525s-.945.18-1.267.539c-.322.355-.483.828-.483 1.421l-.616-.336c0-.485.114-.92.343-1.302.229-.387.541-.69.938-.91a2.7 2.7 0 0 1 1.35-.336c.482 0 .909.103 1.282.308.378.205.674.504.889.896.215.392.322.868.322 1.428l-.007 5.131H26.11Zm9.515.21c-.57 0-1.048-.103-1.435-.308a2.089 2.089 0 0 1-.86-.819 2.234 2.234 0 0 1-.288-1.113c0-.41.082-.76.245-1.05.168-.294.394-.534.68-.721a3.381 3.381 0 0 1 1-.427c.383-.093.805-.175 1.267-.245.467-.075.922-.138 1.365-.189.448-.056.84-.11 1.176-.161l-.364.224c.014-.747-.13-1.3-.434-1.659-.303-.36-.83-.539-1.582-.539-.518 0-.957.117-1.316.35-.355.233-.604.602-.749 1.106l-1-.294c.172-.677.52-1.202 1.042-1.575.523-.373 1.202-.56 2.037-.56.69 0 1.276.13 1.757.392.485.257.828.63 1.03 1.12.092.22.153.464.181.735.028.27.042.546.042.826v4.697h-.917V8.393l.266.112c-.257.649-.656 1.143-1.197 1.484-.541.34-1.19.511-1.946.511Zm.12-.889c.48 0 .9-.086 1.26-.259a2.28 2.28 0 0 0 .867-.707 2.41 2.41 0 0 0 .427-1.022c.056-.243.086-.509.091-.798.005-.294.007-.513.007-.658l.392.203c-.35.047-.73.093-1.14.14-.407.047-.808.1-1.205.161-.392.06-.747.133-1.064.217-.215.06-.422.147-.623.259-.2.107-.366.252-.497.434a1.165 1.165 0 0 0-.189.679c0 .22.054.432.161.637.112.205.29.376.532.511.247.135.574.203.98.203Zm5.636.679V0h1.03v10.29h-1.03Z"></path>
</svg>