<svg xmlns="http://www.w3.org/2000/svg" width="420" height="60" fill="none" viewBox="0 0 420 60">
  <rect width="419" height="59" x=".5" y=".5" stroke="#9747FF" stroke-dasharray="10 5" rx="4.5"></rect>
  <path fill="#636363" d="M30.9 36.703h-1.75v-1.75h1.75v1.75ZM26.22 33.3a5.38 5.38 0 0 1 7.609 0l.372.371-.743.743-.371-.372a4.331 4.331 0 0 0-6.124 0l-.371.372-.743-.743.372-.37Zm-2.575-2.796a9.022 9.022 0 0 1 12.76 0l.37.371-.742.744-.371-.372a7.973 7.973 0 0 0-11.274 0l-.372.372-.742-.744.371-.37Zm-1.752-3.651c5.018-4.027 12.328-3.791 17.076.709l.381.361-.721.762-.382-.36c-4.365-4.137-11.084-4.354-15.696-.653a12.07 12.07 0 0 0-.747.652l-.381.36-.723-.76.38-.362c.264-.25.535-.486.813-.71Zm45.431 5.008a7.645 7.645 0 0 1-14.98 0l-.1-.49.98-.2.1.491a6.645 6.645 0 0 0 12.759.924l-.927.356-.467.18-.358-.934.467-.178 1.856-.715.85-.327-.18.893Zm-5.17-.656.78 1.785.2.458-.916.402-.2-.458-.65-1.487h-2.783l-.65 1.487-.2.458-.917-.402.2-.458.782-1.785 1.718-3.929h.916l1.72 3.93Zm-3.132-.3h1.908l-.954-2.181-.954 2.181Zm.812-8.215a7.646 7.646 0 0 1 7.49 6.116l.1.489-.98.2-.1-.491a6.645 6.645 0 0 0-12.78-.87l1.729-.576.316.949-.474.158-2.143.714-.82.273.172-.846a7.646 7.646 0 0 1 7.49-6.116Zm27.486 1.53a.5.5 0 0 1 .417.026l5 2.693a.5.5 0 0 1 .263.44v5.115h-1v-4.816l-4.5-2.424-4.5 2.424v5.555l4.737 2.552.44.238-.474.88-.44-.238-5-2.692a.5.5 0 0 1-.263-.44V27.38a.5.5 0 0 1 .263-.44l5-2.693.057-.026Zm5.417-.743 5 2.692a.5.5 0 0 1 .263.44v6.155a.5.5 0 0 1-.263.44l-5 2.692a.502.502 0 0 1-.474 0l-5-2.693a.5.5 0 0 1-.263-.44v-5.115h1v4.816l4.5 2.424 4.5-2.424v-5.556l-4.737-2.55-.44-.238.474-.88.44.237ZM120 22a8 8 0 1 1 0 16 8 8 0 0 1 0-16Zm0 1a7 7 0 1 0 0 14 7 7 0 0 0 0-14Zm4.205 7.798-.149.476A4.253 4.253 0 0 1 120 34.25a4.236 4.236 0 0 1-3.078-1.323v.948h-1v-2.75l.976-.15a3.254 3.254 0 0 0 6.204 0l.149-.477.954.3ZM120 25.75c1.212 0 2.304.509 3.078 1.322v-.947h1v2.75l-.976.15a3.254 3.254 0 0 0-6.204 0l-.149.477-.954-.3.15-.476A4.252 4.252 0 0 1 120 25.75Zm32.625-.167h2.625v2.25h2.25v9.084h-15v-9.084h2.25v-2.25h2.625v-2.25h5.25v2.25Zm-4.25 1h-2.625v2.25h-2.25v7.084h13v-7.084h-2.25v-2.25h-2.625v-2.25h-3.25v2.25Zm-1.251 6.874h-1v-1.875h1v1.875Zm2.251 0h-1v-1.875h1v1.875Zm2.249 0h-1v-1.875h1v1.875Zm2.25 0h-1v-1.875h1v1.875Zm26.42-11.287 6.497 1.898.359.105v4.267c0 4.306-2.756 8.129-6.841 9.49l-.158.053-.158-.053a10.006 10.006 0 0 1-6.843-9.492v-4.266l.36-.104 6.503-1.898.14-.04.141.04Zm-6.144 2.752v3.516c0 3.82 2.41 7.216 6 8.486a9 9 0 0 0 6-8.484v-3.518l-5.997-1.753-6.003 1.753Zm6.063 6.7 1.812-4.222h1.175l-2.467 5.6h-1.057l-2.476-5.6h1.229l1.784 4.222Zm31.67-8.96 3.869 3.485.165.148v11.167h-11.833V22.533h7.656l.143.13Zm-6.799 13.8h9.833v-9.444h-3.869v-3.485h-5.964v12.929Zm7.667-2.629h-5.417v-1h5.417v1Zm0-3.333h-5.417v-1h5.417v1Zm-.703-4.482h2.068l-2.068-1.864v1.864ZM248 28.667h-4.333v-2.402h-3.557v7.576h3.557v-2.674H248v6h-4.333V34.84h-4.557v-4.287h-2.777V33H232v-6h4.333v2.554h2.777v-4.289h4.557v-2.598H248v6Zm-3.333 7.5H247v-4h-2.333v4ZM233 32h2.333v-4H233v4Zm11.667-4.333H247v-4h-2.333v4ZM278 37.166h-16V22.833h16v14.333Zm-15-1h14v-8.395h-14v8.395Zm0-9.395h14v-2.938h-14v2.938Zm2.417-.855h-1.25v-1.25h1.25v1.25Zm2.5 0h-1.25v-1.25h1.25v1.25Z"></path>
  <path stroke="#636363" stroke-linecap="square" d="m300 22.571-6.5 14.857 6.5-3.376 6.5 3.376-6.5-14.857Z" clip-rule="evenodd"></path>
  <path fill="#636363" d="M396.639 34.639h2.759v1h-2.759v2.76h-1v-2.76h-2.76v-1h2.76v-2.76h1v2.76Z"></path>
  <path fill="#636363" d="M390 22.031a7.969 7.969 0 0 1 7.835 9.414 3.966 3.966 0 0 0-.893-.333 7.031 7.031 0 1 0-4.595 5.516c.131.293.296.567.49.818A7.969 7.969 0 1 1 390 22.031Zm0 4.469a3.5 3.5 0 1 1 0 7 3.5 3.5 0 0 1 0-7Zm0 1a2.5 2.5 0 1 0 0 5 2.5 2.5 0 0 0 0-5Zm-59.5 2h6.666v1H330.5v6.666h-1V30.5h-6.667v-1h6.667v-6.667h1V29.5Zm36.5.92c0 2.57-1.945 4.7-4.4 4.701h-7.953l1.559 1.68.341.366-.733.68-.34-.367-2.34-2.52-.316-.34.316-.34 2.34-2.52.34-.367.733.681-.341.366-1.56 1.681h7.954c1.837 0 3.4-1.615 3.4-3.7v-.5h1v.5Zm-2.473-7.9 2.34 2.52.316.34-.316.34-2.34 2.52-.34.367-.734-.68.341-.366 1.56-1.681h-7.953c-1.837 0-3.401 1.615-3.401 3.7v.5h-1v-.5c0-2.57 1.945-4.7 4.401-4.7h7.953l-1.56-1.68-.341-.366.734-.68.34.366Z"></path>
</svg>