<svg xmlns="http://www.w3.org/2000/svg" width="108" height="72" fill="none" viewBox="0 0 108 72">
  <rect width="107" height="71" x=".5" y=".5" stroke="#9747FF" stroke-dasharray="10 5" rx="4.5"></rect>
  <path fill="#CCC" d="M72.462 23.523a.6.6 0 0 1 1.076 0l3.87 7.842 8.655 1.257a.6.6 0 0 1 .332 1.024l-6.262 6.104 1.478 8.62a.6.6 0 0 1-.87.632L73 44.932l-7.74 4.07a.6.6 0 0 1-.871-.633l1.478-8.619-6.262-6.104a.6.6 0 0 1 .332-1.024l8.655-1.257 3.87-7.842Z"></path>
  <path fill="#FFCB00" d="M28.462 23.523a.6.6 0 0 1 1.076 0l3.87 7.842 8.655 1.257a.6.6 0 0 1 .332 1.024l-6.262 6.104 1.478 8.62a.6.6 0 0 1-.87.632L29 44.932l-7.74 4.07a.6.6 0 0 1-.871-.633l1.478-8.619-6.262-6.104a.6.6 0 0 1 .332-1.024l8.655-1.257 3.87-7.842Z"></path>
</svg>