<svg xmlns="http://www.w3.org/2000/svg" width="350" height="56" fill="none" viewBox="0 0 350 56">
  <rect width="348.152" height="55" x=".5" y=".5" stroke="#8A38F5" stroke-dasharray="10 5" rx="4.5"></rect>
  <rect width="19" height="19" x="10.5" y="18.5" fill="#FFF3E9" stroke="#FF8C27" rx="9.5"></rect>
  <path stroke="#FF8C27" stroke-linecap="square" stroke-linejoin="round" d="m20.529 25.77-2.157-2.157c-.795-.794-2.056-.82-2.818-.059-.761.762-.735 2.023.06 2.818l2.157 2.157m4.429-1.083 2.157 2.157c.794.795.897 2.018.059 2.818-.838.8-2.023.735-2.817-.06l-2.157-2.157m-.204-3.034-1.079-1.079m3.596 3.596-1.079-1.079"></path>
  <rect width="19" height="19" x="44.5" y="18.5" fill="#FFEBEE" stroke="#EE385C" stroke-dasharray="2 1" rx="9.5"></rect>
  <path fill="#EE385C" fill-rule="evenodd" d="M58.624 23.784a2.324 2.324 0 0 0-3.286 0L53.29 25.83a.41.41 0 0 0 0 .582.41.41 0 0 0 .583 0l2.047-2.047a1.501 1.501 0 0 1 2.56 1.06c0 .4-.156.776-.44 1.059l-2.046 2.047a.41.41 0 0 0 .292.702c.106 0 .21-.04.291-.12l2.048-2.047a2.322 2.322 0 0 0-.001-3.283Zm-5.965 1.79a.41.41 0 0 0 .412-.412l-.002-1.65a.41.41 0 1 0-.822 0v1.651a.412.412 0 0 0 .413.41Zm4.928 5.42a.406.406 0 0 0-.29-.118.411.411 0 0 0-.292.702l1.167 1.166a.41.41 0 0 0 .583 0 .41.41 0 0 0 0-.582l-1.168-1.168Zm1.304-1.662H57.24a.404.404 0 0 0-.29.122.41.41 0 0 0 .29.702l1.651-.001a.41.41 0 1 0 .001-.823Zm-3.143 1.503a.41.41 0 0 0-.411.411v1.651a.41.41 0 1 0 .823 0v-1.652a.412.412 0 0 0-.412-.41Zm-1.218-.839-2.046 2.048a1.495 1.495 0 0 1-2.12 0 1.494 1.494 0 0 1 0-2.12l2.047-2.047a.41.41 0 0 0 0-.582.41.41 0 0 0-.582 0L49.78 29.34a2.308 2.308 0 0 0-.681 1.643 2.32 2.32 0 0 0 2.323 2.322 2.31 2.31 0 0 0 1.642-.68l2.048-2.047a.41.41 0 0 0 0-.582.413.413 0 0 0-.583 0Zm-3.71-4.582c.082.08.185.12.29.118a.411.411 0 0 0 .293-.701l-1.168-1.166a.41.41 0 0 0-.582 0 .41.41 0 0 0 0 .582l1.167 1.167Zm-1.304 1.663h1.652a.404.404 0 0 0 .29-.122.41.41 0 0 0-.29-.701h-1.651a.41.41 0 0 0-.411.412.407.407 0 0 0 .41.411Z" clip-rule="evenodd"></path>
  <rect width="20" height="20" x="78" y="18" fill="#FF8C27" fill-opacity=".1" rx="10"></rect>
  <path stroke="#FF8C27" stroke-linecap="square" d="m91.5 26.41-3.5 3.5-3.5-3.5M88 23v6m-3.5 3.535h7"></path>
  <rect width="20" height="20" x="112" y="18" fill="#0069CB" fill-opacity=".1" rx="10"></rect>
  <path fill="#0069CB" d="M127.478 28.322c0 2.024-1.534 3.715-3.486 3.716h-5.823l1.011 1.09.34.366-.732.68-.34-.367-1.792-1.93-.317-.34.317-.339 1.792-1.93.34-.367.732.68-.34.367-1.011 1.09h5.823c1.334 0 2.486-1.176 2.486-2.716v-.5h1v.5Zm-1.926-6.13 1.792 1.93.317.34-.317.34-1.792 1.93-.34.366-.733-.68.341-.366 1.012-1.09h-5.824c-1.333 0-2.486 1.176-2.486 2.715v.5h-1v-.5c0-2.023 1.534-3.715 3.486-3.715h5.824l-1.012-1.09-.341-.366.733-.681.34.367Z"></path>
  <g clip-path="url(#a)">
    <path stroke="#FF8C27" d="M156 19a9 9 0 0 1 9 9 9 9 0 0 1-9 9 9 9 0 0 1-9-9 9 9 0 0 1 9-9Z" clip-rule="evenodd"></path>
    <path stroke="#FF8C27" stroke-width="1.2" d="M156 23.5v5.4"></path>
    <path fill="#FF8C27" d="M155.1 30.7h1.8v1.8h-1.8z"></path>
  </g>
  <rect width="20" height="20" x="180" y="18" fill="#00A870" fill-opacity=".16" rx="10"></rect>
  <path fill="#00A870" d="M190 28a1.36 1.36 0 0 0 1.35-1.371 1.36 1.36 0 0 0-1.35-1.372 1.36 1.36 0 0 0-1.35 1.372A1.36 1.36 0 0 0 190 28Z"></path>
  <path stroke="#00A870" stroke-linecap="square" stroke-width=".8" d="m190 26.628-2.945 6.172M190 26.628l3.037 6.172m-3.834-3.428h1.641m-2.532 1.714h3.376"></path>
  <path stroke="#00A870" stroke-linecap="square" stroke-linejoin="round" stroke-width=".8" d="M187.48 24.4c-1.28 1.193-1.28 3.127 0 4.32m5.04 0c1.28-1.193 1.28-3.127 0-4.32m-6.514-1.2a4.774 4.774 0 0 0 0 6.767m7.988 0a4.774 4.774 0 0 0 0-6.767"></path>
  <rect width="20" height="20" x="214" y="18" fill="#0069CB" fill-opacity=".1" rx="10"></rect>
  <path stroke="#0069CB" stroke-linecap="square" stroke-linejoin="round" stroke-width=".8" d="M222.5 25.054c-1.6 1.491-1.6 3.909 0 5.4m-1.843-6.9a5.968 5.968 0 0 0 0 8.459M225.5 28h-1.8"></path>
  <path stroke="#0069CB" stroke-linecap="square" stroke-width=".8" d="M225.5 23.8h1.8a1.8 1.8 0 0 1 1.8 1.8v4.8a1.8 1.8 0 0 1-1.8 1.8h-1.8v-8.4Z"></path>
  <rect width="19" height="19" x="248.5" y="18.5" fill="#fff" stroke="#CCC" rx="9.5"></rect>
  <path stroke="#00A870" stroke-width=".8" d="M259.934 23.063h-4l-1.6 5.678h2.133l-1.066 4.196 6.933-6.912h-3.2l.8-2.962Z"></path>
  <rect width="19" height="19" x="282.5" y="18.5" fill="#fff" stroke="#CCC" rx="9.5"></rect>
  <path stroke="#00A870" stroke-width=".8" d="M293.934 23.063h-4l-1.6 5.678h2.133l-1.066 4.196 6.933-6.912h-3.2l.8-2.962Z"></path>
  <rect width="20" height="20" x="316" y="18" fill="#E5F0FA" rx="10"></rect>
  <path fill="#0069CB" d="M325.961 20.918c.752 0 1.362.61 1.362 1.363a1.36 1.36 0 0 1-.906 1.282v4.988h1.799v-2.653a1.363 1.363 0 0 1 .499-2.631 1.364 1.364 0 0 1 .501 2.631v2.653h.863v5.668h-8.161V28.55h.864v-2.653a1.364 1.364 0 1 1 1 0v2.653h1.635v-5.022a1.361 1.361 0 0 1 .544-2.611Zm-3.043 12.3h6.161v-3.667h-6.161v3.668Zm.364-8.951a.364.364 0 1 0 0 .728.364.364 0 0 0 0-.728Zm5.433 0a.364.364 0 1 0 .001.729.364.364 0 0 0-.001-.73Zm-2.754-2.349a.364.364 0 0 0 0 .726.362.362 0 0 0 0-.726Z"></path>
  <defs>
    <clipPath id="a">
      <path fill="#fff" d="M146 18h20v20h-20z"></path>
    </clipPath>
  </defs>
</svg>