<svg xmlns="http://www.w3.org/2000/svg" width="20" height="20" fill="none" viewBox="0 0 20 20">
  <path stroke="#EE385C" stroke-width="1.2" d="M2.5 8.68c0-2.664 0-3.996.315-4.445.314-.448 1.567-.877 4.072-1.734l.478-.164c1.306-.447 1.959-.67 2.635-.67.676 0 1.33.223 2.635.67l.478.164c2.505.857 3.758 1.286 4.072 1.734.315.449.315 1.78.315 4.446v1.312c0 4.698-3.533 6.978-5.749 7.946-.601.263-.902.394-1.751.394-.85 0-1.15-.131-1.751-.394C6.032 16.971 2.5 14.691 2.5 9.993V8.68Z"></path>
  <path stroke="#EE385C" stroke-linecap="round" stroke-width="1.2" d="m12.083 7.917-4.166 4.166m0-4.166 4.166 4.166"></path>
</svg>