<svg xmlns="http://www.w3.org/2000/svg" width="214" height="180" fill="none" viewBox="0 0 214 180">
  <g filter="url(#a)">
    <rect width="194" height="160" x="10" y="6" fill="#fff" rx="6" shape-rendering="crispEdges"></rect>
    <path fill="#2B2B2B" d="M37.5 25.5h-7v13h10V31h1v8.5h-12v-15h8v1Zm.5 8h-6v-1h6v1Zm-2-3h-4v-1h4v1Zm6.353-4.146-4 4-.706-.707 4-4 .706.707ZM54.98 37V26.92h5.789v1.029h-4.76v3.5h3.92v1.022h-3.92V37H54.98Zm10.049.21c-.738 0-1.377-.163-1.918-.49a3.325 3.325 0 0 1-1.253-1.379c-.3-.593-.448-1.288-.448-2.086 0-.826.147-1.54.44-2.142a3.278 3.278 0 0 1 1.24-1.393c.536-.327 1.169-.49 1.897-.49.746 0 1.383.173 1.91.518.528.34.927.83 1.198 1.47.27.64.394 1.402.37 2.289h-1.05v-.364c-.018-.98-.23-1.72-.636-2.219-.402-.5-.99-.749-1.764-.749-.812 0-1.435.264-1.87.791-.429.527-.643 1.279-.643 2.254 0 .952.214 1.692.644 2.219.434.523 1.047.784 1.84.784.542 0 1.013-.124 1.415-.371.406-.252.725-.614.959-1.085l.959.371a3.43 3.43 0 0 1-1.323 1.533c-.58.36-1.235.539-1.967.539Zm-2.891-3.703v-.861h5.775v.861h-5.775Zm11.08 3.703c-.737 0-1.377-.163-1.918-.49a3.325 3.325 0 0 1-1.253-1.379c-.299-.593-.448-1.288-.448-2.086 0-.826.147-1.54.441-2.142a3.278 3.278 0 0 1 1.24-1.393c.536-.327 1.168-.49 1.896-.49.747 0 1.384.173 1.911.518.527.34.926.83 1.197 1.47.27.64.394 1.402.371 2.289h-1.05v-.364c-.019-.98-.23-1.72-.637-2.219-.401-.5-.99-.749-1.764-.749-.812 0-1.435.264-1.869.791-.43.527-.644 1.279-.644 2.254 0 .952.215 1.692.644 2.219.434.523 1.048.784 1.841.784.541 0 1.013-.124 1.414-.371.406-.252.726-.614.96-1.085l.958.371a3.43 3.43 0 0 1-1.323 1.533c-.579.36-1.234.539-1.967.539Zm-2.89-3.703v-.861h5.774v.861h-5.775ZM81.14 37.21c-.704 0-1.306-.175-1.806-.525a3.406 3.406 0 0 1-1.147-1.435c-.267-.602-.4-1.281-.4-2.037 0-.751.131-1.428.392-2.03a3.381 3.381 0 0 1 1.141-1.428c.495-.35 1.088-.525 1.779-.525.709 0 1.306.173 1.791.518.486.345.852.819 1.1 1.421.252.597.377 1.279.377 2.044 0 .751-.123 1.43-.37 2.037-.248.602-.612 1.08-1.093 1.435-.48.35-1.068.525-1.764.525Zm.105-.959c.537 0 .98-.13 1.33-.392.35-.261.612-.62.785-1.078.172-.462.258-.985.258-1.568 0-.593-.086-1.115-.258-1.568-.173-.457-.434-.814-.785-1.071-.345-.257-.781-.385-1.308-.385-.542 0-.99.133-1.344.399a2.36 2.36 0 0 0-.792 1.085c-.168.457-.252.97-.252 1.54 0 .574.087 1.092.26 1.554.177.457.44.819.79 1.085.35.266.79.399 1.316.399ZM83.62 37v-5.691h-.113V26.92h1.036V37h-.924Zm6.282.21c-.695 0-1.283-.175-1.764-.525-.48-.355-.844-.833-1.092-1.435-.247-.607-.37-1.286-.37-2.037 0-.765.123-1.447.37-2.044.252-.602.621-1.076 1.106-1.421.486-.345 1.083-.518 1.792-.518.691 0 1.284.175 1.778.525.495.35.873.826 1.134 1.428.266.602.4 1.279.4 2.03 0 .756-.134 1.435-.4 2.037a3.405 3.405 0 0 1-1.148 1.435c-.499.35-1.101.525-1.806.525ZM86.5 37V26.92h1.036v4.389h-.112V37H86.5Zm3.297-.749c.528 0 .966-.133 1.316-.399a2.38 2.38 0 0 0 .784-1.085c.178-.462.266-.98.266-1.554 0-.57-.086-1.083-.259-1.54a2.36 2.36 0 0 0-.79-1.085c-.35-.266-.796-.399-1.338-.399-.527 0-.966.128-1.316.385-.345.257-.604.614-.777 1.071-.172.453-.259.975-.259 1.568 0 .583.087 1.106.26 1.568.172.457.433.817.783 1.078.35.261.794.392 1.33.392Zm7.159.959c-.57 0-1.048-.103-1.436-.308a2.088 2.088 0 0 1-.86-.819 2.235 2.235 0 0 1-.287-1.113c0-.41.081-.76.245-1.05.168-.294.394-.534.678-.721a3.41 3.41 0 0 1 1.001-.427c.383-.093.806-.175 1.267-.245.467-.075.922-.138 1.366-.189.447-.056.84-.11 1.176-.161l-.364.224c.013-.747-.131-1.3-.434-1.659-.304-.36-.831-.539-1.583-.539-.517 0-.956.117-1.316.35-.354.233-.604.602-.749 1.106l-1-.294c.172-.677.52-1.202 1.043-1.575.522-.373 1.201-.56 2.037-.56.69 0 1.276.13 1.757.392.485.257.828.63 1.029 1.12.093.22.154.464.182.735.028.27.042.546.042.826V37h-.918v-1.897l.267.112c-.257.649-.656 1.143-1.198 1.484-.54.34-1.19.511-1.945.511Zm.118-.889c.481 0 .901-.086 1.26-.259.36-.173.65-.408.868-.707a2.41 2.41 0 0 0 .427-1.022c.056-.243.087-.509.091-.798.005-.294.008-.513.008-.658l.392.203c-.35.047-.73.093-1.142.14-.405.047-.807.1-1.203.161-.393.06-.747.133-1.065.217-.214.06-.422.147-.622.259a1.426 1.426 0 0 0-.497.434 1.165 1.165 0 0 0-.19.679c0 .22.054.432.162.637.111.205.289.376.531.511.248.135.575.203.98.203Zm8.634.889c-.761 0-1.405-.17-1.932-.511a3.25 3.25 0 0 1-1.204-1.407c-.271-.602-.411-1.293-.42-2.072.009-.793.154-1.489.434-2.086a3.2 3.2 0 0 1 1.211-1.4c.527-.336 1.166-.504 1.918-.504.765 0 1.43.187 1.995.56a2.82 2.82 0 0 1 1.169 1.533l-1.008.322a2.134 2.134 0 0 0-.847-1.05 2.34 2.34 0 0 0-1.316-.378c-.556 0-1.015.128-1.379.385a2.238 2.238 0 0 0-.812 1.057c-.178.453-.269.973-.273 1.561.009.905.219 1.633.63 2.184.41.546 1.022.819 1.834.819.513 0 .949-.117 1.309-.35.364-.238.639-.583.826-1.036l1.036.308c-.28.672-.691 1.185-1.232 1.54-.542.35-1.188.525-1.939.525Zm4.609-.21.007-10.08h1.036v6.16l3.374-3.64h1.372l-3.542 3.78 4.004 3.78h-1.498l-3.71-3.64V37h-1.043ZM36 59.5a8 8 0 1 1 0 16 8 8 0 0 1 0-16Zm0 1a7 7 0 1 0 0 14 7 7 0 0 0 0-14Zm.6 11.1h-1.2v-5.2h1.2v5.2Zm.15-6.1h-1.5V64h1.5v1.5ZM54.28 73l3.472-10.08h1.365L62.589 73h-1.071l-3.297-9.506h.406L55.351 73H54.28Zm1.547-2.443v-.966h5.208v.966h-5.208Zm11.421 2.653c-.695 0-1.283-.175-1.764-.525a3.297 3.297 0 0 1-1.092-1.435c-.247-.607-.371-1.286-.371-2.037 0-.765.124-1.447.371-2.044.252-.602.62-1.076 1.106-1.421.485-.345 1.083-.518 1.792-.518.69 0 1.283.175 1.778.525.495.35.873.826 1.134 1.428.266.602.399 1.279.399 2.03 0 .756-.133 1.435-.399 2.037a3.405 3.405 0 0 1-1.148 1.435c-.5.35-1.101.525-1.806.525ZM63.846 73V62.92h1.036v4.389h-.112V73h-.924Zm3.297-.749c.527 0 .966-.133 1.316-.399a2.38 2.38 0 0 0 .784-1.085c.177-.462.266-.98.266-1.554 0-.57-.086-1.083-.259-1.54a2.36 2.36 0 0 0-.791-1.085c-.35-.266-.796-.399-1.337-.399-.527 0-.966.128-1.316.385-.345.257-.604.614-.777 1.071-.173.453-.259.975-.259 1.568 0 .583.086 1.106.259 1.568.173.457.434.817.784 1.078.35.261.793.392 1.33.392Zm8.152.959c-.751 0-1.393-.17-1.925-.511a3.325 3.325 0 0 1-1.225-1.414c-.284-.602-.427-1.293-.427-2.072 0-.793.145-1.489.434-2.086a3.29 3.29 0 0 1 1.232-1.393c.537-.336 1.174-.504 1.911-.504.756 0 1.4.17 1.932.511.537.336.945.805 1.225 1.407.285.597.427 1.286.427 2.065 0 .793-.142 1.491-.427 2.093a3.272 3.272 0 0 1-1.232 1.4c-.537.336-1.178.504-1.925.504Zm0-.987c.84 0 1.465-.278 1.876-.833.41-.56.616-1.286.616-2.177 0-.915-.208-1.643-.623-2.184-.41-.541-1.034-.812-1.869-.812-.564 0-1.031.128-1.4.385a2.282 2.282 0 0 0-.819 1.057c-.177.448-.266.966-.266 1.554 0 .91.21 1.64.63 2.191.42.546 1.038.819 1.855.819Zm8.02.966c-.453 0-.85-.07-1.19-.21a2.634 2.634 0 0 1-.862-.567 2.988 2.988 0 0 1-.567-.812 4.088 4.088 0 0 1-.315-.973 5.519 5.519 0 0 1-.098-1.029V65.44h1.036v3.857c0 .415.04.8.12 1.155.079.355.205.665.377.931.178.261.404.464.68.609.28.145.618.217 1.014.217.364 0 .684-.063.96-.189a1.86 1.86 0 0 0 .7-.539c.19-.238.335-.525.433-.861a4.15 4.15 0 0 0 .147-1.148l.728.161c0 .775-.135 1.426-.406 1.953-.27.527-.644.926-1.12 1.197-.476.27-1.022.406-1.638.406Zm2.54-.189v-1.862h-.105V65.44h1.03V73h-.925Zm6.997 0a5.035 5.035 0 0 1-1.26.105 2.795 2.795 0 0 1-1.106-.266 1.596 1.596 0 0 1-.735-.742 2.18 2.18 0 0 1-.224-.847c-.01-.29-.014-.618-.014-.987V63.34h1.022v6.881c0 .317.002.583.007.798.01.21.058.397.147.56.168.313.434.5.798.56.369.06.824.047 1.365-.042V73Zm-4.956-6.678v-.882h4.956v.882h-4.956ZM32.833 96.993c1.342 0 2.517.713 3.167 1.781a3.703 3.703 0 0 1 3.167-1.781h4.893v12.556h-5.684a1.839 1.839 0 0 0-1.839 1.838h-1.074a1.839 1.839 0 0 0-1.839-1.838H27.94V96.993h4.893Zm-3.818 11.481h4.609a2.9 2.9 0 0 1 1.839.654v-8.431a2.63 2.63 0 0 0-2.63-2.63h-3.818v10.407Zm10.152-10.407a2.63 2.63 0 0 0-2.63 2.63v8.431a2.9 2.9 0 0 1 1.839-.654h4.61V98.067h-3.819ZM57.661 109v-9.093H54.14v-.987h8.071v.987H58.69V109h-1.029Zm7.866.189c-.452 0-.85-.07-1.19-.21a2.634 2.634 0 0 1-.86-.567 2.992 2.992 0 0 1-.568-.812 4.084 4.084 0 0 1-.315-.973 5.514 5.514 0 0 1-.098-1.029v-4.158h1.036v3.857c0 .415.04.8.12 1.155.079.355.205.665.377.931.178.261.404.464.68.609.28.145.618.217 1.014.217.364 0 .684-.063.96-.189.28-.126.513-.306.7-.539.19-.238.335-.525.433-.861a4.15 4.15 0 0 0 .147-1.148l.728.161c0 .775-.135 1.426-.406 1.953-.27.527-.644.926-1.12 1.197-.476.271-1.022.406-1.638.406Zm2.541-.189v-1.862h-.105v-5.698h1.03V109h-.925Zm6.997 0a5.007 5.007 0 0 1-1.26.105 2.795 2.795 0 0 1-1.106-.266 1.598 1.598 0 0 1-.735-.742 2.178 2.178 0 0 1-.224-.847c-.01-.289-.014-.618-.014-.987V99.34h1.022v6.881c0 .317.002.583.007.798.01.21.058.397.147.56.168.313.434.499.798.56.368.061.823.047 1.365-.042V109Zm-4.956-6.678v-.882h4.956v.882h-4.956Zm9.329 6.888c-.752 0-1.393-.17-1.925-.511a3.326 3.326 0 0 1-1.225-1.414c-.285-.602-.427-1.293-.427-2.072 0-.793.144-1.489.434-2.086a3.29 3.29 0 0 1 1.232-1.393c.536-.336 1.173-.504 1.91-.504.757 0 1.4.17 1.933.511a3.22 3.22 0 0 1 1.225 1.407c.284.597.427 1.286.427 2.065 0 .793-.143 1.491-.427 2.093a3.274 3.274 0 0 1-1.232 1.4c-.537.336-1.179.504-1.925.504Zm0-.987c.84 0 1.465-.278 1.876-.833.41-.56.616-1.286.616-2.177 0-.915-.208-1.643-.623-2.184-.41-.541-1.034-.812-1.87-.812-.564 0-1.03.128-1.4.385a2.281 2.281 0 0 0-.818 1.057c-.178.448-.266.966-.266 1.554 0 .91.21 1.64.63 2.191.42.546 1.038.819 1.855.819Zm5.128.777v-7.56h.924v1.82l-.182-.238c.084-.224.194-.429.329-.616a2.14 2.14 0 0 1 .44-.469c.197-.173.426-.303.687-.392.261-.093.525-.147.79-.161.267-.019.51 0 .729.056v.966a2.504 2.504 0 0 0-.903-.049 1.718 1.718 0 0 0-.903.392 1.88 1.88 0 0 0-.567.707 3.01 3.01 0 0 0-.252.868 6.57 6.57 0 0 0-.063.903V109h-1.03Zm5.185-8.995V98.85h1.029v1.155h-1.03Zm0 8.995v-7.56h1.029V109h-1.03Zm5.29.21c-.569 0-1.047-.103-1.435-.308a2.085 2.085 0 0 1-.86-.819 2.237 2.237 0 0 1-.288-1.113c0-.411.082-.761.245-1.05.168-.294.395-.534.68-.721a3.393 3.393 0 0 1 1-.427 14.73 14.73 0 0 1 1.267-.245c.467-.075.922-.138 1.365-.189.448-.056.84-.11 1.176-.161l-.364.224c.014-.747-.13-1.3-.434-1.659-.303-.359-.83-.539-1.582-.539-.518 0-.956.117-1.316.35-.354.233-.604.602-.749 1.106l-1-.294c.172-.677.52-1.202 1.042-1.575.523-.373 1.202-.56 2.037-.56.691 0 1.277.131 1.757.392.486.257.829.63 1.03 1.12.093.219.153.464.181.735.028.271.042.546.042.826V109h-.917v-1.897l.266.112c-.256.649-.655 1.143-1.197 1.484-.54.341-1.19.511-1.946.511Zm.12-.889c.48 0 .9-.086 1.26-.259.359-.173.648-.408.867-.707a2.41 2.41 0 0 0 .427-1.022c.056-.243.087-.509.091-.798.005-.294.007-.513.007-.658l.392.203c-.35.047-.73.093-1.14.14-.407.047-.808.1-1.205.161-.392.061-.746.133-1.064.217a2.904 2.904 0 0 0-.623.259c-.2.107-.366.252-.497.434a1.164 1.164 0 0 0-.189.679c0 .219.054.432.161.637.112.205.29.376.532.511.248.135.574.203.98.203Zm5.637.679V98.71h1.029V109h-1.029Z"></path>
    <path fill="#F4F4F4" d="M10 122h194v36H10z"></path>
    <path stroke="#F4F4F4" d="M10 122h194v36H10z"></path>
    <path fill="#2B2B2B" d="M41.387 146.964H30.613v-1h10.774v1Zm2.655-2.154H27.959v-11.774h16.083v11.774Zm-15.083-1h14.083v-9.774H28.959v9.774Zm6.856-7.227-1.84 1.84h6.335v1h-6.335l1.84 1.84-.708.707-3.047-3.047 3.047-3.047.708.707Zm23.099-2.377h7.518v11.774h-1.106V135.2h-5.348v10.892h-1.064v-11.886Zm.658 9.856h5.978v.994h-5.978v-.994Zm.028-5.068h5.936v.994H59.6v-.994Zm-3.99-5.194h1.106v12.32H55.61V133.8Zm19.698.07h5.866v.952h-5.866v-.952Zm-5.432 3.248h4.27v.938h-4.27v-.938Zm5.46.378h5.012v.966h-5.012v-.966Zm-3.388-4.284h.966v4.466h-.966v-4.466Zm2.842.658h.994v4.018c0 .597-.019 1.251-.056 1.96-.028.7-.093 1.419-.196 2.156a16.884 16.884 0 0 1-.448 2.17 8.86 8.86 0 0 1-.756 1.932 1.726 1.726 0 0 0-.252-.196l-.336-.196a1.754 1.754 0 0 0-.28-.126 9.016 9.016 0 0 0 .714-1.834c.187-.663.322-1.335.406-2.016.093-.691.15-1.363.168-2.016.028-.663.042-1.274.042-1.834v-4.018Zm-4.872 6.216h3.374v6.02h-.966v-5.068h-2.408v-.952Zm-.448-6.566h.938v5.558c0 .607-.014 1.227-.042 1.862a17.726 17.726 0 0 1-.182 1.862 10.933 10.933 0 0 1-.392 1.778 6.664 6.664 0 0 1-.686 1.554 2.302 2.302 0 0 0-.21-.21l-.266-.238a1.214 1.214 0 0 0-.266-.168c.243-.457.434-.947.574-1.47.15-.523.261-1.064.336-1.624.084-.56.135-1.125.154-1.694.028-.569.042-1.12.042-1.652v-5.558Zm10.556 3.976h.196l.182-.028.644.196c-.224 1.437-.579 2.707-1.064 3.808-.476 1.092-1.06 2.025-1.75 2.8a8.947 8.947 0 0 1-2.296 1.848 2.147 2.147 0 0 0-.182-.294 6.863 6.863 0 0 0-.238-.308 1.576 1.576 0 0 0-.252-.252 7.268 7.268 0 0 0 2.128-1.624c.653-.709 1.209-1.563 1.666-2.562.457-.999.78-2.123.966-3.374v-.21Zm-3.22.616a15.25 15.25 0 0 0 .98 3.08c.42.943.947 1.764 1.582 2.464a6.694 6.694 0 0 0 2.254 1.61 3.067 3.067 0 0 0-.252.252 7.844 7.844 0 0 0-.266.308 3.714 3.714 0 0 0-.21.308 7.278 7.278 0 0 1-2.31-1.806c-.644-.756-1.18-1.643-1.61-2.66a18.65 18.65 0 0 1-1.036-3.36l.868-.196Zm6.104-1.918h12.208v1.064H82.91v-1.064Zm2.786 6.244h6.524v1.064h-6.524v-1.064Zm2.744-9.184h1.106v12.866H88.44v-12.866Zm-.336 3.29.952.308c-.42.989-.933 1.937-1.54 2.842a16.081 16.081 0 0 1-2.016 2.436 11.86 11.86 0 0 1-2.31 1.778 2.471 2.471 0 0 0-.224-.28 10.277 10.277 0 0 0-.28-.322 2.324 2.324 0 0 0-.252-.266 9.795 9.795 0 0 0 1.708-1.148c.56-.457 1.087-.971 1.582-1.54.504-.579.957-1.19 1.358-1.834a13.68 13.68 0 0 0 1.022-1.974Zm1.778.042c.373.887.854 1.745 1.442 2.576a14.117 14.117 0 0 0 1.974 2.226 10.324 10.324 0 0 0 2.31 1.568 6.674 6.674 0 0 0-.28.266 5.533 5.533 0 0 0-.28.336 3.11 3.11 0 0 0-.238.322 11.84 11.84 0 0 1-2.338-1.75 14.954 14.954 0 0 1-2.002-2.422 16.929 16.929 0 0 1-1.512-2.8l.924-.322Z"></path>
  </g>
  <defs>
    <filter id="a" width="214" height="180" x="0" y="0" color-interpolation-filters="sRGB" filterUnits="userSpaceOnUse">
      <feFlood flood-opacity="0" result="BackgroundImageFix"></feFlood>
      <feColorMatrix in="SourceAlpha" result="hardAlpha" values="0 0 0 0 0 0 0 0 0 0 0 0 0 0 0 0 0 0 127 0"></feColorMatrix>
      <feOffset dy="4"></feOffset>
      <feGaussianBlur stdDeviation="5"></feGaussianBlur>
      <feComposite in2="hardAlpha" operator="out"></feComposite>
      <feColorMatrix values="0 0 0 0 0.168627 0 0 0 0 0.168627 0 0 0 0 0.168627 0 0 0 0.25 0"></feColorMatrix>
      <feBlend in2="BackgroundImageFix" result="effect1_dropShadow_25947_13505"></feBlend>
      <feBlend in="SourceGraphic" in2="effect1_dropShadow_25947_13505" result="shape"></feBlend>
    </filter>
  </defs>
</svg>