<svg xmlns="http://www.w3.org/2000/svg" width="70" height="13" fill="none" viewBox="0 0 70 13">
  <path fill="#000" d="M8.932.098h.966v11.13h-.966V.098Zm-3.01 3.01h7.35v.812h-7.35v-.812Zm.308 5.698h6.762v.812H6.23v-.812Zm.42-1.918h5.95v.826H6.65v-.826ZM3.486 1.162h2.03v.868h-2.03v-.868Zm.518 3.92h1.792v.826H4.004v-.826Zm1.274-3.92h.14l.154-.056.672.196a45.11 45.11 0 0 1-.672 1.638 232.27 232.27 0 0 1-.812 1.862 56.04 56.04 0 0 1-.798 1.764l-.882-.224c.196-.401.397-.835.602-1.302.215-.467.42-.933.616-1.4.205-.467.392-.9.56-1.302.168-.41.308-.76.42-1.05v-.126Zm.252 3.92h.168l.168-.028.574.112c-.168 1.941-.504 3.533-1.008 4.774s-1.19 2.203-2.058 2.884a2.712 2.712 0 0 0-.182-.252 5.465 5.465 0 0 0-.21-.28 1.268 1.268 0 0 0-.224-.224c.504-.373.947-.877 1.33-1.512.383-.644.695-1.41.938-2.296.243-.887.41-1.885.504-2.996v-.182Zm-1.456 1.96c.187.943.434 1.717.742 2.324.317.607.695 1.078 1.134 1.414.448.327.957.56 1.526.7.579.13 1.223.196 1.932.196h2.394c.345-.01.653-.014.924-.014.27 0 .462-.005.574-.014a7.691 7.691 0 0 0-.154.294 5.57 5.57 0 0 0-.21.672H9.38c-.84 0-1.591-.08-2.254-.238a4.362 4.362 0 0 1-1.722-.798c-.495-.392-.92-.933-1.274-1.624-.355-.69-.644-1.577-.868-2.66l.812-.252Zm2.8-5.824h5.544v4.606H6.874v-.812h4.634V2.03H6.874v-.812ZM2.744.07l.952.266c-.233.775-.518 1.54-.854 2.296-.327.756-.686 1.47-1.078 2.142A13.263 13.263 0 0 1 .518 6.552a2.593 2.593 0 0 0-.14-.322c-.065-.13-.13-.266-.196-.406A2.61 2.61 0 0 0 0 5.488c.579-.663 1.106-1.47 1.582-2.422A17.95 17.95 0 0 0 2.744.07Zm-.98 3.542.924-.924.014.028v10.136h-.938v-9.24Zm14.952 1.526h10.43v.798h-10.43v-.798Zm.98-1.806h8.064v4.466h-8.176v-.77h7.182V4.102h-7.07v-.77Zm3.29-1.008h1.008v9.352c0 .327-.047.565-.14.714-.084.159-.238.275-.462.35-.224.075-.527.117-.91.126a30.5 30.5 0 0 1-1.442.028 4.586 4.586 0 0 0-.14-.462 1.922 1.922 0 0 0-.21-.462c.299.01.579.014.84.014.27.01.504.01.7 0h.434c.121 0 .205-.023.252-.07.047-.047.07-.126.07-.238V2.324Zm-3.92 6.216.602-.56c.243.13.495.285.756.462.261.168.509.336.742.504.243.168.439.327.588.476l-.644.63a4.544 4.544 0 0 0-.56-.49 16.44 16.44 0 0 0-.742-.532c-.261-.187-.509-.35-.742-.49Zm8.526-.504.784.63a23 23 0 0 1-1.4.924c-.504.299-.97.555-1.4.77l-.602-.546c.28-.14.579-.313.896-.518.327-.215.64-.43.938-.644.308-.224.57-.43.784-.616Zm-3.36-.532a6.824 6.824 0 0 0 1.736 2.744c.793.765 1.76 1.311 2.898 1.638a2.553 2.553 0 0 0-.364.392 2.905 2.905 0 0 0-.28.462c-1.176-.41-2.17-1.045-2.982-1.904-.803-.868-1.41-1.909-1.82-3.122l.812-.21Zm-5.908 3.976c.476-.159 1.05-.36 1.722-.602a895.96 895.96 0 0 0 2.072-.77l.182.784-1.82.756c-.597.252-1.153.476-1.666.672l-.49-.84ZM20.58 0h1.078v1.792H20.58V0Zm-4.718 1.288h11.13v.938h-11.13v-.938Zm-.504 0h1.008v4.144c0 .55-.019 1.148-.056 1.792a21.563 21.563 0 0 1-.182 1.988c-.093.672-.233 1.33-.42 1.974a8.354 8.354 0 0 1-.7 1.75 2.135 2.135 0 0 0-.252-.21 3.805 3.805 0 0 0-.616-.364 6.87 6.87 0 0 0 .672-1.638c.159-.588.275-1.19.35-1.806.084-.625.135-1.232.154-1.82.028-.597.042-1.153.042-1.666V1.288ZM30.856 3.92h9.968v.868h-9.968V3.92Zm.196 4.088h8.022v.868h-8.022v-.868Zm2.058-5.306h1.008v3.57h3.402v-3.57h1.036v4.41H33.11v-4.41Zm5.684 5.306h.21l.182-.042.658.35a6.422 6.422 0 0 1-1.498 1.89 8.882 8.882 0 0 1-2.1 1.316 14.03 14.03 0 0 1-2.52.854c-.896.224-1.82.392-2.772.504a1.957 1.957 0 0 0-.182-.448 2.05 2.05 0 0 0-.266-.434 26.1 26.1 0 0 0 2.604-.406c.85-.187 1.643-.434 2.38-.742a8.564 8.564 0 0 0 1.974-1.12 4.74 4.74 0 0 0 1.33-1.568v-.154Zm-5.25.728c.448.625 1.05 1.162 1.806 1.61.765.448 1.643.807 2.632 1.078.99.27 2.049.462 3.178.574-.065.075-.14.168-.224.28-.075.112-.15.22-.224.322a5.549 5.549 0 0 0-.168.308 18.004 18.004 0 0 1-3.234-.714 11.326 11.326 0 0 1-2.716-1.246 7.14 7.14 0 0 1-1.946-1.862l.896-.35ZM34.58 0h1.078v1.918H34.58V0Zm-4.662 1.386h10.99v.952h-10.99v-.952Zm-.518 0h1.008v4.046c0 .541-.019 1.134-.056 1.778a18.338 18.338 0 0 1-.196 1.974 13.527 13.527 0 0 1-.42 1.96 7.506 7.506 0 0 1-.728 1.75 2.455 2.455 0 0 0-.252-.21 9.656 9.656 0 0 0-.322-.224 1.194 1.194 0 0 0-.294-.14c.29-.504.518-1.045.686-1.624.168-.588.294-1.19.378-1.806.084-.616.135-1.218.154-1.806a35.46 35.46 0 0 0 .042-1.652V1.386Zm19.306 2.758c-.28 0-.527-.093-.742-.28-.215-.196-.322-.453-.322-.77s.107-.57.322-.756c.215-.196.462-.294.742-.294.28 0 .527.098.742.294.215.187.322.439.322.756s-.107.574-.322.77c-.215.187-.462.28-.742.28Zm0 6.86c-.28 0-.527-.093-.742-.28-.215-.196-.322-.453-.322-.77 0-.327.107-.583.322-.77.215-.196.462-.294.742-.294.28 0 .527.098.742.294.215.187.322.443.322.77 0 .317-.107.574-.322.77-.215.187-.462.28-.742.28ZM61.964.714h6.16v.98h-6.16v-.98Zm-.476 4.928h7.7v.994h-7.7v-.994Zm3.304-1.862h1.05v7.77c0 .317-.042.56-.126.728-.084.168-.238.299-.462.392-.224.075-.523.121-.896.14-.373.028-.84.042-1.4.042a2.955 2.955 0 0 0-.168-.518 5.713 5.713 0 0 0-.224-.518c.448.01.85.014 1.204.014.355.01.593.01.714 0s.2-.033.238-.07c.047-.037.07-.107.07-.21V3.78ZM67.746.714h.252l.21-.056.7.504c-.28.401-.602.812-.966 1.232-.364.41-.747.803-1.148 1.176-.392.373-.78.705-1.162.994a2.403 2.403 0 0 0-.308-.336 2.768 2.768 0 0 0-.308-.294c.336-.252.677-.55 1.022-.896.345-.355.667-.714.966-1.078a8.1 8.1 0 0 0 .742-1.008V.714Zm-11.438 2.17h4.62v.994h-4.62v-.994ZM58.422 0l1.008.112c-.14.7-.294 1.447-.462 2.24-.168.793-.345 1.591-.532 2.394a344.46 344.46 0 0 1-.546 2.31 44.08 44.08 0 0 1-.518 1.974l-.868-.476c.15-.532.308-1.148.476-1.848a114.913 114.913 0 0 0 1.036-4.55c.159-.775.294-1.493.406-2.156Zm-1.414 8.12.588-.742c.523.29 1.06.625 1.61 1.008.55.373 1.06.756 1.526 1.148.476.392.854.76 1.134 1.106l-.644.854a8.788 8.788 0 0 0-1.106-1.134 18.335 18.335 0 0 0-3.108-2.24Zm3.57-5.236h.168l.182-.028.63.126c-.121 1.801-.373 3.35-.756 4.648-.373 1.288-.873 2.361-1.498 3.22a7.51 7.51 0 0 1-2.226 2.058 2.78 2.78 0 0 0-.294-.448 3.024 3.024 0 0 0-.35-.392c.775-.42 1.451-1.027 2.03-1.82.579-.803 1.045-1.797 1.4-2.982.355-1.195.593-2.58.714-4.158v-.224Z"></path>
</svg>