<svg xmlns="http://www.w3.org/2000/svg" width="69" height="13" fill="none" viewBox="0 0 69 13">
  <path fill="#000" d="M8.932.126h.966v11.13h-.966V.126Zm-3.01 3.01h7.35v.812h-7.35v-.812Zm.308 5.698h6.762v.812H6.23v-.812Zm.42-1.918h5.95v.826H6.65v-.826ZM3.486 1.19h2.03v.868h-2.03V1.19Zm.518 3.92h1.792v.826H4.004V5.11Zm1.274-3.92h.14l.154-.056.672.196a45.11 45.11 0 0 1-.672 1.638c-.261.607-.532 1.227-.812 1.862a56.02 56.02 0 0 1-.798 1.764L3.08 6.37c.196-.401.397-.835.602-1.302.215-.467.42-.933.616-1.4.205-.467.392-.9.56-1.302.168-.41.308-.76.42-1.05V1.19Zm.252 3.92h.168l.168-.028.574.112c-.168 1.941-.504 3.533-1.008 4.774s-1.19 2.203-2.058 2.884a2.74 2.74 0 0 0-.182-.252 5.51 5.51 0 0 0-.21-.28 1.268 1.268 0 0 0-.224-.224c.504-.373.947-.877 1.33-1.512.383-.644.695-1.41.938-2.296.243-.887.41-1.885.504-2.996V5.11ZM4.074 7.07c.187.943.434 1.717.742 2.324.317.607.695 1.078 1.134 1.414.448.327.957.56 1.526.7.579.13 1.223.196 1.932.196h2.394c.345-.01.653-.014.924-.014.27 0 .462-.005.574-.014a7.691 7.691 0 0 0-.154.294 5.59 5.59 0 0 0-.21.672H9.38c-.84 0-1.591-.08-2.254-.238a4.362 4.362 0 0 1-1.722-.798c-.495-.392-.92-.933-1.274-1.624-.355-.69-.644-1.577-.868-2.66l.812-.252Zm2.8-5.824h5.544v4.606H6.874V5.04h4.634V2.058H6.874v-.812ZM2.744.098l.952.266c-.233.775-.518 1.54-.854 2.296-.327.756-.686 1.47-1.078 2.142A13.262 13.262 0 0 1 .518 6.58a2.593 2.593 0 0 0-.14-.322c-.065-.13-.13-.266-.196-.406A2.61 2.61 0 0 0 0 5.516c.579-.663 1.106-1.47 1.582-2.422A17.95 17.95 0 0 0 2.744.098Zm-.98 3.542.924-.924.014.028V12.88h-.938V3.64Zm14.952 1.526h10.43v.798h-10.43v-.798Zm.98-1.806h8.064v4.466h-8.176v-.77h7.182V4.13h-7.07v-.77Zm3.29-1.008h1.008v9.352c0 .327-.047.565-.14.714-.084.159-.238.275-.462.35-.224.075-.527.117-.91.126a30.5 30.5 0 0 1-1.442.028 4.586 4.586 0 0 0-.14-.462 1.922 1.922 0 0 0-.21-.462c.299.01.579.014.84.014.27.01.504.01.7 0h.434c.121 0 .205-.023.252-.07.047-.047.07-.126.07-.238V2.352Zm-3.92 6.216.602-.56c.243.13.495.285.756.462.261.168.509.336.742.504.243.168.439.327.588.476l-.644.63a4.546 4.546 0 0 0-.56-.49 16.44 16.44 0 0 0-.742-.532c-.261-.187-.509-.35-.742-.49Zm8.526-.504.784.63a23 23 0 0 1-1.4.924c-.504.299-.97.555-1.4.77l-.602-.546c.28-.14.579-.313.896-.518.327-.215.64-.43.938-.644.308-.224.57-.43.784-.616Zm-3.36-.532a6.824 6.824 0 0 0 1.736 2.744c.793.765 1.76 1.311 2.898 1.638a2.558 2.558 0 0 0-.364.392 2.905 2.905 0 0 0-.28.462c-1.176-.41-2.17-1.045-2.982-1.904-.803-.868-1.41-1.909-1.82-3.122l.812-.21Zm-5.908 3.976c.476-.159 1.05-.36 1.722-.602a895.96 895.96 0 0 0 2.072-.77l.182.784-1.82.756c-.597.252-1.153.476-1.666.672l-.49-.84ZM20.58.028h1.078V1.82H20.58V.028Zm-4.718 1.288h11.13v.938h-11.13v-.938Zm-.504 0h1.008V5.46c0 .55-.019 1.148-.056 1.792a21.563 21.563 0 0 1-.182 1.988c-.093.672-.233 1.33-.42 1.974a8.354 8.354 0 0 1-.7 1.75 2.135 2.135 0 0 0-.252-.21 3.855 3.855 0 0 0-.616-.364 6.87 6.87 0 0 0 .672-1.638c.159-.588.275-1.19.35-1.806.084-.625.135-1.232.154-1.82.028-.597.042-1.153.042-1.666V1.316Zm15.498 2.632h9.968v.868h-9.968v-.868Zm.196 4.088h8.022v.868h-8.022v-.868ZM33.11 2.73h1.008V6.3h3.402V2.73h1.036v4.41H33.11V2.73Zm5.684 5.306h.21l.182-.042.658.35a6.422 6.422 0 0 1-1.498 1.89 8.879 8.879 0 0 1-2.1 1.316c-.784.355-1.624.64-2.52.854-.896.224-1.82.392-2.772.504a1.959 1.959 0 0 0-.182-.448 2.05 2.05 0 0 0-.266-.434 26.07 26.07 0 0 0 2.604-.406c.85-.187 1.643-.434 2.38-.742a8.564 8.564 0 0 0 1.974-1.12 4.74 4.74 0 0 0 1.33-1.568v-.154Zm-5.25.728c.448.625 1.05 1.162 1.806 1.61.765.448 1.643.807 2.632 1.078.99.27 2.049.462 3.178.574-.065.075-.14.168-.224.28-.075.112-.15.22-.224.322a5.549 5.549 0 0 0-.168.308 18.004 18.004 0 0 1-3.234-.714 11.323 11.323 0 0 1-2.716-1.246 7.138 7.138 0 0 1-1.946-1.862l.896-.35ZM34.58.028h1.078v1.918H34.58V.028Zm-4.662 1.386h10.99v.952h-10.99v-.952Zm-.518 0h1.008V5.46c0 .541-.019 1.134-.056 1.778a18.338 18.338 0 0 1-.196 1.974 13.524 13.524 0 0 1-.42 1.96 7.506 7.506 0 0 1-.728 1.75 2.455 2.455 0 0 0-.252-.21 9.807 9.807 0 0 0-.322-.224 1.194 1.194 0 0 0-.294-.14c.29-.504.518-1.045.686-1.624.168-.588.294-1.19.378-1.806.084-.616.135-1.218.154-1.806A35.46 35.46 0 0 0 29.4 5.46V1.414Zm19.306 2.758c-.28 0-.527-.093-.742-.28-.215-.196-.322-.453-.322-.77s.107-.57.322-.756c.215-.196.462-.294.742-.294.28 0 .527.098.742.294.215.187.322.439.322.756s-.107.574-.322.77c-.215.187-.462.28-.742.28Zm0 6.86c-.28 0-.527-.093-.742-.28-.215-.196-.322-.453-.322-.77 0-.327.107-.583.322-.77.215-.196.462-.294.742-.294.28 0 .527.098.742.294.215.187.322.443.322.77 0 .317-.107.574-.322.77-.215.187-.462.28-.742.28Zm8.414-9.114h11.27v.924H57.12v-.924Zm.686 2.156h9.884v.896h-9.884v-.896Zm1.288 7.56h9.548v.924h-9.548v-.924ZM56.49 6.23h12.432v.952H56.49V6.23Zm3.948 2.016h7.266v.924h-7.266v-.924Zm1.708-5.88h1.078v4.536h-1.078V2.366Zm1.134 6.328h1.064v3.332H63.28V8.694ZM59.038.434l.896-.364c.233.261.457.555.672.882.215.327.369.616.462.868l-.952.42a5.241 5.241 0 0 0-.448-.882 8.364 8.364 0 0 0-.63-.924ZM65.38 0l1.106.336c-.205.327-.42.653-.644.98-.224.327-.43.611-.616.854l-.882-.308a8.82 8.82 0 0 0 .378-.574c.13-.224.252-.448.364-.672.121-.224.22-.43.294-.616Zm-5.922 6.622 1.106.182c-.29 1.344-.723 2.534-1.302 3.57-.579 1.027-1.288 1.876-2.128 2.548a2.404 2.404 0 0 0-.266-.252 10.07 10.07 0 0 0-.322-.28 6.641 6.641 0 0 0-.294-.21c.84-.579 1.521-1.344 2.044-2.296.532-.961.92-2.049 1.162-3.262Z"></path>
</svg>