<svg xmlns="http://www.w3.org/2000/svg" width="306" height="60" fill="none" viewBox="0 0 306 60">
  <rect width="305" height="59" x=".5" y=".5" stroke="#8A38F5" stroke-dasharray="10 5" rx="4.5"></rect>
  <path fill="#636363" d="M29.368 37.045h-6.599v-6.599h6.599v6.599Zm7.863 0h-6.599v-6.599h6.599v6.599Zm-13.479-.985h4.631v-4.63h-4.63v4.63Zm7.864 0h4.63v-4.63h-4.63v4.63Zm-2.248-6.505h-6.599v-6.6h6.599v6.6Zm7.863 0h-6.599v-6.6h6.599v6.6Zm-13.479-.985h4.631v-4.63h-4.63v4.63Zm7.864 0h4.63v-4.63h-4.63v4.63Zm32.118 2.397v5.8h-.967V35.8H49.233v.967h-.967v-5.8h.967v.853l1.933-3.867v-4.72h.967v.967h7.734v-.967h.967v2.9a.968.968 0 0 1 .891.59c.055.12.08.246.075.377v1.933a.92.92 0 0 1-.158.529l1.125 2.258v-.853h.967ZM56.967 27.1v1.933h3.867V27.1h-3.867Zm-4.834-1.934v2.9H56V27.1a.938.938 0 0 1 .28-.68c.085-.086.188-.156.31-.211a.82.82 0 0 1 .377-.076h2.9v-.967h-7.734Zm-1.873 6.767h11.48L60.773 30h-3.806a.938.938 0 0 1-.68-.28 1.053 1.053 0 0 1-.212-.31.819.819 0 0 1-.075-.377h-4.297l-1.443 2.9Zm12.507 2.9V32.9H49.233v1.934h13.534Zm15.601-12.096h1.037v5.189h-1.037v-5.19Z"></path>
  <path fill="#636363" d="M80.962 27.407a2.076 2.076 0 0 1-4.151 0v-4.67h-1.038v4.67a3.112 3.112 0 0 0 2.595 3.066v6.793h1.037v-6.793A3.113 3.113 0 0 0 82 27.407v-4.67h-1.038v4.67Zm4.151-4.67h-.519v14.529h1.038v-5.19h1.557a1.038 1.038 0 0 0 1.037-1.037V25.85a3 3 0 0 0-3.113-3.113Zm2.076 8.302h-1.557V23.82c1.494.29 1.557 1.837 1.557 2.03v5.188Zm21.962 4.315a.876.876 0 1 1 0 1.751.876.876 0 0 1 0-1.751Zm-6.205-.045a.876.876 0 1 1 0 1.752.876.876 0 0 1 0-1.752Zm-2.801-9.687h12.595a.7.7 0 0 1 .66.932l-2.642 7.554-.117.335h-9.424l-.092-.384-1.867-7.82-.002-.007-.696-3.12.977-.217.608 2.727Zm1.861 7.82h7.926l2.385-6.82h-11.939l1.628 6.82Zm6.913-1.264h-5.726v-1h5.726v1Zm23.983-5.91h3.793v9.669h.76V37h-14.91v-1.064h.984V22.998h9.373v3.269Zm0 9.669h2.728v-8.605h-2.728v8.605Zm-8.309-.002h7.245V24.063h-7.245v11.872Zm2.72-1.743h-1.45v-1.064h1.45v1.064Zm3.412 0h-1.45v-1.064h1.45v1.064Zm-3.412-3.903h-1.45v-1.064h1.45v1.064Zm3.412 0h-1.45v-1.064h1.45v1.064Zm-3.412-3.534h-1.45V25.69h1.45v1.065Zm3.412 0h-1.45V25.69h1.45v1.065Z"></path>
  <g clip-path="url(#a)">
    <path fill="#636363" d="M151.789 37.23a.413.413 0 0 1-.362-.21l-1.587-2.858-2.859-1.587a.405.405 0 0 1-.205-.304.425.425 0 0 1 .115-.349l.988-.988a.411.411 0 0 1 .357-.115l1.768.296 2.585-2.585-5.108-2.7a.41.41 0 0 1-.098-.652l1.317-1.317a.4.4 0 0 1 .406-.102l6.346 1.903 2.293-2.293c.723-.722 2.4-.812 3.048-.163.3.299.46.857.431 1.493-.033.644-.25 1.21-.595 1.555l-2.293 2.292 1.903 6.346a.401.401 0 0 1-.102.406l-1.317 1.317a.408.408 0 0 1-.352.115.422.422 0 0 1-.304-.213l-2.7-5.103-2.584 2.584.296 1.768a.418.418 0 0 1-.115.357l-.989.989a.384.384 0 0 1-.283.119Zm-3.934-5.11 2.486 1.382a.433.433 0 0 1 .16.16l1.382 2.486.451-.451-.295-1.768a.404.404 0 0 1 .115-.357l3.126-3.126a.396.396 0 0 1 .352-.115.422.422 0 0 1 .304.213l2.699 5.104.751-.751-1.903-6.347a.402.402 0 0 1 .102-.406l2.47-2.47c.197-.197.332-.586.352-1.013.02-.426-.078-.763-.189-.873-.279-.28-1.436-.288-1.887.164l-2.469 2.47a.403.403 0 0 1-.406.102l-6.346-1.904-.751.747 5.103 2.7a.411.411 0 0 1 .197.493.418.418 0 0 1-.098.163l-3.126 3.126a.412.412 0 0 1-.357.114l-1.768-.296-.455.452Z"></path>
  </g>
  <path fill="#636363" d="m175.063 26.003.647 5.164 1.687-1.056.074-.04a.59.59 0 0 1 .83.54v.663l2.204-1.403.075-.04a.591.591 0 0 1 .833.54v.938l2.061-1.213.074-.037a.59.59 0 0 1 .815.546v5.597l.643.001-.002 1.065a7520.162 7520.162 0 0 0-14.064-.01 369.138 369.138 0 0 0-1.818.008c-.039 0-.021.002.007-.002l-.135-1.057c.039-.005.089-.005.102-.006l.113-.002.385-.002c.211-.002.479-.003.795-.003l1.396-10.196.059-.424h3.165l.054.43Zm3.01 6.58-.754.479v-1.746l-1.474.924.496 3.953c2.402.001 4.983.004 7.042.007v-4.913l-2.212 1.304-.739.436V31.08l-2.359 1.501Zm-6.693 3.609h3.972l-1.209-9.637H172.7l-1.32 9.637Zm6.642-1.526h-1.121v-.98h1.121v.98Zm2.187 0h-1.121v-.98h1.121v.98Zm1.924 0h-1.121v-.98h1.121v.98Zm-7.937-11.9c.422-.077.916-.023 1.483.166l-.311.931c-.467-.155-.785-.17-.993-.131a.62.62 0 0 0-.398.228c-.192.245-.243.673-.19 1.04l-.97.14c-.069-.477-.045-1.23.387-1.783.229-.293.559-.51.992-.59ZM208 23.5h-.918a1.2 1.2 0 0 1 .019.2v12.6a1.2 1.2 0 0 1-.019.2H208v1h-14v-1h.918a1.201 1.201 0 0 1-.018-.2V23.7a1.2 1.2 0 0 1 .018-.2H194v-1h14v1Zm-11.899 0a.2.2 0 0 0-.201.2v12.6c0 .11.09.2.201.2h2.999v-3.2h-.2c-.436 0-.917-.38-.807-.944.248-1.275 1.504-2.156 2.907-2.156s2.659.881 2.907 2.156c.11.565-.371.944-.807.944h-.201v3.2h3.001a.2.2 0 0 0 .201-.2V23.7a.2.2 0 0 0-.201-.2h-9.799Zm3.999 13h1.799v-3.2H200.1v3.2Zm.9-5.3c-.905 0-1.603.494-1.851 1.1h3.702c-.248-.606-.946-1.1-1.851-1.1Zm-1.95-2.8h-1.7v-1h1.7v1Zm2.801 0h-1.701v-1h1.701v1Zm2.799 0h-1.7v-1h1.7v1Zm-5.6-2.1h-1.7v-1h1.7v1Zm2.801 0h-1.701v-1h1.701v1Zm2.799 0h-1.7v-1h1.7v1Zm22.567-3.695 4.353 3.351-.292.38-.293.38-.53-.41v1.753h2.952v8.605h1.173v.957h-15.16v-.957h1.122V28.06h2.952v-1.797l-.578.451-.294-.377-.294-.378 4.303-3.352.292-.228.294.227Zm-5.718 14.06h1.995v-7.649h-1.995v7.648Zm2.801-11.03h.151v11.03h.761v-4.448h3.364v4.447h.922V25.57l-2.571-1.98-2.627 2.046Zm6.155 11.03h1.995v-7.649h-1.995v7.648Zm-4.286 0h1.449v-3.49h-1.449v3.49Zm.738-9.826a1.591 1.591 0 1 1 0 3.183 1.591 1.591 0 0 1 0-3.183Zm0 .957a.634.634 0 1 0 .002 1.268.634.634 0 0 0-.002-1.268Z"></path>
  <path stroke="#636363" d="M245.084 36.804h1.78m14.052 0h-1.298m-10.715 0h8.713m-8.713 0V27.35m0 9.454h-2.039m10.752 0v-7.156m0 7.156h2.002m-8.379-9.454h1.891m1.89 0h-1.89m0 0v-1.928m0 1.928v1.928m-1.891 2.45h3.633m-3.633 2.147h3.633m-5.969-6.525v-4.154h8.713v6.452m-8.713-2.298h-2.039v9.454m10.752-7.156h2.002v7.156m14.814.409h-3.528V30.55h-2.12a.1.1 0 0 1-.072-.169l7.21-7.593 7.362 7.592a.1.1 0 0 1-.072.17h-2.116v6.664h-3.685m-2.979 0v-5.567h2.979v5.567m-2.979 0h2.979"></path>
  <defs>
    <clipPath id="a">
      <path fill="#fff" d="M146.713 22.713h14.575v14.575h-14.575z"></path>
    </clipPath>
  </defs>
</svg>