<svg xmlns="http://www.w3.org/2000/svg" width="266" height="57" fill="none" viewBox="0 0 266 57">
  <rect width="265" height="56" x=".5" y=".5" stroke="#9747FF" stroke-dasharray="10 5" rx="4.5"></rect>
  <path fill="#999" d="M40 33.5H24v-13h16v13Zm-7.7-6.475-.3.225-.3-.225L25 22v10.5h14V22l-6.7 5.025ZM32 26l5.999-4.499H26.001L32 25.999Zm34-7.278c2.3 0 4.388 1.468 4.389 3.525v2.698H73.5v10.333h-15V24.945h3.111v-2.698c0-2.056 2.09-3.525 4.389-3.525Zm-6.5 15.556h13v-8.333h-13v8.333Zm7-2.5h-1v-3.333h1v3.333ZM66 19.722c-1.996 0-3.389 1.24-3.389 2.525v2.698h6.778v-2.698c0-1.285-1.393-2.525-3.389-2.525Z"></path>
  <path stroke="#999" stroke-linecap="round" stroke-linejoin="round" d="M100 25.708a3.033 3.033 0 1 0 0-6.066 3.033 3.033 0 0 0 0 6.066Z"></path>
  <path stroke="#999" stroke-linecap="round" d="M93.5 33.422v.52h13v-.52c0-1.942 0-2.912-.378-3.654a3.467 3.467 0 0 0-1.515-1.515c-.741-.378-1.712-.378-3.654-.378h-1.906c-1.942 0-2.913 0-3.654.378a3.467 3.467 0 0 0-1.515 1.515c-.378.741-.378 1.712-.378 3.654Z"></path>
  <path stroke="#999" d="M134 35.138s7-4.575 7-9.864c0-3.771-3.134-6.828-7-6.828s-7 3.057-7 6.828c0 5.29 7 9.864 7 9.864Z"></path>
  <path stroke="#999" stroke-linejoin="round" d="M134 28.138a2.692 2.692 0 1 0 0-5.384 2.692 2.692 0 0 0 0 5.384Z"></path>
  <path fill="#999" d="m160.107 19 16.5 14.437.408.356-.714.816-.407-.358-6.307-5.518a3.046 3.046 0 0 1-1.587.44c-1.494 0-2.833-1.076-2.834-2.548 0-.51.167-.98.445-1.37l-6.217-5.441-.408-.357.714-.815.407.357Zm2.168 5.34-.439.318a17.605 17.605 0 0 0-2.266 1.967 17.594 17.594 0 0 0 2.266 1.968c1.619 1.174 3.799 2.303 6.164 2.303a8.03 8.03 0 0 0 1.717-.19l.529-.117.232 1.059-.528.115a9.124 9.124 0 0 1-1.95.217c-2.696 0-5.101-1.278-6.799-2.51a18.626 18.626 0 0 1-2.025-1.704 15.927 15.927 0 0 1-.7-.727c-.017-.018-.03-.034-.039-.045a.149.149 0 0 0-.011-.011l-.003-.004-.002-.002-.3-.352.3-.351.002-.002.003-.004a.133.133 0 0 0 .011-.012l.039-.045.146-.16c.128-.138.315-.334.554-.566a18.649 18.649 0 0 1 2.025-1.704l.438-.319.636.877ZM168 21.27c2.697.001 5.101 1.279 6.8 2.51.855.62 1.546 1.24 2.024 1.705a14.98 14.98 0 0 1 .701.726l.039.045a.11.11 0 0 0 .011.012l.003.004v.002l.3.351-.3.352v.002l-.003.004a.133.133 0 0 0-.011.011l-.039.045-.148.162a15.85 15.85 0 0 1-.553.565 18.601 18.601 0 0 1-2.024 1.704l-.438.319-.637-.878.438-.318a17.521 17.521 0 0 0 2.266-1.968 17.532 17.532 0 0 0-2.266-1.968c-1.618-1.174-3.797-2.302-6.163-2.302-.58 0-1.15.067-1.704.187l-.529.116-.231-1.059.531-.115A9.1 9.1 0 0 1 168 21.27Zm-1.566 4.704c-.12.2-.184.422-.184.651.001.743.714 1.463 1.75 1.463.254 0 .492-.046.706-.126l-2.272-1.988Z"></path>
  <g clip-path="url(#a)">
    <path stroke="#999" stroke-width="1.083" d="M202 33.417c5.063 0 9.167-6.417 9.167-6.417s-4.104-6.417-9.167-6.417S192.833 27 192.833 27s4.104 6.417 9.167 6.417Z"></path>
    <path stroke="#999" stroke-linejoin="round" stroke-width="1.083" d="M202 29.292a2.292 2.292 0 1 0 0-4.584 2.292 2.292 0 0 0 0 4.584Z"></path>
  </g>
  <path fill="#CCC" d="M236 18.667a8.335 8.335 0 0 1 0 16.667 8.333 8.333 0 0 1 0-16.667Zm0 7.448-2.891-2.89-.885.884 2.891 2.89-2.891 2.892.443.443.442.441L236 27.883l2.891 2.892.443-.441.441-.443L236.883 27l2.892-2.891-.441-.442-.443-.443-2.891 2.89Z"></path>
  <defs>
    <clipPath id="a">
      <path fill="#fff" d="M192 17h20v20h-20z"></path>
    </clipPath>
  </defs>
</svg>