<svg xmlns="http://www.w3.org/2000/svg" width="27" height="13" fill="none" viewBox="0 0 27 13">
  <path fill="#000" d="M0 1.288h12.446v.91H0v-.91ZM5.642.028H6.72v1.75H5.642V.028ZM2.464 10.164c.532-.028 1.143-.056 1.834-.084.7-.028 1.437-.06 2.212-.098a190.89 190.89 0 0 1 2.366-.126v.798l-2.282.168c-.756.047-1.48.089-2.17.126-.681.037-1.302.075-1.862.112l-.098-.896ZM10.5 7.56h1.092v4.186c0 .27-.037.48-.112.63-.065.159-.205.285-.42.378-.205.075-.476.117-.812.126-.327.019-.723.028-1.19.028a2.352 2.352 0 0 0-.168-.49 4.31 4.31 0 0 0-.224-.462c.243 0 .471.005.686.014.224.01.415.01.574 0h.322c.103-.01.168-.028.196-.056.037-.028.056-.084.056-.168V7.56ZM7.322 8.904l.784-.336c.243.243.48.513.714.812.243.299.457.593.644.882.196.29.34.56.434.812l-.826.364a4.103 4.103 0 0 0-.406-.812 10.493 10.493 0 0 0-.63-.896 6.227 6.227 0 0 0-.714-.826ZM3.78 3.332l.504-.602A16.077 16.077 0 0 1 7.42 4.004c.485.252.882.5 1.19.742l-.532.658a7.85 7.85 0 0 0-1.176-.742c-.476-.261-.99-.509-1.54-.742a12.223 12.223 0 0 0-1.582-.588Zm1.456 2.814 1.19.252c-.13.457-.28.943-.448 1.456a45.2 45.2 0 0 1-.49 1.47c-.168.467-.327.877-.476 1.232l-.882-.252c.14-.364.28-.789.42-1.274.14-.485.27-.98.392-1.484.121-.513.22-.98.294-1.4ZM.854 7.56H10.99v.896H1.932v4.438H.854V7.56Zm.896-4.844h1.022v2.926h6.93V2.716h1.05V6.51H1.75V2.716Zm5.88-.294.812.266c-.345.41-.77.789-1.274 1.134-.495.345-1.027.658-1.596.938-.57.27-1.125.509-1.666.714a3.59 3.59 0 0 0-.322-.308 3.22 3.22 0 0 0-.364-.28 21.36 21.36 0 0 0 1.68-.63c.56-.243 1.078-.518 1.554-.826A5.285 5.285 0 0 0 7.63 2.422Zm6.678 6.818a1.124 1.124 0 0 0-.084-.28 5.571 5.571 0 0 0-.126-.364 1.54 1.54 0 0 0-.126-.322c.159-.028.322-.121.49-.28.168-.168.36-.383.574-.644.112-.13.28-.34.504-.63.233-.29.485-.635.756-1.036.28-.401.565-.835.854-1.302.29-.467.555-.938.798-1.414l.882.532a32.556 32.556 0 0 1-1.82 2.8 21.206 21.206 0 0 1-1.974 2.38v.028l-.112.056c-.075.028-.159.07-.252.126a1.748 1.748 0 0 0-.252.182c-.075.056-.112.112-.112.168Zm0 0-.042-.854.504-.364 3.822-.686c-.019.14-.028.299-.028.476.01.168.019.303.028.406-.877.177-1.587.327-2.128.448-.532.112-.943.205-1.232.28a6.2 6.2 0 0 0-.616.168c-.13.037-.233.08-.308.126Zm-.084-3.374a2.67 2.67 0 0 0-.098-.294A8.87 8.87 0 0 0 14 5.194a1.54 1.54 0 0 0-.126-.322c.13-.028.257-.121.378-.28.13-.159.27-.355.42-.588.075-.112.187-.299.336-.56a19.48 19.48 0 0 0 1.064-2.114c.187-.42.35-.84.49-1.26l.98.462c-.233.57-.5 1.143-.798 1.722a21.32 21.32 0 0 1-.924 1.638c-.317.523-.64.99-.966 1.4v.028l-.098.056c-.056.037-.13.084-.224.14a1.462 1.462 0 0 0-.224.182c-.056.056-.084.112-.084.168Zm0 0-.028-.784.504-.322 2.618-.266c-.028.14-.051.294-.07.462-.01.168-.014.303-.014.406-.597.075-1.083.14-1.456.196-.364.047-.649.089-.854.126a5.76 5.76 0 0 0-.462.098 1.346 1.346 0 0 0-.238.084Zm-.252 5.166c.392-.103.84-.22 1.344-.35.504-.13 1.036-.275 1.596-.434a443.7 443.7 0 0 1 1.722-.476l.154.896c-.812.243-1.62.48-2.422.714-.803.233-1.526.453-2.17.658l-.224-1.008Zm5.306-7.644 6.58-.98.168.924-6.58 1.008-.168-.952Zm-.28 3.01 7.252-1.344.168.924-7.252 1.372-.168-.952ZM21.392 0h1.036c0 1.101.023 2.156.07 3.164a40.78 40.78 0 0 0 .252 2.842c.121.877.261 1.675.42 2.394.168.71.36 1.325.574 1.848.215.513.453.91.714 1.19.27.27.56.406.868.406.121 0 .22-.042.294-.126.084-.093.15-.252.196-.476a6.6 6.6 0 0 0 .098-.966 1.9 1.9 0 0 0 .378.336c.15.093.285.168.406.224-.056.523-.14.929-.252 1.218-.112.299-.266.509-.462.63s-.453.182-.77.182c-.467 0-.887-.159-1.26-.476-.364-.308-.686-.751-.966-1.33a11.688 11.688 0 0 1-.728-2.058c-.196-.793-.36-1.67-.49-2.632a47.42 47.42 0 0 1-.28-3.052A75.554 75.554 0 0 1 21.392 0Zm1.68.868.616-.588c.233.103.476.224.728.364.261.14.504.285.728.434.233.14.425.275.574.406l-.616.658a5.702 5.702 0 0 0-.924-.658 10.349 10.349 0 0 0-1.106-.616Zm2.562 6.034.882.42a10.909 10.909 0 0 1-1.904 2.226 14.123 14.123 0 0 1-2.506 1.792 17.31 17.31 0 0 1-2.898 1.316 2.784 2.784 0 0 0-.294-.448 4.225 4.225 0 0 0-.364-.42c.999-.308 1.946-.7 2.842-1.176a13.093 13.093 0 0 0 2.45-1.652 9.428 9.428 0 0 0 1.792-2.058Z"></path>
</svg>