<svg xmlns="http://www.w3.org/2000/svg" width="24" height="24" fill="none" viewBox="0 0 24 24">
  <g clip-path="url(#a)">
    <path stroke="#CCC" d="M12 .5C18.35.5 23.5 5.648 23.5 12c0 6.35-5.15 11.5-11.5 11.5C5.648 23.5.5 18.35.5 12 .5 5.648 5.648.5 12 .5Z"></path>
    <path fill="#999" d="M15.6 16.303v1.2H8.4v-1.2h7.2Zm-3-3.522 1.517-1.518.424-.425.848.849-.425.424-2.54 2.54-.424.425-.424-.424-2.541-2.541-.425-.424.849-.849.423.425 1.518 1.518V6.497h1.2v6.284Z"></path>
  </g>
  <defs>
    <clipPath id="a">
      <path fill="#fff" d="M0 0h24v24H0z"></path>
    </clipPath>
  </defs>
</svg>