<svg xmlns="http://www.w3.org/2000/svg" width="36" height="36" fill="none" viewBox="0 0 36 36">
  <path stroke="#2B2B2B" stroke-width="1.2" d="M5 4h26v28.625L26.667 30l-4.334 2.625L18 30l-4.333 2.625L9.333 30 5 32.625V4Z"></path>
  <path stroke="#999" stroke-width=".573" d="M7.5 6.307h21v22.236l-2.092-1.236-4.173 2.496L18 27.307l-4.186 2.496-4.111-2.496L7.5 28.543V6.307Z"></path>
  <path fill="#00A870" d="m18.902 21.97 3.27-9.766h1.682l3.269 9.766h-1.255l-3.058-9.06h.38l-3.032 9.061h-1.255Zm1.574-2.285v-1.133h5.073v1.133h-5.073Zm-6.418 2.489c-.972 0-1.797-.215-2.476-.644a4.143 4.143 0 0 1-1.553-1.791c-.353-.764-.529-1.648-.529-2.652 0-1.004.176-1.888.529-2.652a4.143 4.143 0 0 1 1.553-1.79c.678-.43 1.504-.645 2.476-.645 1.13 0 2.06.287 2.788.861.732.575 1.236 1.348 1.512 2.32l-1.228.326c-.198-.728-.553-1.303-1.064-1.723-.511-.42-1.18-.631-2.008-.631-.728 0-1.334.165-1.818.495-.484.33-.848.792-1.092 1.384-.244.588-.368 1.273-.373 2.055-.004.778.115 1.463.36 2.055.244.588.61 1.05 1.098 1.384.489.33 1.097.495 1.825.495.827 0 1.497-.21 2.008-.63.51-.426.866-1 1.064-1.724l1.228.326c-.276.968-.78 1.74-1.512 2.32-.728.574-1.658.86-2.788.86Z"></path>
</svg>