<svg xmlns="http://www.w3.org/2000/svg" width="16" height="16" fill="none" viewBox="0 0 16 16">
  <path stroke="#131313" stroke-linecap="round" stroke-linejoin="round" stroke-width="1.2" d="M6.343 7.34a1.061 1.061 0 0 0-.192 0A2.578 2.578 0 0 1 3.66 4.758c0-1.43 1.155-2.59 2.59-2.59a2.587 2.587 0 0 1 .093 5.174Zm4.23-4.007a2.04 2.04 0 0 1 2.041 2.042c0 1.102-.875 2-1.966 2.042a.658.658 0 0 0-.151 0m-1.231 5.5c1.411-.945 1.411-2.485 0-3.424-1.599-1.067-4.23-1.067-5.84 0-1.411.945-1.411 2.485 0 3.424m8.272-.25a2.82 2.82 0 0 0 1.144-.508c.91-.682.91-1.808 0-2.49a2.901 2.901 0 0 0-1.126-.502"></path>
</svg>