<svg xmlns="http://www.w3.org/2000/svg" width="16" height="16" fill="none" viewBox="0 0 16 16">
  <path stroke="#131313" stroke-linecap="round" stroke-linejoin="round" stroke-width="1.25" d="M6 3.333H4.667a1.333 1.333 0 0 0-1.334 1.334v8A1.333 1.333 0 0 0 4.667 14h6.666a1.334 1.334 0 0 0 1.334-1.333v-8a1.334 1.334 0 0 0-1.334-1.334H10m-4 0A1.333 1.333 0 0 1 7.333 2h1.334A1.333 1.333 0 0 1 10 3.333m-4 0a1.333 1.333 0 0 0 1.333 1.334h1.334A1.333 1.333 0 0 0 10 3.333m-4 8V8.667m2 2.666v-.666m2 .666V10"></path>
</svg>