<svg xmlns="http://www.w3.org/2000/svg" width="16" height="16" fill="none" viewBox="0 0 16 16">
  <path stroke="#131313" stroke-linecap="round" stroke-linejoin="round" stroke-width="1.25" d="M13.25 4.18A1.483 1.483 0 0 1 14 5.479v4.856c0 .539-.295 1.036-.772 1.298l-4.5 2.847a1.513 1.513 0 0 1-1.456 0l-4.5-2.847A1.483 1.483 0 0 1 2 10.335V5.478c0-.54.295-1.036.772-1.298l4.5-2.653a1.553 1.553 0 0 1 1.5 0l4.5 2.653h-.022Z"></path>
  <path stroke="#131313" stroke-linecap="round" stroke-linejoin="round" stroke-width="1.25" d="M6 8a2 2 0 1 0 4 0 2 2 0 0 0-4 0Z"></path>
</svg>