<svg xmlns="http://www.w3.org/2000/svg" width="16" height="16" fill="none" viewBox="0 0 16 16">
  <path fill="#131313" d="M7.333 8a.667.667 0 1 0 1.334 0 .667.667 0 0 0-1.334 0Zm0 4.667a.667.667 0 1 0 1.334 0 .667.667 0 0 0-1.334 0Zm0-9.334a.667.667 0 1 0 1.334 0 .667.667 0 0 0-1.334 0Z"></path>
  <path stroke="#131313" stroke-linecap="round" stroke-linejoin="round" stroke-width="1.25" d="M7.333 8a.667.667 0 1 0 1.334 0 .667.667 0 0 0-1.334 0Zm0 4.667a.667.667 0 1 0 1.334 0 .667.667 0 0 0-1.334 0Zm0-9.334a.667.667 0 1 0 1.334 0 .667.667 0 0 0-1.334 0Z"></path>
</svg>